<svg width="154" height="152" viewBox="0 0 154 152" fill="none" xmlns="http://www.w3.org/2000/svg">
<rect y="20" width="154" height="132" rx="20" fill="#E1E4EA"/>
<rect y="35" width="154" height="21" fill="#709BEF" fill-opacity="0.09"/>
<rect y="35" width="154" height="21" fill="#709BEF" fill-opacity="0.09"/>
<rect y="35" width="154" height="21" fill="#709BEF" fill-opacity="0.09"/>
<rect y="79" width="154" height="21" fill="#709BEF" fill-opacity="0.09"/>
<rect y="79" width="154" height="21" fill="#709BEF" fill-opacity="0.09"/>
<rect y="79" width="154" height="21" fill="#709BEF" fill-opacity="0.09"/>
<rect y="115" width="154" height="21" fill="#709BEF" fill-opacity="0.09"/>
<rect y="115" width="154" height="21" fill="#709BEF" fill-opacity="0.09"/>
<rect y="115" width="154" height="21" fill="#709BEF" fill-opacity="0.09"/>
<path d="M20.9455 49V40.6H22.1455V49H20.9455ZM23.3884 49L27.1924 40.6H28.3804L32.1964 49H30.9364L27.5404 41.272H28.0204L24.6244 49H23.3884ZM25.0084 46.9L25.3324 45.94H30.0604L30.4084 46.9H25.0084ZM33.4495 49V40.6H34.6495V47.956H39.1975V49H33.4495ZM20.9455 70V61.6H22.1455V70H20.9455ZM23.3884 70L27.1924 61.6H28.3804L32.1964 70H30.9364L27.5404 62.272H28.0204L24.6244 70H23.3884ZM25.0084 67.9L25.3324 66.94H30.0604L30.4084 67.9H25.0084ZM33.4495 70V61.6H34.6495V68.956H39.1975V70H33.4495ZM20.9455 91V82.6H22.1455V91H20.9455ZM23.3884 91L27.1924 82.6H28.3804L32.1964 91H30.9364L27.5404 83.272H28.0204L24.6244 91H23.3884ZM25.0084 88.9L25.3324 87.94H30.0604L30.4084 88.9H25.0084ZM33.4495 91V82.6H34.6495V89.956H39.1975V91H33.4495ZM19.6975 112V103.6H20.8975V112H19.6975ZM29.4363 103.6H30.6363V112H29.4363V103.6ZM24.6123 112H23.4123V103.6H24.6123V112ZM29.5443 108.256H24.4923V107.212H29.5443V108.256ZM36.9066 112.096C36.2666 112.096 35.6746 111.992 35.1306 111.784C34.5946 111.568 34.1266 111.268 33.7266 110.884C33.3346 110.492 33.0266 110.036 32.8026 109.516C32.5786 108.996 32.4666 108.424 32.4666 107.8C32.4666 107.176 32.5786 106.604 32.8026 106.084C33.0266 105.564 33.3386 105.112 33.7386 104.728C34.1386 104.336 34.6066 104.036 35.1426 103.828C35.6866 103.612 36.2786 103.504 36.9186 103.504C37.5666 103.504 38.1626 103.616 38.7066 103.84C39.2586 104.056 39.7266 104.38 40.1106 104.812L39.3306 105.568C39.0106 105.232 38.6506 104.984 38.2506 104.824C37.8506 104.656 37.4226 104.572 36.9666 104.572C36.4946 104.572 36.0546 104.652 35.6466 104.812C35.2466 104.972 34.8986 105.196 34.6026 105.484C34.3066 105.772 34.0746 106.116 33.9066 106.516C33.7466 106.908 33.6666 107.336 33.6666 107.8C33.6666 108.264 33.7466 108.696 33.9066 109.096C34.0746 109.488 34.3066 109.828 34.6026 110.116C34.8986 110.404 35.2466 110.628 35.6466 110.788C36.0546 110.948 36.4946 111.028 36.9666 111.028C37.4226 111.028 37.8506 110.948 38.2506 110.788C38.6506 110.62 39.0106 110.364 39.3306 110.02L40.1106 110.776C39.7266 111.208 39.2586 111.536 38.7066 111.76C38.1626 111.984 37.5626 112.096 36.9066 112.096ZM19.6975 133V124.6H20.8975V133H19.6975ZM29.4363 124.6H30.6363V133H29.4363V124.6ZM24.6123 133H23.4123V124.6H24.6123V133ZM29.5443 129.256H24.4923V128.212H29.5443V129.256ZM36.9066 133.096C36.2666 133.096 35.6746 132.992 35.1306 132.784C34.5946 132.568 34.1266 132.268 33.7266 131.884C33.3346 131.492 33.0266 131.036 32.8026 130.516C32.5786 129.996 32.4666 129.424 32.4666 128.8C32.4666 128.176 32.5786 127.604 32.8026 127.084C33.0266 126.564 33.3386 126.112 33.7386 125.728C34.1386 125.336 34.6066 125.036 35.1426 124.828C35.6866 124.612 36.2786 124.504 36.9186 124.504C37.5666 124.504 38.1626 124.616 38.7066 124.84C39.2586 125.056 39.7266 125.38 40.1106 125.812L39.3306 126.568C39.0106 126.232 38.6506 125.984 38.2506 125.824C37.8506 125.656 37.4226 125.572 36.9666 125.572C36.4946 125.572 36.0546 125.652 35.6466 125.812C35.2466 125.972 34.8986 126.196 34.6026 126.484C34.3066 126.772 34.0746 127.116 33.9066 127.516C33.7466 127.908 33.6666 128.336 33.6666 128.8C33.6666 129.264 33.7466 129.696 33.9066 130.096C34.0746 130.488 34.3066 130.828 34.6026 131.116C34.8986 131.404 35.2466 131.628 35.6466 131.788C36.0546 131.948 36.4946 132.028 36.9666 132.028C37.4226 132.028 37.8506 131.948 38.2506 131.788C38.6506 131.62 39.0106 131.364 39.3306 131.02L40.1106 131.776C39.7266 132.208 39.2586 132.536 38.7066 132.76C38.1626 132.984 37.5626 133.096 36.9066 133.096Z" fill="black"/>
<path d="M69.3709 49V41.08L69.8869 41.644H67.4749V40.6H70.5589V49H69.3709ZM75.6723 49.096C74.9923 49.096 74.4043 48.996 73.9083 48.796C73.4123 48.596 73.0283 48.312 72.7563 47.944C72.4843 47.568 72.3483 47.128 72.3483 46.624C72.3483 46.128 72.4763 45.708 72.7323 45.364C72.9963 45.012 73.3763 44.748 73.8723 44.572C74.3683 44.388 74.9683 44.296 75.6723 44.296C76.3763 44.296 76.9763 44.388 77.4723 44.572C77.9763 44.748 78.3603 45.012 78.6243 45.364C78.8883 45.716 79.0203 46.136 79.0203 46.624C79.0203 47.128 78.8843 47.568 78.6123 47.944C78.3403 48.312 77.9523 48.596 77.4483 48.796C76.9443 48.996 76.3523 49.096 75.6723 49.096ZM75.6723 48.124C76.3443 48.124 76.8683 47.988 77.2443 47.716C77.6283 47.436 77.8203 47.06 77.8203 46.588C77.8203 46.124 77.6283 45.76 77.2443 45.496C76.8683 45.224 76.3443 45.088 75.6723 45.088C75.0083 45.088 74.4883 45.224 74.1123 45.496C73.7363 45.76 73.5483 46.124 73.5483 46.588C73.5483 47.06 73.7363 47.436 74.1123 47.716C74.4883 47.988 75.0083 48.124 75.6723 48.124ZM75.6723 44.944C75.0323 44.944 74.4883 44.86 74.0403 44.692C73.5923 44.516 73.2483 44.268 73.0083 43.948C72.7683 43.62 72.6483 43.232 72.6483 42.784C72.6483 42.312 72.7723 41.908 73.0203 41.572C73.2763 41.228 73.6323 40.964 74.0883 40.78C74.5443 40.596 75.0723 40.504 75.6723 40.504C76.2803 40.504 76.8123 40.596 77.2683 40.78C77.7243 40.964 78.0803 41.228 78.3363 41.572C78.5923 41.908 78.7203 42.312 78.7203 42.784C78.7203 43.232 78.6003 43.62 78.3603 43.948C78.1203 44.268 77.7723 44.516 77.3163 44.692C76.8603 44.86 76.3123 44.944 75.6723 44.944ZM75.6723 44.176C76.2563 44.176 76.7123 44.056 77.0403 43.816C77.3763 43.576 77.5443 43.248 77.5443 42.832C77.5443 42.408 77.3723 42.076 77.0283 41.836C76.6843 41.596 76.2323 41.476 75.6723 41.476C75.1123 41.476 74.6643 41.596 74.3283 41.836C74.0003 42.076 73.8363 42.408 73.8363 42.832C73.8363 43.248 73.9963 43.576 74.3163 43.816C74.6443 44.056 75.0963 44.176 75.6723 44.176ZM80.911 44.224C80.687 44.224 80.495 44.148 80.335 43.996C80.175 43.836 80.095 43.636 80.095 43.396C80.095 43.156 80.175 42.96 80.335 42.808C80.495 42.656 80.687 42.58 80.911 42.58C81.127 42.58 81.311 42.656 81.463 42.808C81.623 42.96 81.703 43.156 81.703 43.396C81.703 43.636 81.623 43.836 81.463 43.996C81.311 44.148 81.127 44.224 80.911 44.224ZM80.911 49.072C80.687 49.072 80.495 48.996 80.335 48.844C80.175 48.684 80.095 48.484 80.095 48.244C80.095 48.004 80.175 47.808 80.335 47.656C80.495 47.504 80.687 47.428 80.911 47.428C81.127 47.428 81.311 47.504 81.463 47.656C81.623 47.808 81.703 48.004 81.703 48.244C81.703 48.484 81.623 48.684 81.463 48.844C81.311 48.996 81.127 49.072 80.911 49.072ZM85.4057 49.096C84.8137 49.096 84.2377 49.004 83.6777 48.82C83.1257 48.636 82.6737 48.388 82.3217 48.076L82.8737 47.128C83.1537 47.392 83.5177 47.608 83.9657 47.776C84.4137 47.944 84.8937 48.028 85.4057 48.028C86.0297 48.028 86.5137 47.896 86.8577 47.632C87.2097 47.36 87.3857 46.996 87.3857 46.54C87.3857 46.1 87.2177 45.748 86.8817 45.484C86.5537 45.212 86.0297 45.076 85.3097 45.076H84.6377V44.236L87.1337 41.164L87.3017 41.644H82.7057V40.6H88.2497V41.416L85.7657 44.476L85.1417 44.104H85.5377C86.5537 44.104 87.3137 44.332 87.8177 44.788C88.3297 45.244 88.5857 45.824 88.5857 46.528C88.5857 47 88.4697 47.432 88.2377 47.824C88.0057 48.216 87.6537 48.528 87.1817 48.76C86.7177 48.984 86.1257 49.096 85.4057 49.096ZM93.1369 49.096C92.4809 49.096 91.8929 48.928 91.3729 48.592C90.8609 48.256 90.4529 47.768 90.1489 47.128C89.8529 46.488 89.7049 45.712 89.7049 44.8C89.7049 43.888 89.8529 43.112 90.1489 42.472C90.4529 41.832 90.8609 41.344 91.3729 41.008C91.8929 40.672 92.4809 40.504 93.1369 40.504C93.7849 40.504 94.3689 40.672 94.8889 41.008C95.4089 41.344 95.8169 41.832 96.1129 42.472C96.4089 43.112 96.5569 43.888 96.5569 44.8C96.5569 45.712 96.4089 46.488 96.1129 47.128C95.8169 47.768 95.4089 48.256 94.8889 48.592C94.3689 48.928 93.7849 49.096 93.1369 49.096ZM93.1369 48.028C93.5769 48.028 93.9609 47.908 94.2889 47.668C94.6249 47.428 94.8849 47.068 95.0689 46.588C95.2609 46.108 95.3569 45.512 95.3569 44.8C95.3569 44.088 95.2609 43.492 95.0689 43.012C94.8849 42.532 94.6249 42.172 94.2889 41.932C93.9609 41.692 93.5769 41.572 93.1369 41.572C92.6969 41.572 92.3089 41.692 91.9729 41.932C91.6369 42.172 91.3729 42.532 91.1809 43.012C90.9969 43.492 90.9049 44.088 90.9049 44.8C90.9049 45.512 90.9969 46.108 91.1809 46.588C91.3729 47.068 91.6369 47.428 91.9729 47.668C92.3089 47.908 92.6969 48.028 93.1369 48.028ZM101.039 46.204V45.208H104.267V46.204H101.039ZM110.164 49V41.08L110.68 41.644H108.268V40.6H111.352V49H110.164ZM115.913 40.504C116.673 40.504 117.313 40.668 117.833 40.996C118.361 41.324 118.761 41.8 119.033 42.424C119.305 43.04 119.441 43.796 119.441 44.692C119.441 45.644 119.273 46.448 118.937 47.104C118.601 47.76 118.137 48.256 117.545 48.592C116.953 48.928 116.261 49.096 115.469 49.096C115.077 49.096 114.697 49.056 114.329 48.976C113.969 48.896 113.653 48.772 113.381 48.604L113.837 47.668C114.061 47.812 114.309 47.916 114.581 47.98C114.861 48.036 115.153 48.064 115.457 48.064C116.305 48.064 116.981 47.8 117.485 47.272C117.989 46.736 118.241 45.944 118.241 44.896C118.241 44.728 118.233 44.528 118.217 44.296C118.201 44.064 118.165 43.836 118.109 43.612L118.505 44.02C118.393 44.388 118.205 44.7 117.941 44.956C117.685 45.204 117.373 45.392 117.005 45.52C116.645 45.64 116.249 45.7 115.817 45.7C115.265 45.7 114.773 45.596 114.341 45.388C113.909 45.18 113.569 44.888 113.321 44.512C113.073 44.128 112.949 43.676 112.949 43.156C112.949 42.612 113.077 42.144 113.333 41.752C113.597 41.352 113.953 41.044 114.401 40.828C114.857 40.612 115.361 40.504 115.913 40.504ZM115.961 41.476C115.601 41.476 115.281 41.544 115.001 41.68C114.721 41.816 114.501 42.004 114.341 42.244C114.189 42.484 114.113 42.772 114.113 43.108C114.113 43.604 114.285 44 114.629 44.296C114.973 44.584 115.437 44.728 116.021 44.728C116.405 44.728 116.741 44.656 117.029 44.512C117.325 44.368 117.553 44.172 117.713 43.924C117.881 43.676 117.965 43.4 117.965 43.096C117.965 42.8 117.889 42.532 117.737 42.292C117.585 42.052 117.361 41.856 117.065 41.704C116.769 41.552 116.401 41.476 115.961 41.476ZM121.388 44.224C121.164 44.224 120.972 44.148 120.812 43.996C120.652 43.836 120.572 43.636 120.572 43.396C120.572 43.156 120.652 42.96 120.812 42.808C120.972 42.656 121.164 42.58 121.388 42.58C121.604 42.58 121.788 42.656 121.94 42.808C122.1 42.96 122.18 43.156 122.18 43.396C122.18 43.636 122.1 43.836 121.94 43.996C121.788 44.148 121.604 44.224 121.388 44.224ZM121.388 49.072C121.164 49.072 120.972 48.996 120.812 48.844C120.652 48.684 120.572 48.484 120.572 48.244C120.572 48.004 120.652 47.808 120.812 47.656C120.972 47.504 121.164 47.428 121.388 47.428C121.604 47.428 121.788 47.504 121.94 47.656C122.1 47.808 122.18 48.004 122.18 48.244C122.18 48.484 122.1 48.684 121.94 48.844C121.788 48.996 121.604 49.072 121.388 49.072ZM123.182 49V48.184L126.602 44.884C126.906 44.596 127.13 44.344 127.274 44.128C127.426 43.904 127.526 43.7 127.574 43.516C127.63 43.324 127.658 43.14 127.658 42.964C127.658 42.532 127.506 42.192 127.202 41.944C126.898 41.696 126.454 41.572 125.87 41.572C125.422 41.572 125.018 41.648 124.658 41.8C124.298 41.944 123.986 42.172 123.722 42.484L122.906 41.776C123.226 41.368 123.654 41.056 124.19 40.84C124.734 40.616 125.33 40.504 125.978 40.504C126.562 40.504 127.07 40.6 127.502 40.792C127.934 40.976 128.266 41.244 128.498 41.596C128.738 41.948 128.858 42.364 128.858 42.844C128.858 43.116 128.822 43.384 128.75 43.648C128.678 43.912 128.542 44.192 128.342 44.488C128.142 44.784 127.854 45.116 127.478 45.484L124.43 48.424L124.142 47.956H129.218V49H123.182ZM133.625 49.096C132.969 49.096 132.381 48.928 131.861 48.592C131.349 48.256 130.941 47.768 130.637 47.128C130.341 46.488 130.193 45.712 130.193 44.8C130.193 43.888 130.341 43.112 130.637 42.472C130.941 41.832 131.349 41.344 131.861 41.008C132.381 40.672 132.969 40.504 133.625 40.504C134.273 40.504 134.857 40.672 135.377 41.008C135.897 41.344 136.305 41.832 136.601 42.472C136.897 43.112 137.045 43.888 137.045 44.8C137.045 45.712 136.897 46.488 136.601 47.128C136.305 47.768 135.897 48.256 135.377 48.592C134.857 48.928 134.273 49.096 133.625 49.096ZM133.625 48.028C134.065 48.028 134.449 47.908 134.777 47.668C135.113 47.428 135.373 47.068 135.557 46.588C135.749 46.108 135.845 45.512 135.845 44.8C135.845 44.088 135.749 43.492 135.557 43.012C135.373 42.532 135.113 42.172 134.777 41.932C134.449 41.692 134.065 41.572 133.625 41.572C133.185 41.572 132.797 41.692 132.461 41.932C132.125 42.172 131.861 42.532 131.669 43.012C131.485 43.492 131.393 44.088 131.393 44.8C131.393 45.512 131.485 46.108 131.669 46.588C131.861 47.068 132.125 47.428 132.461 47.668C132.797 47.908 133.185 48.028 133.625 48.028ZM69.2244 70V62.08L69.7404 62.644H67.3284V61.6H70.4124V70H69.2244ZM74.9738 61.504C75.7338 61.504 76.3738 61.668 76.8938 61.996C77.4218 62.324 77.8218 62.8 78.0938 63.424C78.3658 64.04 78.5018 64.796 78.5018 65.692C78.5018 66.644 78.3338 67.448 77.9978 68.104C77.6618 68.76 77.1978 69.256 76.6058 69.592C76.0138 69.928 75.3218 70.096 74.5298 70.096C74.1378 70.096 73.7578 70.056 73.3898 69.976C73.0298 69.896 72.7138 69.772 72.4418 69.604L72.8978 68.668C73.1218 68.812 73.3698 68.916 73.6418 68.98C73.9218 69.036 74.2138 69.064 74.5178 69.064C75.3658 69.064 76.0418 68.8 76.5458 68.272C77.0498 67.736 77.3018 66.944 77.3018 65.896C77.3018 65.728 77.2938 65.528 77.2778 65.296C77.2618 65.064 77.2258 64.836 77.1698 64.612L77.5658 65.02C77.4538 65.388 77.2658 65.7 77.0018 65.956C76.7458 66.204 76.4338 66.392 76.0658 66.52C75.7058 66.64 75.3098 66.7 74.8778 66.7C74.3258 66.7 73.8338 66.596 73.4018 66.388C72.9698 66.18 72.6298 65.888 72.3818 65.512C72.1338 65.128 72.0098 64.676 72.0098 64.156C72.0098 63.612 72.1378 63.144 72.3938 62.752C72.6578 62.352 73.0138 62.044 73.4618 61.828C73.9178 61.612 74.4218 61.504 74.9738 61.504ZM75.0218 62.476C74.6618 62.476 74.3418 62.544 74.0618 62.68C73.7818 62.816 73.5618 63.004 73.4018 63.244C73.2498 63.484 73.1738 63.772 73.1738 64.108C73.1738 64.604 73.3458 65 73.6898 65.296C74.0338 65.584 74.4978 65.728 75.0818 65.728C75.4658 65.728 75.8018 65.656 76.0898 65.512C76.3858 65.368 76.6138 65.172 76.7738 64.924C76.9418 64.676 77.0258 64.4 77.0258 64.096C77.0258 63.8 76.9498 63.532 76.7978 63.292C76.6458 63.052 76.4218 62.856 76.1258 62.704C75.8298 62.552 75.4618 62.476 75.0218 62.476ZM80.4481 65.224C80.2241 65.224 80.0321 65.148 79.8721 64.996C79.7121 64.836 79.6321 64.636 79.6321 64.396C79.6321 64.156 79.7121 63.96 79.8721 63.808C80.0321 63.656 80.2241 63.58 80.4481 63.58C80.6641 63.58 80.8481 63.656 81.0001 63.808C81.1601 63.96 81.2401 64.156 81.2401 64.396C81.2401 64.636 81.1601 64.836 81.0001 64.996C80.8481 65.148 80.6641 65.224 80.4481 65.224ZM80.4481 70.072C80.2241 70.072 80.0321 69.996 79.8721 69.844C79.7121 69.684 79.6321 69.484 79.6321 69.244C79.6321 69.004 79.7121 68.808 79.8721 68.656C80.0321 68.504 80.2241 68.428 80.4481 68.428C80.6641 68.428 80.8481 68.504 81.0001 68.656C81.1601 68.808 81.2401 69.004 81.2401 69.244C81.2401 69.484 81.1601 69.684 81.0001 69.844C80.8481 69.996 80.6641 70.072 80.4481 70.072ZM82.2428 70V69.184L85.6628 65.884C85.9668 65.596 86.1908 65.344 86.3348 65.128C86.4868 64.904 86.5868 64.7 86.6348 64.516C86.6908 64.324 86.7188 64.14 86.7188 63.964C86.7188 63.532 86.5668 63.192 86.2628 62.944C85.9588 62.696 85.5148 62.572 84.9308 62.572C84.4828 62.572 84.0788 62.648 83.7188 62.8C83.3588 62.944 83.0468 63.172 82.7828 63.484L81.9668 62.776C82.2868 62.368 82.7148 62.056 83.2508 61.84C83.7948 61.616 84.3908 61.504 85.0388 61.504C85.6228 61.504 86.1308 61.6 86.5628 61.792C86.9948 61.976 87.3268 62.244 87.5588 62.596C87.7988 62.948 87.9188 63.364 87.9188 63.844C87.9188 64.116 87.8828 64.384 87.8108 64.648C87.7388 64.912 87.6028 65.192 87.4028 65.488C87.2028 65.784 86.9148 66.116 86.5388 66.484L83.4908 69.424L83.2028 68.956H88.2788V70H82.2428ZM92.6857 70.096C92.0297 70.096 91.4417 69.928 90.9217 69.592C90.4097 69.256 90.0017 68.768 89.6977 68.128C89.4017 67.488 89.2537 66.712 89.2537 65.8C89.2537 64.888 89.4017 64.112 89.6977 63.472C90.0017 62.832 90.4097 62.344 90.9217 62.008C91.4417 61.672 92.0297 61.504 92.6857 61.504C93.3337 61.504 93.9177 61.672 94.4377 62.008C94.9577 62.344 95.3657 62.832 95.6617 63.472C95.9577 64.112 96.1057 64.888 96.1057 65.8C96.1057 66.712 95.9577 67.488 95.6617 68.128C95.3657 68.768 94.9577 69.256 94.4377 69.592C93.9177 69.928 93.3337 70.096 92.6857 70.096ZM92.6857 69.028C93.1257 69.028 93.5097 68.908 93.8377 68.668C94.1737 68.428 94.4337 68.068 94.6177 67.588C94.8097 67.108 94.9057 66.512 94.9057 65.8C94.9057 65.088 94.8097 64.492 94.6177 64.012C94.4337 63.532 94.1737 63.172 93.8377 62.932C93.5097 62.692 93.1257 62.572 92.6857 62.572C92.2457 62.572 91.8577 62.692 91.5217 62.932C91.1857 63.172 90.9217 63.532 90.7297 64.012C90.5457 64.492 90.4537 65.088 90.4537 65.8C90.4537 66.512 90.5457 67.108 90.7297 67.588C90.9217 68.068 91.1857 68.428 91.5217 68.668C91.8577 68.908 92.2457 69.028 92.6857 69.028ZM100.588 67.204V66.208H103.816V67.204H100.588ZM108.165 70V69.184L111.585 65.884C111.889 65.596 112.113 65.344 112.257 65.128C112.409 64.904 112.509 64.7 112.557 64.516C112.613 64.324 112.641 64.14 112.641 63.964C112.641 63.532 112.489 63.192 112.185 62.944C111.881 62.696 111.437 62.572 110.853 62.572C110.405 62.572 110.001 62.648 109.641 62.8C109.281 62.944 108.969 63.172 108.705 63.484L107.889 62.776C108.209 62.368 108.637 62.056 109.173 61.84C109.717 61.616 110.313 61.504 110.961 61.504C111.545 61.504 112.053 61.6 112.485 61.792C112.917 61.976 113.249 62.244 113.481 62.596C113.721 62.948 113.841 63.364 113.841 63.844C113.841 64.116 113.805 64.384 113.733 64.648C113.661 64.912 113.525 65.192 113.325 65.488C113.125 65.784 112.837 66.116 112.461 66.484L109.413 69.424L109.125 68.956H114.201V70H108.165ZM118.608 70.096C117.952 70.096 117.364 69.928 116.844 69.592C116.332 69.256 115.924 68.768 115.62 68.128C115.324 67.488 115.176 66.712 115.176 65.8C115.176 64.888 115.324 64.112 115.62 63.472C115.924 62.832 116.332 62.344 116.844 62.008C117.364 61.672 117.952 61.504 118.608 61.504C119.256 61.504 119.84 61.672 120.36 62.008C120.88 62.344 121.288 62.832 121.584 63.472C121.88 64.112 122.028 64.888 122.028 65.8C122.028 66.712 121.88 67.488 121.584 68.128C121.288 68.768 120.88 69.256 120.36 69.592C119.84 69.928 119.256 70.096 118.608 70.096ZM118.608 69.028C119.048 69.028 119.432 68.908 119.76 68.668C120.096 68.428 120.356 68.068 120.54 67.588C120.732 67.108 120.828 66.512 120.828 65.8C120.828 65.088 120.732 64.492 120.54 64.012C120.356 63.532 120.096 63.172 119.76 62.932C119.432 62.692 119.048 62.572 118.608 62.572C118.168 62.572 117.78 62.692 117.444 62.932C117.108 63.172 116.844 63.532 116.652 64.012C116.468 64.492 116.376 65.088 116.376 65.8C116.376 66.512 116.468 67.108 116.652 67.588C116.844 68.068 117.108 68.428 117.444 68.668C117.78 68.908 118.168 69.028 118.608 69.028ZM123.972 65.224C123.748 65.224 123.556 65.148 123.396 64.996C123.236 64.836 123.156 64.636 123.156 64.396C123.156 64.156 123.236 63.96 123.396 63.808C123.556 63.656 123.748 63.58 123.972 63.58C124.188 63.58 124.372 63.656 124.524 63.808C124.684 63.96 124.764 64.156 124.764 64.396C124.764 64.636 124.684 64.836 124.524 64.996C124.372 65.148 124.188 65.224 123.972 65.224ZM123.972 70.072C123.748 70.072 123.556 69.996 123.396 69.844C123.236 69.684 123.156 69.484 123.156 69.244C123.156 69.004 123.236 68.808 123.396 68.656C123.556 68.504 123.748 68.428 123.972 68.428C124.188 68.428 124.372 68.504 124.524 68.656C124.684 68.808 124.764 69.004 124.764 69.244C124.764 69.484 124.684 69.684 124.524 69.844C124.372 69.996 124.188 70.072 123.972 70.072ZM127.314 70V62.08L127.83 62.644H125.418V61.6H128.502V70H127.314ZM133.772 70.096C133.116 70.096 132.528 69.928 132.008 69.592C131.496 69.256 131.088 68.768 130.784 68.128C130.488 67.488 130.34 66.712 130.34 65.8C130.34 64.888 130.488 64.112 130.784 63.472C131.088 62.832 131.496 62.344 132.008 62.008C132.528 61.672 133.116 61.504 133.772 61.504C134.42 61.504 135.004 61.672 135.524 62.008C136.044 62.344 136.452 62.832 136.748 63.472C137.044 64.112 137.192 64.888 137.192 65.8C137.192 66.712 137.044 67.488 136.748 68.128C136.452 68.768 136.044 69.256 135.524 69.592C135.004 69.928 134.42 70.096 133.772 70.096ZM133.772 69.028C134.212 69.028 134.596 68.908 134.924 68.668C135.26 68.428 135.52 68.068 135.704 67.588C135.896 67.108 135.992 66.512 135.992 65.8C135.992 65.088 135.896 64.492 135.704 64.012C135.52 63.532 135.26 63.172 134.924 62.932C134.596 62.692 134.212 62.572 133.772 62.572C133.332 62.572 132.944 62.692 132.608 62.932C132.272 63.172 132.008 63.532 131.816 64.012C131.632 64.492 131.54 65.088 131.54 65.8C131.54 66.512 131.632 67.108 131.816 67.588C132.008 68.068 132.272 68.428 132.608 68.668C132.944 68.908 133.332 69.028 133.772 69.028ZM67.3717 91V90.184L70.7917 86.884C71.0957 86.596 71.3197 86.344 71.4637 86.128C71.6157 85.904 71.7157 85.7 71.7637 85.516C71.8197 85.324 71.8477 85.14 71.8477 84.964C71.8477 84.532 71.6957 84.192 71.3917 83.944C71.0877 83.696 70.6437 83.572 70.0597 83.572C69.6117 83.572 69.2077 83.648 68.8477 83.8C68.4877 83.944 68.1757 84.172 67.9117 84.484L67.0957 83.776C67.4157 83.368 67.8437 83.056 68.3797 82.84C68.9237 82.616 69.5197 82.504 70.1677 82.504C70.7517 82.504 71.2597 82.6 71.6917 82.792C72.1237 82.976 72.4557 83.244 72.6877 83.596C72.9277 83.948 73.0477 84.364 73.0477 84.844C73.0477 85.116 73.0117 85.384 72.9397 85.648C72.8677 85.912 72.7317 86.192 72.5317 86.488C72.3317 86.784 72.0437 87.116 71.6677 87.484L68.6197 90.424L68.3317 89.956H73.4077V91H67.3717ZM77.8146 91.096C77.1586 91.096 76.5706 90.928 76.0506 90.592C75.5386 90.256 75.1306 89.768 74.8266 89.128C74.5306 88.488 74.3826 87.712 74.3826 86.8C74.3826 85.888 74.5306 85.112 74.8266 84.472C75.1306 83.832 75.5386 83.344 76.0506 83.008C76.5706 82.672 77.1586 82.504 77.8146 82.504C78.4626 82.504 79.0466 82.672 79.5666 83.008C80.0866 83.344 80.4946 83.832 80.7906 84.472C81.0866 85.112 81.2346 85.888 81.2346 86.8C81.2346 87.712 81.0866 88.488 80.7906 89.128C80.4946 89.768 80.0866 90.256 79.5666 90.592C79.0466 90.928 78.4626 91.096 77.8146 91.096ZM77.8146 90.028C78.2546 90.028 78.6386 89.908 78.9666 89.668C79.3026 89.428 79.5626 89.068 79.7466 88.588C79.9386 88.108 80.0346 87.512 80.0346 86.8C80.0346 86.088 79.9386 85.492 79.7466 85.012C79.5626 84.532 79.3026 84.172 78.9666 83.932C78.6386 83.692 78.2546 83.572 77.8146 83.572C77.3746 83.572 76.9866 83.692 76.6506 83.932C76.3146 84.172 76.0506 84.532 75.8586 85.012C75.6746 85.492 75.5826 86.088 75.5826 86.8C75.5826 87.512 75.6746 88.108 75.8586 88.588C76.0506 89.068 76.3146 89.428 76.6506 89.668C76.9866 89.908 77.3746 90.028 77.8146 90.028ZM83.1785 86.224C82.9545 86.224 82.7625 86.148 82.6025 85.996C82.4425 85.836 82.3625 85.636 82.3625 85.396C82.3625 85.156 82.4425 84.96 82.6025 84.808C82.7625 84.656 82.9545 84.58 83.1785 84.58C83.3945 84.58 83.5785 84.656 83.7305 84.808C83.8905 84.96 83.9705 85.156 83.9705 85.396C83.9705 85.636 83.8905 85.836 83.7305 85.996C83.5785 86.148 83.3945 86.224 83.1785 86.224ZM83.1785 91.072C82.9545 91.072 82.7625 90.996 82.6025 90.844C82.4425 90.684 82.3625 90.484 82.3625 90.244C82.3625 90.004 82.4425 89.808 82.6025 89.656C82.7625 89.504 82.9545 89.428 83.1785 89.428C83.3945 89.428 83.5785 89.504 83.7305 89.656C83.8905 89.808 83.9705 90.004 83.9705 90.244C83.9705 90.484 83.8905 90.684 83.7305 90.844C83.5785 90.996 83.3945 91.072 83.1785 91.072ZM86.5213 91V83.08L87.0373 83.644H84.6253V82.6H87.7093V91H86.5213ZM92.9787 91.096C92.3227 91.096 91.7347 90.928 91.2147 90.592C90.7027 90.256 90.2947 89.768 89.9907 89.128C89.6947 88.488 89.5467 87.712 89.5467 86.8C89.5467 85.888 89.6947 85.112 89.9907 84.472C90.2947 83.832 90.7027 83.344 91.2147 83.008C91.7347 82.672 92.3227 82.504 92.9787 82.504C93.6267 82.504 94.2107 82.672 94.7307 83.008C95.2507 83.344 95.6587 83.832 95.9547 84.472C96.2507 85.112 96.3987 85.888 96.3987 86.8C96.3987 87.712 96.2507 88.488 95.9547 89.128C95.6587 89.768 95.2507 90.256 94.7307 90.592C94.2107 90.928 93.6267 91.096 92.9787 91.096ZM92.9787 90.028C93.4187 90.028 93.8027 89.908 94.1307 89.668C94.4667 89.428 94.7267 89.068 94.9107 88.588C95.1027 88.108 95.1987 87.512 95.1987 86.8C95.1987 86.088 95.1027 85.492 94.9107 85.012C94.7267 84.532 94.4667 84.172 94.1307 83.932C93.8027 83.692 93.4187 83.572 92.9787 83.572C92.5387 83.572 92.1507 83.692 91.8147 83.932C91.4787 84.172 91.2147 84.532 91.0227 85.012C90.8387 85.492 90.7467 86.088 90.7467 86.8C90.7467 87.512 90.8387 88.108 91.0227 88.588C91.2147 89.068 91.4787 89.428 91.8147 89.668C92.1507 89.908 92.5387 90.028 92.9787 90.028ZM100.881 88.204V87.208H104.109V88.204H100.881ZM108.458 91V90.184L111.878 86.884C112.182 86.596 112.406 86.344 112.55 86.128C112.702 85.904 112.802 85.7 112.85 85.516C112.906 85.324 112.934 85.14 112.934 84.964C112.934 84.532 112.782 84.192 112.478 83.944C112.174 83.696 111.73 83.572 111.146 83.572C110.698 83.572 110.294 83.648 109.934 83.8C109.574 83.944 109.262 84.172 108.998 84.484L108.182 83.776C108.502 83.368 108.93 83.056 109.466 82.84C110.01 82.616 110.606 82.504 111.254 82.504C111.838 82.504 112.346 82.6 112.778 82.792C113.21 82.976 113.542 83.244 113.774 83.596C114.014 83.948 114.134 84.364 114.134 84.844C114.134 85.116 114.098 85.384 114.026 85.648C113.954 85.912 113.818 86.192 113.618 86.488C113.418 86.784 113.13 87.116 112.754 87.484L109.706 90.424L109.418 89.956H114.494V91H108.458ZM116.896 91V83.08L117.412 83.644H115V82.6H118.084V91H116.896ZM120.714 86.224C120.49 86.224 120.298 86.148 120.138 85.996C119.978 85.836 119.898 85.636 119.898 85.396C119.898 85.156 119.978 84.96 120.138 84.808C120.298 84.656 120.49 84.58 120.714 84.58C120.93 84.58 121.114 84.656 121.266 84.808C121.426 84.96 121.506 85.156 121.506 85.396C121.506 85.636 121.426 85.836 121.266 85.996C121.114 86.148 120.93 86.224 120.714 86.224ZM120.714 91.072C120.49 91.072 120.298 90.996 120.138 90.844C119.978 90.684 119.898 90.484 119.898 90.244C119.898 90.004 119.978 89.808 120.138 89.656C120.298 89.504 120.49 89.428 120.714 89.428C120.93 89.428 121.114 89.504 121.266 89.656C121.426 89.808 121.506 90.004 121.506 90.244C121.506 90.484 121.426 90.684 121.266 90.844C121.114 90.996 120.93 91.072 120.714 91.072ZM126.072 91.096C125.416 91.096 124.828 90.928 124.308 90.592C123.796 90.256 123.388 89.768 123.084 89.128C122.788 88.488 122.64 87.712 122.64 86.8C122.64 85.888 122.788 85.112 123.084 84.472C123.388 83.832 123.796 83.344 124.308 83.008C124.828 82.672 125.416 82.504 126.072 82.504C126.72 82.504 127.304 82.672 127.824 83.008C128.344 83.344 128.752 83.832 129.048 84.472C129.344 85.112 129.492 85.888 129.492 86.8C129.492 87.712 129.344 88.488 129.048 89.128C128.752 89.768 128.344 90.256 127.824 90.592C127.304 90.928 126.72 91.096 126.072 91.096ZM126.072 90.028C126.512 90.028 126.896 89.908 127.224 89.668C127.56 89.428 127.82 89.068 128.004 88.588C128.196 88.108 128.292 87.512 128.292 86.8C128.292 86.088 128.196 85.492 128.004 85.012C127.82 84.532 127.56 84.172 127.224 83.932C126.896 83.692 126.512 83.572 126.072 83.572C125.632 83.572 125.244 83.692 124.908 83.932C124.572 84.172 124.308 84.532 124.116 85.012C123.932 85.492 123.84 86.088 123.84 86.8C123.84 87.512 123.932 88.108 124.116 88.588C124.308 89.068 124.572 89.428 124.908 89.668C125.244 89.908 125.632 90.028 126.072 90.028ZM134.076 91.096C133.42 91.096 132.832 90.928 132.312 90.592C131.8 90.256 131.392 89.768 131.088 89.128C130.792 88.488 130.644 87.712 130.644 86.8C130.644 85.888 130.792 85.112 131.088 84.472C131.392 83.832 131.8 83.344 132.312 83.008C132.832 82.672 133.42 82.504 134.076 82.504C134.724 82.504 135.308 82.672 135.828 83.008C136.348 83.344 136.756 83.832 137.052 84.472C137.348 85.112 137.496 85.888 137.496 86.8C137.496 87.712 137.348 88.488 137.052 89.128C136.756 89.768 136.348 90.256 135.828 90.592C135.308 90.928 134.724 91.096 134.076 91.096ZM134.076 90.028C134.516 90.028 134.9 89.908 135.228 89.668C135.564 89.428 135.824 89.068 136.008 88.588C136.2 88.108 136.296 87.512 136.296 86.8C136.296 86.088 136.2 85.492 136.008 85.012C135.824 84.532 135.564 84.172 135.228 83.932C134.9 83.692 134.516 83.572 134.076 83.572C133.636 83.572 133.248 83.692 132.912 83.932C132.576 84.172 132.312 84.532 132.12 85.012C131.936 85.492 131.844 86.088 131.844 86.8C131.844 87.512 131.936 88.108 132.12 88.588C132.312 89.068 132.576 89.428 132.912 89.668C133.248 89.908 133.636 90.028 134.076 90.028ZM67.9225 112V111.184L71.3425 107.884C71.6465 107.596 71.8705 107.344 72.0145 107.128C72.1665 106.904 72.2665 106.7 72.3145 106.516C72.3705 106.324 72.3985 106.14 72.3985 105.964C72.3985 105.532 72.2465 105.192 71.9425 104.944C71.6385 104.696 71.1945 104.572 70.6105 104.572C70.1625 104.572 69.7585 104.648 69.3985 104.8C69.0385 104.944 68.7265 105.172 68.4625 105.484L67.6465 104.776C67.9665 104.368 68.3945 104.056 68.9305 103.84C69.4745 103.616 70.0705 103.504 70.7185 103.504C71.3025 103.504 71.8105 103.6 72.2425 103.792C72.6745 103.976 73.0065 104.244 73.2385 104.596C73.4785 104.948 73.5985 105.364 73.5985 105.844C73.5985 106.116 73.5625 106.384 73.4905 106.648C73.4185 106.912 73.2825 107.192 73.0825 107.488C72.8825 107.784 72.5945 108.116 72.2185 108.484L69.1705 111.424L68.8825 110.956H73.9585V112H67.9225ZM76.3611 112V104.08L76.8771 104.644H74.4651V103.6H77.5491V112H76.3611ZM80.1785 107.224C79.9545 107.224 79.7625 107.148 79.6025 106.996C79.4425 106.836 79.3625 106.636 79.3625 106.396C79.3625 106.156 79.4425 105.96 79.6025 105.808C79.7625 105.656 79.9545 105.58 80.1785 105.58C80.3945 105.58 80.5785 105.656 80.7305 105.808C80.8905 105.96 80.9705 106.156 80.9705 106.396C80.9705 106.636 80.8905 106.836 80.7305 106.996C80.5785 107.148 80.3945 107.224 80.1785 107.224ZM80.1785 112.072C79.9545 112.072 79.7625 111.996 79.6025 111.844C79.4425 111.684 79.3625 111.484 79.3625 111.244C79.3625 111.004 79.4425 110.808 79.6025 110.656C79.7625 110.504 79.9545 110.428 80.1785 110.428C80.3945 110.428 80.5785 110.504 80.7305 110.656C80.8905 110.808 80.9705 111.004 80.9705 111.244C80.9705 111.484 80.8905 111.684 80.7305 111.844C80.5785 111.996 80.3945 112.072 80.1785 112.072ZM83.5213 112V104.08L84.0373 104.644H81.6253V103.6H84.7093V112H83.5213ZM89.9787 112.096C89.3227 112.096 88.7347 111.928 88.2147 111.592C87.7027 111.256 87.2947 110.768 86.9907 110.128C86.6947 109.488 86.5467 108.712 86.5467 107.8C86.5467 106.888 86.6947 106.112 86.9907 105.472C87.2947 104.832 87.7027 104.344 88.2147 104.008C88.7347 103.672 89.3227 103.504 89.9787 103.504C90.6267 103.504 91.2107 103.672 91.7307 104.008C92.2507 104.344 92.6587 104.832 92.9547 105.472C93.2507 106.112 93.3987 106.888 93.3987 107.8C93.3987 108.712 93.2507 109.488 92.9547 110.128C92.6587 110.768 92.2507 111.256 91.7307 111.592C91.2107 111.928 90.6267 112.096 89.9787 112.096ZM89.9787 111.028C90.4187 111.028 90.8027 110.908 91.1307 110.668C91.4667 110.428 91.7267 110.068 91.9107 109.588C92.1027 109.108 92.1987 108.512 92.1987 107.8C92.1987 107.088 92.1027 106.492 91.9107 106.012C91.7267 105.532 91.4667 105.172 91.1307 104.932C90.8027 104.692 90.4187 104.572 89.9787 104.572C89.5387 104.572 89.1507 104.692 88.8147 104.932C88.4787 105.172 88.2147 105.532 88.0227 106.012C87.8387 106.492 87.7467 107.088 87.7467 107.8C87.7467 108.512 87.8387 109.108 88.0227 109.588C88.2147 110.068 88.4787 110.428 88.8147 110.668C89.1507 110.908 89.5387 111.028 89.9787 111.028ZM97.8813 109.204V108.208H101.109V109.204H97.8813ZM105.458 112V111.184L108.878 107.884C109.182 107.596 109.406 107.344 109.55 107.128C109.702 106.904 109.802 106.7 109.85 106.516C109.906 106.324 109.934 106.14 109.934 105.964C109.934 105.532 109.782 105.192 109.478 104.944C109.174 104.696 108.73 104.572 108.146 104.572C107.698 104.572 107.294 104.648 106.934 104.8C106.574 104.944 106.262 105.172 105.998 105.484L105.182 104.776C105.502 104.368 105.93 104.056 106.466 103.84C107.01 103.616 107.606 103.504 108.254 103.504C108.838 103.504 109.346 103.6 109.778 103.792C110.21 103.976 110.542 104.244 110.774 104.596C111.014 104.948 111.134 105.364 111.134 105.844C111.134 106.116 111.098 106.384 111.026 106.648C110.954 106.912 110.818 107.192 110.618 107.488C110.418 107.784 110.13 108.116 109.754 108.484L106.706 111.424L106.418 110.956H111.494V112H105.458ZM112.348 112V111.184L115.768 107.884C116.072 107.596 116.296 107.344 116.44 107.128C116.592 106.904 116.692 106.7 116.74 106.516C116.796 106.324 116.824 106.14 116.824 105.964C116.824 105.532 116.672 105.192 116.368 104.944C116.064 104.696 115.62 104.572 115.036 104.572C114.588 104.572 114.184 104.648 113.824 104.8C113.464 104.944 113.152 105.172 112.888 105.484L112.072 104.776C112.392 104.368 112.82 104.056 113.356 103.84C113.9 103.616 114.496 103.504 115.144 103.504C115.728 103.504 116.236 103.6 116.668 103.792C117.1 103.976 117.432 104.244 117.664 104.596C117.904 104.948 118.024 105.364 118.024 105.844C118.024 106.116 117.988 106.384 117.916 106.648C117.844 106.912 117.708 107.192 117.508 107.488C117.308 107.784 117.02 108.116 116.644 108.484L113.596 111.424L113.308 110.956H118.384V112H112.348ZM120.163 107.224C119.939 107.224 119.747 107.148 119.587 106.996C119.427 106.836 119.347 106.636 119.347 106.396C119.347 106.156 119.427 105.96 119.587 105.808C119.747 105.656 119.939 105.58 120.163 105.58C120.379 105.58 120.563 105.656 120.715 105.808C120.875 105.96 120.955 106.156 120.955 106.396C120.955 106.636 120.875 106.836 120.715 106.996C120.563 107.148 120.379 107.224 120.163 107.224ZM120.163 112.072C119.939 112.072 119.747 111.996 119.587 111.844C119.427 111.684 119.347 111.484 119.347 111.244C119.347 111.004 119.427 110.808 119.587 110.656C119.747 110.504 119.939 110.428 120.163 110.428C120.379 110.428 120.563 110.504 120.715 110.656C120.875 110.808 120.955 111.004 120.955 111.244C120.955 111.484 120.875 111.684 120.715 111.844C120.563 111.996 120.379 112.072 120.163 112.072ZM125.522 112.096C124.866 112.096 124.278 111.928 123.758 111.592C123.246 111.256 122.838 110.768 122.534 110.128C122.238 109.488 122.09 108.712 122.09 107.8C122.09 106.888 122.238 106.112 122.534 105.472C122.838 104.832 123.246 104.344 123.758 104.008C124.278 103.672 124.866 103.504 125.522 103.504C126.17 103.504 126.754 103.672 127.274 104.008C127.794 104.344 128.202 104.832 128.498 105.472C128.794 106.112 128.942 106.888 128.942 107.8C128.942 108.712 128.794 109.488 128.498 110.128C128.202 110.768 127.794 111.256 127.274 111.592C126.754 111.928 126.17 112.096 125.522 112.096ZM125.522 111.028C125.962 111.028 126.346 110.908 126.674 110.668C127.01 110.428 127.27 110.068 127.454 109.588C127.646 109.108 127.742 108.512 127.742 107.8C127.742 107.088 127.646 106.492 127.454 106.012C127.27 105.532 127.01 105.172 126.674 104.932C126.346 104.692 125.962 104.572 125.522 104.572C125.082 104.572 124.694 104.692 124.358 104.932C124.022 105.172 123.758 105.532 123.566 106.012C123.382 106.492 123.29 107.088 123.29 107.8C123.29 108.512 123.382 109.108 123.566 109.588C123.758 110.068 124.022 110.428 124.358 110.668C124.694 110.908 125.082 111.028 125.522 111.028ZM133.526 112.096C132.87 112.096 132.282 111.928 131.762 111.592C131.25 111.256 130.842 110.768 130.538 110.128C130.242 109.488 130.094 108.712 130.094 107.8C130.094 106.888 130.242 106.112 130.538 105.472C130.842 104.832 131.25 104.344 131.762 104.008C132.282 103.672 132.87 103.504 133.526 103.504C134.174 103.504 134.758 103.672 135.278 104.008C135.798 104.344 136.206 104.832 136.502 105.472C136.798 106.112 136.946 106.888 136.946 107.8C136.946 108.712 136.798 109.488 136.502 110.128C136.206 110.768 135.798 111.256 135.278 111.592C134.758 111.928 134.174 112.096 133.526 112.096ZM133.526 111.028C133.966 111.028 134.35 110.908 134.678 110.668C135.014 110.428 135.274 110.068 135.458 109.588C135.65 109.108 135.746 108.512 135.746 107.8C135.746 107.088 135.65 106.492 135.458 106.012C135.274 105.532 135.014 105.172 134.678 104.932C134.35 104.692 133.966 104.572 133.526 104.572C133.086 104.572 132.698 104.692 132.362 104.932C132.026 105.172 131.762 105.532 131.57 106.012C131.386 106.492 131.294 107.088 131.294 107.8C131.294 108.512 131.386 109.108 131.57 109.588C131.762 110.068 132.026 110.428 132.362 110.668C132.698 110.908 133.086 111.028 133.526 111.028ZM65.4733 133V132.184L68.8933 128.884C69.1973 128.596 69.4213 128.344 69.5653 128.128C69.7173 127.904 69.8173 127.7 69.8653 127.516C69.9213 127.324 69.9493 127.14 69.9493 126.964C69.9493 126.532 69.7973 126.192 69.4933 125.944C69.1893 125.696 68.7453 125.572 68.1613 125.572C67.7133 125.572 67.3093 125.648 66.9493 125.8C66.5893 125.944 66.2773 126.172 66.0133 126.484L65.1973 125.776C65.5173 125.368 65.9453 125.056 66.4813 124.84C67.0253 124.616 67.6213 124.504 68.2693 124.504C68.8533 124.504 69.3613 124.6 69.7933 124.792C70.2253 124.976 70.5573 125.244 70.7893 125.596C71.0293 125.948 71.1493 126.364 71.1493 126.844C71.1493 127.116 71.1133 127.384 71.0413 127.648C70.9693 127.912 70.8333 128.192 70.6333 128.488C70.4333 128.784 70.1453 129.116 69.7693 129.484L66.7213 132.424L66.4333 131.956H71.5093V133H65.4733ZM72.3639 133V132.184L75.7839 128.884C76.0879 128.596 76.3119 128.344 76.4559 128.128C76.6079 127.904 76.7079 127.7 76.7559 127.516C76.8119 127.324 76.8399 127.14 76.8399 126.964C76.8399 126.532 76.6879 126.192 76.3839 125.944C76.0799 125.696 75.6359 125.572 75.0519 125.572C74.6039 125.572 74.1999 125.648 73.8399 125.8C73.4799 125.944 73.1679 126.172 72.9039 126.484L72.0879 125.776C72.4079 125.368 72.8359 125.056 73.3719 124.84C73.9159 124.616 74.5119 124.504 75.1599 124.504C75.7439 124.504 76.2519 124.6 76.6839 124.792C77.1159 124.976 77.4479 125.244 77.6799 125.596C77.9199 125.948 78.0399 126.364 78.0399 126.844C78.0399 127.116 78.0039 127.384 77.9319 127.648C77.8599 127.912 77.7239 128.192 77.5239 128.488C77.3239 128.784 77.0359 129.116 76.6599 129.484L73.6119 132.424L73.3239 131.956H78.3999V133H72.3639ZM80.1785 128.224C79.9545 128.224 79.7625 128.148 79.6025 127.996C79.4425 127.836 79.3625 127.636 79.3625 127.396C79.3625 127.156 79.4425 126.96 79.6025 126.808C79.7625 126.656 79.9545 126.58 80.1785 126.58C80.3945 126.58 80.5785 126.656 80.7305 126.808C80.8905 126.96 80.9705 127.156 80.9705 127.396C80.9705 127.636 80.8905 127.836 80.7305 127.996C80.5785 128.148 80.3945 128.224 80.1785 128.224ZM80.1785 133.072C79.9545 133.072 79.7625 132.996 79.6025 132.844C79.4425 132.684 79.3625 132.484 79.3625 132.244C79.3625 132.004 79.4425 131.808 79.6025 131.656C79.7625 131.504 79.9545 131.428 80.1785 131.428C80.3945 131.428 80.5785 131.504 80.7305 131.656C80.8905 131.808 80.9705 132.004 80.9705 132.244C80.9705 132.484 80.8905 132.684 80.7305 132.844C80.5785 132.996 80.3945 133.072 80.1785 133.072ZM85.5373 133.096C84.8813 133.096 84.2933 132.928 83.7733 132.592C83.2613 132.256 82.8533 131.768 82.5493 131.128C82.2533 130.488 82.1053 129.712 82.1053 128.8C82.1053 127.888 82.2533 127.112 82.5493 126.472C82.8533 125.832 83.2613 125.344 83.7733 125.008C84.2933 124.672 84.8813 124.504 85.5373 124.504C86.1853 124.504 86.7693 124.672 87.2893 125.008C87.8093 125.344 88.2173 125.832 88.5133 126.472C88.8093 127.112 88.9573 127.888 88.9573 128.8C88.9573 129.712 88.8093 130.488 88.5133 131.128C88.2173 131.768 87.8093 132.256 87.2893 132.592C86.7693 132.928 86.1853 133.096 85.5373 133.096ZM85.5373 132.028C85.9773 132.028 86.3613 131.908 86.6893 131.668C87.0253 131.428 87.2853 131.068 87.4693 130.588C87.6613 130.108 87.7573 129.512 87.7573 128.8C87.7573 128.088 87.6613 127.492 87.4693 127.012C87.2853 126.532 87.0253 126.172 86.6893 125.932C86.3613 125.692 85.9773 125.572 85.5373 125.572C85.0973 125.572 84.7093 125.692 84.3733 125.932C84.0373 126.172 83.7733 126.532 83.5813 127.012C83.3973 127.492 83.3053 128.088 83.3053 128.8C83.3053 129.512 83.3973 130.108 83.5813 130.588C83.7733 131.068 84.0373 131.428 84.3733 131.668C84.7093 131.908 85.0973 132.028 85.5373 132.028ZM93.5412 133.096C92.8852 133.096 92.2972 132.928 91.7772 132.592C91.2652 132.256 90.8572 131.768 90.5532 131.128C90.2572 130.488 90.1092 129.712 90.1092 128.8C90.1092 127.888 90.2572 127.112 90.5532 126.472C90.8572 125.832 91.2652 125.344 91.7772 125.008C92.2972 124.672 92.8852 124.504 93.5412 124.504C94.1892 124.504 94.7732 124.672 95.2932 125.008C95.8132 125.344 96.2212 125.832 96.5172 126.472C96.8132 127.112 96.9612 127.888 96.9612 128.8C96.9612 129.712 96.8132 130.488 96.5172 131.128C96.2212 131.768 95.8132 132.256 95.2932 132.592C94.7732 132.928 94.1892 133.096 93.5412 133.096ZM93.5412 132.028C93.9812 132.028 94.3652 131.908 94.6932 131.668C95.0292 131.428 95.2892 131.068 95.4732 130.588C95.6652 130.108 95.7612 129.512 95.7612 128.8C95.7612 128.088 95.6652 127.492 95.4732 127.012C95.2892 126.532 95.0292 126.172 94.6932 125.932C94.3652 125.692 93.9812 125.572 93.5412 125.572C93.1012 125.572 92.7132 125.692 92.3772 125.932C92.0412 126.172 91.7772 126.532 91.5852 127.012C91.4012 127.492 91.3092 128.088 91.3092 128.8C91.3092 129.512 91.4012 130.108 91.5852 130.588C91.7772 131.068 92.0412 131.428 92.3772 131.668C92.7132 131.908 93.1012 132.028 93.5412 132.028ZM101.444 130.204V129.208H104.672V130.204H101.444ZM109.02 133V132.184L112.44 128.884C112.744 128.596 112.968 128.344 113.112 128.128C113.264 127.904 113.364 127.7 113.412 127.516C113.468 127.324 113.496 127.14 113.496 126.964C113.496 126.532 113.344 126.192 113.04 125.944C112.736 125.696 112.292 125.572 111.708 125.572C111.26 125.572 110.856 125.648 110.496 125.8C110.136 125.944 109.824 126.172 109.56 126.484L108.744 125.776C109.064 125.368 109.492 125.056 110.028 124.84C110.572 124.616 111.168 124.504 111.816 124.504C112.4 124.504 112.908 124.6 113.34 124.792C113.772 124.976 114.104 125.244 114.336 125.596C114.576 125.948 114.696 126.364 114.696 126.844C114.696 127.116 114.66 127.384 114.588 127.648C114.516 127.912 114.38 128.192 114.18 128.488C113.98 128.784 113.692 129.116 113.316 129.484L110.268 132.424L109.98 131.956H115.056V133H109.02ZM115.911 133V132.184L119.331 128.884C119.635 128.596 119.859 128.344 120.003 128.128C120.155 127.904 120.255 127.7 120.303 127.516C120.359 127.324 120.387 127.14 120.387 126.964C120.387 126.532 120.235 126.192 119.931 125.944C119.627 125.696 119.183 125.572 118.599 125.572C118.151 125.572 117.747 125.648 117.387 125.8C117.027 125.944 116.715 126.172 116.451 126.484L115.635 125.776C115.955 125.368 116.383 125.056 116.919 124.84C117.463 124.616 118.059 124.504 118.707 124.504C119.291 124.504 119.799 124.6 120.231 124.792C120.663 124.976 120.995 125.244 121.227 125.596C121.467 125.948 121.587 126.364 121.587 126.844C121.587 127.116 121.551 127.384 121.479 127.648C121.407 127.912 121.271 128.192 121.071 128.488C120.871 128.784 120.583 129.116 120.207 129.484L117.159 132.424L116.871 131.956H121.947V133H115.911ZM123.725 128.224C123.501 128.224 123.309 128.148 123.149 127.996C122.989 127.836 122.909 127.636 122.909 127.396C122.909 127.156 122.989 126.96 123.149 126.808C123.309 126.656 123.501 126.58 123.725 126.58C123.941 126.58 124.125 126.656 124.277 126.808C124.437 126.96 124.517 127.156 124.517 127.396C124.517 127.636 124.437 127.836 124.277 127.996C124.125 128.148 123.941 128.224 123.725 128.224ZM123.725 133.072C123.501 133.072 123.309 132.996 123.149 132.844C122.989 132.684 122.909 132.484 122.909 132.244C122.909 132.004 122.989 131.808 123.149 131.656C123.309 131.504 123.501 131.428 123.725 131.428C123.941 131.428 124.125 131.504 124.277 131.656C124.437 131.808 124.517 132.004 124.517 132.244C124.517 132.484 124.437 132.684 124.277 132.844C124.125 132.996 123.941 133.072 123.725 133.072ZM128.364 133.096C127.772 133.096 127.196 133.004 126.636 132.82C126.084 132.636 125.632 132.388 125.28 132.076L125.832 131.128C126.112 131.392 126.476 131.608 126.924 131.776C127.372 131.944 127.848 132.028 128.352 132.028C128.992 132.028 129.484 131.892 129.828 131.62C130.172 131.348 130.344 130.984 130.344 130.528C130.344 130.216 130.268 129.944 130.116 129.712C129.964 129.48 129.7 129.304 129.324 129.184C128.956 129.056 128.448 128.992 127.8 128.992H125.892L126.336 124.6H131.076V125.644H126.78L127.404 125.056L127.056 128.524L126.432 127.948H128.052C128.892 127.948 129.568 128.056 130.08 128.272C130.592 128.488 130.964 128.788 131.196 129.172C131.428 129.548 131.544 129.984 131.544 130.48C131.544 130.96 131.428 131.4 131.196 131.8C130.964 132.192 130.612 132.508 130.14 132.748C129.676 132.98 129.084 133.096 128.364 133.096ZM135.975 133.096C135.319 133.096 134.731 132.928 134.211 132.592C133.699 132.256 133.291 131.768 132.987 131.128C132.691 130.488 132.543 129.712 132.543 128.8C132.543 127.888 132.691 127.112 132.987 126.472C133.291 125.832 133.699 125.344 134.211 125.008C134.731 124.672 135.319 124.504 135.975 124.504C136.623 124.504 137.207 124.672 137.727 125.008C138.247 125.344 138.655 125.832 138.951 126.472C139.247 127.112 139.395 127.888 139.395 128.8C139.395 129.712 139.247 130.488 138.951 131.128C138.655 131.768 138.247 132.256 137.727 132.592C137.207 132.928 136.623 133.096 135.975 133.096ZM135.975 132.028C136.415 132.028 136.799 131.908 137.127 131.668C137.463 131.428 137.723 131.068 137.907 130.588C138.099 130.108 138.195 129.512 138.195 128.8C138.195 128.088 138.099 127.492 137.907 127.012C137.723 126.532 137.463 126.172 137.127 125.932C136.799 125.692 136.415 125.572 135.975 125.572C135.535 125.572 135.147 125.692 134.811 125.932C134.475 126.172 134.211 126.532 134.019 127.012C133.835 127.492 133.743 128.088 133.743 128.8C133.743 129.512 133.835 130.108 134.019 130.588C134.211 131.068 134.475 131.428 134.811 131.668C135.147 131.908 135.535 132.028 135.975 132.028Z" fill="#2A2828"/>
<path d="M42.732 12.12C42.076 12.12 41.448 12.028 40.848 11.844C40.248 11.652 39.772 11.408 39.42 11.112L39.96 9.9C40.296 10.164 40.712 10.384 41.208 10.56C41.704 10.736 42.212 10.824 42.732 10.824C43.172 10.824 43.528 10.776 43.8 10.68C44.072 10.584 44.272 10.456 44.4 10.296C44.528 10.128 44.592 9.94 44.592 9.732C44.592 9.476 44.5 9.272 44.316 9.12C44.132 8.96 43.892 8.836 43.596 8.748C43.308 8.652 42.984 8.564 42.624 8.484C42.272 8.404 41.916 8.312 41.556 8.208C41.204 8.096 40.88 7.956 40.584 7.788C40.296 7.612 40.06 7.38 39.876 7.092C39.692 6.804 39.6 6.436 39.6 5.988C39.6 5.532 39.72 5.116 39.96 4.74C40.208 4.356 40.58 4.052 41.076 3.828C41.58 3.596 42.216 3.48 42.984 3.48C43.488 3.48 43.988 3.544 44.484 3.672C44.98 3.8 45.412 3.984 45.78 4.224L45.288 5.436C44.912 5.212 44.524 5.048 44.124 4.944C43.724 4.832 43.34 4.776 42.972 4.776C42.54 4.776 42.188 4.828 41.916 4.932C41.652 5.036 41.456 5.172 41.328 5.34C41.208 5.508 41.148 5.7 41.148 5.916C41.148 6.172 41.236 6.38 41.412 6.54C41.596 6.692 41.832 6.812 42.12 6.9C42.416 6.988 42.744 7.076 43.104 7.164C43.464 7.244 43.82 7.336 44.172 7.44C44.532 7.544 44.856 7.68 45.144 7.848C45.44 8.016 45.676 8.244 45.852 8.532C46.036 8.82 46.128 9.184 46.128 9.624C46.128 10.072 46.004 10.488 45.756 10.872C45.516 11.248 45.144 11.552 44.64 11.784C44.136 12.008 43.5 12.12 42.732 12.12ZM50.5429 12.084C49.8309 12.084 49.2069 11.944 48.6709 11.664C48.1429 11.376 47.7309 10.984 47.4349 10.488C47.1469 9.992 47.0029 9.428 47.0029 8.796C47.0029 8.156 47.1429 7.592 47.4229 7.104C47.7109 6.608 48.1029 6.22 48.5989 5.94C49.1029 5.66 49.6749 5.52 50.3149 5.52C50.9389 5.52 51.4949 5.656 51.9829 5.928C52.4709 6.2 52.8549 6.584 53.1349 7.08C53.4149 7.576 53.5549 8.16 53.5549 8.832C53.5549 8.896 53.5509 8.968 53.5429 9.048C53.5429 9.128 53.5389 9.204 53.5309 9.276H48.1909V8.28H52.7389L52.1509 8.592C52.1589 8.224 52.0829 7.9 51.9229 7.62C51.7629 7.34 51.5429 7.12 51.2629 6.96C50.9909 6.8 50.6749 6.72 50.3149 6.72C49.9469 6.72 49.6229 6.8 49.3429 6.96C49.0709 7.12 48.8549 7.344 48.6949 7.632C48.5429 7.912 48.4669 8.244 48.4669 8.628V8.868C48.4669 9.252 48.5549 9.592 48.7309 9.888C48.9069 10.184 49.1549 10.412 49.4749 10.572C49.7949 10.732 50.1629 10.812 50.5789 10.812C50.9389 10.812 51.2629 10.756 51.5509 10.644C51.8389 10.532 52.0949 10.356 52.3189 10.116L53.1229 11.04C52.8349 11.376 52.4709 11.636 52.0309 11.82C51.5989 11.996 51.1029 12.084 50.5429 12.084ZM53.9439 12L56.7639 8.328L56.7399 9.132L54.0519 5.592H55.7199L57.6039 8.112H56.9679L58.8639 5.592H60.4839L57.7719 9.132L57.7839 8.328L60.5919 12H58.8999L56.9199 9.324L57.5439 9.408L55.5999 12H53.9439ZM64.1108 12.084C63.4068 12.084 62.8628 11.904 62.4788 11.544C62.0948 11.176 61.9028 10.636 61.9028 9.924V4.176H63.4028V9.888C63.4028 10.192 63.4788 10.428 63.6308 10.596C63.7908 10.764 64.0108 10.848 64.2908 10.848C64.6268 10.848 64.9068 10.76 65.1308 10.584L65.5508 11.652C65.3748 11.796 65.1588 11.904 64.9028 11.976C64.6468 12.048 64.3828 12.084 64.1108 12.084ZM60.8468 6.84V5.64H65.1188V6.84H60.8468ZM70.7328 12V10.704L70.6488 10.428V8.16C70.6488 7.72 70.5168 7.38 70.2528 7.14C69.9888 6.892 69.5888 6.768 69.0528 6.768C68.6928 6.768 68.3368 6.824 67.9848 6.936C67.6408 7.048 67.3488 7.204 67.1088 7.404L66.5208 6.312C66.8648 6.048 67.2728 5.852 67.7448 5.724C68.2248 5.588 68.7208 5.52 69.2328 5.52C70.1608 5.52 70.8768 5.744 71.3808 6.192C71.8928 6.632 72.1488 7.316 72.1488 8.244V12H70.7328ZM68.7168 12.084C68.2368 12.084 67.8168 12.004 67.4568 11.844C67.0968 11.676 66.8168 11.448 66.6168 11.16C66.4248 10.864 66.3288 10.532 66.3288 10.164C66.3288 9.804 66.4128 9.48 66.5808 9.192C66.7568 8.904 67.0408 8.676 67.4328 8.508C67.8248 8.34 68.3448 8.256 68.9928 8.256H70.8528V9.252H69.1008C68.5888 9.252 68.2448 9.336 68.0688 9.504C67.8928 9.664 67.8048 9.864 67.8048 10.104C67.8048 10.376 67.9128 10.592 68.1288 10.752C68.3448 10.912 68.6448 10.992 69.0288 10.992C69.3968 10.992 69.7248 10.908 70.0128 10.74C70.3088 10.572 70.5208 10.324 70.6488 9.996L70.9008 10.896C70.7568 11.272 70.4968 11.564 70.1208 11.772C69.7528 11.98 69.2848 12.084 68.7168 12.084ZM77.0663 9.288V8.04H80.3663V9.288H77.0663ZM86.8958 7.464H91.0838V8.784H86.8958V7.464ZM87.0278 12H85.4678V3.6H91.5998V4.908H87.0278V12ZM95.8007 12.084C95.0887 12.084 94.4647 11.944 93.9287 11.664C93.4007 11.376 92.9887 10.984 92.6927 10.488C92.4047 9.992 92.2607 9.428 92.2607 8.796C92.2607 8.156 92.4007 7.592 92.6807 7.104C92.9687 6.608 93.3607 6.22 93.8567 5.94C94.3607 5.66 94.9327 5.52 95.5727 5.52C96.1967 5.52 96.7527 5.656 97.2407 5.928C97.7287 6.2 98.1127 6.584 98.3927 7.08C98.6727 7.576 98.8127 8.16 98.8127 8.832C98.8127 8.896 98.8087 8.968 98.8007 9.048C98.8007 9.128 98.7967 9.204 98.7887 9.276H93.4487V8.28H97.9967L97.4087 8.592C97.4167 8.224 97.3407 7.9 97.1807 7.62C97.0207 7.34 96.8007 7.12 96.5207 6.96C96.2487 6.8 95.9327 6.72 95.5727 6.72C95.2047 6.72 94.8807 6.8 94.6007 6.96C94.3287 7.12 94.1127 7.344 93.9527 7.632C93.8007 7.912 93.7247 8.244 93.7247 8.628V8.868C93.7247 9.252 93.8127 9.592 93.9887 9.888C94.1647 10.184 94.4127 10.412 94.7327 10.572C95.0527 10.732 95.4207 10.812 95.8367 10.812C96.1967 10.812 96.5207 10.756 96.8087 10.644C97.0967 10.532 97.3527 10.356 97.5767 10.116L98.3807 11.04C98.0927 11.376 97.7287 11.636 97.2887 11.82C96.8567 11.996 96.3607 12.084 95.8007 12.084ZM100.254 12V5.592H101.754V12H100.254ZM101.01 4.536C100.73 4.536 100.498 4.448 100.314 4.272C100.138 4.096 100.05 3.884 100.05 3.636C100.05 3.38 100.138 3.168 100.314 3C100.498 2.824 100.73 2.736 101.01 2.736C101.29 2.736 101.518 2.82 101.694 2.988C101.878 3.148 101.97 3.352 101.97 3.6C101.97 3.864 101.882 4.088 101.706 4.272C101.53 4.448 101.298 4.536 101.01 4.536ZM103.722 12V5.592H105.15V7.356L104.982 6.84C105.174 6.408 105.474 6.08 105.882 5.856C106.298 5.632 106.814 5.52 107.43 5.52V6.948C107.366 6.932 107.306 6.924 107.25 6.924C107.194 6.916 107.138 6.912 107.082 6.912C106.514 6.912 106.062 7.08 105.726 7.416C105.39 7.744 105.222 8.236 105.222 8.892V12H103.722ZM112.194 12V10.704L112.11 10.428V8.16C112.11 7.72 111.978 7.38 111.714 7.14C111.45 6.892 111.05 6.768 110.514 6.768C110.154 6.768 109.798 6.824 109.446 6.936C109.102 7.048 108.81 7.204 108.57 7.404L107.982 6.312C108.326 6.048 108.734 5.852 109.206 5.724C109.686 5.588 110.182 5.52 110.694 5.52C111.622 5.52 112.338 5.744 112.842 6.192C113.354 6.632 113.61 7.316 113.61 8.244V12H112.194ZM110.178 12.084C109.698 12.084 109.278 12.004 108.918 11.844C108.558 11.676 108.278 11.448 108.078 11.16C107.886 10.864 107.79 10.532 107.79 10.164C107.79 9.804 107.874 9.48 108.042 9.192C108.218 8.904 108.502 8.676 108.894 8.508C109.286 8.34 109.806 8.256 110.454 8.256H112.314V9.252H110.562C110.05 9.252 109.706 9.336 109.53 9.504C109.354 9.664 109.266 9.864 109.266 10.104C109.266 10.376 109.374 10.592 109.59 10.752C109.806 10.912 110.106 10.992 110.49 10.992C110.858 10.992 111.186 10.908 111.474 10.74C111.77 10.572 111.982 10.324 112.11 9.996L112.362 10.896C112.218 11.272 111.958 11.564 111.582 11.772C111.214 11.98 110.746 12.084 110.178 12.084Z" fill="black"/>
</svg>
