<svg width="297" height="28" viewBox="0 0 297 28" fill="none" xmlns="http://www.w3.org/2000/svg">
<path d="M5.09497 10.096C4.45497 10.096 3.85897 9.988 3.30697 9.772C2.76297 9.556 2.29097 9.256 1.89097 8.872C1.49097 8.48 1.17897 8.024 0.954969 7.504C0.730969 6.984 0.618969 6.416 0.618969 5.8C0.618969 5.184 0.730969 4.616 0.954969 4.096C1.17897 3.576 1.49097 3.124 1.89097 2.74C2.29097 2.348 2.76297 2.044 3.30697 1.828C3.85097 1.612 4.44697 1.504 5.09497 1.504C5.73497 1.504 6.32297 1.612 6.85897 1.828C7.40297 2.036 7.87497 2.336 8.27497 2.728C8.68297 3.112 8.99497 3.564 9.21097 4.084C9.43497 4.604 9.54697 5.176 9.54697 5.8C9.54697 6.424 9.43497 6.996 9.21097 7.516C8.99497 8.036 8.68297 8.492 8.27497 8.884C7.87497 9.268 7.40297 9.568 6.85897 9.784C6.32297 9.992 5.73497 10.096 5.09497 10.096ZM5.09497 9.028C5.55897 9.028 5.98697 8.948 6.37897 8.788C6.77897 8.628 7.12297 8.404 7.41097 8.116C7.70697 7.82 7.93497 7.476 8.09497 7.084C8.26297 6.692 8.34697 6.264 8.34697 5.8C8.34697 5.336 8.26297 4.908 8.09497 4.516C7.93497 4.124 7.70697 3.784 7.41097 3.496C7.12297 3.2 6.77897 2.972 6.37897 2.812C5.98697 2.652 5.55897 2.572 5.09497 2.572C4.62297 2.572 4.18697 2.652 3.78697 2.812C3.39497 2.972 3.05097 3.2 2.75497 3.496C2.45897 3.784 2.22697 4.124 2.05897 4.516C1.89897 4.908 1.81897 5.336 1.81897 5.8C1.81897 6.264 1.89897 6.692 2.05897 7.084C2.22697 7.476 2.45897 7.82 2.75497 8.116C3.05097 8.404 3.39497 8.628 3.78697 8.788C4.18697 8.948 4.62297 9.028 5.09497 9.028ZM14.5851 10.072C14.0411 10.072 13.5491 9.952 13.1091 9.712C12.6771 9.464 12.3331 9.1 12.0771 8.62C11.8291 8.14 11.7051 7.54 11.7051 6.82C11.7051 6.1 11.8331 5.5 12.0891 5.02C12.3531 4.54 12.7011 4.18 13.1331 3.94C13.5731 3.7 14.0571 3.58 14.5851 3.58C15.2091 3.58 15.7611 3.716 16.2411 3.988C16.7211 4.26 17.1011 4.64 17.3811 5.128C17.6611 5.608 17.8011 6.172 17.8011 6.82C17.8011 7.468 17.6611 8.036 17.3811 8.524C17.1011 9.012 16.7211 9.392 16.2411 9.664C15.7611 9.936 15.2091 10.072 14.5851 10.072ZM11.2131 10V1.096H12.3651V5.332L12.2451 6.808L12.3171 8.284V10H11.2131ZM14.4891 9.064C14.8971 9.064 15.2611 8.972 15.5811 8.788C15.9091 8.604 16.1651 8.344 16.3491 8.008C16.5411 7.664 16.6371 7.268 16.6371 6.82C16.6371 6.364 16.5411 5.972 16.3491 5.644C16.1651 5.308 15.9091 5.048 15.5811 4.864C15.2611 4.68 14.8971 4.588 14.4891 4.588C14.0891 4.588 13.7251 4.68 13.3971 4.864C13.0771 5.048 12.8211 5.308 12.6291 5.644C12.4451 5.972 12.3531 6.364 12.3531 6.82C12.3531 7.268 12.4451 7.664 12.6291 8.008C12.8211 8.344 13.0771 8.604 13.3971 8.788C13.7251 8.972 14.0891 9.064 14.4891 9.064ZM21.2168 10.072C20.6888 10.072 20.1848 10 19.7048 9.856C19.2328 9.712 18.8608 9.536 18.5888 9.328L19.0688 8.416C19.3408 8.6 19.6768 8.756 20.0768 8.884C20.4768 9.012 20.8848 9.076 21.3008 9.076C21.8368 9.076 22.2208 9 22.4528 8.848C22.6928 8.696 22.8128 8.484 22.8128 8.212C22.8128 8.012 22.7408 7.856 22.5968 7.744C22.4528 7.632 22.2608 7.548 22.0208 7.492C21.7888 7.436 21.5288 7.388 21.2408 7.348C20.9528 7.3 20.6648 7.244 20.3768 7.18C20.0888 7.108 19.8248 7.012 19.5848 6.892C19.3448 6.764 19.1528 6.592 19.0088 6.376C18.8648 6.152 18.7928 5.856 18.7928 5.488C18.7928 5.104 18.9008 4.768 19.1168 4.48C19.3328 4.192 19.6368 3.972 20.0288 3.82C20.4288 3.66 20.9008 3.58 21.4448 3.58C21.8608 3.58 22.2808 3.632 22.7048 3.736C23.1368 3.832 23.4888 3.972 23.7608 4.156L23.2688 5.068C22.9808 4.876 22.6808 4.744 22.3688 4.672C22.0568 4.6 21.7448 4.564 21.4328 4.564C20.9288 4.564 20.5528 4.648 20.3048 4.816C20.0568 4.976 19.9328 5.184 19.9328 5.44C19.9328 5.656 20.0048 5.824 20.1488 5.944C20.3008 6.056 20.4928 6.144 20.7248 6.208C20.9648 6.272 21.2288 6.328 21.5168 6.376C21.8048 6.416 22.0928 6.472 22.3808 6.544C22.6688 6.608 22.9288 6.7 23.1608 6.82C23.4008 6.94 23.5928 7.108 23.7368 7.324C23.8888 7.54 23.9648 7.828 23.9648 8.188C23.9648 8.572 23.8528 8.904 23.6288 9.184C23.4048 9.464 23.0888 9.684 22.6808 9.844C22.2728 9.996 21.7848 10.072 21.2168 10.072ZM25.6805 10.072C25.4565 10.072 25.2645 9.996 25.1045 9.844C24.9445 9.684 24.8645 9.484 24.8645 9.244C24.8645 9.004 24.9445 8.808 25.1045 8.656C25.2645 8.504 25.4565 8.428 25.6805 8.428C25.8965 8.428 26.0805 8.504 26.2325 8.656C26.3925 8.808 26.4725 9.004 26.4725 9.244C26.4725 9.484 26.3925 9.684 26.2325 9.844C26.0805 9.996 25.8965 10.072 25.6805 10.072ZM28.3993 5.224C28.1753 5.224 27.9833 5.148 27.8232 4.996C27.6633 4.836 27.5833 4.636 27.5833 4.396C27.5833 4.156 27.6633 3.96 27.8232 3.808C27.9833 3.656 28.1753 3.58 28.3993 3.58C28.6153 3.58 28.7993 3.656 28.9513 3.808C29.1113 3.96 29.1913 4.156 29.1913 4.396C29.1913 4.636 29.1113 4.836 28.9513 4.996C28.7993 5.148 28.6153 5.224 28.3993 5.224ZM28.3993 10.072C28.1753 10.072 27.9833 9.996 27.8232 9.844C27.6633 9.684 27.5833 9.484 27.5833 9.244C27.5833 9.004 27.6633 8.808 27.8232 8.656C27.9833 8.504 28.1753 8.428 28.3993 8.428C28.6153 8.428 28.7993 8.504 28.9513 8.656C29.1113 8.808 29.1913 9.004 29.1913 9.244C29.1913 9.484 29.1113 9.684 28.9513 9.844C28.7993 9.996 28.6153 10.072 28.3993 10.072ZM37.9887 10.096C37.3487 10.096 36.7567 9.992 36.2127 9.784C35.6767 9.568 35.2087 9.268 34.8087 8.884C34.4167 8.492 34.1087 8.036 33.8847 7.516C33.6607 6.996 33.5487 6.424 33.5487 5.8C33.5487 5.176 33.6607 4.604 33.8847 4.084C34.1087 3.564 34.4207 3.112 34.8207 2.728C35.2207 2.336 35.6887 2.036 36.2247 1.828C36.7687 1.612 37.3607 1.504 38.0007 1.504C38.6487 1.504 39.2447 1.616 39.7887 1.84C40.3407 2.056 40.8087 2.38 41.1927 2.812L40.4127 3.568C40.0927 3.232 39.7327 2.984 39.3327 2.824C38.9327 2.656 38.5047 2.572 38.0487 2.572C37.5767 2.572 37.1367 2.652 36.7287 2.812C36.3287 2.972 35.9807 3.196 35.6847 3.484C35.3887 3.772 35.1567 4.116 34.9887 4.516C34.8287 4.908 34.7487 5.336 34.7487 5.8C34.7487 6.264 34.8287 6.696 34.9887 7.096C35.1567 7.488 35.3887 7.828 35.6847 8.116C35.9807 8.404 36.3287 8.628 36.7287 8.788C37.1367 8.948 37.5767 9.028 38.0487 9.028C38.5047 9.028 38.9327 8.948 39.3327 8.788C39.7327 8.62 40.0927 8.364 40.4127 8.02L41.1927 8.776C40.8087 9.208 40.3407 9.536 39.7887 9.76C39.2447 9.984 38.6447 10.096 37.9887 10.096ZM46.6025 10V8.656L46.5425 8.404V6.112C46.5425 5.624 46.3985 5.248 46.1105 4.984C45.8305 4.712 45.4065 4.576 44.8385 4.576C44.4625 4.576 44.0945 4.64 43.7345 4.768C43.3745 4.888 43.0705 5.052 42.8225 5.26L42.3425 4.396C42.6705 4.132 43.0625 3.932 43.5185 3.796C43.9825 3.652 44.4665 3.58 44.9705 3.58C45.8425 3.58 46.5145 3.792 46.9865 4.216C47.4585 4.64 47.6945 5.288 47.6945 6.16V10H46.6025ZM44.5145 10.072C44.0425 10.072 43.6265 9.992 43.2665 9.832C42.9145 9.672 42.6425 9.452 42.4505 9.172C42.2585 8.884 42.1625 8.56 42.1625 8.2C42.1625 7.856 42.2425 7.544 42.4025 7.264C42.5705 6.984 42.8385 6.76 43.2065 6.592C43.5825 6.424 44.0865 6.34 44.7185 6.34H46.7345V7.168H44.7665C44.1905 7.168 43.8025 7.264 43.6025 7.456C43.4025 7.648 43.3025 7.88 43.3025 8.152C43.3025 8.464 43.4265 8.716 43.6745 8.908C43.9225 9.092 44.2665 9.184 44.7065 9.184C45.1385 9.184 45.5145 9.088 45.8345 8.896C46.1625 8.704 46.3985 8.424 46.5425 8.056L46.7705 8.848C46.6185 9.224 46.3505 9.524 45.9665 9.748C45.5825 9.964 45.0985 10.072 44.5145 10.072ZM51.6504 10.072C51.1224 10.072 50.6184 10 50.1384 9.856C49.6664 9.712 49.2944 9.536 49.0224 9.328L49.5024 8.416C49.7744 8.6 50.1104 8.756 50.5104 8.884C50.9104 9.012 51.3184 9.076 51.7344 9.076C52.2704 9.076 52.6544 9 52.8864 8.848C53.1264 8.696 53.2464 8.484 53.2464 8.212C53.2464 8.012 53.1744 7.856 53.0304 7.744C52.8864 7.632 52.6944 7.548 52.4544 7.492C52.2224 7.436 51.9624 7.388 51.6744 7.348C51.3864 7.3 51.0984 7.244 50.8104 7.18C50.5224 7.108 50.2584 7.012 50.0184 6.892C49.7784 6.764 49.5864 6.592 49.4424 6.376C49.2984 6.152 49.2264 5.856 49.2264 5.488C49.2264 5.104 49.3344 4.768 49.5504 4.48C49.7664 4.192 50.0704 3.972 50.4624 3.82C50.8624 3.66 51.3344 3.58 51.8784 3.58C52.2944 3.58 52.7144 3.632 53.1384 3.736C53.5704 3.832 53.9224 3.972 54.1944 4.156L53.7024 5.068C53.4144 4.876 53.1144 4.744 52.8024 4.672C52.4904 4.6 52.1784 4.564 51.8664 4.564C51.3624 4.564 50.9864 4.648 50.7384 4.816C50.4904 4.976 50.3664 5.184 50.3664 5.44C50.3664 5.656 50.4384 5.824 50.5824 5.944C50.7344 6.056 50.9264 6.144 51.1584 6.208C51.3984 6.272 51.6624 6.328 51.9504 6.376C52.2384 6.416 52.5264 6.472 52.8144 6.544C53.1024 6.608 53.3624 6.7 53.5944 6.82C53.8344 6.94 54.0264 7.108 54.1704 7.324C54.3224 7.54 54.3984 7.828 54.3984 8.188C54.3984 8.572 54.2864 8.904 54.0624 9.184C53.8384 9.464 53.5224 9.684 53.1144 9.844C52.7064 9.996 52.2184 10.072 51.6504 10.072ZM58.5621 10.072C57.9221 10.072 57.3541 9.932 56.8581 9.652C56.3621 9.372 55.9701 8.988 55.6821 8.5C55.3941 8.004 55.2501 7.444 55.2501 6.82C55.2501 6.188 55.3941 5.628 55.6821 5.14C55.9701 4.652 56.3621 4.272 56.8581 4C57.3541 3.72 57.9221 3.58 58.5621 3.58C59.1941 3.58 59.7581 3.72 60.2541 4C60.7581 4.272 61.1501 4.652 61.4301 5.14C61.7181 5.62 61.8621 6.18 61.8621 6.82C61.8621 7.452 61.7181 8.012 61.4301 8.5C61.1501 8.988 60.7581 9.372 60.2541 9.652C59.7581 9.932 59.1941 10.072 58.5621 10.072ZM58.5621 9.064C58.9701 9.064 59.3341 8.972 59.6541 8.788C59.9821 8.604 60.2381 8.344 60.4221 8.008C60.6061 7.664 60.6981 7.268 60.6981 6.82C60.6981 6.364 60.6061 5.972 60.4221 5.644C60.2381 5.308 59.9821 5.048 59.6541 4.864C59.3341 4.68 58.9701 4.588 58.5621 4.588C58.1541 4.588 57.7901 4.68 57.4701 4.864C57.1501 5.048 56.8941 5.308 56.7021 5.644C56.5101 5.972 56.4141 6.364 56.4141 6.82C56.4141 7.268 56.5101 7.664 56.7021 8.008C56.8941 8.344 57.1501 8.604 57.4701 8.788C57.7901 8.972 58.1541 9.064 58.5621 9.064ZM70.6259 10V8.656L70.5659 8.404V6.112C70.5659 5.624 70.4219 5.248 70.1339 4.984C69.8539 4.712 69.4299 4.576 68.8619 4.576C68.4859 4.576 68.1179 4.64 67.7579 4.768C67.3979 4.888 67.0939 5.052 66.8459 5.26L66.3659 4.396C66.6939 4.132 67.0859 3.932 67.5419 3.796C68.0059 3.652 68.4899 3.58 68.9939 3.58C69.8659 3.58 70.5379 3.792 71.0099 4.216C71.4819 4.64 71.7179 5.288 71.7179 6.16V10H70.6259ZM68.5379 10.072C68.0659 10.072 67.6499 9.992 67.2899 9.832C66.9379 9.672 66.6659 9.452 66.4739 9.172C66.2819 8.884 66.1859 8.56 66.1859 8.2C66.1859 7.856 66.2659 7.544 66.4259 7.264C66.5939 6.984 66.8619 6.76 67.2299 6.592C67.6059 6.424 68.1099 6.34 68.7419 6.34H70.7579V7.168H68.7899C68.2139 7.168 67.8259 7.264 67.6259 7.456C67.4259 7.648 67.3259 7.88 67.3259 8.152C67.3259 8.464 67.4499 8.716 67.6979 8.908C67.9459 9.092 68.2899 9.184 68.7299 9.184C69.1619 9.184 69.5379 9.088 69.8579 8.896C70.1859 8.704 70.4219 8.424 70.5659 8.056L70.7939 8.848C70.6419 9.224 70.3739 9.524 69.9899 9.748C69.6059 9.964 69.1219 10.072 68.5379 10.072ZM76.0338 10.072C75.3938 10.072 74.8978 9.9 74.5458 9.556C74.1938 9.212 74.0178 8.72 74.0178 8.08V2.248H75.1698V8.032C75.1698 8.376 75.2538 8.64 75.4218 8.824C75.5978 9.008 75.8458 9.1 76.1658 9.1C76.5258 9.1 76.8258 9 77.0658 8.8L77.4258 9.628C77.2498 9.78 77.0378 9.892 76.7898 9.964C76.5498 10.036 76.2978 10.072 76.0338 10.072ZM72.9378 4.588V3.64H76.9938V4.588H72.9378ZM78.8186 10V3.64H79.9706V10H78.8186ZM79.3946 2.416C79.1706 2.416 78.9826 2.344 78.8306 2.2C78.6866 2.056 78.6146 1.88 78.6146 1.672C78.6146 1.456 78.6866 1.276 78.8306 1.132C78.9826 0.988 79.1706 0.916 79.3946 0.916C79.6186 0.916 79.8026 0.988 79.9466 1.132C80.0986 1.268 80.1746 1.44 80.1746 1.648C80.1746 1.864 80.1026 2.048 79.9586 2.2C79.8146 2.344 79.6266 2.416 79.3946 2.416ZM85.5661 3.58C86.0861 3.58 86.5421 3.68 86.9341 3.88C87.3341 4.08 87.6461 4.384 87.8701 4.792C88.0941 5.2 88.2061 5.716 88.2061 6.34V10H87.0541V6.472C87.0541 5.856 86.9021 5.392 86.5981 5.08C86.3021 4.768 85.8821 4.612 85.3381 4.612C84.9301 4.612 84.5741 4.692 84.2701 4.852C83.9661 5.012 83.7301 5.248 83.5621 5.56C83.4021 5.872 83.3221 6.26 83.3221 6.724V10H82.1701V3.64H83.2741V5.356L83.0941 4.9C83.3021 4.484 83.6221 4.16 84.0541 3.928C84.4861 3.696 84.9901 3.58 85.5661 3.58ZM89.5221 12.4C89.2581 12.4 89.0061 12.368 88.7661 12.304C88.5181 12.24 88.3101 12.144 88.1421 12.016L88.5141 11.128C88.7541 11.328 89.0661 11.428 89.4501 11.428C89.7541 11.428 89.9861 11.332 90.1461 11.14C90.3141 10.956 90.3981 10.68 90.3981 10.312V3.64H91.5501V10.288C91.5501 10.936 91.3741 11.448 91.0221 11.824C90.6781 12.208 90.1781 12.4 89.5221 12.4ZM90.9741 2.416C90.7501 2.416 90.5621 2.344 90.4101 2.2C90.2661 2.056 90.1941 1.88 90.1941 1.672C90.1941 1.456 90.2661 1.276 90.4101 1.132C90.5621 0.988 90.7501 0.916 90.9741 0.916C91.1981 0.916 91.3821 0.988 91.5261 1.132C91.6781 1.268 91.7541 1.44 91.7541 1.648C91.7541 1.864 91.6821 2.048 91.5381 2.2C91.3941 2.344 91.2061 2.416 90.9741 2.416ZM97.6963 10V8.656L97.6363 8.404V6.112C97.6363 5.624 97.4923 5.248 97.2043 4.984C96.9243 4.712 96.5003 4.576 95.9323 4.576C95.5563 4.576 95.1883 4.64 94.8283 4.768C94.4683 4.888 94.1643 5.052 93.9163 5.26L93.4363 4.396C93.7643 4.132 94.1563 3.932 94.6123 3.796C95.0763 3.652 95.5603 3.58 96.0643 3.58C96.9363 3.58 97.6083 3.792 98.0803 4.216C98.5523 4.64 98.7883 5.288 98.7883 6.16V10H97.6963ZM95.6083 10.072C95.1363 10.072 94.7203 9.992 94.3603 9.832C94.0083 9.672 93.7363 9.452 93.5443 9.172C93.3523 8.884 93.2563 8.56 93.2563 8.2C93.2563 7.856 93.3363 7.544 93.4963 7.264C93.6643 6.984 93.9323 6.76 94.3003 6.592C94.6763 6.424 95.1803 6.34 95.8123 6.34H97.8283V7.168H95.8603C95.2843 7.168 94.8963 7.264 94.6963 7.456C94.4963 7.648 94.3963 7.88 94.3963 8.152C94.3963 8.464 94.5203 8.716 94.7683 8.908C95.0163 9.092 95.3603 9.184 95.8003 9.184C96.2323 9.184 96.6083 9.088 96.9283 8.896C97.2563 8.704 97.4923 8.424 97.6363 8.056L97.8643 8.848C97.7123 9.224 97.4443 9.524 97.0603 9.748C96.6763 9.964 96.1923 10.072 95.6083 10.072ZM106.819 10.072C106.275 10.072 105.795 9.972 105.379 9.772C104.971 9.572 104.651 9.268 104.419 8.86C104.195 8.444 104.083 7.924 104.083 7.3V3.64H105.235V7.168C105.235 7.792 105.383 8.26 105.679 8.572C105.983 8.884 106.407 9.04 106.951 9.04C107.351 9.04 107.699 8.96 107.995 8.8C108.291 8.632 108.519 8.392 108.679 8.08C108.839 7.76 108.919 7.376 108.919 6.928V3.64H110.071V10H108.979V8.284L109.159 8.74C108.951 9.164 108.639 9.492 108.223 9.724C107.807 9.956 107.339 10.072 106.819 10.072ZM120.22 3.58C120.732 3.58 121.184 3.68 121.576 3.88C121.968 4.08 122.272 4.384 122.488 4.792C122.712 5.2 122.824 5.716 122.824 6.34V10H121.672V6.472C121.672 5.856 121.528 5.392 121.24 5.08C120.952 4.768 120.548 4.612 120.028 4.612C119.644 4.612 119.308 4.692 119.02 4.852C118.732 5.012 118.508 5.248 118.348 5.56C118.196 5.872 118.12 6.26 118.12 6.724V10H116.968V6.472C116.968 5.856 116.824 5.392 116.536 5.08C116.256 4.768 115.852 4.612 115.324 4.612C114.948 4.612 114.616 4.692 114.328 4.852C114.04 5.012 113.816 5.248 113.656 5.56C113.496 5.872 113.416 6.26 113.416 6.724V10H112.264V3.64H113.368V5.332L113.188 4.9C113.388 4.484 113.696 4.16 114.112 3.928C114.528 3.696 115.012 3.58 115.564 3.58C116.172 3.58 116.696 3.732 117.136 4.036C117.576 4.332 117.864 4.784 118 5.392L117.532 5.2C117.724 4.712 118.06 4.32 118.54 4.024C119.02 3.728 119.58 3.58 120.22 3.58ZM131.538 10.072C131.01 10.072 130.526 9.952 130.086 9.712C129.654 9.464 129.306 9.1 129.042 8.62C128.786 8.14 128.658 7.54 128.658 6.82C128.658 6.1 128.782 5.5 129.03 5.02C129.286 4.54 129.63 4.18 130.062 3.94C130.502 3.7 130.994 3.58 131.538 3.58C132.162 3.58 132.714 3.716 133.194 3.988C133.674 4.26 134.054 4.64 134.334 5.128C134.614 5.608 134.754 6.172 134.754 6.82C134.754 7.468 134.614 8.036 134.334 8.524C134.054 9.012 133.674 9.392 133.194 9.664C132.714 9.936 132.162 10.072 131.538 10.072ZM128.166 12.328V3.64H129.27V5.356L129.198 6.832L129.318 8.308V12.328H128.166ZM131.442 9.064C131.85 9.064 132.214 8.972 132.534 8.788C132.862 8.604 133.118 8.344 133.302 8.008C133.494 7.664 133.59 7.268 133.59 6.82C133.59 6.364 133.494 5.972 133.302 5.644C133.118 5.308 132.862 5.048 132.534 4.864C132.214 4.68 131.85 4.588 131.442 4.588C131.042 4.588 130.678 4.68 130.35 4.864C130.03 5.048 129.774 5.308 129.582 5.644C129.398 5.972 129.306 6.364 129.306 6.82C129.306 7.268 129.398 7.664 129.582 8.008C129.774 8.344 130.03 8.604 130.35 8.788C130.678 8.972 131.042 9.064 131.442 9.064ZM139.178 10.072C138.498 10.072 137.898 9.932 137.378 9.652C136.866 9.372 136.466 8.988 136.178 8.5C135.898 8.012 135.758 7.452 135.758 6.82C135.758 6.188 135.894 5.628 136.166 5.14C136.446 4.652 136.826 4.272 137.306 4C137.794 3.72 138.342 3.58 138.95 3.58C139.566 3.58 140.11 3.716 140.582 3.988C141.054 4.26 141.422 4.644 141.686 5.14C141.958 5.628 142.094 6.2 142.094 6.856C142.094 6.904 142.09 6.96 142.082 7.024C142.082 7.088 142.078 7.148 142.07 7.204H136.658V6.376H141.47L141.002 6.664C141.01 6.256 140.926 5.892 140.75 5.572C140.574 5.252 140.33 5.004 140.018 4.828C139.714 4.644 139.358 4.552 138.95 4.552C138.55 4.552 138.194 4.644 137.882 4.828C137.57 5.004 137.326 5.256 137.15 5.584C136.974 5.904 136.886 6.272 136.886 6.688V6.88C136.886 7.304 136.982 7.684 137.174 8.02C137.374 8.348 137.65 8.604 138.002 8.788C138.354 8.972 138.758 9.064 139.214 9.064C139.59 9.064 139.93 9 140.234 8.872C140.546 8.744 140.818 8.552 141.05 8.296L141.686 9.04C141.398 9.376 141.038 9.632 140.606 9.808C140.182 9.984 139.706 10.072 139.178 10.072ZM143.694 10V3.64H144.798V5.368L144.69 4.936C144.866 4.496 145.162 4.16 145.578 3.928C145.994 3.696 146.506 3.58 147.114 3.58V4.696C147.066 4.688 147.018 4.684 146.97 4.684C146.93 4.684 146.89 4.684 146.85 4.684C146.234 4.684 145.746 4.868 145.386 5.236C145.026 5.604 144.846 6.136 144.846 6.832V10H143.694ZM151.247 10.072C150.599 10.072 150.019 9.932 149.507 9.652C149.003 9.372 148.607 8.988 148.319 8.5C148.031 8.012 147.887 7.452 147.887 6.82C147.887 6.188 148.031 5.628 148.319 5.14C148.607 4.652 149.003 4.272 149.507 4C150.019 3.72 150.599 3.58 151.247 3.58C151.823 3.58 152.335 3.696 152.783 3.928C153.239 4.152 153.591 4.488 153.839 4.936L152.963 5.5C152.755 5.188 152.499 4.96 152.195 4.816C151.899 4.664 151.579 4.588 151.235 4.588C150.819 4.588 150.447 4.68 150.119 4.864C149.791 5.048 149.531 5.308 149.339 5.644C149.147 5.972 149.051 6.364 149.051 6.82C149.051 7.276 149.147 7.672 149.339 8.008C149.531 8.344 149.791 8.604 150.119 8.788C150.447 8.972 150.819 9.064 151.235 9.064C151.579 9.064 151.899 8.992 152.195 8.848C152.499 8.696 152.755 8.464 152.963 8.152L153.839 8.704C153.591 9.144 153.239 9.484 152.783 9.724C152.335 9.956 151.823 10.072 151.247 10.072ZM158.069 10.072C157.389 10.072 156.789 9.932 156.269 9.652C155.757 9.372 155.357 8.988 155.069 8.5C154.789 8.012 154.649 7.452 154.649 6.82C154.649 6.188 154.785 5.628 155.057 5.14C155.337 4.652 155.717 4.272 156.197 4C156.685 3.72 157.233 3.58 157.841 3.58C158.457 3.58 159.001 3.716 159.473 3.988C159.945 4.26 160.313 4.644 160.577 5.14C160.849 5.628 160.985 6.2 160.985 6.856C160.985 6.904 160.981 6.96 160.973 7.024C160.973 7.088 160.969 7.148 160.961 7.204H155.549V6.376H160.361L159.893 6.664C159.901 6.256 159.817 5.892 159.641 5.572C159.465 5.252 159.221 5.004 158.909 4.828C158.605 4.644 158.249 4.552 157.841 4.552C157.441 4.552 157.085 4.644 156.773 4.828C156.461 5.004 156.217 5.256 156.041 5.584C155.865 5.904 155.777 6.272 155.777 6.688V6.88C155.777 7.304 155.873 7.684 156.065 8.02C156.265 8.348 156.541 8.604 156.893 8.788C157.245 8.972 157.649 9.064 158.105 9.064C158.481 9.064 158.821 9 159.125 8.872C159.437 8.744 159.709 8.552 159.941 8.296L160.577 9.04C160.289 9.376 159.929 9.632 159.497 9.808C159.073 9.984 158.597 10.072 158.069 10.072ZM165.98 3.58C166.5 3.58 166.956 3.68 167.348 3.88C167.748 4.08 168.06 4.384 168.284 4.792C168.508 5.2 168.62 5.716 168.62 6.34V10H167.468V6.472C167.468 5.856 167.316 5.392 167.012 5.08C166.716 4.768 166.296 4.612 165.752 4.612C165.344 4.612 164.988 4.692 164.684 4.852C164.38 5.012 164.144 5.248 163.976 5.56C163.816 5.872 163.736 6.26 163.736 6.724V10H162.584V3.64H163.688V5.356L163.508 4.9C163.716 4.484 164.036 4.16 164.468 3.928C164.9 3.696 165.404 3.58 165.98 3.58ZM172.936 10.072C172.296 10.072 171.8 9.9 171.448 9.556C171.096 9.212 170.92 8.72 170.92 8.08V2.248H172.072V8.032C172.072 8.376 172.156 8.64 172.324 8.824C172.5 9.008 172.748 9.1 173.068 9.1C173.428 9.1 173.728 9 173.968 8.8L174.328 9.628C174.152 9.78 173.94 9.892 173.692 9.964C173.452 10.036 173.2 10.072 172.936 10.072ZM169.84 4.588V3.64H173.896V4.588H169.84ZM178.397 10.072C177.853 10.072 177.373 9.972 176.957 9.772C176.549 9.572 176.229 9.268 175.997 8.86C175.773 8.444 175.661 7.924 175.661 7.3V3.64H176.813V7.168C176.813 7.792 176.961 8.26 177.257 8.572C177.561 8.884 177.985 9.04 178.529 9.04C178.929 9.04 179.277 8.96 179.573 8.8C179.869 8.632 180.097 8.392 180.257 8.08C180.417 7.76 180.497 7.376 180.497 6.928V3.64H181.649V10H180.557V8.284L180.737 8.74C180.529 9.164 180.217 9.492 179.801 9.724C179.385 9.956 178.917 10.072 178.397 10.072ZM187.79 10V8.656L187.73 8.404V6.112C187.73 5.624 187.586 5.248 187.298 4.984C187.018 4.712 186.594 4.576 186.026 4.576C185.65 4.576 185.282 4.64 184.922 4.768C184.562 4.888 184.258 5.052 184.01 5.26L183.53 4.396C183.858 4.132 184.25 3.932 184.706 3.796C185.17 3.652 185.654 3.58 186.158 3.58C187.03 3.58 187.702 3.792 188.174 4.216C188.646 4.64 188.882 5.288 188.882 6.16V10H187.79ZM185.702 10.072C185.23 10.072 184.814 9.992 184.454 9.832C184.102 9.672 183.83 9.452 183.638 9.172C183.446 8.884 183.35 8.56 183.35 8.2C183.35 7.856 183.43 7.544 183.59 7.264C183.758 6.984 184.026 6.76 184.394 6.592C184.77 6.424 185.274 6.34 185.906 6.34H187.922V7.168H185.954C185.378 7.168 184.99 7.264 184.79 7.456C184.59 7.648 184.49 7.88 184.49 8.152C184.49 8.464 184.614 8.716 184.862 8.908C185.11 9.092 185.454 9.184 185.894 9.184C186.326 9.184 186.702 9.088 187.022 8.896C187.35 8.704 187.586 8.424 187.73 8.056L187.958 8.848C187.806 9.224 187.538 9.524 187.154 9.748C186.77 9.964 186.286 10.072 185.702 10.072ZM191.014 10V1.096H192.166V10H191.014ZM201.536 10V8.656L201.476 8.404V6.112C201.476 5.624 201.332 5.248 201.044 4.984C200.764 4.712 200.34 4.576 199.772 4.576C199.396 4.576 199.028 4.64 198.668 4.768C198.308 4.888 198.004 5.052 197.756 5.26L197.276 4.396C197.604 4.132 197.996 3.932 198.452 3.796C198.916 3.652 199.4 3.58 199.904 3.58C200.776 3.58 201.448 3.792 201.92 4.216C202.392 4.64 202.628 5.288 202.628 6.16V10H201.536ZM199.448 10.072C198.976 10.072 198.56 9.992 198.2 9.832C197.848 9.672 197.576 9.452 197.384 9.172C197.192 8.884 197.096 8.56 197.096 8.2C197.096 7.856 197.176 7.544 197.336 7.264C197.504 6.984 197.772 6.76 198.14 6.592C198.516 6.424 199.02 6.34 199.652 6.34H201.668V7.168H199.7C199.124 7.168 198.736 7.264 198.536 7.456C198.336 7.648 198.236 7.88 198.236 8.152C198.236 8.464 198.36 8.716 198.608 8.908C198.856 9.092 199.2 9.184 199.64 9.184C200.072 9.184 200.448 9.088 200.768 8.896C201.096 8.704 201.332 8.424 201.476 8.056L201.704 8.848C201.552 9.224 201.284 9.524 200.9 9.748C200.516 9.964 200.032 10.072 199.448 10.072ZM207.532 10.072C206.884 10.072 206.304 9.932 205.792 9.652C205.288 9.372 204.892 8.988 204.604 8.5C204.316 8.012 204.172 7.452 204.172 6.82C204.172 6.188 204.316 5.628 204.604 5.14C204.892 4.652 205.288 4.272 205.792 4C206.304 3.72 206.884 3.58 207.532 3.58C208.108 3.58 208.62 3.696 209.068 3.928C209.524 4.152 209.876 4.488 210.124 4.936L209.248 5.5C209.04 5.188 208.784 4.96 208.48 4.816C208.184 4.664 207.864 4.588 207.52 4.588C207.104 4.588 206.732 4.68 206.404 4.864C206.076 5.048 205.816 5.308 205.624 5.644C205.432 5.972 205.336 6.364 205.336 6.82C205.336 7.276 205.432 7.672 205.624 8.008C205.816 8.344 206.076 8.604 206.404 8.788C206.732 8.972 207.104 9.064 207.52 9.064C207.864 9.064 208.184 8.992 208.48 8.848C208.784 8.696 209.04 8.464 209.248 8.152L210.124 8.704C209.876 9.144 209.524 9.484 209.068 9.724C208.62 9.956 208.108 10.072 207.532 10.072ZM211.533 10V3.64H212.685V10H211.533ZM212.109 2.416C211.885 2.416 211.697 2.344 211.545 2.2C211.401 2.056 211.329 1.88 211.329 1.672C211.329 1.456 211.401 1.276 211.545 1.132C211.697 0.988 211.885 0.916 212.109 0.916C212.333 0.916 212.517 0.988 212.661 1.132C212.813 1.268 212.889 1.44 212.889 1.648C212.889 1.864 212.817 2.048 212.673 2.2C212.529 2.344 212.341 2.416 212.109 2.416ZM222.841 3.58C223.353 3.58 223.805 3.68 224.197 3.88C224.589 4.08 224.893 4.384 225.109 4.792C225.333 5.2 225.445 5.716 225.445 6.34V10H224.293V6.472C224.293 5.856 224.149 5.392 223.861 5.08C223.573 4.768 223.169 4.612 222.649 4.612C222.265 4.612 221.929 4.692 221.641 4.852C221.353 5.012 221.129 5.248 220.969 5.56C220.817 5.872 220.741 6.26 220.741 6.724V10H219.589V6.472C219.589 5.856 219.445 5.392 219.157 5.08C218.877 4.768 218.473 4.612 217.945 4.612C217.569 4.612 217.237 4.692 216.949 4.852C216.661 5.012 216.437 5.248 216.277 5.56C216.117 5.872 216.037 6.26 216.037 6.724V10H214.885V3.64H215.989V5.332L215.809 4.9C216.009 4.484 216.317 4.16 216.733 3.928C217.149 3.696 217.633 3.58 218.185 3.58C218.793 3.58 219.317 3.732 219.757 4.036C220.197 4.332 220.485 4.784 220.621 5.392L220.153 5.2C220.345 4.712 220.681 4.32 221.161 4.024C221.641 3.728 222.201 3.58 222.841 3.58ZM231.513 10V8.656L231.453 8.404V6.112C231.453 5.624 231.309 5.248 231.021 4.984C230.741 4.712 230.317 4.576 229.749 4.576C229.373 4.576 229.005 4.64 228.645 4.768C228.285 4.888 227.981 5.052 227.733 5.26L227.253 4.396C227.581 4.132 227.973 3.932 228.429 3.796C228.893 3.652 229.377 3.58 229.881 3.58C230.753 3.58 231.425 3.792 231.897 4.216C232.369 4.64 232.605 5.288 232.605 6.16V10H231.513ZM229.425 10.072C228.953 10.072 228.537 9.992 228.177 9.832C227.825 9.672 227.553 9.452 227.361 9.172C227.169 8.884 227.073 8.56 227.073 8.2C227.073 7.856 227.153 7.544 227.313 7.264C227.481 6.984 227.749 6.76 228.117 6.592C228.493 6.424 228.997 6.34 229.629 6.34H231.645V7.168H229.677C229.101 7.168 228.713 7.264 228.513 7.456C228.313 7.648 228.213 7.88 228.213 8.152C228.213 8.464 228.337 8.716 228.585 8.908C228.833 9.092 229.177 9.184 229.617 9.184C230.049 9.184 230.425 9.088 230.745 8.896C231.073 8.704 231.309 8.424 231.453 8.056L231.681 8.848C231.529 9.224 231.261 9.524 230.877 9.748C230.493 9.964 230.009 10.072 229.425 10.072ZM240.587 10.072C239.971 10.072 239.419 9.936 238.931 9.664C238.451 9.392 238.071 9.012 237.791 8.524C237.511 8.036 237.371 7.468 237.371 6.82C237.371 6.172 237.511 5.608 237.791 5.128C238.071 4.64 238.451 4.26 238.931 3.988C239.419 3.716 239.971 3.58 240.587 3.58C241.123 3.58 241.607 3.7 242.039 3.94C242.471 4.18 242.815 4.54 243.071 5.02C243.335 5.5 243.467 6.1 243.467 6.82C243.467 7.54 243.339 8.14 243.083 8.62C242.835 9.1 242.495 9.464 242.063 9.712C241.631 9.952 241.139 10.072 240.587 10.072ZM240.683 9.064C241.083 9.064 241.443 8.972 241.763 8.788C242.091 8.604 242.347 8.344 242.531 8.008C242.723 7.664 242.819 7.268 242.819 6.82C242.819 6.364 242.723 5.972 242.531 5.644C242.347 5.308 242.091 5.048 241.763 4.864C241.443 4.68 241.083 4.588 240.683 4.588C240.275 4.588 239.911 4.68 239.591 4.864C239.271 5.048 239.015 5.308 238.823 5.644C238.631 5.972 238.535 6.364 238.535 6.82C238.535 7.268 238.631 7.664 238.823 8.008C239.015 8.344 239.271 8.604 239.591 8.788C239.911 8.972 240.275 9.064 240.683 9.064ZM242.855 10V8.284L242.927 6.808L242.807 5.332V1.096H243.959V10H242.855ZM248.971 10.072C248.291 10.072 247.691 9.932 247.171 9.652C246.659 9.372 246.259 8.988 245.971 8.5C245.691 8.012 245.551 7.452 245.551 6.82C245.551 6.188 245.687 5.628 245.959 5.14C246.239 4.652 246.619 4.272 247.099 4C247.587 3.72 248.135 3.58 248.743 3.58C249.359 3.58 249.903 3.716 250.375 3.988C250.847 4.26 251.215 4.644 251.479 5.14C251.751 5.628 251.887 6.2 251.887 6.856C251.887 6.904 251.883 6.96 251.875 7.024C251.875 7.088 251.871 7.148 251.863 7.204H246.451V6.376H251.263L250.795 6.664C250.803 6.256 250.719 5.892 250.543 5.572C250.367 5.252 250.123 5.004 249.811 4.828C249.507 4.644 249.151 4.552 248.743 4.552C248.343 4.552 247.987 4.644 247.675 4.828C247.363 5.004 247.119 5.256 246.943 5.584C246.767 5.904 246.679 6.272 246.679 6.688V6.88C246.679 7.304 246.775 7.684 246.967 8.02C247.167 8.348 247.443 8.604 247.795 8.788C248.147 8.972 248.551 9.064 249.007 9.064C249.383 9.064 249.723 9 250.027 8.872C250.339 8.744 250.611 8.552 250.843 8.296L251.479 9.04C251.191 9.376 250.831 9.632 250.399 9.808C249.975 9.984 249.499 10.072 248.971 10.072ZM256.061 10V9.184L259.481 5.884C259.785 5.596 260.009 5.344 260.153 5.128C260.305 4.904 260.405 4.7 260.453 4.516C260.509 4.324 260.537 4.14 260.537 3.964C260.537 3.532 260.385 3.192 260.081 2.944C259.777 2.696 259.333 2.572 258.749 2.572C258.301 2.572 257.897 2.648 257.537 2.8C257.177 2.944 256.865 3.172 256.601 3.484L255.785 2.776C256.105 2.368 256.533 2.056 257.069 1.84C257.613 1.616 258.209 1.504 258.857 1.504C259.441 1.504 259.949 1.6 260.381 1.792C260.813 1.976 261.145 2.244 261.377 2.596C261.617 2.948 261.737 3.364 261.737 3.844C261.737 4.116 261.701 4.384 261.629 4.648C261.557 4.912 261.421 5.192 261.221 5.488C261.021 5.784 260.733 6.116 260.357 6.484L257.309 9.424L257.021 8.956H262.097V10H256.061ZM265.796 10.096C265.204 10.096 264.628 10.004 264.068 9.82C263.516 9.636 263.064 9.388 262.712 9.076L263.264 8.128C263.544 8.392 263.908 8.608 264.356 8.776C264.804 8.944 265.28 9.028 265.784 9.028C266.424 9.028 266.916 8.892 267.26 8.62C267.604 8.348 267.776 7.984 267.776 7.528C267.776 7.216 267.7 6.944 267.548 6.712C267.396 6.48 267.132 6.304 266.756 6.184C266.388 6.056 265.88 5.992 265.232 5.992H263.324L263.768 1.6H268.508V2.644H264.212L264.836 2.056L264.488 5.524L263.864 4.948H265.484C266.324 4.948 267 5.056 267.512 5.272C268.024 5.488 268.396 5.788 268.628 6.172C268.86 6.548 268.976 6.984 268.976 7.48C268.976 7.96 268.86 8.4 268.628 8.8C268.396 9.192 268.044 9.508 267.572 9.748C267.108 9.98 266.516 10.096 265.796 10.096ZM271.009 10L276.745 1.6H277.669L271.933 10H271.009ZM271.681 6.112C271.297 6.112 270.957 6.016 270.661 5.824C270.365 5.632 270.133 5.364 269.965 5.02C269.805 4.676 269.725 4.276 269.725 3.82C269.725 3.364 269.805 2.964 269.965 2.62C270.133 2.276 270.365 2.008 270.661 1.816C270.957 1.624 271.297 1.528 271.681 1.528C272.073 1.528 272.413 1.624 272.701 1.816C272.997 2.008 273.225 2.276 273.385 2.62C273.545 2.964 273.625 3.364 273.625 3.82C273.625 4.276 273.545 4.676 273.385 5.02C273.225 5.364 272.997 5.632 272.701 5.824C272.413 6.016 272.073 6.112 271.681 6.112ZM271.681 5.428C272.049 5.428 272.337 5.288 272.545 5.008C272.753 4.72 272.857 4.324 272.857 3.82C272.857 3.316 272.753 2.924 272.545 2.644C272.337 2.356 272.049 2.212 271.681 2.212C271.321 2.212 271.033 2.356 270.817 2.644C270.609 2.924 270.505 3.316 270.505 3.82C270.505 4.316 270.609 4.708 270.817 4.996C271.033 5.284 271.321 5.428 271.681 5.428ZM276.997 10.072C276.613 10.072 276.273 9.976 275.977 9.784C275.681 9.592 275.453 9.324 275.293 8.98C275.133 8.636 275.053 8.236 275.053 7.78C275.053 7.324 275.133 6.924 275.293 6.58C275.453 6.236 275.681 5.968 275.977 5.776C276.273 5.584 276.613 5.488 276.997 5.488C277.389 5.488 277.729 5.584 278.017 5.776C278.313 5.968 278.541 6.236 278.701 6.58C278.869 6.924 278.953 7.324 278.953 7.78C278.953 8.236 278.869 8.636 278.701 8.98C278.541 9.324 278.313 9.592 278.017 9.784C277.729 9.976 277.389 10.072 276.997 10.072ZM276.997 9.388C277.357 9.388 277.641 9.248 277.849 8.968C278.065 8.68 278.173 8.284 278.173 7.78C278.173 7.284 278.065 6.892 277.849 6.604C277.641 6.316 277.357 6.172 276.997 6.172C276.637 6.172 276.349 6.316 276.133 6.604C275.925 6.884 275.821 7.276 275.821 7.78C275.821 8.284 275.925 8.68 276.133 8.968C276.349 9.248 276.637 9.388 276.997 9.388ZM287.105 3.58C287.625 3.58 288.081 3.68 288.473 3.88C288.873 4.08 289.185 4.384 289.409 4.792C289.633 5.2 289.745 5.716 289.745 6.34V10H288.593V6.472C288.593 5.856 288.441 5.392 288.137 5.08C287.841 4.768 287.421 4.612 286.877 4.612C286.469 4.612 286.113 4.692 285.809 4.852C285.505 5.012 285.269 5.248 285.101 5.56C284.941 5.872 284.861 6.26 284.861 6.724V10H283.709V3.64H284.813V5.356L284.633 4.9C284.841 4.484 285.161 4.16 285.593 3.928C286.025 3.696 286.529 3.58 287.105 3.58ZM295.825 10V8.656L295.765 8.404V6.112C295.765 5.624 295.621 5.248 295.333 4.984C295.053 4.712 294.629 4.576 294.061 4.576C293.685 4.576 293.317 4.64 292.957 4.768C292.597 4.888 292.293 5.052 292.045 5.26L291.565 4.396C291.893 4.132 292.285 3.932 292.741 3.796C293.205 3.652 293.689 3.58 294.193 3.58C295.065 3.58 295.737 3.792 296.209 4.216C296.681 4.64 296.917 5.288 296.917 6.16V10H295.825ZM293.737 10.072C293.265 10.072 292.849 9.992 292.489 9.832C292.137 9.672 291.865 9.452 291.673 9.172C291.481 8.884 291.385 8.56 291.385 8.2C291.385 7.856 291.465 7.544 291.625 7.264C291.793 6.984 292.061 6.76 292.429 6.592C292.805 6.424 293.309 6.34 293.941 6.34H295.957V7.168H293.989C293.413 7.168 293.025 7.264 292.825 7.456C292.625 7.648 292.525 7.88 292.525 8.152C292.525 8.464 292.649 8.716 292.897 8.908C293.145 9.092 293.489 9.184 293.929 9.184C294.361 9.184 294.737 9.088 295.057 8.896C295.385 8.704 295.621 8.424 295.765 8.056L295.993 8.848C295.841 9.224 295.573 9.524 295.189 9.748C294.805 9.964 294.321 10.072 293.737 10.072ZM24.7472 18.58C25.2592 18.58 25.7112 18.68 26.1032 18.88C26.4952 19.08 26.7992 19.384 27.0152 19.792C27.2392 20.2 27.3512 20.716 27.3512 21.34V25H26.1992V21.472C26.1992 20.856 26.0552 20.392 25.7672 20.08C25.4792 19.768 25.0752 19.612 24.5552 19.612C24.1712 19.612 23.8352 19.692 23.5472 19.852C23.2592 20.012 23.0352 20.248 22.8752 20.56C22.7232 20.872 22.6472 21.26 22.6472 21.724V25H21.4952V21.472C21.4952 20.856 21.3512 20.392 21.0632 20.08C20.7832 19.768 20.3792 19.612 19.8512 19.612C19.4752 19.612 19.1432 19.692 18.8552 19.852C18.5672 20.012 18.3432 20.248 18.1832 20.56C18.0232 20.872 17.9432 21.26 17.9432 21.724V25H16.7912V18.64H17.8952V20.332L17.7152 19.9C17.9152 19.484 18.2232 19.16 18.6392 18.928C19.0552 18.696 19.5392 18.58 20.0912 18.58C20.6992 18.58 21.2232 18.732 21.6632 19.036C22.1032 19.332 22.3912 19.784 22.5272 20.392L22.0592 20.2C22.2512 19.712 22.5872 19.32 23.0672 19.024C23.5472 18.728 24.1072 18.58 24.7472 18.58ZM33.4189 25V23.656L33.3589 23.404V21.112C33.3589 20.624 33.2149 20.248 32.9269 19.984C32.6469 19.712 32.2229 19.576 31.6549 19.576C31.2789 19.576 30.9109 19.64 30.5509 19.768C30.1909 19.888 29.8869 20.052 29.6389 20.26L29.1589 19.396C29.4869 19.132 29.8789 18.932 30.3349 18.796C30.7989 18.652 31.2829 18.58 31.7869 18.58C32.6589 18.58 33.3309 18.792 33.8029 19.216C34.2749 19.64 34.5109 20.288 34.5109 21.16V25H33.4189ZM31.3309 25.072C30.8589 25.072 30.4429 24.992 30.0829 24.832C29.7309 24.672 29.4589 24.452 29.2669 24.172C29.0749 23.884 28.9789 23.56 28.9789 23.2C28.9789 22.856 29.0589 22.544 29.2189 22.264C29.3869 21.984 29.6549 21.76 30.0229 21.592C30.3989 21.424 30.9029 21.34 31.5349 21.34H33.5509V22.168H31.5829C31.0069 22.168 30.6189 22.264 30.4189 22.456C30.2189 22.648 30.1189 22.88 30.1189 23.152C30.1189 23.464 30.2429 23.716 30.4909 23.908C30.7389 24.092 31.0829 24.184 31.5229 24.184C31.9549 24.184 32.3309 24.088 32.6509 23.896C32.9789 23.704 33.2149 23.424 33.3589 23.056L33.5869 23.848C33.4349 24.224 33.1669 24.524 32.7829 24.748C32.3989 24.964 31.9149 25.072 31.3309 25.072ZM38.8268 25.072C38.1868 25.072 37.6908 24.9 37.3388 24.556C36.9868 24.212 36.8108 23.72 36.8108 23.08V17.248H37.9628V23.032C37.9628 23.376 38.0468 23.64 38.2148 23.824C38.3908 24.008 38.6388 24.1 38.9588 24.1C39.3188 24.1 39.6188 24 39.8588 23.8L40.2188 24.628C40.0428 24.78 39.8308 24.892 39.5828 24.964C39.3428 25.036 39.0908 25.072 38.8268 25.072ZM35.7308 19.588V18.64H39.7868V19.588H35.7308ZM44.2326 25.072C43.5526 25.072 42.9526 24.932 42.4326 24.652C41.9206 24.372 41.5206 23.988 41.2326 23.5C40.9526 23.012 40.8126 22.452 40.8126 21.82C40.8126 21.188 40.9486 20.628 41.2206 20.14C41.5006 19.652 41.8806 19.272 42.3606 19C42.8486 18.72 43.3966 18.58 44.0046 18.58C44.6206 18.58 45.1646 18.716 45.6366 18.988C46.1086 19.26 46.4766 19.644 46.7406 20.14C47.0126 20.628 47.1486 21.2 47.1486 21.856C47.1486 21.904 47.1446 21.96 47.1366 22.024C47.1366 22.088 47.1326 22.148 47.1246 22.204H41.7126V21.376H46.5246L46.0566 21.664C46.0646 21.256 45.9806 20.892 45.8046 20.572C45.6286 20.252 45.3846 20.004 45.0726 19.828C44.7686 19.644 44.4126 19.552 44.0046 19.552C43.6046 19.552 43.2486 19.644 42.9366 19.828C42.6246 20.004 42.3806 20.256 42.2046 20.584C42.0286 20.904 41.9406 21.272 41.9406 21.688V21.88C41.9406 22.304 42.0366 22.684 42.2286 23.02C42.4286 23.348 42.7046 23.604 43.0566 23.788C43.4086 23.972 43.8126 24.064 44.2686 24.064C44.6446 24.064 44.9846 24 45.2886 23.872C45.6006 23.744 45.8726 23.552 46.1046 23.296L46.7406 24.04C46.4526 24.376 46.0926 24.632 45.6606 24.808C45.2366 24.984 44.7606 25.072 44.2326 25.072ZM43.0926 17.716L44.7246 16.156H46.1886L44.1726 17.716H43.0926ZM48.7483 25V18.64H49.8523V20.368L49.7443 19.936C49.9203 19.496 50.2163 19.16 50.6323 18.928C51.0483 18.696 51.5603 18.58 52.1683 18.58V19.696C52.1203 19.688 52.0723 19.684 52.0243 19.684C51.9843 19.684 51.9443 19.684 51.9043 19.684C51.2883 19.684 50.8003 19.868 50.4403 20.236C50.0803 20.604 49.9003 21.136 49.9003 21.832V25H48.7483ZM53.5881 25V18.64H54.7401V25H53.5881ZM54.1641 17.416C53.9401 17.416 53.7521 17.344 53.6001 17.2C53.4561 17.056 53.3841 16.88 53.3841 16.672C53.3841 16.456 53.4561 16.276 53.6001 16.132C53.7521 15.988 53.9401 15.916 54.1641 15.916C54.3881 15.916 54.5721 15.988 54.7161 16.132C54.8681 16.268 54.9441 16.44 54.9441 16.648C54.9441 16.864 54.8721 17.048 54.7281 17.2C54.5841 17.344 54.3961 17.416 54.1641 17.416ZM60.8877 25V23.656L60.8277 23.404V21.112C60.8277 20.624 60.6837 20.248 60.3957 19.984C60.1157 19.712 59.6917 19.576 59.1237 19.576C58.7477 19.576 58.3797 19.64 58.0197 19.768C57.6597 19.888 57.3557 20.052 57.1077 20.26L56.6277 19.396C56.9557 19.132 57.3477 18.932 57.8037 18.796C58.2677 18.652 58.7517 18.58 59.2557 18.58C60.1277 18.58 60.7997 18.792 61.2717 19.216C61.7437 19.64 61.9797 20.288 61.9797 21.16V25H60.8877ZM58.7997 25.072C58.3277 25.072 57.9117 24.992 57.5517 24.832C57.1997 24.672 56.9277 24.452 56.7357 24.172C56.5437 23.884 56.4477 23.56 56.4477 23.2C56.4477 22.856 56.5277 22.544 56.6877 22.264C56.8557 21.984 57.1237 21.76 57.4917 21.592C57.8677 21.424 58.3717 21.34 59.0037 21.34H61.0197V22.168H59.0517C58.4757 22.168 58.0877 22.264 57.8877 22.456C57.6877 22.648 57.5877 22.88 57.5877 23.152C57.5877 23.464 57.7117 23.716 57.9597 23.908C58.2077 24.092 58.5517 24.184 58.9917 24.184C59.4237 24.184 59.7997 24.088 60.1197 23.896C60.4477 23.704 60.6837 23.424 60.8277 23.056L61.0557 23.848C60.9037 24.224 60.6357 24.524 60.2517 24.748C59.8677 24.964 59.3837 25.072 58.7997 25.072ZM69.1582 25.072C68.6302 25.072 68.1262 25 67.6462 24.856C67.1742 24.712 66.8022 24.536 66.5302 24.328L67.0102 23.416C67.2822 23.6 67.6182 23.756 68.0182 23.884C68.4182 24.012 68.8262 24.076 69.2422 24.076C69.7782 24.076 70.1622 24 70.3942 23.848C70.6342 23.696 70.7542 23.484 70.7542 23.212C70.7542 23.012 70.6822 22.856 70.5382 22.744C70.3942 22.632 70.2022 22.548 69.9622 22.492C69.7302 22.436 69.4702 22.388 69.1822 22.348C68.8942 22.3 68.6062 22.244 68.3182 22.18C68.0302 22.108 67.7662 22.012 67.5262 21.892C67.2862 21.764 67.0942 21.592 66.9502 21.376C66.8062 21.152 66.7342 20.856 66.7342 20.488C66.7342 20.104 66.8422 19.768 67.0582 19.48C67.2742 19.192 67.5782 18.972 67.9702 18.82C68.3702 18.66 68.8422 18.58 69.3862 18.58C69.8022 18.58 70.2222 18.632 70.6462 18.736C71.0782 18.832 71.4302 18.972 71.7022 19.156L71.2102 20.068C70.9222 19.876 70.6222 19.744 70.3102 19.672C69.9982 19.6 69.6862 19.564 69.3742 19.564C68.8702 19.564 68.4942 19.648 68.2462 19.816C67.9982 19.976 67.8742 20.184 67.8742 20.44C67.8742 20.656 67.9462 20.824 68.0902 20.944C68.2422 21.056 68.4342 21.144 68.6662 21.208C68.9062 21.272 69.1702 21.328 69.4582 21.376C69.7462 21.416 70.0342 21.472 70.3222 21.544C70.6102 21.608 70.8702 21.7 71.1022 21.82C71.3422 21.94 71.5342 22.108 71.6782 22.324C71.8302 22.54 71.9062 22.828 71.9062 23.188C71.9062 23.572 71.7942 23.904 71.5702 24.184C71.3462 24.464 71.0302 24.684 70.6222 24.844C70.2142 24.996 69.7262 25.072 69.1582 25.072ZM76.1779 25.072C75.4979 25.072 74.8979 24.932 74.3779 24.652C73.8659 24.372 73.4659 23.988 73.1779 23.5C72.8979 23.012 72.7579 22.452 72.7579 21.82C72.7579 21.188 72.8939 20.628 73.1659 20.14C73.4459 19.652 73.8259 19.272 74.3059 19C74.7939 18.72 75.3419 18.58 75.9499 18.58C76.5659 18.58 77.1099 18.716 77.5819 18.988C78.0539 19.26 78.4219 19.644 78.6859 20.14C78.9579 20.628 79.0939 21.2 79.0939 21.856C79.0939 21.904 79.0899 21.96 79.0819 22.024C79.0819 22.088 79.0779 22.148 79.0699 22.204H73.6579V21.376H78.4699L78.0019 21.664C78.0099 21.256 77.9259 20.892 77.7499 20.572C77.5739 20.252 77.3299 20.004 77.0179 19.828C76.7139 19.644 76.3579 19.552 75.9499 19.552C75.5499 19.552 75.1939 19.644 74.8819 19.828C74.5699 20.004 74.3259 20.256 74.1499 20.584C73.9739 20.904 73.8859 21.272 73.8859 21.688V21.88C73.8859 22.304 73.9819 22.684 74.1739 23.02C74.3739 23.348 74.6499 23.604 75.0019 23.788C75.3539 23.972 75.7579 24.064 76.2139 24.064C76.5899 24.064 76.9299 24 77.2339 23.872C77.5459 23.744 77.8179 23.552 78.0499 23.296L78.6859 24.04C78.3979 24.376 78.0379 24.632 77.6059 24.808C77.1819 24.984 76.7059 25.072 76.1779 25.072ZM80.6936 25V18.64H81.7976V20.368L81.6896 19.936C81.8656 19.496 82.1616 19.16 82.5776 18.928C82.9936 18.696 83.5056 18.58 84.1136 18.58V19.696C84.0656 19.688 84.0176 19.684 83.9696 19.684C83.9296 19.684 83.8896 19.684 83.8496 19.684C83.2336 19.684 82.7456 19.868 82.3856 20.236C82.0256 20.604 81.8456 21.136 81.8456 21.832V25H80.6936ZM89.0127 25V23.656L88.9527 23.404V21.112C88.9527 20.624 88.8087 20.248 88.5207 19.984C88.2407 19.712 87.8167 19.576 87.2487 19.576C86.8727 19.576 86.5047 19.64 86.1447 19.768C85.7847 19.888 85.4807 20.052 85.2327 20.26L84.7527 19.396C85.0807 19.132 85.4727 18.932 85.9287 18.796C86.3927 18.652 86.8767 18.58 87.3807 18.58C88.2527 18.58 88.9247 18.792 89.3967 19.216C89.8687 19.64 90.1047 20.288 90.1047 21.16V25H89.0127ZM86.9247 25.072C86.4527 25.072 86.0367 24.992 85.6767 24.832C85.3247 24.672 85.0527 24.452 84.8607 24.172C84.6687 23.884 84.5727 23.56 84.5727 23.2C84.5727 22.856 84.6527 22.544 84.8127 22.264C84.9807 21.984 85.2487 21.76 85.6167 21.592C85.9927 21.424 86.4967 21.34 87.1287 21.34H89.1447V22.168H87.1767C86.6007 22.168 86.2127 22.264 86.0127 22.456C85.8127 22.648 85.7127 22.88 85.7127 23.152C85.7127 23.464 85.8367 23.716 86.0847 23.908C86.3327 24.092 86.6767 24.184 87.1167 24.184C87.5487 24.184 87.9247 24.088 88.2447 23.896C88.5727 23.704 88.8087 23.424 88.9527 23.056L89.1807 23.848C89.0287 24.224 88.7607 24.524 88.3767 24.748C87.9927 24.964 87.5087 25.072 86.9247 25.072ZM86.5647 17.716L88.1967 16.156H89.6607L87.6447 17.716H86.5647ZM95.4592 25V18.64H96.5632V20.368L96.4552 19.936C96.6312 19.496 96.9272 19.16 97.3432 18.928C97.7592 18.696 98.2712 18.58 98.8792 18.58V19.696C98.8312 19.688 98.7832 19.684 98.7352 19.684C98.6952 19.684 98.6552 19.684 98.6152 19.684C97.9992 19.684 97.5112 19.868 97.1512 20.236C96.7912 20.604 96.6112 21.136 96.6112 21.832V25H95.4592ZM103.072 25.072C102.392 25.072 101.792 24.932 101.272 24.652C100.76 24.372 100.36 23.988 100.072 23.5C99.7924 23.012 99.6524 22.452 99.6524 21.82C99.6524 21.188 99.7884 20.628 100.06 20.14C100.34 19.652 100.72 19.272 101.2 19C101.688 18.72 102.236 18.58 102.844 18.58C103.46 18.58 104.004 18.716 104.476 18.988C104.948 19.26 105.316 19.644 105.58 20.14C105.852 20.628 105.988 21.2 105.988 21.856C105.988 21.904 105.984 21.96 105.976 22.024C105.976 22.088 105.972 22.148 105.964 22.204H100.552V21.376H105.364L104.896 21.664C104.904 21.256 104.82 20.892 104.644 20.572C104.468 20.252 104.224 20.004 103.912 19.828C103.608 19.644 103.252 19.552 102.844 19.552C102.444 19.552 102.088 19.644 101.776 19.828C101.464 20.004 101.22 20.256 101.044 20.584C100.868 20.904 100.78 21.272 100.78 21.688V21.88C100.78 22.304 100.876 22.684 101.068 23.02C101.268 23.348 101.544 23.604 101.896 23.788C102.248 23.972 102.652 24.064 103.108 24.064C103.484 24.064 103.824 24 104.128 23.872C104.44 23.744 104.712 23.552 104.944 23.296L105.58 24.04C105.292 24.376 104.932 24.632 104.5 24.808C104.076 24.984 103.6 25.072 103.072 25.072ZM110.96 25.072C110.432 25.072 109.948 24.952 109.508 24.712C109.076 24.464 108.728 24.1 108.464 23.62C108.208 23.14 108.08 22.54 108.08 21.82C108.08 21.1 108.204 20.5 108.452 20.02C108.708 19.54 109.052 19.18 109.484 18.94C109.924 18.7 110.416 18.58 110.96 18.58C111.584 18.58 112.136 18.716 112.616 18.988C113.096 19.26 113.476 19.64 113.756 20.128C114.036 20.608 114.176 21.172 114.176 21.82C114.176 22.468 114.036 23.036 113.756 23.524C113.476 24.012 113.096 24.392 112.616 24.664C112.136 24.936 111.584 25.072 110.96 25.072ZM107.588 27.328V18.64H108.692V20.356L108.62 21.832L108.74 23.308V27.328H107.588ZM110.864 24.064C111.272 24.064 111.636 23.972 111.956 23.788C112.284 23.604 112.54 23.344 112.724 23.008C112.916 22.664 113.012 22.268 113.012 21.82C113.012 21.364 112.916 20.972 112.724 20.644C112.54 20.308 112.284 20.048 111.956 19.864C111.636 19.68 111.272 19.588 110.864 19.588C110.464 19.588 110.1 19.68 109.772 19.864C109.452 20.048 109.196 20.308 109.004 20.644C108.82 20.972 108.728 21.364 108.728 21.82C108.728 22.268 108.82 22.664 109.004 23.008C109.196 23.344 109.452 23.604 109.772 23.788C110.1 23.972 110.464 24.064 110.864 24.064ZM115.768 25V18.64H116.872V20.368L116.764 19.936C116.94 19.496 117.236 19.16 117.652 18.928C118.068 18.696 118.58 18.58 119.188 18.58V19.696C119.14 19.688 119.092 19.684 119.044 19.684C119.004 19.684 118.964 19.684 118.924 19.684C118.308 19.684 117.82 19.868 117.46 20.236C117.1 20.604 116.92 21.136 116.92 21.832V25H115.768ZM123.273 25.072C122.633 25.072 122.065 24.932 121.569 24.652C121.073 24.372 120.681 23.988 120.393 23.5C120.105 23.004 119.961 22.444 119.961 21.82C119.961 21.188 120.105 20.628 120.393 20.14C120.681 19.652 121.073 19.272 121.569 19C122.065 18.72 122.633 18.58 123.273 18.58C123.905 18.58 124.469 18.72 124.965 19C125.469 19.272 125.861 19.652 126.141 20.14C126.429 20.62 126.573 21.18 126.573 21.82C126.573 22.452 126.429 23.012 126.141 23.5C125.861 23.988 125.469 24.372 124.965 24.652C124.469 24.932 123.905 25.072 123.273 25.072ZM123.273 24.064C123.681 24.064 124.045 23.972 124.365 23.788C124.693 23.604 124.949 23.344 125.133 23.008C125.317 22.664 125.409 22.268 125.409 21.82C125.409 21.364 125.317 20.972 125.133 20.644C124.949 20.308 124.693 20.048 124.365 19.864C124.045 19.68 123.681 19.588 123.273 19.588C122.865 19.588 122.501 19.68 122.181 19.864C121.861 20.048 121.605 20.308 121.413 20.644C121.221 20.972 121.125 21.364 121.125 21.82C121.125 22.268 121.221 22.664 121.413 23.008C121.605 23.344 121.861 23.604 122.181 23.788C122.501 23.972 122.865 24.064 123.273 24.064ZM129.658 25L126.874 18.64H128.074L130.546 24.4H129.97L132.49 18.64H133.618L130.834 25H129.658ZM138.442 25V23.656L138.382 23.404V21.112C138.382 20.624 138.238 20.248 137.95 19.984C137.67 19.712 137.246 19.576 136.678 19.576C136.302 19.576 135.934 19.64 135.574 19.768C135.214 19.888 134.91 20.052 134.662 20.26L134.182 19.396C134.51 19.132 134.902 18.932 135.358 18.796C135.822 18.652 136.306 18.58 136.81 18.58C137.682 18.58 138.354 18.792 138.826 19.216C139.298 19.64 139.534 20.288 139.534 21.16V25H138.442ZM136.354 25.072C135.882 25.072 135.466 24.992 135.106 24.832C134.754 24.672 134.482 24.452 134.29 24.172C134.098 23.884 134.002 23.56 134.002 23.2C134.002 22.856 134.082 22.544 134.242 22.264C134.41 21.984 134.678 21.76 135.046 21.592C135.422 21.424 135.926 21.34 136.558 21.34H138.574V22.168H136.606C136.03 22.168 135.642 22.264 135.442 22.456C135.242 22.648 135.142 22.88 135.142 23.152C135.142 23.464 135.266 23.716 135.514 23.908C135.762 24.092 136.106 24.184 136.546 24.184C136.978 24.184 137.354 24.088 137.674 23.896C138.002 23.704 138.238 23.424 138.382 23.056L138.61 23.848C138.458 24.224 138.19 24.524 137.806 24.748C137.422 24.964 136.938 25.072 136.354 25.072ZM144.294 25.072C143.678 25.072 143.126 24.936 142.638 24.664C142.158 24.392 141.778 24.012 141.498 23.524C141.218 23.036 141.078 22.468 141.078 21.82C141.078 21.172 141.218 20.608 141.498 20.128C141.778 19.64 142.158 19.26 142.638 18.988C143.126 18.716 143.678 18.58 144.294 18.58C144.83 18.58 145.314 18.7 145.746 18.94C146.178 19.18 146.522 19.54 146.778 20.02C147.042 20.5 147.174 21.1 147.174 21.82C147.174 22.54 147.046 23.14 146.79 23.62C146.542 24.1 146.202 24.464 145.77 24.712C145.338 24.952 144.846 25.072 144.294 25.072ZM144.39 24.064C144.79 24.064 145.15 23.972 145.47 23.788C145.798 23.604 146.054 23.344 146.238 23.008C146.43 22.664 146.526 22.268 146.526 21.82C146.526 21.364 146.43 20.972 146.238 20.644C146.054 20.308 145.798 20.048 145.47 19.864C145.15 19.68 144.79 19.588 144.39 19.588C143.982 19.588 143.618 19.68 143.298 19.864C142.978 20.048 142.722 20.308 142.53 20.644C142.338 20.972 142.242 21.364 142.242 21.82C142.242 22.268 142.338 22.664 142.53 23.008C142.722 23.344 142.978 23.604 143.298 23.788C143.618 23.972 143.982 24.064 144.39 24.064ZM146.562 25V23.284L146.634 21.808L146.514 20.332V16.096H147.666V25H146.562ZM152.57 25.072C151.93 25.072 151.362 24.932 150.866 24.652C150.37 24.372 149.978 23.988 149.69 23.5C149.402 23.004 149.258 22.444 149.258 21.82C149.258 21.188 149.402 20.628 149.69 20.14C149.978 19.652 150.37 19.272 150.866 19C151.362 18.72 151.93 18.58 152.57 18.58C153.202 18.58 153.766 18.72 154.262 19C154.766 19.272 155.158 19.652 155.438 20.14C155.726 20.62 155.87 21.18 155.87 21.82C155.87 22.452 155.726 23.012 155.438 23.5C155.158 23.988 154.766 24.372 154.262 24.652C153.766 24.932 153.202 25.072 152.57 25.072ZM152.57 24.064C152.978 24.064 153.342 23.972 153.662 23.788C153.99 23.604 154.246 23.344 154.43 23.008C154.614 22.664 154.706 22.268 154.706 21.82C154.706 21.364 154.614 20.972 154.43 20.644C154.246 20.308 153.99 20.048 153.662 19.864C153.342 19.68 152.978 19.588 152.57 19.588C152.162 19.588 151.798 19.68 151.478 19.864C151.158 20.048 150.902 20.308 150.71 20.644C150.518 20.972 150.422 21.364 150.422 21.82C150.422 22.268 150.518 22.664 150.71 23.008C150.902 23.344 151.158 23.604 151.478 23.788C151.798 23.972 152.162 24.064 152.57 24.064ZM164.058 25.072C163.53 25.072 163.046 24.952 162.606 24.712C162.174 24.464 161.826 24.1 161.562 23.62C161.306 23.14 161.178 22.54 161.178 21.82C161.178 21.1 161.302 20.5 161.55 20.02C161.806 19.54 162.15 19.18 162.582 18.94C163.022 18.7 163.514 18.58 164.058 18.58C164.682 18.58 165.234 18.716 165.714 18.988C166.194 19.26 166.574 19.64 166.854 20.128C167.134 20.608 167.274 21.172 167.274 21.82C167.274 22.468 167.134 23.036 166.854 23.524C166.574 24.012 166.194 24.392 165.714 24.664C165.234 24.936 164.682 25.072 164.058 25.072ZM160.686 27.328V18.64H161.79V20.356L161.718 21.832L161.838 23.308V27.328H160.686ZM163.962 24.064C164.37 24.064 164.734 23.972 165.054 23.788C165.382 23.604 165.638 23.344 165.822 23.008C166.014 22.664 166.11 22.268 166.11 21.82C166.11 21.364 166.014 20.972 165.822 20.644C165.638 20.308 165.382 20.048 165.054 19.864C164.734 19.68 164.37 19.588 163.962 19.588C163.562 19.588 163.198 19.68 162.87 19.864C162.55 20.048 162.294 20.308 162.102 20.644C161.918 20.972 161.826 21.364 161.826 21.82C161.826 22.268 161.918 22.664 162.102 23.008C162.294 23.344 162.55 23.604 162.87 23.788C163.198 23.972 163.562 24.064 163.962 24.064ZM171.589 25.072C170.949 25.072 170.381 24.932 169.885 24.652C169.389 24.372 168.997 23.988 168.709 23.5C168.421 23.004 168.277 22.444 168.277 21.82C168.277 21.188 168.421 20.628 168.709 20.14C168.997 19.652 169.389 19.272 169.885 19C170.381 18.72 170.949 18.58 171.589 18.58C172.221 18.58 172.785 18.72 173.281 19C173.785 19.272 174.177 19.652 174.457 20.14C174.745 20.62 174.889 21.18 174.889 21.82C174.889 22.452 174.745 23.012 174.457 23.5C174.177 23.988 173.785 24.372 173.281 24.652C172.785 24.932 172.221 25.072 171.589 25.072ZM171.589 24.064C171.997 24.064 172.361 23.972 172.681 23.788C173.009 23.604 173.265 23.344 173.449 23.008C173.633 22.664 173.725 22.268 173.725 21.82C173.725 21.364 173.633 20.972 173.449 20.644C173.265 20.308 173.009 20.048 172.681 19.864C172.361 19.68 171.997 19.588 171.589 19.588C171.181 19.588 170.817 19.68 170.497 19.864C170.177 20.048 169.921 20.308 169.729 20.644C169.537 20.972 169.441 21.364 169.441 21.82C169.441 22.268 169.537 22.664 169.729 23.008C169.921 23.344 170.177 23.604 170.497 23.788C170.817 23.972 171.181 24.064 171.589 24.064ZM176.483 25V18.64H177.587V20.368L177.479 19.936C177.655 19.496 177.951 19.16 178.367 18.928C178.783 18.696 179.295 18.58 179.903 18.58V19.696C179.855 19.688 179.807 19.684 179.759 19.684C179.719 19.684 179.679 19.684 179.639 19.684C179.023 19.684 178.535 19.868 178.175 20.236C177.815 20.604 177.635 21.136 177.635 21.832V25H176.483ZM184.795 25V18.076C184.795 17.452 184.975 16.956 185.335 16.588C185.703 16.212 186.223 16.024 186.895 16.024C187.143 16.024 187.379 16.056 187.603 16.12C187.835 16.176 188.031 16.268 188.191 16.396L187.843 17.272C187.723 17.176 187.587 17.104 187.435 17.056C187.283 17 187.123 16.972 186.955 16.972C186.619 16.972 186.363 17.068 186.187 17.26C186.011 17.444 185.923 17.72 185.923 18.088V18.94L185.947 19.468V25H184.795ZM183.715 19.588V18.64H187.771V19.588H183.715ZM192.688 25V23.656L192.628 23.404V21.112C192.628 20.624 192.484 20.248 192.196 19.984C191.916 19.712 191.492 19.576 190.924 19.576C190.548 19.576 190.18 19.64 189.82 19.768C189.46 19.888 189.156 20.052 188.908 20.26L188.428 19.396C188.756 19.132 189.148 18.932 189.604 18.796C190.068 18.652 190.552 18.58 191.056 18.58C191.928 18.58 192.6 18.792 193.072 19.216C193.544 19.64 193.78 20.288 193.78 21.16V25H192.688ZM190.6 25.072C190.128 25.072 189.712 24.992 189.352 24.832C189 24.672 188.728 24.452 188.536 24.172C188.344 23.884 188.248 23.56 188.248 23.2C188.248 22.856 188.328 22.544 188.488 22.264C188.656 21.984 188.924 21.76 189.292 21.592C189.668 21.424 190.172 21.34 190.804 21.34H192.82V22.168H190.852C190.276 22.168 189.888 22.264 189.688 22.456C189.488 22.648 189.388 22.88 189.388 23.152C189.388 23.464 189.512 23.716 189.76 23.908C190.008 24.092 190.352 24.184 190.792 24.184C191.224 24.184 191.6 24.088 191.92 23.896C192.248 23.704 192.484 23.424 192.628 23.056L192.856 23.848C192.704 24.224 192.436 24.524 192.052 24.748C191.668 24.964 191.184 25.072 190.6 25.072ZM195.912 25V16.096H197.064V25H195.912ZM201.612 25.072C200.972 25.072 200.476 24.9 200.124 24.556C199.772 24.212 199.596 23.72 199.596 23.08V17.248H200.748V23.032C200.748 23.376 200.832 23.64 201 23.824C201.176 24.008 201.424 24.1 201.744 24.1C202.104 24.1 202.404 24 202.644 23.8L203.004 24.628C202.828 24.78 202.616 24.892 202.368 24.964C202.128 25.036 201.876 25.072 201.612 25.072ZM198.516 19.588V18.64H202.572V19.588H198.516ZM208.345 25V23.656L208.285 23.404V21.112C208.285 20.624 208.141 20.248 207.853 19.984C207.573 19.712 207.149 19.576 206.581 19.576C206.205 19.576 205.837 19.64 205.477 19.768C205.117 19.888 204.813 20.052 204.565 20.26L204.085 19.396C204.413 19.132 204.805 18.932 205.261 18.796C205.725 18.652 206.209 18.58 206.713 18.58C207.585 18.58 208.257 18.792 208.729 19.216C209.201 19.64 209.437 20.288 209.437 21.16V25H208.345ZM206.257 25.072C205.785 25.072 205.369 24.992 205.009 24.832C204.657 24.672 204.385 24.452 204.193 24.172C204.001 23.884 203.905 23.56 203.905 23.2C203.905 22.856 203.985 22.544 204.145 22.264C204.313 21.984 204.581 21.76 204.949 21.592C205.325 21.424 205.829 21.34 206.461 21.34H208.477V22.168H206.509C205.933 22.168 205.545 22.264 205.345 22.456C205.145 22.648 205.045 22.88 205.045 23.152C205.045 23.464 205.169 23.716 205.417 23.908C205.665 24.092 206.009 24.184 206.449 24.184C206.881 24.184 207.257 24.088 207.577 23.896C207.905 23.704 208.141 23.424 208.285 23.056L208.513 23.848C208.361 24.224 208.093 24.524 207.709 24.748C207.325 24.964 206.841 25.072 206.257 25.072ZM218.187 18.58C218.707 18.58 219.163 18.68 219.555 18.88C219.955 19.08 220.267 19.384 220.491 19.792C220.715 20.2 220.827 20.716 220.827 21.34V25H219.675V21.472C219.675 20.856 219.523 20.392 219.219 20.08C218.923 19.768 218.503 19.612 217.959 19.612C217.551 19.612 217.195 19.692 216.891 19.852C216.587 20.012 216.351 20.248 216.183 20.56C216.023 20.872 215.943 21.26 215.943 21.724V25H214.791V18.64H215.895V20.356L215.715 19.9C215.923 19.484 216.243 19.16 216.675 18.928C217.107 18.696 217.611 18.58 218.187 18.58ZM226.907 25V23.656L226.847 23.404V21.112C226.847 20.624 226.703 20.248 226.415 19.984C226.135 19.712 225.711 19.576 225.143 19.576C224.767 19.576 224.399 19.64 224.039 19.768C223.679 19.888 223.375 20.052 223.127 20.26L222.647 19.396C222.975 19.132 223.367 18.932 223.823 18.796C224.287 18.652 224.771 18.58 225.275 18.58C226.147 18.58 226.819 18.792 227.291 19.216C227.763 19.64 227.999 20.288 227.999 21.16V25H226.907ZM224.819 25.072C224.347 25.072 223.931 24.992 223.571 24.832C223.219 24.672 222.947 24.452 222.755 24.172C222.563 23.884 222.467 23.56 222.467 23.2C222.467 22.856 222.547 22.544 222.707 22.264C222.875 21.984 223.143 21.76 223.511 21.592C223.887 21.424 224.391 21.34 225.023 21.34H227.039V22.168H225.071C224.495 22.168 224.107 22.264 223.907 22.456C223.707 22.648 223.607 22.88 223.607 23.152C223.607 23.464 223.731 23.716 223.979 23.908C224.227 24.092 224.571 24.184 225.011 24.184C225.443 24.184 225.819 24.088 226.139 23.896C226.467 23.704 226.703 23.424 226.847 23.056L227.075 23.848C226.923 24.224 226.655 24.524 226.271 24.748C225.887 24.964 225.403 25.072 224.819 25.072ZM241.31 18.58C241.822 18.58 242.274 18.68 242.666 18.88C243.058 19.08 243.362 19.384 243.578 19.792C243.802 20.2 243.914 20.716 243.914 21.34V25H242.762V21.472C242.762 20.856 242.618 20.392 242.33 20.08C242.042 19.768 241.638 19.612 241.118 19.612C240.734 19.612 240.398 19.692 240.11 19.852C239.822 20.012 239.598 20.248 239.438 20.56C239.286 20.872 239.21 21.26 239.21 21.724V25H238.058V21.472C238.058 20.856 237.914 20.392 237.626 20.08C237.346 19.768 236.942 19.612 236.414 19.612C236.038 19.612 235.706 19.692 235.418 19.852C235.13 20.012 234.906 20.248 234.746 20.56C234.586 20.872 234.506 21.26 234.506 21.724V25H233.354V18.64H234.458V20.332L234.278 19.9C234.478 19.484 234.786 19.16 235.202 18.928C235.618 18.696 236.102 18.58 236.654 18.58C237.262 18.58 237.786 18.732 238.226 19.036C238.666 19.332 238.954 19.784 239.09 20.392L238.622 20.2C238.814 19.712 239.15 19.32 239.63 19.024C240.11 18.728 240.67 18.58 241.31 18.58ZM249.981 25V23.656L249.921 23.404V21.112C249.921 20.624 249.777 20.248 249.489 19.984C249.209 19.712 248.785 19.576 248.217 19.576C247.841 19.576 247.473 19.64 247.113 19.768C246.753 19.888 246.449 20.052 246.201 20.26L245.721 19.396C246.049 19.132 246.441 18.932 246.897 18.796C247.361 18.652 247.845 18.58 248.349 18.58C249.221 18.58 249.893 18.792 250.365 19.216C250.837 19.64 251.073 20.288 251.073 21.16V25H249.981ZM247.893 25.072C247.421 25.072 247.005 24.992 246.645 24.832C246.293 24.672 246.021 24.452 245.829 24.172C245.637 23.884 245.541 23.56 245.541 23.2C245.541 22.856 245.621 22.544 245.781 22.264C245.949 21.984 246.217 21.76 246.585 21.592C246.961 21.424 247.465 21.34 248.097 21.34H250.113V22.168H248.145C247.569 22.168 247.181 22.264 246.981 22.456C246.781 22.648 246.681 22.88 246.681 23.152C246.681 23.464 246.805 23.716 247.053 23.908C247.301 24.092 247.645 24.184 248.085 24.184C248.517 24.184 248.893 24.088 249.213 23.896C249.541 23.704 249.777 23.424 249.921 23.056L250.149 23.848C249.997 24.224 249.729 24.524 249.345 24.748C248.961 24.964 248.477 25.072 247.893 25.072ZM255.389 25.072C254.749 25.072 254.253 24.9 253.901 24.556C253.549 24.212 253.373 23.72 253.373 23.08V17.248H254.525V23.032C254.525 23.376 254.609 23.64 254.777 23.824C254.953 24.008 255.201 24.1 255.521 24.1C255.881 24.1 256.181 24 256.421 23.8L256.781 24.628C256.605 24.78 256.393 24.892 256.145 24.964C255.905 25.036 255.653 25.072 255.389 25.072ZM252.293 19.588V18.64H256.349V19.588H252.293ZM260.795 25.072C260.115 25.072 259.515 24.932 258.995 24.652C258.483 24.372 258.083 23.988 257.795 23.5C257.515 23.012 257.375 22.452 257.375 21.82C257.375 21.188 257.511 20.628 257.783 20.14C258.063 19.652 258.443 19.272 258.923 19C259.411 18.72 259.959 18.58 260.567 18.58C261.183 18.58 261.727 18.716 262.199 18.988C262.671 19.26 263.039 19.644 263.303 20.14C263.575 20.628 263.711 21.2 263.711 21.856C263.711 21.904 263.707 21.96 263.699 22.024C263.699 22.088 263.695 22.148 263.687 22.204H258.275V21.376H263.087L262.619 21.664C262.627 21.256 262.543 20.892 262.367 20.572C262.191 20.252 261.947 20.004 261.635 19.828C261.331 19.644 260.975 19.552 260.567 19.552C260.167 19.552 259.811 19.644 259.499 19.828C259.187 20.004 258.943 20.256 258.767 20.584C258.591 20.904 258.503 21.272 258.503 21.688V21.88C258.503 22.304 258.599 22.684 258.791 23.02C258.991 23.348 259.267 23.604 259.619 23.788C259.971 23.972 260.375 24.064 260.831 24.064C261.207 24.064 261.547 24 261.851 23.872C262.163 23.744 262.435 23.552 262.667 23.296L263.303 24.04C263.015 24.376 262.655 24.632 262.223 24.808C261.799 24.984 261.323 25.072 260.795 25.072ZM259.655 17.716L261.287 16.156H262.751L260.735 17.716H259.655ZM265.311 25V18.64H266.415V20.368L266.307 19.936C266.483 19.496 266.779 19.16 267.195 18.928C267.611 18.696 268.123 18.58 268.731 18.58V19.696C268.683 19.688 268.635 19.684 268.587 19.684C268.547 19.684 268.507 19.684 268.467 19.684C267.851 19.684 267.363 19.868 267.003 20.236C266.643 20.604 266.463 21.136 266.463 21.832V25H265.311ZM270.151 25V18.64H271.303V25H270.151ZM270.727 17.416C270.503 17.416 270.315 17.344 270.163 17.2C270.019 17.056 269.947 16.88 269.947 16.672C269.947 16.456 270.019 16.276 270.163 16.132C270.315 15.988 270.503 15.916 270.727 15.916C270.951 15.916 271.135 15.988 271.279 16.132C271.431 16.268 271.507 16.44 271.507 16.648C271.507 16.864 271.435 17.048 271.291 17.2C271.147 17.344 270.959 17.416 270.727 17.416ZM277.45 25V23.656L277.39 23.404V21.112C277.39 20.624 277.246 20.248 276.958 19.984C276.678 19.712 276.254 19.576 275.686 19.576C275.31 19.576 274.942 19.64 274.582 19.768C274.222 19.888 273.918 20.052 273.67 20.26L273.19 19.396C273.518 19.132 273.91 18.932 274.366 18.796C274.83 18.652 275.314 18.58 275.818 18.58C276.69 18.58 277.362 18.792 277.834 19.216C278.306 19.64 278.542 20.288 278.542 21.16V25H277.45ZM275.362 25.072C274.89 25.072 274.474 24.992 274.114 24.832C273.762 24.672 273.49 24.452 273.298 24.172C273.106 23.884 273.01 23.56 273.01 23.2C273.01 22.856 273.09 22.544 273.25 22.264C273.418 21.984 273.686 21.76 274.054 21.592C274.43 21.424 274.934 21.34 275.566 21.34H277.582V22.168H275.614C275.038 22.168 274.65 22.264 274.45 22.456C274.25 22.648 274.15 22.88 274.15 23.152C274.15 23.464 274.274 23.716 274.522 23.908C274.77 24.092 275.114 24.184 275.554 24.184C275.986 24.184 276.362 24.088 276.682 23.896C277.01 23.704 277.246 23.424 277.39 23.056L277.618 23.848C277.466 24.224 277.198 24.524 276.814 24.748C276.43 24.964 275.946 25.072 275.362 25.072ZM280.95 25.072C280.726 25.072 280.534 24.996 280.374 24.844C280.214 24.684 280.134 24.484 280.134 24.244C280.134 24.004 280.214 23.808 280.374 23.656C280.534 23.504 280.726 23.428 280.95 23.428C281.166 23.428 281.35 23.504 281.502 23.656C281.662 23.808 281.742 24.004 281.742 24.244C281.742 24.484 281.662 24.684 281.502 24.844C281.35 24.996 281.166 25.072 280.95 25.072Z" fill="black"/>
</svg>
