<svg width="167" height="22" viewBox="0 0 167 22" fill="none" xmlns="http://www.w3.org/2000/svg">
<rect x="52.5" y="0.5" width="114" height="21" rx="4.5" stroke="#EFA570"/>
<path d="M1.692 17V4.4H7.2C8.568 4.4 9.768 4.664 10.8 5.192C11.832 5.72 12.636 6.452 13.212 7.388C13.788 8.324 14.076 9.428 14.076 10.7C14.076 11.96 13.788 13.064 13.212 14.012C12.636 14.948 11.832 15.68 10.8 16.208C9.768 16.736 8.568 17 7.2 17H1.692ZM4.032 15.02H7.092C8.04 15.02 8.856 14.84 9.54 14.48C10.236 14.12 10.77 13.616 11.142 12.968C11.526 12.32 11.718 11.564 11.718 10.7C11.718 9.824 11.526 9.068 11.142 8.432C10.77 7.784 10.236 7.28 9.54 6.92C8.856 6.56 8.04 6.38 7.092 6.38H4.032V15.02ZM22.2691 17V15.056L22.1431 14.642V11.24C22.1431 10.58 21.9451 10.07 21.5491 9.71C21.1531 9.338 20.5531 9.152 19.7491 9.152C19.2091 9.152 18.6751 9.236 18.1471 9.404C17.6311 9.572 17.1931 9.806 16.8331 10.106L15.9511 8.468C16.4671 8.072 17.0791 7.778 17.7871 7.586C18.5071 7.382 19.2511 7.28 20.0191 7.28C21.4111 7.28 22.4851 7.616 23.2411 8.288C24.0091 8.948 24.3931 9.974 24.3931 11.366V17H22.2691ZM19.2451 17.126C18.5251 17.126 17.8951 17.006 17.3551 16.766C16.8151 16.514 16.3951 16.172 16.0951 15.74C15.8071 15.296 15.6631 14.798 15.6631 14.246C15.6631 13.706 15.7891 13.22 16.0411 12.788C16.3051 12.356 16.7311 12.014 17.3191 11.762C17.9071 11.51 18.6871 11.384 19.6591 11.384H22.4491V12.878H19.8211C19.0531 12.878 18.5371 13.004 18.2731 13.256C18.0091 13.496 17.8771 13.796 17.8771 14.156C17.8771 14.564 18.0391 14.888 18.3631 15.128C18.6871 15.368 19.1371 15.488 19.7131 15.488C20.2651 15.488 20.7571 15.362 21.1891 15.11C21.6331 14.858 21.9511 14.486 22.1431 13.994L22.5211 15.344C22.3051 15.908 21.9151 16.346 21.3511 16.658C20.7991 16.97 20.0971 17.126 19.2451 17.126ZM30.8987 17.126C29.8427 17.126 29.0267 16.856 28.4507 16.316C27.8747 15.764 27.5867 14.954 27.5867 13.886V5.264H29.8367V13.832C29.8367 14.288 29.9507 14.642 30.1787 14.894C30.4187 15.146 30.7487 15.272 31.1687 15.272C31.6727 15.272 32.0927 15.14 32.4287 14.876L33.0587 16.478C32.7947 16.694 32.4707 16.856 32.0867 16.964C31.7027 17.072 31.3067 17.126 30.8987 17.126ZM26.0027 9.26V7.46H32.4107V9.26H26.0027ZM40.8316 17V15.056L40.7056 14.642V11.24C40.7056 10.58 40.5076 10.07 40.1116 9.71C39.7156 9.338 39.1156 9.152 38.3116 9.152C37.7716 9.152 37.2376 9.236 36.7096 9.404C36.1936 9.572 35.7556 9.806 35.3956 10.106L34.5136 8.468C35.0296 8.072 35.6416 7.778 36.3496 7.586C37.0696 7.382 37.8136 7.28 38.5816 7.28C39.9736 7.28 41.0476 7.616 41.8036 8.288C42.5716 8.948 42.9556 9.974 42.9556 11.366V17H40.8316ZM37.8076 17.126C37.0876 17.126 36.4576 17.006 35.9176 16.766C35.3776 16.514 34.9576 16.172 34.6576 15.74C34.3696 15.296 34.2256 14.798 34.2256 14.246C34.2256 13.706 34.3516 13.22 34.6036 12.788C34.8676 12.356 35.2936 12.014 35.8816 11.762C36.4696 11.51 37.2496 11.384 38.2216 11.384H41.0116V12.878H38.3836C37.6156 12.878 37.0996 13.004 36.8356 13.256C36.5716 13.496 36.4396 13.796 36.4396 14.156C36.4396 14.564 36.6016 14.888 36.9256 15.128C37.2496 15.368 37.6996 15.488 38.2756 15.488C38.8276 15.488 39.3196 15.362 39.7516 15.11C40.1956 14.858 40.5136 14.486 40.7056 13.994L41.0836 15.344C40.8676 15.908 40.4776 16.346 39.9136 16.658C39.3616 16.97 38.6596 17.126 37.8076 17.126ZM46.5632 10.268C46.1552 10.268 45.8072 10.13 45.5192 9.854C45.2312 9.566 45.0872 9.206 45.0872 8.774C45.0872 8.318 45.2312 7.958 45.5192 7.694C45.8072 7.418 46.1552 7.28 46.5632 7.28C46.9712 7.28 47.3192 7.418 47.6072 7.694C47.8952 7.958 48.0392 8.318 48.0392 8.774C48.0392 9.206 47.8952 9.566 47.6072 9.854C47.3192 10.13 46.9712 10.268 46.5632 10.268ZM46.5632 17.126C46.1552 17.126 45.8072 16.988 45.5192 16.712C45.2312 16.424 45.0872 16.064 45.0872 15.632C45.0872 15.176 45.2312 14.816 45.5192 14.552C45.8072 14.276 46.1552 14.138 46.5632 14.138C46.9712 14.138 47.3192 14.276 47.6072 14.552C47.8952 14.816 48.0392 15.176 48.0392 15.632C48.0392 16.064 47.8952 16.424 47.6072 16.712C47.3192 16.988 46.9712 17.126 46.5632 17.126Z" fill="#EFA570"/>
<path d="M72.704 17.14C71.9293 17.14 71.2293 16.944 70.604 16.552C69.988 16.16 69.5027 15.5907 69.148 14.844C68.7933 14.088 68.616 13.1733 68.616 12.1C68.616 11.0267 68.7933 10.1167 69.148 9.37C69.5027 8.614 69.988 8.04 70.604 7.648C71.2293 7.256 71.9293 7.06 72.704 7.06C73.488 7.06 74.188 7.256 74.804 7.648C75.42 8.04 75.9053 8.614 76.26 9.37C76.624 10.1167 76.806 11.0267 76.806 12.1C76.806 13.1733 76.624 14.088 76.26 14.844C75.9053 15.5907 75.42 16.16 74.804 16.552C74.188 16.944 73.488 17.14 72.704 17.14ZM72.704 15.558C73.1613 15.558 73.558 15.4367 73.894 15.194C74.23 14.942 74.4913 14.5593 74.678 14.046C74.874 13.5327 74.972 12.884 74.972 12.1C74.972 11.3067 74.874 10.658 74.678 10.154C74.4913 9.64067 74.23 9.26267 73.894 9.02C73.558 8.768 73.1613 8.642 72.704 8.642C72.2653 8.642 71.8733 8.768 71.528 9.02C71.192 9.26267 70.926 9.64067 70.73 10.154C70.5433 10.658 70.45 11.3067 70.45 12.1C70.45 12.884 70.5433 13.5327 70.73 14.046C70.926 14.5593 71.192 14.942 71.528 15.194C71.8733 15.4367 72.2653 15.558 72.704 15.558ZM77.8959 14.774V13.514L82.7259 7.2H84.6719L79.9119 13.514L79.0019 13.234H86.7719V14.774H77.8959ZM83.2719 17V14.774L83.3279 13.234V11.26H85.0359V17H83.2719ZM86.8573 18.4L91.4773 5.212H93.0453L88.4253 18.4H86.8573ZM96.9032 17.14C96.1286 17.14 95.4286 16.944 94.8032 16.552C94.1872 16.16 93.7019 15.5907 93.3472 14.844C92.9926 14.088 92.8152 13.1733 92.8152 12.1C92.8152 11.0267 92.9926 10.1167 93.3472 9.37C93.7019 8.614 94.1872 8.04 94.8032 7.648C95.4286 7.256 96.1286 7.06 96.9032 7.06C97.6872 7.06 98.3872 7.256 99.0032 7.648C99.6192 8.04 100.105 8.614 100.459 9.37C100.823 10.1167 101.005 11.0267 101.005 12.1C101.005 13.1733 100.823 14.088 100.459 14.844C100.105 15.5907 99.6192 16.16 99.0032 16.552C98.3872 16.944 97.6872 17.14 96.9032 17.14ZM96.9032 15.558C97.3606 15.558 97.7572 15.4367 98.0932 15.194C98.4292 14.942 98.6906 14.5593 98.8772 14.046C99.0732 13.5327 99.1712 12.884 99.1712 12.1C99.1712 11.3067 99.0732 10.658 98.8772 10.154C98.6906 9.64067 98.4292 9.26267 98.0932 9.02C97.7572 8.768 97.3606 8.642 96.9032 8.642C96.4646 8.642 96.0726 8.768 95.7272 9.02C95.3912 9.26267 95.1252 9.64067 94.9292 10.154C94.7426 10.658 94.6492 11.3067 94.6492 12.1C94.6492 12.884 94.7426 13.5327 94.9292 14.046C95.1252 14.5593 95.3912 14.942 95.7272 15.194C96.0726 15.4367 96.4646 15.558 96.9032 15.558ZM106.477 17.14C105.59 17.14 104.83 16.9533 104.195 16.58C103.56 16.1973 103.075 15.6467 102.739 14.928C102.403 14.2093 102.235 13.3227 102.235 12.268C102.235 11.148 102.436 10.2007 102.837 9.426C103.248 8.65133 103.812 8.06333 104.531 7.662C105.259 7.26067 106.094 7.06 107.037 7.06C107.532 7.06 108.003 7.11133 108.451 7.214C108.908 7.31667 109.296 7.47533 109.613 7.69L108.941 9.062C108.67 8.88467 108.376 8.76333 108.059 8.698C107.751 8.62333 107.424 8.586 107.079 8.586C106.155 8.586 105.422 8.87067 104.881 9.44C104.34 10.0093 104.069 10.8493 104.069 11.96C104.069 12.1373 104.074 12.3473 104.083 12.59C104.092 12.8233 104.125 13.0613 104.181 13.304L103.621 12.688C103.789 12.3053 104.018 11.988 104.307 11.736C104.606 11.4747 104.956 11.2787 105.357 11.148C105.768 11.0173 106.211 10.952 106.687 10.952C107.331 10.952 107.905 11.078 108.409 11.33C108.913 11.5727 109.314 11.9227 109.613 12.38C109.912 12.828 110.061 13.3553 110.061 13.962C110.061 14.606 109.902 15.166 109.585 15.642C109.268 16.118 108.838 16.4867 108.297 16.748C107.756 17.0093 107.149 17.14 106.477 17.14ZM106.379 15.712C106.752 15.712 107.084 15.6467 107.373 15.516C107.662 15.376 107.886 15.18 108.045 14.928C108.213 14.676 108.297 14.382 108.297 14.046C108.297 13.5327 108.12 13.1267 107.765 12.828C107.41 12.5293 106.934 12.38 106.337 12.38C105.945 12.38 105.6 12.4547 105.301 12.604C105.012 12.744 104.778 12.94 104.601 13.192C104.433 13.444 104.349 13.7333 104.349 14.06C104.349 14.3587 104.428 14.634 104.587 14.886C104.746 15.138 104.974 15.3387 105.273 15.488C105.581 15.6373 105.95 15.712 106.379 15.712ZM110.113 18.4L114.733 5.212H116.301L111.681 18.4H110.113ZM116.219 17V15.782L120.111 12.086C120.437 11.778 120.68 11.5073 120.839 11.274C120.997 11.0407 121.1 10.826 121.147 10.63C121.203 10.4247 121.231 10.2333 121.231 10.056C121.231 9.608 121.077 9.26267 120.769 9.02C120.461 8.768 120.008 8.642 119.411 8.642C118.935 8.642 118.501 8.726 118.109 8.894C117.726 9.062 117.395 9.31867 117.115 9.664L115.841 8.684C116.223 8.17067 116.737 7.774 117.381 7.494C118.034 7.20467 118.762 7.06 119.565 7.06C120.274 7.06 120.89 7.17667 121.413 7.41C121.945 7.634 122.351 7.956 122.631 8.376C122.92 8.796 123.065 9.29533 123.065 9.874C123.065 10.1913 123.023 10.5087 122.939 10.826C122.855 11.134 122.696 11.4607 122.463 11.806C122.229 12.1513 121.889 12.5387 121.441 12.968L118.095 16.146L117.717 15.46H123.443V17H116.219ZM128.581 17.14C127.806 17.14 127.106 16.944 126.481 16.552C125.865 16.16 125.38 15.5907 125.025 14.844C124.67 14.088 124.493 13.1733 124.493 12.1C124.493 11.0267 124.67 10.1167 125.025 9.37C125.38 8.614 125.865 8.04 126.481 7.648C127.106 7.256 127.806 7.06 128.581 7.06C129.365 7.06 130.065 7.256 130.681 7.648C131.297 8.04 131.782 8.614 132.137 9.37C132.501 10.1167 132.683 11.0267 132.683 12.1C132.683 13.1733 132.501 14.088 132.137 14.844C131.782 15.5907 131.297 16.16 130.681 16.552C130.065 16.944 129.365 17.14 128.581 17.14ZM128.581 15.558C129.038 15.558 129.435 15.4367 129.771 15.194C130.107 14.942 130.368 14.5593 130.555 14.046C130.751 13.5327 130.849 12.884 130.849 12.1C130.849 11.3067 130.751 10.658 130.555 10.154C130.368 9.64067 130.107 9.26267 129.771 9.02C129.435 8.768 129.038 8.642 128.581 8.642C128.142 8.642 127.75 8.768 127.405 9.02C127.069 9.26267 126.803 9.64067 126.607 10.154C126.42 10.658 126.327 11.3067 126.327 12.1C126.327 12.884 126.42 13.5327 126.607 14.046C126.803 14.5593 127.069 14.942 127.405 15.194C127.75 15.4367 128.142 15.558 128.581 15.558ZM133.773 17V15.782L137.665 12.086C137.992 11.778 138.235 11.5073 138.393 11.274C138.552 11.0407 138.655 10.826 138.701 10.63C138.757 10.4247 138.785 10.2333 138.785 10.056C138.785 9.608 138.631 9.26267 138.323 9.02C138.015 8.768 137.563 8.642 136.965 8.642C136.489 8.642 136.055 8.726 135.663 8.894C135.281 9.062 134.949 9.31867 134.669 9.664L133.395 8.684C133.778 8.17067 134.291 7.774 134.935 7.494C135.589 7.20467 136.317 7.06 137.119 7.06C137.829 7.06 138.445 7.17667 138.967 7.41C139.499 7.634 139.905 7.956 140.185 8.376C140.475 8.796 140.619 9.29533 140.619 9.874C140.619 10.1913 140.577 10.5087 140.493 10.826C140.409 11.134 140.251 11.4607 140.017 11.806C139.784 12.1513 139.443 12.5387 138.995 12.968L135.649 16.146L135.271 15.46H140.997V17H133.773ZM141.703 14.774V13.514L146.533 7.2H148.479L143.719 13.514L142.809 13.234H150.579V14.774H141.703ZM147.079 17V14.774L147.135 13.234V11.26H148.843V17H147.079Z" fill="#504C4C"/>
</svg>
