<svg width="72" height="72" viewBox="0 0 72 72" fill="none" xmlns="http://www.w3.org/2000/svg">
<path d="M33.5511 64.6217H9.94737C8.10481 64.6217 6.33772 63.9054 5.03484 62.6303C3.73195 61.3552 3 59.6258 3 57.8225V17.0273C3 15.224 3.73195 13.4946 5.03484 12.2195C6.33772 10.9444 8.10481 10.2281 9.94737 10.2281H51.6316C53.4741 10.2281 55.2412 10.9444 56.5441 12.2195C57.847 13.4946 58.5789 15.224 58.5789 17.0273V30.6257" stroke="#F5F5F5" stroke-width="6" stroke-linecap="round" stroke-linejoin="round"/>
<path d="M44.6842 3.42889V17.0273M16.8947 3.42889V17.0273M3 30.6257H58.5789M41.2105 54.4229C41.2105 58.0294 42.6744 61.4882 45.2802 64.0384C47.886 66.5886 51.4202 68.0213 55.1053 68.0213C58.7904 68.0213 62.3246 66.5886 64.9303 64.0384C67.5361 61.4882 69 58.0294 69 54.4229C69 50.8164 67.5361 47.3576 64.9303 44.8074C62.3246 42.2572 58.7904 40.8245 55.1053 40.8245C51.4202 40.8245 47.886 42.2572 45.2802 44.8074C42.6744 47.3576 41.2105 50.8164 41.2105 54.4229Z" stroke="#F5F5F5" stroke-width="6" stroke-linecap="round" stroke-linejoin="round"/>
<path d="M55.1052 49.3099V54.4229L58.5789 57.8225" stroke="#F5F5F5" stroke-width="6" stroke-linecap="round" stroke-linejoin="round"/>
</svg>
