<svg width="66" height="62" viewBox="0 0 66 62" fill="none" xmlns="http://www.w3.org/2000/svg">
<path d="M23.2939 0.428894H38.8231V15.5983H23.2939V0.428894ZM0 45.9372H15.5293V61.1066H0V45.9372ZM0 23.183H15.5293V38.3525H0V23.183ZM0 0.428894H15.5293V15.5983H0V0.428894ZM38.8231 32.3605V23.183H23.2939V38.3525H32.6891L38.8231 32.3605ZM65.5335 28.0752L60.9911 23.6381C60.8433 23.4936 60.6678 23.379 60.4746 23.3008C60.2814 23.2226 60.0744 23.1824 59.8653 23.1824C59.6562 23.1824 59.4491 23.2226 59.2559 23.3008C59.0627 23.379 58.8872 23.4936 58.7394 23.6381L55.323 26.9754L62.117 33.612L65.5335 30.2747C65.6814 30.1304 65.7987 29.9589 65.8787 29.7702C65.9588 29.5815 66 29.3792 66 29.175C66 28.9707 65.9588 28.7684 65.8787 28.5797C65.7987 28.391 65.6814 28.2196 65.5335 28.0752ZM27.1762 54.47V61.1066H33.9702L59.8653 35.8116L53.0712 29.175L27.1762 54.47ZM46.5878 0.428894H62.117V15.5983H46.5878V0.428894Z" fill="#F5F5F5"/>
</svg>
