<svg width="34" height="30" viewBox="0 0 34 30" fill="none" xmlns="http://www.w3.org/2000/svg">
<path fill-rule="evenodd" clip-rule="evenodd" d="M0 10.6967C0 10.1405 0.223883 9.60704 0.622398 9.21374C1.02091 8.82045 1.56141 8.5995 2.125 8.5995H24.0295C24.5931 8.5995 25.1336 8.82045 25.5321 9.21374C25.9306 9.60704 26.1545 10.1405 26.1545 10.6967C26.1545 11.2529 25.9306 11.7863 25.5321 12.1796C25.1336 12.5729 24.5931 12.7938 24.0295 12.7938H2.125C1.56141 12.7938 1.02091 12.5729 0.622398 12.1796C0.223883 11.7863 0 11.2529 0 10.6967ZM0 2.30803C0 1.75183 0.223883 1.21841 0.622398 0.825119C1.02091 0.431826 1.56141 0.210876 2.125 0.210876H31.875C32.4386 0.210876 32.9791 0.431826 33.3776 0.825119C33.7761 1.21841 34 1.75183 34 2.30803C34 2.86423 33.7761 3.39765 33.3776 3.79095C32.9791 4.18424 32.4386 4.40519 31.875 4.40519H2.125C1.56141 4.40519 1.02091 4.18424 0.622398 3.79095C0.223883 3.39765 0 2.86423 0 2.30803ZM0 19.0853C0 18.5291 0.223883 17.9957 0.622398 17.6024C1.02091 17.2091 1.56141 16.9881 2.125 16.9881H31.875C32.4386 16.9881 32.9791 17.2091 33.3776 17.6024C33.7761 17.9957 34 18.5291 34 19.0853C34 19.6415 33.7761 20.1749 33.3776 20.5682C32.9791 20.9615 32.4386 21.1824 31.875 21.1824H2.125C1.56141 21.1824 1.02091 20.9615 0.622398 20.5682C0.223883 20.1749 0 19.6415 0 19.0853ZM0 27.4739C0 26.9177 0.223883 26.3843 0.622398 25.991C1.02091 25.5977 1.56141 25.3768 2.125 25.3768H24.0295C24.5931 25.3768 25.1336 25.5977 25.5321 25.991C25.9306 26.3843 26.1545 26.9177 26.1545 27.4739C26.1545 28.0301 25.9306 28.5635 25.5321 28.9568C25.1336 29.3501 24.5931 29.5711 24.0295 29.5711H2.125C1.56141 29.5711 1.02091 29.3501 0.622398 28.9568C0.223883 28.5635 0 28.0301 0 27.4739Z" fill="#F5F5F5"/>
</svg>
