<svg width="26" height="32" viewBox="0 0 26 32" fill="none" xmlns="http://www.w3.org/2000/svg">
<path d="M3.50004 31.0833C2.62921 31.0833 1.88398 30.798 1.26437 30.2273C0.644763 29.6566 0.33443 28.9697 0.333374 28.1667V13.5833C0.333374 12.7813 0.643707 12.0949 1.26437 11.5242C1.88504 10.9535 2.63026 10.6676 3.50004 10.6667H5.08337V7.75001C5.08337 5.73265 5.85551 4.01327 7.39979 2.59189C8.94407 1.1705 10.8108 0.459317 13 0.458345C15.1893 0.457372 17.0565 1.16855 18.6019 2.59189C20.1472 4.01522 20.9188 5.73459 20.9167 7.75001V10.6667H22.5C23.3709 10.6667 24.1166 10.9525 24.7373 11.5242C25.358 12.0958 25.6678 12.7822 25.6667 13.5833V28.1667C25.6667 28.9688 25.3569 29.6556 24.7373 30.2273C24.1177 30.799 23.3719 31.0843 22.5 31.0833H3.50004ZM13 23.7917C13.8709 23.7917 14.6166 23.5063 15.2373 22.9356C15.858 22.3649 16.1678 21.6781 16.1667 20.875C16.1657 20.072 15.8558 19.3856 15.2373 18.8158C14.6187 18.2461 13.873 17.9603 13 17.9583C12.1271 17.9564 11.3819 18.2422 10.7644 18.8158C10.1469 19.3895 9.83654 20.0758 9.83337 20.875C9.83021 21.6742 10.1405 22.3611 10.7644 22.9356C11.3882 23.5102 12.1334 23.7956 13 23.7917ZM8.25004 10.6667H17.75V7.75001C17.75 6.53473 17.2882 5.50175 16.3646 4.65105C15.441 3.80036 14.3195 3.37501 13 3.37501C11.6806 3.37501 10.5591 3.80036 9.63546 4.65105C8.71185 5.50175 8.25004 6.53473 8.25004 7.75001V10.6667Z" fill="#709BEF"/>
</svg>
