<svg width="332" height="225" viewBox="0 0 332 225" fill="none" xmlns="http://www.w3.org/2000/svg">
<mask id="path-1-outside-1_96_190" maskUnits="userSpaceOnUse" x="10" y="0" width="84" height="225" fill="black">
<rect fill="white" x="10" width="84" height="225"/>
<path d="M10 0H93V225H10V0Z"/>
</mask>
<path d="M92 0V225H94V0H92Z" fill="#D8D4D4" mask="url(#path-1-outside-1_96_190)"/>
<mask id="path-3-outside-2_96_190" maskUnits="userSpaceOnUse" x="10" y="0" width="83" height="61" fill="black">
<rect fill="white" x="10" width="83" height="61"/>
<path d="M10 0H93V60H10V0Z"/>
</mask>
<path d="M93 59H10V61H93V59Z" fill="#D8D4D4" mask="url(#path-3-outside-2_96_190)"/>
<path d="M21.504 36V24.8H23.216L28.112 32.976H27.216L32.032 24.8H33.744L33.76 36H31.792L31.776 27.888H32.192L28.096 34.72H27.168L23.008 27.888H23.488V36H21.504ZM41.8573 36V34.272L41.7453 33.904V30.88C41.7453 30.2933 41.5693 29.84 41.2173 29.52C40.8653 29.1893 40.3319 29.024 39.6173 29.024C39.1373 29.024 38.6626 29.0987 38.1933 29.248C37.7346 29.3973 37.3453 29.6053 37.0253 29.872L36.2413 28.416C36.6999 28.064 37.2439 27.8027 37.8733 27.632C38.5133 27.4507 39.1746 27.36 39.8573 27.36C41.0946 27.36 42.0493 27.6587 42.7213 28.256C43.4039 28.8427 43.7453 29.7547 43.7453 30.992V36H41.8573ZM39.1693 36.112C38.5293 36.112 37.9693 36.0053 37.4893 35.792C37.0093 35.568 36.6359 35.264 36.3693 34.88C36.1133 34.4853 35.9853 34.0427 35.9853 33.552C35.9853 33.072 36.0973 32.64 36.3213 32.256C36.5559 31.872 36.9346 31.568 37.4573 31.344C37.9799 31.12 38.6733 31.008 39.5373 31.008H42.0173V32.336H39.6813C38.9986 32.336 38.5399 32.448 38.3053 32.672C38.0706 32.8853 37.9533 33.152 37.9533 33.472C37.9533 33.8347 38.0973 34.1227 38.3853 34.336C38.6733 34.5493 39.0733 34.656 39.5853 34.656C40.0759 34.656 40.5133 34.544 40.8973 34.32C41.2919 34.096 41.5746 33.7653 41.7453 33.328L42.0813 34.528C41.8893 35.0293 41.5426 35.4187 41.0413 35.696C40.5506 35.9733 39.9266 36.112 39.1693 36.112ZM49.528 36.112C48.5893 36.112 47.864 35.872 47.352 35.392C46.84 34.9013 46.584 34.1813 46.584 33.232V25.568H48.584V33.184C48.584 33.5893 48.6853 33.904 48.888 34.128C49.1013 34.352 49.3947 34.464 49.768 34.464C50.216 34.464 50.5893 34.3467 50.888 34.112L51.448 35.536C51.2133 35.728 50.9253 35.872 50.584 35.968C50.2427 36.064 49.8907 36.112 49.528 36.112ZM45.176 29.12V27.52H50.872V29.12H45.176ZM56.828 36.112C55.8787 36.112 55.0467 35.9253 54.332 35.552C53.628 35.168 53.0787 34.6453 52.684 33.984C52.3 33.3227 52.108 32.5707 52.108 31.728C52.108 30.8747 52.2947 30.1227 52.668 29.472C53.052 28.8107 53.5747 28.2933 54.236 27.92C54.908 27.5467 55.6707 27.36 56.524 27.36C57.356 27.36 58.0973 27.5413 58.748 27.904C59.3987 28.2667 59.9107 28.7787 60.284 29.44C60.6573 30.1013 60.844 30.88 60.844 31.776C60.844 31.8613 60.8387 31.9573 60.828 32.064C60.828 32.1707 60.8227 32.272 60.812 32.368H53.692V31.04H59.756L58.972 31.456C58.9827 30.9653 58.8813 30.5333 58.668 30.16C58.4547 29.7867 58.1613 29.4933 57.788 29.28C57.4253 29.0667 57.004 28.96 56.524 28.96C56.0333 28.96 55.6013 29.0667 55.228 29.28C54.8653 29.4933 54.5773 29.792 54.364 30.176C54.1613 30.5493 54.06 30.992 54.06 31.504V31.824C54.06 32.336 54.1773 32.7893 54.412 33.184C54.6467 33.5787 54.9773 33.8827 55.404 34.096C55.8307 34.3093 56.3213 34.416 56.876 34.416C57.356 34.416 57.788 34.3413 58.172 34.192C58.556 34.0427 58.8973 33.808 59.196 33.488L60.268 34.72C59.884 35.168 59.3987 35.5147 58.812 35.76C58.236 35.9947 57.5747 36.112 56.828 36.112ZM55.132 26.288L57.292 24.096H59.644L56.86 26.288H55.132ZM62.7651 36V27.456H64.6691V29.808L64.4451 29.12C64.7011 28.544 65.1011 28.1067 65.6451 27.808C66.1998 27.5093 66.8878 27.36 67.7091 27.36V29.264C67.6238 29.2427 67.5438 29.232 67.4691 29.232C67.3945 29.2213 67.3198 29.216 67.2451 29.216C66.4878 29.216 65.8851 29.44 65.4371 29.888C64.9891 30.3253 64.7651 30.9813 64.7651 31.856V36H62.7651ZM69.4058 36V27.456H71.4058V36H69.4058ZM70.4138 26.048C70.0404 26.048 69.7311 25.9307 69.4858 25.696C69.2511 25.4613 69.1338 25.1787 69.1338 24.848C69.1338 24.5067 69.2511 24.224 69.4858 24C69.7311 23.7653 70.0404 23.648 70.4138 23.648C70.7871 23.648 71.0911 23.76 71.3258 23.984C71.5711 24.1973 71.6938 24.4693 71.6938 24.8C71.6938 25.152 71.5764 25.4507 71.3418 25.696C71.1071 25.9307 70.7978 26.048 70.4138 26.048ZM79.2948 36V34.272L79.1828 33.904V30.88C79.1828 30.2933 79.0068 29.84 78.6548 29.52C78.3028 29.1893 77.7694 29.024 77.0548 29.024C76.5748 29.024 76.1001 29.0987 75.6308 29.248C75.1721 29.3973 74.7828 29.6053 74.4628 29.872L73.6788 28.416C74.1374 28.064 74.6814 27.8027 75.3108 27.632C75.9508 27.4507 76.6121 27.36 77.2948 27.36C78.5321 27.36 79.4868 27.6587 80.1588 28.256C80.8414 28.8427 81.1828 29.7547 81.1828 30.992V36H79.2948ZM76.6068 36.112C75.9668 36.112 75.4068 36.0053 74.9268 35.792C74.4468 35.568 74.0734 35.264 73.8068 34.88C73.5508 34.4853 73.4228 34.0427 73.4228 33.552C73.4228 33.072 73.5348 32.64 73.7588 32.256C73.9934 31.872 74.3721 31.568 74.8948 31.344C75.4174 31.12 76.1108 31.008 76.9748 31.008H79.4548V32.336H77.1188C76.4361 32.336 75.9774 32.448 75.7428 32.672C75.5081 32.8853 75.3908 33.152 75.3908 33.472C75.3908 33.8347 75.5348 34.1227 75.8228 34.336C76.1108 34.5493 76.5108 34.656 77.0228 34.656C77.5134 34.656 77.9508 34.544 78.3348 34.32C78.7294 34.096 79.0121 33.7653 79.1828 33.328L79.5188 34.528C79.3268 35.0293 78.9801 35.4187 78.4788 35.696C77.9881 35.9733 77.3641 36.112 76.6068 36.112Z" fill="#2A2828"/>
<path d="M42.76 82V73.6H43.96V82H42.76ZM45.2028 82L49.0068 73.6H50.1948L54.0108 82H52.7508L49.3548 74.272H49.8348L46.4388 82H45.2028ZM46.8228 79.9L47.1468 78.94H51.8748L52.2228 79.9H46.8228ZM55.2639 82V73.6H56.4639V80.956H61.0119V82H55.2639Z" fill="black"/>
<path d="M41.26 117V108.6H42.46V117H41.26ZM50.9988 108.6H52.1988V117H50.9988V108.6ZM46.1748 117H44.9748V108.6H46.1748V117ZM51.1068 113.256H46.0548V112.212H51.1068V113.256ZM58.4691 117.096C57.8291 117.096 57.2371 116.992 56.6931 116.784C56.1571 116.568 55.6891 116.268 55.2891 115.884C54.8971 115.492 54.5891 115.036 54.3651 114.516C54.1411 113.996 54.0291 113.424 54.0291 112.8C54.0291 112.176 54.1411 111.604 54.3651 111.084C54.5891 110.564 54.9011 110.112 55.3011 109.728C55.7011 109.336 56.1691 109.036 56.7051 108.828C57.2491 108.612 57.8411 108.504 58.4811 108.504C59.1291 108.504 59.7251 108.616 60.2691 108.84C60.8211 109.056 61.2891 109.38 61.6731 109.812L60.8931 110.568C60.5731 110.232 60.2131 109.984 59.8131 109.824C59.4131 109.656 58.9851 109.572 58.5291 109.572C58.0571 109.572 57.6171 109.652 57.2091 109.812C56.8091 109.972 56.4611 110.196 56.1651 110.484C55.8691 110.772 55.6371 111.116 55.4691 111.516C55.3091 111.908 55.2291 112.336 55.2291 112.8C55.2291 113.264 55.3091 113.696 55.4691 114.096C55.6371 114.488 55.8691 114.828 56.1651 115.116C56.4611 115.404 56.8091 115.628 57.2091 115.788C57.6171 115.948 58.0571 116.028 58.5291 116.028C58.9851 116.028 59.4131 115.948 59.8131 115.788C60.2131 115.62 60.5731 115.364 60.8931 115.02L61.6731 115.776C61.2891 116.208 60.8211 116.536 60.2691 116.76C59.7251 116.984 59.1251 117.096 58.4691 117.096Z" fill="black"/>
<path d="M42.76 152V143.6H43.96V152H42.76ZM46.4748 152V143.6H47.6748V150.956H52.2228V152H46.4748ZM53.5998 152V143.6H56.8758C57.6118 143.6 58.2398 143.716 58.7598 143.948C59.2798 144.18 59.6798 144.516 59.9598 144.956C60.2398 145.396 60.3798 145.92 60.3798 146.528C60.3798 147.136 60.2398 147.66 59.9598 148.1C59.6798 148.532 59.2798 148.868 58.7598 149.108C58.2398 149.34 57.6118 149.456 56.8758 149.456H54.2598L54.7998 148.892V152H53.5998ZM54.7998 149.012L54.2598 148.412H56.8398C57.6078 148.412 58.1878 148.248 58.5798 147.92C58.9798 147.592 59.1798 147.128 59.1798 146.528C59.1798 145.928 58.9798 145.464 58.5798 145.136C58.1878 144.808 57.6078 144.644 56.8398 144.644H54.2598L54.7998 144.044V149.012Z" fill="black"/>
<path d="M41.26 187V178.6H42.46V187H41.26ZM44.9748 187V178.6H45.9588L51.5148 185.5H50.9988V178.6H52.1988V187H51.2148L45.6588 180.1H46.1748V187H44.9748ZM58.5051 187.096C57.8571 187.096 57.2611 186.992 56.7171 186.784C56.1731 186.568 55.7011 186.268 55.3011 185.884C54.9011 185.492 54.5891 185.036 54.3651 184.516C54.1411 183.996 54.0291 183.424 54.0291 182.8C54.0291 182.176 54.1411 181.604 54.3651 181.084C54.5891 180.564 54.9011 180.112 55.3011 179.728C55.7091 179.336 56.1851 179.036 56.7291 178.828C57.2731 178.612 57.8731 178.504 58.5291 178.504C59.1931 178.504 59.8011 178.612 60.3531 178.828C60.9051 179.044 61.3731 179.368 61.7571 179.8L61.0131 180.544C60.6691 180.208 60.2931 179.964 59.8851 179.812C59.4851 179.652 59.0491 179.572 58.5771 179.572C58.0971 179.572 57.6491 179.652 57.2331 179.812C56.8251 179.972 56.4691 180.196 56.1651 180.484C55.8691 180.772 55.6371 181.116 55.4691 181.516C55.3091 181.908 55.2291 182.336 55.2291 182.8C55.2291 183.256 55.3091 183.684 55.4691 184.084C55.6371 184.476 55.8691 184.82 56.1651 185.116C56.4691 185.404 56.8251 185.628 57.2331 185.788C57.6411 185.948 58.0851 186.028 58.5651 186.028C59.0131 186.028 59.4411 185.96 59.8491 185.824C60.2651 185.68 60.6491 185.444 61.0011 185.116L61.6851 186.028C61.2691 186.38 60.7811 186.648 60.2211 186.832C59.6691 187.008 59.0971 187.096 58.5051 187.096ZM60.5331 185.872V182.752H61.6851V186.028L60.5331 185.872Z" fill="black"/>
<path d="M42.26 222V213.6H43.46V222H42.26ZM47.0668 217.224H51.3868V218.244H47.0668V217.224ZM47.1748 220.956H52.0708V222H45.9748V213.6H51.9028V214.644H47.1748V220.956ZM57.7582 222.096C57.1182 222.096 56.5262 221.992 55.9822 221.784C55.4462 221.568 54.9782 221.268 54.5782 220.884C54.1862 220.492 53.8782 220.036 53.6542 219.516C53.4302 218.996 53.3182 218.424 53.3182 217.8C53.3182 217.176 53.4302 216.604 53.6542 216.084C53.8782 215.564 54.1902 215.112 54.5902 214.728C54.9902 214.336 55.4582 214.036 55.9942 213.828C56.5382 213.612 57.1302 213.504 57.7702 213.504C58.4182 213.504 59.0142 213.616 59.5582 213.84C60.1102 214.056 60.5782 214.38 60.9622 214.812L60.1822 215.568C59.8622 215.232 59.5022 214.984 59.1022 214.824C58.7022 214.656 58.2742 214.572 57.8182 214.572C57.3462 214.572 56.9062 214.652 56.4982 214.812C56.0982 214.972 55.7502 215.196 55.4542 215.484C55.1582 215.772 54.9262 216.116 54.7582 216.516C54.5982 216.908 54.5182 217.336 54.5182 217.8C54.5182 218.264 54.5982 218.696 54.7582 219.096C54.9262 219.488 55.1582 219.828 55.4542 220.116C55.7502 220.404 56.0982 220.628 56.4982 220.788C56.9062 220.948 57.3462 221.028 57.8182 221.028C58.2742 221.028 58.7022 220.948 59.1022 220.788C59.5022 220.62 59.8622 220.364 60.1822 220.02L60.9622 220.776C60.5782 221.208 60.1102 221.536 59.5582 221.76C59.0142 221.984 58.4142 222.096 57.7582 222.096Z" fill="black"/>
<mask id="path-11-outside-3_96_190" maskUnits="userSpaceOnUse" x="93" y="0" width="106" height="225" fill="black">
<rect fill="white" x="93" width="106" height="225"/>
<path d="M93 0H198V225H93V0Z"/>
</mask>
<path d="M197 0V225H199V0H197Z" fill="#D8D4D4" mask="url(#path-11-outside-3_96_190)"/>
<mask id="path-13-outside-4_96_190" maskUnits="userSpaceOnUse" x="93" y="0" width="105" height="61" fill="black">
<rect fill="white" x="93" width="105" height="61"/>
<path d="M93 0H198V60H93V0Z"/>
</mask>
<path d="M198 59H93V61H198V59Z" fill="#D8D4D4" mask="url(#path-13-outside-4_96_190)"/>
<path d="M104.504 36V24.8H109.112C110.104 24.8 110.952 24.96 111.656 25.28C112.371 25.6 112.92 26.0587 113.304 26.656C113.688 27.2533 113.88 27.9627 113.88 28.784C113.88 29.6053 113.688 30.3147 113.304 30.912C112.92 31.5093 112.371 31.968 111.656 32.288C110.952 32.608 110.104 32.768 109.112 32.768H105.656L106.584 31.792V36H104.504ZM106.584 32.016L105.656 31.008H109.016C109.933 31.008 110.621 30.816 111.08 30.432C111.549 30.0373 111.784 29.488 111.784 28.784C111.784 28.0693 111.549 27.52 111.08 27.136C110.621 26.752 109.933 26.56 109.016 26.56H105.656L106.584 25.536V32.016ZM115.687 36V27.456H117.591V29.808L117.367 29.12C117.623 28.544 118.023 28.1067 118.567 27.808C119.122 27.5093 119.81 27.36 120.631 27.36V29.264C120.546 29.2427 120.466 29.232 120.391 29.232C120.316 29.2213 120.242 29.216 120.167 29.216C119.41 29.216 118.807 29.44 118.359 29.888C117.911 30.3253 117.687 30.9813 117.687 31.856V36H115.687ZM126.266 36.112C125.316 36.112 124.484 35.9253 123.77 35.552C123.066 35.168 122.516 34.6453 122.122 33.984C121.738 33.3227 121.546 32.5707 121.546 31.728C121.546 30.8747 121.732 30.1227 122.106 29.472C122.49 28.8107 123.012 28.2933 123.674 27.92C124.346 27.5467 125.108 27.36 125.962 27.36C126.794 27.36 127.535 27.5413 128.186 27.904C128.836 28.2667 129.348 28.7787 129.722 29.44C130.095 30.1013 130.282 30.88 130.282 31.776C130.282 31.8613 130.276 31.9573 130.266 32.064C130.266 32.1707 130.26 32.272 130.25 32.368H123.13V31.04H129.194L128.41 31.456C128.42 30.9653 128.319 30.5333 128.106 30.16C127.892 29.7867 127.599 29.4933 127.226 29.28C126.863 29.0667 126.442 28.96 125.962 28.96C125.471 28.96 125.039 29.0667 124.666 29.28C124.303 29.4933 124.015 29.792 123.802 30.176C123.599 30.5493 123.498 30.992 123.498 31.504V31.824C123.498 32.336 123.615 32.7893 123.85 33.184C124.084 33.5787 124.415 33.8827 124.842 34.096C125.268 34.3093 125.759 34.416 126.314 34.416C126.794 34.416 127.226 34.3413 127.61 34.192C127.994 34.0427 128.335 33.808 128.634 33.488L129.706 34.72C129.322 35.168 128.836 35.5147 128.25 35.76C127.674 35.9947 127.012 36.112 126.266 36.112ZM134.843 36.112C134.128 36.112 133.44 36.0213 132.779 35.84C132.128 35.648 131.611 35.4187 131.227 35.152L131.995 33.632C132.379 33.8773 132.837 34.08 133.371 34.24C133.904 34.4 134.437 34.48 134.971 34.48C135.6 34.48 136.053 34.3947 136.331 34.224C136.619 34.0533 136.763 33.824 136.763 33.536C136.763 33.3013 136.667 33.1253 136.475 33.008C136.283 32.88 136.032 32.784 135.723 32.72C135.413 32.656 135.067 32.5973 134.683 32.544C134.309 32.4907 133.931 32.4213 133.547 32.336C133.173 32.24 132.832 32.1067 132.523 31.936C132.213 31.7547 131.963 31.5147 131.771 31.216C131.579 30.9173 131.483 30.5227 131.483 30.032C131.483 29.488 131.637 29.0187 131.947 28.624C132.256 28.2187 132.688 27.9093 133.243 27.696C133.808 27.472 134.475 27.36 135.243 27.36C135.819 27.36 136.4 27.424 136.987 27.552C137.573 27.68 138.059 27.8613 138.443 28.096L137.675 29.616C137.269 29.3707 136.859 29.2053 136.443 29.12C136.037 29.024 135.632 28.976 135.227 28.976C134.619 28.976 134.165 29.0667 133.867 29.248C133.579 29.4293 133.435 29.6587 133.435 29.936C133.435 30.192 133.531 30.384 133.723 30.512C133.915 30.64 134.165 30.7413 134.475 30.816C134.784 30.8907 135.125 30.9547 135.499 31.008C135.883 31.0507 136.261 31.12 136.635 31.216C137.008 31.312 137.349 31.4453 137.659 31.616C137.979 31.776 138.235 32.0053 138.427 32.304C138.619 32.6027 138.715 32.992 138.715 33.472C138.715 34.0053 138.555 34.4693 138.235 34.864C137.925 35.2587 137.483 35.568 136.907 35.792C136.331 36.0053 135.643 36.112 134.843 36.112ZM144.453 36.112C143.504 36.112 142.672 35.9253 141.957 35.552C141.253 35.168 140.704 34.6453 140.309 33.984C139.925 33.3227 139.733 32.5707 139.733 31.728C139.733 30.8747 139.92 30.1227 140.293 29.472C140.677 28.8107 141.2 28.2933 141.861 27.92C142.533 27.5467 143.296 27.36 144.149 27.36C144.981 27.36 145.722 27.5413 146.373 27.904C147.024 28.2667 147.536 28.7787 147.909 29.44C148.282 30.1013 148.469 30.88 148.469 31.776C148.469 31.8613 148.464 31.9573 148.453 32.064C148.453 32.1707 148.448 32.272 148.437 32.368H141.317V31.04H147.381L146.597 31.456C146.608 30.9653 146.506 30.5333 146.293 30.16C146.08 29.7867 145.786 29.4933 145.413 29.28C145.05 29.0667 144.629 28.96 144.149 28.96C143.658 28.96 143.226 29.0667 142.853 29.28C142.49 29.4933 142.202 29.792 141.989 30.176C141.786 30.5493 141.685 30.992 141.685 31.504V31.824C141.685 32.336 141.802 32.7893 142.037 33.184C142.272 33.5787 142.602 33.8827 143.029 34.096C143.456 34.3093 143.946 34.416 144.501 34.416C144.981 34.416 145.413 34.3413 145.797 34.192C146.181 34.0427 146.522 33.808 146.821 33.488L147.893 34.72C147.509 35.168 147.024 35.5147 146.437 35.76C145.861 35.9947 145.2 36.112 144.453 36.112ZM155.238 27.36C155.921 27.36 156.529 27.4933 157.062 27.76C157.606 28.0267 158.033 28.4373 158.342 28.992C158.651 29.536 158.806 30.24 158.806 31.104V36H156.806V31.36C156.806 30.6027 156.625 30.0373 156.262 29.664C155.91 29.2907 155.414 29.104 154.774 29.104C154.305 29.104 153.889 29.2 153.526 29.392C153.163 29.584 152.881 29.872 152.678 30.256C152.486 30.6293 152.39 31.104 152.39 31.68V36H150.39V27.456H152.294V29.76L151.958 29.056C152.257 28.512 152.689 28.096 153.254 27.808C153.83 27.5093 154.491 27.36 155.238 27.36ZM165.279 36.112C164.383 36.112 163.583 35.9253 162.879 35.552C162.186 35.168 161.642 34.6453 161.247 33.984C160.852 33.3227 160.655 32.5707 160.655 31.728C160.655 30.8747 160.852 30.1227 161.247 29.472C161.642 28.8107 162.186 28.2933 162.879 27.92C163.583 27.5467 164.383 27.36 165.279 27.36C166.111 27.36 166.842 27.5307 167.471 27.872C168.111 28.2027 168.596 28.6933 168.927 29.344L167.391 30.24C167.135 29.8347 166.82 29.536 166.447 29.344C166.084 29.152 165.69 29.056 165.263 29.056C164.772 29.056 164.33 29.1627 163.935 29.376C163.54 29.5893 163.231 29.8987 163.007 30.304C162.783 30.6987 162.671 31.1733 162.671 31.728C162.671 32.2827 162.783 32.7627 163.007 33.168C163.231 33.5627 163.54 33.8667 163.935 34.08C164.33 34.2933 164.772 34.4 165.263 34.4C165.69 34.4 166.084 34.304 166.447 34.112C166.82 33.92 167.135 33.6213 167.391 33.216L168.927 34.112C168.596 34.752 168.111 35.248 167.471 35.6C166.842 35.9413 166.111 36.112 165.279 36.112ZM164.447 39.648C164.159 39.648 163.892 39.616 163.647 39.552C163.402 39.4987 163.178 39.4187 162.975 39.312L163.343 38.368C163.514 38.4533 163.684 38.5173 163.855 38.56C164.036 38.6027 164.228 38.624 164.431 38.624C164.74 38.624 164.959 38.5707 165.087 38.464C165.215 38.3573 165.279 38.2187 165.279 38.048C165.279 37.888 165.21 37.76 165.071 37.664C164.943 37.568 164.73 37.52 164.431 37.52H163.935L164.367 35.888H165.455L165.231 36.784C165.7 36.8373 166.047 36.9867 166.271 37.232C166.506 37.488 166.623 37.7867 166.623 38.128C166.623 38.5973 166.426 38.9653 166.031 39.232C165.636 39.5093 165.108 39.648 164.447 39.648ZM175.92 36V34.272L175.808 33.904V30.88C175.808 30.2933 175.632 29.84 175.28 29.52C174.928 29.1893 174.394 29.024 173.68 29.024C173.2 29.024 172.725 29.0987 172.256 29.248C171.797 29.3973 171.408 29.6053 171.088 29.872L170.304 28.416C170.762 28.064 171.306 27.8027 171.936 27.632C172.576 27.4507 173.237 27.36 173.92 27.36C175.157 27.36 176.112 27.6587 176.784 28.256C177.466 28.8427 177.808 29.7547 177.808 30.992V36H175.92ZM173.232 36.112C172.592 36.112 172.032 36.0053 171.552 35.792C171.072 35.568 170.698 35.264 170.432 34.88C170.176 34.4853 170.048 34.0427 170.048 33.552C170.048 33.072 170.16 32.64 170.384 32.256C170.618 31.872 170.997 31.568 171.52 31.344C172.042 31.12 172.736 31.008 173.6 31.008H176.08V32.336H173.744C173.061 32.336 172.602 32.448 172.368 32.672C172.133 32.8853 172.016 33.152 172.016 33.472C172.016 33.8347 172.16 34.1227 172.448 34.336C172.736 34.5493 173.136 34.656 173.648 34.656C174.138 34.656 174.576 34.544 174.96 34.32C175.354 34.096 175.637 33.7653 175.808 33.328L176.144 34.528C175.952 35.0293 175.605 35.4187 175.104 35.696C174.613 35.9733 173.989 36.112 173.232 36.112ZM183.015 36.112C182.3 36.112 181.612 36.0213 180.951 35.84C180.3 35.648 179.783 35.4187 179.399 35.152L180.167 33.632C180.551 33.8773 181.009 34.08 181.543 34.24C182.076 34.4 182.609 34.48 183.143 34.48C183.772 34.48 184.225 34.3947 184.503 34.224C184.791 34.0533 184.935 33.824 184.935 33.536C184.935 33.3013 184.839 33.1253 184.647 33.008C184.455 32.88 184.204 32.784 183.895 32.72C183.585 32.656 183.239 32.5973 182.855 32.544C182.481 32.4907 182.103 32.4213 181.719 32.336C181.345 32.24 181.004 32.1067 180.695 31.936C180.385 31.7547 180.135 31.5147 179.943 31.216C179.751 30.9173 179.655 30.5227 179.655 30.032C179.655 29.488 179.809 29.0187 180.118 28.624C180.428 28.2187 180.86 27.9093 181.414 27.696C181.98 27.472 182.647 27.36 183.415 27.36C183.991 27.36 184.572 27.424 185.159 27.552C185.745 27.68 186.231 27.8613 186.615 28.096L185.847 29.616C185.441 29.3707 185.031 29.2053 184.615 29.12C184.209 29.024 183.804 28.976 183.399 28.976C182.791 28.976 182.337 29.0667 182.039 29.248C181.751 29.4293 181.607 29.6587 181.607 29.936C181.607 30.192 181.703 30.384 181.895 30.512C182.087 30.64 182.337 30.7413 182.647 30.816C182.956 30.8907 183.297 30.9547 183.671 31.008C184.055 31.0507 184.433 31.12 184.807 31.216C185.18 31.312 185.521 31.4453 185.831 31.616C186.151 31.776 186.407 32.0053 186.599 32.304C186.791 32.6027 186.887 32.992 186.887 33.472C186.887 34.0053 186.727 34.4693 186.407 34.864C186.097 35.2587 185.655 35.568 185.079 35.792C184.503 36.0053 183.815 36.112 183.015 36.112Z" fill="#2A2828"/>
<path d="M141.604 82.096C140.86 82.096 140.224 81.932 139.696 81.604C139.168 81.276 138.764 80.804 138.484 80.188C138.212 79.564 138.076 78.804 138.076 77.908C138.076 76.956 138.244 76.152 138.58 75.496C138.916 74.84 139.384 74.344 139.984 74.008C140.584 73.672 141.272 73.504 142.048 73.504C142.448 73.504 142.828 73.544 143.188 73.624C143.556 73.704 143.872 73.828 144.136 73.996L143.68 74.932C143.464 74.78 143.216 74.676 142.936 74.62C142.664 74.564 142.376 74.536 142.072 74.536C141.216 74.536 140.536 74.804 140.032 75.34C139.528 75.868 139.276 76.656 139.276 77.704C139.276 77.872 139.284 78.072 139.3 78.304C139.316 78.536 139.356 78.764 139.42 78.988L139.012 78.58C139.132 78.212 139.32 77.904 139.576 77.656C139.84 77.4 140.152 77.212 140.512 77.092C140.88 76.964 141.276 76.9 141.7 76.9C142.26 76.9 142.756 77.004 143.188 77.212C143.62 77.42 143.96 77.716 144.208 78.1C144.456 78.476 144.58 78.924 144.58 79.444C144.58 79.98 144.448 80.448 144.184 80.848C143.92 81.248 143.564 81.556 143.116 81.772C142.668 81.988 142.164 82.096 141.604 82.096ZM141.556 81.124C141.924 81.124 142.244 81.056 142.516 80.92C142.796 80.784 143.016 80.596 143.176 80.356C143.336 80.108 143.416 79.82 143.416 79.492C143.416 78.996 143.244 78.604 142.9 78.316C142.556 78.02 142.088 77.872 141.496 77.872C141.112 77.872 140.776 77.944 140.488 78.088C140.2 78.232 139.972 78.428 139.804 78.676C139.644 78.916 139.564 79.192 139.564 79.504C139.564 79.792 139.64 80.06 139.792 80.308C139.944 80.548 140.168 80.744 140.464 80.896C140.76 81.048 141.124 81.124 141.556 81.124ZM145.362 79.936V79.096L149.658 73.6H150.954L146.694 79.096L146.082 78.904H152.79V79.936H145.362ZM150.03 82V79.936L150.066 78.904V77.08H151.194V82H150.03Z" fill="black"/>
<path d="M141.788 117.096C141.196 117.096 140.62 117.004 140.06 116.82C139.508 116.636 139.056 116.388 138.704 116.076L139.256 115.128C139.536 115.392 139.9 115.608 140.348 115.776C140.796 115.944 141.272 116.028 141.776 116.028C142.416 116.028 142.908 115.892 143.252 115.62C143.596 115.348 143.768 114.984 143.768 114.528C143.768 114.216 143.692 113.944 143.54 113.712C143.388 113.48 143.124 113.304 142.748 113.184C142.38 113.056 141.872 112.992 141.224 112.992H139.316L139.76 108.6H144.5V109.644H140.204L140.828 109.056L140.48 112.524L139.856 111.948H141.476C142.316 111.948 142.992 112.056 143.504 112.272C144.016 112.488 144.388 112.788 144.62 113.172C144.852 113.548 144.968 113.984 144.968 114.48C144.968 114.96 144.852 115.4 144.62 115.8C144.388 116.192 144.036 116.508 143.564 116.748C143.1 116.98 142.508 117.096 141.788 117.096ZM145.776 117V116.184L149.196 112.884C149.5 112.596 149.724 112.344 149.868 112.128C150.02 111.904 150.12 111.7 150.168 111.516C150.224 111.324 150.252 111.14 150.252 110.964C150.252 110.532 150.1 110.192 149.796 109.944C149.492 109.696 149.048 109.572 148.464 109.572C148.016 109.572 147.612 109.648 147.252 109.8C146.892 109.944 146.58 110.172 146.316 110.484L145.5 109.776C145.82 109.368 146.248 109.056 146.784 108.84C147.328 108.616 147.924 108.504 148.572 108.504C149.156 108.504 149.664 108.6 150.096 108.792C150.528 108.976 150.86 109.244 151.092 109.596C151.332 109.948 151.452 110.364 151.452 110.844C151.452 111.116 151.416 111.384 151.344 111.648C151.272 111.912 151.136 112.192 150.936 112.488C150.736 112.784 150.448 113.116 150.072 113.484L147.024 116.424L146.736 115.956H151.812V117H145.776Z" fill="black"/>
<path d="M141.144 152.096C140.552 152.096 139.976 152.004 139.416 151.82C138.864 151.636 138.412 151.388 138.06 151.076L138.612 150.128C138.892 150.392 139.256 150.608 139.704 150.776C140.152 150.944 140.632 151.028 141.144 151.028C141.768 151.028 142.252 150.896 142.596 150.632C142.948 150.36 143.124 149.996 143.124 149.54C143.124 149.1 142.956 148.748 142.62 148.484C142.292 148.212 141.768 148.076 141.048 148.076H140.376V147.236L142.872 144.164L143.04 144.644H138.444V143.6H143.988V144.416L141.504 147.476L140.88 147.104H141.276C142.292 147.104 143.052 147.332 143.556 147.788C144.068 148.244 144.324 148.824 144.324 149.528C144.324 150 144.208 150.432 143.976 150.824C143.744 151.216 143.392 151.528 142.92 151.76C142.456 151.984 141.864 152.096 141.144 152.096ZM148.875 152.096C148.219 152.096 147.631 151.928 147.111 151.592C146.599 151.256 146.191 150.768 145.887 150.128C145.591 149.488 145.443 148.712 145.443 147.8C145.443 146.888 145.591 146.112 145.887 145.472C146.191 144.832 146.599 144.344 147.111 144.008C147.631 143.672 148.219 143.504 148.875 143.504C149.523 143.504 150.107 143.672 150.627 144.008C151.147 144.344 151.555 144.832 151.851 145.472C152.147 146.112 152.295 146.888 152.295 147.8C152.295 148.712 152.147 149.488 151.851 150.128C151.555 150.768 151.147 151.256 150.627 151.592C150.107 151.928 149.523 152.096 148.875 152.096ZM148.875 151.028C149.315 151.028 149.699 150.908 150.027 150.668C150.363 150.428 150.623 150.068 150.807 149.588C150.999 149.108 151.095 148.512 151.095 147.8C151.095 147.088 150.999 146.492 150.807 146.012C150.623 145.532 150.363 145.172 150.027 144.932C149.699 144.692 149.315 144.572 148.875 144.572C148.435 144.572 148.047 144.692 147.711 144.932C147.375 145.172 147.111 145.532 146.919 146.012C146.735 146.492 146.643 147.088 146.643 147.8C146.643 148.512 146.735 149.108 146.919 149.588C147.111 150.068 147.375 150.428 147.711 150.668C148.047 150.908 148.435 151.028 148.875 151.028Z" fill="black"/>
<path d="M141.144 187.096C140.552 187.096 139.976 187.004 139.416 186.82C138.864 186.636 138.412 186.388 138.06 186.076L138.612 185.128C138.892 185.392 139.256 185.608 139.704 185.776C140.152 185.944 140.632 186.028 141.144 186.028C141.768 186.028 142.252 185.896 142.596 185.632C142.948 185.36 143.124 184.996 143.124 184.54C143.124 184.1 142.956 183.748 142.62 183.484C142.292 183.212 141.768 183.076 141.048 183.076H140.376V182.236L142.872 179.164L143.04 179.644H138.444V178.6H143.988V179.416L141.504 182.476L140.88 182.104H141.276C142.292 182.104 143.052 182.332 143.556 182.788C144.068 183.244 144.324 183.824 144.324 184.528C144.324 185 144.208 185.432 143.976 185.824C143.744 186.216 143.392 186.528 142.92 186.76C142.456 186.984 141.864 187.096 141.144 187.096ZM148.875 187.096C148.219 187.096 147.631 186.928 147.111 186.592C146.599 186.256 146.191 185.768 145.887 185.128C145.591 184.488 145.443 183.712 145.443 182.8C145.443 181.888 145.591 181.112 145.887 180.472C146.191 179.832 146.599 179.344 147.111 179.008C147.631 178.672 148.219 178.504 148.875 178.504C149.523 178.504 150.107 178.672 150.627 179.008C151.147 179.344 151.555 179.832 151.851 180.472C152.147 181.112 152.295 181.888 152.295 182.8C152.295 183.712 152.147 184.488 151.851 185.128C151.555 185.768 151.147 186.256 150.627 186.592C150.107 186.928 149.523 187.096 148.875 187.096ZM148.875 186.028C149.315 186.028 149.699 185.908 150.027 185.668C150.363 185.428 150.623 185.068 150.807 184.588C150.999 184.108 151.095 183.512 151.095 182.8C151.095 182.088 150.999 181.492 150.807 181.012C150.623 180.532 150.363 180.172 150.027 179.932C149.699 179.692 149.315 179.572 148.875 179.572C148.435 179.572 148.047 179.692 147.711 179.932C147.375 180.172 147.111 180.532 146.919 181.012C146.735 181.492 146.643 182.088 146.643 182.8C146.643 183.512 146.735 184.108 146.919 184.588C147.111 185.068 147.375 185.428 147.711 185.668C148.047 185.908 148.435 186.028 148.875 186.028Z" fill="black"/>
<path d="M141.788 222.096C141.196 222.096 140.62 222.004 140.06 221.82C139.508 221.636 139.056 221.388 138.704 221.076L139.256 220.128C139.536 220.392 139.9 220.608 140.348 220.776C140.796 220.944 141.272 221.028 141.776 221.028C142.416 221.028 142.908 220.892 143.252 220.62C143.596 220.348 143.768 219.984 143.768 219.528C143.768 219.216 143.692 218.944 143.54 218.712C143.388 218.48 143.124 218.304 142.748 218.184C142.38 218.056 141.872 217.992 141.224 217.992H139.316L139.76 213.6H144.5V214.644H140.204L140.828 214.056L140.48 217.524L139.856 216.948H141.476C142.316 216.948 142.992 217.056 143.504 217.272C144.016 217.488 144.388 217.788 144.62 218.172C144.852 218.548 144.968 218.984 144.968 219.48C144.968 219.96 144.852 220.4 144.62 220.8C144.388 221.192 144.036 221.508 143.564 221.748C143.1 221.98 142.508 222.096 141.788 222.096ZM145.776 222V221.184L149.196 217.884C149.5 217.596 149.724 217.344 149.868 217.128C150.02 216.904 150.12 216.7 150.168 216.516C150.224 216.324 150.252 216.14 150.252 215.964C150.252 215.532 150.1 215.192 149.796 214.944C149.492 214.696 149.048 214.572 148.464 214.572C148.016 214.572 147.612 214.648 147.252 214.8C146.892 214.944 146.58 215.172 146.316 215.484L145.5 214.776C145.82 214.368 146.248 214.056 146.784 213.84C147.328 213.616 147.924 213.504 148.572 213.504C149.156 213.504 149.664 213.6 150.096 213.792C150.528 213.976 150.86 214.244 151.092 214.596C151.332 214.948 151.452 215.364 151.452 215.844C151.452 216.116 151.416 216.384 151.344 216.648C151.272 216.912 151.136 217.192 150.936 217.488C150.736 217.784 150.448 218.116 150.072 218.484L147.024 221.424L146.736 220.956H151.812V222H145.776Z" fill="black"/>
<mask id="path-21-outside-5_96_190" maskUnits="userSpaceOnUse" x="198" y="0" width="71" height="225" fill="black">
<rect fill="white" x="198" width="71" height="225"/>
<path d="M198 0H268V225H198V0Z"/>
</mask>
<path d="M267 0V225H269V0H267Z" fill="#D8D4D4" mask="url(#path-21-outside-5_96_190)"/>
<mask id="path-23-outside-6_96_190" maskUnits="userSpaceOnUse" x="198" y="0" width="70" height="61" fill="black">
<rect fill="white" x="198" width="70" height="61"/>
<path d="M198 0H268V60H198V0Z"/>
</mask>
<path d="M268 59H198V61H268V59Z" fill="#D8D4D4" mask="url(#path-23-outside-6_96_190)"/>
<path d="M211.408 29.952H216.992V31.712H211.408V29.952ZM211.584 36H209.504V24.8H217.68V26.544H211.584V36ZM224.482 36V34.272L224.37 33.904V30.88C224.37 30.2933 224.194 29.84 223.842 29.52C223.49 29.1893 222.957 29.024 222.242 29.024C221.762 29.024 221.288 29.0987 220.818 29.248C220.36 29.3973 219.97 29.6053 219.65 29.872L218.866 28.416C219.325 28.064 219.869 27.8027 220.498 27.632C221.138 27.4507 221.8 27.36 222.482 27.36C223.72 27.36 224.674 27.6587 225.346 28.256C226.029 28.8427 226.37 29.7547 226.37 30.992V36H224.482ZM221.794 36.112C221.154 36.112 220.594 36.0053 220.114 35.792C219.634 35.568 219.261 35.264 218.994 34.88C218.738 34.4853 218.61 34.0427 218.61 33.552C218.61 33.072 218.722 32.64 218.946 32.256C219.181 31.872 219.56 31.568 220.082 31.344C220.605 31.12 221.298 31.008 222.162 31.008H224.642V32.336H222.306C221.624 32.336 221.165 32.448 220.93 32.672C220.696 32.8853 220.578 33.152 220.578 33.472C220.578 33.8347 220.722 34.1227 221.01 34.336C221.298 34.5493 221.698 34.656 222.21 34.656C222.701 34.656 223.138 34.544 223.522 34.32C223.917 34.096 224.2 33.7653 224.37 33.328L224.706 34.528C224.514 35.0293 224.168 35.4187 223.666 35.696C223.176 35.9733 222.552 36.112 221.794 36.112ZM228.937 36V24.128H230.937V36H228.937ZM237.2 36.112C236.261 36.112 235.536 35.872 235.024 35.392C234.512 34.9013 234.256 34.1813 234.256 33.232V25.568H236.256V33.184C236.256 33.5893 236.357 33.904 236.56 34.128C236.773 34.352 237.067 34.464 237.44 34.464C237.888 34.464 238.261 34.3467 238.56 34.112L239.12 35.536C238.885 35.728 238.597 35.872 238.256 35.968C237.915 36.064 237.563 36.112 237.2 36.112ZM232.848 29.12V27.52H238.544V29.12H232.848ZM246.029 36V34.272L245.917 33.904V30.88C245.917 30.2933 245.741 29.84 245.389 29.52C245.037 29.1893 244.504 29.024 243.789 29.024C243.309 29.024 242.834 29.0987 242.365 29.248C241.906 29.3973 241.517 29.6053 241.197 29.872L240.413 28.416C240.872 28.064 241.416 27.8027 242.045 27.632C242.685 27.4507 243.346 27.36 244.029 27.36C245.266 27.36 246.221 27.6587 246.893 28.256C247.576 28.8427 247.917 29.7547 247.917 30.992V36H246.029ZM243.341 36.112C242.701 36.112 242.141 36.0053 241.661 35.792C241.181 35.568 240.808 35.264 240.541 34.88C240.285 34.4853 240.157 34.0427 240.157 33.552C240.157 33.072 240.269 32.64 240.493 32.256C240.728 31.872 241.106 31.568 241.629 31.344C242.152 31.12 242.845 31.008 243.709 31.008H246.189V32.336H243.853C243.17 32.336 242.712 32.448 242.477 32.672C242.242 32.8853 242.125 33.152 242.125 33.472C242.125 33.8347 242.269 34.1227 242.557 34.336C242.845 34.5493 243.245 34.656 243.757 34.656C244.248 34.656 244.685 34.544 245.069 34.32C245.464 34.096 245.746 33.7653 245.917 33.328L246.253 34.528C246.061 35.0293 245.714 35.4187 245.213 35.696C244.722 35.9733 244.098 36.112 243.341 36.112ZM253.124 36.112C252.409 36.112 251.721 36.0213 251.06 35.84C250.409 35.648 249.892 35.4187 249.508 35.152L250.276 33.632C250.66 33.8773 251.119 34.08 251.652 34.24C252.185 34.4 252.719 34.48 253.252 34.48C253.881 34.48 254.335 34.3947 254.612 34.224C254.9 34.0533 255.044 33.824 255.044 33.536C255.044 33.3013 254.948 33.1253 254.756 33.008C254.564 32.88 254.313 32.784 254.004 32.72C253.695 32.656 253.348 32.5973 252.964 32.544C252.591 32.4907 252.212 32.4213 251.828 32.336C251.455 32.24 251.113 32.1067 250.804 31.936C250.495 31.7547 250.244 31.5147 250.052 31.216C249.86 30.9173 249.764 30.5227 249.764 30.032C249.764 29.488 249.919 29.0187 250.228 28.624C250.537 28.2187 250.969 27.9093 251.524 27.696C252.089 27.472 252.756 27.36 253.524 27.36C254.1 27.36 254.681 27.424 255.268 27.552C255.855 27.68 256.34 27.8613 256.724 28.096L255.956 29.616C255.551 29.3707 255.14 29.2053 254.724 29.12C254.319 29.024 253.913 28.976 253.508 28.976C252.9 28.976 252.447 29.0667 252.148 29.248C251.86 29.4293 251.716 29.6587 251.716 29.936C251.716 30.192 251.812 30.384 252.004 30.512C252.196 30.64 252.447 30.7413 252.756 30.816C253.065 30.8907 253.407 30.9547 253.78 31.008C254.164 31.0507 254.543 31.12 254.916 31.216C255.289 31.312 255.631 31.4453 255.94 31.616C256.26 31.776 256.516 32.0053 256.708 32.304C256.9 32.6027 256.996 32.992 256.996 33.472C256.996 34.0053 256.836 34.4693 256.516 34.864C256.207 35.2587 255.764 35.568 255.188 35.792C254.612 36.0053 253.924 36.112 253.124 36.112Z" fill="#2A2828"/>
<path d="M232.508 82.096C231.852 82.096 231.264 81.928 230.744 81.592C230.232 81.256 229.824 80.768 229.52 80.128C229.224 79.488 229.076 78.712 229.076 77.8C229.076 76.888 229.224 76.112 229.52 75.472C229.824 74.832 230.232 74.344 230.744 74.008C231.264 73.672 231.852 73.504 232.508 73.504C233.156 73.504 233.74 73.672 234.26 74.008C234.78 74.344 235.188 74.832 235.484 75.472C235.78 76.112 235.928 76.888 235.928 77.8C235.928 78.712 235.78 79.488 235.484 80.128C235.188 80.768 234.78 81.256 234.26 81.592C233.74 81.928 233.156 82.096 232.508 82.096ZM232.508 81.028C232.948 81.028 233.332 80.908 233.66 80.668C233.996 80.428 234.256 80.068 234.44 79.588C234.632 79.108 234.728 78.512 234.728 77.8C234.728 77.088 234.632 76.492 234.44 76.012C234.256 75.532 233.996 75.172 233.66 74.932C233.332 74.692 232.948 74.572 232.508 74.572C232.068 74.572 231.68 74.692 231.344 74.932C231.008 75.172 230.744 75.532 230.552 76.012C230.368 76.492 230.276 77.088 230.276 77.8C230.276 78.512 230.368 79.108 230.552 79.588C230.744 80.068 231.008 80.428 231.344 80.668C231.68 80.908 232.068 81.028 232.508 81.028Z" fill="black"/>
<path d="M233.104 117.096C232.36 117.096 231.724 116.932 231.196 116.604C230.668 116.276 230.264 115.804 229.984 115.188C229.712 114.564 229.576 113.804 229.576 112.908C229.576 111.956 229.744 111.152 230.08 110.496C230.416 109.84 230.884 109.344 231.484 109.008C232.084 108.672 232.772 108.504 233.548 108.504C233.948 108.504 234.328 108.544 234.688 108.624C235.056 108.704 235.372 108.828 235.636 108.996L235.18 109.932C234.964 109.78 234.716 109.676 234.436 109.62C234.164 109.564 233.876 109.536 233.572 109.536C232.716 109.536 232.036 109.804 231.532 110.34C231.028 110.868 230.776 111.656 230.776 112.704C230.776 112.872 230.784 113.072 230.8 113.304C230.816 113.536 230.856 113.764 230.92 113.988L230.512 113.58C230.632 113.212 230.82 112.904 231.076 112.656C231.34 112.4 231.652 112.212 232.012 112.092C232.38 111.964 232.776 111.9 233.2 111.9C233.76 111.9 234.256 112.004 234.688 112.212C235.12 112.42 235.46 112.716 235.708 113.1C235.956 113.476 236.08 113.924 236.08 114.444C236.08 114.98 235.948 115.448 235.684 115.848C235.42 116.248 235.064 116.556 234.616 116.772C234.168 116.988 233.664 117.096 233.104 117.096ZM233.056 116.124C233.424 116.124 233.744 116.056 234.016 115.92C234.296 115.784 234.516 115.596 234.676 115.356C234.836 115.108 234.916 114.82 234.916 114.492C234.916 113.996 234.744 113.604 234.4 113.316C234.056 113.02 233.588 112.872 232.996 112.872C232.612 112.872 232.276 112.944 231.988 113.088C231.7 113.232 231.472 113.428 231.304 113.676C231.144 113.916 231.064 114.192 231.064 114.504C231.064 114.792 231.14 115.06 231.292 115.308C231.444 115.548 231.668 115.744 231.964 115.896C232.26 116.048 232.624 116.124 233.056 116.124Z" fill="black"/>
<path d="M232.508 152.096C231.852 152.096 231.264 151.928 230.744 151.592C230.232 151.256 229.824 150.768 229.52 150.128C229.224 149.488 229.076 148.712 229.076 147.8C229.076 146.888 229.224 146.112 229.52 145.472C229.824 144.832 230.232 144.344 230.744 144.008C231.264 143.672 231.852 143.504 232.508 143.504C233.156 143.504 233.74 143.672 234.26 144.008C234.78 144.344 235.188 144.832 235.484 145.472C235.78 146.112 235.928 146.888 235.928 147.8C235.928 148.712 235.78 149.488 235.484 150.128C235.188 150.768 234.78 151.256 234.26 151.592C233.74 151.928 233.156 152.096 232.508 152.096ZM232.508 151.028C232.948 151.028 233.332 150.908 233.66 150.668C233.996 150.428 234.256 150.068 234.44 149.588C234.632 149.108 234.728 148.512 234.728 147.8C234.728 147.088 234.632 146.492 234.44 146.012C234.256 145.532 233.996 145.172 233.66 144.932C233.332 144.692 232.948 144.572 232.508 144.572C232.068 144.572 231.68 144.692 231.344 144.932C231.008 145.172 230.744 145.532 230.552 146.012C230.368 146.492 230.276 147.088 230.276 147.8C230.276 148.512 230.368 149.108 230.552 149.588C230.744 150.068 231.008 150.428 231.344 150.668C231.68 150.908 232.068 151.028 232.508 151.028Z" fill="black"/>
<path d="M232.508 187.096C231.852 187.096 231.264 186.928 230.744 186.592C230.232 186.256 229.824 185.768 229.52 185.128C229.224 184.488 229.076 183.712 229.076 182.8C229.076 181.888 229.224 181.112 229.52 180.472C229.824 179.832 230.232 179.344 230.744 179.008C231.264 178.672 231.852 178.504 232.508 178.504C233.156 178.504 233.74 178.672 234.26 179.008C234.78 179.344 235.188 179.832 235.484 180.472C235.78 181.112 235.928 181.888 235.928 182.8C235.928 183.712 235.78 184.488 235.484 185.128C235.188 185.768 234.78 186.256 234.26 186.592C233.74 186.928 233.156 187.096 232.508 187.096ZM232.508 186.028C232.948 186.028 233.332 185.908 233.66 185.668C233.996 185.428 234.256 185.068 234.44 184.588C234.632 184.108 234.728 183.512 234.728 182.8C234.728 182.088 234.632 181.492 234.44 181.012C234.256 180.532 233.996 180.172 233.66 179.932C233.332 179.692 232.948 179.572 232.508 179.572C232.068 179.572 231.68 179.692 231.344 179.932C231.008 180.172 230.744 180.532 230.552 181.012C230.368 181.492 230.276 182.088 230.276 182.8C230.276 183.512 230.368 184.108 230.552 184.588C230.744 185.068 231.008 185.428 231.344 185.668C231.68 185.908 232.068 186.028 232.508 186.028Z" fill="black"/>
<path d="M233.104 222.096C232.36 222.096 231.724 221.932 231.196 221.604C230.668 221.276 230.264 220.804 229.984 220.188C229.712 219.564 229.576 218.804 229.576 217.908C229.576 216.956 229.744 216.152 230.08 215.496C230.416 214.84 230.884 214.344 231.484 214.008C232.084 213.672 232.772 213.504 233.548 213.504C233.948 213.504 234.328 213.544 234.688 213.624C235.056 213.704 235.372 213.828 235.636 213.996L235.18 214.932C234.964 214.78 234.716 214.676 234.436 214.62C234.164 214.564 233.876 214.536 233.572 214.536C232.716 214.536 232.036 214.804 231.532 215.34C231.028 215.868 230.776 216.656 230.776 217.704C230.776 217.872 230.784 218.072 230.8 218.304C230.816 218.536 230.856 218.764 230.92 218.988L230.512 218.58C230.632 218.212 230.82 217.904 231.076 217.656C231.34 217.4 231.652 217.212 232.012 217.092C232.38 216.964 232.776 216.9 233.2 216.9C233.76 216.9 234.256 217.004 234.688 217.212C235.12 217.42 235.46 217.716 235.708 218.1C235.956 218.476 236.08 218.924 236.08 219.444C236.08 219.98 235.948 220.448 235.684 220.848C235.42 221.248 235.064 221.556 234.616 221.772C234.168 221.988 233.664 222.096 233.104 222.096ZM233.056 221.124C233.424 221.124 233.744 221.056 234.016 220.92C234.296 220.784 234.516 220.596 234.676 220.356C234.836 220.108 234.916 219.82 234.916 219.492C234.916 218.996 234.744 218.604 234.4 218.316C234.056 218.02 233.588 217.872 232.996 217.872C232.612 217.872 232.276 217.944 231.988 218.088C231.7 218.232 231.472 218.428 231.304 218.676C231.144 218.916 231.064 219.192 231.064 219.504C231.064 219.792 231.14 220.06 231.292 220.308C231.444 220.548 231.668 220.744 231.964 220.896C232.26 221.048 232.624 221.124 233.056 221.124Z" fill="black"/>
<mask id="path-31-outside-7_96_190" maskUnits="userSpaceOnUse" x="268" y="0" width="54" height="61" fill="black">
<rect fill="white" x="268" width="54" height="61"/>
<path d="M268 0H322V60H268V0Z"/>
</mask>
<path d="M322 59H268V61H322V59Z" fill="#D9D9D9" mask="url(#path-31-outside-7_96_190)"/>
<path d="M290.272 36L297.92 24.8H299.488L291.84 36H290.272ZM291.2 30.832C290.677 30.832 290.213 30.704 289.808 30.448C289.403 30.192 289.088 29.8347 288.864 29.376C288.64 28.9173 288.528 28.3787 288.528 27.76C288.528 27.1413 288.64 26.6027 288.864 26.144C289.088 25.6853 289.403 25.328 289.808 25.072C290.213 24.816 290.677 24.688 291.2 24.688C291.744 24.688 292.213 24.816 292.608 25.072C293.013 25.328 293.328 25.6853 293.552 26.144C293.776 26.6027 293.888 27.1413 293.888 27.76C293.888 28.3787 293.776 28.9173 293.552 29.376C293.328 29.8347 293.013 30.192 292.608 30.448C292.213 30.704 291.744 30.832 291.2 30.832ZM291.216 29.712C291.643 29.712 291.973 29.5467 292.208 29.216C292.453 28.8747 292.576 28.3893 292.576 27.76C292.576 27.1307 292.453 26.6507 292.208 26.32C291.973 25.9787 291.643 25.808 291.216 25.808C290.789 25.808 290.448 25.9787 290.192 26.32C289.947 26.6613 289.824 27.1413 289.824 27.76C289.824 28.3787 289.947 28.8587 290.192 29.2C290.448 29.5413 290.789 29.712 291.216 29.712ZM298.544 36.112C298.021 36.112 297.557 35.984 297.152 35.728C296.747 35.472 296.432 35.1147 296.208 34.656C295.984 34.1973 295.872 33.6587 295.872 33.04C295.872 32.4213 295.984 31.8827 296.208 31.424C296.432 30.9653 296.747 30.608 297.152 30.352C297.557 30.096 298.021 29.968 298.544 29.968C299.088 29.968 299.557 30.096 299.952 30.352C300.357 30.608 300.672 30.9653 300.896 31.424C301.12 31.8827 301.232 32.4213 301.232 33.04C301.232 33.6587 301.12 34.1973 300.896 34.656C300.672 35.1147 300.357 35.472 299.952 35.728C299.557 35.984 299.088 36.112 298.544 36.112ZM298.544 34.992C298.971 34.992 299.307 34.8213 299.552 34.48C299.797 34.1387 299.92 33.6587 299.92 33.04C299.92 32.4213 299.797 31.9413 299.552 31.6C299.307 31.2587 298.971 31.088 298.544 31.088C298.128 31.088 297.792 31.2587 297.536 31.6C297.291 31.9307 297.168 32.4107 297.168 33.04C297.168 33.6693 297.291 34.1547 297.536 34.496C297.792 34.8267 298.128 34.992 298.544 34.992Z" fill="#2A2828"/>
<path d="M289.508 82.096C288.852 82.096 288.264 81.928 287.744 81.592C287.232 81.256 286.824 80.768 286.52 80.128C286.224 79.488 286.076 78.712 286.076 77.8C286.076 76.888 286.224 76.112 286.52 75.472C286.824 74.832 287.232 74.344 287.744 74.008C288.264 73.672 288.852 73.504 289.508 73.504C290.156 73.504 290.74 73.672 291.26 74.008C291.78 74.344 292.188 74.832 292.484 75.472C292.78 76.112 292.928 76.888 292.928 77.8C292.928 78.712 292.78 79.488 292.484 80.128C292.188 80.768 291.78 81.256 291.26 81.592C290.74 81.928 290.156 82.096 289.508 82.096ZM289.508 81.028C289.948 81.028 290.332 80.908 290.66 80.668C290.996 80.428 291.256 80.068 291.44 79.588C291.632 79.108 291.728 78.512 291.728 77.8C291.728 77.088 291.632 76.492 291.44 76.012C291.256 75.532 290.996 75.172 290.66 74.932C290.332 74.692 289.948 74.572 289.508 74.572C289.068 74.572 288.68 74.692 288.344 74.932C288.008 75.172 287.744 75.532 287.552 76.012C287.368 76.492 287.276 77.088 287.276 77.8C287.276 78.512 287.368 79.108 287.552 79.588C287.744 80.068 288.008 80.428 288.344 80.668C288.68 80.908 289.068 81.028 289.508 81.028ZM295.232 82L300.968 73.6H301.892L296.156 82H295.232ZM295.904 78.112C295.52 78.112 295.18 78.016 294.884 77.824C294.588 77.632 294.356 77.364 294.188 77.02C294.028 76.676 293.948 76.276 293.948 75.82C293.948 75.364 294.028 74.964 294.188 74.62C294.356 74.276 294.588 74.008 294.884 73.816C295.18 73.624 295.52 73.528 295.904 73.528C296.296 73.528 296.636 73.624 296.924 73.816C297.22 74.008 297.448 74.276 297.608 74.62C297.768 74.964 297.848 75.364 297.848 75.82C297.848 76.276 297.768 76.676 297.608 77.02C297.448 77.364 297.22 77.632 296.924 77.824C296.636 78.016 296.296 78.112 295.904 78.112ZM295.904 77.428C296.272 77.428 296.56 77.288 296.768 77.008C296.976 76.72 297.08 76.324 297.08 75.82C297.08 75.316 296.976 74.924 296.768 74.644C296.56 74.356 296.272 74.212 295.904 74.212C295.544 74.212 295.256 74.356 295.04 74.644C294.832 74.924 294.728 75.316 294.728 75.82C294.728 76.316 294.832 76.708 295.04 76.996C295.256 77.284 295.544 77.428 295.904 77.428ZM301.22 82.072C300.836 82.072 300.496 81.976 300.2 81.784C299.904 81.592 299.676 81.324 299.516 80.98C299.356 80.636 299.276 80.236 299.276 79.78C299.276 79.324 299.356 78.924 299.516 78.58C299.676 78.236 299.904 77.968 300.2 77.776C300.496 77.584 300.836 77.488 301.22 77.488C301.612 77.488 301.952 77.584 302.24 77.776C302.536 77.968 302.764 78.236 302.924 78.58C303.092 78.924 303.176 79.324 303.176 79.78C303.176 80.236 303.092 80.636 302.924 80.98C302.764 81.324 302.536 81.592 302.24 81.784C301.952 81.976 301.612 82.072 301.22 82.072ZM301.22 81.388C301.58 81.388 301.864 81.248 302.072 80.968C302.288 80.68 302.396 80.284 302.396 79.78C302.396 79.284 302.288 78.892 302.072 78.604C301.864 78.316 301.58 78.172 301.22 78.172C300.86 78.172 300.572 78.316 300.356 78.604C300.148 78.884 300.044 79.276 300.044 79.78C300.044 80.284 300.148 80.68 300.356 80.968C300.572 81.248 300.86 81.388 301.22 81.388Z" fill="black"/>
<path d="M283.528 117L287.092 109.104L287.404 109.644H282.412L283.012 109.056V111.144H281.86V108.6H288.196V109.416L284.8 117H283.528ZM288.687 118.776L289.287 116.352L289.443 117.048C289.211 117.048 289.015 116.976 288.855 116.832C288.703 116.688 288.627 116.492 288.627 116.244C288.627 116.004 288.703 115.808 288.855 115.656C289.015 115.504 289.207 115.428 289.431 115.428C289.663 115.428 289.851 115.508 289.995 115.668C290.139 115.82 290.211 116.012 290.211 116.244C290.211 116.324 290.203 116.404 290.187 116.484C290.179 116.556 290.159 116.644 290.127 116.748C290.103 116.844 290.063 116.964 290.007 117.108L289.443 118.776H288.687ZM294.058 117.096C293.466 117.096 292.89 117.004 292.33 116.82C291.778 116.636 291.326 116.388 290.974 116.076L291.526 115.128C291.806 115.392 292.17 115.608 292.618 115.776C293.066 115.944 293.542 116.028 294.046 116.028C294.686 116.028 295.178 115.892 295.522 115.62C295.866 115.348 296.038 114.984 296.038 114.528C296.038 114.216 295.962 113.944 295.81 113.712C295.658 113.48 295.394 113.304 295.018 113.184C294.65 113.056 294.142 112.992 293.494 112.992H291.586L292.03 108.6H296.77V109.644H292.474L293.098 109.056L292.75 112.524L292.126 111.948H293.746C294.586 111.948 295.262 112.056 295.774 112.272C296.286 112.488 296.658 112.788 296.89 113.172C297.122 113.548 297.238 113.984 297.238 114.48C297.238 114.96 297.122 115.4 296.89 115.8C296.658 116.192 296.306 116.508 295.834 116.748C295.37 116.98 294.778 117.096 294.058 117.096ZM299.271 117L305.007 108.6H305.931L300.195 117H299.271ZM299.943 113.112C299.559 113.112 299.219 113.016 298.923 112.824C298.627 112.632 298.395 112.364 298.227 112.02C298.067 111.676 297.987 111.276 297.987 110.82C297.987 110.364 298.067 109.964 298.227 109.62C298.395 109.276 298.627 109.008 298.923 108.816C299.219 108.624 299.559 108.528 299.943 108.528C300.335 108.528 300.675 108.624 300.963 108.816C301.259 109.008 301.487 109.276 301.647 109.62C301.807 109.964 301.887 110.364 301.887 110.82C301.887 111.276 301.807 111.676 301.647 112.02C301.487 112.364 301.259 112.632 300.963 112.824C300.675 113.016 300.335 113.112 299.943 113.112ZM299.943 112.428C300.311 112.428 300.599 112.288 300.807 112.008C301.015 111.72 301.119 111.324 301.119 110.82C301.119 110.316 301.015 109.924 300.807 109.644C300.599 109.356 300.311 109.212 299.943 109.212C299.583 109.212 299.295 109.356 299.079 109.644C298.871 109.924 298.767 110.316 298.767 110.82C298.767 111.316 298.871 111.708 299.079 111.996C299.295 112.284 299.583 112.428 299.943 112.428ZM305.259 117.072C304.875 117.072 304.535 116.976 304.239 116.784C303.943 116.592 303.715 116.324 303.555 115.98C303.395 115.636 303.315 115.236 303.315 114.78C303.315 114.324 303.395 113.924 303.555 113.58C303.715 113.236 303.943 112.968 304.239 112.776C304.535 112.584 304.875 112.488 305.259 112.488C305.651 112.488 305.991 112.584 306.279 112.776C306.575 112.968 306.803 113.236 306.963 113.58C307.131 113.924 307.215 114.324 307.215 114.78C307.215 115.236 307.131 115.636 306.963 115.98C306.803 116.324 306.575 116.592 306.279 116.784C305.991 116.976 305.651 117.072 305.259 117.072ZM305.259 116.388C305.619 116.388 305.903 116.248 306.111 115.968C306.327 115.68 306.435 115.284 306.435 114.78C306.435 114.284 306.327 113.892 306.111 113.604C305.903 113.316 305.619 113.172 305.259 113.172C304.899 113.172 304.611 113.316 304.395 113.604C304.187 113.884 304.083 114.276 304.083 114.78C304.083 115.284 304.187 115.68 304.395 115.968C304.611 116.248 304.899 116.388 305.259 116.388Z" fill="black"/>
<path d="M289.508 152.096C288.852 152.096 288.264 151.928 287.744 151.592C287.232 151.256 286.824 150.768 286.52 150.128C286.224 149.488 286.076 148.712 286.076 147.8C286.076 146.888 286.224 146.112 286.52 145.472C286.824 144.832 287.232 144.344 287.744 144.008C288.264 143.672 288.852 143.504 289.508 143.504C290.156 143.504 290.74 143.672 291.26 144.008C291.78 144.344 292.188 144.832 292.484 145.472C292.78 146.112 292.928 146.888 292.928 147.8C292.928 148.712 292.78 149.488 292.484 150.128C292.188 150.768 291.78 151.256 291.26 151.592C290.74 151.928 290.156 152.096 289.508 152.096ZM289.508 151.028C289.948 151.028 290.332 150.908 290.66 150.668C290.996 150.428 291.256 150.068 291.44 149.588C291.632 149.108 291.728 148.512 291.728 147.8C291.728 147.088 291.632 146.492 291.44 146.012C291.256 145.532 290.996 145.172 290.66 144.932C290.332 144.692 289.948 144.572 289.508 144.572C289.068 144.572 288.68 144.692 288.344 144.932C288.008 145.172 287.744 145.532 287.552 146.012C287.368 146.492 287.276 147.088 287.276 147.8C287.276 148.512 287.368 149.108 287.552 149.588C287.744 150.068 288.008 150.428 288.344 150.668C288.68 150.908 289.068 151.028 289.508 151.028ZM295.232 152L300.968 143.6H301.892L296.156 152H295.232ZM295.904 148.112C295.52 148.112 295.18 148.016 294.884 147.824C294.588 147.632 294.356 147.364 294.188 147.02C294.028 146.676 293.948 146.276 293.948 145.82C293.948 145.364 294.028 144.964 294.188 144.62C294.356 144.276 294.588 144.008 294.884 143.816C295.18 143.624 295.52 143.528 295.904 143.528C296.296 143.528 296.636 143.624 296.924 143.816C297.22 144.008 297.448 144.276 297.608 144.62C297.768 144.964 297.848 145.364 297.848 145.82C297.848 146.276 297.768 146.676 297.608 147.02C297.448 147.364 297.22 147.632 296.924 147.824C296.636 148.016 296.296 148.112 295.904 148.112ZM295.904 147.428C296.272 147.428 296.56 147.288 296.768 147.008C296.976 146.72 297.08 146.324 297.08 145.82C297.08 145.316 296.976 144.924 296.768 144.644C296.56 144.356 296.272 144.212 295.904 144.212C295.544 144.212 295.256 144.356 295.04 144.644C294.832 144.924 294.728 145.316 294.728 145.82C294.728 146.316 294.832 146.708 295.04 146.996C295.256 147.284 295.544 147.428 295.904 147.428ZM301.22 152.072C300.836 152.072 300.496 151.976 300.2 151.784C299.904 151.592 299.676 151.324 299.516 150.98C299.356 150.636 299.276 150.236 299.276 149.78C299.276 149.324 299.356 148.924 299.516 148.58C299.676 148.236 299.904 147.968 300.2 147.776C300.496 147.584 300.836 147.488 301.22 147.488C301.612 147.488 301.952 147.584 302.24 147.776C302.536 147.968 302.764 148.236 302.924 148.58C303.092 148.924 303.176 149.324 303.176 149.78C303.176 150.236 303.092 150.636 302.924 150.98C302.764 151.324 302.536 151.592 302.24 151.784C301.952 151.976 301.612 152.072 301.22 152.072ZM301.22 151.388C301.58 151.388 301.864 151.248 302.072 150.968C302.288 150.68 302.396 150.284 302.396 149.78C302.396 149.284 302.288 148.892 302.072 148.604C301.864 148.316 301.58 148.172 301.22 148.172C300.86 148.172 300.572 148.316 300.356 148.604C300.148 148.884 300.044 149.276 300.044 149.78C300.044 150.284 300.148 150.68 300.356 150.968C300.572 151.248 300.86 151.388 301.22 151.388Z" fill="black"/>
<path d="M289.508 187.096C288.852 187.096 288.264 186.928 287.744 186.592C287.232 186.256 286.824 185.768 286.52 185.128C286.224 184.488 286.076 183.712 286.076 182.8C286.076 181.888 286.224 181.112 286.52 180.472C286.824 179.832 287.232 179.344 287.744 179.008C288.264 178.672 288.852 178.504 289.508 178.504C290.156 178.504 290.74 178.672 291.26 179.008C291.78 179.344 292.188 179.832 292.484 180.472C292.78 181.112 292.928 181.888 292.928 182.8C292.928 183.712 292.78 184.488 292.484 185.128C292.188 185.768 291.78 186.256 291.26 186.592C290.74 186.928 290.156 187.096 289.508 187.096ZM289.508 186.028C289.948 186.028 290.332 185.908 290.66 185.668C290.996 185.428 291.256 185.068 291.44 184.588C291.632 184.108 291.728 183.512 291.728 182.8C291.728 182.088 291.632 181.492 291.44 181.012C291.256 180.532 290.996 180.172 290.66 179.932C290.332 179.692 289.948 179.572 289.508 179.572C289.068 179.572 288.68 179.692 288.344 179.932C288.008 180.172 287.744 180.532 287.552 181.012C287.368 181.492 287.276 182.088 287.276 182.8C287.276 183.512 287.368 184.108 287.552 184.588C287.744 185.068 288.008 185.428 288.344 185.668C288.68 185.908 289.068 186.028 289.508 186.028ZM295.232 187L300.968 178.6H301.892L296.156 187H295.232ZM295.904 183.112C295.52 183.112 295.18 183.016 294.884 182.824C294.588 182.632 294.356 182.364 294.188 182.02C294.028 181.676 293.948 181.276 293.948 180.82C293.948 180.364 294.028 179.964 294.188 179.62C294.356 179.276 294.588 179.008 294.884 178.816C295.18 178.624 295.52 178.528 295.904 178.528C296.296 178.528 296.636 178.624 296.924 178.816C297.22 179.008 297.448 179.276 297.608 179.62C297.768 179.964 297.848 180.364 297.848 180.82C297.848 181.276 297.768 181.676 297.608 182.02C297.448 182.364 297.22 182.632 296.924 182.824C296.636 183.016 296.296 183.112 295.904 183.112ZM295.904 182.428C296.272 182.428 296.56 182.288 296.768 182.008C296.976 181.72 297.08 181.324 297.08 180.82C297.08 180.316 296.976 179.924 296.768 179.644C296.56 179.356 296.272 179.212 295.904 179.212C295.544 179.212 295.256 179.356 295.04 179.644C294.832 179.924 294.728 180.316 294.728 180.82C294.728 181.316 294.832 181.708 295.04 181.996C295.256 182.284 295.544 182.428 295.904 182.428ZM301.22 187.072C300.836 187.072 300.496 186.976 300.2 186.784C299.904 186.592 299.676 186.324 299.516 185.98C299.356 185.636 299.276 185.236 299.276 184.78C299.276 184.324 299.356 183.924 299.516 183.58C299.676 183.236 299.904 182.968 300.2 182.776C300.496 182.584 300.836 182.488 301.22 182.488C301.612 182.488 301.952 182.584 302.24 182.776C302.536 182.968 302.764 183.236 302.924 183.58C303.092 183.924 303.176 184.324 303.176 184.78C303.176 185.236 303.092 185.636 302.924 185.98C302.764 186.324 302.536 186.592 302.24 186.784C301.952 186.976 301.612 187.072 301.22 187.072ZM301.22 186.388C301.58 186.388 301.864 186.248 302.072 185.968C302.288 185.68 302.396 185.284 302.396 184.78C302.396 184.284 302.288 183.892 302.072 183.604C301.864 183.316 301.58 183.172 301.22 183.172C300.86 183.172 300.572 183.316 300.356 183.604C300.148 183.884 300.044 184.276 300.044 184.78C300.044 185.284 300.148 185.68 300.356 185.968C300.572 186.248 300.86 186.388 301.22 186.388Z" fill="black"/>
<path d="M283.528 222L287.092 214.104L287.404 214.644H282.412L283.012 214.056V216.144H281.86V213.6H288.196V214.416L284.8 222H283.528ZM288.687 223.776L289.287 221.352L289.443 222.048C289.211 222.048 289.015 221.976 288.855 221.832C288.703 221.688 288.627 221.492 288.627 221.244C288.627 221.004 288.703 220.808 288.855 220.656C289.015 220.504 289.207 220.428 289.431 220.428C289.663 220.428 289.851 220.508 289.995 220.668C290.139 220.82 290.211 221.012 290.211 221.244C290.211 221.324 290.203 221.404 290.187 221.484C290.179 221.556 290.159 221.644 290.127 221.748C290.103 221.844 290.063 221.964 290.007 222.108L289.443 223.776H288.687ZM294.058 222.096C293.466 222.096 292.89 222.004 292.33 221.82C291.778 221.636 291.326 221.388 290.974 221.076L291.526 220.128C291.806 220.392 292.17 220.608 292.618 220.776C293.066 220.944 293.542 221.028 294.046 221.028C294.686 221.028 295.178 220.892 295.522 220.62C295.866 220.348 296.038 219.984 296.038 219.528C296.038 219.216 295.962 218.944 295.81 218.712C295.658 218.48 295.394 218.304 295.018 218.184C294.65 218.056 294.142 217.992 293.494 217.992H291.586L292.03 213.6H296.77V214.644H292.474L293.098 214.056L292.75 217.524L292.126 216.948H293.746C294.586 216.948 295.262 217.056 295.774 217.272C296.286 217.488 296.658 217.788 296.89 218.172C297.122 218.548 297.238 218.984 297.238 219.48C297.238 219.96 297.122 220.4 296.89 220.8C296.658 221.192 296.306 221.508 295.834 221.748C295.37 221.98 294.778 222.096 294.058 222.096ZM299.271 222L305.007 213.6H305.931L300.195 222H299.271ZM299.943 218.112C299.559 218.112 299.219 218.016 298.923 217.824C298.627 217.632 298.395 217.364 298.227 217.02C298.067 216.676 297.987 216.276 297.987 215.82C297.987 215.364 298.067 214.964 298.227 214.62C298.395 214.276 298.627 214.008 298.923 213.816C299.219 213.624 299.559 213.528 299.943 213.528C300.335 213.528 300.675 213.624 300.963 213.816C301.259 214.008 301.487 214.276 301.647 214.62C301.807 214.964 301.887 215.364 301.887 215.82C301.887 216.276 301.807 216.676 301.647 217.02C301.487 217.364 301.259 217.632 300.963 217.824C300.675 218.016 300.335 218.112 299.943 218.112ZM299.943 217.428C300.311 217.428 300.599 217.288 300.807 217.008C301.015 216.72 301.119 216.324 301.119 215.82C301.119 215.316 301.015 214.924 300.807 214.644C300.599 214.356 300.311 214.212 299.943 214.212C299.583 214.212 299.295 214.356 299.079 214.644C298.871 214.924 298.767 215.316 298.767 215.82C298.767 216.316 298.871 216.708 299.079 216.996C299.295 217.284 299.583 217.428 299.943 217.428ZM305.259 222.072C304.875 222.072 304.535 221.976 304.239 221.784C303.943 221.592 303.715 221.324 303.555 220.98C303.395 220.636 303.315 220.236 303.315 219.78C303.315 219.324 303.395 218.924 303.555 218.58C303.715 218.236 303.943 217.968 304.239 217.776C304.535 217.584 304.875 217.488 305.259 217.488C305.651 217.488 305.991 217.584 306.279 217.776C306.575 217.968 306.803 218.236 306.963 218.58C307.131 218.924 307.215 219.324 307.215 219.78C307.215 220.236 307.131 220.636 306.963 220.98C306.803 221.324 306.575 221.592 306.279 221.784C305.991 221.976 305.651 222.072 305.259 222.072ZM305.259 221.388C305.619 221.388 305.903 221.248 306.111 220.968C306.327 220.68 306.435 220.284 306.435 219.78C306.435 219.284 306.327 218.892 306.111 218.604C305.903 218.316 305.619 218.172 305.259 218.172C304.899 218.172 304.611 218.316 304.395 218.604C304.187 218.884 304.083 219.276 304.083 219.78C304.083 220.284 304.187 220.68 304.395 220.968C304.611 221.248 304.899 221.388 305.259 221.388Z" fill="black"/>
</svg>
