<svg width="94" height="18" viewBox="0 0 94 18" fill="none" xmlns="http://www.w3.org/2000/svg">
<path d="M0.692 13V0.399999H5.876C6.992 0.399999 7.946 0.579999 8.738 0.94C9.542 1.3 10.16 1.816 10.592 2.488C11.024 3.16 11.24 3.958 11.24 4.882C11.24 5.806 11.024 6.604 10.592 7.276C10.16 7.948 9.542 8.464 8.738 8.824C7.946 9.184 6.992 9.364 5.876 9.364H1.988L3.032 8.266V13H0.692ZM3.032 8.518L1.988 7.384H5.768C6.8 7.384 7.574 7.168 8.09 6.736C8.618 6.292 8.882 5.674 8.882 4.882C8.882 4.078 8.618 3.46 8.09 3.028C7.574 2.596 6.8 2.38 5.768 2.38H1.988L3.032 1.228V8.518ZM13.2729 13V3.388H15.4149V6.034L15.1629 5.26C15.4509 4.612 15.9009 4.12 16.5129 3.784C17.1369 3.448 17.9109 3.28 18.8349 3.28V5.422C18.7389 5.398 18.6489 5.386 18.5649 5.386C18.4809 5.374 18.3969 5.368 18.3129 5.368C17.4609 5.368 16.7829 5.62 16.2789 6.124C15.7749 6.616 15.5229 7.354 15.5229 8.338V13H13.2729ZM25.1737 13.126C24.1057 13.126 23.1697 12.916 22.3657 12.496C21.5737 12.064 20.9557 11.476 20.5117 10.732C20.0797 9.988 19.8637 9.142 19.8637 8.194C19.8637 7.234 20.0737 6.388 20.4937 5.656C20.9257 4.912 21.5137 4.33 22.2577 3.91C23.0137 3.49 23.8717 3.28 24.8317 3.28C25.7677 3.28 26.6017 3.484 27.3337 3.892C28.0657 4.3 28.6417 4.876 29.0617 5.62C29.4817 6.364 29.6917 7.24 29.6917 8.248C29.6917 8.344 29.6857 8.452 29.6737 8.572C29.6737 8.692 29.6677 8.806 29.6557 8.914H21.6457V7.42H28.4677L27.5857 7.888C27.5977 7.336 27.4837 6.85 27.2437 6.43C27.0037 6.01 26.6737 5.68 26.2537 5.44C25.8457 5.2 25.3717 5.08 24.8317 5.08C24.2797 5.08 23.7937 5.2 23.3737 5.44C22.9657 5.68 22.6417 6.016 22.4017 6.448C22.1737 6.868 22.0597 7.366 22.0597 7.942V8.302C22.0597 8.878 22.1917 9.388 22.4557 9.832C22.7197 10.276 23.0917 10.618 23.5717 10.858C24.0517 11.098 24.6037 11.218 25.2277 11.218C25.7677 11.218 26.2537 11.134 26.6857 10.966C27.1177 10.798 27.5017 10.534 27.8377 10.174L29.0437 11.56C28.6117 12.064 28.0657 12.454 27.4057 12.73C26.7577 12.994 26.0137 13.126 25.1737 13.126ZM34.823 13.126C34.019 13.126 33.245 13.024 32.501 12.82C31.769 12.604 31.187 12.346 30.755 12.046L31.619 10.336C32.051 10.612 32.567 10.84 33.167 11.02C33.767 11.2 34.367 11.29 34.967 11.29C35.675 11.29 36.185 11.194 36.497 11.002C36.821 10.81 36.983 10.552 36.983 10.228C36.983 9.964 36.875 9.766 36.659 9.634C36.443 9.49 36.161 9.382 35.813 9.31C35.465 9.238 35.075 9.172 34.643 9.112C34.223 9.052 33.797 8.974 33.365 8.878C32.945 8.77 32.561 8.62 32.213 8.428C31.865 8.224 31.583 7.954 31.367 7.618C31.151 7.282 31.043 6.838 31.043 6.286C31.043 5.674 31.217 5.146 31.565 4.702C31.913 4.246 32.399 3.898 33.023 3.658C33.659 3.406 34.409 3.28 35.273 3.28C35.921 3.28 36.575 3.352 37.235 3.496C37.895 3.64 38.441 3.844 38.873 4.108L38.009 5.818C37.553 5.542 37.091 5.356 36.623 5.26C36.167 5.152 35.711 5.098 35.255 5.098C34.571 5.098 34.061 5.2 33.725 5.404C33.401 5.608 33.239 5.866 33.239 6.178C33.239 6.466 33.347 6.682 33.563 6.826C33.779 6.97 34.061 7.084 34.409 7.168C34.757 7.252 35.141 7.324 35.561 7.384C35.993 7.432 36.419 7.51 36.839 7.618C37.259 7.726 37.643 7.876 37.991 8.068C38.351 8.248 38.639 8.506 38.855 8.842C39.071 9.178 39.179 9.616 39.179 10.156C39.179 10.756 38.999 11.278 38.639 11.722C38.291 12.166 37.793 12.514 37.145 12.766C36.497 13.006 35.723 13.126 34.823 13.126ZM45.6346 13.126C44.5666 13.126 43.6306 12.916 42.8266 12.496C42.0346 12.064 41.4166 11.476 40.9726 10.732C40.5406 9.988 40.3246 9.142 40.3246 8.194C40.3246 7.234 40.5346 6.388 40.9546 5.656C41.3866 4.912 41.9746 4.33 42.7186 3.91C43.4746 3.49 44.3326 3.28 45.2926 3.28C46.2286 3.28 47.0626 3.484 47.7946 3.892C48.5266 4.3 49.1026 4.876 49.5226 5.62C49.9426 6.364 50.1526 7.24 50.1526 8.248C50.1526 8.344 50.1466 8.452 50.1346 8.572C50.1346 8.692 50.1286 8.806 50.1166 8.914H42.1066V7.42H48.9286L48.0466 7.888C48.0586 7.336 47.9446 6.85 47.7046 6.43C47.4646 6.01 47.1346 5.68 46.7146 5.44C46.3066 5.2 45.8326 5.08 45.2926 5.08C44.7406 5.08 44.2546 5.2 43.8346 5.44C43.4266 5.68 43.1026 6.016 42.8626 6.448C42.6346 6.868 42.5206 7.366 42.5206 7.942V8.302C42.5206 8.878 42.6526 9.388 42.9166 9.832C43.1806 10.276 43.5526 10.618 44.0326 10.858C44.5126 11.098 45.0646 11.218 45.6886 11.218C46.2286 11.218 46.7146 11.134 47.1466 10.966C47.5786 10.798 47.9626 10.534 48.2986 10.174L49.5046 11.56C49.0726 12.064 48.5266 12.454 47.8666 12.73C47.2186 12.994 46.4746 13.126 45.6346 13.126ZM57.7679 3.28C58.5359 3.28 59.2199 3.43 59.8199 3.73C60.4319 4.03 60.9119 4.492 61.2599 5.116C61.6079 5.728 61.7819 6.52 61.7819 7.492V13H59.5319V7.78C59.5319 6.928 59.3279 6.292 58.9199 5.872C58.5239 5.452 57.9659 5.242 57.2459 5.242C56.7179 5.242 56.2499 5.35 55.8419 5.566C55.4339 5.782 55.1159 6.106 54.8879 6.538C54.6719 6.958 54.5639 7.492 54.5639 8.14V13H52.3139V3.388H54.4559V5.98L54.0779 5.188C54.4139 4.576 54.8999 4.108 55.5359 3.784C56.1839 3.448 56.9279 3.28 57.7679 3.28ZM69.0637 13.126C68.0557 13.126 67.1557 12.916 66.3637 12.496C65.5837 12.064 64.9717 11.476 64.5277 10.732C64.0837 9.988 63.8617 9.142 63.8617 8.194C63.8617 7.234 64.0837 6.388 64.5277 5.656C64.9717 4.912 65.5837 4.33 66.3637 3.91C67.1557 3.49 68.0557 3.28 69.0637 3.28C69.9997 3.28 70.8217 3.472 71.5297 3.856C72.2497 4.228 72.7957 4.78 73.1677 5.512L71.4397 6.52C71.1517 6.064 70.7977 5.728 70.3777 5.512C69.9697 5.296 69.5257 5.188 69.0457 5.188C68.4937 5.188 67.9957 5.308 67.5517 5.548C67.1077 5.788 66.7597 6.136 66.5077 6.592C66.2557 7.036 66.1297 7.57 66.1297 8.194C66.1297 8.818 66.2557 9.358 66.5077 9.814C66.7597 10.258 67.1077 10.6 67.5517 10.84C67.9957 11.08 68.4937 11.2 69.0457 11.2C69.5257 11.2 69.9697 11.092 70.3777 10.876C70.7977 10.66 71.1517 10.324 71.4397 9.868L73.1677 10.876C72.7957 11.596 72.2497 12.154 71.5297 12.55C70.8217 12.934 69.9997 13.126 69.0637 13.126ZM68.1277 17.104C67.8037 17.104 67.5037 17.068 67.2277 16.996C66.9517 16.936 66.6997 16.846 66.4717 16.726L66.8857 15.664C67.0777 15.76 67.2697 15.832 67.4617 15.88C67.6657 15.928 67.8817 15.952 68.1097 15.952C68.4577 15.952 68.7037 15.892 68.8477 15.772C68.9917 15.652 69.0637 15.496 69.0637 15.304C69.0637 15.124 68.9857 14.98 68.8297 14.872C68.6857 14.764 68.4457 14.71 68.1097 14.71H67.5517L68.0377 12.874H69.2617L69.0097 13.882C69.5377 13.942 69.9277 14.11 70.1797 14.386C70.4437 14.674 70.5757 15.01 70.5757 15.394C70.5757 15.922 70.3537 16.336 69.9097 16.636C69.4657 16.948 68.8717 17.104 68.1277 17.104ZM81.0347 13V11.056L80.9087 10.642V7.24C80.9087 6.58 80.7107 6.07 80.3147 5.71C79.9187 5.338 79.3187 5.152 78.5147 5.152C77.9747 5.152 77.4407 5.236 76.9127 5.404C76.3967 5.572 75.9587 5.806 75.5987 6.106L74.7167 4.468C75.2327 4.072 75.8447 3.778 76.5527 3.586C77.2727 3.382 78.0167 3.28 78.7847 3.28C80.1767 3.28 81.2507 3.616 82.0067 4.288C82.7747 4.948 83.1587 5.974 83.1587 7.366V13H81.0347ZM78.0107 13.126C77.2907 13.126 76.6607 13.006 76.1207 12.766C75.5807 12.514 75.1607 12.172 74.8607 11.74C74.5727 11.296 74.4287 10.798 74.4287 10.246C74.4287 9.706 74.5547 9.22 74.8067 8.788C75.0707 8.356 75.4967 8.014 76.0847 7.762C76.6727 7.51 77.4527 7.384 78.4247 7.384H81.2147V8.878H78.5867C77.8187 8.878 77.3027 9.004 77.0387 9.256C76.7747 9.496 76.6427 9.796 76.6427 10.156C76.6427 10.564 76.8047 10.888 77.1287 11.128C77.4527 11.368 77.9027 11.488 78.4787 11.488C79.0307 11.488 79.5227 11.362 79.9547 11.11C80.3987 10.858 80.7167 10.486 80.9087 9.994L81.2867 11.344C81.0707 11.908 80.6807 12.346 80.1167 12.658C79.5647 12.97 78.8627 13.126 78.0107 13.126ZM89.0163 13.126C88.2123 13.126 87.4383 13.024 86.6943 12.82C85.9623 12.604 85.3803 12.346 84.9483 12.046L85.8123 10.336C86.2443 10.612 86.7603 10.84 87.3603 11.02C87.9603 11.2 88.5603 11.29 89.1603 11.29C89.8683 11.29 90.3783 11.194 90.6903 11.002C91.0143 10.81 91.1763 10.552 91.1763 10.228C91.1763 9.964 91.0683 9.766 90.8523 9.634C90.6363 9.49 90.3543 9.382 90.0063 9.31C89.6583 9.238 89.2683 9.172 88.8363 9.112C88.4163 9.052 87.9903 8.974 87.5583 8.878C87.1383 8.77 86.7543 8.62 86.4063 8.428C86.0583 8.224 85.7763 7.954 85.5603 7.618C85.3443 7.282 85.2363 6.838 85.2363 6.286C85.2363 5.674 85.4103 5.146 85.7583 4.702C86.1063 4.246 86.5923 3.898 87.2163 3.658C87.8523 3.406 88.6023 3.28 89.4663 3.28C90.1143 3.28 90.7683 3.352 91.4283 3.496C92.0883 3.64 92.6343 3.844 93.0663 4.108L92.2023 5.818C91.7463 5.542 91.2843 5.356 90.8163 5.26C90.3603 5.152 89.9043 5.098 89.4483 5.098C88.7643 5.098 88.2543 5.2 87.9183 5.404C87.5943 5.608 87.4323 5.866 87.4323 6.178C87.4323 6.466 87.5403 6.682 87.7563 6.826C87.9723 6.97 88.2543 7.084 88.6023 7.168C88.9503 7.252 89.3343 7.324 89.7543 7.384C90.1863 7.432 90.6123 7.51 91.0323 7.618C91.4523 7.726 91.8363 7.876 92.1843 8.068C92.5443 8.248 92.8323 8.506 93.0483 8.842C93.2643 9.178 93.3723 9.616 93.3723 10.156C93.3723 10.756 93.1923 11.278 92.8323 11.722C92.4843 12.166 91.9863 12.514 91.3383 12.766C90.6903 13.006 89.9163 13.126 89.0163 13.126Z" fill="#EFA570"/>
</svg>
