<svg width="272" height="184" viewBox="0 0 272 184" fill="none" xmlns="http://www.w3.org/2000/svg">
<path d="M114.192 34.776C106.427 31.7893 99.088 30.296 92.176 30.296C85.3493 30.296 80.016 31.7467 76.176 34.648C72.336 37.5493 70.416 41.56 70.416 46.68C70.416 52.9093 73.6587 57.7307 80.144 61.144C83.0453 62.5947 86.2027 63.96 89.616 65.24C93.1147 66.4347 96.6133 67.8 100.112 69.336C103.611 70.872 106.811 72.6213 109.712 74.584C112.613 76.5467 114.96 79.2773 116.752 82.776C118.544 86.1893 119.44 90.584 119.44 95.96C119.44 101.251 117.947 105.773 114.96 109.528C111.973 113.283 108.347 115.843 104.08 117.208C99.8987 118.488 94.992 119.128 89.36 119.128C78.864 119.128 69.904 116.525 62.48 111.32L63.12 110.296C65.936 112.515 69.5627 114.349 74 115.8C78.5227 117.165 83.1307 117.848 87.824 117.848C94.736 117.848 100.624 116.269 105.488 113.112C110.437 109.869 112.912 105.133 112.912 98.904C112.912 92.0773 109.669 86.744 103.184 82.904C100.283 81.1973 97.0827 79.6187 93.584 78.168C90.1707 76.7173 86.7147 75.224 83.216 73.688C79.7173 72.0667 76.5173 70.2747 73.616 68.312C67.1307 64.0453 63.888 57.9867 63.888 50.136C63.888 43.9067 65.9787 38.872 70.16 35.032C74.3413 31.1067 80.6133 29.144 88.976 29.144C97.424 29.144 106 30.5947 114.704 33.496L114.192 34.776Z" fill="#709BEF"/>
<path d="M166.211 122.838C154.243 122.838 145.379 119.446 139.619 112.662C137.571 110.23 135.907 106.998 134.627 102.966C133.347 98.9345 132.707 94.0385 132.707 88.2785C132.707 82.5185 133.635 77.3665 135.491 72.8225C137.411 68.2145 140.003 64.6625 143.267 62.1665C149.603 57.4945 157.251 55.1585 166.211 55.1585C169.091 55.1585 171.907 55.3825 174.659 55.8305C177.411 56.2145 179.459 56.6305 180.803 57.0785L182.819 57.7505L182.531 58.7105C177.539 56.9825 172.099 56.1185 166.211 56.1185C159.427 56.1185 153.763 58.3265 149.219 62.7425C145.763 66.0065 143.331 70.8065 141.923 77.1425C141.091 80.7265 140.675 85.1105 140.675 90.2945C140.675 95.4785 141.411 100.278 142.883 104.694C144.355 109.046 146.019 112.278 147.875 114.39C149.795 116.502 152.099 118.198 154.787 119.478C157.475 120.694 159.619 121.398 161.219 121.59C162.819 121.782 164.707 121.878 166.883 121.878C169.123 121.878 172.099 121.622 175.811 121.11V101.334H164.195V100.374H187.907V101.334H183.779V120.246C178.915 121.974 173.059 122.838 166.211 122.838Z" fill="#709BEF"/>
<path d="M176.447 102.139H176.015L186.779 76.9393L187.175 76.7593L196.247 102.139H193.187L190.379 94.2193H179.867L176.447 102.139ZM185.663 80.8273L180.011 93.8593H190.271L185.663 80.8273Z" fill="#709BEF"/>
<path d="M123.831 119.764V67.3999H131.876V119.764H123.831ZM127.922 58.6726C126.354 58.6726 125.001 58.1385 123.865 57.0704C122.751 56.0022 122.195 54.7181 122.195 53.2181C122.195 51.7181 122.751 50.434 123.865 49.3658C125.001 48.2976 126.354 47.7635 127.922 47.7635C129.49 47.7635 130.831 48.2976 131.945 49.3658C133.081 50.434 133.649 51.7181 133.649 53.2181C133.649 54.7181 133.081 56.0022 131.945 57.0704C130.831 58.1385 129.49 58.6726 127.922 58.6726Z" fill="#709BEF"/>
<path d="M31.8848 150.107C31.502 150.107 31.1445 150.066 30.8125 149.984C30.4844 149.898 30.2207 149.797 30.0215 149.679C29.8262 149.558 29.7285 149.449 29.7285 149.351C29.7285 149.297 29.75 149.224 29.793 149.134C29.8398 149.045 29.8926 148.965 29.9512 148.894C30.0098 148.824 30.0566 148.789 30.0918 148.789C30.123 148.789 30.1914 148.82 30.2969 148.883C30.5391 149.008 30.7793 149.111 31.0176 149.193C31.2559 149.275 31.5449 149.316 31.8848 149.316C32.1504 149.316 32.3867 149.265 32.5938 149.164C32.8008 149.062 32.9609 148.92 33.0742 148.736C33.1914 148.549 33.25 148.334 33.25 148.091C33.25 147.834 33.1797 147.621 33.0391 147.453C32.9023 147.281 32.7344 147.146 32.5352 147.049C32.3398 146.947 32.0547 146.822 31.6797 146.674C31.2734 146.517 30.9512 146.373 30.7129 146.24C30.4785 146.103 30.2773 145.906 30.1094 145.648C29.9453 145.39 29.8633 145.049 29.8633 144.623C29.8633 144.252 29.959 143.92 30.1504 143.627C30.3418 143.33 30.6133 143.099 30.9648 142.935C31.3164 142.771 31.7207 142.689 32.1777 142.689C32.3848 142.689 32.6211 142.718 32.8867 142.777C33.1523 142.832 33.3789 142.908 33.5664 143.006C33.7578 143.103 33.8535 143.211 33.8535 143.328C33.8535 143.379 33.832 143.449 33.7891 143.539C33.75 143.625 33.7031 143.703 33.6484 143.773C33.5938 143.843 33.5508 143.879 33.5195 143.879C33.4844 143.879 33.4141 143.849 33.3086 143.791C33.1328 143.697 32.959 143.623 32.7871 143.568C32.6152 143.509 32.4062 143.48 32.1602 143.48C31.7578 143.48 31.4316 143.584 31.1816 143.791C30.9355 143.998 30.8125 144.287 30.8125 144.658C30.8125 144.881 30.8672 145.064 30.9766 145.209C31.0859 145.353 31.2246 145.468 31.3926 145.554C31.5605 145.64 31.7949 145.74 32.0957 145.853C32.1152 145.857 32.1602 145.873 32.2305 145.9C32.6445 146.06 32.9824 146.216 33.2441 146.369C33.5098 146.517 33.7344 146.732 33.918 147.013C34.1055 147.295 34.1992 147.654 34.1992 148.091C34.1992 148.502 34.1035 148.859 33.9121 149.164C33.7246 149.468 33.4551 149.703 33.1035 149.867C32.7559 150.027 32.3496 150.107 31.8848 150.107ZM35.8809 143.287C35.6035 143.287 35.4648 143.211 35.4648 143.058V142.443C35.4648 142.291 35.6035 142.215 35.8809 142.215H36.0039C36.2852 142.215 36.4258 142.291 36.4258 142.443V143.058C36.4258 143.211 36.2852 143.287 36.0039 143.287H35.8809ZM35.9219 150.066C35.6445 150.066 35.5059 149.99 35.5059 149.838V144.81C35.5059 144.658 35.6445 144.582 35.9219 144.582H35.9629C36.2441 144.582 36.3848 144.658 36.3848 144.81V149.838C36.3848 149.99 36.2441 150.066 35.9629 150.066H35.9219ZM39.959 152.258C39.2949 152.258 38.7695 152.154 38.3828 151.947C37.9961 151.74 37.8027 151.414 37.8027 150.968C37.8027 150.664 37.8906 150.398 38.0664 150.172C38.2422 149.945 38.4707 149.775 38.752 149.662L38.7637 149.638C38.627 149.533 38.5215 149.412 38.4473 149.275C38.377 149.138 38.3418 148.976 38.3418 148.789C38.3418 148.336 38.5371 147.972 38.9277 147.699C38.6348 147.558 38.4121 147.361 38.2598 147.107C38.1074 146.849 38.0312 146.56 38.0312 146.24C38.0312 145.92 38.1094 145.631 38.2656 145.373C38.4258 145.115 38.6602 144.912 38.9688 144.763C39.2773 144.615 39.6484 144.541 40.082 144.541C40.3125 144.541 40.5176 144.56 40.6973 144.599H42.5898C42.6641 144.599 42.7168 144.625 42.748 144.675C42.7832 144.722 42.8008 144.8 42.8008 144.91V145.039C42.8008 145.148 42.7832 145.228 42.748 145.279C42.7168 145.326 42.6641 145.349 42.5898 145.349C42.3281 145.349 42.0859 145.34 41.8633 145.32L41.8516 145.338C41.9414 145.463 42.0078 145.603 42.0508 145.759C42.0977 145.912 42.1211 146.072 42.1211 146.24C42.1211 146.56 42.041 146.849 41.8809 147.107C41.7246 147.365 41.4922 147.568 41.1836 147.716C40.8789 147.865 40.5078 147.939 40.0703 147.939C39.7422 147.951 39.4941 148.011 39.3262 148.121C39.1621 148.23 39.0801 148.41 39.0801 148.66C39.0801 148.843 39.1387 148.984 39.2559 149.082C39.377 149.179 39.5273 149.248 39.707 149.287C39.8867 149.326 40.1367 149.363 40.457 149.398L40.7617 149.433C41.0859 149.476 41.3574 149.535 41.5762 149.609C41.7949 149.683 41.9746 149.806 42.1152 149.978C42.2598 150.15 42.332 150.386 42.332 150.687C42.332 151.191 42.1309 151.578 41.7285 151.847C41.3262 152.121 40.7363 152.258 39.959 152.258ZM40.0703 147.248C40.4531 147.248 40.7578 147.17 40.9844 147.013C41.2109 146.857 41.3242 146.601 41.3242 146.246C41.3242 145.574 40.9062 145.238 40.0703 145.238C39.2461 145.238 38.834 145.574 38.834 146.246C38.834 146.601 38.9453 146.857 39.168 147.013C39.3945 147.17 39.6953 147.248 40.0703 147.248ZM40.0703 151.549C40.5547 151.549 40.9141 151.484 41.1484 151.355C41.3828 151.23 41.5 151.039 41.5 150.781C41.5 150.613 41.4375 150.482 41.3125 150.388C41.1875 150.299 41.0332 150.234 40.8496 150.195C40.6699 150.16 40.4316 150.127 40.1348 150.095C39.9316 150.072 39.7637 150.05 39.6309 150.031C39.502 150.011 39.3828 149.984 39.2734 149.949C38.8125 150.144 38.582 150.427 38.582 150.799C38.582 151.299 39.0781 151.549 40.0703 151.549ZM45.3086 150.107C44.7773 150.107 44.3477 149.976 44.0195 149.715C43.6914 149.453 43.5273 149.064 43.5273 148.549C43.5273 148.006 43.6934 147.597 44.0254 147.324C44.3574 147.047 44.7617 146.869 45.2383 146.791C45.7188 146.709 46.3008 146.662 46.9844 146.65V146.158C46.9844 145.896 46.8945 145.687 46.7148 145.531C46.5391 145.371 46.248 145.291 45.8418 145.291C45.5332 145.291 45.2617 145.328 45.0273 145.402C44.7969 145.472 44.5801 145.558 44.377 145.66C44.291 145.703 44.2383 145.724 44.2188 145.724C44.1719 145.724 44.1191 145.691 44.0605 145.625C44.0059 145.554 43.957 145.476 43.9141 145.39C43.875 145.304 43.8555 145.242 43.8555 145.203C43.8555 145.113 43.9473 145.015 44.1309 144.91C44.3184 144.804 44.5625 144.716 44.8633 144.646C45.1641 144.576 45.4785 144.541 45.8066 144.541C46.459 144.541 46.9648 144.683 47.3242 144.968C47.6836 145.254 47.8633 145.654 47.8633 146.17V148.508C47.8633 148.961 47.8828 149.289 47.9219 149.492C47.9648 149.691 47.9863 149.8 47.9863 149.82C47.9863 149.906 47.9199 149.968 47.7871 150.008C47.6582 150.043 47.5371 150.06 47.4238 150.06C47.3301 150.06 47.2598 150.008 47.2129 149.902C47.1699 149.797 47.127 149.644 47.084 149.445L47.0605 149.328C46.8457 149.566 46.5918 149.756 46.2988 149.896C46.0098 150.037 45.6797 150.107 45.3086 150.107ZM45.3555 149.351C45.6992 149.351 45.9922 149.289 46.2344 149.164C46.4766 149.039 46.7266 148.861 46.9844 148.631V147.4C46.4688 147.404 46.0449 147.425 45.7129 147.465C45.3809 147.504 45.0898 147.603 44.8398 147.763C44.5898 147.92 44.4648 148.164 44.4648 148.496C44.4648 148.773 44.5391 148.986 44.6875 149.134C44.8398 149.279 45.0625 149.351 45.3555 149.351ZM51.877 147.652C51.8027 147.652 51.748 147.629 51.7129 147.582C51.6816 147.531 51.666 147.451 51.666 147.341V147.23C51.666 147.125 51.6816 147.047 51.7129 146.996C51.748 146.945 51.8027 146.92 51.877 146.92H53.8457C53.9199 146.92 53.9727 146.945 54.0039 146.996C54.0391 147.047 54.0566 147.125 54.0566 147.23V147.341C54.0566 147.451 54.0391 147.531 54.0039 147.582C53.9727 147.629 53.9199 147.652 53.8457 147.652H51.877ZM59.5996 150.107C59.2168 150.107 58.8594 150.066 58.5273 149.984C58.1992 149.898 57.9355 149.797 57.7363 149.679C57.541 149.558 57.4434 149.449 57.4434 149.351C57.4434 149.297 57.4648 149.224 57.5078 149.134C57.5547 149.045 57.6074 148.965 57.666 148.894C57.7246 148.824 57.7715 148.789 57.8066 148.789C57.8379 148.789 57.9062 148.82 58.0117 148.883C58.2539 149.008 58.4941 149.111 58.7324 149.193C58.9707 149.275 59.2598 149.316 59.5996 149.316C59.8652 149.316 60.1016 149.265 60.3086 149.164C60.5156 149.062 60.6758 148.92 60.7891 148.736C60.9062 148.549 60.9648 148.334 60.9648 148.091C60.9648 147.834 60.8945 147.621 60.7539 147.453C60.6172 147.281 60.4492 147.146 60.25 147.049C60.0547 146.947 59.7695 146.822 59.3945 146.674C58.9883 146.517 58.666 146.373 58.4277 146.24C58.1934 146.103 57.9922 145.906 57.8242 145.648C57.6602 145.39 57.5781 145.049 57.5781 144.623C57.5781 144.252 57.6738 143.92 57.8652 143.627C58.0566 143.33 58.3281 143.099 58.6797 142.935C59.0312 142.771 59.4355 142.689 59.8926 142.689C60.0996 142.689 60.3359 142.718 60.6016 142.777C60.8672 142.832 61.0938 142.908 61.2812 143.006C61.4727 143.103 61.5684 143.211 61.5684 143.328C61.5684 143.379 61.5469 143.449 61.5039 143.539C61.4648 143.625 61.418 143.703 61.3633 143.773C61.3086 143.843 61.2656 143.879 61.2344 143.879C61.1992 143.879 61.1289 143.849 61.0234 143.791C60.8477 143.697 60.6738 143.623 60.502 143.568C60.3301 143.509 60.1211 143.48 59.875 143.48C59.4727 143.48 59.1465 143.584 58.8965 143.791C58.6504 143.998 58.5273 144.287 58.5273 144.658C58.5273 144.881 58.582 145.064 58.6914 145.209C58.8008 145.353 58.9395 145.468 59.1074 145.554C59.2754 145.64 59.5098 145.74 59.8105 145.853C59.8301 145.857 59.875 145.873 59.9453 145.9C60.3594 146.06 60.6973 146.216 60.959 146.369C61.2246 146.517 61.4492 146.732 61.6328 147.013C61.8203 147.295 61.9141 147.654 61.9141 148.091C61.9141 148.502 61.8184 148.859 61.627 149.164C61.4395 149.468 61.1699 149.703 60.8184 149.867C60.4707 150.027 60.0645 150.107 59.5996 150.107ZM63.5957 143.287C63.3184 143.287 63.1797 143.211 63.1797 143.058V142.443C63.1797 142.291 63.3184 142.215 63.5957 142.215H63.7188C64 142.215 64.1406 142.291 64.1406 142.443V143.058C64.1406 143.211 64 143.287 63.7188 143.287H63.5957ZM63.6367 150.066C63.3594 150.066 63.2207 149.99 63.2207 149.838V144.81C63.2207 144.658 63.3594 144.582 63.6367 144.582H63.6777C63.959 144.582 64.0996 144.658 64.0996 144.81V149.838C64.0996 149.99 63.959 150.066 63.6777 150.066H63.6367ZM67.0586 150.148C66.7656 150.148 66.4922 150.111 66.2383 150.037C65.9844 149.963 65.7812 149.873 65.6289 149.767C65.4805 149.658 65.4062 149.562 65.4062 149.48C65.4062 149.441 65.4258 149.379 65.4648 149.293C65.5078 149.207 65.5566 149.131 65.6113 149.064C65.6699 148.994 65.7227 148.959 65.7695 148.959C65.7812 148.959 65.8164 148.978 65.875 149.017C66.0312 149.119 66.1953 149.205 66.3672 149.275C66.543 149.345 66.752 149.381 66.9941 149.381C67.6738 149.381 68.0137 149.099 68.0137 148.537C68.0137 148.377 67.9805 148.242 67.9141 148.133C67.8516 148.023 67.7441 147.927 67.5918 147.845C67.4434 147.759 67.2383 147.677 66.9766 147.599C66.6016 147.49 66.3086 147.365 66.0977 147.224C65.8906 147.084 65.7441 146.92 65.6582 146.732C65.5723 146.541 65.5293 146.31 65.5293 146.041C65.5293 145.752 65.6016 145.492 65.7461 145.261C65.8945 145.031 66.0996 144.851 66.3613 144.722C66.627 144.593 66.9258 144.529 67.2578 144.529C67.4883 144.529 67.709 144.55 67.9199 144.593C68.1348 144.636 68.3066 144.693 68.4355 144.763C68.5684 144.83 68.6348 144.9 68.6348 144.974C68.6348 145.029 68.6152 145.103 68.5762 145.197C68.541 145.287 68.4961 145.367 68.4414 145.437C68.3867 145.504 68.3379 145.537 68.2949 145.537C68.2871 145.537 68.2383 145.513 68.1484 145.466C68.0586 145.416 67.9434 145.371 67.8027 145.332C67.666 145.289 67.5137 145.267 67.3457 145.267C67.0801 145.267 66.8594 145.328 66.6836 145.449C66.5117 145.566 66.4258 145.724 66.4258 145.924C66.4258 146.158 66.4883 146.345 66.6133 146.486C66.7383 146.627 66.9453 146.742 67.2344 146.832C67.6797 146.968 68.0195 147.105 68.2539 147.242C68.4883 147.379 68.6543 147.547 68.752 147.746C68.8535 147.941 68.9043 148.199 68.9043 148.519C68.9043 148.824 68.8223 149.101 68.6582 149.351C68.4941 149.597 68.2715 149.793 67.9902 149.937C67.709 150.078 67.3984 150.148 67.0586 150.148ZM71.7988 150.107C71.4512 150.107 71.1406 150.002 70.8672 149.791C70.5938 149.58 70.457 149.207 70.457 148.672V145.349H69.9355C69.8613 145.349 69.8066 145.326 69.7715 145.279C69.7402 145.228 69.7246 145.148 69.7246 145.039V144.91C69.7246 144.8 69.7402 144.722 69.7715 144.675C69.8066 144.625 69.8613 144.599 69.9355 144.599H70.457L70.5801 143.509C70.5879 143.357 70.6992 143.281 70.9141 143.281H71.0137C71.123 143.281 71.2031 143.3 71.2539 143.34C71.3047 143.375 71.3301 143.431 71.3301 143.509V144.599H72.2031C72.2773 144.599 72.3301 144.625 72.3613 144.675C72.3965 144.722 72.4141 144.8 72.4141 144.91V145.039C72.4141 145.148 72.3965 145.228 72.3613 145.279C72.3301 145.326 72.2773 145.349 72.2031 145.349H71.3301V148.59C71.3301 148.875 71.3789 149.074 71.4766 149.187C71.5781 149.3 71.7148 149.357 71.8867 149.357C72.0195 149.357 72.1211 149.349 72.1914 149.334C72.2656 149.318 72.3145 149.31 72.3379 149.31C72.4004 149.31 72.4512 149.373 72.4902 149.498C72.5332 149.623 72.5547 149.722 72.5547 149.797C72.5547 150.004 72.3027 150.107 71.7988 150.107ZM76.041 150.107C75.1777 150.107 74.5352 149.883 74.1133 149.433C73.6953 148.98 73.4863 148.289 73.4863 147.359C73.4863 146.437 73.6914 145.738 74.1016 145.261C74.5117 144.781 75.1152 144.541 75.9121 144.541C76.623 144.541 77.1582 144.771 77.5176 145.232C77.8809 145.693 78.0625 146.369 78.0625 147.259C78.0625 147.299 78.041 147.353 77.998 147.424C77.959 147.49 77.9102 147.55 77.8516 147.605C77.7969 147.656 77.75 147.681 77.7109 147.681H74.4238C74.4668 148.263 74.6152 148.689 74.8691 148.959C75.127 149.224 75.5137 149.357 76.0293 149.357C76.3184 149.357 76.5664 149.322 76.7734 149.252C76.9844 149.181 77.1875 149.095 77.3828 148.994C77.4023 148.986 77.4316 148.972 77.4707 148.953C77.5098 148.933 77.5371 148.924 77.5527 148.924C77.5957 148.924 77.6445 148.959 77.6992 149.029C77.7578 149.095 77.8066 149.172 77.8457 149.258C77.8887 149.34 77.9102 149.4 77.9102 149.439C77.9102 149.525 77.8242 149.621 77.6523 149.726C77.4805 149.832 77.25 149.922 76.9609 149.996C76.6758 150.07 76.3691 150.107 76.041 150.107ZM77.1309 146.931C77.1309 145.838 76.7148 145.291 75.8828 145.291C74.9883 145.291 74.502 145.838 74.4238 146.931H77.1309ZM84.9531 144.541C85.3867 144.541 85.7676 144.664 86.0957 144.91C86.4238 145.156 86.5879 145.593 86.5879 146.222V149.838C86.5879 149.916 86.5547 149.974 86.4883 150.013C86.4219 150.049 86.3164 150.066 86.1719 150.066H86.1367C85.9883 150.066 85.8809 150.049 85.8145 150.013C85.748 149.974 85.7148 149.916 85.7148 149.838V146.31C85.7148 145.994 85.6289 145.746 85.457 145.566C85.2891 145.386 85.041 145.297 84.7129 145.297C84.4395 145.297 84.1914 145.377 83.9688 145.537C83.75 145.693 83.5723 145.857 83.4355 146.029C83.4434 146.123 83.4473 146.193 83.4473 146.24V149.838C83.4473 149.99 83.3066 150.066 83.0254 150.066H82.9844C82.707 150.066 82.5684 149.99 82.5684 149.838V146.31C82.5684 145.994 82.4824 145.746 82.3105 145.566C82.1426 145.386 81.8945 145.297 81.5664 145.297C81.3398 145.297 81.1328 145.351 80.9453 145.461C80.7578 145.566 80.6016 145.681 80.4766 145.806C80.3555 145.931 80.2949 146.002 80.2949 146.017V149.838C80.2949 149.916 80.2617 149.974 80.1953 150.013C80.1328 150.049 80.0293 150.066 79.8848 150.066H79.8379C79.6934 150.066 79.5879 150.049 79.5215 150.013C79.459 149.974 79.4277 149.916 79.4277 149.838V146.181C79.4277 145.728 79.4062 145.402 79.3633 145.203C79.3203 145 79.2988 144.888 79.2988 144.869C79.2988 144.783 79.3633 144.722 79.4922 144.687C79.625 144.648 79.748 144.629 79.8613 144.629C79.959 144.629 80.0312 144.681 80.0781 144.787C80.125 144.892 80.1582 145 80.1777 145.109C80.2012 145.218 80.2168 145.289 80.2246 145.32C80.416 145.097 80.6504 144.912 80.9277 144.763C81.2051 144.615 81.498 144.541 81.8066 144.541C82.123 144.541 82.418 144.605 82.6914 144.734C82.9648 144.859 83.166 145.082 83.2949 145.402C83.5098 145.148 83.7617 144.941 84.0508 144.781C84.3398 144.621 84.6406 144.541 84.9531 144.541ZM89.6641 150.107C89.1328 150.107 88.7031 149.976 88.375 149.715C88.0469 149.453 87.8828 149.064 87.8828 148.549C87.8828 148.006 88.0488 147.597 88.3809 147.324C88.7129 147.047 89.1172 146.869 89.5938 146.791C90.0742 146.709 90.6562 146.662 91.3398 146.65V146.158C91.3398 145.896 91.25 145.687 91.0703 145.531C90.8945 145.371 90.6035 145.291 90.1973 145.291C89.8887 145.291 89.6172 145.328 89.3828 145.402C89.1523 145.472 88.9355 145.558 88.7324 145.66C88.6465 145.703 88.5938 145.724 88.5742 145.724C88.5273 145.724 88.4746 145.691 88.416 145.625C88.3613 145.554 88.3125 145.476 88.2695 145.39C88.2305 145.304 88.2109 145.242 88.2109 145.203C88.2109 145.113 88.3027 145.015 88.4863 144.91C88.6738 144.804 88.918 144.716 89.2188 144.646C89.5195 144.576 89.834 144.541 90.1621 144.541C90.8145 144.541 91.3203 144.683 91.6797 144.968C92.0391 145.254 92.2188 145.654 92.2188 146.17V148.508C92.2188 148.961 92.2383 149.289 92.2773 149.492C92.3203 149.691 92.3418 149.8 92.3418 149.82C92.3418 149.906 92.2754 149.968 92.1426 150.008C92.0137 150.043 91.8926 150.06 91.7793 150.06C91.6855 150.06 91.6152 150.008 91.5684 149.902C91.5254 149.797 91.4824 149.644 91.4395 149.445L91.416 149.328C91.2012 149.566 90.9473 149.756 90.6543 149.896C90.3652 150.037 90.0352 150.107 89.6641 150.107ZM89.7109 149.351C90.0547 149.351 90.3477 149.289 90.5898 149.164C90.832 149.039 91.082 148.861 91.3398 148.631V147.4C90.8242 147.404 90.4004 147.425 90.0684 147.465C89.7363 147.504 89.4453 147.603 89.1953 147.763C88.9453 147.92 88.8203 148.164 88.8203 148.496C88.8203 148.773 88.8945 148.986 89.043 149.134C89.1953 149.279 89.418 149.351 89.7109 149.351ZM96.9941 150.066C96.7129 150.066 96.5723 149.99 96.5723 149.838V142.965C96.5723 142.808 96.7129 142.73 96.9941 142.73H97.0762C97.3535 142.73 97.4922 142.808 97.4922 142.965V149.838C97.4922 149.99 97.3535 150.066 97.0762 150.066H96.9941ZM99.8242 150.066C99.6758 150.066 99.5684 150.049 99.502 150.013C99.4355 149.974 99.4023 149.916 99.4023 149.838V146.181C99.4023 145.728 99.3809 145.402 99.3379 145.203C99.2949 145 99.2734 144.888 99.2734 144.869C99.2734 144.783 99.3379 144.722 99.4668 144.687C99.5996 144.648 99.7246 144.629 99.8418 144.629C99.9395 144.629 100.012 144.681 100.059 144.787C100.105 144.892 100.139 145 100.158 145.109C100.182 145.218 100.197 145.289 100.205 145.32C100.424 145.074 100.676 144.883 100.961 144.746C101.25 144.609 101.541 144.541 101.834 144.541C102.365 144.541 102.779 144.691 103.076 144.992C103.377 145.289 103.527 145.699 103.527 146.222V149.838C103.527 149.916 103.494 149.974 103.428 150.013C103.361 150.049 103.256 150.066 103.111 150.066H103.064C102.924 150.066 102.82 150.049 102.754 150.013C102.688 149.974 102.654 149.916 102.654 149.838V146.31C102.654 145.99 102.561 145.742 102.373 145.566C102.189 145.386 101.93 145.297 101.594 145.297C101.359 145.297 101.123 145.363 100.885 145.496C100.65 145.625 100.447 145.802 100.275 146.029V149.838C100.275 149.916 100.242 149.974 100.176 150.013C100.109 150.049 100.006 150.066 99.8652 150.066H99.8242ZM106.768 150.107C106.42 150.107 106.109 150.002 105.836 149.791C105.562 149.58 105.426 149.207 105.426 148.672V145.349H104.904C104.83 145.349 104.775 145.326 104.74 145.279C104.709 145.228 104.693 145.148 104.693 145.039V144.91C104.693 144.8 104.709 144.722 104.74 144.675C104.775 144.625 104.83 144.599 104.904 144.599H105.426L105.549 143.509C105.557 143.357 105.668 143.281 105.883 143.281H105.982C106.092 143.281 106.172 143.3 106.223 143.34C106.273 143.375 106.299 143.431 106.299 143.509V144.599H107.172C107.246 144.599 107.299 144.625 107.33 144.675C107.365 144.722 107.383 144.8 107.383 144.91V145.039C107.383 145.148 107.365 145.228 107.33 145.279C107.299 145.326 107.246 145.349 107.172 145.349H106.299V148.59C106.299 148.875 106.348 149.074 106.445 149.187C106.547 149.3 106.684 149.357 106.855 149.357C106.988 149.357 107.09 149.349 107.16 149.334C107.234 149.318 107.283 149.31 107.307 149.31C107.369 149.31 107.42 149.373 107.459 149.498C107.502 149.623 107.523 149.722 107.523 149.797C107.523 150.004 107.271 150.107 106.768 150.107ZM111.01 150.107C110.146 150.107 109.504 149.883 109.082 149.433C108.664 148.98 108.455 148.289 108.455 147.359C108.455 146.437 108.66 145.738 109.07 145.261C109.48 144.781 110.084 144.541 110.881 144.541C111.592 144.541 112.127 144.771 112.486 145.232C112.85 145.693 113.031 146.369 113.031 147.259C113.031 147.299 113.01 147.353 112.967 147.424C112.928 147.49 112.879 147.55 112.82 147.605C112.766 147.656 112.719 147.681 112.68 147.681H109.393C109.436 148.263 109.584 148.689 109.838 148.959C110.096 149.224 110.482 149.357 110.998 149.357C111.287 149.357 111.535 149.322 111.742 149.252C111.953 149.181 112.156 149.095 112.352 148.994C112.371 148.986 112.4 148.972 112.439 148.953C112.479 148.933 112.506 148.924 112.521 148.924C112.564 148.924 112.613 148.959 112.668 149.029C112.727 149.095 112.775 149.172 112.814 149.258C112.857 149.34 112.879 149.4 112.879 149.439C112.879 149.525 112.793 149.621 112.621 149.726C112.449 149.832 112.219 149.922 111.93 149.996C111.645 150.07 111.338 150.107 111.01 150.107ZM112.1 146.931C112.1 145.838 111.684 145.291 110.852 145.291C109.957 145.291 109.471 145.838 109.393 146.931H112.1ZM116.143 152.258C115.479 152.258 114.953 152.154 114.566 151.947C114.18 151.74 113.986 151.414 113.986 150.968C113.986 150.664 114.074 150.398 114.25 150.172C114.426 149.945 114.654 149.775 114.936 149.662L114.947 149.638C114.811 149.533 114.705 149.412 114.631 149.275C114.561 149.138 114.525 148.976 114.525 148.789C114.525 148.336 114.721 147.972 115.111 147.699C114.818 147.558 114.596 147.361 114.443 147.107C114.291 146.849 114.215 146.56 114.215 146.24C114.215 145.92 114.293 145.631 114.449 145.373C114.609 145.115 114.844 144.912 115.152 144.763C115.461 144.615 115.832 144.541 116.266 144.541C116.496 144.541 116.701 144.56 116.881 144.599H118.773C118.848 144.599 118.9 144.625 118.932 144.675C118.967 144.722 118.984 144.8 118.984 144.91V145.039C118.984 145.148 118.967 145.228 118.932 145.279C118.9 145.326 118.848 145.349 118.773 145.349C118.512 145.349 118.27 145.34 118.047 145.32L118.035 145.338C118.125 145.463 118.191 145.603 118.234 145.759C118.281 145.912 118.305 146.072 118.305 146.24C118.305 146.56 118.225 146.849 118.064 147.107C117.908 147.365 117.676 147.568 117.367 147.716C117.062 147.865 116.691 147.939 116.254 147.939C115.926 147.951 115.678 148.011 115.51 148.121C115.346 148.23 115.264 148.41 115.264 148.66C115.264 148.843 115.322 148.984 115.439 149.082C115.561 149.179 115.711 149.248 115.891 149.287C116.07 149.326 116.32 149.363 116.641 149.398L116.945 149.433C117.27 149.476 117.541 149.535 117.76 149.609C117.979 149.683 118.158 149.806 118.299 149.978C118.443 150.15 118.516 150.386 118.516 150.687C118.516 151.191 118.314 151.578 117.912 151.847C117.51 152.121 116.92 152.258 116.143 152.258ZM116.254 147.248C116.637 147.248 116.941 147.17 117.168 147.013C117.395 146.857 117.508 146.601 117.508 146.246C117.508 145.574 117.09 145.238 116.254 145.238C115.43 145.238 115.018 145.574 115.018 146.246C115.018 146.601 115.129 146.857 115.352 147.013C115.578 147.17 115.879 147.248 116.254 147.248ZM116.254 151.549C116.738 151.549 117.098 151.484 117.332 151.355C117.566 151.23 117.684 151.039 117.684 150.781C117.684 150.613 117.621 150.482 117.496 150.388C117.371 150.299 117.217 150.234 117.033 150.195C116.854 150.16 116.615 150.127 116.318 150.095C116.115 150.072 115.947 150.05 115.814 150.031C115.686 150.011 115.566 149.984 115.457 149.949C114.996 150.144 114.766 150.427 114.766 150.799C114.766 151.299 115.262 151.549 116.254 151.549ZM120.561 150.066C120.412 150.066 120.305 150.049 120.238 150.013C120.172 149.974 120.139 149.916 120.139 149.838V146.181C120.139 145.728 120.117 145.402 120.074 145.203C120.031 145 120.01 144.888 120.01 144.869C120.01 144.783 120.074 144.722 120.203 144.687C120.336 144.648 120.461 144.629 120.578 144.629C120.672 144.629 120.742 144.679 120.789 144.781C120.836 144.879 120.877 145.017 120.912 145.197L120.941 145.32C121.312 144.8 121.715 144.541 122.148 144.541C122.348 144.541 122.498 144.578 122.6 144.652C122.701 144.722 122.752 144.818 122.752 144.939C122.752 145.056 122.73 145.181 122.688 145.314C122.648 145.443 122.602 145.508 122.547 145.508C122.52 145.508 122.471 145.496 122.4 145.472C122.338 145.445 122.275 145.425 122.213 145.414C122.15 145.398 122.07 145.39 121.973 145.39C121.812 145.39 121.66 145.437 121.516 145.531C121.375 145.625 121.256 145.728 121.158 145.841C121.061 145.955 121.012 146.017 121.012 146.029V149.838C121.012 149.916 120.979 149.974 120.912 150.013C120.846 150.049 120.742 150.066 120.602 150.066H120.561ZM125.301 150.107C124.77 150.107 124.34 149.976 124.012 149.715C123.684 149.453 123.52 149.064 123.52 148.549C123.52 148.006 123.686 147.597 124.018 147.324C124.35 147.047 124.754 146.869 125.23 146.791C125.711 146.709 126.293 146.662 126.977 146.65V146.158C126.977 145.896 126.887 145.687 126.707 145.531C126.531 145.371 126.24 145.291 125.834 145.291C125.525 145.291 125.254 145.328 125.02 145.402C124.789 145.472 124.572 145.558 124.369 145.66C124.283 145.703 124.23 145.724 124.211 145.724C124.164 145.724 124.111 145.691 124.053 145.625C123.998 145.554 123.949 145.476 123.906 145.39C123.867 145.304 123.848 145.242 123.848 145.203C123.848 145.113 123.939 145.015 124.123 144.91C124.311 144.804 124.555 144.716 124.855 144.646C125.156 144.576 125.471 144.541 125.799 144.541C126.451 144.541 126.957 144.683 127.316 144.968C127.676 145.254 127.855 145.654 127.855 146.17V148.508C127.855 148.961 127.875 149.289 127.914 149.492C127.957 149.691 127.979 149.8 127.979 149.82C127.979 149.906 127.912 149.968 127.779 150.008C127.65 150.043 127.529 150.06 127.416 150.06C127.322 150.06 127.252 150.008 127.205 149.902C127.162 149.797 127.119 149.644 127.076 149.445L127.053 149.328C126.838 149.566 126.584 149.756 126.291 149.896C126.002 150.037 125.672 150.107 125.301 150.107ZM125.348 149.351C125.691 149.351 125.984 149.289 126.227 149.164C126.469 149.039 126.719 148.861 126.977 148.631V147.4C126.461 147.404 126.037 147.425 125.705 147.465C125.373 147.504 125.082 147.603 124.832 147.763C124.582 147.92 124.457 148.164 124.457 148.496C124.457 148.773 124.531 148.986 124.68 149.134C124.832 149.279 125.055 149.351 125.348 149.351ZM131.254 150.107C130.848 150.107 130.492 149.99 130.188 149.756C129.883 149.517 129.646 149.187 129.479 148.765C129.314 148.343 129.232 147.865 129.232 147.33C129.232 146.74 129.32 146.236 129.496 145.818C129.676 145.396 129.926 145.078 130.246 144.863C130.566 144.648 130.936 144.541 131.354 144.541C131.654 144.541 131.92 144.586 132.15 144.675C132.385 144.765 132.615 144.896 132.842 145.068V142.443C132.842 142.291 132.979 142.215 133.252 142.215H133.299C133.576 142.215 133.715 142.291 133.715 142.443V148.508C133.715 148.961 133.736 149.289 133.779 149.492C133.822 149.691 133.844 149.8 133.844 149.82C133.844 149.906 133.777 149.968 133.645 150.008C133.516 150.043 133.395 150.06 133.281 150.06C133.203 150.06 133.141 150.023 133.094 149.949C133.047 149.875 133.014 149.8 132.994 149.726C132.979 149.648 132.951 149.515 132.912 149.328C132.416 149.847 131.863 150.107 131.254 150.107ZM131.436 149.351C131.666 149.351 131.904 149.289 132.15 149.164C132.4 149.039 132.631 148.861 132.842 148.631V145.777C132.467 145.465 132.039 145.308 131.559 145.308C131.094 145.32 130.742 145.49 130.504 145.818C130.27 146.146 130.152 146.623 130.152 147.248C130.152 147.92 130.262 148.439 130.48 148.806C130.703 149.17 131.021 149.351 131.436 149.351ZM137.576 150.107C136.791 150.107 136.191 149.873 135.777 149.404C135.367 148.931 135.162 148.246 135.162 147.347C135.162 146.449 135.371 145.758 135.789 145.273C136.207 144.785 136.803 144.541 137.576 144.541C138.342 144.541 138.928 144.783 139.334 145.267C139.74 145.748 139.943 146.441 139.943 147.347C139.943 148.25 139.742 148.935 139.34 149.404C138.941 149.873 138.354 150.107 137.576 150.107ZM137.547 149.357C138.055 149.357 138.43 149.193 138.672 148.865C138.914 148.533 139.035 148.021 139.035 147.33C139.035 146.634 138.914 146.121 138.672 145.789C138.43 145.457 138.055 145.291 137.547 145.291C137.043 145.291 136.672 145.457 136.434 145.789C136.195 146.117 136.076 146.631 136.076 147.33C136.076 148.025 136.193 148.537 136.428 148.865C136.666 149.193 137.039 149.357 137.547 149.357ZM145.586 150.107C145.18 150.107 144.824 149.99 144.52 149.756C144.215 149.517 143.979 149.187 143.811 148.765C143.646 148.343 143.564 147.865 143.564 147.33C143.564 146.74 143.652 146.236 143.828 145.818C144.008 145.396 144.258 145.078 144.578 144.863C144.898 144.648 145.268 144.541 145.686 144.541C145.986 144.541 146.252 144.586 146.482 144.675C146.717 144.765 146.947 144.896 147.174 145.068V142.443C147.174 142.291 147.311 142.215 147.584 142.215H147.631C147.908 142.215 148.047 142.291 148.047 142.443V148.508C148.047 148.961 148.068 149.289 148.111 149.492C148.154 149.691 148.176 149.8 148.176 149.82C148.176 149.906 148.109 149.968 147.977 150.008C147.848 150.043 147.727 150.06 147.613 150.06C147.535 150.06 147.473 150.023 147.426 149.949C147.379 149.875 147.346 149.8 147.326 149.726C147.311 149.648 147.283 149.515 147.244 149.328C146.748 149.847 146.195 150.107 145.586 150.107ZM145.768 149.351C145.998 149.351 146.236 149.289 146.482 149.164C146.732 149.039 146.963 148.861 147.174 148.631V145.777C146.799 145.465 146.371 145.308 145.891 145.308C145.426 145.32 145.074 145.49 144.836 145.818C144.602 146.146 144.484 146.623 144.484 147.248C144.484 147.92 144.594 148.439 144.812 148.806C145.035 149.17 145.354 149.351 145.768 149.351ZM152.049 150.107C151.186 150.107 150.543 149.883 150.121 149.433C149.703 148.98 149.494 148.289 149.494 147.359C149.494 146.437 149.699 145.738 150.109 145.261C150.52 144.781 151.123 144.541 151.92 144.541C152.631 144.541 153.166 144.771 153.525 145.232C153.889 145.693 154.07 146.369 154.07 147.259C154.07 147.299 154.049 147.353 154.006 147.424C153.967 147.49 153.918 147.55 153.859 147.605C153.805 147.656 153.758 147.681 153.719 147.681H150.432C150.475 148.263 150.623 148.689 150.877 148.959C151.135 149.224 151.521 149.357 152.037 149.357C152.326 149.357 152.574 149.322 152.781 149.252C152.992 149.181 153.195 149.095 153.391 148.994C153.41 148.986 153.439 148.972 153.479 148.953C153.518 148.933 153.545 148.924 153.561 148.924C153.604 148.924 153.652 148.959 153.707 149.029C153.766 149.095 153.814 149.172 153.854 149.258C153.896 149.34 153.918 149.4 153.918 149.439C153.918 149.525 153.832 149.621 153.66 149.726C153.488 149.832 153.258 149.922 152.969 149.996C152.684 150.07 152.377 150.107 152.049 150.107ZM153.139 146.931C153.139 145.838 152.723 145.291 151.891 145.291C150.996 145.291 150.51 145.838 150.432 146.931H153.139ZM160.861 150.107C159.814 150.107 159.018 149.806 158.471 149.205C157.924 148.599 157.65 147.685 157.65 146.463C157.65 143.947 158.773 142.689 161.02 142.689C161.348 142.689 161.666 142.724 161.975 142.795C162.283 142.861 162.533 142.945 162.725 143.047C162.916 143.148 163.012 143.246 163.012 143.34C163.012 143.398 162.99 143.476 162.947 143.574C162.908 143.672 162.861 143.758 162.807 143.832C162.752 143.906 162.703 143.943 162.66 143.943C162.641 143.943 162.586 143.918 162.496 143.867C162.293 143.758 162.08 143.666 161.857 143.591C161.635 143.517 161.363 143.48 161.043 143.48C160.16 143.48 159.531 143.724 159.156 144.213C158.781 144.697 158.594 145.416 158.594 146.369C158.594 147.267 158.768 147.984 159.115 148.519C159.467 149.05 160.072 149.316 160.932 149.316C161.193 149.316 161.445 149.304 161.688 149.281C161.934 149.254 162.129 149.22 162.273 149.181V147.078H161.055C160.98 147.078 160.926 147.054 160.891 147.008C160.859 146.957 160.844 146.877 160.844 146.767V146.597C160.844 146.488 160.859 146.41 160.891 146.363C160.926 146.312 160.98 146.287 161.055 146.287H162.877C162.986 146.287 163.066 146.312 163.117 146.363C163.168 146.41 163.193 146.488 163.193 146.597V149.357C163.193 149.627 162.975 149.82 162.537 149.937C162.1 150.05 161.541 150.107 160.861 150.107ZM167.189 150.107C166.326 150.107 165.684 149.883 165.262 149.433C164.844 148.98 164.635 148.289 164.635 147.359C164.635 146.437 164.84 145.738 165.25 145.261C165.66 144.781 166.264 144.541 167.061 144.541C167.771 144.541 168.307 144.771 168.666 145.232C169.029 145.693 169.211 146.369 169.211 147.259C169.211 147.299 169.189 147.353 169.146 147.424C169.107 147.49 169.059 147.55 169 147.605C168.945 147.656 168.898 147.681 168.859 147.681H165.572C165.615 148.263 165.764 148.689 166.018 148.959C166.275 149.224 166.662 149.357 167.178 149.357C167.467 149.357 167.715 149.322 167.922 149.252C168.133 149.181 168.336 149.095 168.531 148.994C168.551 148.986 168.58 148.972 168.619 148.953C168.658 148.933 168.686 148.924 168.701 148.924C168.744 148.924 168.793 148.959 168.848 149.029C168.906 149.095 168.955 149.172 168.994 149.258C169.037 149.34 169.059 149.4 169.059 149.439C169.059 149.525 168.973 149.621 168.801 149.726C168.629 149.832 168.398 149.922 168.109 149.996C167.824 150.07 167.518 150.107 167.189 150.107ZM168.279 146.931C168.279 145.838 167.863 145.291 167.031 145.291C166.137 145.291 165.65 145.838 165.572 146.931H168.279ZM171.707 150.148C171.414 150.148 171.141 150.111 170.887 150.037C170.633 149.963 170.43 149.873 170.277 149.767C170.129 149.658 170.055 149.562 170.055 149.48C170.055 149.441 170.074 149.379 170.113 149.293C170.156 149.207 170.205 149.131 170.26 149.064C170.318 148.994 170.371 148.959 170.418 148.959C170.43 148.959 170.465 148.978 170.523 149.017C170.68 149.119 170.844 149.205 171.016 149.275C171.191 149.345 171.4 149.381 171.643 149.381C172.322 149.381 172.662 149.099 172.662 148.537C172.662 148.377 172.629 148.242 172.562 148.133C172.5 148.023 172.393 147.927 172.24 147.845C172.092 147.759 171.887 147.677 171.625 147.599C171.25 147.49 170.957 147.365 170.746 147.224C170.539 147.084 170.393 146.92 170.307 146.732C170.221 146.541 170.178 146.31 170.178 146.041C170.178 145.752 170.25 145.492 170.395 145.261C170.543 145.031 170.748 144.851 171.01 144.722C171.275 144.593 171.574 144.529 171.906 144.529C172.137 144.529 172.357 144.55 172.568 144.593C172.783 144.636 172.955 144.693 173.084 144.763C173.217 144.83 173.283 144.9 173.283 144.974C173.283 145.029 173.264 145.103 173.225 145.197C173.189 145.287 173.145 145.367 173.09 145.437C173.035 145.504 172.986 145.537 172.943 145.537C172.936 145.537 172.887 145.513 172.797 145.466C172.707 145.416 172.592 145.371 172.451 145.332C172.314 145.289 172.162 145.267 171.994 145.267C171.729 145.267 171.508 145.328 171.332 145.449C171.16 145.566 171.074 145.724 171.074 145.924C171.074 146.158 171.137 146.345 171.262 146.486C171.387 146.627 171.594 146.742 171.883 146.832C172.328 146.968 172.668 147.105 172.902 147.242C173.137 147.379 173.303 147.547 173.4 147.746C173.502 147.941 173.553 148.199 173.553 148.519C173.553 148.824 173.471 149.101 173.307 149.351C173.143 149.597 172.92 149.793 172.639 149.937C172.357 150.078 172.047 150.148 171.707 150.148ZM176.447 150.107C176.1 150.107 175.789 150.002 175.516 149.791C175.242 149.58 175.105 149.207 175.105 148.672V145.349H174.584C174.51 145.349 174.455 145.326 174.42 145.279C174.389 145.228 174.373 145.148 174.373 145.039V144.91C174.373 144.8 174.389 144.722 174.42 144.675C174.455 144.625 174.51 144.599 174.584 144.599H175.105L175.229 143.509C175.236 143.357 175.348 143.281 175.562 143.281H175.662C175.771 143.281 175.852 143.3 175.902 143.34C175.953 143.375 175.979 143.431 175.979 143.509V144.599H176.852C176.926 144.599 176.979 144.625 177.01 144.675C177.045 144.722 177.062 144.8 177.062 144.91V145.039C177.062 145.148 177.045 145.228 177.01 145.279C176.979 145.326 176.926 145.349 176.852 145.349H175.979V148.59C175.979 148.875 176.027 149.074 176.125 149.187C176.227 149.3 176.363 149.357 176.535 149.357C176.668 149.357 176.77 149.349 176.84 149.334C176.914 149.318 176.963 149.31 176.986 149.31C177.049 149.31 177.1 149.373 177.139 149.498C177.182 149.623 177.203 149.722 177.203 149.797C177.203 150.004 176.951 150.107 176.447 150.107ZM179.852 150.107C179.32 150.107 178.891 149.976 178.562 149.715C178.234 149.453 178.07 149.064 178.07 148.549C178.07 148.006 178.236 147.597 178.568 147.324C178.9 147.047 179.305 146.869 179.781 146.791C180.262 146.709 180.844 146.662 181.527 146.65V146.158C181.527 145.896 181.438 145.687 181.258 145.531C181.082 145.371 180.791 145.291 180.385 145.291C180.076 145.291 179.805 145.328 179.57 145.402C179.34 145.472 179.123 145.558 178.92 145.66C178.834 145.703 178.781 145.724 178.762 145.724C178.715 145.724 178.662 145.691 178.604 145.625C178.549 145.554 178.5 145.476 178.457 145.39C178.418 145.304 178.398 145.242 178.398 145.203C178.398 145.113 178.49 145.015 178.674 144.91C178.861 144.804 179.105 144.716 179.406 144.646C179.707 144.576 180.021 144.541 180.35 144.541C181.002 144.541 181.508 144.683 181.867 144.968C182.227 145.254 182.406 145.654 182.406 146.17V148.508C182.406 148.961 182.426 149.289 182.465 149.492C182.508 149.691 182.529 149.8 182.529 149.82C182.529 149.906 182.463 149.968 182.33 150.008C182.201 150.043 182.08 150.06 181.967 150.06C181.873 150.06 181.803 150.008 181.756 149.902C181.713 149.797 181.67 149.644 181.627 149.445L181.604 149.328C181.389 149.566 181.135 149.756 180.842 149.896C180.553 150.037 180.223 150.107 179.852 150.107ZM179.898 149.351C180.242 149.351 180.535 149.289 180.777 149.164C181.02 149.039 181.27 148.861 181.527 148.631V147.4C181.012 147.404 180.588 147.425 180.256 147.465C179.924 147.504 179.633 147.603 179.383 147.763C179.133 147.92 179.008 148.164 179.008 148.496C179.008 148.773 179.082 148.986 179.23 149.134C179.383 149.279 179.605 149.351 179.898 149.351ZM178.703 143.838C178.637 143.81 178.604 143.769 178.604 143.715C178.604 143.668 178.615 143.623 178.639 143.58C178.748 143.322 178.879 143.138 179.031 143.029C179.188 142.916 179.377 142.859 179.6 142.859C179.74 142.859 179.885 142.881 180.033 142.924C180.182 142.963 180.367 143.021 180.59 143.099C180.773 143.17 180.93 143.222 181.059 143.258C181.188 143.293 181.305 143.31 181.41 143.31C181.504 143.31 181.584 143.289 181.65 143.246C181.721 143.199 181.791 143.119 181.861 143.006C181.932 142.904 182 142.853 182.066 142.853C182.09 142.853 182.125 142.863 182.172 142.883L182.254 142.912C182.297 142.927 182.328 142.945 182.348 142.965C182.367 142.984 182.377 143.009 182.377 143.041C182.377 143.084 182.361 143.131 182.33 143.181C182.221 143.435 182.088 143.617 181.932 143.726C181.779 143.836 181.596 143.89 181.381 143.89C181.232 143.89 181.082 143.871 180.93 143.832C180.781 143.789 180.586 143.726 180.344 143.644C180.152 143.574 179.996 143.523 179.875 143.492C179.754 143.457 179.643 143.439 179.541 143.439C179.455 143.439 179.379 143.465 179.312 143.515C179.246 143.562 179.176 143.642 179.102 143.756C179.066 143.81 179.035 143.849 179.008 143.873C178.98 143.896 178.949 143.908 178.914 143.908C178.891 143.908 178.855 143.898 178.809 143.879L178.703 143.838ZM186.232 150.107C185.447 150.107 184.848 149.873 184.434 149.404C184.023 148.931 183.818 148.246 183.818 147.347C183.818 146.449 184.027 145.758 184.445 145.273C184.863 144.785 185.459 144.541 186.232 144.541C186.998 144.541 187.584 144.783 187.99 145.267C188.396 145.748 188.6 146.441 188.6 147.347C188.6 148.25 188.398 148.935 187.996 149.404C187.598 149.873 187.01 150.107 186.232 150.107ZM186.203 149.357C186.711 149.357 187.086 149.193 187.328 148.865C187.57 148.533 187.691 148.021 187.691 147.33C187.691 146.634 187.57 146.121 187.328 145.789C187.086 145.457 186.711 145.291 186.203 145.291C185.699 145.291 185.328 145.457 185.09 145.789C184.852 146.117 184.732 146.631 184.732 147.33C184.732 148.025 184.85 148.537 185.084 148.865C185.322 149.193 185.695 149.357 186.203 149.357ZM192.256 150.066C192.1 150.066 191.986 150.052 191.916 150.025C191.846 149.994 191.811 149.949 191.811 149.89C191.811 149.863 191.82 149.816 191.84 149.75L194.307 142.9C194.346 142.787 194.484 142.73 194.723 142.73H195.027C195.266 142.73 195.404 142.787 195.443 142.9L197.91 149.756C197.93 149.799 197.939 149.843 197.939 149.89C197.939 150.008 197.793 150.066 197.5 150.066H197.412C197.17 150.066 197.029 150.011 196.99 149.902L196.381 148.191H193.322L192.725 149.902C192.689 150.011 192.551 150.066 192.309 150.066H192.256ZM196.1 147.4L195.01 144.3C194.979 144.215 194.953 144.117 194.934 144.008C194.914 143.898 194.896 143.793 194.881 143.691H194.857C194.811 143.953 194.758 144.156 194.699 144.3L193.609 147.4H196.1ZM201.174 150.107C200.311 150.107 199.666 149.886 199.24 149.445C198.818 149 198.607 148.285 198.607 147.3C198.607 146.304 198.844 145.595 199.316 145.174C199.789 144.752 200.377 144.541 201.08 144.541C201.342 144.541 201.594 144.564 201.836 144.611C202.078 144.654 202.273 144.713 202.422 144.787C202.57 144.861 202.645 144.939 202.645 145.021C202.645 145.076 202.625 145.148 202.586 145.238C202.551 145.328 202.506 145.408 202.451 145.478C202.4 145.545 202.354 145.578 202.311 145.578C202.299 145.578 202.281 145.574 202.258 145.566C202.234 145.554 202.213 145.545 202.193 145.537C201.842 145.373 201.463 145.291 201.057 145.291C200.576 145.291 200.205 145.449 199.943 145.765C199.682 146.078 199.551 146.582 199.551 147.277C199.551 147.769 199.604 148.168 199.709 148.472C199.814 148.773 199.984 148.996 200.219 149.14C200.457 149.285 200.773 149.357 201.168 149.357C201.602 149.357 201.992 149.267 202.34 149.088C202.375 149.08 202.4 149.072 202.416 149.064C202.436 149.052 202.449 149.047 202.457 149.047C202.5 149.047 202.549 149.08 202.604 149.146C202.658 149.213 202.705 149.289 202.744 149.375C202.787 149.461 202.809 149.529 202.809 149.58C202.809 149.662 202.734 149.744 202.586 149.826C202.438 149.908 202.236 149.976 201.982 150.031C201.732 150.082 201.463 150.107 201.174 150.107ZM205.41 150.107C204.879 150.107 204.449 149.976 204.121 149.715C203.793 149.453 203.629 149.064 203.629 148.549C203.629 148.006 203.795 147.597 204.127 147.324C204.459 147.047 204.863 146.869 205.34 146.791C205.82 146.709 206.402 146.662 207.086 146.65V146.158C207.086 145.896 206.996 145.687 206.816 145.531C206.641 145.371 206.35 145.291 205.943 145.291C205.635 145.291 205.363 145.328 205.129 145.402C204.898 145.472 204.682 145.558 204.479 145.66C204.393 145.703 204.34 145.724 204.32 145.724C204.273 145.724 204.221 145.691 204.162 145.625C204.107 145.554 204.059 145.476 204.016 145.39C203.977 145.304 203.957 145.242 203.957 145.203C203.957 145.113 204.049 145.015 204.232 144.91C204.42 144.804 204.664 144.716 204.965 144.646C205.266 144.576 205.58 144.541 205.908 144.541C206.561 144.541 207.066 144.683 207.426 144.968C207.785 145.254 207.965 145.654 207.965 146.17V148.508C207.965 148.961 207.984 149.289 208.023 149.492C208.066 149.691 208.088 149.8 208.088 149.82C208.088 149.906 208.021 149.968 207.889 150.008C207.76 150.043 207.639 150.06 207.525 150.06C207.432 150.06 207.361 150.008 207.314 149.902C207.271 149.797 207.229 149.644 207.186 149.445L207.162 149.328C206.947 149.566 206.693 149.756 206.4 149.896C206.111 150.037 205.781 150.107 205.41 150.107ZM205.457 149.351C205.801 149.351 206.094 149.289 206.336 149.164C206.578 149.039 206.828 148.861 207.086 148.631V147.4C206.57 147.404 206.146 147.425 205.814 147.465C205.482 147.504 205.191 147.603 204.941 147.763C204.691 147.92 204.566 148.164 204.566 148.496C204.566 148.773 204.641 148.986 204.789 149.134C204.941 149.279 205.164 149.351 205.457 149.351ZM211.363 150.107C210.957 150.107 210.602 149.99 210.297 149.756C209.992 149.517 209.756 149.187 209.588 148.765C209.424 148.343 209.342 147.865 209.342 147.33C209.342 146.74 209.43 146.236 209.605 145.818C209.785 145.396 210.035 145.078 210.355 144.863C210.676 144.648 211.045 144.541 211.463 144.541C211.764 144.541 212.029 144.586 212.26 144.675C212.494 144.765 212.725 144.896 212.951 145.068V142.443C212.951 142.291 213.088 142.215 213.361 142.215H213.408C213.686 142.215 213.824 142.291 213.824 142.443V148.508C213.824 148.961 213.846 149.289 213.889 149.492C213.932 149.691 213.953 149.8 213.953 149.82C213.953 149.906 213.887 149.968 213.754 150.008C213.625 150.043 213.504 150.06 213.391 150.06C213.312 150.06 213.25 150.023 213.203 149.949C213.156 149.875 213.123 149.8 213.104 149.726C213.088 149.648 213.061 149.515 213.021 149.328C212.525 149.847 211.973 150.107 211.363 150.107ZM211.545 149.351C211.775 149.351 212.014 149.289 212.26 149.164C212.51 149.039 212.74 148.861 212.951 148.631V145.777C212.576 145.465 212.148 145.308 211.668 145.308C211.203 145.32 210.852 145.49 210.613 145.818C210.379 146.146 210.262 146.623 210.262 147.248C210.262 147.92 210.371 148.439 210.59 148.806C210.812 149.17 211.131 149.351 211.545 149.351ZM217.826 150.107C216.963 150.107 216.32 149.883 215.898 149.433C215.48 148.98 215.271 148.289 215.271 147.359C215.271 146.437 215.477 145.738 215.887 145.261C216.297 144.781 216.9 144.541 217.697 144.541C218.408 144.541 218.943 144.771 219.303 145.232C219.666 145.693 219.848 146.369 219.848 147.259C219.848 147.299 219.826 147.353 219.783 147.424C219.744 147.49 219.695 147.55 219.637 147.605C219.582 147.656 219.535 147.681 219.496 147.681H216.209C216.252 148.263 216.4 148.689 216.654 148.959C216.912 149.224 217.299 149.357 217.814 149.357C218.104 149.357 218.352 149.322 218.559 149.252C218.77 149.181 218.973 149.095 219.168 148.994C219.188 148.986 219.217 148.972 219.256 148.953C219.295 148.933 219.322 148.924 219.338 148.924C219.381 148.924 219.43 148.959 219.484 149.029C219.543 149.095 219.592 149.172 219.631 149.258C219.674 149.34 219.695 149.4 219.695 149.439C219.695 149.525 219.609 149.621 219.438 149.726C219.266 149.832 219.035 149.922 218.746 149.996C218.461 150.07 218.154 150.107 217.826 150.107ZM218.916 146.931C218.916 145.838 218.5 145.291 217.668 145.291C216.773 145.291 216.287 145.838 216.209 146.931H218.916ZM226.738 144.541C227.172 144.541 227.553 144.664 227.881 144.91C228.209 145.156 228.373 145.593 228.373 146.222V149.838C228.373 149.916 228.34 149.974 228.273 150.013C228.207 150.049 228.102 150.066 227.957 150.066H227.922C227.773 150.066 227.666 150.049 227.6 150.013C227.533 149.974 227.5 149.916 227.5 149.838V146.31C227.5 145.994 227.414 145.746 227.242 145.566C227.074 145.386 226.826 145.297 226.498 145.297C226.225 145.297 225.977 145.377 225.754 145.537C225.535 145.693 225.357 145.857 225.221 146.029C225.229 146.123 225.232 146.193 225.232 146.24V149.838C225.232 149.99 225.092 150.066 224.811 150.066H224.77C224.492 150.066 224.354 149.99 224.354 149.838V146.31C224.354 145.994 224.268 145.746 224.096 145.566C223.928 145.386 223.68 145.297 223.352 145.297C223.125 145.297 222.918 145.351 222.73 145.461C222.543 145.566 222.387 145.681 222.262 145.806C222.141 145.931 222.08 146.002 222.08 146.017V149.838C222.08 149.916 222.047 149.974 221.98 150.013C221.918 150.049 221.814 150.066 221.67 150.066H221.623C221.479 150.066 221.373 150.049 221.307 150.013C221.244 149.974 221.213 149.916 221.213 149.838V146.181C221.213 145.728 221.191 145.402 221.148 145.203C221.105 145 221.084 144.888 221.084 144.869C221.084 144.783 221.148 144.722 221.277 144.687C221.41 144.648 221.533 144.629 221.646 144.629C221.744 144.629 221.816 144.681 221.863 144.787C221.91 144.892 221.943 145 221.963 145.109C221.986 145.218 222.002 145.289 222.01 145.32C222.201 145.097 222.436 144.912 222.713 144.763C222.99 144.615 223.283 144.541 223.592 144.541C223.908 144.541 224.203 144.605 224.477 144.734C224.75 144.859 224.951 145.082 225.08 145.402C225.295 145.148 225.547 144.941 225.836 144.781C226.125 144.621 226.426 144.541 226.738 144.541ZM230.482 143.287C230.205 143.287 230.066 143.211 230.066 143.058V142.443C230.066 142.291 230.205 142.215 230.482 142.215H230.605C230.887 142.215 231.027 142.291 231.027 142.443V143.058C231.027 143.211 230.887 143.287 230.605 143.287H230.482ZM230.523 150.066C230.246 150.066 230.107 149.99 230.107 149.838V144.81C230.107 144.658 230.246 144.582 230.523 144.582H230.564C230.846 144.582 230.986 144.658 230.986 144.81V149.838C230.986 149.99 230.846 150.066 230.564 150.066H230.523ZM235.029 150.107C234.166 150.107 233.521 149.886 233.096 149.445C232.674 149 232.463 148.285 232.463 147.3C232.463 146.304 232.699 145.595 233.172 145.174C233.645 144.752 234.232 144.541 234.936 144.541C235.197 144.541 235.449 144.564 235.691 144.611C235.934 144.654 236.129 144.713 236.277 144.787C236.426 144.861 236.5 144.939 236.5 145.021C236.5 145.076 236.48 145.148 236.441 145.238C236.406 145.328 236.361 145.408 236.307 145.478C236.256 145.545 236.209 145.578 236.166 145.578C236.154 145.578 236.137 145.574 236.113 145.566C236.09 145.554 236.068 145.545 236.049 145.537C235.697 145.373 235.318 145.291 234.912 145.291C234.432 145.291 234.061 145.449 233.799 145.765C233.537 146.078 233.406 146.582 233.406 147.277C233.406 147.769 233.459 148.168 233.564 148.472C233.67 148.773 233.84 148.996 234.074 149.14C234.312 149.285 234.629 149.357 235.023 149.357C235.457 149.357 235.848 149.267 236.195 149.088C236.23 149.08 236.256 149.072 236.271 149.064C236.291 149.052 236.305 149.047 236.312 149.047C236.355 149.047 236.404 149.08 236.459 149.146C236.514 149.213 236.561 149.289 236.6 149.375C236.643 149.461 236.664 149.529 236.664 149.58C236.664 149.662 236.59 149.744 236.441 149.826C236.293 149.908 236.092 149.976 235.838 150.031C235.588 150.082 235.318 150.107 235.029 150.107ZM239.266 150.107C238.734 150.107 238.305 149.976 237.977 149.715C237.648 149.453 237.484 149.064 237.484 148.549C237.484 148.006 237.65 147.597 237.982 147.324C238.314 147.047 238.719 146.869 239.195 146.791C239.676 146.709 240.258 146.662 240.941 146.65V146.158C240.941 145.896 240.852 145.687 240.672 145.531C240.496 145.371 240.205 145.291 239.799 145.291C239.49 145.291 239.219 145.328 238.984 145.402C238.754 145.472 238.537 145.558 238.334 145.66C238.248 145.703 238.195 145.724 238.176 145.724C238.129 145.724 238.076 145.691 238.018 145.625C237.963 145.554 237.914 145.476 237.871 145.39C237.832 145.304 237.812 145.242 237.812 145.203C237.812 145.113 237.904 145.015 238.088 144.91C238.275 144.804 238.52 144.716 238.82 144.646C239.121 144.576 239.436 144.541 239.764 144.541C240.416 144.541 240.922 144.683 241.281 144.968C241.641 145.254 241.82 145.654 241.82 146.17V148.508C241.82 148.961 241.84 149.289 241.879 149.492C241.922 149.691 241.943 149.8 241.943 149.82C241.943 149.906 241.877 149.968 241.744 150.008C241.615 150.043 241.494 150.06 241.381 150.06C241.287 150.06 241.217 150.008 241.17 149.902C241.127 149.797 241.084 149.644 241.041 149.445L241.018 149.328C240.803 149.566 240.549 149.756 240.256 149.896C239.967 150.037 239.637 150.107 239.266 150.107ZM239.312 149.351C239.656 149.351 239.949 149.289 240.191 149.164C240.434 149.039 240.684 148.861 240.941 148.631V147.4C240.426 147.404 240.002 147.425 239.67 147.465C239.338 147.504 239.047 147.603 238.797 147.763C238.547 147.92 238.422 148.164 238.422 148.496C238.422 148.773 238.496 148.986 238.645 149.134C238.797 149.279 239.02 149.351 239.312 149.351Z" fill="#709BEF"/>
</svg>
