<svg width="59" height="55" viewBox="0 0 59 55" fill="none" xmlns="http://www.w3.org/2000/svg">
<path d="M38.7286 20C41.1033 20 43.0307 21.96 43.0307 24.375V41.2475C43.0307 44.8949 41.6059 48.3929 39.0698 50.972C36.5337 53.5511 33.094 55 29.5074 55C25.9208 55 22.4811 53.5511 19.945 50.972C17.4089 48.3929 15.9841 44.8949 15.9841 41.2475V24.375C15.9841 21.96 17.909 20 20.2862 20H38.7286ZM4.30209 20L15.0745 19.995C14.1886 21.0805 13.6553 22.4186 13.5479 23.825L13.5233 24.375V41.2475C13.5233 44.08 14.2387 46.745 15.49 49.065C13.8058 49.813 11.965 50.1225 10.1338 49.9656C8.30252 49.8087 6.53856 49.1903 5.00124 48.1663C3.46391 47.1424 2.20164 45.745 1.32847 44.1006C0.4553 42.4561 -0.00127106 40.6164 2.65772e-06 38.7475V24.375C2.56545e-06 23.8003 0.111361 23.2311 0.327714 22.7002C0.544068 22.1692 0.861177 21.6868 1.26092 21.2805C1.66067 20.8742 2.13522 20.552 2.65745 20.3323C3.17969 20.1126 3.73692 19.9997 4.30209 20ZM43.9427 19.995L54.6979 20C57.0727 20 59 21.96 59 24.375V38.75C59.0007 40.6179 58.5441 42.4566 57.6713 44.1002C56.7986 45.7437 55.5371 47.1404 54.0008 48.1642C52.4645 49.188 50.7017 49.8067 48.8715 49.9644C47.0412 50.1221 45.2012 49.8138 43.5174 49.0675L43.6551 48.8125C44.7097 46.78 45.3513 44.49 45.4693 42.0625L45.489 41.2475V24.375C45.489 22.71 44.9088 21.185 43.9427 19.995ZM29.5 0C30.6299 -2.42148e-08 31.7488 0.226325 32.7927 0.666054C33.8366 1.10578 34.7851 1.7503 35.5841 2.56282C36.383 3.37533 37.0168 4.33992 37.4492 5.40152C37.8816 6.46312 38.1042 7.60093 38.1042 8.75C38.1042 9.89907 37.8816 11.0369 37.4492 12.0985C37.0168 13.1601 36.383 14.1247 35.5841 14.9372C34.7851 15.7497 33.8366 16.3942 32.7927 16.8339C31.7488 17.2737 30.6299 17.5 29.5 17.5C27.218 17.5 25.0295 16.5781 23.4159 14.9372C21.8023 13.2962 20.8958 11.0706 20.8958 8.75C20.8958 6.42936 21.8023 4.20376 23.4159 2.56282C25.0295 0.921873 27.218 4.89039e-08 29.5 0ZM49.174 2.5C50.1425 2.5 51.1016 2.69399 51.9963 3.0709C52.8911 3.44781 53.7041 4.00026 54.389 4.6967C55.0738 5.39314 55.617 6.21993 55.9877 7.12987C56.3583 8.03982 56.549 9.01509 56.549 10C56.549 10.9849 56.3583 11.9602 55.9877 12.8701C55.617 13.7801 55.0738 14.6069 54.389 15.3033C53.7041 15.9997 52.8911 16.5522 51.9963 16.9291C51.1016 17.306 50.1425 17.5 49.174 17.5C47.2181 17.5 45.3422 16.7098 43.9591 15.3033C42.576 13.8968 41.799 11.9891 41.799 10C41.799 8.01088 42.576 6.10322 43.9591 4.6967C45.3422 3.29018 47.2181 2.5 49.174 2.5ZM9.82596 2.5C10.7945 2.5 11.7535 2.69399 12.6483 3.0709C13.543 3.44781 14.356 4.00026 15.0409 4.6967C15.7257 5.39314 16.2689 6.21993 16.6396 7.12987C17.0102 8.03982 17.201 9.01509 17.201 10C17.201 10.9849 17.0102 11.9602 16.6396 12.8701C16.2689 13.7801 15.7257 14.6069 15.0409 15.3033C14.356 15.9997 13.543 16.5522 12.6483 16.9291C11.7535 17.306 10.7945 17.5 9.82596 17.5C7.86999 17.5 5.99413 16.7098 4.61105 15.3033C3.22797 13.8968 2.45096 11.9891 2.45096 10C2.45096 8.01088 3.22797 6.10322 4.61105 4.6967C5.99413 3.29018 7.86999 2.5 9.82596 2.5Z" fill="#F5F5F5"/>
<path d="M38.7286 20C41.1033 20 43.0307 21.96 43.0307 24.375V41.2475C43.0307 44.8949 41.6059 48.3929 39.0698 50.972C36.5337 53.5511 33.094 55 29.5074 55C25.9208 55 22.4811 53.5511 19.945 50.972C17.4089 48.3929 15.9841 44.8949 15.9841 41.2475V24.375C15.9841 21.96 17.909 20 20.2862 20H38.7286ZM4.30209 20L15.0745 19.995C14.1886 21.0805 13.6553 22.4186 13.5479 23.825L13.5233 24.375V41.2475C13.5233 44.08 14.2387 46.745 15.49 49.065C13.8058 49.813 11.965 50.1225 10.1338 49.9656C8.30252 49.8087 6.53856 49.1903 5.00124 48.1663C3.46391 47.1424 2.20164 45.745 1.32847 44.1006C0.4553 42.4561 -0.00127106 40.6164 2.65772e-06 38.7475V24.375C2.56545e-06 23.8003 0.111361 23.2311 0.327714 22.7002C0.544068 22.1692 0.861177 21.6868 1.26092 21.2805C1.66067 20.8742 2.13522 20.552 2.65745 20.3323C3.17969 20.1126 3.73692 19.9997 4.30209 20ZM43.9427 19.995L54.6979 20C57.0727 20 59 21.96 59 24.375V38.75C59.0007 40.6179 58.5441 42.4566 57.6713 44.1002C56.7986 45.7437 55.5371 47.1404 54.0008 48.1642C52.4645 49.188 50.7017 49.8067 48.8715 49.9644C47.0412 50.1221 45.2012 49.8138 43.5174 49.0675L43.6551 48.8125C44.7097 46.78 45.3513 44.49 45.4693 42.0625L45.489 41.2475V24.375C45.489 22.71 44.9088 21.185 43.9427 19.995ZM29.5 0C30.6299 -2.42148e-08 31.7488 0.226325 32.7927 0.666054C33.8366 1.10578 34.7851 1.7503 35.5841 2.56282C36.383 3.37533 37.0168 4.33992 37.4492 5.40152C37.8816 6.46312 38.1042 7.60093 38.1042 8.75C38.1042 9.89907 37.8816 11.0369 37.4492 12.0985C37.0168 13.1601 36.383 14.1247 35.5841 14.9372C34.7851 15.7497 33.8366 16.3942 32.7927 16.8339C31.7488 17.2737 30.6299 17.5 29.5 17.5C27.218 17.5 25.0295 16.5781 23.4159 14.9372C21.8023 13.2962 20.8958 11.0706 20.8958 8.75C20.8958 6.42936 21.8023 4.20376 23.4159 2.56282C25.0295 0.921873 27.218 4.89039e-08 29.5 0ZM49.174 2.5C50.1425 2.5 51.1016 2.69399 51.9963 3.0709C52.8911 3.44781 53.7041 4.00026 54.389 4.6967C55.0738 5.39314 55.617 6.21993 55.9877 7.12987C56.3583 8.03982 56.549 9.01509 56.549 10C56.549 10.9849 56.3583 11.9602 55.9877 12.8701C55.617 13.7801 55.0738 14.6069 54.389 15.3033C53.7041 15.9997 52.8911 16.5522 51.9963 16.9291C51.1016 17.306 50.1425 17.5 49.174 17.5C47.2181 17.5 45.3422 16.7098 43.9591 15.3033C42.576 13.8968 41.799 11.9891 41.799 10C41.799 8.01088 42.576 6.10322 43.9591 4.6967C45.3422 3.29018 47.2181 2.5 49.174 2.5ZM9.82596 2.5C10.7945 2.5 11.7535 2.69399 12.6483 3.0709C13.543 3.44781 14.356 4.00026 15.0409 4.6967C15.7257 5.39314 16.2689 6.21993 16.6396 7.12987C17.0102 8.03982 17.201 9.01509 17.201 10C17.201 10.9849 17.0102 11.9602 16.6396 12.8701C16.2689 13.7801 15.7257 14.6069 15.0409 15.3033C14.356 15.9997 13.543 16.5522 12.6483 16.9291C11.7535 17.306 10.7945 17.5 9.82596 17.5C7.86999 17.5 5.99413 16.7098 4.61105 15.3033C3.22797 13.8968 2.45096 11.9891 2.45096 10C2.45096 8.01088 3.22797 6.10322 4.61105 4.6967C5.99413 3.29018 7.86999 2.5 9.82596 2.5Z" fill="#F5F5F5"/>
<path d="M38.7286 20C41.1033 20 43.0307 21.96 43.0307 24.375V41.2475C43.0307 44.8949 41.6059 48.3929 39.0698 50.972C36.5337 53.5511 33.094 55 29.5074 55C25.9208 55 22.4811 53.5511 19.945 50.972C17.4089 48.3929 15.9841 44.8949 15.9841 41.2475V24.375C15.9841 21.96 17.909 20 20.2862 20H38.7286ZM4.30209 20L15.0745 19.995C14.1886 21.0805 13.6553 22.4186 13.5479 23.825L13.5233 24.375V41.2475C13.5233 44.08 14.2387 46.745 15.49 49.065C13.8058 49.813 11.965 50.1225 10.1338 49.9656C8.30252 49.8087 6.53856 49.1903 5.00124 48.1663C3.46391 47.1424 2.20164 45.745 1.32847 44.1006C0.4553 42.4561 -0.00127106 40.6164 2.65772e-06 38.7475V24.375C2.56545e-06 23.8003 0.111361 23.2311 0.327714 22.7002C0.544068 22.1692 0.861177 21.6868 1.26092 21.2805C1.66067 20.8742 2.13522 20.552 2.65745 20.3323C3.17969 20.1126 3.73692 19.9997 4.30209 20ZM43.9427 19.995L54.6979 20C57.0727 20 59 21.96 59 24.375V38.75C59.0007 40.6179 58.5441 42.4566 57.6713 44.1002C56.7986 45.7437 55.5371 47.1404 54.0008 48.1642C52.4645 49.188 50.7017 49.8067 48.8715 49.9644C47.0412 50.1221 45.2012 49.8138 43.5174 49.0675L43.6551 48.8125C44.7097 46.78 45.3513 44.49 45.4693 42.0625L45.489 41.2475V24.375C45.489 22.71 44.9088 21.185 43.9427 19.995ZM29.5 0C30.6299 -2.42148e-08 31.7488 0.226325 32.7927 0.666054C33.8366 1.10578 34.7851 1.7503 35.5841 2.56282C36.383 3.37533 37.0168 4.33992 37.4492 5.40152C37.8816 6.46312 38.1042 7.60093 38.1042 8.75C38.1042 9.89907 37.8816 11.0369 37.4492 12.0985C37.0168 13.1601 36.383 14.1247 35.5841 14.9372C34.7851 15.7497 33.8366 16.3942 32.7927 16.8339C31.7488 17.2737 30.6299 17.5 29.5 17.5C27.218 17.5 25.0295 16.5781 23.4159 14.9372C21.8023 13.2962 20.8958 11.0706 20.8958 8.75C20.8958 6.42936 21.8023 4.20376 23.4159 2.56282C25.0295 0.921873 27.218 4.89039e-08 29.5 0ZM49.174 2.5C50.1425 2.5 51.1016 2.69399 51.9963 3.0709C52.8911 3.44781 53.7041 4.00026 54.389 4.6967C55.0738 5.39314 55.617 6.21993 55.9877 7.12987C56.3583 8.03982 56.549 9.01509 56.549 10C56.549 10.9849 56.3583 11.9602 55.9877 12.8701C55.617 13.7801 55.0738 14.6069 54.389 15.3033C53.7041 15.9997 52.8911 16.5522 51.9963 16.9291C51.1016 17.306 50.1425 17.5 49.174 17.5C47.2181 17.5 45.3422 16.7098 43.9591 15.3033C42.576 13.8968 41.799 11.9891 41.799 10C41.799 8.01088 42.576 6.10322 43.9591 4.6967C45.3422 3.29018 47.2181 2.5 49.174 2.5ZM9.82596 2.5C10.7945 2.5 11.7535 2.69399 12.6483 3.0709C13.543 3.44781 14.356 4.00026 15.0409 4.6967C15.7257 5.39314 16.2689 6.21993 16.6396 7.12987C17.0102 8.03982 17.201 9.01509 17.201 10C17.201 10.9849 17.0102 11.9602 16.6396 12.8701C16.2689 13.7801 15.7257 14.6069 15.0409 15.3033C14.356 15.9997 13.543 16.5522 12.6483 16.9291C11.7535 17.306 10.7945 17.5 9.82596 17.5C7.86999 17.5 5.99413 16.7098 4.61105 15.3033C3.22797 13.8968 2.45096 11.9891 2.45096 10C2.45096 8.01088 3.22797 6.10322 4.61105 4.6967C5.99413 3.29018 7.86999 2.5 9.82596 2.5Z" fill="#F5F5F5"/>
</svg>
