<svg width="26" height="25" viewBox="0 0 26 25" fill="none" xmlns="http://www.w3.org/2000/svg">
<path d="M13 0.833344C14.6797 0.833344 16.2907 1.44792 17.4784 2.54189C18.6661 3.63585 19.3334 5.11958 19.3334 6.66668C19.3334 8.21377 18.6661 9.6975 17.4784 10.7915C16.2907 11.8854 14.6797 12.5 13 12.5C11.3203 12.5 9.70943 11.8854 8.5217 10.7915C7.33397 9.6975 6.66671 8.21377 6.66671 6.66668C6.66671 5.11958 7.33397 3.63585 8.5217 2.54189C9.70943 1.44792 11.3203 0.833344 13 0.833344ZM13 15.4167C19.9984 15.4167 25.6667 18.0271 25.6667 21.25V24.1667H0.333374V21.25C0.333374 18.0271 6.00171 15.4167 13 15.4167Z" fill="#709BEF"/>
</svg>
