<svg width="307" height="159" viewBox="0 0 307 159" fill="none" xmlns="http://www.w3.org/2000/svg">
<path d="M1.692 17V4.4H4.032V17H1.692ZM12.678 7.28C13.446 7.28 14.13 7.43 14.73 7.73C15.342 8.03 15.822 8.492 16.17 9.116C16.518 9.728 16.692 10.52 16.692 11.492V17H14.442V11.78C14.442 10.928 14.238 10.292 13.83 9.872C13.434 9.452 12.876 9.242 12.156 9.242C11.628 9.242 11.16 9.35 10.752 9.566C10.344 9.782 10.026 10.106 9.79805 10.538C9.58205 10.958 9.47405 11.492 9.47405 12.14V17H7.22405V7.388H9.36605V9.98L8.98805 9.188C9.32405 8.576 9.81005 8.108 10.446 7.784C11.094 7.448 11.838 7.28 12.678 7.28ZM23.1643 17.126C22.1083 17.126 21.2923 16.856 20.7163 16.316C20.1403 15.764 19.8523 14.954 19.8523 13.886V5.264H22.1023V13.832C22.1023 14.288 22.2163 14.642 22.4443 14.894C22.6843 15.146 23.0143 15.272 23.4343 15.272C23.9383 15.272 24.3583 15.14 24.6943 14.876L25.3243 16.478C25.0603 16.694 24.7363 16.856 24.3523 16.964C23.9683 17.072 23.5723 17.126 23.1643 17.126ZM18.2683 9.26V7.46H24.6763V9.26H18.2683ZM31.3768 17.126C30.3088 17.126 29.3728 16.916 28.5688 16.496C27.7768 16.064 27.1588 15.476 26.7148 14.732C26.2828 13.988 26.0668 13.142 26.0668 12.194C26.0668 11.234 26.2768 10.388 26.6968 9.656C27.1288 8.912 27.7168 8.33 28.4608 7.91C29.2168 7.49 30.0748 7.28 31.0348 7.28C31.9708 7.28 32.8048 7.484 33.5368 7.892C34.2688 8.3 34.8448 8.876 35.2648 9.62C35.6848 10.364 35.8948 11.24 35.8948 12.248C35.8948 12.344 35.8888 12.452 35.8768 12.572C35.8768 12.692 35.8708 12.806 35.8588 12.914H27.8488V11.42H34.6708L33.7888 11.888C33.8008 11.336 33.6868 10.85 33.4468 10.43C33.2068 10.01 32.8768 9.68 32.4568 9.44C32.0488 9.2 31.5748 9.08 31.0348 9.08C30.4828 9.08 29.9968 9.2 29.5768 9.44C29.1688 9.68 28.8448 10.016 28.6048 10.448C28.3768 10.868 28.2628 11.366 28.2628 11.942V12.302C28.2628 12.878 28.3948 13.388 28.6588 13.832C28.9228 14.276 29.2948 14.618 29.7748 14.858C30.2548 15.098 30.8068 15.218 31.4308 15.218C31.9708 15.218 32.4568 15.134 32.8888 14.966C33.3208 14.798 33.7048 14.534 34.0408 14.174L35.2468 15.56C34.8148 16.064 34.2688 16.454 33.6088 16.73C32.9608 16.994 32.2168 17.126 31.3768 17.126ZM38.0561 17V7.388H40.1981V10.034L39.9461 9.26C40.2341 8.612 40.6841 8.12 41.2961 7.784C41.9201 7.448 42.6941 7.28 43.6181 7.28V9.422C43.5221 9.398 43.4321 9.386 43.3481 9.386C43.2641 9.374 43.1801 9.368 43.0961 9.368C42.2441 9.368 41.5661 9.62 41.0621 10.124C40.5581 10.616 40.3061 11.354 40.3061 12.338V17H38.0561ZM50.9808 7.28C51.7488 7.28 52.4328 7.43 53.0328 7.73C53.6448 8.03 54.1248 8.492 54.4728 9.116C54.8208 9.728 54.9948 10.52 54.9948 11.492V17H52.7448V11.78C52.7448 10.928 52.5408 10.292 52.1328 9.872C51.7368 9.452 51.1788 9.242 50.4588 9.242C49.9308 9.242 49.4628 9.35 49.0548 9.566C48.6468 9.782 48.3288 10.106 48.1008 10.538C47.8848 10.958 47.7768 11.492 47.7768 12.14V17H45.5268V7.388H47.6688V9.98L47.2908 9.188C47.6268 8.576 48.1128 8.108 48.7488 7.784C49.3968 7.448 50.1408 7.28 50.9808 7.28ZM62.3846 17.126C61.3166 17.126 60.3806 16.916 59.5766 16.496C58.7846 16.064 58.1666 15.476 57.7226 14.732C57.2906 13.988 57.0746 13.142 57.0746 12.194C57.0746 11.234 57.2846 10.388 57.7046 9.656C58.1366 8.912 58.7246 8.33 59.4686 7.91C60.2246 7.49 61.0826 7.28 62.0426 7.28C62.9786 7.28 63.8126 7.484 64.5446 7.892C65.2766 8.3 65.8526 8.876 66.2726 9.62C66.6926 10.364 66.9026 11.24 66.9026 12.248C66.9026 12.344 66.8966 12.452 66.8846 12.572C66.8846 12.692 66.8786 12.806 66.8666 12.914H58.8566V11.42H65.6786L64.7966 11.888C64.8086 11.336 64.6946 10.85 64.4546 10.43C64.2146 10.01 63.8846 9.68 63.4646 9.44C63.0566 9.2 62.5826 9.08 62.0426 9.08C61.4906 9.08 61.0046 9.2 60.5846 9.44C60.1766 9.68 59.8526 10.016 59.6126 10.448C59.3846 10.868 59.2706 11.366 59.2706 11.942V12.302C59.2706 12.878 59.4026 13.388 59.6666 13.832C59.9306 14.276 60.3026 14.618 60.7826 14.858C61.2626 15.098 61.8146 15.218 62.4386 15.218C62.9786 15.218 63.4646 15.134 63.8966 14.966C64.3286 14.798 64.7126 14.534 65.0486 14.174L66.2546 15.56C65.8226 16.064 65.2766 16.454 64.6166 16.73C63.9686 16.994 63.2246 17.126 62.3846 17.126ZM72.6819 17.126C71.6259 17.126 70.8099 16.856 70.2339 16.316C69.6579 15.764 69.3699 14.954 69.3699 13.886V5.264H71.6199V13.832C71.6199 14.288 71.7339 14.642 71.9619 14.894C72.2019 15.146 72.5319 15.272 72.9519 15.272C73.4559 15.272 73.8759 15.14 74.2119 14.876L74.8419 16.478C74.5779 16.694 74.2539 16.856 73.8699 16.964C73.4859 17.072 73.0899 17.126 72.6819 17.126ZM67.7859 9.26V7.46H74.1939V9.26H67.7859ZM85.7354 17.126C84.8114 17.126 83.9774 16.922 83.2334 16.514C82.5014 16.094 81.9254 15.518 81.5054 14.786C81.0854 14.054 80.8754 13.19 80.8754 12.194C80.8754 11.198 81.0854 10.334 81.5054 9.602C81.9254 8.87 82.5014 8.3 83.2334 7.892C83.9774 7.484 84.8114 7.28 85.7354 7.28C86.5394 7.28 87.2594 7.46 87.8954 7.82C88.5314 8.168 89.0354 8.702 89.4074 9.422C89.7794 10.142 89.9654 11.066 89.9654 12.194C89.9654 13.31 89.7854 14.234 89.4254 14.966C89.0654 15.686 88.5674 16.226 87.9314 16.586C87.2954 16.946 86.5634 17.126 85.7354 17.126ZM86.0054 15.2C86.5454 15.2 87.0254 15.08 87.4454 14.84C87.8774 14.6 88.2194 14.252 88.4714 13.796C88.7354 13.34 88.8674 12.806 88.8674 12.194C88.8674 11.57 88.7354 11.036 88.4714 10.592C88.2194 10.136 87.8774 9.788 87.4454 9.548C87.0254 9.308 86.5454 9.188 86.0054 9.188C85.4654 9.188 84.9794 9.308 84.5474 9.548C84.1274 9.788 83.7854 10.136 83.5214 10.592C83.2694 11.036 83.1434 11.57 83.1434 12.194C83.1434 12.806 83.2694 13.34 83.5214 13.796C83.7854 14.252 84.1274 14.6 84.5474 14.84C84.9794 15.08 85.4654 15.2 86.0054 15.2ZM88.9214 17V14.732L89.0114 12.176L88.8314 9.62V3.644H91.0634V17H88.9214ZM99.9468 17V15.056L99.8208 14.642V11.24C99.8208 10.58 99.6228 10.07 99.2268 9.71C98.8308 9.338 98.2308 9.152 97.4268 9.152C96.8868 9.152 96.3528 9.236 95.8248 9.404C95.3088 9.572 94.8708 9.806 94.5108 10.106L93.6288 8.468C94.1448 8.072 94.7568 7.778 95.4648 7.586C96.1848 7.382 96.9288 7.28 97.6968 7.28C99.0888 7.28 100.163 7.616 100.919 8.288C101.687 8.948 102.071 9.974 102.071 11.366V17H99.9468ZM96.9228 17.126C96.2028 17.126 95.5728 17.006 95.0328 16.766C94.4928 16.514 94.0728 16.172 93.7728 15.74C93.4848 15.296 93.3408 14.798 93.3408 14.246C93.3408 13.706 93.4668 13.22 93.7188 12.788C93.9828 12.356 94.4088 12.014 94.9968 11.762C95.5848 11.51 96.3648 11.384 97.3368 11.384H100.127V12.878H97.4988C96.7308 12.878 96.2148 13.004 95.9508 13.256C95.6868 13.496 95.5548 13.796 95.5548 14.156C95.5548 14.564 95.7168 14.888 96.0408 15.128C96.3648 15.368 96.8148 15.488 97.3908 15.488C97.9428 15.488 98.4348 15.362 98.8668 15.11C99.3108 14.858 99.6288 14.486 99.8208 13.994L100.199 15.344C99.9828 15.908 99.5928 16.346 99.0288 16.658C98.4768 16.97 97.7748 17.126 96.9228 17.126ZM107.928 17.126C107.124 17.126 106.35 17.024 105.606 16.82C104.874 16.604 104.292 16.346 103.86 16.046L104.724 14.336C105.156 14.612 105.672 14.84 106.272 15.02C106.872 15.2 107.472 15.29 108.072 15.29C108.78 15.29 109.29 15.194 109.602 15.002C109.926 14.81 110.088 14.552 110.088 14.228C110.088 13.964 109.98 13.766 109.764 13.634C109.548 13.49 109.266 13.382 108.918 13.31C108.57 13.238 108.18 13.172 107.748 13.112C107.328 13.052 106.902 12.974 106.47 12.878C106.05 12.77 105.666 12.62 105.318 12.428C104.97 12.224 104.688 11.954 104.472 11.618C104.256 11.282 104.148 10.838 104.148 10.286C104.148 9.674 104.322 9.146 104.67 8.702C105.018 8.246 105.504 7.898 106.128 7.658C106.764 7.406 107.514 7.28 108.378 7.28C109.026 7.28 109.68 7.352 110.34 7.496C111 7.64 111.546 7.844 111.978 8.108L111.114 9.818C110.658 9.542 110.196 9.356 109.728 9.26C109.272 9.152 108.816 9.098 108.36 9.098C107.676 9.098 107.166 9.2 106.83 9.404C106.506 9.608 106.344 9.866 106.344 10.178C106.344 10.466 106.452 10.682 106.668 10.826C106.884 10.97 107.166 11.084 107.514 11.168C107.862 11.252 108.246 11.324 108.666 11.384C109.098 11.432 109.524 11.51 109.944 11.618C110.364 11.726 110.748 11.876 111.096 12.068C111.456 12.248 111.744 12.506 111.96 12.842C112.176 13.178 112.284 13.616 112.284 14.156C112.284 14.756 112.104 15.278 111.744 15.722C111.396 16.166 110.898 16.514 110.25 16.766C109.602 17.006 108.828 17.126 107.928 17.126ZM125.245 17.18C124.285 17.18 123.391 17.024 122.563 16.712C121.747 16.388 121.033 15.938 120.421 15.362C119.821 14.774 119.353 14.084 119.017 13.292C118.681 12.5 118.513 11.636 118.513 10.7C118.513 9.764 118.681 8.9 119.017 8.108C119.353 7.316 119.827 6.632 120.439 6.056C121.051 5.468 121.765 5.018 122.581 4.706C123.397 4.382 124.291 4.22 125.263 4.22C126.295 4.22 127.237 4.4 128.089 4.76C128.941 5.108 129.661 5.63 130.249 6.326L128.737 7.748C128.281 7.256 127.771 6.89 127.207 6.65C126.643 6.398 126.031 6.272 125.371 6.272C124.711 6.272 124.105 6.38 123.553 6.596C123.013 6.812 122.539 7.118 122.131 7.514C121.735 7.91 121.423 8.378 121.195 8.918C120.979 9.458 120.871 10.052 120.871 10.7C120.871 11.348 120.979 11.942 121.195 12.482C121.423 13.022 121.735 13.49 122.131 13.886C122.539 14.282 123.013 14.588 123.553 14.804C124.105 15.02 124.711 15.128 125.371 15.128C126.031 15.128 126.643 15.008 127.207 14.768C127.771 14.516 128.281 14.138 128.737 13.634L130.249 15.074C129.661 15.758 128.941 16.28 128.089 16.64C127.237 17 126.289 17.18 125.245 17.18ZM136.226 17.126C135.242 17.126 134.366 16.916 133.598 16.496C132.83 16.064 132.224 15.476 131.78 14.732C131.336 13.988 131.114 13.142 131.114 12.194C131.114 11.234 131.336 10.388 131.78 9.656C132.224 8.912 132.83 8.33 133.598 7.91C134.366 7.49 135.242 7.28 136.226 7.28C137.222 7.28 138.104 7.49 138.872 7.91C139.652 8.33 140.258 8.906 140.69 9.638C141.134 10.37 141.356 11.222 141.356 12.194C141.356 13.142 141.134 13.988 140.69 14.732C140.258 15.476 139.652 16.064 138.872 16.496C138.104 16.916 137.222 17.126 136.226 17.126ZM136.226 15.2C136.778 15.2 137.27 15.08 137.702 14.84C138.134 14.6 138.47 14.252 138.71 13.796C138.962 13.34 139.088 12.806 139.088 12.194C139.088 11.57 138.962 11.036 138.71 10.592C138.47 10.136 138.134 9.788 137.702 9.548C137.27 9.308 136.784 9.188 136.244 9.188C135.692 9.188 135.2 9.308 134.768 9.548C134.348 9.788 134.012 10.136 133.76 10.592C133.508 11.036 133.382 11.57 133.382 12.194C133.382 12.806 133.508 13.34 133.76 13.796C134.012 14.252 134.348 14.6 134.768 14.84C135.2 15.08 135.686 15.2 136.226 15.2ZM143.507 17V7.388H145.757V17H143.507ZM144.641 5.804C144.221 5.804 143.873 5.672 143.597 5.408C143.333 5.144 143.201 4.826 143.201 4.454C143.201 4.07 143.333 3.752 143.597 3.5C143.873 3.236 144.221 3.104 144.641 3.104C145.061 3.104 145.403 3.23 145.667 3.482C145.943 3.722 146.081 4.028 146.081 4.4C146.081 4.796 145.949 5.132 145.685 5.408C145.421 5.672 145.073 5.804 144.641 5.804ZM151.68 17.126C150.876 17.126 150.102 17.024 149.358 16.82C148.626 16.604 148.044 16.346 147.612 16.046L148.476 14.336C148.908 14.612 149.424 14.84 150.024 15.02C150.624 15.2 151.224 15.29 151.824 15.29C152.532 15.29 153.042 15.194 153.354 15.002C153.678 14.81 153.84 14.552 153.84 14.228C153.84 13.964 153.732 13.766 153.516 13.634C153.3 13.49 153.018 13.382 152.67 13.31C152.322 13.238 151.932 13.172 151.5 13.112C151.08 13.052 150.654 12.974 150.222 12.878C149.802 12.77 149.418 12.62 149.07 12.428C148.722 12.224 148.44 11.954 148.224 11.618C148.008 11.282 147.9 10.838 147.9 10.286C147.9 9.674 148.074 9.146 148.422 8.702C148.77 8.246 149.256 7.898 149.88 7.658C150.516 7.406 151.266 7.28 152.13 7.28C152.778 7.28 153.432 7.352 154.092 7.496C154.752 7.64 155.298 7.844 155.73 8.108L154.866 9.818C154.41 9.542 153.948 9.356 153.48 9.26C153.024 9.152 152.568 9.098 152.112 9.098C151.428 9.098 150.918 9.2 150.582 9.404C150.258 9.608 150.096 9.866 150.096 10.178C150.096 10.466 150.204 10.682 150.42 10.826C150.636 10.97 150.918 11.084 151.266 11.168C151.614 11.252 151.998 11.324 152.418 11.384C152.85 11.432 153.276 11.51 153.696 11.618C154.116 11.726 154.5 11.876 154.848 12.068C155.208 12.248 155.496 12.506 155.712 12.842C155.928 13.178 156.036 13.616 156.036 14.156C156.036 14.756 155.856 15.278 155.496 15.722C155.148 16.166 154.65 16.514 154.002 16.766C153.354 17.006 152.58 17.126 151.68 17.126ZM163.896 17V15.056L163.77 14.642V11.24C163.77 10.58 163.572 10.07 163.176 9.71C162.78 9.338 162.18 9.152 161.376 9.152C160.836 9.152 160.302 9.236 159.774 9.404C159.258 9.572 158.82 9.806 158.46 10.106L157.578 8.468C158.094 8.072 158.706 7.778 159.414 7.586C160.134 7.382 160.878 7.28 161.646 7.28C163.038 7.28 164.112 7.616 164.868 8.288C165.636 8.948 166.02 9.974 166.02 11.366V17H163.896ZM160.872 17.126C160.152 17.126 159.522 17.006 158.982 16.766C158.442 16.514 158.022 16.172 157.722 15.74C157.434 15.296 157.29 14.798 157.29 14.246C157.29 13.706 157.416 13.22 157.668 12.788C157.932 12.356 158.358 12.014 158.946 11.762C159.534 11.51 160.314 11.384 161.286 11.384H164.076V12.878H161.448C160.68 12.878 160.164 13.004 159.9 13.256C159.636 13.496 159.504 13.796 159.504 14.156C159.504 14.564 159.666 14.888 159.99 15.128C160.314 15.368 160.764 15.488 161.34 15.488C161.892 15.488 162.384 15.362 162.816 15.11C163.26 14.858 163.578 14.486 163.77 13.994L164.148 15.344C163.932 15.908 163.542 16.346 162.978 16.658C162.426 16.97 161.724 17.126 160.872 17.126ZM171.878 17.126C171.074 17.126 170.3 17.024 169.556 16.82C168.824 16.604 168.242 16.346 167.81 16.046L168.674 14.336C169.106 14.612 169.622 14.84 170.222 15.02C170.822 15.2 171.422 15.29 172.022 15.29C172.73 15.29 173.24 15.194 173.552 15.002C173.876 14.81 174.038 14.552 174.038 14.228C174.038 13.964 173.93 13.766 173.714 13.634C173.498 13.49 173.216 13.382 172.868 13.31C172.52 13.238 172.13 13.172 171.698 13.112C171.278 13.052 170.852 12.974 170.42 12.878C170 12.77 169.616 12.62 169.268 12.428C168.92 12.224 168.638 11.954 168.422 11.618C168.206 11.282 168.098 10.838 168.098 10.286C168.098 9.674 168.272 9.146 168.62 8.702C168.968 8.246 169.454 7.898 170.078 7.658C170.714 7.406 171.464 7.28 172.328 7.28C172.976 7.28 173.63 7.352 174.29 7.496C174.95 7.64 175.496 7.844 175.928 8.108L175.064 9.818C174.608 9.542 174.146 9.356 173.678 9.26C173.222 9.152 172.766 9.098 172.31 9.098C171.626 9.098 171.116 9.2 170.78 9.404C170.456 9.608 170.294 9.866 170.294 10.178C170.294 10.466 170.402 10.682 170.618 10.826C170.834 10.97 171.116 11.084 171.464 11.168C171.812 11.252 172.196 11.324 172.616 11.384C173.048 11.432 173.474 11.51 173.894 11.618C174.314 11.726 174.698 11.876 175.046 12.068C175.406 12.248 175.694 12.506 175.91 12.842C176.126 13.178 176.234 13.616 176.234 14.156C176.234 14.756 176.054 15.278 175.694 15.722C175.346 16.166 174.848 16.514 174.2 16.766C173.552 17.006 172.778 17.126 171.878 17.126ZM192.639 17.126C191.571 17.126 190.635 16.916 189.831 16.496C189.039 16.064 188.421 15.476 187.977 14.732C187.545 13.988 187.329 13.142 187.329 12.194C187.329 11.234 187.539 10.388 187.959 9.656C188.391 8.912 188.979 8.33 189.723 7.91C190.479 7.49 191.337 7.28 192.297 7.28C193.233 7.28 194.067 7.484 194.799 7.892C195.531 8.3 196.107 8.876 196.527 9.62C196.947 10.364 197.157 11.24 197.157 12.248C197.157 12.344 197.151 12.452 197.139 12.572C197.139 12.692 197.133 12.806 197.121 12.914H189.111V11.42H195.933L195.051 11.888C195.063 11.336 194.949 10.85 194.709 10.43C194.469 10.01 194.139 9.68 193.719 9.44C193.311 9.2 192.837 9.08 192.297 9.08C191.745 9.08 191.259 9.2 190.839 9.44C190.431 9.68 190.107 10.016 189.867 10.448C189.639 10.868 189.525 11.366 189.525 11.942V12.302C189.525 12.878 189.657 13.388 189.921 13.832C190.185 14.276 190.557 14.618 191.037 14.858C191.517 15.098 192.069 15.218 192.693 15.218C193.233 15.218 193.719 15.134 194.151 14.966C194.583 14.798 194.967 14.534 195.303 14.174L196.509 15.56C196.077 16.064 195.531 16.454 194.871 16.73C194.223 16.994 193.479 17.126 192.639 17.126ZM202.726 17L208.396 4.4H210.7L216.388 17H213.94L209.062 5.642H209.998L205.138 17H202.726ZM205.336 14.084L205.966 12.248H212.77L213.4 14.084H205.336ZM223.103 17.126C222.323 17.126 221.609 16.946 220.961 16.586C220.325 16.226 219.815 15.686 219.431 14.966C219.059 14.234 218.873 13.31 218.873 12.194C218.873 11.066 219.053 10.142 219.413 9.422C219.785 8.702 220.289 8.168 220.925 7.82C221.561 7.46 222.287 7.28 223.103 7.28C224.051 7.28 224.885 7.484 225.605 7.892C226.337 8.3 226.913 8.87 227.333 9.602C227.765 10.334 227.981 11.198 227.981 12.194C227.981 13.19 227.765 14.06 227.333 14.804C226.913 15.536 226.337 16.106 225.605 16.514C224.885 16.922 224.051 17.126 223.103 17.126ZM217.775 20.492V7.388H219.917V9.656L219.845 12.212L220.025 14.768V20.492H217.775ZM222.851 15.2C223.391 15.2 223.871 15.08 224.291 14.84C224.723 14.6 225.065 14.252 225.317 13.796C225.569 13.34 225.695 12.806 225.695 12.194C225.695 11.57 225.569 11.036 225.317 10.592C225.065 10.136 224.723 9.788 224.291 9.548C223.871 9.308 223.391 9.188 222.851 9.188C222.311 9.188 221.825 9.308 221.393 9.548C220.961 9.788 220.619 10.136 220.367 10.592C220.115 11.036 219.989 11.57 219.989 12.194C219.989 12.806 220.115 13.34 220.367 13.796C220.619 14.252 220.961 14.6 221.393 14.84C221.825 15.08 222.311 15.2 222.851 15.2ZM230.115 17V3.644H232.365V17H230.115ZM235.318 17V7.388H237.568V17H235.318ZM236.452 5.804C236.032 5.804 235.684 5.672 235.408 5.408C235.144 5.144 235.012 4.826 235.012 4.454C235.012 4.07 235.144 3.752 235.408 3.5C235.684 3.236 236.032 3.104 236.452 3.104C236.872 3.104 237.214 3.23 237.478 3.482C237.754 3.722 237.892 4.028 237.892 4.4C237.892 4.796 237.76 5.132 237.496 5.408C237.232 5.672 236.884 5.804 236.452 5.804ZM244.931 17.126C243.923 17.126 243.023 16.916 242.231 16.496C241.451 16.064 240.839 15.476 240.395 14.732C239.951 13.988 239.729 13.142 239.729 12.194C239.729 11.234 239.951 10.388 240.395 9.656C240.839 8.912 241.451 8.33 242.231 7.91C243.023 7.49 243.923 7.28 244.931 7.28C245.867 7.28 246.689 7.472 247.397 7.856C248.117 8.228 248.663 8.78 249.035 9.512L247.307 10.52C247.019 10.064 246.665 9.728 246.245 9.512C245.837 9.296 245.393 9.188 244.913 9.188C244.361 9.188 243.863 9.308 243.419 9.548C242.975 9.788 242.627 10.136 242.375 10.592C242.123 11.036 241.997 11.57 241.997 12.194C241.997 12.818 242.123 13.358 242.375 13.814C242.627 14.258 242.975 14.6 243.419 14.84C243.863 15.08 244.361 15.2 244.913 15.2C245.393 15.2 245.837 15.092 246.245 14.876C246.665 14.66 247.019 14.324 247.307 13.868L249.035 14.876C248.663 15.596 248.117 16.154 247.397 16.55C246.689 16.934 245.867 17.126 244.931 17.126ZM256.902 17V15.056L256.776 14.642V11.24C256.776 10.58 256.578 10.07 256.182 9.71C255.786 9.338 255.186 9.152 254.382 9.152C253.842 9.152 253.308 9.236 252.78 9.404C252.264 9.572 251.826 9.806 251.466 10.106L250.584 8.468C251.1 8.072 251.712 7.778 252.42 7.586C253.14 7.382 253.884 7.28 254.652 7.28C256.044 7.28 257.118 7.616 257.874 8.288C258.642 8.948 259.026 9.974 259.026 11.366V17H256.902ZM253.878 17.126C253.158 17.126 252.528 17.006 251.988 16.766C251.448 16.514 251.028 16.172 250.728 15.74C250.44 15.296 250.296 14.798 250.296 14.246C250.296 13.706 250.422 13.22 250.674 12.788C250.938 12.356 251.364 12.014 251.952 11.762C252.54 11.51 253.32 11.384 254.292 11.384H257.082V12.878H254.454C253.686 12.878 253.17 13.004 252.906 13.256C252.642 13.496 252.51 13.796 252.51 14.156C252.51 14.564 252.672 14.888 252.996 15.128C253.32 15.368 253.77 15.488 254.346 15.488C254.898 15.488 255.39 15.362 255.822 15.11C256.266 14.858 256.584 14.486 256.776 13.994L257.154 15.344C256.938 15.908 256.548 16.346 255.984 16.658C255.432 16.97 254.73 17.126 253.878 17.126ZM266.341 17.126C265.333 17.126 264.433 16.916 263.641 16.496C262.861 16.064 262.249 15.476 261.805 14.732C261.361 13.988 261.139 13.142 261.139 12.194C261.139 11.234 261.361 10.388 261.805 9.656C262.249 8.912 262.861 8.33 263.641 7.91C264.433 7.49 265.333 7.28 266.341 7.28C267.277 7.28 268.099 7.472 268.807 7.856C269.527 8.228 270.073 8.78 270.445 9.512L268.717 10.52C268.429 10.064 268.075 9.728 267.655 9.512C267.247 9.296 266.803 9.188 266.323 9.188C265.771 9.188 265.273 9.308 264.829 9.548C264.385 9.788 264.037 10.136 263.785 10.592C263.533 11.036 263.407 11.57 263.407 12.194C263.407 12.818 263.533 13.358 263.785 13.814C264.037 14.258 264.385 14.6 264.829 14.84C265.273 15.08 265.771 15.2 266.323 15.2C266.803 15.2 267.247 15.092 267.655 14.876C268.075 14.66 268.429 14.324 268.717 13.868L270.445 14.876C270.073 15.596 269.527 16.154 268.807 16.55C268.099 16.934 267.277 17.126 266.341 17.126ZM265.405 21.104C265.081 21.104 264.781 21.068 264.505 20.996C264.229 20.936 263.977 20.846 263.749 20.726L264.163 19.664C264.355 19.76 264.547 19.832 264.739 19.88C264.943 19.928 265.159 19.952 265.387 19.952C265.735 19.952 265.981 19.892 266.125 19.772C266.269 19.652 266.341 19.496 266.341 19.304C266.341 19.124 266.263 18.98 266.107 18.872C265.963 18.764 265.723 18.71 265.387 18.71H264.829L265.315 16.874H266.539L266.287 17.882C266.815 17.942 267.205 18.11 267.457 18.386C267.721 18.674 267.853 19.01 267.853 19.394C267.853 19.922 267.631 20.336 267.187 20.636C266.743 20.948 266.149 21.104 265.405 21.104ZM276.569 17.126C275.585 17.126 274.709 16.916 273.941 16.496C273.173 16.064 272.567 15.476 272.123 14.732C271.679 13.988 271.457 13.142 271.457 12.194C271.457 11.234 271.679 10.388 272.123 9.656C272.567 8.912 273.173 8.33 273.941 7.91C274.709 7.49 275.585 7.28 276.569 7.28C277.565 7.28 278.447 7.49 279.215 7.91C279.995 8.33 280.601 8.906 281.033 9.638C281.477 10.37 281.699 11.222 281.699 12.194C281.699 13.142 281.477 13.988 281.033 14.732C280.601 15.476 279.995 16.064 279.215 16.496C278.447 16.916 277.565 17.126 276.569 17.126ZM276.569 15.2C277.121 15.2 277.613 15.08 278.045 14.84C278.477 14.6 278.813 14.252 279.053 13.796C279.305 13.34 279.431 12.806 279.431 12.194C279.431 11.57 279.305 11.036 279.053 10.592C278.813 10.136 278.477 9.788 278.045 9.548C277.613 9.308 277.127 9.188 276.587 9.188C276.035 9.188 275.543 9.308 275.111 9.548C274.691 9.788 274.355 10.136 274.103 10.592C273.851 11.036 273.725 11.57 273.725 12.194C273.725 12.806 273.851 13.34 274.103 13.796C274.355 14.252 274.691 14.6 275.111 14.84C275.543 15.08 276.029 15.2 276.569 15.2ZM277.847 6.074C277.559 6.074 277.295 6.02 277.055 5.912C276.827 5.792 276.617 5.654 276.425 5.498C276.245 5.33 276.071 5.186 275.903 5.066C275.735 4.946 275.567 4.886 275.399 4.886C275.147 4.886 274.943 4.982 274.787 5.174C274.631 5.366 274.541 5.63 274.517 5.966H273.311C273.335 5.222 273.515 4.634 273.851 4.202C274.199 3.77 274.667 3.554 275.255 3.554C275.543 3.554 275.807 3.614 276.047 3.734C276.287 3.854 276.497 3.992 276.677 4.148C276.869 4.304 277.049 4.442 277.217 4.562C277.385 4.682 277.547 4.742 277.703 4.742C277.955 4.742 278.159 4.652 278.315 4.472C278.483 4.292 278.573 4.04 278.585 3.716H279.791C279.779 4.412 279.599 4.982 279.251 5.426C278.903 5.858 278.435 6.074 277.847 6.074ZM288.369 17.126C287.301 17.126 286.365 16.916 285.561 16.496C284.769 16.064 284.151 15.476 283.707 14.732C283.275 13.988 283.059 13.142 283.059 12.194C283.059 11.234 283.269 10.388 283.689 9.656C284.121 8.912 284.709 8.33 285.453 7.91C286.209 7.49 287.067 7.28 288.027 7.28C288.963 7.28 289.797 7.484 290.529 7.892C291.261 8.3 291.837 8.876 292.257 9.62C292.677 10.364 292.887 11.24 292.887 12.248C292.887 12.344 292.881 12.452 292.869 12.572C292.869 12.692 292.863 12.806 292.851 12.914H284.841V11.42H291.663L290.781 11.888C290.793 11.336 290.679 10.85 290.439 10.43C290.199 10.01 289.869 9.68 289.449 9.44C289.041 9.2 288.567 9.08 288.027 9.08C287.475 9.08 286.989 9.2 286.569 9.44C286.161 9.68 285.837 10.016 285.597 10.448C285.369 10.868 285.255 11.366 285.255 11.942V12.302C285.255 12.878 285.387 13.388 285.651 13.832C285.915 14.276 286.287 14.618 286.767 14.858C287.247 15.098 287.799 15.218 288.423 15.218C288.963 15.218 289.449 15.134 289.881 14.966C290.313 14.798 290.697 14.534 291.033 14.174L292.239 15.56C291.807 16.064 291.261 16.454 290.601 16.73C289.953 16.994 289.209 17.126 288.369 17.126ZM298.018 17.126C297.214 17.126 296.44 17.024 295.696 16.82C294.964 16.604 294.382 16.346 293.95 16.046L294.814 14.336C295.246 14.612 295.762 14.84 296.362 15.02C296.962 15.2 297.562 15.29 298.162 15.29C298.87 15.29 299.38 15.194 299.692 15.002C300.016 14.81 300.178 14.552 300.178 14.228C300.178 13.964 300.07 13.766 299.854 13.634C299.638 13.49 299.356 13.382 299.008 13.31C298.66 13.238 298.27 13.172 297.838 13.112C297.418 13.052 296.992 12.974 296.56 12.878C296.14 12.77 295.756 12.62 295.408 12.428C295.06 12.224 294.778 11.954 294.562 11.618C294.346 11.282 294.238 10.838 294.238 10.286C294.238 9.674 294.412 9.146 294.76 8.702C295.108 8.246 295.594 7.898 296.218 7.658C296.854 7.406 297.604 7.28 298.468 7.28C299.116 7.28 299.77 7.352 300.43 7.496C301.09 7.64 301.636 7.844 302.068 8.108L301.204 9.818C300.748 9.542 300.286 9.356 299.818 9.26C299.362 9.152 298.906 9.098 298.45 9.098C297.766 9.098 297.256 9.2 296.92 9.404C296.596 9.608 296.434 9.866 296.434 10.178C296.434 10.466 296.542 10.682 296.758 10.826C296.974 10.97 297.256 11.084 297.604 11.168C297.952 11.252 298.336 11.324 298.756 11.384C299.188 11.432 299.614 11.51 300.034 11.618C300.454 11.726 300.838 11.876 301.186 12.068C301.546 12.248 301.834 12.506 302.05 12.842C302.266 13.178 302.374 13.616 302.374 14.156C302.374 14.756 302.194 15.278 301.834 15.722C301.486 16.166 300.988 16.514 300.34 16.766C299.692 17.006 298.918 17.126 298.018 17.126Z" fill="#709BEF"/>
<path d="M19.984 47L25.056 35.8H26.64L31.728 47H30.048L25.52 36.696H26.16L21.632 47H19.984ZM22.144 44.2L22.576 42.92H28.88L29.344 44.2H22.144ZM36.0086 47.096C35.1553 47.096 34.494 46.8667 34.0246 46.408C33.5553 45.9493 33.3206 45.2933 33.3206 44.44V36.664H34.8566V44.376C34.8566 44.8347 34.9686 45.1867 35.1926 45.432C35.4273 45.6773 35.758 45.8 36.1846 45.8C36.6646 45.8 37.0646 45.6667 37.3846 45.4L37.8646 46.504C37.63 46.7067 37.3473 46.856 37.0166 46.952C36.6966 47.048 36.3606 47.096 36.0086 47.096ZM31.8806 39.784V38.52H37.2886V39.784H31.8806ZM39.7216 47V38.52H41.2576V47H39.7216ZM40.4896 36.888C40.191 36.888 39.9403 36.792 39.7376 36.6C39.5456 36.408 39.4496 36.1733 39.4496 35.896C39.4496 35.608 39.5456 35.368 39.7376 35.176C39.9403 34.984 40.191 34.888 40.4896 34.888C40.7883 34.888 41.0336 34.984 41.2256 35.176C41.4283 35.3573 41.5296 35.5867 41.5296 35.864C41.5296 36.152 41.4336 36.3973 41.2416 36.6C41.0496 36.792 40.799 36.888 40.4896 36.888ZM46.4144 47L42.7024 38.52H44.3024L47.5984 46.2H46.8304L50.1904 38.52H51.6944L47.9824 47H46.4144ZM53.1279 47V38.52H54.6639V47H53.1279ZM53.8959 36.888C53.5972 36.888 53.3465 36.792 53.1439 36.6C52.9519 36.408 52.8559 36.1733 52.8559 35.896C52.8559 35.608 52.9519 35.368 53.1439 35.176C53.3465 34.984 53.5972 34.888 53.8959 34.888C54.1945 34.888 54.4399 34.984 54.6319 35.176C54.8345 35.3573 54.9359 35.5867 54.9359 35.864C54.9359 36.152 54.8399 36.3973 54.6479 36.6C54.4559 36.792 54.2052 36.888 53.8959 36.888ZM61.1006 47.096C60.2793 47.096 59.5433 46.9147 58.8926 46.552C58.2526 46.1893 57.746 45.6827 57.3726 45.032C56.9993 44.3813 56.8126 43.624 56.8126 42.76C56.8126 41.896 56.9993 41.144 57.3726 40.504C57.746 39.8533 58.2526 39.3467 58.8926 38.984C59.5433 38.6213 60.2793 38.44 61.1006 38.44C61.8153 38.44 62.4606 38.6 63.0366 38.92C63.6126 39.24 64.0713 39.72 64.4126 40.36C64.7646 41 64.9406 41.8 64.9406 42.76C64.9406 43.72 64.77 44.52 64.4286 45.16C64.098 45.8 63.6446 46.2853 63.0686 46.616C62.4926 46.936 61.8366 47.096 61.1006 47.096ZM61.2286 45.752C61.762 45.752 62.242 45.6293 62.6686 45.384C63.106 45.1387 63.4473 44.792 63.6926 44.344C63.9486 43.8853 64.0766 43.3573 64.0766 42.76C64.0766 42.152 63.9486 41.6293 63.6926 41.192C63.4473 40.744 63.106 40.3973 62.6686 40.152C62.242 39.9067 61.762 39.784 61.2286 39.784C60.6846 39.784 60.1993 39.9067 59.7726 40.152C59.346 40.3973 59.0046 40.744 58.7486 41.192C58.4926 41.6293 58.3646 42.152 58.3646 42.76C58.3646 43.3573 58.4926 43.8853 58.7486 44.344C59.0046 44.792 59.346 45.1387 59.7726 45.384C60.1993 45.6293 60.6846 45.752 61.2286 45.752ZM64.1246 47V44.712L64.2206 42.744L64.0606 40.776V35.128H65.5966V47H64.1246ZM73.7669 47V45.208L73.6869 44.872V41.816C73.6869 41.1653 73.4949 40.664 73.1109 40.312C72.7375 39.9493 72.1722 39.768 71.4149 39.768C70.9135 39.768 70.4229 39.8533 69.9429 40.024C69.4629 40.184 69.0575 40.4027 68.7269 40.68L68.0869 39.528C68.5242 39.176 69.0469 38.9093 69.6549 38.728C70.2735 38.536 70.9189 38.44 71.5909 38.44C72.7535 38.44 73.6495 38.7227 74.2789 39.288C74.9082 39.8533 75.2229 40.7173 75.2229 41.88V47H73.7669ZM70.9829 47.096C70.3535 47.096 69.7989 46.9893 69.3189 46.776C68.8495 46.5627 68.4869 46.2693 68.2309 45.896C67.9749 45.512 67.8469 45.08 67.8469 44.6C67.8469 44.1413 67.9535 43.7253 68.1669 43.352C68.3909 42.9787 68.7482 42.68 69.2389 42.456C69.7402 42.232 70.4122 42.12 71.2549 42.12H73.9429V43.224H71.3189C70.5509 43.224 70.0335 43.352 69.7669 43.608C69.5002 43.864 69.3669 44.1733 69.3669 44.536C69.3669 44.952 69.5322 45.288 69.8629 45.544C70.1935 45.7893 70.6522 45.912 71.2389 45.912C71.8149 45.912 72.3162 45.784 72.7429 45.528C73.1802 45.272 73.4949 44.8987 73.6869 44.408L73.9909 45.464C73.7882 45.9653 73.4309 46.3653 72.9189 46.664C72.4069 46.952 71.7615 47.096 70.9829 47.096ZM81.5694 47.096C80.748 47.096 80.012 46.9147 79.3614 46.552C78.7214 46.1893 78.2147 45.6827 77.8414 45.032C77.468 44.3813 77.2814 43.624 77.2814 42.76C77.2814 41.896 77.468 41.144 77.8414 40.504C78.2147 39.8533 78.7214 39.3467 79.3614 38.984C80.012 38.6213 80.748 38.44 81.5694 38.44C82.284 38.44 82.9294 38.6 83.5054 38.92C84.0814 39.24 84.54 39.72 84.8814 40.36C85.2334 41 85.4094 41.8 85.4094 42.76C85.4094 43.72 85.2387 44.52 84.8974 45.16C84.5667 45.8 84.1134 46.2853 83.5374 46.616C82.9614 46.936 82.3054 47.096 81.5694 47.096ZM81.6974 45.752C82.2307 45.752 82.7107 45.6293 83.1374 45.384C83.5747 45.1387 83.916 44.792 84.1614 44.344C84.4174 43.8853 84.5454 43.3573 84.5454 42.76C84.5454 42.152 84.4174 41.6293 84.1614 41.192C83.916 40.744 83.5747 40.3973 83.1374 40.152C82.7107 39.9067 82.2307 39.784 81.6974 39.784C81.1534 39.784 80.668 39.9067 80.2414 40.152C79.8147 40.3973 79.4734 40.744 79.2174 41.192C78.9614 41.6293 78.8334 42.152 78.8334 42.76C78.8334 43.3573 78.9614 43.8853 79.2174 44.344C79.4734 44.792 79.8147 45.1387 80.2414 45.384C80.668 45.6293 81.1534 45.752 81.6974 45.752ZM84.5934 47V44.712L84.6894 42.744L84.5294 40.776V35.128H86.0654V47H84.5934ZM92.7476 47.096C91.841 47.096 91.041 46.9093 90.3476 46.536C89.665 46.1627 89.1316 45.6507 88.7476 45C88.3743 44.3493 88.1876 43.6027 88.1876 42.76C88.1876 41.9173 88.369 41.1707 88.7316 40.52C89.105 39.8693 89.6116 39.3627 90.2516 39C90.9023 38.6267 91.633 38.44 92.4436 38.44C93.265 38.44 93.9903 38.6213 94.6196 38.984C95.249 39.3467 95.7396 39.8587 96.0916 40.52C96.4543 41.1707 96.6356 41.9333 96.6356 42.808C96.6356 42.872 96.6303 42.9467 96.6196 43.032C96.6196 43.1173 96.6143 43.1973 96.6036 43.272H89.3876V42.168H95.8036L95.1796 42.552C95.1903 42.008 95.0783 41.5227 94.8436 41.096C94.609 40.6693 94.2836 40.3387 93.8676 40.104C93.4623 39.8587 92.9876 39.736 92.4436 39.736C91.9103 39.736 91.4356 39.8587 91.0196 40.104C90.6036 40.3387 90.2783 40.6747 90.0436 41.112C89.809 41.5387 89.6916 42.0293 89.6916 42.584V42.84C89.6916 43.4053 89.8196 43.912 90.0756 44.36C90.3423 44.7973 90.7103 45.1387 91.1796 45.384C91.649 45.6293 92.1876 45.752 92.7956 45.752C93.297 45.752 93.7503 45.6667 94.1556 45.496C94.5716 45.3253 94.9343 45.0693 95.2436 44.728L96.0916 45.72C95.7076 46.168 95.2276 46.5093 94.6516 46.744C94.0863 46.9787 93.4516 47.096 92.7476 47.096ZM101.201 47.096C100.497 47.096 99.8245 47 99.1845 46.808C98.5552 46.616 98.0592 46.3813 97.6965 46.104L98.3365 44.888C98.6992 45.1333 99.1472 45.3413 99.6805 45.512C100.214 45.6827 100.758 45.768 101.312 45.768C102.027 45.768 102.539 45.6667 102.849 45.464C103.169 45.2613 103.329 44.9787 103.329 44.616C103.329 44.3493 103.233 44.1413 103.041 43.992C102.849 43.8427 102.593 43.7307 102.273 43.656C101.963 43.5813 101.617 43.5173 101.233 43.464C100.849 43.4 100.465 43.3253 100.081 43.24C99.6965 43.144 99.3445 43.016 99.0245 42.856C98.7045 42.6853 98.4485 42.456 98.2565 42.168C98.0645 41.8693 97.9685 41.4747 97.9685 40.984C97.9685 40.472 98.1125 40.024 98.4005 39.64C98.6885 39.256 99.0938 38.9627 99.6165 38.76C100.15 38.5467 100.779 38.44 101.505 38.44C102.059 38.44 102.619 38.5093 103.185 38.648C103.761 38.776 104.23 38.9627 104.593 39.208L103.937 40.424C103.553 40.168 103.153 39.992 102.737 39.896C102.321 39.8 101.905 39.752 101.489 39.752C100.817 39.752 100.315 39.864 99.9845 40.088C99.6538 40.3013 99.4885 40.5787 99.4885 40.92C99.4885 41.208 99.5845 41.432 99.7765 41.592C99.9792 41.7413 100.235 41.8587 100.545 41.944C100.865 42.0293 101.217 42.104 101.601 42.168C101.985 42.2213 102.369 42.296 102.753 42.392C103.137 42.4773 103.483 42.6 103.793 42.76C104.113 42.92 104.369 43.144 104.561 43.432C104.763 43.72 104.865 44.104 104.865 44.584C104.865 45.096 104.715 45.5387 104.417 45.912C104.118 46.2853 103.697 46.5787 103.153 46.792C102.609 46.9947 101.958 47.096 101.201 47.096ZM112.281 47V36.44L112.969 37.192H109.753V35.8H113.865V47H112.281ZM19.984 74L25.056 62.8H26.64L31.728 74H30.048L25.52 63.696H26.16L21.632 74H19.984ZM22.144 71.2L22.576 69.92H28.88L29.344 71.2H22.144ZM34.9613 74L31.2492 65.52H32.8493L36.1453 73.2H35.3773L38.7373 65.52H40.2413L36.5293 74H34.9613ZM46.6731 74V72.208L46.5931 71.872V68.816C46.5931 68.1653 46.4011 67.664 46.0171 67.312C45.6438 66.9493 45.0785 66.768 44.3211 66.768C43.8198 66.768 43.3291 66.8533 42.8491 67.024C42.3691 67.184 41.9638 67.4027 41.6331 67.68L40.9931 66.528C41.4305 66.176 41.9531 65.9093 42.5611 65.728C43.1798 65.536 43.8251 65.44 44.4971 65.44C45.6598 65.44 46.5558 65.7227 47.1851 66.288C47.8145 66.8533 48.1291 67.7173 48.1291 68.88V74H46.6731ZM43.8891 74.096C43.2598 74.096 42.7051 73.9893 42.2251 73.776C41.7558 73.5627 41.3931 73.2693 41.1371 72.896C40.8811 72.512 40.7531 72.08 40.7531 71.6C40.7531 71.1413 40.8598 70.7253 41.0731 70.352C41.2971 69.9787 41.6545 69.68 42.1451 69.456C42.6465 69.232 43.3185 69.12 44.1611 69.12H46.8491V70.224H44.2251C43.4571 70.224 42.9398 70.352 42.6731 70.608C42.4065 70.864 42.2731 71.1733 42.2731 71.536C42.2731 71.952 42.4385 72.288 42.7691 72.544C43.0998 72.7893 43.5585 72.912 44.1451 72.912C44.7211 72.912 45.2225 72.784 45.6491 72.528C46.0865 72.272 46.4011 71.8987 46.5931 71.408L46.8971 72.464C46.6945 72.9653 46.3371 73.3653 45.8251 73.664C45.3131 73.952 44.6678 74.096 43.8891 74.096ZM50.9716 74V62.128H52.5076V74H50.9716ZM55.4404 74V65.52H56.9764V74H55.4404ZM56.2084 63.888C55.9097 63.888 55.659 63.792 55.4564 63.6C55.2644 63.408 55.1684 63.1733 55.1684 62.896C55.1684 62.608 55.2644 62.368 55.4564 62.176C55.659 61.984 55.9097 61.888 56.2084 61.888C56.507 61.888 56.7524 61.984 56.9444 62.176C57.147 62.3573 57.2484 62.5867 57.2484 62.864C57.2484 63.152 57.1524 63.3973 56.9604 63.6C56.7684 63.792 56.5177 63.888 56.2084 63.888ZM65.1731 74V72.208L65.0931 71.872V68.816C65.0931 68.1653 64.9011 67.664 64.5171 67.312C64.1438 66.9493 63.5785 66.768 62.8211 66.768C62.3198 66.768 61.8291 66.8533 61.3491 67.024C60.8691 67.184 60.4638 67.4027 60.1331 67.68L59.4931 66.528C59.9305 66.176 60.4531 65.9093 61.0611 65.728C61.6798 65.536 62.3251 65.44 62.9971 65.44C64.1598 65.44 65.0558 65.7227 65.6851 66.288C66.3145 66.8533 66.6291 67.7173 66.6291 68.88V74H65.1731ZM62.3891 74.096C61.7598 74.096 61.2051 73.9893 60.7251 73.776C60.2558 73.5627 59.8931 73.2693 59.6371 72.896C59.3811 72.512 59.2531 72.08 59.2531 71.6C59.2531 71.1413 59.3598 70.7253 59.5731 70.352C59.7971 69.9787 60.1545 69.68 60.6451 69.456C61.1465 69.232 61.8185 69.12 62.6611 69.12H65.3491V70.224H62.7251C61.9571 70.224 61.4398 70.352 61.1731 70.608C60.9065 70.864 60.7731 71.1733 60.7731 71.536C60.7731 71.952 60.9385 72.288 61.2691 72.544C61.5998 72.7893 62.0585 72.912 62.6451 72.912C63.2211 72.912 63.7225 72.784 64.1491 72.528C64.5865 72.272 64.9011 71.8987 65.0931 71.408L65.3971 72.464C65.1945 72.9653 64.8371 73.3653 64.3251 73.664C63.8131 73.952 63.1678 74.096 62.3891 74.096ZM73.1676 74.096C72.3036 74.096 71.5303 73.9093 70.8476 73.536C70.1756 73.1627 69.6476 72.6507 69.2636 72C68.8796 71.3493 68.6876 70.6027 68.6876 69.76C68.6876 68.9173 68.8796 68.1707 69.2636 67.52C69.6476 66.8693 70.1756 66.3627 70.8476 66C71.5303 65.6267 72.3036 65.44 73.1676 65.44C73.9356 65.44 74.6183 65.5947 75.2156 65.904C75.8236 66.2027 76.293 66.6507 76.6236 67.248L75.4556 68C75.1783 67.584 74.837 67.28 74.4316 67.088C74.037 66.8853 73.6103 66.784 73.1516 66.784C72.597 66.784 72.101 66.9067 71.6636 67.152C71.2263 67.3973 70.8796 67.744 70.6236 68.192C70.3676 68.6293 70.2396 69.152 70.2396 69.76C70.2396 70.368 70.3676 70.896 70.6236 71.344C70.8796 71.792 71.2263 72.1387 71.6636 72.384C72.101 72.6293 72.597 72.752 73.1516 72.752C73.6103 72.752 74.037 72.656 74.4316 72.464C74.837 72.2613 75.1783 71.952 75.4556 71.536L76.6236 72.272C76.293 72.8587 75.8236 73.312 75.2156 73.632C74.6183 73.9413 73.9356 74.096 73.1676 74.096ZM72.4156 77.584C72.1383 77.584 71.8823 77.552 71.6476 77.488C71.413 77.4347 71.1943 77.3493 70.9916 77.232L71.3276 76.448C71.4983 76.544 71.669 76.6133 71.8396 76.656C72.021 76.6987 72.213 76.72 72.4156 76.72C72.725 76.72 72.949 76.6613 73.0876 76.544C73.237 76.4373 73.3116 76.2827 73.3116 76.08C73.3116 75.888 73.237 75.7333 73.0876 75.616C72.949 75.5093 72.7196 75.456 72.3996 75.456H71.9676L72.3676 73.888H73.2476L73.0076 74.8C73.4663 74.8427 73.813 74.9867 74.0476 75.232C74.2823 75.4773 74.3996 75.776 74.3996 76.128C74.3996 76.576 74.2183 76.928 73.8556 77.184C73.493 77.4507 73.013 77.584 72.4156 77.584ZM83.8763 74V72.208L83.7963 71.872V68.816C83.7963 68.1653 83.6043 67.664 83.2203 67.312C82.8469 66.9493 82.2816 66.768 81.5243 66.768C81.0229 66.768 80.5323 66.8533 80.0523 67.024C79.5723 67.184 79.1669 67.4027 78.8363 67.68L78.1963 66.528C78.6336 66.176 79.1563 65.9093 79.7643 65.728C80.3829 65.536 81.0283 65.44 81.7003 65.44C82.8629 65.44 83.7589 65.7227 84.3883 66.288C85.0176 66.8533 85.3323 67.7173 85.3323 68.88V74H83.8763ZM81.0923 74.096C80.4629 74.096 79.9083 73.9893 79.4283 73.776C78.9589 73.5627 78.5963 73.2693 78.3403 72.896C78.0843 72.512 77.9563 72.08 77.9563 71.6C77.9563 71.1413 78.0629 70.7253 78.2763 70.352C78.5003 69.9787 78.8576 69.68 79.3483 69.456C79.8496 69.232 80.5216 69.12 81.3643 69.12H84.0523V70.224H81.4283C80.6603 70.224 80.1429 70.352 79.8763 70.608C79.6096 70.864 79.4763 71.1733 79.4763 71.536C79.4763 71.952 79.6416 72.288 79.9723 72.544C80.3029 72.7893 80.7616 72.912 81.3483 72.912C81.9243 72.912 82.4256 72.784 82.8523 72.528C83.2896 72.272 83.6043 71.8987 83.7963 71.408L84.1003 72.464C83.8976 72.9653 83.5403 73.3653 83.0283 73.664C82.5163 73.952 81.8709 74.096 81.0923 74.096ZM82.9323 64.24C82.6763 64.24 82.4469 64.1867 82.2443 64.08C82.0523 63.9733 81.8763 63.8507 81.7163 63.712C81.5563 63.5627 81.4016 63.4347 81.2523 63.328C81.1029 63.2213 80.9536 63.168 80.8043 63.168C80.5696 63.168 80.3776 63.2587 80.2283 63.44C80.0896 63.6107 80.0096 63.8507 79.9883 64.16H79.1243C79.1456 63.5627 79.2949 63.088 79.5723 62.736C79.8496 62.384 80.2229 62.208 80.6923 62.208C80.9483 62.208 81.1776 62.2667 81.3802 62.384C81.5829 62.4907 81.7643 62.6187 81.9243 62.768C82.0843 62.9067 82.2336 63.0293 82.3723 63.136C82.5216 63.2427 82.6709 63.296 82.8203 63.296C83.0549 63.296 83.2469 63.2107 83.3963 63.04C83.5456 62.8693 83.6256 62.6347 83.6363 62.336H84.5003C84.4896 62.9013 84.3403 63.36 84.0523 63.712C83.7749 64.064 83.4016 64.24 82.9323 64.24ZM91.8068 74.096C90.9534 74.096 90.1961 73.9093 89.5348 73.536C88.8734 73.1627 88.3508 72.6507 87.9668 72C87.5828 71.3387 87.3908 70.592 87.3908 69.76C87.3908 68.9173 87.5828 68.1707 87.9668 67.52C88.3508 66.8693 88.8734 66.3627 89.5348 66C90.1961 65.6267 90.9534 65.44 91.8068 65.44C92.6494 65.44 93.4014 65.6267 94.0628 66C94.7348 66.3627 95.2574 66.8693 95.6308 67.52C96.0148 68.16 96.2068 68.9067 96.2068 69.76C96.2068 70.6027 96.0148 71.3493 95.6308 72C95.2574 72.6507 94.7348 73.1627 94.0628 73.536C93.4014 73.9093 92.6494 74.096 91.8068 74.096ZM91.8068 72.752C92.3508 72.752 92.8361 72.6293 93.2628 72.384C93.7001 72.1387 94.0414 71.792 94.2868 71.344C94.5321 70.8853 94.6548 70.3573 94.6548 69.76C94.6548 69.152 94.5321 68.6293 94.2868 68.192C94.0414 67.744 93.7001 67.3973 93.2628 67.152C92.8361 66.9067 92.3508 66.784 91.8068 66.784C91.2628 66.784 90.7774 66.9067 90.3508 67.152C89.9241 67.3973 89.5828 67.744 89.3268 68.192C89.0708 68.6293 88.9428 69.152 88.9428 69.76C88.9428 70.3573 89.0708 70.8853 89.3268 71.344C89.5828 71.792 89.9241 72.1387 90.3508 72.384C90.7774 72.6293 91.2628 72.752 91.8068 72.752ZM21.68 101V89.8H26.048C27.0293 89.8 27.8667 89.9547 28.56 90.264C29.2533 90.5733 29.7867 91.0213 30.16 91.608C30.5333 92.1947 30.72 92.8933 30.72 93.704C30.72 94.5147 30.5333 95.2133 30.16 95.8C29.7867 96.376 29.2533 96.824 28.56 97.144C27.8667 97.4533 27.0293 97.608 26.048 97.608H22.56L23.28 96.856V101H21.68ZM23.28 97.016L22.56 96.216H26C27.024 96.216 27.7973 95.9973 28.32 95.56C28.8533 95.1227 29.12 94.504 29.12 93.704C29.12 92.904 28.8533 92.2853 28.32 91.848C27.7973 91.4107 27.024 91.192 26 91.192H22.56L23.28 90.392V97.016ZM32.6904 101V92.52H34.1624V94.824L34.0184 94.248C34.253 93.6613 34.6477 93.2133 35.2024 92.904C35.757 92.5947 36.4397 92.44 37.2504 92.44V93.928C37.1864 93.9173 37.1224 93.912 37.0584 93.912C37.005 93.912 36.9517 93.912 36.8984 93.912C36.077 93.912 35.4264 94.1573 34.9464 94.648C34.4664 95.1387 34.2264 95.848 34.2264 96.776V101H32.6904ZM42.6974 101.096C41.844 101.096 41.0867 100.909 40.4254 100.536C39.764 100.163 39.2414 99.6507 38.8574 99C38.4734 98.3387 38.2814 97.592 38.2814 96.76C38.2814 95.9173 38.4734 95.1707 38.8574 94.52C39.2414 93.8693 39.764 93.3627 40.4254 93C41.0867 92.6267 41.844 92.44 42.6974 92.44C43.54 92.44 44.292 92.6267 44.9534 93C45.6254 93.3627 46.148 93.8693 46.5214 94.52C46.9054 95.16 47.0974 95.9067 47.0974 96.76C47.0974 97.6027 46.9054 98.3493 46.5214 99C46.148 99.6507 45.6254 100.163 44.9534 100.536C44.292 100.909 43.54 101.096 42.6974 101.096ZM42.6974 99.752C43.2414 99.752 43.7267 99.6293 44.1534 99.384C44.5907 99.1387 44.932 98.792 45.1774 98.344C45.4227 97.8853 45.5454 97.3573 45.5454 96.76C45.5454 96.152 45.4227 95.6293 45.1774 95.192C44.932 94.744 44.5907 94.3973 44.1534 94.152C43.7267 93.9067 43.2414 93.784 42.6974 93.784C42.1534 93.784 41.668 93.9067 41.2414 94.152C40.8147 94.3973 40.4734 94.744 40.2174 95.192C39.9614 95.6293 39.8334 96.152 39.8334 96.76C39.8334 97.3573 39.9614 97.8853 40.2174 98.344C40.4734 98.792 40.8147 99.1387 41.2414 99.384C41.668 99.6293 42.1534 99.752 42.6974 99.752ZM48.1336 104.2C47.7816 104.2 47.4456 104.157 47.1256 104.072C46.795 103.987 46.5176 103.859 46.2936 103.688L46.7896 102.504C47.1096 102.771 47.5256 102.904 48.0376 102.904C48.443 102.904 48.7523 102.776 48.9656 102.52C49.1896 102.275 49.3016 101.907 49.3016 101.416V92.52H50.8376V101.384C50.8376 102.248 50.603 102.931 50.1336 103.432C49.675 103.944 49.0083 104.2 48.1336 104.2ZM50.0696 90.888C49.771 90.888 49.5203 90.792 49.3176 90.6C49.1256 90.408 49.0296 90.1733 49.0296 89.896C49.0296 89.608 49.1256 89.368 49.3176 89.176C49.5203 88.984 49.771 88.888 50.0696 88.888C50.3683 88.888 50.6136 88.984 50.8056 89.176C51.0083 89.3573 51.1096 89.5867 51.1096 89.864C51.1096 90.152 51.0136 90.3973 50.8216 90.6C50.6296 90.792 50.379 90.888 50.0696 90.888ZM57.5445 101.096C56.6378 101.096 55.8378 100.909 55.1445 100.536C54.4618 100.163 53.9285 99.6507 53.5445 99C53.1712 98.3493 52.9845 97.6027 52.9845 96.76C52.9845 95.9173 53.1658 95.1707 53.5285 94.52C53.9018 93.8693 54.4085 93.3627 55.0485 93C55.6992 92.6267 56.4298 92.44 57.2405 92.44C58.0618 92.44 58.7872 92.6213 59.4165 92.984C60.0458 93.3467 60.5365 93.8587 60.8885 94.52C61.2512 95.1707 61.4325 95.9333 61.4325 96.808C61.4325 96.872 61.4272 96.9467 61.4165 97.032C61.4165 97.1173 61.4112 97.1973 61.4005 97.272H54.1845V96.168H60.6005L59.9765 96.552C59.9872 96.008 59.8752 95.5227 59.6405 95.096C59.4058 94.6693 59.0805 94.3387 58.6645 94.104C58.2592 93.8587 57.7845 93.736 57.2405 93.736C56.7072 93.736 56.2325 93.8587 55.8165 94.104C55.4005 94.3387 55.0752 94.6747 54.8405 95.112C54.6058 95.5387 54.4885 96.0293 54.4885 96.584V96.84C54.4885 97.4053 54.6165 97.912 54.8725 98.36C55.1392 98.7973 55.5072 99.1387 55.9765 99.384C56.4458 99.6293 56.9845 99.752 57.5925 99.752C58.0938 99.752 58.5472 99.6667 58.9525 99.496C59.3685 99.3253 59.7312 99.0693 60.0405 98.728L60.8885 99.72C60.5045 100.168 60.0245 100.509 59.4485 100.744C58.8832 100.979 58.2485 101.096 57.5445 101.096ZM66.4774 101.096C65.624 101.096 64.9627 100.867 64.4934 100.408C64.024 99.9493 63.7894 99.2933 63.7894 98.44V90.664H65.3254V98.376C65.3254 98.8347 65.4374 99.1867 65.6614 99.432C65.896 99.6773 66.2267 99.8 66.6534 99.8C67.1334 99.8 67.5334 99.6667 67.8534 99.4L68.3334 100.504C68.0987 100.707 67.816 100.856 67.4854 100.952C67.1654 101.048 66.8294 101.096 66.4774 101.096ZM62.3494 93.784V92.52H67.7574V93.784H62.3494ZM73.5411 101.096C72.6878 101.096 71.9305 100.909 71.2691 100.536C70.6078 100.163 70.0851 99.6507 69.7011 99C69.3171 98.3387 69.1251 97.592 69.1251 96.76C69.1251 95.9173 69.3171 95.1707 69.7011 94.52C70.0851 93.8693 70.6078 93.3627 71.2691 93C71.9305 92.6267 72.6878 92.44 73.5411 92.44C74.3838 92.44 75.1358 92.6267 75.7971 93C76.4691 93.3627 76.9918 93.8693 77.3651 94.52C77.7491 95.16 77.9411 95.9067 77.9411 96.76C77.9411 97.6027 77.7491 98.3493 77.3651 99C76.9918 99.6507 76.4691 100.163 75.7971 100.536C75.1358 100.909 74.3838 101.096 73.5411 101.096ZM73.5411 99.752C74.0851 99.752 74.5705 99.6293 74.9971 99.384C75.4345 99.1387 75.7758 98.792 76.0211 98.344C76.2665 97.8853 76.3891 97.3573 76.3891 96.76C76.3891 96.152 76.2665 95.6293 76.0211 95.192C75.7758 94.744 75.4345 94.3973 74.9971 94.152C74.5705 93.9067 74.0851 93.784 73.5411 93.784C72.9971 93.784 72.5118 93.9067 72.0851 94.152C71.6585 94.3973 71.3171 94.744 71.0611 95.192C70.8051 95.6293 70.6771 96.152 70.6771 96.76C70.6771 97.3573 70.8051 97.8853 71.0611 98.344C71.3171 98.792 71.6585 99.1387 72.0851 99.384C72.5118 99.6293 72.9971 99.752 73.5411 99.752ZM82.4974 101.096C81.7934 101.096 81.1214 101 80.4814 100.808C79.852 100.616 79.356 100.381 78.9934 100.104L79.6334 98.888C79.996 99.1333 80.444 99.3413 80.9774 99.512C81.5107 99.6827 82.0547 99.768 82.6094 99.768C83.324 99.768 83.836 99.6667 84.1454 99.464C84.4654 99.2613 84.6254 98.9787 84.6254 98.616C84.6254 98.3493 84.5294 98.1413 84.3374 97.992C84.1454 97.8427 83.8894 97.7307 83.5694 97.656C83.26 97.5813 82.9134 97.5173 82.5294 97.464C82.1454 97.4 81.7614 97.3253 81.3774 97.24C80.9934 97.144 80.6414 97.016 80.3214 96.856C80.0014 96.6853 79.7454 96.456 79.5534 96.168C79.3614 95.8693 79.2654 95.4747 79.2654 94.984C79.2654 94.472 79.4094 94.024 79.6974 93.64C79.9854 93.256 80.3907 92.9627 80.9134 92.76C81.4467 92.5467 82.076 92.44 82.8014 92.44C83.356 92.44 83.916 92.5093 84.4814 92.648C85.0574 92.776 85.5267 92.9627 85.8894 93.208L85.2334 94.424C84.8494 94.168 84.4494 93.992 84.0334 93.896C83.6174 93.8 83.2014 93.752 82.7854 93.752C82.1134 93.752 81.612 93.864 81.2814 94.088C80.9507 94.3013 80.7854 94.5787 80.7854 94.92C80.7854 95.208 80.8814 95.432 81.0734 95.592C81.276 95.7413 81.532 95.8587 81.8414 95.944C82.1614 96.0293 82.5134 96.104 82.8974 96.168C83.2814 96.2213 83.6654 96.296 84.0494 96.392C84.4334 96.4773 84.78 96.6 85.0894 96.76C85.4094 96.92 85.6654 97.144 85.8574 97.432C86.06 97.72 86.1614 98.104 86.1614 98.584C86.1614 99.096 86.012 99.5387 85.7134 99.912C85.4147 100.285 84.9934 100.579 84.4494 100.792C83.9054 100.995 83.2547 101.096 82.4974 101.096ZM19.984 128L25.056 116.8H26.64L31.728 128H30.048L25.52 117.696H26.16L21.632 128H19.984ZM22.144 125.2L22.576 123.92H28.88L29.344 125.2H22.144ZM36.0086 128.096C35.1553 128.096 34.494 127.867 34.0246 127.408C33.5553 126.949 33.3206 126.293 33.3206 125.44V117.664H34.8566V125.376C34.8566 125.835 34.9686 126.187 35.1926 126.432C35.4273 126.677 35.758 126.8 36.1846 126.8C36.6646 126.8 37.0646 126.667 37.3846 126.4L37.8646 127.504C37.63 127.707 37.3473 127.856 37.0166 127.952C36.6966 128.048 36.3606 128.096 36.0086 128.096ZM31.8806 120.784V119.52H37.2886V120.784H31.8806ZM39.7216 128V119.52H41.2576V128H39.7216ZM40.4896 117.888C40.191 117.888 39.9403 117.792 39.7376 117.6C39.5456 117.408 39.4496 117.173 39.4496 116.896C39.4496 116.608 39.5456 116.368 39.7376 116.176C39.9403 115.984 40.191 115.888 40.4896 115.888C40.7883 115.888 41.0336 115.984 41.2256 116.176C41.4283 116.357 41.5296 116.587 41.5296 116.864C41.5296 117.152 41.4336 117.397 41.2416 117.6C41.0496 117.792 40.799 117.888 40.4896 117.888ZM46.4144 128L42.7024 119.52H44.3024L47.5984 127.2H46.8304L50.1904 119.52H51.6944L47.9824 128H46.4144ZM53.1279 128V119.52H54.6639V128H53.1279ZM53.8959 117.888C53.5972 117.888 53.3465 117.792 53.1439 117.6C52.9519 117.408 52.8559 117.173 52.8559 116.896C52.8559 116.608 52.9519 116.368 53.1439 116.176C53.3465 115.984 53.5972 115.888 53.8959 115.888C54.1945 115.888 54.4399 115.984 54.6319 116.176C54.8345 116.357 54.9359 116.587 54.9359 116.864C54.9359 117.152 54.8399 117.397 54.6479 117.6C54.4559 117.792 54.2052 117.888 53.8959 117.888ZM61.1006 128.096C60.2793 128.096 59.5433 127.915 58.8926 127.552C58.2526 127.189 57.746 126.683 57.3726 126.032C56.9993 125.381 56.8126 124.624 56.8126 123.76C56.8126 122.896 56.9993 122.144 57.3726 121.504C57.746 120.853 58.2526 120.347 58.8926 119.984C59.5433 119.621 60.2793 119.44 61.1006 119.44C61.8153 119.44 62.4606 119.6 63.0366 119.92C63.6126 120.24 64.0713 120.72 64.4126 121.36C64.7646 122 64.9406 122.8 64.9406 123.76C64.9406 124.72 64.77 125.52 64.4286 126.16C64.098 126.8 63.6446 127.285 63.0686 127.616C62.4926 127.936 61.8366 128.096 61.1006 128.096ZM61.2286 126.752C61.762 126.752 62.242 126.629 62.6686 126.384C63.106 126.139 63.4473 125.792 63.6926 125.344C63.9486 124.885 64.0766 124.357 64.0766 123.76C64.0766 123.152 63.9486 122.629 63.6926 122.192C63.4473 121.744 63.106 121.397 62.6686 121.152C62.242 120.907 61.762 120.784 61.2286 120.784C60.6846 120.784 60.1993 120.907 59.7726 121.152C59.346 121.397 59.0046 121.744 58.7486 122.192C58.4926 122.629 58.3646 123.152 58.3646 123.76C58.3646 124.357 58.4926 124.885 58.7486 125.344C59.0046 125.792 59.346 126.139 59.7726 126.384C60.1993 126.629 60.6846 126.752 61.2286 126.752ZM64.1246 128V125.712L64.2206 123.744L64.0606 121.776V116.128H65.5966V128H64.1246ZM73.7669 128V126.208L73.6869 125.872V122.816C73.6869 122.165 73.4949 121.664 73.1109 121.312C72.7375 120.949 72.1722 120.768 71.4149 120.768C70.9135 120.768 70.4229 120.853 69.9429 121.024C69.4629 121.184 69.0575 121.403 68.7269 121.68L68.0869 120.528C68.5242 120.176 69.0469 119.909 69.6549 119.728C70.2735 119.536 70.9189 119.44 71.5909 119.44C72.7535 119.44 73.6495 119.723 74.2789 120.288C74.9082 120.853 75.2229 121.717 75.2229 122.88V128H73.7669ZM70.9829 128.096C70.3535 128.096 69.7989 127.989 69.3189 127.776C68.8495 127.563 68.4869 127.269 68.2309 126.896C67.9749 126.512 67.8469 126.08 67.8469 125.6C67.8469 125.141 67.9535 124.725 68.1669 124.352C68.3909 123.979 68.7482 123.68 69.2389 123.456C69.7402 123.232 70.4122 123.12 71.2549 123.12H73.9429V124.224H71.3189C70.5509 124.224 70.0335 124.352 69.7669 124.608C69.5002 124.864 69.3669 125.173 69.3669 125.536C69.3669 125.952 69.5322 126.288 69.8629 126.544C70.1935 126.789 70.6522 126.912 71.2389 126.912C71.8149 126.912 72.3162 126.784 72.7429 126.528C73.1802 126.272 73.4949 125.899 73.6869 125.408L73.9909 126.464C73.7882 126.965 73.4309 127.365 72.9189 127.664C72.4069 127.952 71.7615 128.096 70.9829 128.096ZM81.5694 128.096C80.748 128.096 80.012 127.915 79.3614 127.552C78.7214 127.189 78.2147 126.683 77.8414 126.032C77.468 125.381 77.2814 124.624 77.2814 123.76C77.2814 122.896 77.468 122.144 77.8414 121.504C78.2147 120.853 78.7214 120.347 79.3614 119.984C80.012 119.621 80.748 119.44 81.5694 119.44C82.284 119.44 82.9294 119.6 83.5054 119.92C84.0814 120.24 84.54 120.72 84.8814 121.36C85.2334 122 85.4094 122.8 85.4094 123.76C85.4094 124.72 85.2387 125.52 84.8974 126.16C84.5667 126.8 84.1134 127.285 83.5374 127.616C82.9614 127.936 82.3054 128.096 81.5694 128.096ZM81.6974 126.752C82.2307 126.752 82.7107 126.629 83.1374 126.384C83.5747 126.139 83.916 125.792 84.1614 125.344C84.4174 124.885 84.5454 124.357 84.5454 123.76C84.5454 123.152 84.4174 122.629 84.1614 122.192C83.916 121.744 83.5747 121.397 83.1374 121.152C82.7107 120.907 82.2307 120.784 81.6974 120.784C81.1534 120.784 80.668 120.907 80.2414 121.152C79.8147 121.397 79.4734 121.744 79.2174 122.192C78.9614 122.629 78.8334 123.152 78.8334 123.76C78.8334 124.357 78.9614 124.885 79.2174 125.344C79.4734 125.792 79.8147 126.139 80.2414 126.384C80.668 126.629 81.1534 126.752 81.6974 126.752ZM84.5934 128V125.712L84.6894 123.744L84.5294 121.776V116.128H86.0654V128H84.5934ZM92.7476 128.096C91.841 128.096 91.041 127.909 90.3476 127.536C89.665 127.163 89.1316 126.651 88.7476 126C88.3743 125.349 88.1876 124.603 88.1876 123.76C88.1876 122.917 88.369 122.171 88.7316 121.52C89.105 120.869 89.6116 120.363 90.2516 120C90.9023 119.627 91.633 119.44 92.4436 119.44C93.265 119.44 93.9903 119.621 94.6196 119.984C95.249 120.347 95.7396 120.859 96.0916 121.52C96.4543 122.171 96.6356 122.933 96.6356 123.808C96.6356 123.872 96.6303 123.947 96.6196 124.032C96.6196 124.117 96.6143 124.197 96.6036 124.272H89.3876V123.168H95.8036L95.1796 123.552C95.1903 123.008 95.0783 122.523 94.8436 122.096C94.609 121.669 94.2836 121.339 93.8676 121.104C93.4623 120.859 92.9876 120.736 92.4436 120.736C91.9103 120.736 91.4356 120.859 91.0196 121.104C90.6036 121.339 90.2783 121.675 90.0436 122.112C89.809 122.539 89.6916 123.029 89.6916 123.584V123.84C89.6916 124.405 89.8196 124.912 90.0756 125.36C90.3423 125.797 90.7103 126.139 91.1796 126.384C91.649 126.629 92.1876 126.752 92.7956 126.752C93.297 126.752 93.7503 126.667 94.1556 126.496C94.5716 126.325 94.9343 126.069 95.2436 125.728L96.0916 126.72C95.7076 127.168 95.2276 127.509 94.6516 127.744C94.0863 127.979 93.4516 128.096 92.7476 128.096ZM101.201 128.096C100.497 128.096 99.8245 128 99.1845 127.808C98.5552 127.616 98.0592 127.381 97.6965 127.104L98.3365 125.888C98.6992 126.133 99.1472 126.341 99.6805 126.512C100.214 126.683 100.758 126.768 101.312 126.768C102.027 126.768 102.539 126.667 102.849 126.464C103.169 126.261 103.329 125.979 103.329 125.616C103.329 125.349 103.233 125.141 103.041 124.992C102.849 124.843 102.593 124.731 102.273 124.656C101.963 124.581 101.617 124.517 101.233 124.464C100.849 124.4 100.465 124.325 100.081 124.24C99.6965 124.144 99.3445 124.016 99.0245 123.856C98.7045 123.685 98.4485 123.456 98.2565 123.168C98.0645 122.869 97.9685 122.475 97.9685 121.984C97.9685 121.472 98.1125 121.024 98.4005 120.64C98.6885 120.256 99.0938 119.963 99.6165 119.76C100.15 119.547 100.779 119.44 101.505 119.44C102.059 119.44 102.619 119.509 103.185 119.648C103.761 119.776 104.23 119.963 104.593 120.208L103.937 121.424C103.553 121.168 103.153 120.992 102.737 120.896C102.321 120.8 101.905 120.752 101.489 120.752C100.817 120.752 100.315 120.864 99.9845 121.088C99.6538 121.301 99.4885 121.579 99.4885 121.92C99.4885 122.208 99.5845 122.432 99.7765 122.592C99.9792 122.741 100.235 122.859 100.545 122.944C100.865 123.029 101.217 123.104 101.601 123.168C101.985 123.221 102.369 123.296 102.753 123.392C103.137 123.477 103.483 123.6 103.793 123.76C104.113 123.92 104.369 124.144 104.561 124.432C104.763 124.72 104.865 125.104 104.865 125.584C104.865 126.096 104.715 126.539 104.417 126.912C104.118 127.285 103.697 127.579 103.153 127.792C102.609 127.995 101.958 128.096 101.201 128.096ZM110.217 128V126.912L114.777 122.512C115.182 122.128 115.481 121.792 115.673 121.504C115.876 121.205 116.009 120.933 116.073 120.688C116.148 120.432 116.185 120.187 116.185 119.952C116.185 119.376 115.982 118.923 115.577 118.592C115.172 118.261 114.58 118.096 113.801 118.096C113.204 118.096 112.665 118.197 112.185 118.4C111.705 118.592 111.289 118.896 110.937 119.312L109.849 118.368C110.276 117.824 110.846 117.408 111.561 117.12C112.286 116.821 113.081 116.672 113.945 116.672C114.724 116.672 115.401 116.8 115.977 117.056C116.553 117.301 116.996 117.659 117.305 118.128C117.625 118.597 117.785 119.152 117.785 119.792C117.785 120.155 117.737 120.512 117.641 120.864C117.545 121.216 117.364 121.589 117.097 121.984C116.83 122.379 116.446 122.821 115.945 123.312L111.881 127.232L111.497 126.608H118.265V128H110.217ZM21.504 155V143.8H23.216L28.112 151.976H27.216L32.032 143.8H33.744L33.76 155H31.792L31.776 146.888H32.192L28.096 153.72H27.168L23.008 146.888H23.488V155H21.504ZM40.6093 155.112C39.6599 155.112 38.8279 154.925 38.1133 154.552C37.4093 154.168 36.8599 153.645 36.4653 152.984C36.0813 152.323 35.8893 151.571 35.8893 150.728C35.8893 149.875 36.0759 149.123 36.4493 148.472C36.8333 147.811 37.3559 147.293 38.0173 146.92C38.6893 146.547 39.4519 146.36 40.3053 146.36C41.1373 146.36 41.8786 146.541 42.5293 146.904C43.1799 147.267 43.6919 147.779 44.0653 148.44C44.4386 149.101 44.6253 149.88 44.6253 150.776C44.6253 150.861 44.6199 150.957 44.6093 151.064C44.6093 151.171 44.6039 151.272 44.5933 151.368H37.4733V150.04H43.5373L42.7533 150.456C42.7639 149.965 42.6626 149.533 42.4493 149.16C42.2359 148.787 41.9426 148.493 41.5693 148.28C41.2066 148.067 40.7853 147.96 40.3053 147.96C39.8146 147.96 39.3826 148.067 39.0093 148.28C38.6466 148.493 38.3586 148.792 38.1453 149.176C37.9426 149.549 37.8413 149.992 37.8413 150.504V150.824C37.8413 151.336 37.9586 151.789 38.1933 152.184C38.4279 152.579 38.7586 152.883 39.1853 153.096C39.6119 153.309 40.1026 153.416 40.6573 153.416C41.1373 153.416 41.5693 153.341 41.9533 153.192C42.3373 153.043 42.6786 152.808 42.9773 152.488L44.0493 153.72C43.6653 154.168 43.1799 154.515 42.5933 154.76C42.0173 154.995 41.3559 155.112 40.6093 155.112ZM38.9133 145.288L41.0733 143.096H43.4253L40.6413 145.288H38.9133ZM50.1624 155.112C49.341 155.112 48.5997 154.931 47.9384 154.568C47.2877 154.195 46.7757 153.683 46.4024 153.032C46.029 152.381 45.8424 151.613 45.8424 150.728C45.8424 149.843 46.029 149.075 46.4024 148.424C46.7757 147.773 47.2877 147.267 47.9384 146.904C48.5997 146.541 49.341 146.36 50.1624 146.36C50.877 146.36 51.517 146.52 52.0824 146.84C52.6477 147.149 53.0957 147.624 53.4264 148.264C53.757 148.904 53.9224 149.725 53.9224 150.728C53.9224 151.72 53.7624 152.541 53.4424 153.192C53.1224 153.832 52.6797 154.312 52.1144 154.632C51.549 154.952 50.8984 155.112 50.1624 155.112ZM50.4024 153.4C50.8824 153.4 51.309 153.293 51.6824 153.08C52.0664 152.867 52.3704 152.557 52.5944 152.152C52.829 151.747 52.9464 151.272 52.9464 150.728C52.9464 150.173 52.829 149.699 52.5944 149.304C52.3704 148.899 52.0664 148.589 51.6824 148.376C51.309 148.163 50.8824 148.056 50.4024 148.056C49.9224 148.056 49.4904 148.163 49.1064 148.376C48.733 148.589 48.429 148.899 48.1944 149.304C47.9704 149.699 47.8584 150.173 47.8584 150.728C47.8584 151.272 47.9704 151.747 48.1944 152.152C48.429 152.557 48.733 152.867 49.1064 153.08C49.4904 153.293 49.9224 153.4 50.4024 153.4ZM52.9944 155V152.984L53.0744 150.712L52.9144 148.44V143.128H54.8984V155H52.9944ZM57.5308 155V146.456H59.5308V155H57.5308ZM58.5388 145.048C58.1654 145.048 57.8561 144.931 57.6108 144.696C57.3761 144.461 57.2588 144.179 57.2588 143.848C57.2588 143.507 57.3761 143.224 57.6108 143C57.8561 142.765 58.1654 142.648 58.5388 142.648C58.9121 142.648 59.2161 142.76 59.4508 142.984C59.6961 143.197 59.8188 143.469 59.8188 143.8C59.8188 144.152 59.7014 144.451 59.4668 144.696C59.2321 144.931 58.9228 145.048 58.5388 145.048ZM67.4198 155V153.272L67.3078 152.904V149.88C67.3078 149.293 67.1318 148.84 66.7798 148.52C66.4278 148.189 65.8944 148.024 65.1798 148.024C64.6998 148.024 64.2251 148.099 63.7558 148.248C63.2971 148.397 62.9078 148.605 62.5878 148.872L61.8038 147.416C62.2624 147.064 62.8064 146.803 63.4358 146.632C64.0758 146.451 64.7371 146.36 65.4198 146.36C66.6571 146.36 67.6118 146.659 68.2838 147.256C68.9664 147.843 69.3078 148.755 69.3078 149.992V155H67.4198ZM64.7318 155.112C64.0918 155.112 63.5318 155.005 63.0518 154.792C62.5718 154.568 62.1984 154.264 61.9318 153.88C61.6758 153.485 61.5478 153.043 61.5478 152.552C61.5478 152.072 61.6598 151.64 61.8838 151.256C62.1184 150.872 62.4971 150.568 63.0198 150.344C63.5424 150.12 64.2358 150.008 65.0998 150.008H67.5798V151.336H65.2438C64.5611 151.336 64.1024 151.448 63.8678 151.672C63.6331 151.885 63.5158 152.152 63.5158 152.472C63.5158 152.835 63.6598 153.123 63.9478 153.336C64.2358 153.549 64.6358 153.656 65.1478 153.656C65.6384 153.656 66.0758 153.544 66.4598 153.32C66.8544 153.096 67.1371 152.765 67.3078 152.328L67.6438 153.528C67.4518 154.029 67.1051 154.419 66.6038 154.696C66.1131 154.973 65.4891 155.112 64.7318 155.112Z" fill="#2A2828"/>
<path d="M265.4 35.672C266.413 35.672 267.267 35.8907 267.96 36.328C268.664 36.7653 269.197 37.4 269.56 38.232C269.923 39.0533 270.104 40.0613 270.104 41.256C270.104 42.5253 269.88 43.5973 269.432 44.472C268.984 45.3467 268.365 46.008 267.576 46.456C266.787 46.904 265.864 47.128 264.808 47.128C264.285 47.128 263.779 47.0747 263.288 46.968C262.808 46.8613 262.387 46.696 262.024 46.472L262.632 45.224C262.931 45.416 263.261 45.5547 263.624 45.64C263.997 45.7147 264.387 45.752 264.792 45.752C265.923 45.752 266.824 45.4 267.496 44.696C268.168 43.9813 268.504 42.9253 268.504 41.528C268.504 41.304 268.493 41.0373 268.472 40.728C268.451 40.4187 268.403 40.1147 268.328 39.816L268.856 40.36C268.707 40.8507 268.456 41.2667 268.104 41.608C267.763 41.9387 267.347 42.1893 266.856 42.36C266.376 42.52 265.848 42.6 265.272 42.6C264.536 42.6 263.88 42.4613 263.304 42.184C262.728 41.9067 262.275 41.5173 261.944 41.016C261.613 40.504 261.448 39.9013 261.448 39.208C261.448 38.4827 261.619 37.8587 261.96 37.336C262.312 36.8027 262.787 36.392 263.384 36.104C263.992 35.816 264.664 35.672 265.4 35.672ZM265.464 36.968C264.984 36.968 264.557 37.0587 264.184 37.24C263.811 37.4213 263.517 37.672 263.304 37.992C263.101 38.312 263 38.696 263 39.144C263 39.8053 263.229 40.3333 263.688 40.728C264.147 41.112 264.765 41.304 265.544 41.304C266.056 41.304 266.504 41.208 266.888 41.016C267.283 40.824 267.587 40.5627 267.8 40.232C268.024 39.9013 268.136 39.5333 268.136 39.128C268.136 38.7333 268.035 38.376 267.832 38.056C267.629 37.736 267.331 37.4747 266.936 37.272C266.541 37.0693 266.051 36.968 265.464 36.968ZM271.536 49.368L272.336 46.136L272.544 47.064C272.234 47.064 271.973 46.968 271.76 46.776C271.557 46.584 271.456 46.3227 271.456 45.992C271.456 45.672 271.557 45.4107 271.76 45.208C271.973 45.0053 272.229 44.904 272.528 44.904C272.837 44.904 273.088 45.0107 273.28 45.224C273.472 45.4267 273.568 45.6827 273.568 45.992C273.568 46.0987 273.557 46.2053 273.536 46.312C273.525 46.408 273.498 46.5253 273.456 46.664C273.424 46.792 273.37 46.952 273.296 47.144L272.544 49.368H271.536ZM279.469 47.128C278.594 47.128 277.81 46.904 277.117 46.456C276.434 46.008 275.89 45.3573 275.485 44.504C275.09 43.6507 274.893 42.616 274.893 41.4C274.893 40.184 275.09 39.1493 275.485 38.296C275.89 37.4427 276.434 36.792 277.117 36.344C277.81 35.896 278.594 35.672 279.469 35.672C280.333 35.672 281.112 35.896 281.805 36.344C282.498 36.792 283.042 37.4427 283.437 38.296C283.832 39.1493 284.029 40.184 284.029 41.4C284.029 42.616 283.832 43.6507 283.437 44.504C283.042 45.3573 282.498 46.008 281.805 46.456C281.112 46.904 280.333 47.128 279.469 47.128ZM279.469 45.704C280.056 45.704 280.568 45.544 281.005 45.224C281.453 44.904 281.8 44.424 282.045 43.784C282.301 43.144 282.429 42.3493 282.429 41.4C282.429 40.4507 282.301 39.656 282.045 39.016C281.8 38.376 281.453 37.896 281.005 37.576C280.568 37.256 280.056 37.096 279.469 37.096C278.882 37.096 278.365 37.256 277.917 37.576C277.469 37.896 277.117 38.376 276.861 39.016C276.616 39.656 276.493 40.4507 276.493 41.4C276.493 42.3493 276.616 43.144 276.861 43.784C277.117 44.424 277.469 44.904 277.917 45.224C278.365 45.544 278.882 45.704 279.469 45.704ZM266.472 74.128C265.48 74.128 264.632 73.9093 263.928 73.472C263.224 73.0347 262.685 72.4053 262.312 71.584C261.949 70.752 261.768 69.7387 261.768 68.544C261.768 67.2747 261.992 66.2027 262.44 65.328C262.888 64.4533 263.512 63.792 264.312 63.344C265.112 62.896 266.029 62.672 267.064 62.672C267.597 62.672 268.104 62.7253 268.584 62.832C269.075 62.9387 269.496 63.104 269.848 63.328L269.24 64.576C268.952 64.3733 268.621 64.2347 268.248 64.16C267.885 64.0853 267.501 64.048 267.096 64.048C265.955 64.048 265.048 64.4053 264.376 65.12C263.704 65.824 263.368 66.8747 263.368 68.272C263.368 68.496 263.379 68.7627 263.4 69.072C263.421 69.3813 263.475 69.6853 263.56 69.984L263.016 69.44C263.176 68.9493 263.427 68.5387 263.768 68.208C264.12 67.8667 264.536 67.616 265.016 67.456C265.507 67.2853 266.035 67.2 266.6 67.2C267.347 67.2 268.008 67.3387 268.584 67.616C269.16 67.8933 269.613 68.288 269.944 68.8C270.275 69.3013 270.44 69.8987 270.44 70.592C270.44 71.3067 270.264 71.9307 269.912 72.464C269.56 72.9973 269.085 73.408 268.488 73.696C267.891 73.984 267.219 74.128 266.472 74.128ZM266.408 72.832C266.899 72.832 267.325 72.7413 267.688 72.56C268.061 72.3787 268.355 72.128 268.568 71.808C268.781 71.4773 268.888 71.0933 268.888 70.656C268.888 69.9947 268.659 69.472 268.2 69.088C267.741 68.6933 267.117 68.496 266.328 68.496C265.816 68.496 265.368 68.592 264.984 68.784C264.6 68.976 264.296 69.2373 264.072 69.568C263.859 69.888 263.752 70.256 263.752 70.672C263.752 71.056 263.853 71.4133 264.056 71.744C264.259 72.064 264.557 72.3253 264.952 72.528C265.347 72.7307 265.832 72.832 266.408 72.832ZM271.879 76.368L272.679 73.136L272.887 74.064C272.578 74.064 272.317 73.968 272.103 73.776C271.901 73.584 271.799 73.3227 271.799 72.992C271.799 72.672 271.901 72.4107 272.103 72.208C272.317 72.0053 272.573 71.904 272.871 71.904C273.181 71.904 273.431 72.0107 273.623 72.224C273.815 72.4267 273.911 72.6827 273.911 72.992C273.911 73.0987 273.901 73.2053 273.879 73.312C273.869 73.408 273.842 73.5253 273.799 73.664C273.767 73.792 273.714 73.952 273.639 74.144L272.887 76.368H271.879ZM279.04 74.128C278.251 74.128 277.483 74.0053 276.736 73.76C276 73.5147 275.398 73.184 274.928 72.768L275.664 71.504C276.038 71.856 276.523 72.144 277.12 72.368C277.718 72.592 278.352 72.704 279.024 72.704C279.878 72.704 280.534 72.5227 280.992 72.16C281.451 71.7973 281.68 71.312 281.68 70.704C281.68 70.288 281.579 69.9253 281.376 69.616C281.174 69.3067 280.822 69.072 280.32 68.912C279.83 68.7413 279.152 68.656 278.288 68.656H275.744L276.336 62.8H282.656V64.192H276.928L277.76 63.408L277.296 68.032L276.464 67.264H278.624C279.744 67.264 280.646 67.408 281.328 67.696C282.011 67.984 282.507 68.384 282.816 68.896C283.126 69.3973 283.28 69.9787 283.28 70.64C283.28 71.28 283.126 71.8667 282.816 72.4C282.507 72.9227 282.038 73.344 281.408 73.664C280.79 73.9733 280 74.128 279.04 74.128ZM266.136 101.128C265.229 101.128 264.445 100.995 263.784 100.728C263.123 100.461 262.611 100.083 262.248 99.592C261.885 99.0907 261.704 98.504 261.704 97.832C261.704 97.1707 261.875 96.6107 262.216 96.152C262.568 95.6827 263.075 95.3307 263.736 95.096C264.397 94.8507 265.197 94.728 266.136 94.728C267.075 94.728 267.875 94.8507 268.536 95.096C269.208 95.3307 269.72 95.6827 270.072 96.152C270.424 96.6213 270.6 97.1813 270.6 97.832C270.6 98.504 270.419 99.0907 270.056 99.592C269.693 100.083 269.176 100.461 268.504 100.728C267.832 100.995 267.043 101.128 266.136 101.128ZM266.136 99.832C267.032 99.832 267.731 99.6507 268.232 99.288C268.744 98.9147 269 98.4133 269 97.784C269 97.1653 268.744 96.68 268.232 96.328C267.731 95.9653 267.032 95.784 266.136 95.784C265.251 95.784 264.557 95.9653 264.056 96.328C263.555 96.68 263.304 97.1653 263.304 97.784C263.304 98.4133 263.555 98.9147 264.056 99.288C264.557 99.6507 265.251 99.832 266.136 99.832ZM266.136 95.592C265.283 95.592 264.557 95.48 263.96 95.256C263.363 95.0213 262.904 94.6907 262.584 94.264C262.264 93.8267 262.104 93.3093 262.104 92.712C262.104 92.0827 262.269 91.544 262.6 91.096C262.941 90.6373 263.416 90.2853 264.024 90.04C264.632 89.7947 265.336 89.672 266.136 89.672C266.947 89.672 267.656 89.7947 268.264 90.04C268.872 90.2853 269.347 90.6373 269.688 91.096C270.029 91.544 270.2 92.0827 270.2 92.712C270.2 93.3093 270.04 93.8267 269.72 94.264C269.4 94.6907 268.936 95.0213 268.328 95.256C267.72 95.48 266.989 95.592 266.136 95.592ZM266.136 94.568C266.915 94.568 267.523 94.408 267.96 94.088C268.408 93.768 268.632 93.3307 268.632 92.776C268.632 92.2107 268.403 91.768 267.944 91.448C267.485 91.128 266.883 90.968 266.136 90.968C265.389 90.968 264.792 91.128 264.344 91.448C263.907 91.768 263.688 92.2107 263.688 92.776C263.688 93.3307 263.901 93.768 264.328 94.088C264.765 94.408 265.368 94.568 266.136 94.568ZM272.301 103.368L273.101 100.136L273.309 101.064C273 101.064 272.738 100.968 272.525 100.776C272.322 100.584 272.221 100.323 272.221 99.992C272.221 99.672 272.322 99.4107 272.525 99.208C272.738 99.0053 272.994 98.904 273.293 98.904C273.602 98.904 273.853 99.0107 274.045 99.224C274.237 99.4267 274.333 99.6827 274.333 99.992C274.333 100.099 274.322 100.205 274.301 100.312C274.29 100.408 274.264 100.525 274.221 100.664C274.189 100.792 274.136 100.952 274.061 101.144L273.309 103.368H272.301ZM279.478 89.672C280.491 89.672 281.345 89.8907 282.038 90.328C282.742 90.7653 283.275 91.4 283.638 92.232C284.001 93.0533 284.182 94.0613 284.182 95.256C284.182 96.5253 283.958 97.5973 283.51 98.472C283.062 99.3467 282.443 100.008 281.654 100.456C280.865 100.904 279.942 101.128 278.886 101.128C278.363 101.128 277.857 101.075 277.366 100.968C276.886 100.861 276.465 100.696 276.102 100.472L276.71 99.224C277.009 99.416 277.339 99.5547 277.702 99.64C278.075 99.7147 278.465 99.752 278.87 99.752C280.001 99.752 280.902 99.4 281.574 98.696C282.246 97.9813 282.582 96.9253 282.582 95.528C282.582 95.304 282.571 95.0373 282.55 94.728C282.529 94.4187 282.481 94.1147 282.406 93.816L282.934 94.36C282.785 94.8507 282.534 95.2667 282.182 95.608C281.841 95.9387 281.425 96.1893 280.934 96.36C280.454 96.52 279.926 96.6 279.35 96.6C278.614 96.6 277.958 96.4613 277.382 96.184C276.806 95.9067 276.353 95.5173 276.022 95.016C275.691 94.504 275.526 93.9013 275.526 93.208C275.526 92.4827 275.697 91.8587 276.038 91.336C276.39 90.8027 276.865 90.392 277.462 90.104C278.07 89.816 278.742 89.672 279.478 89.672ZM279.542 90.968C279.062 90.968 278.635 91.0587 278.262 91.24C277.889 91.4213 277.595 91.672 277.382 91.992C277.179 92.312 277.078 92.696 277.078 93.144C277.078 93.8053 277.307 94.3333 277.766 94.728C278.225 95.112 278.843 95.304 279.622 95.304C280.134 95.304 280.582 95.208 280.966 95.016C281.361 94.824 281.665 94.5627 281.878 94.232C282.102 93.9013 282.214 93.5333 282.214 93.128C282.214 92.7333 282.113 92.376 281.91 92.056C281.707 91.736 281.409 91.4747 281.014 91.272C280.619 91.0693 280.129 90.968 279.542 90.968ZM263.704 128L268.456 117.472L268.872 118.192H262.216L263.016 117.408V120.192H261.48V116.8H269.928V117.888L265.4 128H263.704ZM270.582 130.368L271.382 127.136L271.59 128.064C271.281 128.064 271.02 127.968 270.806 127.776C270.604 127.584 270.502 127.323 270.502 126.992C270.502 126.672 270.604 126.411 270.806 126.208C271.02 126.005 271.276 125.904 271.574 125.904C271.884 125.904 272.134 126.011 272.326 126.224C272.518 126.427 272.614 126.683 272.614 126.992C272.614 127.099 272.604 127.205 272.582 127.312C272.572 127.408 272.545 127.525 272.502 127.664C272.47 127.792 272.417 127.952 272.342 128.144L271.59 130.368H270.582ZM278.652 128.128C277.745 128.128 276.961 127.995 276.3 127.728C275.638 127.461 275.126 127.083 274.764 126.592C274.401 126.091 274.22 125.504 274.22 124.832C274.22 124.171 274.39 123.611 274.732 123.152C275.084 122.683 275.59 122.331 276.252 122.096C276.913 121.851 277.713 121.728 278.652 121.728C279.59 121.728 280.39 121.851 281.052 122.096C281.724 122.331 282.236 122.683 282.588 123.152C282.94 123.621 283.116 124.181 283.116 124.832C283.116 125.504 282.934 126.091 282.572 126.592C282.209 127.083 281.692 127.461 281.02 127.728C280.348 127.995 279.558 128.128 278.652 128.128ZM278.652 126.832C279.548 126.832 280.246 126.651 280.748 126.288C281.26 125.915 281.516 125.413 281.516 124.784C281.516 124.165 281.26 123.68 280.748 123.328C280.246 122.965 279.548 122.784 278.652 122.784C277.766 122.784 277.073 122.965 276.572 123.328C276.07 123.68 275.82 124.165 275.82 124.784C275.82 125.413 276.07 125.915 276.572 126.288C277.073 126.651 277.766 126.832 278.652 126.832ZM278.652 122.592C277.798 122.592 277.073 122.48 276.476 122.256C275.878 122.021 275.42 121.691 275.1 121.264C274.78 120.827 274.62 120.309 274.62 119.712C274.62 119.083 274.785 118.544 275.116 118.096C275.457 117.637 275.932 117.285 276.54 117.04C277.148 116.795 277.852 116.672 278.652 116.672C279.462 116.672 280.172 116.795 280.78 117.04C281.388 117.285 281.862 117.637 282.204 118.096C282.545 118.544 282.716 119.083 282.716 119.712C282.716 120.309 282.556 120.827 282.236 121.264C281.916 121.691 281.452 122.021 280.844 122.256C280.236 122.48 279.505 122.592 278.652 122.592ZM278.652 121.568C279.43 121.568 280.038 121.408 280.476 121.088C280.924 120.768 281.148 120.331 281.148 119.776C281.148 119.211 280.918 118.768 280.46 118.448C280.001 118.128 279.398 117.968 278.652 117.968C277.905 117.968 277.308 118.128 276.86 118.448C276.422 118.768 276.204 119.211 276.204 119.776C276.204 120.331 276.417 120.768 276.844 121.088C277.281 121.408 277.884 121.568 278.652 121.568ZM266.2 155.16C265.272 155.16 264.467 155.021 263.784 154.744C263.101 154.467 262.573 154.077 262.2 153.576C261.827 153.064 261.64 152.467 261.64 151.784C261.64 151.101 261.821 150.525 262.184 150.056C262.547 149.587 263.069 149.229 263.752 148.984C264.435 148.739 265.251 148.616 266.2 148.616C267.149 148.616 267.965 148.739 268.648 148.984C269.341 149.229 269.869 149.592 270.232 150.072C270.605 150.541 270.792 151.112 270.792 151.784C270.792 152.467 270.6 153.064 270.216 153.576C269.843 154.077 269.309 154.467 268.616 154.744C267.933 155.021 267.128 155.16 266.2 155.16ZM266.2 153.528C266.968 153.528 267.576 153.368 268.024 153.048C268.472 152.728 268.696 152.285 268.696 151.72C268.696 151.165 268.472 150.728 268.024 150.408C267.576 150.088 266.968 149.928 266.2 149.928C265.432 149.928 264.829 150.088 264.392 150.408C263.955 150.728 263.736 151.165 263.736 151.72C263.736 152.285 263.955 152.728 264.392 153.048C264.829 153.368 265.432 153.528 266.2 153.528ZM266.2 149.704C265.336 149.704 264.595 149.592 263.976 149.368C263.357 149.133 262.877 148.797 262.536 148.36C262.205 147.912 262.04 147.379 262.04 146.76C262.04 146.12 262.211 145.571 262.552 145.112C262.904 144.643 263.395 144.28 264.024 144.024C264.653 143.768 265.379 143.64 266.2 143.64C267.032 143.64 267.763 143.768 268.392 144.024C269.021 144.28 269.512 144.643 269.864 145.112C270.216 145.571 270.392 146.12 270.392 146.76C270.392 147.379 270.221 147.912 269.88 148.36C269.549 148.797 269.069 149.133 268.44 149.368C267.811 149.592 267.064 149.704 266.2 149.704ZM266.2 148.424C266.861 148.424 267.384 148.285 267.768 148.008C268.152 147.72 268.344 147.336 268.344 146.856C268.344 146.355 268.147 145.965 267.752 145.688C267.357 145.411 266.84 145.272 266.2 145.272C265.56 145.272 265.048 145.411 264.664 145.688C264.28 145.965 264.088 146.355 264.088 146.856C264.088 147.336 264.275 147.72 264.648 148.008C265.032 148.285 265.549 148.424 266.2 148.424ZM272.378 157.416L273.306 153.88L273.578 155.064C273.204 155.064 272.89 154.952 272.634 154.728C272.388 154.493 272.266 154.179 272.266 153.784C272.266 153.379 272.388 153.059 272.634 152.824C272.89 152.579 273.199 152.456 273.562 152.456C273.935 152.456 274.244 152.579 274.49 152.824C274.735 153.069 274.858 153.389 274.858 153.784C274.858 153.891 274.847 154.008 274.826 154.136C274.804 154.253 274.767 154.392 274.714 154.552C274.671 154.712 274.596 154.915 274.49 155.16L273.674 157.416H272.378ZM280.689 155.16C279.803 155.16 279.003 154.936 278.289 154.488C277.585 154.04 277.03 153.389 276.625 152.536C276.219 151.672 276.017 150.627 276.017 149.4C276.017 148.173 276.219 147.133 276.625 146.28C277.03 145.416 277.585 144.76 278.289 144.312C279.003 143.864 279.803 143.64 280.689 143.64C281.585 143.64 282.385 143.864 283.089 144.312C283.793 144.76 284.347 145.416 284.753 146.28C285.169 147.133 285.377 148.173 285.377 149.4C285.377 150.627 285.169 151.672 284.753 152.536C284.347 153.389 283.793 154.04 283.089 154.488C282.385 154.936 281.585 155.16 280.689 155.16ZM280.689 153.352C281.211 153.352 281.665 153.213 282.049 152.936C282.433 152.648 282.731 152.211 282.945 151.624C283.169 151.037 283.281 150.296 283.281 149.4C283.281 148.493 283.169 147.752 282.945 147.176C282.731 146.589 282.433 146.157 282.049 145.88C281.665 145.592 281.211 145.448 280.689 145.448C280.187 145.448 279.739 145.592 279.345 145.88C278.961 146.157 278.657 146.589 278.433 147.176C278.219 147.752 278.113 148.493 278.113 149.4C278.113 150.296 278.219 151.037 278.433 151.624C278.657 152.211 278.961 152.648 279.345 152.936C279.739 153.213 280.187 153.352 280.689 153.352Z" fill="#2A2828"/>
</svg>
