<svg width="307" height="162" viewBox="0 0 307 162" fill="none" xmlns="http://www.w3.org/2000/svg">
<path d="M3.852 9.638H10.116V11.564H3.852V9.638ZM4.032 15.038H11.142V17H1.692V4.4H10.89V6.362H4.032V15.038ZM12.0624 17L16.2924 11.492L16.2564 12.698L12.2244 7.388H14.7264L17.5524 11.168H16.5984L19.4424 7.388H21.8724L17.8044 12.698L17.8224 11.492L22.0344 17H19.4964L16.5264 12.986L17.4624 13.112L14.5464 17H12.0624ZM29.0228 17.126C28.2428 17.126 27.5288 16.946 26.8808 16.586C26.2448 16.226 25.7348 15.686 25.3508 14.966C24.9788 14.234 24.7928 13.31 24.7928 12.194C24.7928 11.066 24.9728 10.142 25.3328 9.422C25.7048 8.702 26.2088 8.168 26.8447 7.82C27.4808 7.46 28.2068 7.28 29.0228 7.28C29.9708 7.28 30.8048 7.484 31.5248 7.892C32.2568 8.3 32.8328 8.87 33.2528 9.602C33.6848 10.334 33.9008 11.198 33.9008 12.194C33.9008 13.19 33.6848 14.06 33.2528 14.804C32.8328 15.536 32.2568 16.106 31.5248 16.514C30.8048 16.922 29.9708 17.126 29.0228 17.126ZM23.6948 20.492V7.388H25.8368V9.656L25.7648 12.212L25.9448 14.768V20.492H23.6948ZM28.7708 15.2C29.3108 15.2 29.7908 15.08 30.2108 14.84C30.6428 14.6 30.9848 14.252 31.2368 13.796C31.4888 13.34 31.6148 12.806 31.6148 12.194C31.6148 11.57 31.4888 11.036 31.2368 10.592C30.9848 10.136 30.6428 9.788 30.2108 9.548C29.7908 9.308 29.3108 9.188 28.7708 9.188C28.2308 9.188 27.7448 9.308 27.3128 9.548C26.8808 9.788 26.5388 10.136 26.2868 10.592C26.0348 11.036 25.9088 11.57 25.9088 12.194C25.9088 12.806 26.0348 13.34 26.2868 13.796C26.5388 14.252 26.8808 14.6 27.3128 14.84C27.7448 15.08 28.2308 15.2 28.7708 15.2ZM40.5526 17.126C39.4846 17.126 38.5486 16.916 37.7446 16.496C36.9526 16.064 36.3346 15.476 35.8906 14.732C35.4586 13.988 35.2426 13.142 35.2426 12.194C35.2426 11.234 35.4526 10.388 35.8726 9.656C36.3046 8.912 36.8926 8.33 37.6366 7.91C38.3926 7.49 39.2506 7.28 40.2106 7.28C41.1466 7.28 41.9806 7.484 42.7126 7.892C43.4446 8.3 44.0206 8.876 44.4406 9.62C44.8606 10.364 45.0706 11.24 45.0706 12.248C45.0706 12.344 45.0646 12.452 45.0526 12.572C45.0526 12.692 45.0466 12.806 45.0346 12.914H37.0246V11.42H43.8466L42.9646 11.888C42.9766 11.336 42.8626 10.85 42.6226 10.43C42.3826 10.01 42.0526 9.68 41.6326 9.44C41.2246 9.2 40.7506 9.08 40.2106 9.08C39.6586 9.08 39.1726 9.2 38.7526 9.44C38.3446 9.68 38.0206 10.016 37.7806 10.448C37.5526 10.868 37.4386 11.366 37.4386 11.942V12.302C37.4386 12.878 37.5706 13.388 37.8346 13.832C38.0986 14.276 38.4706 14.618 38.9506 14.858C39.4306 15.098 39.9826 15.218 40.6066 15.218C41.1466 15.218 41.6326 15.134 42.0646 14.966C42.4966 14.798 42.8806 14.534 43.2166 14.174L44.4226 15.56C43.9906 16.064 43.4446 16.454 42.7846 16.73C42.1366 16.994 41.3926 17.126 40.5526 17.126ZM47.2319 17V7.388H49.3739V10.034L49.1219 9.26C49.4099 8.612 49.8599 8.12 50.4719 7.784C51.0959 7.448 51.8699 7.28 52.7939 7.28V9.422C52.6979 9.398 52.6079 9.386 52.5239 9.386C52.4399 9.374 52.3559 9.368 52.2719 9.368C51.4199 9.368 50.7419 9.62 50.2379 10.124C49.7339 10.616 49.4819 11.354 49.4819 12.338V17H47.2319ZM54.7026 17V7.388H56.9526V17H54.7026ZM55.8366 5.804C55.4166 5.804 55.0686 5.672 54.7926 5.408C54.5286 5.144 54.3966 4.826 54.3966 4.454C54.3966 4.07 54.5286 3.752 54.7926 3.5C55.0686 3.236 55.4166 3.104 55.8366 3.104C56.2566 3.104 56.5986 3.23 56.8626 3.482C57.1386 3.722 57.2766 4.028 57.2766 4.4C57.2766 4.796 57.1446 5.132 56.8806 5.408C56.6166 5.672 56.2686 5.804 55.8366 5.804ZM64.4237 17.126C63.3557 17.126 62.4197 16.916 61.6157 16.496C60.8237 16.064 60.2057 15.476 59.7617 14.732C59.3297 13.988 59.1137 13.142 59.1137 12.194C59.1137 11.234 59.3237 10.388 59.7437 9.656C60.1757 8.912 60.7637 8.33 61.5077 7.91C62.2637 7.49 63.1217 7.28 64.0817 7.28C65.0177 7.28 65.8517 7.484 66.5837 7.892C67.3157 8.3 67.8917 8.876 68.3117 9.62C68.7317 10.364 68.9417 11.24 68.9417 12.248C68.9417 12.344 68.9357 12.452 68.9237 12.572C68.9237 12.692 68.9177 12.806 68.9057 12.914H60.8957V11.42H67.7177L66.8357 11.888C66.8477 11.336 66.7337 10.85 66.4937 10.43C66.2537 10.01 65.9237 9.68 65.5037 9.44C65.0957 9.2 64.6217 9.08 64.0817 9.08C63.5297 9.08 63.0437 9.2 62.6237 9.44C62.2157 9.68 61.8917 10.016 61.6517 10.448C61.4237 10.868 61.3097 11.366 61.3097 11.942V12.302C61.3097 12.878 61.4417 13.388 61.7057 13.832C61.9697 14.276 62.3417 14.618 62.8217 14.858C63.3017 15.098 63.8537 15.218 64.4777 15.218C65.0177 15.218 65.5037 15.134 65.9357 14.966C66.3677 14.798 66.7517 14.534 67.0877 14.174L68.2937 15.56C67.8617 16.064 67.3157 16.454 66.6557 16.73C66.0077 16.994 65.2637 17.126 64.4237 17.126ZM60.5897 6.074L63.0017 3.608H65.0537L67.4657 6.074H65.6117L63.1637 4.004H64.8917L62.4437 6.074H60.5897ZM76.557 7.28C77.325 7.28 78.009 7.43 78.609 7.73C79.221 8.03 79.701 8.492 80.049 9.116C80.397 9.728 80.571 10.52 80.571 11.492V17H78.321V11.78C78.321 10.928 78.117 10.292 77.709 9.872C77.313 9.452 76.755 9.242 76.035 9.242C75.507 9.242 75.039 9.35 74.631 9.566C74.223 9.782 73.905 10.106 73.677 10.538C73.461 10.958 73.353 11.492 73.353 12.14V17H71.103V7.388H73.245V9.98L72.867 9.188C73.203 8.576 73.689 8.108 74.325 7.784C74.973 7.448 75.717 7.28 76.557 7.28ZM87.8528 17.126C86.8448 17.126 85.9448 16.916 85.1528 16.496C84.3728 16.064 83.7608 15.476 83.3168 14.732C82.8728 13.988 82.6508 13.142 82.6508 12.194C82.6508 11.234 82.8728 10.388 83.3168 9.656C83.7608 8.912 84.3728 8.33 85.1528 7.91C85.9448 7.49 86.8448 7.28 87.8528 7.28C88.7888 7.28 89.6108 7.472 90.3188 7.856C91.0388 8.228 91.5848 8.78 91.9568 9.512L90.2288 10.52C89.9408 10.064 89.5868 9.728 89.1668 9.512C88.7588 9.296 88.3148 9.188 87.8348 9.188C87.2828 9.188 86.7848 9.308 86.3408 9.548C85.8968 9.788 85.5488 10.136 85.2968 10.592C85.0448 11.036 84.9188 11.57 84.9188 12.194C84.9188 12.818 85.0448 13.358 85.2968 13.814C85.5488 14.258 85.8968 14.6 86.3408 14.84C86.7848 15.08 87.2828 15.2 87.8348 15.2C88.3148 15.2 88.7588 15.092 89.1668 14.876C89.5868 14.66 89.9408 14.324 90.2288 13.868L91.9568 14.876C91.5848 15.596 91.0388 16.154 90.3188 16.55C89.6108 16.934 88.7888 17.126 87.8528 17.126ZM93.8139 17V7.388H96.0639V17H93.8139ZM94.9479 5.804C94.5279 5.804 94.1799 5.672 93.9039 5.408C93.6399 5.144 93.5079 4.826 93.5079 4.454C93.5079 4.07 93.6399 3.752 93.9039 3.5C94.1799 3.236 94.5279 3.104 94.9479 3.104C95.3679 3.104 95.7099 3.23 95.9739 3.482C96.2499 3.722 96.3879 4.028 96.3879 4.4C96.3879 4.796 96.2559 5.132 95.9919 5.408C95.7279 5.672 95.3799 5.804 94.9479 5.804ZM104.939 17V15.056L104.813 14.642V11.24C104.813 10.58 104.615 10.07 104.219 9.71C103.823 9.338 103.223 9.152 102.419 9.152C101.879 9.152 101.345 9.236 100.817 9.404C100.301 9.572 99.863 9.806 99.503 10.106L98.621 8.468C99.137 8.072 99.749 7.778 100.457 7.586C101.177 7.382 101.921 7.28 102.689 7.28C104.081 7.28 105.155 7.616 105.911 8.288C106.679 8.948 107.063 9.974 107.063 11.366V17H104.939ZM101.915 17.126C101.195 17.126 100.565 17.006 100.025 16.766C99.485 16.514 99.065 16.172 98.765 15.74C98.477 15.296 98.333 14.798 98.333 14.246C98.333 13.706 98.459 13.22 98.711 12.788C98.975 12.356 99.401 12.014 99.989 11.762C100.577 11.51 101.357 11.384 102.329 11.384H105.119V12.878H102.491C101.723 12.878 101.207 13.004 100.943 13.256C100.679 13.496 100.547 13.796 100.547 14.156C100.547 14.564 100.709 14.888 101.033 15.128C101.357 15.368 101.807 15.488 102.383 15.488C102.935 15.488 103.427 15.362 103.859 15.11C104.303 14.858 104.621 14.486 104.813 13.994L105.191 15.344C104.975 15.908 104.585 16.346 104.021 16.658C103.469 16.97 102.767 17.126 101.915 17.126ZM118.993 17.126C118.069 17.126 117.235 16.922 116.491 16.514C115.759 16.094 115.183 15.518 114.763 14.786C114.343 14.054 114.133 13.19 114.133 12.194C114.133 11.198 114.343 10.334 114.763 9.602C115.183 8.87 115.759 8.3 116.491 7.892C117.235 7.484 118.069 7.28 118.993 7.28C119.797 7.28 120.517 7.46 121.153 7.82C121.789 8.168 122.293 8.702 122.665 9.422C123.037 10.142 123.223 11.066 123.223 12.194C123.223 13.31 123.043 14.234 122.683 14.966C122.323 15.686 121.825 16.226 121.189 16.586C120.553 16.946 119.821 17.126 118.993 17.126ZM119.263 15.2C119.803 15.2 120.283 15.08 120.703 14.84C121.135 14.6 121.477 14.252 121.729 13.796C121.993 13.34 122.125 12.806 122.125 12.194C122.125 11.57 121.993 11.036 121.729 10.592C121.477 10.136 121.135 9.788 120.703 9.548C120.283 9.308 119.803 9.188 119.263 9.188C118.723 9.188 118.237 9.308 117.805 9.548C117.385 9.788 117.043 10.136 116.779 10.592C116.527 11.036 116.401 11.57 116.401 12.194C116.401 12.806 116.527 13.34 116.779 13.796C117.043 14.252 117.385 14.6 117.805 14.84C118.237 15.08 118.723 15.2 119.263 15.2ZM122.179 17V14.732L122.269 12.176L122.089 9.62V3.644H124.321V17H122.179ZM131.603 17.126C130.619 17.126 129.743 16.916 128.975 16.496C128.207 16.064 127.601 15.476 127.157 14.732C126.713 13.988 126.491 13.142 126.491 12.194C126.491 11.234 126.713 10.388 127.157 9.656C127.601 8.912 128.207 8.33 128.975 7.91C129.743 7.49 130.619 7.28 131.603 7.28C132.599 7.28 133.481 7.49 134.249 7.91C135.029 8.33 135.635 8.906 136.067 9.638C136.511 10.37 136.733 11.222 136.733 12.194C136.733 13.142 136.511 13.988 136.067 14.732C135.635 15.476 135.029 16.064 134.249 16.496C133.481 16.916 132.599 17.126 131.603 17.126ZM131.603 15.2C132.155 15.2 132.647 15.08 133.079 14.84C133.511 14.6 133.847 14.252 134.087 13.796C134.339 13.34 134.465 12.806 134.465 12.194C134.465 11.57 134.339 11.036 134.087 10.592C133.847 10.136 133.511 9.788 133.079 9.548C132.647 9.308 132.161 9.188 131.621 9.188C131.069 9.188 130.577 9.308 130.145 9.548C129.725 9.788 129.389 10.136 129.137 10.592C128.885 11.036 128.759 11.57 128.759 12.194C128.759 12.806 128.885 13.34 129.137 13.796C129.389 14.252 129.725 14.6 130.145 14.84C130.577 15.08 131.063 15.2 131.603 15.2ZM149.493 17.18C147.765 17.18 146.409 16.694 145.425 15.722C144.453 14.75 143.967 13.346 143.967 11.51V4.4H146.307V11.42C146.307 12.716 146.583 13.658 147.135 14.246C147.699 14.834 148.491 15.128 149.511 15.128C150.531 15.128 151.317 14.834 151.869 14.246C152.421 13.658 152.697 12.716 152.697 11.42V4.4H155.001V11.51C155.001 13.346 154.509 14.75 153.525 15.722C152.553 16.694 151.209 17.18 149.493 17.18ZM161.032 17.126C160.228 17.126 159.454 17.024 158.71 16.82C157.978 16.604 157.396 16.346 156.964 16.046L157.828 14.336C158.26 14.612 158.776 14.84 159.376 15.02C159.976 15.2 160.576 15.29 161.176 15.29C161.884 15.29 162.394 15.194 162.706 15.002C163.03 14.81 163.192 14.552 163.192 14.228C163.192 13.964 163.084 13.766 162.868 13.634C162.652 13.49 162.37 13.382 162.022 13.31C161.674 13.238 161.284 13.172 160.852 13.112C160.432 13.052 160.006 12.974 159.574 12.878C159.154 12.77 158.77 12.62 158.422 12.428C158.074 12.224 157.792 11.954 157.576 11.618C157.36 11.282 157.252 10.838 157.252 10.286C157.252 9.674 157.426 9.146 157.774 8.702C158.122 8.246 158.608 7.898 159.232 7.658C159.868 7.406 160.618 7.28 161.482 7.28C162.13 7.28 162.784 7.352 163.444 7.496C164.104 7.64 164.65 7.844 165.082 8.108L164.218 9.818C163.762 9.542 163.3 9.356 162.832 9.26C162.376 9.152 161.92 9.098 161.464 9.098C160.78 9.098 160.27 9.2 159.934 9.404C159.61 9.608 159.448 9.866 159.448 10.178C159.448 10.466 159.556 10.682 159.772 10.826C159.988 10.97 160.27 11.084 160.618 11.168C160.966 11.252 161.35 11.324 161.77 11.384C162.202 11.432 162.628 11.51 163.048 11.618C163.468 11.726 163.852 11.876 164.2 12.068C164.56 12.248 164.848 12.506 165.064 12.842C165.28 13.178 165.388 13.616 165.388 14.156C165.388 14.756 165.208 15.278 164.848 15.722C164.5 16.166 164.002 16.514 163.354 16.766C162.706 17.006 161.932 17.126 161.032 17.126ZM171.394 17.126C170.578 17.126 169.858 16.976 169.234 16.676C168.61 16.364 168.124 15.896 167.776 15.272C167.428 14.636 167.254 13.838 167.254 12.878V7.388H169.504V12.572C169.504 13.436 169.696 14.084 170.08 14.516C170.476 14.936 171.034 15.146 171.754 15.146C172.282 15.146 172.738 15.038 173.122 14.822C173.518 14.606 173.824 14.282 174.04 13.85C174.268 13.418 174.382 12.884 174.382 12.248V7.388H176.632V17H174.49V14.408L174.868 15.2C174.544 15.824 174.07 16.304 173.446 16.64C172.822 16.964 172.138 17.126 171.394 17.126ZM185.5 17V15.056L185.374 14.642V11.24C185.374 10.58 185.176 10.07 184.78 9.71C184.384 9.338 183.784 9.152 182.98 9.152C182.44 9.152 181.906 9.236 181.378 9.404C180.862 9.572 180.424 9.806 180.064 10.106L179.182 8.468C179.698 8.072 180.31 7.778 181.018 7.586C181.738 7.382 182.482 7.28 183.25 7.28C184.642 7.28 185.716 7.616 186.472 8.288C187.24 8.948 187.624 9.974 187.624 11.366V17H185.5ZM182.476 17.126C181.756 17.126 181.126 17.006 180.586 16.766C180.046 16.514 179.626 16.172 179.326 15.74C179.038 15.296 178.894 14.798 178.894 14.246C178.894 13.706 179.02 13.22 179.272 12.788C179.536 12.356 179.962 12.014 180.55 11.762C181.138 11.51 181.918 11.384 182.89 11.384H185.68V12.878H183.052C182.284 12.878 181.768 13.004 181.504 13.256C181.24 13.496 181.108 13.796 181.108 14.156C181.108 14.564 181.27 14.888 181.594 15.128C181.918 15.368 182.368 15.488 182.944 15.488C183.496 15.488 183.988 15.362 184.42 15.11C184.864 14.858 185.182 14.486 185.374 13.994L185.752 15.344C185.536 15.908 185.146 16.346 184.582 16.658C184.03 16.97 183.328 17.126 182.476 17.126ZM181.936 6.074L184.366 3.608H187.012L183.88 6.074H181.936ZM190.511 17V7.388H192.653V10.034L192.401 9.26C192.689 8.612 193.139 8.12 193.751 7.784C194.375 7.448 195.149 7.28 196.073 7.28V9.422C195.977 9.398 195.887 9.386 195.803 9.386C195.719 9.374 195.635 9.368 195.551 9.368C194.699 9.368 194.021 9.62 193.517 10.124C193.013 10.616 192.761 11.354 192.761 12.338V17H190.511ZM197.982 17V7.388H200.232V17H197.982ZM199.116 5.804C198.696 5.804 198.348 5.672 198.072 5.408C197.808 5.144 197.676 4.826 197.676 4.454C197.676 4.07 197.808 3.752 198.072 3.5C198.348 3.236 198.696 3.104 199.116 3.104C199.536 3.104 199.878 3.23 200.142 3.482C200.418 3.722 200.556 4.028 200.556 4.4C200.556 4.796 200.424 5.132 200.16 5.408C199.896 5.672 199.548 5.804 199.116 5.804ZM207.505 17.126C206.521 17.126 205.645 16.916 204.877 16.496C204.109 16.064 203.503 15.476 203.059 14.732C202.615 13.988 202.393 13.142 202.393 12.194C202.393 11.234 202.615 10.388 203.059 9.656C203.503 8.912 204.109 8.33 204.877 7.91C205.645 7.49 206.521 7.28 207.505 7.28C208.501 7.28 209.383 7.49 210.151 7.91C210.931 8.33 211.537 8.906 211.969 9.638C212.413 10.37 212.635 11.222 212.635 12.194C212.635 13.142 212.413 13.988 211.969 14.732C211.537 15.476 210.931 16.064 210.151 16.496C209.383 16.916 208.501 17.126 207.505 17.126ZM207.505 15.2C208.057 15.2 208.549 15.08 208.981 14.84C209.413 14.6 209.749 14.252 209.989 13.796C210.241 13.34 210.367 12.806 210.367 12.194C210.367 11.57 210.241 11.036 209.989 10.592C209.749 10.136 209.413 9.788 208.981 9.548C208.549 9.308 208.063 9.188 207.523 9.188C206.971 9.188 206.479 9.308 206.047 9.548C205.627 9.788 205.291 10.136 205.039 10.592C204.787 11.036 204.661 11.57 204.661 12.194C204.661 12.806 204.787 13.34 205.039 13.796C205.291 14.252 205.627 14.6 206.047 14.84C206.479 15.08 206.965 15.2 207.505 15.2Z" fill="#709BEF"/>
<path d="M19.984 50L25.056 38.8H26.64L31.728 50H30.048L25.52 39.696H26.16L21.632 50H19.984ZM22.144 47.2L22.576 45.92H28.88L29.344 47.2H22.144ZM36.0086 50.096C35.1553 50.096 34.494 49.8667 34.0246 49.408C33.5553 48.9493 33.3206 48.2933 33.3206 47.44V39.664H34.8566V47.376C34.8566 47.8347 34.9686 48.1867 35.1926 48.432C35.4273 48.6773 35.758 48.8 36.1846 48.8C36.6646 48.8 37.0646 48.6667 37.3846 48.4L37.8646 49.504C37.63 49.7067 37.3473 49.856 37.0166 49.952C36.6966 50.048 36.3606 50.096 36.0086 50.096ZM31.8806 42.784V41.52H37.2886V42.784H31.8806ZM39.7216 50V41.52H41.2576V50H39.7216ZM40.4896 39.888C40.191 39.888 39.9403 39.792 39.7376 39.6C39.5456 39.408 39.4496 39.1733 39.4496 38.896C39.4496 38.608 39.5456 38.368 39.7376 38.176C39.9403 37.984 40.191 37.888 40.4896 37.888C40.7883 37.888 41.0336 37.984 41.2256 38.176C41.4283 38.3573 41.5296 38.5867 41.5296 38.864C41.5296 39.152 41.4336 39.3973 41.2416 39.6C41.0496 39.792 40.799 39.888 40.4896 39.888ZM46.4144 50L42.7024 41.52H44.3024L47.5984 49.2H46.8304L50.1904 41.52H51.6944L47.9824 50H46.4144ZM53.1279 50V41.52H54.6639V50H53.1279ZM53.8959 39.888C53.5972 39.888 53.3465 39.792 53.1439 39.6C52.9519 39.408 52.8559 39.1733 52.8559 38.896C52.8559 38.608 52.9519 38.368 53.1439 38.176C53.3465 37.984 53.5972 37.888 53.8959 37.888C54.1945 37.888 54.4399 37.984 54.6319 38.176C54.8345 38.3573 54.9359 38.5867 54.9359 38.864C54.9359 39.152 54.8399 39.3973 54.6479 39.6C54.4559 39.792 54.2052 39.888 53.8959 39.888ZM61.1006 50.096C60.2793 50.096 59.5433 49.9147 58.8926 49.552C58.2526 49.1893 57.746 48.6827 57.3726 48.032C56.9993 47.3813 56.8126 46.624 56.8126 45.76C56.8126 44.896 56.9993 44.144 57.3726 43.504C57.746 42.8533 58.2526 42.3467 58.8926 41.984C59.5433 41.6213 60.2793 41.44 61.1006 41.44C61.8153 41.44 62.4606 41.6 63.0366 41.92C63.6126 42.24 64.0713 42.72 64.4126 43.36C64.7646 44 64.9406 44.8 64.9406 45.76C64.9406 46.72 64.77 47.52 64.4286 48.16C64.098 48.8 63.6446 49.2853 63.0686 49.616C62.4926 49.936 61.8366 50.096 61.1006 50.096ZM61.2286 48.752C61.762 48.752 62.242 48.6293 62.6686 48.384C63.106 48.1387 63.4473 47.792 63.6926 47.344C63.9486 46.8853 64.0766 46.3573 64.0766 45.76C64.0766 45.152 63.9486 44.6293 63.6926 44.192C63.4473 43.744 63.106 43.3973 62.6686 43.152C62.242 42.9067 61.762 42.784 61.2286 42.784C60.6846 42.784 60.1993 42.9067 59.7726 43.152C59.346 43.3973 59.0046 43.744 58.7486 44.192C58.4926 44.6293 58.3646 45.152 58.3646 45.76C58.3646 46.3573 58.4926 46.8853 58.7486 47.344C59.0046 47.792 59.346 48.1387 59.7726 48.384C60.1993 48.6293 60.6846 48.752 61.2286 48.752ZM64.1246 50V47.712L64.2206 45.744L64.0606 43.776V38.128H65.5966V50H64.1246ZM73.7669 50V48.208L73.6869 47.872V44.816C73.6869 44.1653 73.4949 43.664 73.1109 43.312C72.7375 42.9493 72.1722 42.768 71.4149 42.768C70.9135 42.768 70.4229 42.8533 69.9429 43.024C69.4629 43.184 69.0575 43.4027 68.7269 43.68L68.0869 42.528C68.5242 42.176 69.0469 41.9093 69.6549 41.728C70.2735 41.536 70.9189 41.44 71.5909 41.44C72.7535 41.44 73.6495 41.7227 74.2789 42.288C74.9082 42.8533 75.2229 43.7173 75.2229 44.88V50H73.7669ZM70.9829 50.096C70.3535 50.096 69.7989 49.9893 69.3189 49.776C68.8495 49.5627 68.4869 49.2693 68.2309 48.896C67.9749 48.512 67.8469 48.08 67.8469 47.6C67.8469 47.1413 67.9535 46.7253 68.1669 46.352C68.3909 45.9787 68.7482 45.68 69.2389 45.456C69.7402 45.232 70.4122 45.12 71.2549 45.12H73.9429V46.224H71.3189C70.5509 46.224 70.0335 46.352 69.7669 46.608C69.5002 46.864 69.3669 47.1733 69.3669 47.536C69.3669 47.952 69.5322 48.288 69.8629 48.544C70.1935 48.7893 70.6522 48.912 71.2389 48.912C71.8149 48.912 72.3162 48.784 72.7429 48.528C73.1802 48.272 73.4949 47.8987 73.6869 47.408L73.9909 48.464C73.7882 48.9653 73.4309 49.3653 72.9189 49.664C72.4069 49.952 71.7615 50.096 70.9829 50.096ZM81.5694 50.096C80.748 50.096 80.012 49.9147 79.3614 49.552C78.7214 49.1893 78.2147 48.6827 77.8414 48.032C77.468 47.3813 77.2814 46.624 77.2814 45.76C77.2814 44.896 77.468 44.144 77.8414 43.504C78.2147 42.8533 78.7214 42.3467 79.3614 41.984C80.012 41.6213 80.748 41.44 81.5694 41.44C82.284 41.44 82.9294 41.6 83.5054 41.92C84.0814 42.24 84.54 42.72 84.8814 43.36C85.2334 44 85.4094 44.8 85.4094 45.76C85.4094 46.72 85.2387 47.52 84.8974 48.16C84.5667 48.8 84.1134 49.2853 83.5374 49.616C82.9614 49.936 82.3054 50.096 81.5694 50.096ZM81.6974 48.752C82.2307 48.752 82.7107 48.6293 83.1374 48.384C83.5747 48.1387 83.916 47.792 84.1614 47.344C84.4174 46.8853 84.5454 46.3573 84.5454 45.76C84.5454 45.152 84.4174 44.6293 84.1614 44.192C83.916 43.744 83.5747 43.3973 83.1374 43.152C82.7107 42.9067 82.2307 42.784 81.6974 42.784C81.1534 42.784 80.668 42.9067 80.2414 43.152C79.8147 43.3973 79.4734 43.744 79.2174 44.192C78.9614 44.6293 78.8334 45.152 78.8334 45.76C78.8334 46.3573 78.9614 46.8853 79.2174 47.344C79.4734 47.792 79.8147 48.1387 80.2414 48.384C80.668 48.6293 81.1534 48.752 81.6974 48.752ZM84.5934 50V47.712L84.6894 45.744L84.5294 43.776V38.128H86.0654V50H84.5934ZM92.7476 50.096C91.841 50.096 91.041 49.9093 90.3476 49.536C89.665 49.1627 89.1316 48.6507 88.7476 48C88.3743 47.3493 88.1876 46.6027 88.1876 45.76C88.1876 44.9173 88.369 44.1707 88.7316 43.52C89.105 42.8693 89.6116 42.3627 90.2516 42C90.9023 41.6267 91.633 41.44 92.4436 41.44C93.265 41.44 93.9903 41.6213 94.6196 41.984C95.249 42.3467 95.7396 42.8587 96.0916 43.52C96.4543 44.1707 96.6356 44.9333 96.6356 45.808C96.6356 45.872 96.6303 45.9467 96.6196 46.032C96.6196 46.1173 96.6143 46.1973 96.6036 46.272H89.3876V45.168H95.8036L95.1796 45.552C95.1903 45.008 95.0783 44.5227 94.8436 44.096C94.609 43.6693 94.2836 43.3387 93.8676 43.104C93.4623 42.8587 92.9876 42.736 92.4436 42.736C91.9103 42.736 91.4356 42.8587 91.0196 43.104C90.6036 43.3387 90.2783 43.6747 90.0436 44.112C89.809 44.5387 89.6916 45.0293 89.6916 45.584V45.84C89.6916 46.4053 89.8196 46.912 90.0756 47.36C90.3423 47.7973 90.7103 48.1387 91.1796 48.384C91.649 48.6293 92.1876 48.752 92.7956 48.752C93.297 48.752 93.7503 48.6667 94.1556 48.496C94.5716 48.3253 94.9343 48.0693 95.2436 47.728L96.0916 48.72C95.7076 49.168 95.2276 49.5093 94.6516 49.744C94.0863 49.9787 93.4516 50.096 92.7476 50.096ZM101.201 50.096C100.497 50.096 99.8245 50 99.1845 49.808C98.5552 49.616 98.0592 49.3813 97.6965 49.104L98.3365 47.888C98.6992 48.1333 99.1472 48.3413 99.6805 48.512C100.214 48.6827 100.758 48.768 101.312 48.768C102.027 48.768 102.539 48.6667 102.849 48.464C103.169 48.2613 103.329 47.9787 103.329 47.616C103.329 47.3493 103.233 47.1413 103.041 46.992C102.849 46.8427 102.593 46.7307 102.273 46.656C101.963 46.5813 101.617 46.5173 101.233 46.464C100.849 46.4 100.465 46.3253 100.081 46.24C99.6965 46.144 99.3445 46.016 99.0245 45.856C98.7045 45.6853 98.4485 45.456 98.2565 45.168C98.0645 44.8693 97.9685 44.4747 97.9685 43.984C97.9685 43.472 98.1125 43.024 98.4005 42.64C98.6885 42.256 99.0938 41.9627 99.6165 41.76C100.15 41.5467 100.779 41.44 101.505 41.44C102.059 41.44 102.619 41.5093 103.185 41.648C103.761 41.776 104.23 41.9627 104.593 42.208L103.937 43.424C103.553 43.168 103.153 42.992 102.737 42.896C102.321 42.8 101.905 42.752 101.489 42.752C100.817 42.752 100.315 42.864 99.9845 43.088C99.6538 43.3013 99.4885 43.5787 99.4885 43.92C99.4885 44.208 99.5845 44.432 99.7765 44.592C99.9792 44.7413 100.235 44.8587 100.545 44.944C100.865 45.0293 101.217 45.104 101.601 45.168C101.985 45.2213 102.369 45.296 102.753 45.392C103.137 45.4773 103.483 45.6 103.793 45.76C104.113 45.92 104.369 46.144 104.561 46.432C104.763 46.72 104.865 47.104 104.865 47.584C104.865 48.096 104.715 48.5387 104.417 48.912C104.118 49.2853 103.697 49.5787 103.153 49.792C102.609 49.9947 101.958 50.096 101.201 50.096ZM112.281 50V39.44L112.969 40.192H109.753V38.8H113.865V50H112.281ZM19.984 77L25.056 65.8H26.64L31.728 77H30.048L25.52 66.696H26.16L21.632 77H19.984ZM22.144 74.2L22.576 72.92H28.88L29.344 74.2H22.144ZM34.9613 77L31.2492 68.52H32.8493L36.1453 76.2H35.3773L38.7373 68.52H40.2413L36.5293 77H34.9613ZM46.6731 77V75.208L46.5931 74.872V71.816C46.5931 71.1653 46.4011 70.664 46.0171 70.312C45.6438 69.9493 45.0785 69.768 44.3211 69.768C43.8198 69.768 43.3291 69.8533 42.8491 70.024C42.3691 70.184 41.9638 70.4027 41.6331 70.68L40.9931 69.528C41.4305 69.176 41.9531 68.9093 42.5611 68.728C43.1798 68.536 43.8251 68.44 44.4971 68.44C45.6598 68.44 46.5558 68.7227 47.1851 69.288C47.8145 69.8533 48.1291 70.7173 48.1291 71.88V77H46.6731ZM43.8891 77.096C43.2598 77.096 42.7051 76.9893 42.2251 76.776C41.7558 76.5627 41.3931 76.2693 41.1371 75.896C40.8811 75.512 40.7531 75.08 40.7531 74.6C40.7531 74.1413 40.8598 73.7253 41.0731 73.352C41.2971 72.9787 41.6545 72.68 42.1451 72.456C42.6465 72.232 43.3185 72.12 44.1611 72.12H46.8491V73.224H44.2251C43.4571 73.224 42.9398 73.352 42.6731 73.608C42.4065 73.864 42.2731 74.1733 42.2731 74.536C42.2731 74.952 42.4385 75.288 42.7691 75.544C43.0998 75.7893 43.5585 75.912 44.1451 75.912C44.7211 75.912 45.2225 75.784 45.6491 75.528C46.0865 75.272 46.4011 74.8987 46.5931 74.408L46.8971 75.464C46.6945 75.9653 46.3371 76.3653 45.8251 76.664C45.3131 76.952 44.6678 77.096 43.8891 77.096ZM50.9716 77V65.128H52.5076V77H50.9716ZM55.4404 77V68.52H56.9764V77H55.4404ZM56.2084 66.888C55.9097 66.888 55.659 66.792 55.4564 66.6C55.2644 66.408 55.1684 66.1733 55.1684 65.896C55.1684 65.608 55.2644 65.368 55.4564 65.176C55.659 64.984 55.9097 64.888 56.2084 64.888C56.507 64.888 56.7524 64.984 56.9444 65.176C57.147 65.3573 57.2484 65.5867 57.2484 65.864C57.2484 66.152 57.1524 66.3973 56.9604 66.6C56.7684 66.792 56.5177 66.888 56.2084 66.888ZM65.1731 77V75.208L65.0931 74.872V71.816C65.0931 71.1653 64.9011 70.664 64.5171 70.312C64.1438 69.9493 63.5785 69.768 62.8211 69.768C62.3198 69.768 61.8291 69.8533 61.3491 70.024C60.8691 70.184 60.4638 70.4027 60.1331 70.68L59.4931 69.528C59.9305 69.176 60.4531 68.9093 61.0611 68.728C61.6798 68.536 62.3251 68.44 62.9971 68.44C64.1598 68.44 65.0558 68.7227 65.6851 69.288C66.3145 69.8533 66.6291 70.7173 66.6291 71.88V77H65.1731ZM62.3891 77.096C61.7598 77.096 61.2051 76.9893 60.7251 76.776C60.2558 76.5627 59.8931 76.2693 59.6371 75.896C59.3811 75.512 59.2531 75.08 59.2531 74.6C59.2531 74.1413 59.3598 73.7253 59.5731 73.352C59.7971 72.9787 60.1545 72.68 60.6451 72.456C61.1465 72.232 61.8185 72.12 62.6611 72.12H65.3491V73.224H62.7251C61.9571 73.224 61.4398 73.352 61.1731 73.608C60.9065 73.864 60.7731 74.1733 60.7731 74.536C60.7731 74.952 60.9385 75.288 61.2691 75.544C61.5998 75.7893 62.0585 75.912 62.6451 75.912C63.2211 75.912 63.7225 75.784 64.1491 75.528C64.5865 75.272 64.9011 74.8987 65.0931 74.408L65.3971 75.464C65.1945 75.9653 64.8371 76.3653 64.3251 76.664C63.8131 76.952 63.1678 77.096 62.3891 77.096ZM73.1676 77.096C72.3036 77.096 71.5303 76.9093 70.8476 76.536C70.1756 76.1627 69.6476 75.6507 69.2636 75C68.8796 74.3493 68.6876 73.6027 68.6876 72.76C68.6876 71.9173 68.8796 71.1707 69.2636 70.52C69.6476 69.8693 70.1756 69.3627 70.8476 69C71.5303 68.6267 72.3036 68.44 73.1676 68.44C73.9356 68.44 74.6183 68.5947 75.2156 68.904C75.8236 69.2027 76.293 69.6507 76.6236 70.248L75.4556 71C75.1783 70.584 74.837 70.28 74.4316 70.088C74.037 69.8853 73.6103 69.784 73.1516 69.784C72.597 69.784 72.101 69.9067 71.6636 70.152C71.2263 70.3973 70.8796 70.744 70.6236 71.192C70.3676 71.6293 70.2396 72.152 70.2396 72.76C70.2396 73.368 70.3676 73.896 70.6236 74.344C70.8796 74.792 71.2263 75.1387 71.6636 75.384C72.101 75.6293 72.597 75.752 73.1516 75.752C73.6103 75.752 74.037 75.656 74.4316 75.464C74.837 75.2613 75.1783 74.952 75.4556 74.536L76.6236 75.272C76.293 75.8587 75.8236 76.312 75.2156 76.632C74.6183 76.9413 73.9356 77.096 73.1676 77.096ZM72.4156 80.584C72.1383 80.584 71.8823 80.552 71.6476 80.488C71.413 80.4347 71.1943 80.3493 70.9916 80.232L71.3276 79.448C71.4983 79.544 71.669 79.6133 71.8396 79.656C72.021 79.6987 72.213 79.72 72.4156 79.72C72.725 79.72 72.949 79.6613 73.0876 79.544C73.237 79.4373 73.3116 79.2827 73.3116 79.08C73.3116 78.888 73.237 78.7333 73.0876 78.616C72.949 78.5093 72.7196 78.456 72.3996 78.456H71.9676L72.3676 76.888H73.2476L73.0076 77.8C73.4663 77.8427 73.813 77.9867 74.0476 78.232C74.2823 78.4773 74.3996 78.776 74.3996 79.128C74.3996 79.576 74.2183 79.928 73.8556 80.184C73.493 80.4507 73.013 80.584 72.4156 80.584ZM83.8763 77V75.208L83.7963 74.872V71.816C83.7963 71.1653 83.6043 70.664 83.2203 70.312C82.8469 69.9493 82.2816 69.768 81.5243 69.768C81.0229 69.768 80.5323 69.8533 80.0523 70.024C79.5723 70.184 79.1669 70.4027 78.8363 70.68L78.1963 69.528C78.6336 69.176 79.1563 68.9093 79.7643 68.728C80.3829 68.536 81.0283 68.44 81.7003 68.44C82.8629 68.44 83.7589 68.7227 84.3883 69.288C85.0176 69.8533 85.3323 70.7173 85.3323 71.88V77H83.8763ZM81.0923 77.096C80.4629 77.096 79.9083 76.9893 79.4283 76.776C78.9589 76.5627 78.5963 76.2693 78.3403 75.896C78.0843 75.512 77.9563 75.08 77.9563 74.6C77.9563 74.1413 78.0629 73.7253 78.2763 73.352C78.5003 72.9787 78.8576 72.68 79.3483 72.456C79.8496 72.232 80.5216 72.12 81.3643 72.12H84.0523V73.224H81.4283C80.6603 73.224 80.1429 73.352 79.8763 73.608C79.6096 73.864 79.4763 74.1733 79.4763 74.536C79.4763 74.952 79.6416 75.288 79.9723 75.544C80.3029 75.7893 80.7616 75.912 81.3483 75.912C81.9243 75.912 82.4256 75.784 82.8523 75.528C83.2896 75.272 83.6043 74.8987 83.7963 74.408L84.1003 75.464C83.8976 75.9653 83.5403 76.3653 83.0283 76.664C82.5163 76.952 81.8709 77.096 81.0923 77.096ZM82.9323 67.24C82.6763 67.24 82.4469 67.1867 82.2443 67.08C82.0523 66.9733 81.8763 66.8507 81.7163 66.712C81.5563 66.5627 81.4016 66.4347 81.2523 66.328C81.1029 66.2213 80.9536 66.168 80.8043 66.168C80.5696 66.168 80.3776 66.2587 80.2283 66.44C80.0896 66.6107 80.0096 66.8507 79.9883 67.16H79.1243C79.1456 66.5627 79.2949 66.088 79.5723 65.736C79.8496 65.384 80.2229 65.208 80.6923 65.208C80.9483 65.208 81.1776 65.2667 81.3802 65.384C81.5829 65.4907 81.7643 65.6187 81.9243 65.768C82.0843 65.9067 82.2336 66.0293 82.3723 66.136C82.5216 66.2427 82.6709 66.296 82.8203 66.296C83.0549 66.296 83.2469 66.2107 83.3963 66.04C83.5456 65.8693 83.6256 65.6347 83.6363 65.336H84.5003C84.4896 65.9013 84.3403 66.36 84.0523 66.712C83.7749 67.064 83.4016 67.24 82.9323 67.24ZM91.8068 77.096C90.9534 77.096 90.1961 76.9093 89.5348 76.536C88.8734 76.1627 88.3508 75.6507 87.9668 75C87.5828 74.3387 87.3908 73.592 87.3908 72.76C87.3908 71.9173 87.5828 71.1707 87.9668 70.52C88.3508 69.8693 88.8734 69.3627 89.5348 69C90.1961 68.6267 90.9534 68.44 91.8068 68.44C92.6494 68.44 93.4014 68.6267 94.0628 69C94.7348 69.3627 95.2574 69.8693 95.6308 70.52C96.0148 71.16 96.2068 71.9067 96.2068 72.76C96.2068 73.6027 96.0148 74.3493 95.6308 75C95.2574 75.6507 94.7348 76.1627 94.0628 76.536C93.4014 76.9093 92.6494 77.096 91.8068 77.096ZM91.8068 75.752C92.3508 75.752 92.8361 75.6293 93.2628 75.384C93.7001 75.1387 94.0414 74.792 94.2868 74.344C94.5321 73.8853 94.6548 73.3573 94.6548 72.76C94.6548 72.152 94.5321 71.6293 94.2868 71.192C94.0414 70.744 93.7001 70.3973 93.2628 70.152C92.8361 69.9067 92.3508 69.784 91.8068 69.784C91.2628 69.784 90.7774 69.9067 90.3508 70.152C89.9241 70.3973 89.5828 70.744 89.3268 71.192C89.0708 71.6293 88.9428 72.152 88.9428 72.76C88.9428 73.3573 89.0708 73.8853 89.3268 74.344C89.5828 74.792 89.9241 75.1387 90.3508 75.384C90.7774 75.6293 91.2628 75.752 91.8068 75.752ZM21.68 104V92.8H26.048C27.0293 92.8 27.8667 92.9547 28.56 93.264C29.2533 93.5733 29.7867 94.0213 30.16 94.608C30.5333 95.1947 30.72 95.8933 30.72 96.704C30.72 97.5147 30.5333 98.2133 30.16 98.8C29.7867 99.376 29.2533 99.824 28.56 100.144C27.8667 100.453 27.0293 100.608 26.048 100.608H22.56L23.28 99.856V104H21.68ZM23.28 100.016L22.56 99.216H26C27.024 99.216 27.7973 98.9973 28.32 98.56C28.8533 98.1227 29.12 97.504 29.12 96.704C29.12 95.904 28.8533 95.2853 28.32 94.848C27.7973 94.4107 27.024 94.192 26 94.192H22.56L23.28 93.392V100.016ZM32.6904 104V95.52H34.1624V97.824L34.0184 97.248C34.253 96.6613 34.6477 96.2133 35.2024 95.904C35.757 95.5947 36.4397 95.44 37.2504 95.44V96.928C37.1864 96.9173 37.1224 96.912 37.0584 96.912C37.005 96.912 36.9517 96.912 36.8984 96.912C36.077 96.912 35.4264 97.1573 34.9464 97.648C34.4664 98.1387 34.2264 98.848 34.2264 99.776V104H32.6904ZM42.6974 104.096C41.844 104.096 41.0867 103.909 40.4254 103.536C39.764 103.163 39.2414 102.651 38.8574 102C38.4734 101.339 38.2814 100.592 38.2814 99.76C38.2814 98.9173 38.4734 98.1707 38.8574 97.52C39.2414 96.8693 39.764 96.3627 40.4254 96C41.0867 95.6267 41.844 95.44 42.6974 95.44C43.54 95.44 44.292 95.6267 44.9534 96C45.6254 96.3627 46.148 96.8693 46.5214 97.52C46.9054 98.16 47.0974 98.9067 47.0974 99.76C47.0974 100.603 46.9054 101.349 46.5214 102C46.148 102.651 45.6254 103.163 44.9534 103.536C44.292 103.909 43.54 104.096 42.6974 104.096ZM42.6974 102.752C43.2414 102.752 43.7267 102.629 44.1534 102.384C44.5907 102.139 44.932 101.792 45.1774 101.344C45.4227 100.885 45.5454 100.357 45.5454 99.76C45.5454 99.152 45.4227 98.6293 45.1774 98.192C44.932 97.744 44.5907 97.3973 44.1534 97.152C43.7267 96.9067 43.2414 96.784 42.6974 96.784C42.1534 96.784 41.668 96.9067 41.2414 97.152C40.8147 97.3973 40.4734 97.744 40.2174 98.192C39.9614 98.6293 39.8334 99.152 39.8334 99.76C39.8334 100.357 39.9614 100.885 40.2174 101.344C40.4734 101.792 40.8147 102.139 41.2414 102.384C41.668 102.629 42.1534 102.752 42.6974 102.752ZM48.1336 107.2C47.7816 107.2 47.4456 107.157 47.1256 107.072C46.795 106.987 46.5176 106.859 46.2936 106.688L46.7896 105.504C47.1096 105.771 47.5256 105.904 48.0376 105.904C48.443 105.904 48.7523 105.776 48.9656 105.52C49.1896 105.275 49.3016 104.907 49.3016 104.416V95.52H50.8376V104.384C50.8376 105.248 50.603 105.931 50.1336 106.432C49.675 106.944 49.0083 107.2 48.1336 107.2ZM50.0696 93.888C49.771 93.888 49.5203 93.792 49.3176 93.6C49.1256 93.408 49.0296 93.1733 49.0296 92.896C49.0296 92.608 49.1256 92.368 49.3176 92.176C49.5203 91.984 49.771 91.888 50.0696 91.888C50.3683 91.888 50.6136 91.984 50.8056 92.176C51.0083 92.3573 51.1096 92.5867 51.1096 92.864C51.1096 93.152 51.0136 93.3973 50.8216 93.6C50.6296 93.792 50.379 93.888 50.0696 93.888ZM57.5445 104.096C56.6378 104.096 55.8378 103.909 55.1445 103.536C54.4618 103.163 53.9285 102.651 53.5445 102C53.1712 101.349 52.9845 100.603 52.9845 99.76C52.9845 98.9173 53.1658 98.1707 53.5285 97.52C53.9018 96.8693 54.4085 96.3627 55.0485 96C55.6992 95.6267 56.4298 95.44 57.2405 95.44C58.0618 95.44 58.7872 95.6213 59.4165 95.984C60.0458 96.3467 60.5365 96.8587 60.8885 97.52C61.2512 98.1707 61.4325 98.9333 61.4325 99.808C61.4325 99.872 61.4272 99.9467 61.4165 100.032C61.4165 100.117 61.4112 100.197 61.4005 100.272H54.1845V99.168H60.6005L59.9765 99.552C59.9872 99.008 59.8752 98.5227 59.6405 98.096C59.4058 97.6693 59.0805 97.3387 58.6645 97.104C58.2592 96.8587 57.7845 96.736 57.2405 96.736C56.7072 96.736 56.2325 96.8587 55.8165 97.104C55.4005 97.3387 55.0752 97.6747 54.8405 98.112C54.6058 98.5387 54.4885 99.0293 54.4885 99.584V99.84C54.4885 100.405 54.6165 100.912 54.8725 101.36C55.1392 101.797 55.5072 102.139 55.9765 102.384C56.4458 102.629 56.9845 102.752 57.5925 102.752C58.0938 102.752 58.5472 102.667 58.9525 102.496C59.3685 102.325 59.7312 102.069 60.0405 101.728L60.8885 102.72C60.5045 103.168 60.0245 103.509 59.4485 103.744C58.8832 103.979 58.2485 104.096 57.5445 104.096ZM66.4774 104.096C65.624 104.096 64.9627 103.867 64.4934 103.408C64.024 102.949 63.7894 102.293 63.7894 101.44V93.664H65.3254V101.376C65.3254 101.835 65.4374 102.187 65.6614 102.432C65.896 102.677 66.2267 102.8 66.6534 102.8C67.1334 102.8 67.5334 102.667 67.8534 102.4L68.3334 103.504C68.0987 103.707 67.816 103.856 67.4854 103.952C67.1654 104.048 66.8294 104.096 66.4774 104.096ZM62.3494 96.784V95.52H67.7574V96.784H62.3494ZM73.5411 104.096C72.6878 104.096 71.9305 103.909 71.2691 103.536C70.6078 103.163 70.0851 102.651 69.7011 102C69.3171 101.339 69.1251 100.592 69.1251 99.76C69.1251 98.9173 69.3171 98.1707 69.7011 97.52C70.0851 96.8693 70.6078 96.3627 71.2691 96C71.9305 95.6267 72.6878 95.44 73.5411 95.44C74.3838 95.44 75.1358 95.6267 75.7971 96C76.4691 96.3627 76.9918 96.8693 77.3651 97.52C77.7491 98.16 77.9411 98.9067 77.9411 99.76C77.9411 100.603 77.7491 101.349 77.3651 102C76.9918 102.651 76.4691 103.163 75.7971 103.536C75.1358 103.909 74.3838 104.096 73.5411 104.096ZM73.5411 102.752C74.0851 102.752 74.5705 102.629 74.9971 102.384C75.4345 102.139 75.7758 101.792 76.0211 101.344C76.2665 100.885 76.3891 100.357 76.3891 99.76C76.3891 99.152 76.2665 98.6293 76.0211 98.192C75.7758 97.744 75.4345 97.3973 74.9971 97.152C74.5705 96.9067 74.0851 96.784 73.5411 96.784C72.9971 96.784 72.5118 96.9067 72.0851 97.152C71.6585 97.3973 71.3171 97.744 71.0611 98.192C70.8051 98.6293 70.6771 99.152 70.6771 99.76C70.6771 100.357 70.8051 100.885 71.0611 101.344C71.3171 101.792 71.6585 102.139 72.0851 102.384C72.5118 102.629 72.9971 102.752 73.5411 102.752ZM82.4974 104.096C81.7934 104.096 81.1214 104 80.4814 103.808C79.852 103.616 79.356 103.381 78.9934 103.104L79.6334 101.888C79.996 102.133 80.444 102.341 80.9774 102.512C81.5107 102.683 82.0547 102.768 82.6094 102.768C83.324 102.768 83.836 102.667 84.1454 102.464C84.4654 102.261 84.6254 101.979 84.6254 101.616C84.6254 101.349 84.5294 101.141 84.3374 100.992C84.1454 100.843 83.8894 100.731 83.5694 100.656C83.26 100.581 82.9134 100.517 82.5294 100.464C82.1454 100.4 81.7614 100.325 81.3774 100.24C80.9934 100.144 80.6414 100.016 80.3214 99.856C80.0014 99.6853 79.7454 99.456 79.5534 99.168C79.3614 98.8693 79.2654 98.4747 79.2654 97.984C79.2654 97.472 79.4094 97.024 79.6974 96.64C79.9854 96.256 80.3907 95.9627 80.9134 95.76C81.4467 95.5467 82.076 95.44 82.8014 95.44C83.356 95.44 83.916 95.5093 84.4814 95.648C85.0574 95.776 85.5267 95.9627 85.8894 96.208L85.2334 97.424C84.8494 97.168 84.4494 96.992 84.0334 96.896C83.6174 96.8 83.2014 96.752 82.7854 96.752C82.1134 96.752 81.612 96.864 81.2814 97.088C80.9507 97.3013 80.7854 97.5787 80.7854 97.92C80.7854 98.208 80.8814 98.432 81.0734 98.592C81.276 98.7413 81.532 98.8587 81.8414 98.944C82.1614 99.0293 82.5134 99.104 82.8974 99.168C83.2814 99.2213 83.6654 99.296 84.0494 99.392C84.4334 99.4773 84.78 99.6 85.0894 99.76C85.4094 99.92 85.6654 100.144 85.8574 100.432C86.06 100.72 86.1614 101.104 86.1614 101.584C86.1614 102.096 86.012 102.539 85.7134 102.912C85.4147 103.285 84.9934 103.579 84.4494 103.792C83.9054 103.995 83.2547 104.096 82.4974 104.096ZM19.984 131L25.056 119.8H26.64L31.728 131H30.048L25.52 120.696H26.16L21.632 131H19.984ZM22.144 128.2L22.576 126.92H28.88L29.344 128.2H22.144ZM36.0086 131.096C35.1553 131.096 34.494 130.867 34.0246 130.408C33.5553 129.949 33.3206 129.293 33.3206 128.44V120.664H34.8566V128.376C34.8566 128.835 34.9686 129.187 35.1926 129.432C35.4273 129.677 35.758 129.8 36.1846 129.8C36.6646 129.8 37.0646 129.667 37.3846 129.4L37.8646 130.504C37.63 130.707 37.3473 130.856 37.0166 130.952C36.6966 131.048 36.3606 131.096 36.0086 131.096ZM31.8806 123.784V122.52H37.2886V123.784H31.8806ZM39.7216 131V122.52H41.2576V131H39.7216ZM40.4896 120.888C40.191 120.888 39.9403 120.792 39.7376 120.6C39.5456 120.408 39.4496 120.173 39.4496 119.896C39.4496 119.608 39.5456 119.368 39.7376 119.176C39.9403 118.984 40.191 118.888 40.4896 118.888C40.7883 118.888 41.0336 118.984 41.2256 119.176C41.4283 119.357 41.5296 119.587 41.5296 119.864C41.5296 120.152 41.4336 120.397 41.2416 120.6C41.0496 120.792 40.799 120.888 40.4896 120.888ZM46.4144 131L42.7024 122.52H44.3024L47.5984 130.2H46.8304L50.1904 122.52H51.6944L47.9824 131H46.4144ZM53.1279 131V122.52H54.6639V131H53.1279ZM53.8959 120.888C53.5972 120.888 53.3465 120.792 53.1439 120.6C52.9519 120.408 52.8559 120.173 52.8559 119.896C52.8559 119.608 52.9519 119.368 53.1439 119.176C53.3465 118.984 53.5972 118.888 53.8959 118.888C54.1945 118.888 54.4399 118.984 54.6319 119.176C54.8345 119.357 54.9359 119.587 54.9359 119.864C54.9359 120.152 54.8399 120.397 54.6479 120.6C54.4559 120.792 54.2052 120.888 53.8959 120.888ZM61.1006 131.096C60.2793 131.096 59.5433 130.915 58.8926 130.552C58.2526 130.189 57.746 129.683 57.3726 129.032C56.9993 128.381 56.8126 127.624 56.8126 126.76C56.8126 125.896 56.9993 125.144 57.3726 124.504C57.746 123.853 58.2526 123.347 58.8926 122.984C59.5433 122.621 60.2793 122.44 61.1006 122.44C61.8153 122.44 62.4606 122.6 63.0366 122.92C63.6126 123.24 64.0713 123.72 64.4126 124.36C64.7646 125 64.9406 125.8 64.9406 126.76C64.9406 127.72 64.77 128.52 64.4286 129.16C64.098 129.8 63.6446 130.285 63.0686 130.616C62.4926 130.936 61.8366 131.096 61.1006 131.096ZM61.2286 129.752C61.762 129.752 62.242 129.629 62.6686 129.384C63.106 129.139 63.4473 128.792 63.6926 128.344C63.9486 127.885 64.0766 127.357 64.0766 126.76C64.0766 126.152 63.9486 125.629 63.6926 125.192C63.4473 124.744 63.106 124.397 62.6686 124.152C62.242 123.907 61.762 123.784 61.2286 123.784C60.6846 123.784 60.1993 123.907 59.7726 124.152C59.346 124.397 59.0046 124.744 58.7486 125.192C58.4926 125.629 58.3646 126.152 58.3646 126.76C58.3646 127.357 58.4926 127.885 58.7486 128.344C59.0046 128.792 59.346 129.139 59.7726 129.384C60.1993 129.629 60.6846 129.752 61.2286 129.752ZM64.1246 131V128.712L64.2206 126.744L64.0606 124.776V119.128H65.5966V131H64.1246ZM73.7669 131V129.208L73.6869 128.872V125.816C73.6869 125.165 73.4949 124.664 73.1109 124.312C72.7375 123.949 72.1722 123.768 71.4149 123.768C70.9135 123.768 70.4229 123.853 69.9429 124.024C69.4629 124.184 69.0575 124.403 68.7269 124.68L68.0869 123.528C68.5242 123.176 69.0469 122.909 69.6549 122.728C70.2735 122.536 70.9189 122.44 71.5909 122.44C72.7535 122.44 73.6495 122.723 74.2789 123.288C74.9082 123.853 75.2229 124.717 75.2229 125.88V131H73.7669ZM70.9829 131.096C70.3535 131.096 69.7989 130.989 69.3189 130.776C68.8495 130.563 68.4869 130.269 68.2309 129.896C67.9749 129.512 67.8469 129.08 67.8469 128.6C67.8469 128.141 67.9535 127.725 68.1669 127.352C68.3909 126.979 68.7482 126.68 69.2389 126.456C69.7402 126.232 70.4122 126.12 71.2549 126.12H73.9429V127.224H71.3189C70.5509 127.224 70.0335 127.352 69.7669 127.608C69.5002 127.864 69.3669 128.173 69.3669 128.536C69.3669 128.952 69.5322 129.288 69.8629 129.544C70.1935 129.789 70.6522 129.912 71.2389 129.912C71.8149 129.912 72.3162 129.784 72.7429 129.528C73.1802 129.272 73.4949 128.899 73.6869 128.408L73.9909 129.464C73.7882 129.965 73.4309 130.365 72.9189 130.664C72.4069 130.952 71.7615 131.096 70.9829 131.096ZM81.5694 131.096C80.748 131.096 80.012 130.915 79.3614 130.552C78.7214 130.189 78.2147 129.683 77.8414 129.032C77.468 128.381 77.2814 127.624 77.2814 126.76C77.2814 125.896 77.468 125.144 77.8414 124.504C78.2147 123.853 78.7214 123.347 79.3614 122.984C80.012 122.621 80.748 122.44 81.5694 122.44C82.284 122.44 82.9294 122.6 83.5054 122.92C84.0814 123.24 84.54 123.72 84.8814 124.36C85.2334 125 85.4094 125.8 85.4094 126.76C85.4094 127.72 85.2387 128.52 84.8974 129.16C84.5667 129.8 84.1134 130.285 83.5374 130.616C82.9614 130.936 82.3054 131.096 81.5694 131.096ZM81.6974 129.752C82.2307 129.752 82.7107 129.629 83.1374 129.384C83.5747 129.139 83.916 128.792 84.1614 128.344C84.4174 127.885 84.5454 127.357 84.5454 126.76C84.5454 126.152 84.4174 125.629 84.1614 125.192C83.916 124.744 83.5747 124.397 83.1374 124.152C82.7107 123.907 82.2307 123.784 81.6974 123.784C81.1534 123.784 80.668 123.907 80.2414 124.152C79.8147 124.397 79.4734 124.744 79.2174 125.192C78.9614 125.629 78.8334 126.152 78.8334 126.76C78.8334 127.357 78.9614 127.885 79.2174 128.344C79.4734 128.792 79.8147 129.139 80.2414 129.384C80.668 129.629 81.1534 129.752 81.6974 129.752ZM84.5934 131V128.712L84.6894 126.744L84.5294 124.776V119.128H86.0654V131H84.5934ZM92.7476 131.096C91.841 131.096 91.041 130.909 90.3476 130.536C89.665 130.163 89.1316 129.651 88.7476 129C88.3743 128.349 88.1876 127.603 88.1876 126.76C88.1876 125.917 88.369 125.171 88.7316 124.52C89.105 123.869 89.6116 123.363 90.2516 123C90.9023 122.627 91.633 122.44 92.4436 122.44C93.265 122.44 93.9903 122.621 94.6196 122.984C95.249 123.347 95.7396 123.859 96.0916 124.52C96.4543 125.171 96.6356 125.933 96.6356 126.808C96.6356 126.872 96.6303 126.947 96.6196 127.032C96.6196 127.117 96.6143 127.197 96.6036 127.272H89.3876V126.168H95.8036L95.1796 126.552C95.1903 126.008 95.0783 125.523 94.8436 125.096C94.609 124.669 94.2836 124.339 93.8676 124.104C93.4623 123.859 92.9876 123.736 92.4436 123.736C91.9103 123.736 91.4356 123.859 91.0196 124.104C90.6036 124.339 90.2783 124.675 90.0436 125.112C89.809 125.539 89.6916 126.029 89.6916 126.584V126.84C89.6916 127.405 89.8196 127.912 90.0756 128.36C90.3423 128.797 90.7103 129.139 91.1796 129.384C91.649 129.629 92.1876 129.752 92.7956 129.752C93.297 129.752 93.7503 129.667 94.1556 129.496C94.5716 129.325 94.9343 129.069 95.2436 128.728L96.0916 129.72C95.7076 130.168 95.2276 130.509 94.6516 130.744C94.0863 130.979 93.4516 131.096 92.7476 131.096ZM101.201 131.096C100.497 131.096 99.8245 131 99.1845 130.808C98.5552 130.616 98.0592 130.381 97.6965 130.104L98.3365 128.888C98.6992 129.133 99.1472 129.341 99.6805 129.512C100.214 129.683 100.758 129.768 101.312 129.768C102.027 129.768 102.539 129.667 102.849 129.464C103.169 129.261 103.329 128.979 103.329 128.616C103.329 128.349 103.233 128.141 103.041 127.992C102.849 127.843 102.593 127.731 102.273 127.656C101.963 127.581 101.617 127.517 101.233 127.464C100.849 127.4 100.465 127.325 100.081 127.24C99.6965 127.144 99.3445 127.016 99.0245 126.856C98.7045 126.685 98.4485 126.456 98.2565 126.168C98.0645 125.869 97.9685 125.475 97.9685 124.984C97.9685 124.472 98.1125 124.024 98.4005 123.64C98.6885 123.256 99.0938 122.963 99.6165 122.76C100.15 122.547 100.779 122.44 101.505 122.44C102.059 122.44 102.619 122.509 103.185 122.648C103.761 122.776 104.23 122.963 104.593 123.208L103.937 124.424C103.553 124.168 103.153 123.992 102.737 123.896C102.321 123.8 101.905 123.752 101.489 123.752C100.817 123.752 100.315 123.864 99.9845 124.088C99.6538 124.301 99.4885 124.579 99.4885 124.92C99.4885 125.208 99.5845 125.432 99.7765 125.592C99.9792 125.741 100.235 125.859 100.545 125.944C100.865 126.029 101.217 126.104 101.601 126.168C101.985 126.221 102.369 126.296 102.753 126.392C103.137 126.477 103.483 126.6 103.793 126.76C104.113 126.92 104.369 127.144 104.561 127.432C104.763 127.72 104.865 128.104 104.865 128.584C104.865 129.096 104.715 129.539 104.417 129.912C104.118 130.285 103.697 130.579 103.153 130.792C102.609 130.995 101.958 131.096 101.201 131.096ZM110.217 131V129.912L114.777 125.512C115.182 125.128 115.481 124.792 115.673 124.504C115.876 124.205 116.009 123.933 116.073 123.688C116.148 123.432 116.185 123.187 116.185 122.952C116.185 122.376 115.982 121.923 115.577 121.592C115.172 121.261 114.58 121.096 113.801 121.096C113.204 121.096 112.665 121.197 112.185 121.4C111.705 121.592 111.289 121.896 110.937 122.312L109.849 121.368C110.276 120.824 110.846 120.408 111.561 120.12C112.286 119.821 113.081 119.672 113.945 119.672C114.724 119.672 115.401 119.8 115.977 120.056C116.553 120.301 116.996 120.659 117.305 121.128C117.625 121.597 117.785 122.152 117.785 122.792C117.785 123.155 117.737 123.512 117.641 123.864C117.545 124.216 117.364 124.589 117.097 124.984C116.83 125.379 116.446 125.821 115.945 126.312L111.881 130.232L111.497 129.608H118.265V131H110.217ZM21.504 158V146.8H23.216L28.112 154.976H27.216L32.032 146.8H33.744L33.76 158H31.792L31.776 149.888H32.192L28.096 156.72H27.168L23.008 149.888H23.488V158H21.504ZM40.6093 158.112C39.6599 158.112 38.8279 157.925 38.1133 157.552C37.4093 157.168 36.8599 156.645 36.4653 155.984C36.0813 155.323 35.8893 154.571 35.8893 153.728C35.8893 152.875 36.0759 152.123 36.4493 151.472C36.8333 150.811 37.3559 150.293 38.0173 149.92C38.6893 149.547 39.4519 149.36 40.3053 149.36C41.1373 149.36 41.8786 149.541 42.5293 149.904C43.1799 150.267 43.6919 150.779 44.0653 151.44C44.4386 152.101 44.6253 152.88 44.6253 153.776C44.6253 153.861 44.6199 153.957 44.6093 154.064C44.6093 154.171 44.6039 154.272 44.5933 154.368H37.4733V153.04H43.5373L42.7533 153.456C42.7639 152.965 42.6626 152.533 42.4493 152.16C42.2359 151.787 41.9426 151.493 41.5693 151.28C41.2066 151.067 40.7853 150.96 40.3053 150.96C39.8146 150.96 39.3826 151.067 39.0093 151.28C38.6466 151.493 38.3586 151.792 38.1453 152.176C37.9426 152.549 37.8413 152.992 37.8413 153.504V153.824C37.8413 154.336 37.9586 154.789 38.1933 155.184C38.4279 155.579 38.7586 155.883 39.1853 156.096C39.6119 156.309 40.1026 156.416 40.6573 156.416C41.1373 156.416 41.5693 156.341 41.9533 156.192C42.3373 156.043 42.6786 155.808 42.9773 155.488L44.0493 156.72C43.6653 157.168 43.1799 157.515 42.5933 157.76C42.0173 157.995 41.3559 158.112 40.6093 158.112ZM38.9133 148.288L41.0733 146.096H43.4253L40.6413 148.288H38.9133ZM50.1624 158.112C49.341 158.112 48.5997 157.931 47.9384 157.568C47.2877 157.195 46.7757 156.683 46.4024 156.032C46.029 155.381 45.8424 154.613 45.8424 153.728C45.8424 152.843 46.029 152.075 46.4024 151.424C46.7757 150.773 47.2877 150.267 47.9384 149.904C48.5997 149.541 49.341 149.36 50.1624 149.36C50.877 149.36 51.517 149.52 52.0824 149.84C52.6477 150.149 53.0957 150.624 53.4264 151.264C53.757 151.904 53.9224 152.725 53.9224 153.728C53.9224 154.72 53.7624 155.541 53.4424 156.192C53.1224 156.832 52.6797 157.312 52.1144 157.632C51.549 157.952 50.8984 158.112 50.1624 158.112ZM50.4024 156.4C50.8824 156.4 51.309 156.293 51.6824 156.08C52.0664 155.867 52.3704 155.557 52.5944 155.152C52.829 154.747 52.9464 154.272 52.9464 153.728C52.9464 153.173 52.829 152.699 52.5944 152.304C52.3704 151.899 52.0664 151.589 51.6824 151.376C51.309 151.163 50.8824 151.056 50.4024 151.056C49.9224 151.056 49.4904 151.163 49.1064 151.376C48.733 151.589 48.429 151.899 48.1944 152.304C47.9704 152.699 47.8584 153.173 47.8584 153.728C47.8584 154.272 47.9704 154.747 48.1944 155.152C48.429 155.557 48.733 155.867 49.1064 156.08C49.4904 156.293 49.9224 156.4 50.4024 156.4ZM52.9944 158V155.984L53.0744 153.712L52.9144 151.44V146.128H54.8984V158H52.9944ZM57.5308 158V149.456H59.5308V158H57.5308ZM58.5388 148.048C58.1654 148.048 57.8561 147.931 57.6108 147.696C57.3761 147.461 57.2588 147.179 57.2588 146.848C57.2588 146.507 57.3761 146.224 57.6108 146C57.8561 145.765 58.1654 145.648 58.5388 145.648C58.9121 145.648 59.2161 145.76 59.4508 145.984C59.6961 146.197 59.8188 146.469 59.8188 146.8C59.8188 147.152 59.7014 147.451 59.4668 147.696C59.2321 147.931 58.9228 148.048 58.5388 148.048ZM67.4198 158V156.272L67.3078 155.904V152.88C67.3078 152.293 67.1318 151.84 66.7798 151.52C66.4278 151.189 65.8944 151.024 65.1798 151.024C64.6998 151.024 64.2251 151.099 63.7558 151.248C63.2971 151.397 62.9078 151.605 62.5878 151.872L61.8038 150.416C62.2624 150.064 62.8064 149.803 63.4358 149.632C64.0758 149.451 64.7371 149.36 65.4198 149.36C66.6571 149.36 67.6118 149.659 68.2838 150.256C68.9664 150.843 69.3078 151.755 69.3078 152.992V158H67.4198ZM64.7318 158.112C64.0918 158.112 63.5318 158.005 63.0518 157.792C62.5718 157.568 62.1984 157.264 61.9318 156.88C61.6758 156.485 61.5478 156.043 61.5478 155.552C61.5478 155.072 61.6598 154.64 61.8838 154.256C62.1184 153.872 62.4971 153.568 63.0198 153.344C63.5424 153.12 64.2358 153.008 65.0998 153.008H67.5798V154.336H65.2438C64.5611 154.336 64.1024 154.448 63.8678 154.672C63.6331 154.885 63.5158 155.152 63.5158 155.472C63.5158 155.835 63.6598 156.123 63.9478 156.336C64.2358 156.549 64.6358 156.656 65.1478 156.656C65.6384 156.656 66.0758 156.544 66.4598 156.32C66.8544 156.096 67.1371 155.765 67.3078 155.328L67.6438 156.528C67.4518 157.029 67.1051 157.419 66.6038 157.696C66.1131 157.973 65.4891 158.112 64.7318 158.112Z" fill="#2A2828"/>
<path d="M266.136 50.128C265.229 50.128 264.445 49.9947 263.784 49.728C263.123 49.4613 262.611 49.0827 262.248 48.592C261.885 48.0907 261.704 47.504 261.704 46.832C261.704 46.1707 261.875 45.6107 262.216 45.152C262.568 44.6827 263.075 44.3307 263.736 44.096C264.397 43.8507 265.197 43.728 266.136 43.728C267.075 43.728 267.875 43.8507 268.536 44.096C269.208 44.3307 269.72 44.6827 270.072 45.152C270.424 45.6213 270.6 46.1813 270.6 46.832C270.6 47.504 270.419 48.0907 270.056 48.592C269.693 49.0827 269.176 49.4613 268.504 49.728C267.832 49.9947 267.043 50.128 266.136 50.128ZM266.136 48.832C267.032 48.832 267.731 48.6507 268.232 48.288C268.744 47.9147 269 47.4133 269 46.784C269 46.1653 268.744 45.68 268.232 45.328C267.731 44.9653 267.032 44.784 266.136 44.784C265.251 44.784 264.557 44.9653 264.056 45.328C263.555 45.68 263.304 46.1653 263.304 46.784C263.304 47.4133 263.555 47.9147 264.056 48.288C264.557 48.6507 265.251 48.832 266.136 48.832ZM266.136 44.592C265.283 44.592 264.557 44.48 263.96 44.256C263.363 44.0213 262.904 43.6907 262.584 43.264C262.264 42.8267 262.104 42.3093 262.104 41.712C262.104 41.0827 262.269 40.544 262.6 40.096C262.941 39.6373 263.416 39.2853 264.024 39.04C264.632 38.7947 265.336 38.672 266.136 38.672C266.947 38.672 267.656 38.7947 268.264 39.04C268.872 39.2853 269.347 39.6373 269.688 40.096C270.029 40.544 270.2 41.0827 270.2 41.712C270.2 42.3093 270.04 42.8267 269.72 43.264C269.4 43.6907 268.936 44.0213 268.328 44.256C267.72 44.48 266.989 44.592 266.136 44.592ZM266.136 43.568C266.915 43.568 267.523 43.408 267.96 43.088C268.408 42.768 268.632 42.3307 268.632 41.776C268.632 41.2107 268.403 40.768 267.944 40.448C267.485 40.128 266.883 39.968 266.136 39.968C265.389 39.968 264.792 40.128 264.344 40.448C263.907 40.768 263.688 41.2107 263.688 41.776C263.688 42.3307 263.901 42.768 264.328 43.088C264.765 43.408 265.368 43.568 266.136 43.568ZM272.301 52.368L273.101 49.136L273.309 50.064C273 50.064 272.738 49.968 272.525 49.776C272.322 49.584 272.221 49.3227 272.221 48.992C272.221 48.672 272.322 48.4107 272.525 48.208C272.738 48.0053 272.994 47.904 273.293 47.904C273.602 47.904 273.853 48.0107 274.045 48.224C274.237 48.4267 274.333 48.6827 274.333 48.992C274.333 49.0987 274.322 49.2053 274.301 49.312C274.29 49.408 274.264 49.5253 274.221 49.664C274.189 49.792 274.136 49.952 274.061 50.144L273.309 52.368H272.301ZM279.462 50.128C278.673 50.128 277.905 50.0053 277.158 49.76C276.422 49.5147 275.819 49.184 275.35 48.768L276.086 47.504C276.459 47.856 276.945 48.144 277.542 48.368C278.139 48.592 278.774 48.704 279.446 48.704C280.299 48.704 280.955 48.5227 281.414 48.16C281.873 47.7973 282.102 47.312 282.102 46.704C282.102 46.288 282.001 45.9253 281.798 45.616C281.595 45.3067 281.243 45.072 280.742 44.912C280.251 44.7413 279.574 44.656 278.71 44.656H276.166L276.758 38.8H283.078V40.192H277.35L278.182 39.408L277.718 44.032L276.886 43.264H279.046C280.166 43.264 281.067 43.408 281.75 43.696C282.433 43.984 282.929 44.384 283.238 44.896C283.547 45.3973 283.702 45.9787 283.702 46.64C283.702 47.28 283.547 47.8667 283.238 48.4C282.929 48.9227 282.459 49.344 281.83 49.664C281.211 49.9733 280.422 50.128 279.462 50.128ZM263.704 77L268.456 66.472L268.872 67.192H262.216L263.016 66.408V69.192H261.48V65.8H269.928V66.888L265.4 77H263.704ZM270.582 79.368L271.382 76.136L271.59 77.064C271.281 77.064 271.02 76.968 270.806 76.776C270.604 76.584 270.502 76.3227 270.502 75.992C270.502 75.672 270.604 75.4107 270.806 75.208C271.02 75.0053 271.276 74.904 271.574 74.904C271.884 74.904 272.134 75.0107 272.326 75.224C272.518 75.4267 272.614 75.6827 272.614 75.992C272.614 76.0987 272.604 76.2053 272.582 76.312C272.572 76.408 272.545 76.5253 272.502 76.664C272.47 76.792 272.417 76.952 272.342 77.144L271.59 79.368H270.582ZM275.86 77L280.612 66.472L281.028 67.192H274.372L275.172 66.408V69.192H273.636V65.8H282.084V66.888L277.556 77H275.86ZM266.136 104.128C265.229 104.128 264.445 103.995 263.784 103.728C263.123 103.461 262.611 103.083 262.248 102.592C261.885 102.091 261.704 101.504 261.704 100.832C261.704 100.171 261.875 99.6107 262.216 99.152C262.568 98.6827 263.075 98.3307 263.736 98.096C264.397 97.8507 265.197 97.728 266.136 97.728C267.075 97.728 267.875 97.8507 268.536 98.096C269.208 98.3307 269.72 98.6827 270.072 99.152C270.424 99.6213 270.6 100.181 270.6 100.832C270.6 101.504 270.419 102.091 270.056 102.592C269.693 103.083 269.176 103.461 268.504 103.728C267.832 103.995 267.043 104.128 266.136 104.128ZM266.136 102.832C267.032 102.832 267.731 102.651 268.232 102.288C268.744 101.915 269 101.413 269 100.784C269 100.165 268.744 99.68 268.232 99.328C267.731 98.9653 267.032 98.784 266.136 98.784C265.251 98.784 264.557 98.9653 264.056 99.328C263.555 99.68 263.304 100.165 263.304 100.784C263.304 101.413 263.555 101.915 264.056 102.288C264.557 102.651 265.251 102.832 266.136 102.832ZM266.136 98.592C265.283 98.592 264.557 98.48 263.96 98.256C263.363 98.0213 262.904 97.6907 262.584 97.264C262.264 96.8267 262.104 96.3093 262.104 95.712C262.104 95.0827 262.269 94.544 262.6 94.096C262.941 93.6373 263.416 93.2853 264.024 93.04C264.632 92.7947 265.336 92.672 266.136 92.672C266.947 92.672 267.656 92.7947 268.264 93.04C268.872 93.2853 269.347 93.6373 269.688 94.096C270.029 94.544 270.2 95.0827 270.2 95.712C270.2 96.3093 270.04 96.8267 269.72 97.264C269.4 97.6907 268.936 98.0213 268.328 98.256C267.72 98.48 266.989 98.592 266.136 98.592ZM266.136 97.568C266.915 97.568 267.523 97.408 267.96 97.088C268.408 96.768 268.632 96.3307 268.632 95.776C268.632 95.2107 268.403 94.768 267.944 94.448C267.485 94.128 266.883 93.968 266.136 93.968C265.389 93.968 264.792 94.128 264.344 94.448C263.907 94.768 263.688 95.2107 263.688 95.776C263.688 96.3307 263.901 96.768 264.328 97.088C264.765 97.408 265.368 97.568 266.136 97.568ZM272.301 106.368L273.101 103.136L273.309 104.064C273 104.064 272.738 103.968 272.525 103.776C272.322 103.584 272.221 103.323 272.221 102.992C272.221 102.672 272.322 102.411 272.525 102.208C272.738 102.005 272.994 101.904 273.293 101.904C273.602 101.904 273.853 102.011 274.045 102.224C274.237 102.427 274.333 102.683 274.333 102.992C274.333 103.099 274.322 103.205 274.301 103.312C274.29 103.408 274.264 103.525 274.221 103.664C274.189 103.792 274.136 103.952 274.061 104.144L273.309 106.368H272.301ZM275.546 101.248V100.128L281.274 92.8H283.002L277.322 100.128L276.506 99.872H285.45V101.248H275.546ZM281.77 104V101.248L281.818 99.872V97.44H283.322V104H281.77ZM265.4 119.672C266.413 119.672 267.267 119.891 267.96 120.328C268.664 120.765 269.197 121.4 269.56 122.232C269.923 123.053 270.104 124.061 270.104 125.256C270.104 126.525 269.88 127.597 269.432 128.472C268.984 129.347 268.365 130.008 267.576 130.456C266.787 130.904 265.864 131.128 264.808 131.128C264.285 131.128 263.779 131.075 263.288 130.968C262.808 130.861 262.387 130.696 262.024 130.472L262.632 129.224C262.931 129.416 263.261 129.555 263.624 129.64C263.997 129.715 264.387 129.752 264.792 129.752C265.923 129.752 266.824 129.4 267.496 128.696C268.168 127.981 268.504 126.925 268.504 125.528C268.504 125.304 268.493 125.037 268.472 124.728C268.451 124.419 268.403 124.115 268.328 123.816L268.856 124.36C268.707 124.851 268.456 125.267 268.104 125.608C267.763 125.939 267.347 126.189 266.856 126.36C266.376 126.52 265.848 126.6 265.272 126.6C264.536 126.6 263.88 126.461 263.304 126.184C262.728 125.907 262.275 125.517 261.944 125.016C261.613 124.504 261.448 123.901 261.448 123.208C261.448 122.483 261.619 121.859 261.96 121.336C262.312 120.803 262.787 120.392 263.384 120.104C263.992 119.816 264.664 119.672 265.4 119.672ZM265.464 120.968C264.984 120.968 264.557 121.059 264.184 121.24C263.811 121.421 263.517 121.672 263.304 121.992C263.101 122.312 263 122.696 263 123.144C263 123.805 263.229 124.333 263.688 124.728C264.147 125.112 264.765 125.304 265.544 125.304C266.056 125.304 266.504 125.208 266.888 125.016C267.283 124.824 267.587 124.563 267.8 124.232C268.024 123.901 268.136 123.533 268.136 123.128C268.136 122.733 268.035 122.376 267.832 122.056C267.629 121.736 267.331 121.475 266.936 121.272C266.541 121.069 266.051 120.968 265.464 120.968ZM271.536 133.368L272.336 130.136L272.544 131.064C272.234 131.064 271.973 130.968 271.76 130.776C271.557 130.584 271.456 130.323 271.456 129.992C271.456 129.672 271.557 129.411 271.76 129.208C271.973 129.005 272.229 128.904 272.528 128.904C272.837 128.904 273.088 129.011 273.28 129.224C273.472 129.427 273.568 129.683 273.568 129.992C273.568 130.099 273.557 130.205 273.536 130.312C273.525 130.408 273.498 130.525 273.456 130.664C273.424 130.792 273.37 130.952 273.296 131.144L272.544 133.368H271.536ZM279.605 131.128C278.698 131.128 277.914 130.995 277.253 130.728C276.591 130.461 276.079 130.083 275.717 129.592C275.354 129.091 275.173 128.504 275.173 127.832C275.173 127.171 275.343 126.611 275.685 126.152C276.037 125.683 276.543 125.331 277.205 125.096C277.866 124.851 278.666 124.728 279.605 124.728C280.543 124.728 281.343 124.851 282.005 125.096C282.677 125.331 283.189 125.683 283.541 126.152C283.893 126.621 284.069 127.181 284.069 127.832C284.069 128.504 283.887 129.091 283.525 129.592C283.162 130.083 282.645 130.461 281.973 130.728C281.301 130.995 280.511 131.128 279.605 131.128ZM279.605 129.832C280.501 129.832 281.199 129.651 281.701 129.288C282.213 128.915 282.469 128.413 282.469 127.784C282.469 127.165 282.213 126.68 281.701 126.328C281.199 125.965 280.501 125.784 279.605 125.784C278.719 125.784 278.026 125.965 277.525 126.328C277.023 126.68 276.773 127.165 276.773 127.784C276.773 128.413 277.023 128.915 277.525 129.288C278.026 129.651 278.719 129.832 279.605 129.832ZM279.605 125.592C278.751 125.592 278.026 125.48 277.429 125.256C276.831 125.021 276.373 124.691 276.053 124.264C275.733 123.827 275.573 123.309 275.573 122.712C275.573 122.083 275.738 121.544 276.069 121.096C276.41 120.637 276.885 120.285 277.493 120.04C278.101 119.795 278.805 119.672 279.605 119.672C280.415 119.672 281.125 119.795 281.733 120.04C282.341 120.285 282.815 120.637 283.157 121.096C283.498 121.544 283.669 122.083 283.669 122.712C283.669 123.309 283.509 123.827 283.189 124.264C282.869 124.691 282.405 125.021 281.797 125.256C281.189 125.48 280.458 125.592 279.605 125.592ZM279.605 124.568C280.383 124.568 280.991 124.408 281.429 124.088C281.877 123.768 282.101 123.331 282.101 122.776C282.101 122.211 281.871 121.768 281.413 121.448C280.954 121.128 280.351 120.968 279.605 120.968C278.858 120.968 278.261 121.128 277.813 121.448C277.375 121.768 277.157 122.211 277.157 122.776C277.157 123.331 277.37 123.768 277.797 124.088C278.234 124.408 278.837 124.568 279.605 124.568ZM266.2 158.16C265.272 158.16 264.467 158.021 263.784 157.744C263.101 157.467 262.573 157.077 262.2 156.576C261.827 156.064 261.64 155.467 261.64 154.784C261.64 154.101 261.821 153.525 262.184 153.056C262.547 152.587 263.069 152.229 263.752 151.984C264.435 151.739 265.251 151.616 266.2 151.616C267.149 151.616 267.965 151.739 268.648 151.984C269.341 152.229 269.869 152.592 270.232 153.072C270.605 153.541 270.792 154.112 270.792 154.784C270.792 155.467 270.6 156.064 270.216 156.576C269.843 157.077 269.309 157.467 268.616 157.744C267.933 158.021 267.128 158.16 266.2 158.16ZM266.2 156.528C266.968 156.528 267.576 156.368 268.024 156.048C268.472 155.728 268.696 155.285 268.696 154.72C268.696 154.165 268.472 153.728 268.024 153.408C267.576 153.088 266.968 152.928 266.2 152.928C265.432 152.928 264.829 153.088 264.392 153.408C263.955 153.728 263.736 154.165 263.736 154.72C263.736 155.285 263.955 155.728 264.392 156.048C264.829 156.368 265.432 156.528 266.2 156.528ZM266.2 152.704C265.336 152.704 264.595 152.592 263.976 152.368C263.357 152.133 262.877 151.797 262.536 151.36C262.205 150.912 262.04 150.379 262.04 149.76C262.04 149.12 262.211 148.571 262.552 148.112C262.904 147.643 263.395 147.28 264.024 147.024C264.653 146.768 265.379 146.64 266.2 146.64C267.032 146.64 267.763 146.768 268.392 147.024C269.021 147.28 269.512 147.643 269.864 148.112C270.216 148.571 270.392 149.12 270.392 149.76C270.392 150.379 270.221 150.912 269.88 151.36C269.549 151.797 269.069 152.133 268.44 152.368C267.811 152.592 267.064 152.704 266.2 152.704ZM266.2 151.424C266.861 151.424 267.384 151.285 267.768 151.008C268.152 150.72 268.344 150.336 268.344 149.856C268.344 149.355 268.147 148.965 267.752 148.688C267.357 148.411 266.84 148.272 266.2 148.272C265.56 148.272 265.048 148.411 264.664 148.688C264.28 148.965 264.088 149.355 264.088 149.856C264.088 150.336 264.275 150.72 264.648 151.008C265.032 151.285 265.549 151.424 266.2 151.424ZM272.378 160.416L273.306 156.88L273.578 158.064C273.204 158.064 272.89 157.952 272.634 157.728C272.388 157.493 272.266 157.179 272.266 156.784C272.266 156.379 272.388 156.059 272.634 155.824C272.89 155.579 273.199 155.456 273.562 155.456C273.935 155.456 274.244 155.579 274.49 155.824C274.735 156.069 274.858 156.389 274.858 156.784C274.858 156.891 274.847 157.008 274.826 157.136C274.804 157.253 274.767 157.392 274.714 157.552C274.671 157.712 274.596 157.915 274.49 158.16L273.674 160.416H272.378ZM280.865 158.16C279.851 158.16 278.982 157.947 278.257 157.52C277.531 157.083 276.977 156.453 276.593 155.632C276.209 154.811 276.017 153.797 276.017 152.592C276.017 151.312 276.246 150.229 276.705 149.344C277.174 148.459 277.819 147.787 278.641 147.328C279.473 146.869 280.427 146.64 281.505 146.64C282.07 146.64 282.609 146.699 283.121 146.816C283.643 146.933 284.086 147.115 284.449 147.36L283.681 148.928C283.371 148.725 283.035 148.587 282.673 148.512C282.321 148.427 281.947 148.384 281.553 148.384C280.497 148.384 279.659 148.709 279.041 149.36C278.422 150.011 278.113 150.971 278.113 152.24C278.113 152.443 278.118 152.683 278.129 152.96C278.139 153.227 278.177 153.499 278.241 153.776L277.601 153.072C277.793 152.635 278.054 152.272 278.385 151.984C278.726 151.685 279.126 151.461 279.585 151.312C280.054 151.163 280.561 151.088 281.105 151.088C281.841 151.088 282.497 151.232 283.073 151.52C283.649 151.797 284.107 152.197 284.449 152.72C284.79 153.232 284.961 153.835 284.961 154.528C284.961 155.264 284.779 155.904 284.417 156.448C284.054 156.992 283.563 157.413 282.945 157.712C282.326 158.011 281.633 158.16 280.865 158.16ZM280.753 156.528C281.179 156.528 281.558 156.453 281.889 156.304C282.219 156.144 282.475 155.92 282.657 155.632C282.849 155.344 282.945 155.008 282.945 154.624C282.945 154.037 282.742 153.573 282.337 153.232C281.931 152.891 281.387 152.72 280.705 152.72C280.257 152.72 279.862 152.805 279.521 152.976C279.19 153.136 278.923 153.36 278.721 153.648C278.529 153.936 278.433 154.267 278.433 154.64C278.433 154.981 278.523 155.296 278.705 155.584C278.886 155.872 279.147 156.101 279.489 156.272C279.841 156.443 280.262 156.528 280.753 156.528Z" fill="#2A2828"/>
</svg>
