<svg width="307" height="188" viewBox="0 0 307 188" fill="none" xmlns="http://www.w3.org/2000/svg">
<path d="M1.692 17V4.4H6.876C7.992 4.4 8.946 4.58 9.738 4.94C10.542 5.3 11.16 5.816 11.592 6.488C12.024 7.16 12.24 7.958 12.24 8.882C12.24 9.806 12.024 10.604 11.592 11.276C11.16 11.948 10.542 12.464 9.738 12.824C8.946 13.184 7.992 13.364 6.876 13.364H2.988L4.032 12.266V17H1.692ZM4.032 12.518L2.988 11.384H6.768C7.8 11.384 8.574 11.168 9.09 10.736C9.618 10.292 9.882 9.674 9.882 8.882C9.882 8.078 9.618 7.46 9.09 7.028C8.574 6.596 7.8 6.38 6.768 6.38H2.988L4.032 5.228V12.518ZM14.2729 17V7.388H16.4149V10.034L16.1629 9.26C16.4509 8.612 16.9009 8.12 17.5129 7.784C18.1369 7.448 18.9109 7.28 19.8349 7.28V9.422C19.7389 9.398 19.6489 9.386 19.5649 9.386C19.4809 9.374 19.3969 9.368 19.3129 9.368C18.4609 9.368 17.7829 9.62 17.2789 10.124C16.7749 10.616 16.5229 11.354 16.5229 12.338V17H14.2729ZM25.9757 17.126C24.9917 17.126 24.1157 16.916 23.3477 16.496C22.5797 16.064 21.9737 15.476 21.5297 14.732C21.0857 13.988 20.8637 13.142 20.8637 12.194C20.8637 11.234 21.0857 10.388 21.5297 9.656C21.9737 8.912 22.5797 8.33 23.3477 7.91C24.1157 7.49 24.9917 7.28 25.9757 7.28C26.9717 7.28 27.8537 7.49 28.6217 7.91C29.4017 8.33 30.0077 8.906 30.4397 9.638C30.8837 10.37 31.1057 11.222 31.1057 12.194C31.1057 13.142 30.8837 13.988 30.4397 14.732C30.0077 15.476 29.4017 16.064 28.6217 16.496C27.8537 16.916 26.9717 17.126 25.9757 17.126ZM25.9757 15.2C26.5277 15.2 27.0197 15.08 27.4517 14.84C27.8837 14.6 28.2197 14.252 28.4597 13.796C28.7117 13.34 28.8377 12.806 28.8377 12.194C28.8377 11.57 28.7117 11.036 28.4597 10.592C28.2197 10.136 27.8837 9.788 27.4517 9.548C27.0197 9.308 26.5337 9.188 25.9937 9.188C25.4417 9.188 24.9497 9.308 24.5177 9.548C24.0977 9.788 23.7617 10.136 23.5097 10.592C23.2577 11.036 23.1317 11.57 23.1317 12.194C23.1317 12.806 23.2577 13.34 23.5097 13.796C23.7617 14.252 24.0977 14.6 24.5177 14.84C24.9497 15.08 25.4357 15.2 25.9757 15.2ZM37.6133 20.618C36.7253 20.618 35.8553 20.498 35.0033 20.258C34.1633 20.03 33.4733 19.694 32.9333 19.25L33.9413 17.558C34.3613 17.906 34.8893 18.182 35.5253 18.386C36.1733 18.602 36.8273 18.71 37.4873 18.71C38.5433 18.71 39.3173 18.464 39.8093 17.972C40.3013 17.492 40.5473 16.766 40.5473 15.794V14.084L40.7273 11.906L40.6553 9.728V7.388H42.7973V15.542C42.7973 17.282 42.3533 18.56 41.4653 19.376C40.5773 20.204 39.2933 20.618 37.6133 20.618ZM37.3253 16.568C36.4133 16.568 35.5853 16.376 34.8413 15.992C34.1093 15.596 33.5273 15.05 33.0953 14.354C32.6753 13.658 32.4653 12.842 32.4653 11.906C32.4653 10.982 32.6753 10.172 33.0953 9.476C33.5273 8.78 34.1093 8.24 34.8413 7.856C35.5853 7.472 36.4133 7.28 37.3253 7.28C38.1413 7.28 38.8733 7.442 39.5213 7.766C40.1693 8.09 40.6853 8.594 41.0693 9.278C41.4653 9.962 41.6633 10.838 41.6633 11.906C41.6633 12.974 41.4653 13.856 41.0693 14.552C40.6853 15.236 40.1693 15.746 39.5213 16.082C38.8733 16.406 38.1413 16.568 37.3253 16.568ZM37.6673 14.66C38.2313 14.66 38.7353 14.546 39.1793 14.318C39.6233 14.078 39.9653 13.754 40.2053 13.346C40.4573 12.926 40.5833 12.446 40.5833 11.906C40.5833 11.366 40.4573 10.892 40.2053 10.484C39.9653 10.064 39.6233 9.746 39.1793 9.53C38.7353 9.302 38.2313 9.188 37.6673 9.188C37.1033 9.188 36.5933 9.302 36.1373 9.53C35.6933 9.746 35.3453 10.064 35.0933 10.484C34.8533 10.892 34.7333 11.366 34.7333 11.906C34.7333 12.446 34.8533 12.926 35.0933 13.346C35.3453 13.754 35.6933 14.078 36.1373 14.318C36.5933 14.546 37.1033 14.66 37.6673 14.66ZM45.7553 17V7.388H47.8973V10.034L47.6453 9.26C47.9333 8.612 48.3833 8.12 48.9953 7.784C49.6193 7.448 50.3933 7.28 51.3173 7.28V9.422C51.2213 9.398 51.1313 9.386 51.0473 9.386C50.9633 9.374 50.8793 9.368 50.7953 9.368C49.9433 9.368 49.2653 9.62 48.7613 10.124C48.2573 10.616 48.0053 11.354 48.0053 12.338V17H45.7553ZM58.4625 17V15.056L58.3365 14.642V11.24C58.3365 10.58 58.1385 10.07 57.7425 9.71C57.3465 9.338 56.7465 9.152 55.9425 9.152C55.4025 9.152 54.8685 9.236 54.3405 9.404C53.8245 9.572 53.3865 9.806 53.0265 10.106L52.1445 8.468C52.6605 8.072 53.2725 7.778 53.9805 7.586C54.7005 7.382 55.4445 7.28 56.2125 7.28C57.6045 7.28 58.6785 7.616 59.4345 8.288C60.2025 8.948 60.5865 9.974 60.5865 11.366V17H58.4625ZM55.4385 17.126C54.7185 17.126 54.0885 17.006 53.5485 16.766C53.0085 16.514 52.5885 16.172 52.2885 15.74C52.0005 15.296 51.8565 14.798 51.8565 14.246C51.8565 13.706 51.9825 13.22 52.2345 12.788C52.4985 12.356 52.9245 12.014 53.5125 11.762C54.1005 11.51 54.8805 11.384 55.8525 11.384H58.6425V12.878H56.0145C55.2465 12.878 54.7305 13.004 54.4665 13.256C54.2025 13.496 54.0705 13.796 54.0705 14.156C54.0705 14.564 54.2325 14.888 54.5565 15.128C54.8805 15.368 55.3305 15.488 55.9065 15.488C56.4585 15.488 56.9505 15.362 57.3825 15.11C57.8265 14.858 58.1445 14.486 58.3365 13.994L58.7145 15.344C58.4985 15.908 58.1085 16.346 57.5445 16.658C56.9925 16.97 56.2905 17.126 55.4385 17.126ZM75.606 7.28C76.374 7.28 77.052 7.43 77.64 7.73C78.24 8.03 78.708 8.492 79.044 9.116C79.38 9.728 79.548 10.52 79.548 11.492V17H77.298V11.78C77.298 10.928 77.112 10.292 76.74 9.872C76.368 9.452 75.834 9.242 75.138 9.242C74.646 9.242 74.208 9.35 73.824 9.566C73.452 9.782 73.158 10.1 72.942 10.52C72.738 10.94 72.636 11.474 72.636 12.122V17H70.386V11.78C70.386 10.928 70.2 10.292 69.828 9.872C69.456 9.452 68.922 9.242 68.226 9.242C67.734 9.242 67.296 9.35 66.912 9.566C66.54 9.782 66.246 10.1 66.03 10.52C65.826 10.94 65.724 11.474 65.724 12.122V17H63.474V7.388H65.616V9.944L65.238 9.188C65.562 8.564 66.03 8.09 66.642 7.766C67.266 7.442 67.974 7.28 68.766 7.28C69.666 7.28 70.446 7.502 71.106 7.946C71.778 8.39 72.222 9.062 72.438 9.962L71.556 9.656C71.868 8.936 72.384 8.36 73.104 7.928C73.824 7.496 74.658 7.28 75.606 7.28ZM88.3453 17V15.056L88.2193 14.642V11.24C88.2193 10.58 88.0213 10.07 87.6253 9.71C87.2293 9.338 86.6293 9.152 85.8253 9.152C85.2853 9.152 84.7513 9.236 84.2233 9.404C83.7073 9.572 83.2693 9.806 82.9093 10.106L82.0273 8.468C82.5433 8.072 83.1553 7.778 83.8633 7.586C84.5833 7.382 85.3273 7.28 86.0953 7.28C87.4873 7.28 88.5613 7.616 89.3173 8.288C90.0853 8.948 90.4693 9.974 90.4693 11.366V17H88.3453ZM85.3213 17.126C84.6013 17.126 83.9713 17.006 83.4313 16.766C82.8913 16.514 82.4713 16.172 82.1713 15.74C81.8833 15.296 81.7393 14.798 81.7393 14.246C81.7393 13.706 81.8653 13.22 82.1173 12.788C82.3813 12.356 82.8073 12.014 83.3953 11.762C83.9833 11.51 84.7633 11.384 85.7353 11.384H88.5253V12.878H85.8973C85.1293 12.878 84.6133 13.004 84.3493 13.256C84.0853 13.496 83.9533 13.796 83.9533 14.156C83.9533 14.564 84.1153 14.888 84.4393 15.128C84.7633 15.368 85.2133 15.488 85.7893 15.488C86.3413 15.488 86.8333 15.362 87.2653 15.11C87.7093 14.858 88.0273 14.486 88.2193 13.994L88.5973 15.344C88.3813 15.908 87.9913 16.346 87.4273 16.658C86.8753 16.97 86.1733 17.126 85.3213 17.126ZM97.7844 17.126C96.7764 17.126 95.8764 16.916 95.0844 16.496C94.3044 16.064 93.6924 15.476 93.2484 14.732C92.8044 13.988 92.5824 13.142 92.5824 12.194C92.5824 11.234 92.8044 10.388 93.2484 9.656C93.6924 8.912 94.3044 8.33 95.0844 7.91C95.8764 7.49 96.7764 7.28 97.7844 7.28C98.7204 7.28 99.5424 7.472 100.25 7.856C100.97 8.228 101.516 8.78 101.888 9.512L100.16 10.52C99.8724 10.064 99.5184 9.728 99.0984 9.512C98.6904 9.296 98.2464 9.188 97.7664 9.188C97.2144 9.188 96.7164 9.308 96.2724 9.548C95.8284 9.788 95.4804 10.136 95.2284 10.592C94.9764 11.036 94.8504 11.57 94.8504 12.194C94.8504 12.818 94.9764 13.358 95.2284 13.814C95.4804 14.258 95.8284 14.6 96.2724 14.84C96.7164 15.08 97.2144 15.2 97.7664 15.2C98.2464 15.2 98.6904 15.092 99.0984 14.876C99.5184 14.66 99.8724 14.324 100.16 13.868L101.888 14.876C101.516 15.596 100.97 16.154 100.25 16.55C99.5424 16.934 98.7204 17.126 97.7844 17.126ZM96.8484 21.104C96.5244 21.104 96.2244 21.068 95.9484 20.996C95.6724 20.936 95.4204 20.846 95.1924 20.726L95.6064 19.664C95.7984 19.76 95.9904 19.832 96.1824 19.88C96.3864 19.928 96.6024 19.952 96.8304 19.952C97.1784 19.952 97.4244 19.892 97.5684 19.772C97.7124 19.652 97.7844 19.496 97.7844 19.304C97.7844 19.124 97.7064 18.98 97.5504 18.872C97.4064 18.764 97.1664 18.71 96.8304 18.71H96.2724L96.7584 16.874H97.9824L97.7304 17.882C98.2584 17.942 98.6484 18.11 98.9004 18.386C99.1644 18.674 99.2964 19.01 99.2964 19.394C99.2964 19.922 99.0744 20.336 98.6304 20.636C98.1864 20.948 97.5924 21.104 96.8484 21.104ZM109.755 17V15.056L109.629 14.642V11.24C109.629 10.58 109.431 10.07 109.035 9.71C108.639 9.338 108.039 9.152 107.235 9.152C106.695 9.152 106.161 9.236 105.633 9.404C105.117 9.572 104.679 9.806 104.319 10.106L103.437 8.468C103.953 8.072 104.565 7.778 105.273 7.586C105.993 7.382 106.737 7.28 107.505 7.28C108.897 7.28 109.971 7.616 110.727 8.288C111.495 8.948 111.879 9.974 111.879 11.366V17H109.755ZM106.731 17.126C106.011 17.126 105.381 17.006 104.841 16.766C104.301 16.514 103.881 16.172 103.581 15.74C103.293 15.296 103.149 14.798 103.149 14.246C103.149 13.706 103.275 13.22 103.527 12.788C103.791 12.356 104.217 12.014 104.805 11.762C105.393 11.51 106.173 11.384 107.145 11.384H109.935V12.878H107.307C106.539 12.878 106.023 13.004 105.759 13.256C105.495 13.496 105.363 13.796 105.363 14.156C105.363 14.564 105.525 14.888 105.849 15.128C106.173 15.368 106.623 15.488 107.199 15.488C107.751 15.488 108.243 15.362 108.675 15.11C109.119 14.858 109.437 14.486 109.629 13.994L110.007 15.344C109.791 15.908 109.401 16.346 108.837 16.658C108.285 16.97 107.583 17.126 106.731 17.126ZM108.999 6.074C108.711 6.074 108.447 6.02 108.207 5.912C107.979 5.792 107.769 5.654 107.577 5.498C107.397 5.33 107.223 5.186 107.055 5.066C106.887 4.946 106.719 4.886 106.551 4.886C106.299 4.886 106.095 4.982 105.939 5.174C105.783 5.366 105.693 5.63 105.669 5.966H104.463C104.487 5.222 104.667 4.634 105.003 4.202C105.351 3.77 105.819 3.554 106.407 3.554C106.695 3.554 106.959 3.614 107.199 3.734C107.439 3.854 107.649 3.992 107.829 4.148C108.021 4.304 108.201 4.442 108.369 4.562C108.537 4.682 108.699 4.742 108.855 4.742C109.107 4.742 109.311 4.652 109.467 4.472C109.635 4.292 109.725 4.04 109.737 3.716H110.943C110.931 4.412 110.751 4.982 110.403 5.426C110.055 5.858 109.587 6.074 108.999 6.074ZM119.105 17.126C118.121 17.126 117.245 16.916 116.477 16.496C115.709 16.064 115.103 15.476 114.659 14.732C114.215 13.988 113.993 13.142 113.993 12.194C113.993 11.234 114.215 10.388 114.659 9.656C115.103 8.912 115.709 8.33 116.477 7.91C117.245 7.49 118.121 7.28 119.105 7.28C120.101 7.28 120.983 7.49 121.751 7.91C122.531 8.33 123.137 8.906 123.569 9.638C124.013 10.37 124.235 11.222 124.235 12.194C124.235 13.142 124.013 13.988 123.569 14.732C123.137 15.476 122.531 16.064 121.751 16.496C120.983 16.916 120.101 17.126 119.105 17.126ZM119.105 15.2C119.657 15.2 120.149 15.08 120.581 14.84C121.013 14.6 121.349 14.252 121.589 13.796C121.841 13.34 121.967 12.806 121.967 12.194C121.967 11.57 121.841 11.036 121.589 10.592C121.349 10.136 121.013 9.788 120.581 9.548C120.149 9.308 119.663 9.188 119.123 9.188C118.571 9.188 118.079 9.308 117.647 9.548C117.227 9.788 116.891 10.136 116.639 10.592C116.387 11.036 116.261 11.57 116.261 12.194C116.261 12.806 116.387 13.34 116.639 13.796C116.891 14.252 117.227 14.6 117.647 14.84C118.079 15.08 118.565 15.2 119.105 15.2ZM136.689 17.126C135.909 17.126 135.195 16.946 134.547 16.586C133.911 16.226 133.401 15.686 133.017 14.966C132.645 14.234 132.459 13.31 132.459 12.194C132.459 11.066 132.639 10.142 132.999 9.422C133.371 8.702 133.875 8.168 134.511 7.82C135.147 7.46 135.873 7.28 136.689 7.28C137.637 7.28 138.471 7.484 139.191 7.892C139.923 8.3 140.499 8.87 140.919 9.602C141.351 10.334 141.567 11.198 141.567 12.194C141.567 13.19 141.351 14.06 140.919 14.804C140.499 15.536 139.923 16.106 139.191 16.514C138.471 16.922 137.637 17.126 136.689 17.126ZM131.361 20.492V7.388H133.503V9.656L133.431 12.212L133.611 14.768V20.492H131.361ZM136.437 15.2C136.977 15.2 137.457 15.08 137.877 14.84C138.309 14.6 138.651 14.252 138.903 13.796C139.155 13.34 139.281 12.806 139.281 12.194C139.281 11.57 139.155 11.036 138.903 10.592C138.651 10.136 138.309 9.788 137.877 9.548C137.457 9.308 136.977 9.188 136.437 9.188C135.897 9.188 135.411 9.308 134.979 9.548C134.547 9.788 134.205 10.136 133.953 10.592C133.701 11.036 133.575 11.57 133.575 12.194C133.575 12.806 133.701 13.34 133.953 13.796C134.205 14.252 134.547 14.6 134.979 14.84C135.411 15.08 135.897 15.2 136.437 15.2ZM149.5 17V15.056L149.374 14.642V11.24C149.374 10.58 149.176 10.07 148.78 9.71C148.384 9.338 147.784 9.152 146.98 9.152C146.44 9.152 145.906 9.236 145.378 9.404C144.862 9.572 144.424 9.806 144.064 10.106L143.182 8.468C143.698 8.072 144.31 7.778 145.018 7.586C145.738 7.382 146.482 7.28 147.25 7.28C148.642 7.28 149.716 7.616 150.472 8.288C151.24 8.948 151.624 9.974 151.624 11.366V17H149.5ZM146.476 17.126C145.756 17.126 145.126 17.006 144.586 16.766C144.046 16.514 143.626 16.172 143.326 15.74C143.038 15.296 142.894 14.798 142.894 14.246C142.894 13.706 143.02 13.22 143.272 12.788C143.536 12.356 143.962 12.014 144.55 11.762C145.138 11.51 145.918 11.384 146.89 11.384H149.68V12.878H147.052C146.284 12.878 145.768 13.004 145.504 13.256C145.24 13.496 145.108 13.796 145.108 14.156C145.108 14.564 145.27 14.888 145.594 15.128C145.918 15.368 146.368 15.488 146.944 15.488C147.496 15.488 147.988 15.362 148.42 15.11C148.864 14.858 149.182 14.486 149.374 13.994L149.752 15.344C149.536 15.908 149.146 16.346 148.582 16.658C148.03 16.97 147.328 17.126 146.476 17.126ZM154.511 17V7.388H156.653V10.034L156.401 9.26C156.689 8.612 157.139 8.12 157.751 7.784C158.375 7.448 159.149 7.28 160.073 7.28V9.422C159.977 9.398 159.887 9.386 159.803 9.386C159.719 9.374 159.635 9.368 159.551 9.368C158.699 9.368 158.021 9.62 157.517 10.124C157.013 10.616 156.761 11.354 156.761 12.338V17H154.511ZM167.218 17V15.056L167.092 14.642V11.24C167.092 10.58 166.894 10.07 166.498 9.71C166.102 9.338 165.502 9.152 164.698 9.152C164.158 9.152 163.624 9.236 163.096 9.404C162.58 9.572 162.142 9.806 161.782 10.106L160.9 8.468C161.416 8.072 162.028 7.778 162.736 7.586C163.456 7.382 164.2 7.28 164.968 7.28C166.36 7.28 167.434 7.616 168.19 8.288C168.958 8.948 169.342 9.974 169.342 11.366V17H167.218ZM164.194 17.126C163.474 17.126 162.844 17.006 162.304 16.766C161.764 16.514 161.344 16.172 161.044 15.74C160.756 15.296 160.612 14.798 160.612 14.246C160.612 13.706 160.738 13.22 160.99 12.788C161.254 12.356 161.68 12.014 162.268 11.762C162.856 11.51 163.636 11.384 164.608 11.384H167.398V12.878H164.77C164.002 12.878 163.486 13.004 163.222 13.256C162.958 13.496 162.826 13.796 162.826 14.156C162.826 14.564 162.988 14.888 163.312 15.128C163.636 15.368 164.086 15.488 164.662 15.488C165.214 15.488 165.706 15.362 166.138 15.11C166.582 14.858 166.9 14.486 167.092 13.994L167.47 15.344C167.254 15.908 166.864 16.346 166.3 16.658C165.748 16.97 165.046 17.126 164.194 17.126ZM181.273 17.126C180.349 17.126 179.515 16.922 178.771 16.514C178.039 16.094 177.463 15.518 177.043 14.786C176.623 14.054 176.413 13.19 176.413 12.194C176.413 11.198 176.623 10.334 177.043 9.602C177.463 8.87 178.039 8.3 178.771 7.892C179.515 7.484 180.349 7.28 181.273 7.28C182.077 7.28 182.797 7.46 183.433 7.82C184.069 8.168 184.573 8.702 184.945 9.422C185.317 10.142 185.503 11.066 185.503 12.194C185.503 13.31 185.323 14.234 184.963 14.966C184.603 15.686 184.105 16.226 183.469 16.586C182.833 16.946 182.101 17.126 181.273 17.126ZM181.543 15.2C182.083 15.2 182.563 15.08 182.983 14.84C183.415 14.6 183.757 14.252 184.009 13.796C184.273 13.34 184.405 12.806 184.405 12.194C184.405 11.57 184.273 11.036 184.009 10.592C183.757 10.136 183.415 9.788 182.983 9.548C182.563 9.308 182.083 9.188 181.543 9.188C181.003 9.188 180.517 9.308 180.085 9.548C179.665 9.788 179.323 10.136 179.059 10.592C178.807 11.036 178.681 11.57 178.681 12.194C178.681 12.806 178.807 13.34 179.059 13.796C179.323 14.252 179.665 14.6 180.085 14.84C180.517 15.08 181.003 15.2 181.543 15.2ZM184.459 17V14.732L184.549 12.176L184.369 9.62V3.644H186.601V17H184.459ZM189.562 17V7.388H191.812V17H189.562ZM190.696 5.804C190.276 5.804 189.928 5.672 189.652 5.408C189.388 5.144 189.256 4.826 189.256 4.454C189.256 4.07 189.388 3.752 189.652 3.5C189.928 3.236 190.276 3.104 190.696 3.104C191.116 3.104 191.458 3.23 191.722 3.482C191.998 3.722 192.136 4.028 192.136 4.4C192.136 4.796 192.004 5.132 191.74 5.408C191.476 5.672 191.128 5.804 190.696 5.804ZM197.735 17.126C196.931 17.126 196.157 17.024 195.413 16.82C194.681 16.604 194.099 16.346 193.667 16.046L194.531 14.336C194.963 14.612 195.479 14.84 196.079 15.02C196.679 15.2 197.279 15.29 197.879 15.29C198.587 15.29 199.097 15.194 199.409 15.002C199.733 14.81 199.895 14.552 199.895 14.228C199.895 13.964 199.787 13.766 199.571 13.634C199.355 13.49 199.073 13.382 198.725 13.31C198.377 13.238 197.987 13.172 197.555 13.112C197.135 13.052 196.709 12.974 196.277 12.878C195.857 12.77 195.473 12.62 195.125 12.428C194.777 12.224 194.495 11.954 194.279 11.618C194.063 11.282 193.955 10.838 193.955 10.286C193.955 9.674 194.129 9.146 194.477 8.702C194.825 8.246 195.311 7.898 195.935 7.658C196.571 7.406 197.321 7.28 198.185 7.28C198.833 7.28 199.487 7.352 200.147 7.496C200.807 7.64 201.353 7.844 201.785 8.108L200.921 9.818C200.465 9.542 200.003 9.356 199.535 9.26C199.079 9.152 198.623 9.098 198.167 9.098C197.483 9.098 196.973 9.2 196.637 9.404C196.313 9.608 196.151 9.866 196.151 10.178C196.151 10.466 196.259 10.682 196.475 10.826C196.691 10.97 196.973 11.084 197.321 11.168C197.669 11.252 198.053 11.324 198.473 11.384C198.905 11.432 199.331 11.51 199.751 11.618C200.171 11.726 200.555 11.876 200.903 12.068C201.263 12.248 201.551 12.506 201.767 12.842C201.983 13.178 202.091 13.616 202.091 14.156C202.091 14.756 201.911 15.278 201.551 15.722C201.203 16.166 200.705 16.514 200.057 16.766C199.409 17.006 198.635 17.126 197.735 17.126ZM209.357 17.126C208.577 17.126 207.863 16.946 207.215 16.586C206.579 16.226 206.069 15.686 205.685 14.966C205.313 14.234 205.127 13.31 205.127 12.194C205.127 11.066 205.307 10.142 205.667 9.422C206.039 8.702 206.543 8.168 207.179 7.82C207.815 7.46 208.541 7.28 209.357 7.28C210.305 7.28 211.139 7.484 211.859 7.892C212.591 8.3 213.167 8.87 213.587 9.602C214.019 10.334 214.235 11.198 214.235 12.194C214.235 13.19 214.019 14.06 213.587 14.804C213.167 15.536 212.591 16.106 211.859 16.514C211.139 16.922 210.305 17.126 209.357 17.126ZM204.029 20.492V7.388H206.171V9.656L206.099 12.212L206.279 14.768V20.492H204.029ZM209.105 15.2C209.645 15.2 210.125 15.08 210.545 14.84C210.977 14.6 211.319 14.252 211.571 13.796C211.823 13.34 211.949 12.806 211.949 12.194C211.949 11.57 211.823 11.036 211.571 10.592C211.319 10.136 210.977 9.788 210.545 9.548C210.125 9.308 209.645 9.188 209.105 9.188C208.565 9.188 208.079 9.308 207.647 9.548C207.215 9.788 206.873 10.136 206.621 10.592C206.369 11.036 206.243 11.57 206.243 12.194C206.243 12.806 206.369 13.34 206.621 13.796C206.873 14.252 207.215 14.6 207.647 14.84C208.079 15.08 208.565 15.2 209.105 15.2ZM220.689 17.126C219.705 17.126 218.829 16.916 218.061 16.496C217.293 16.064 216.687 15.476 216.243 14.732C215.799 13.988 215.577 13.142 215.577 12.194C215.577 11.234 215.799 10.388 216.243 9.656C216.687 8.912 217.293 8.33 218.061 7.91C218.829 7.49 219.705 7.28 220.689 7.28C221.685 7.28 222.567 7.49 223.335 7.91C224.115 8.33 224.721 8.906 225.153 9.638C225.597 10.37 225.819 11.222 225.819 12.194C225.819 13.142 225.597 13.988 225.153 14.732C224.721 15.476 224.115 16.064 223.335 16.496C222.567 16.916 221.685 17.126 220.689 17.126ZM220.689 15.2C221.241 15.2 221.733 15.08 222.165 14.84C222.597 14.6 222.933 14.252 223.173 13.796C223.425 13.34 223.551 12.806 223.551 12.194C223.551 11.57 223.425 11.036 223.173 10.592C222.933 10.136 222.597 9.788 222.165 9.548C221.733 9.308 221.247 9.188 220.707 9.188C220.155 9.188 219.663 9.308 219.231 9.548C218.811 9.788 218.475 10.136 218.223 10.592C217.971 11.036 217.845 11.57 217.845 12.194C217.845 12.806 217.971 13.34 218.223 13.796C218.475 14.252 218.811 14.6 219.231 14.84C219.663 15.08 220.149 15.2 220.689 15.2ZM230.94 17.126C230.136 17.126 229.362 17.024 228.618 16.82C227.886 16.604 227.304 16.346 226.872 16.046L227.736 14.336C228.168 14.612 228.684 14.84 229.284 15.02C229.884 15.2 230.484 15.29 231.084 15.29C231.792 15.29 232.302 15.194 232.614 15.002C232.938 14.81 233.1 14.552 233.1 14.228C233.1 13.964 232.992 13.766 232.776 13.634C232.56 13.49 232.278 13.382 231.93 13.31C231.582 13.238 231.192 13.172 230.76 13.112C230.34 13.052 229.914 12.974 229.482 12.878C229.062 12.77 228.678 12.62 228.33 12.428C227.982 12.224 227.7 11.954 227.484 11.618C227.268 11.282 227.16 10.838 227.16 10.286C227.16 9.674 227.334 9.146 227.682 8.702C228.03 8.246 228.516 7.898 229.14 7.658C229.776 7.406 230.526 7.28 231.39 7.28C232.038 7.28 232.692 7.352 233.352 7.496C234.012 7.64 234.558 7.844 234.99 8.108L234.126 9.818C233.67 9.542 233.208 9.356 232.74 9.26C232.284 9.152 231.828 9.098 231.372 9.098C230.688 9.098 230.178 9.2 229.842 9.404C229.518 9.608 229.356 9.866 229.356 10.178C229.356 10.466 229.464 10.682 229.68 10.826C229.896 10.97 230.178 11.084 230.526 11.168C230.874 11.252 231.258 11.324 231.678 11.384C232.11 11.432 232.536 11.51 232.956 11.618C233.376 11.726 233.76 11.876 234.108 12.068C234.468 12.248 234.756 12.506 234.972 12.842C235.188 13.178 235.296 13.616 235.296 14.156C235.296 14.756 235.116 15.278 234.756 15.722C234.408 16.166 233.91 16.514 233.262 16.766C232.614 17.006 231.84 17.126 230.94 17.126ZM237.234 17V7.388H239.484V17H237.234ZM238.368 5.804C237.948 5.804 237.6 5.672 237.324 5.408C237.06 5.144 236.928 4.826 236.928 4.454C236.928 4.07 237.06 3.752 237.324 3.5C237.6 3.236 237.948 3.104 238.368 3.104C238.788 3.104 239.13 3.23 239.394 3.482C239.67 3.722 239.808 4.028 239.808 4.4C239.808 4.796 239.676 5.132 239.412 5.408C239.148 5.672 238.8 5.804 238.368 5.804ZM246.055 17.126C244.999 17.126 244.183 16.856 243.607 16.316C243.031 15.764 242.743 14.954 242.743 13.886V5.264H244.993V13.832C244.993 14.288 245.107 14.642 245.335 14.894C245.575 15.146 245.905 15.272 246.325 15.272C246.829 15.272 247.249 15.14 247.585 14.876L248.215 16.478C247.951 16.694 247.627 16.856 247.243 16.964C246.859 17.072 246.463 17.126 246.055 17.126ZM241.159 9.26V7.46H247.567V9.26H241.159ZM250.066 17V7.388H252.316V17H250.066ZM251.2 5.804C250.78 5.804 250.432 5.672 250.156 5.408C249.892 5.144 249.76 4.826 249.76 4.454C249.76 4.07 249.892 3.752 250.156 3.5C250.432 3.236 250.78 3.104 251.2 3.104C251.62 3.104 251.962 3.23 252.226 3.482C252.502 3.722 252.64 4.028 252.64 4.4C252.64 4.796 252.508 5.132 252.244 5.408C251.98 5.672 251.632 5.804 251.2 5.804ZM257.825 17L253.703 7.388H256.043L259.589 15.866H258.437L262.109 7.388H264.269L260.147 17H257.825ZM269.732 17.126C268.748 17.126 267.872 16.916 267.104 16.496C266.336 16.064 265.73 15.476 265.286 14.732C264.842 13.988 264.62 13.142 264.62 12.194C264.62 11.234 264.842 10.388 265.286 9.656C265.73 8.912 266.336 8.33 267.104 7.91C267.872 7.49 268.748 7.28 269.732 7.28C270.728 7.28 271.61 7.49 272.378 7.91C273.158 8.33 273.764 8.906 274.196 9.638C274.64 10.37 274.862 11.222 274.862 12.194C274.862 13.142 274.64 13.988 274.196 14.732C273.764 15.476 273.158 16.064 272.378 16.496C271.61 16.916 270.728 17.126 269.732 17.126ZM269.732 15.2C270.284 15.2 270.776 15.08 271.208 14.84C271.64 14.6 271.976 14.252 272.216 13.796C272.468 13.34 272.594 12.806 272.594 12.194C272.594 11.57 272.468 11.036 272.216 10.592C271.976 10.136 271.64 9.788 271.208 9.548C270.776 9.308 270.29 9.188 269.75 9.188C269.198 9.188 268.706 9.308 268.274 9.548C267.854 9.788 267.518 10.136 267.266 10.592C267.014 11.036 266.888 11.57 266.888 12.194C266.888 12.806 267.014 13.34 267.266 13.796C267.518 14.252 267.854 14.6 268.274 14.84C268.706 15.08 269.192 15.2 269.732 15.2ZM279.983 17.126C279.179 17.126 278.405 17.024 277.661 16.82C276.929 16.604 276.347 16.346 275.915 16.046L276.779 14.336C277.211 14.612 277.727 14.84 278.327 15.02C278.927 15.2 279.527 15.29 280.127 15.29C280.835 15.29 281.345 15.194 281.657 15.002C281.981 14.81 282.143 14.552 282.143 14.228C282.143 13.964 282.035 13.766 281.819 13.634C281.603 13.49 281.321 13.382 280.973 13.31C280.625 13.238 280.235 13.172 279.803 13.112C279.383 13.052 278.957 12.974 278.525 12.878C278.105 12.77 277.721 12.62 277.373 12.428C277.025 12.224 276.743 11.954 276.527 11.618C276.311 11.282 276.203 10.838 276.203 10.286C276.203 9.674 276.377 9.146 276.725 8.702C277.073 8.246 277.559 7.898 278.183 7.658C278.819 7.406 279.569 7.28 280.433 7.28C281.081 7.28 281.735 7.352 282.395 7.496C283.055 7.64 283.601 7.844 284.033 8.108L283.169 9.818C282.713 9.542 282.251 9.356 281.783 9.26C281.327 9.152 280.871 9.098 280.415 9.098C279.731 9.098 279.221 9.2 278.885 9.404C278.561 9.608 278.399 9.866 278.399 10.178C278.399 10.466 278.507 10.682 278.723 10.826C278.939 10.97 279.221 11.084 279.569 11.168C279.917 11.252 280.301 11.324 280.721 11.384C281.153 11.432 281.579 11.51 281.999 11.618C282.419 11.726 282.803 11.876 283.151 12.068C283.511 12.248 283.799 12.506 284.015 12.842C284.231 13.178 284.339 13.616 284.339 14.156C284.339 14.756 284.159 15.278 283.799 15.722C283.451 16.166 282.953 16.514 282.305 16.766C281.657 17.006 280.883 17.126 279.983 17.126ZM13.608 29.28C14.376 29.28 15.054 29.43 15.642 29.73C16.242 30.03 16.71 30.492 17.046 31.116C17.382 31.728 17.55 32.52 17.55 33.492V39H15.3V33.78C15.3 32.928 15.114 32.292 14.742 31.872C14.37 31.452 13.836 31.242 13.14 31.242C12.648 31.242 12.21 31.35 11.826 31.566C11.454 31.782 11.16 32.1 10.944 32.52C10.74 32.94 10.638 33.474 10.638 34.122V39H8.388V33.78C8.388 32.928 8.202 32.292 7.83 31.872C7.458 31.452 6.924 31.242 6.228 31.242C5.736 31.242 5.298 31.35 4.914 31.566C4.542 31.782 4.248 32.1 4.032 32.52C3.828 32.94 3.726 33.474 3.726 34.122V39H1.476V29.388H3.618V31.944L3.24 31.188C3.564 30.564 4.032 30.09 4.644 29.766C5.268 29.442 5.976 29.28 6.768 29.28C7.668 29.28 8.448 29.502 9.108 29.946C9.78 30.39 10.224 31.062 10.44 31.962L9.558 31.656C9.87 30.936 10.386 30.36 11.106 29.928C11.826 29.496 12.66 29.28 13.608 29.28ZM24.7628 39.126C23.7788 39.126 22.9028 38.916 22.1348 38.496C21.3668 38.064 20.7608 37.476 20.3168 36.732C19.8728 35.988 19.6508 35.142 19.6508 34.194C19.6508 33.234 19.8728 32.388 20.3168 31.656C20.7608 30.912 21.3668 30.33 22.1348 29.91C22.9028 29.49 23.7788 29.28 24.7628 29.28C25.7588 29.28 26.6408 29.49 27.4088 29.91C28.1888 30.33 28.7948 30.906 29.2268 31.638C29.6708 32.37 29.8928 33.222 29.8928 34.194C29.8928 35.142 29.6708 35.988 29.2268 36.732C28.7948 37.476 28.1888 38.064 27.4088 38.496C26.6408 38.916 25.7588 39.126 24.7628 39.126ZM24.7628 37.2C25.3148 37.2 25.8068 37.08 26.2388 36.84C26.6708 36.6 27.0068 36.252 27.2468 35.796C27.4988 35.34 27.6248 34.806 27.6248 34.194C27.6248 33.57 27.4988 33.036 27.2468 32.592C27.0068 32.136 26.6708 31.788 26.2388 31.548C25.8068 31.308 25.3208 31.188 24.7808 31.188C24.2288 31.188 23.7368 31.308 23.3048 31.548C22.8848 31.788 22.5488 32.136 22.2968 32.592C22.0448 33.036 21.9188 33.57 21.9188 34.194C21.9188 34.806 22.0448 35.34 22.2968 35.796C22.5488 36.252 22.8848 36.6 23.3048 36.84C23.7368 37.08 24.2228 37.2 24.7628 37.2ZM23.2328 28.074L25.6628 25.608H28.3088L25.1768 28.074H23.2328ZM34.3367 39L30.2147 29.388H32.5547L36.1007 37.866H34.9487L38.6207 29.388H40.7807L36.6587 39H34.3367ZM46.4413 39.126C45.3733 39.126 44.4373 38.916 43.6333 38.496C42.8413 38.064 42.2233 37.476 41.7793 36.732C41.3473 35.988 41.1313 35.142 41.1313 34.194C41.1313 33.234 41.3413 32.388 41.7613 31.656C42.1933 30.912 42.7813 30.33 43.5253 29.91C44.2813 29.49 45.1393 29.28 46.0993 29.28C47.0353 29.28 47.8693 29.484 48.6013 29.892C49.3333 30.3 49.9093 30.876 50.3293 31.62C50.7493 32.364 50.9593 33.24 50.9593 34.248C50.9593 34.344 50.9533 34.452 50.9413 34.572C50.9413 34.692 50.9353 34.806 50.9233 34.914H42.9133V33.42H49.7353L48.8533 33.888C48.8653 33.336 48.7513 32.85 48.5113 32.43C48.2713 32.01 47.9413 31.68 47.5213 31.44C47.1133 31.2 46.6393 31.08 46.0993 31.08C45.5473 31.08 45.0613 31.2 44.6413 31.44C44.2333 31.68 43.9093 32.016 43.6693 32.448C43.4413 32.868 43.3273 33.366 43.3273 33.942V34.302C43.3273 34.878 43.4593 35.388 43.7233 35.832C43.9873 36.276 44.3593 36.618 44.8393 36.858C45.3193 37.098 45.8713 37.218 46.4953 37.218C47.0353 37.218 47.5213 37.134 47.9533 36.966C48.3853 36.798 48.7693 36.534 49.1053 36.174L50.3113 37.56C49.8793 38.064 49.3333 38.454 48.6733 38.73C48.0253 38.994 47.2813 39.126 46.4413 39.126ZM53.1205 39V29.388H55.3705V39H53.1205ZM54.2545 27.804C53.8345 27.804 53.4865 27.672 53.2105 27.408C52.9465 27.144 52.8145 26.826 52.8145 26.454C52.8145 26.07 52.9465 25.752 53.2105 25.5C53.4865 25.236 53.8345 25.104 54.2545 25.104C54.6745 25.104 55.0165 25.23 55.2805 25.482C55.5565 25.722 55.6945 26.028 55.6945 26.4C55.6945 26.796 55.5625 27.132 55.2985 27.408C55.0345 27.672 54.6865 27.804 54.2545 27.804ZM61.2937 39.126C60.4897 39.126 59.7157 39.024 58.9717 38.82C58.2397 38.604 57.6577 38.346 57.2257 38.046L58.0897 36.336C58.5217 36.612 59.0377 36.84 59.6377 37.02C60.2377 37.2 60.8377 37.29 61.4377 37.29C62.1457 37.29 62.6557 37.194 62.9677 37.002C63.2917 36.81 63.4537 36.552 63.4537 36.228C63.4537 35.964 63.3457 35.766 63.1297 35.634C62.9137 35.49 62.6317 35.382 62.2837 35.31C61.9357 35.238 61.5457 35.172 61.1137 35.112C60.6937 35.052 60.2677 34.974 59.8357 34.878C59.4157 34.77 59.0317 34.62 58.6837 34.428C58.3357 34.224 58.0537 33.954 57.8377 33.618C57.6217 33.282 57.5137 32.838 57.5137 32.286C57.5137 31.674 57.6877 31.146 58.0357 30.702C58.3837 30.246 58.8697 29.898 59.4937 29.658C60.1297 29.406 60.8797 29.28 61.7437 29.28C62.3917 29.28 63.0457 29.352 63.7057 29.496C64.3657 29.64 64.9117 29.844 65.3437 30.108L64.4797 31.818C64.0237 31.542 63.5617 31.356 63.0937 31.26C62.6377 31.152 62.1817 31.098 61.7257 31.098C61.0417 31.098 60.5317 31.2 60.1957 31.404C59.8717 31.608 59.7097 31.866 59.7097 32.178C59.7097 32.466 59.8177 32.682 60.0337 32.826C60.2497 32.97 60.5317 33.084 60.8797 33.168C61.2277 33.252 61.6117 33.324 62.0317 33.384C62.4637 33.432 62.8897 33.51 63.3097 33.618C63.7297 33.726 64.1137 33.876 64.4617 34.068C64.8217 34.248 65.1097 34.506 65.3257 34.842C65.5417 35.178 65.6497 35.616 65.6497 36.156C65.6497 36.756 65.4697 37.278 65.1097 37.722C64.7617 38.166 64.2637 38.514 63.6157 38.766C62.9677 39.006 62.1937 39.126 61.2937 39.126Z" fill="#709BEF"/>
<path d="M19.984 76L25.056 64.8H26.64L31.728 76H30.048L25.52 65.696H26.16L21.632 76H19.984ZM22.144 73.2L22.576 71.92H28.88L29.344 73.2H22.144ZM36.0086 76.096C35.1553 76.096 34.494 75.8667 34.0246 75.408C33.5553 74.9493 33.3206 74.2933 33.3206 73.44V65.664H34.8566V73.376C34.8566 73.8347 34.9686 74.1867 35.1926 74.432C35.4273 74.6773 35.758 74.8 36.1846 74.8C36.6646 74.8 37.0646 74.6667 37.3846 74.4L37.8646 75.504C37.63 75.7067 37.3473 75.856 37.0166 75.952C36.6966 76.048 36.3606 76.096 36.0086 76.096ZM31.8806 68.784V67.52H37.2886V68.784H31.8806ZM39.7216 76V67.52H41.2576V76H39.7216ZM40.4896 65.888C40.191 65.888 39.9403 65.792 39.7376 65.6C39.5456 65.408 39.4496 65.1733 39.4496 64.896C39.4496 64.608 39.5456 64.368 39.7376 64.176C39.9403 63.984 40.191 63.888 40.4896 63.888C40.7883 63.888 41.0336 63.984 41.2256 64.176C41.4283 64.3573 41.5296 64.5867 41.5296 64.864C41.5296 65.152 41.4336 65.3973 41.2416 65.6C41.0496 65.792 40.799 65.888 40.4896 65.888ZM46.4144 76L42.7024 67.52H44.3024L47.5984 75.2H46.8304L50.1904 67.52H51.6944L47.9824 76H46.4144ZM53.1279 76V67.52H54.6639V76H53.1279ZM53.8959 65.888C53.5972 65.888 53.3465 65.792 53.1439 65.6C52.9519 65.408 52.8559 65.1733 52.8559 64.896C52.8559 64.608 52.9519 64.368 53.1439 64.176C53.3465 63.984 53.5972 63.888 53.8959 63.888C54.1945 63.888 54.4399 63.984 54.6319 64.176C54.8345 64.3573 54.9359 64.5867 54.9359 64.864C54.9359 65.152 54.8399 65.3973 54.6479 65.6C54.4559 65.792 54.2052 65.888 53.8959 65.888ZM61.1006 76.096C60.2793 76.096 59.5433 75.9147 58.8926 75.552C58.2526 75.1893 57.746 74.6827 57.3726 74.032C56.9993 73.3813 56.8126 72.624 56.8126 71.76C56.8126 70.896 56.9993 70.144 57.3726 69.504C57.746 68.8533 58.2526 68.3467 58.8926 67.984C59.5433 67.6213 60.2793 67.44 61.1006 67.44C61.8153 67.44 62.4606 67.6 63.0366 67.92C63.6126 68.24 64.0713 68.72 64.4126 69.36C64.7646 70 64.9406 70.8 64.9406 71.76C64.9406 72.72 64.77 73.52 64.4286 74.16C64.098 74.8 63.6446 75.2853 63.0686 75.616C62.4926 75.936 61.8366 76.096 61.1006 76.096ZM61.2286 74.752C61.762 74.752 62.242 74.6293 62.6686 74.384C63.106 74.1387 63.4473 73.792 63.6926 73.344C63.9486 72.8853 64.0766 72.3573 64.0766 71.76C64.0766 71.152 63.9486 70.6293 63.6926 70.192C63.4473 69.744 63.106 69.3973 62.6686 69.152C62.242 68.9067 61.762 68.784 61.2286 68.784C60.6846 68.784 60.1993 68.9067 59.7726 69.152C59.346 69.3973 59.0046 69.744 58.7486 70.192C58.4926 70.6293 58.3646 71.152 58.3646 71.76C58.3646 72.3573 58.4926 72.8853 58.7486 73.344C59.0046 73.792 59.346 74.1387 59.7726 74.384C60.1993 74.6293 60.6846 74.752 61.2286 74.752ZM64.1246 76V73.712L64.2206 71.744L64.0606 69.776V64.128H65.5966V76H64.1246ZM73.7669 76V74.208L73.6869 73.872V70.816C73.6869 70.1653 73.4949 69.664 73.1109 69.312C72.7375 68.9493 72.1722 68.768 71.4149 68.768C70.9135 68.768 70.4229 68.8533 69.9429 69.024C69.4629 69.184 69.0575 69.4027 68.7269 69.68L68.0869 68.528C68.5242 68.176 69.0469 67.9093 69.6549 67.728C70.2735 67.536 70.9189 67.44 71.5909 67.44C72.7535 67.44 73.6495 67.7227 74.2789 68.288C74.9082 68.8533 75.2229 69.7173 75.2229 70.88V76H73.7669ZM70.9829 76.096C70.3535 76.096 69.7989 75.9893 69.3189 75.776C68.8495 75.5627 68.4869 75.2693 68.2309 74.896C67.9749 74.512 67.8469 74.08 67.8469 73.6C67.8469 73.1413 67.9535 72.7253 68.1669 72.352C68.3909 71.9787 68.7482 71.68 69.2389 71.456C69.7402 71.232 70.4122 71.12 71.2549 71.12H73.9429V72.224H71.3189C70.5509 72.224 70.0335 72.352 69.7669 72.608C69.5002 72.864 69.3669 73.1733 69.3669 73.536C69.3669 73.952 69.5322 74.288 69.8629 74.544C70.1935 74.7893 70.6522 74.912 71.2389 74.912C71.8149 74.912 72.3162 74.784 72.7429 74.528C73.1802 74.272 73.4949 73.8987 73.6869 73.408L73.9909 74.464C73.7882 74.9653 73.4309 75.3653 72.9189 75.664C72.4069 75.952 71.7615 76.096 70.9829 76.096ZM81.5694 76.096C80.748 76.096 80.012 75.9147 79.3614 75.552C78.7214 75.1893 78.2147 74.6827 77.8414 74.032C77.468 73.3813 77.2814 72.624 77.2814 71.76C77.2814 70.896 77.468 70.144 77.8414 69.504C78.2147 68.8533 78.7214 68.3467 79.3614 67.984C80.012 67.6213 80.748 67.44 81.5694 67.44C82.284 67.44 82.9294 67.6 83.5054 67.92C84.0814 68.24 84.54 68.72 84.8814 69.36C85.2334 70 85.4094 70.8 85.4094 71.76C85.4094 72.72 85.2387 73.52 84.8974 74.16C84.5667 74.8 84.1134 75.2853 83.5374 75.616C82.9614 75.936 82.3054 76.096 81.5694 76.096ZM81.6974 74.752C82.2307 74.752 82.7107 74.6293 83.1374 74.384C83.5747 74.1387 83.916 73.792 84.1614 73.344C84.4174 72.8853 84.5454 72.3573 84.5454 71.76C84.5454 71.152 84.4174 70.6293 84.1614 70.192C83.916 69.744 83.5747 69.3973 83.1374 69.152C82.7107 68.9067 82.2307 68.784 81.6974 68.784C81.1534 68.784 80.668 68.9067 80.2414 69.152C79.8147 69.3973 79.4734 69.744 79.2174 70.192C78.9614 70.6293 78.8334 71.152 78.8334 71.76C78.8334 72.3573 78.9614 72.8853 79.2174 73.344C79.4734 73.792 79.8147 74.1387 80.2414 74.384C80.668 74.6293 81.1534 74.752 81.6974 74.752ZM84.5934 76V73.712L84.6894 71.744L84.5294 69.776V64.128H86.0654V76H84.5934ZM92.7476 76.096C91.841 76.096 91.041 75.9093 90.3476 75.536C89.665 75.1627 89.1316 74.6507 88.7476 74C88.3743 73.3493 88.1876 72.6027 88.1876 71.76C88.1876 70.9173 88.369 70.1707 88.7316 69.52C89.105 68.8693 89.6116 68.3627 90.2516 68C90.9023 67.6267 91.633 67.44 92.4436 67.44C93.265 67.44 93.9903 67.6213 94.6196 67.984C95.249 68.3467 95.7396 68.8587 96.0916 69.52C96.4543 70.1707 96.6356 70.9333 96.6356 71.808C96.6356 71.872 96.6303 71.9467 96.6196 72.032C96.6196 72.1173 96.6143 72.1973 96.6036 72.272H89.3876V71.168H95.8036L95.1796 71.552C95.1903 71.008 95.0783 70.5227 94.8436 70.096C94.609 69.6693 94.2836 69.3387 93.8676 69.104C93.4623 68.8587 92.9876 68.736 92.4436 68.736C91.9103 68.736 91.4356 68.8587 91.0196 69.104C90.6036 69.3387 90.2783 69.6747 90.0436 70.112C89.809 70.5387 89.6916 71.0293 89.6916 71.584V71.84C89.6916 72.4053 89.8196 72.912 90.0756 73.36C90.3423 73.7973 90.7103 74.1387 91.1796 74.384C91.649 74.6293 92.1876 74.752 92.7956 74.752C93.297 74.752 93.7503 74.6667 94.1556 74.496C94.5716 74.3253 94.9343 74.0693 95.2436 73.728L96.0916 74.72C95.7076 75.168 95.2276 75.5093 94.6516 75.744C94.0863 75.9787 93.4516 76.096 92.7476 76.096ZM101.201 76.096C100.497 76.096 99.8245 76 99.1845 75.808C98.5552 75.616 98.0592 75.3813 97.6965 75.104L98.3365 73.888C98.6992 74.1333 99.1472 74.3413 99.6805 74.512C100.214 74.6827 100.758 74.768 101.312 74.768C102.027 74.768 102.539 74.6667 102.849 74.464C103.169 74.2613 103.329 73.9787 103.329 73.616C103.329 73.3493 103.233 73.1413 103.041 72.992C102.849 72.8427 102.593 72.7307 102.273 72.656C101.963 72.5813 101.617 72.5173 101.233 72.464C100.849 72.4 100.465 72.3253 100.081 72.24C99.6965 72.144 99.3445 72.016 99.0245 71.856C98.7045 71.6853 98.4485 71.456 98.2565 71.168C98.0645 70.8693 97.9685 70.4747 97.9685 69.984C97.9685 69.472 98.1125 69.024 98.4005 68.64C98.6885 68.256 99.0938 67.9627 99.6165 67.76C100.15 67.5467 100.779 67.44 101.505 67.44C102.059 67.44 102.619 67.5093 103.185 67.648C103.761 67.776 104.23 67.9627 104.593 68.208L103.937 69.424C103.553 69.168 103.153 68.992 102.737 68.896C102.321 68.8 101.905 68.752 101.489 68.752C100.817 68.752 100.315 68.864 99.9845 69.088C99.6538 69.3013 99.4885 69.5787 99.4885 69.92C99.4885 70.208 99.5845 70.432 99.7765 70.592C99.9792 70.7413 100.235 70.8587 100.545 70.944C100.865 71.0293 101.217 71.104 101.601 71.168C101.985 71.2213 102.369 71.296 102.753 71.392C103.137 71.4773 103.483 71.6 103.793 71.76C104.113 71.92 104.369 72.144 104.561 72.432C104.763 72.72 104.865 73.104 104.865 73.584C104.865 74.096 104.715 74.5387 104.417 74.912C104.118 75.2853 103.697 75.5787 103.153 75.792C102.609 75.9947 101.958 76.096 101.201 76.096ZM112.281 76V65.44L112.969 66.192H109.753V64.8H113.865V76H112.281ZM19.984 103L25.056 91.8H26.64L31.728 103H30.048L25.52 92.696H26.16L21.632 103H19.984ZM22.144 100.2L22.576 98.92H28.88L29.344 100.2H22.144ZM34.9613 103L31.2492 94.52H32.8493L36.1453 102.2H35.3773L38.7373 94.52H40.2413L36.5293 103H34.9613ZM46.6731 103V101.208L46.5931 100.872V97.816C46.5931 97.1653 46.4011 96.664 46.0171 96.312C45.6438 95.9493 45.0785 95.768 44.3211 95.768C43.8198 95.768 43.3291 95.8533 42.8491 96.024C42.3691 96.184 41.9638 96.4027 41.6331 96.68L40.9931 95.528C41.4305 95.176 41.9531 94.9093 42.5611 94.728C43.1798 94.536 43.8251 94.44 44.4971 94.44C45.6598 94.44 46.5558 94.7227 47.1851 95.288C47.8145 95.8533 48.1291 96.7173 48.1291 97.88V103H46.6731ZM43.8891 103.096C43.2598 103.096 42.7051 102.989 42.2251 102.776C41.7558 102.563 41.3931 102.269 41.1371 101.896C40.8811 101.512 40.7531 101.08 40.7531 100.6C40.7531 100.141 40.8598 99.7253 41.0731 99.352C41.2971 98.9787 41.6545 98.68 42.1451 98.456C42.6465 98.232 43.3185 98.12 44.1611 98.12H46.8491V99.224H44.2251C43.4571 99.224 42.9398 99.352 42.6731 99.608C42.4065 99.864 42.2731 100.173 42.2731 100.536C42.2731 100.952 42.4385 101.288 42.7691 101.544C43.0998 101.789 43.5585 101.912 44.1451 101.912C44.7211 101.912 45.2225 101.784 45.6491 101.528C46.0865 101.272 46.4011 100.899 46.5931 100.408L46.8971 101.464C46.6945 101.965 46.3371 102.365 45.8251 102.664C45.3131 102.952 44.6678 103.096 43.8891 103.096ZM50.9716 103V91.128H52.5076V103H50.9716ZM55.4404 103V94.52H56.9764V103H55.4404ZM56.2084 92.888C55.9097 92.888 55.659 92.792 55.4564 92.6C55.2644 92.408 55.1684 92.1733 55.1684 91.896C55.1684 91.608 55.2644 91.368 55.4564 91.176C55.659 90.984 55.9097 90.888 56.2084 90.888C56.507 90.888 56.7524 90.984 56.9444 91.176C57.147 91.3573 57.2484 91.5867 57.2484 91.864C57.2484 92.152 57.1524 92.3973 56.9604 92.6C56.7684 92.792 56.5177 92.888 56.2084 92.888ZM65.1731 103V101.208L65.0931 100.872V97.816C65.0931 97.1653 64.9011 96.664 64.5171 96.312C64.1438 95.9493 63.5785 95.768 62.8211 95.768C62.3198 95.768 61.8291 95.8533 61.3491 96.024C60.8691 96.184 60.4638 96.4027 60.1331 96.68L59.4931 95.528C59.9305 95.176 60.4531 94.9093 61.0611 94.728C61.6798 94.536 62.3251 94.44 62.9971 94.44C64.1598 94.44 65.0558 94.7227 65.6851 95.288C66.3145 95.8533 66.6291 96.7173 66.6291 97.88V103H65.1731ZM62.3891 103.096C61.7598 103.096 61.2051 102.989 60.7251 102.776C60.2558 102.563 59.8931 102.269 59.6371 101.896C59.3811 101.512 59.2531 101.08 59.2531 100.6C59.2531 100.141 59.3598 99.7253 59.5731 99.352C59.7971 98.9787 60.1545 98.68 60.6451 98.456C61.1465 98.232 61.8185 98.12 62.6611 98.12H65.3491V99.224H62.7251C61.9571 99.224 61.4398 99.352 61.1731 99.608C60.9065 99.864 60.7731 100.173 60.7731 100.536C60.7731 100.952 60.9385 101.288 61.2691 101.544C61.5998 101.789 62.0585 101.912 62.6451 101.912C63.2211 101.912 63.7225 101.784 64.1491 101.528C64.5865 101.272 64.9011 100.899 65.0931 100.408L65.3971 101.464C65.1945 101.965 64.8371 102.365 64.3251 102.664C63.8131 102.952 63.1678 103.096 62.3891 103.096ZM73.1676 103.096C72.3036 103.096 71.5303 102.909 70.8476 102.536C70.1756 102.163 69.6476 101.651 69.2636 101C68.8796 100.349 68.6876 99.6027 68.6876 98.76C68.6876 97.9173 68.8796 97.1707 69.2636 96.52C69.6476 95.8693 70.1756 95.3627 70.8476 95C71.5303 94.6267 72.3036 94.44 73.1676 94.44C73.9356 94.44 74.6183 94.5947 75.2156 94.904C75.8236 95.2027 76.293 95.6507 76.6236 96.248L75.4556 97C75.1783 96.584 74.837 96.28 74.4316 96.088C74.037 95.8853 73.6103 95.784 73.1516 95.784C72.597 95.784 72.101 95.9067 71.6636 96.152C71.2263 96.3973 70.8796 96.744 70.6236 97.192C70.3676 97.6293 70.2396 98.152 70.2396 98.76C70.2396 99.368 70.3676 99.896 70.6236 100.344C70.8796 100.792 71.2263 101.139 71.6636 101.384C72.101 101.629 72.597 101.752 73.1516 101.752C73.6103 101.752 74.037 101.656 74.4316 101.464C74.837 101.261 75.1783 100.952 75.4556 100.536L76.6236 101.272C76.293 101.859 75.8236 102.312 75.2156 102.632C74.6183 102.941 73.9356 103.096 73.1676 103.096ZM72.4156 106.584C72.1383 106.584 71.8823 106.552 71.6476 106.488C71.413 106.435 71.1943 106.349 70.9916 106.232L71.3276 105.448C71.4983 105.544 71.669 105.613 71.8396 105.656C72.021 105.699 72.213 105.72 72.4156 105.72C72.725 105.72 72.949 105.661 73.0876 105.544C73.237 105.437 73.3116 105.283 73.3116 105.08C73.3116 104.888 73.237 104.733 73.0876 104.616C72.949 104.509 72.7196 104.456 72.3996 104.456H71.9676L72.3676 102.888H73.2476L73.0076 103.8C73.4663 103.843 73.813 103.987 74.0476 104.232C74.2823 104.477 74.3996 104.776 74.3996 105.128C74.3996 105.576 74.2183 105.928 73.8556 106.184C73.493 106.451 73.013 106.584 72.4156 106.584ZM83.8763 103V101.208L83.7963 100.872V97.816C83.7963 97.1653 83.6043 96.664 83.2203 96.312C82.8469 95.9493 82.2816 95.768 81.5243 95.768C81.0229 95.768 80.5323 95.8533 80.0523 96.024C79.5723 96.184 79.1669 96.4027 78.8363 96.68L78.1963 95.528C78.6336 95.176 79.1563 94.9093 79.7643 94.728C80.3829 94.536 81.0283 94.44 81.7003 94.44C82.8629 94.44 83.7589 94.7227 84.3883 95.288C85.0176 95.8533 85.3323 96.7173 85.3323 97.88V103H83.8763ZM81.0923 103.096C80.4629 103.096 79.9083 102.989 79.4283 102.776C78.9589 102.563 78.5963 102.269 78.3403 101.896C78.0843 101.512 77.9563 101.08 77.9563 100.6C77.9563 100.141 78.0629 99.7253 78.2763 99.352C78.5003 98.9787 78.8576 98.68 79.3483 98.456C79.8496 98.232 80.5216 98.12 81.3643 98.12H84.0523V99.224H81.4283C80.6603 99.224 80.1429 99.352 79.8763 99.608C79.6096 99.864 79.4763 100.173 79.4763 100.536C79.4763 100.952 79.6416 101.288 79.9723 101.544C80.3029 101.789 80.7616 101.912 81.3483 101.912C81.9243 101.912 82.4256 101.784 82.8523 101.528C83.2896 101.272 83.6043 100.899 83.7963 100.408L84.1003 101.464C83.8976 101.965 83.5403 102.365 83.0283 102.664C82.5163 102.952 81.8709 103.096 81.0923 103.096ZM82.9323 93.24C82.6763 93.24 82.4469 93.1867 82.2443 93.08C82.0523 92.9733 81.8763 92.8507 81.7163 92.712C81.5563 92.5627 81.4016 92.4347 81.2523 92.328C81.1029 92.2213 80.9536 92.168 80.8043 92.168C80.5696 92.168 80.3776 92.2587 80.2283 92.44C80.0896 92.6107 80.0096 92.8507 79.9883 93.16H79.1243C79.1456 92.5627 79.2949 92.088 79.5723 91.736C79.8496 91.384 80.2229 91.208 80.6923 91.208C80.9483 91.208 81.1776 91.2667 81.3802 91.384C81.5829 91.4907 81.7643 91.6187 81.9243 91.768C82.0843 91.9067 82.2336 92.0293 82.3723 92.136C82.5216 92.2427 82.6709 92.296 82.8203 92.296C83.0549 92.296 83.2469 92.2107 83.3963 92.04C83.5456 91.8693 83.6256 91.6347 83.6363 91.336H84.5003C84.4896 91.9013 84.3403 92.36 84.0523 92.712C83.7749 93.064 83.4016 93.24 82.9323 93.24ZM91.8068 103.096C90.9534 103.096 90.1961 102.909 89.5348 102.536C88.8734 102.163 88.3508 101.651 87.9668 101C87.5828 100.339 87.3908 99.592 87.3908 98.76C87.3908 97.9173 87.5828 97.1707 87.9668 96.52C88.3508 95.8693 88.8734 95.3627 89.5348 95C90.1961 94.6267 90.9534 94.44 91.8068 94.44C92.6494 94.44 93.4014 94.6267 94.0628 95C94.7348 95.3627 95.2574 95.8693 95.6308 96.52C96.0148 97.16 96.2068 97.9067 96.2068 98.76C96.2068 99.6027 96.0148 100.349 95.6308 101C95.2574 101.651 94.7348 102.163 94.0628 102.536C93.4014 102.909 92.6494 103.096 91.8068 103.096ZM91.8068 101.752C92.3508 101.752 92.8361 101.629 93.2628 101.384C93.7001 101.139 94.0414 100.792 94.2868 100.344C94.5321 99.8853 94.6548 99.3573 94.6548 98.76C94.6548 98.152 94.5321 97.6293 94.2868 97.192C94.0414 96.744 93.7001 96.3973 93.2628 96.152C92.8361 95.9067 92.3508 95.784 91.8068 95.784C91.2628 95.784 90.7774 95.9067 90.3508 96.152C89.9241 96.3973 89.5828 96.744 89.3268 97.192C89.0708 97.6293 88.9428 98.152 88.9428 98.76C88.9428 99.3573 89.0708 99.8853 89.3268 100.344C89.5828 100.792 89.9241 101.139 90.3508 101.384C90.7774 101.629 91.2628 101.752 91.8068 101.752ZM21.68 130V118.8H26.048C27.0293 118.8 27.8667 118.955 28.56 119.264C29.2533 119.573 29.7867 120.021 30.16 120.608C30.5333 121.195 30.72 121.893 30.72 122.704C30.72 123.515 30.5333 124.213 30.16 124.8C29.7867 125.376 29.2533 125.824 28.56 126.144C27.8667 126.453 27.0293 126.608 26.048 126.608H22.56L23.28 125.856V130H21.68ZM23.28 126.016L22.56 125.216H26C27.024 125.216 27.7973 124.997 28.32 124.56C28.8533 124.123 29.12 123.504 29.12 122.704C29.12 121.904 28.8533 121.285 28.32 120.848C27.7973 120.411 27.024 120.192 26 120.192H22.56L23.28 119.392V126.016ZM32.6904 130V121.52H34.1624V123.824L34.0184 123.248C34.253 122.661 34.6477 122.213 35.2024 121.904C35.757 121.595 36.4397 121.44 37.2504 121.44V122.928C37.1864 122.917 37.1224 122.912 37.0584 122.912C37.005 122.912 36.9517 122.912 36.8984 122.912C36.077 122.912 35.4264 123.157 34.9464 123.648C34.4664 124.139 34.2264 124.848 34.2264 125.776V130H32.6904ZM42.6974 130.096C41.844 130.096 41.0867 129.909 40.4254 129.536C39.764 129.163 39.2414 128.651 38.8574 128C38.4734 127.339 38.2814 126.592 38.2814 125.76C38.2814 124.917 38.4734 124.171 38.8574 123.52C39.2414 122.869 39.764 122.363 40.4254 122C41.0867 121.627 41.844 121.44 42.6974 121.44C43.54 121.44 44.292 121.627 44.9534 122C45.6254 122.363 46.148 122.869 46.5214 123.52C46.9054 124.16 47.0974 124.907 47.0974 125.76C47.0974 126.603 46.9054 127.349 46.5214 128C46.148 128.651 45.6254 129.163 44.9534 129.536C44.292 129.909 43.54 130.096 42.6974 130.096ZM42.6974 128.752C43.2414 128.752 43.7267 128.629 44.1534 128.384C44.5907 128.139 44.932 127.792 45.1774 127.344C45.4227 126.885 45.5454 126.357 45.5454 125.76C45.5454 125.152 45.4227 124.629 45.1774 124.192C44.932 123.744 44.5907 123.397 44.1534 123.152C43.7267 122.907 43.2414 122.784 42.6974 122.784C42.1534 122.784 41.668 122.907 41.2414 123.152C40.8147 123.397 40.4734 123.744 40.2174 124.192C39.9614 124.629 39.8334 125.152 39.8334 125.76C39.8334 126.357 39.9614 126.885 40.2174 127.344C40.4734 127.792 40.8147 128.139 41.2414 128.384C41.668 128.629 42.1534 128.752 42.6974 128.752ZM48.1336 133.2C47.7816 133.2 47.4456 133.157 47.1256 133.072C46.795 132.987 46.5176 132.859 46.2936 132.688L46.7896 131.504C47.1096 131.771 47.5256 131.904 48.0376 131.904C48.443 131.904 48.7523 131.776 48.9656 131.52C49.1896 131.275 49.3016 130.907 49.3016 130.416V121.52H50.8376V130.384C50.8376 131.248 50.603 131.931 50.1336 132.432C49.675 132.944 49.0083 133.2 48.1336 133.2ZM50.0696 119.888C49.771 119.888 49.5203 119.792 49.3176 119.6C49.1256 119.408 49.0296 119.173 49.0296 118.896C49.0296 118.608 49.1256 118.368 49.3176 118.176C49.5203 117.984 49.771 117.888 50.0696 117.888C50.3683 117.888 50.6136 117.984 50.8056 118.176C51.0083 118.357 51.1096 118.587 51.1096 118.864C51.1096 119.152 51.0136 119.397 50.8216 119.6C50.6296 119.792 50.379 119.888 50.0696 119.888ZM57.5445 130.096C56.6378 130.096 55.8378 129.909 55.1445 129.536C54.4618 129.163 53.9285 128.651 53.5445 128C53.1712 127.349 52.9845 126.603 52.9845 125.76C52.9845 124.917 53.1658 124.171 53.5285 123.52C53.9018 122.869 54.4085 122.363 55.0485 122C55.6992 121.627 56.4298 121.44 57.2405 121.44C58.0618 121.44 58.7872 121.621 59.4165 121.984C60.0458 122.347 60.5365 122.859 60.8885 123.52C61.2512 124.171 61.4325 124.933 61.4325 125.808C61.4325 125.872 61.4272 125.947 61.4165 126.032C61.4165 126.117 61.4112 126.197 61.4005 126.272H54.1845V125.168H60.6005L59.9765 125.552C59.9872 125.008 59.8752 124.523 59.6405 124.096C59.4058 123.669 59.0805 123.339 58.6645 123.104C58.2592 122.859 57.7845 122.736 57.2405 122.736C56.7072 122.736 56.2325 122.859 55.8165 123.104C55.4005 123.339 55.0752 123.675 54.8405 124.112C54.6058 124.539 54.4885 125.029 54.4885 125.584V125.84C54.4885 126.405 54.6165 126.912 54.8725 127.36C55.1392 127.797 55.5072 128.139 55.9765 128.384C56.4458 128.629 56.9845 128.752 57.5925 128.752C58.0938 128.752 58.5472 128.667 58.9525 128.496C59.3685 128.325 59.7312 128.069 60.0405 127.728L60.8885 128.72C60.5045 129.168 60.0245 129.509 59.4485 129.744C58.8832 129.979 58.2485 130.096 57.5445 130.096ZM66.4774 130.096C65.624 130.096 64.9627 129.867 64.4934 129.408C64.024 128.949 63.7894 128.293 63.7894 127.44V119.664H65.3254V127.376C65.3254 127.835 65.4374 128.187 65.6614 128.432C65.896 128.677 66.2267 128.8 66.6534 128.8C67.1334 128.8 67.5334 128.667 67.8534 128.4L68.3334 129.504C68.0987 129.707 67.816 129.856 67.4854 129.952C67.1654 130.048 66.8294 130.096 66.4774 130.096ZM62.3494 122.784V121.52H67.7574V122.784H62.3494ZM73.5411 130.096C72.6878 130.096 71.9305 129.909 71.2691 129.536C70.6078 129.163 70.0851 128.651 69.7011 128C69.3171 127.339 69.1251 126.592 69.1251 125.76C69.1251 124.917 69.3171 124.171 69.7011 123.52C70.0851 122.869 70.6078 122.363 71.2691 122C71.9305 121.627 72.6878 121.44 73.5411 121.44C74.3838 121.44 75.1358 121.627 75.7971 122C76.4691 122.363 76.9918 122.869 77.3651 123.52C77.7491 124.16 77.9411 124.907 77.9411 125.76C77.9411 126.603 77.7491 127.349 77.3651 128C76.9918 128.651 76.4691 129.163 75.7971 129.536C75.1358 129.909 74.3838 130.096 73.5411 130.096ZM73.5411 128.752C74.0851 128.752 74.5705 128.629 74.9971 128.384C75.4345 128.139 75.7758 127.792 76.0211 127.344C76.2665 126.885 76.3891 126.357 76.3891 125.76C76.3891 125.152 76.2665 124.629 76.0211 124.192C75.7758 123.744 75.4345 123.397 74.9971 123.152C74.5705 122.907 74.0851 122.784 73.5411 122.784C72.9971 122.784 72.5118 122.907 72.0851 123.152C71.6585 123.397 71.3171 123.744 71.0611 124.192C70.8051 124.629 70.6771 125.152 70.6771 125.76C70.6771 126.357 70.8051 126.885 71.0611 127.344C71.3171 127.792 71.6585 128.139 72.0851 128.384C72.5118 128.629 72.9971 128.752 73.5411 128.752ZM82.4974 130.096C81.7934 130.096 81.1214 130 80.4814 129.808C79.852 129.616 79.356 129.381 78.9934 129.104L79.6334 127.888C79.996 128.133 80.444 128.341 80.9774 128.512C81.5107 128.683 82.0547 128.768 82.6094 128.768C83.324 128.768 83.836 128.667 84.1454 128.464C84.4654 128.261 84.6254 127.979 84.6254 127.616C84.6254 127.349 84.5294 127.141 84.3374 126.992C84.1454 126.843 83.8894 126.731 83.5694 126.656C83.26 126.581 82.9134 126.517 82.5294 126.464C82.1454 126.4 81.7614 126.325 81.3774 126.24C80.9934 126.144 80.6414 126.016 80.3214 125.856C80.0014 125.685 79.7454 125.456 79.5534 125.168C79.3614 124.869 79.2654 124.475 79.2654 123.984C79.2654 123.472 79.4094 123.024 79.6974 122.64C79.9854 122.256 80.3907 121.963 80.9134 121.76C81.4467 121.547 82.076 121.44 82.8014 121.44C83.356 121.44 83.916 121.509 84.4814 121.648C85.0574 121.776 85.5267 121.963 85.8894 122.208L85.2334 123.424C84.8494 123.168 84.4494 122.992 84.0334 122.896C83.6174 122.8 83.2014 122.752 82.7854 122.752C82.1134 122.752 81.612 122.864 81.2814 123.088C80.9507 123.301 80.7854 123.579 80.7854 123.92C80.7854 124.208 80.8814 124.432 81.0734 124.592C81.276 124.741 81.532 124.859 81.8414 124.944C82.1614 125.029 82.5134 125.104 82.8974 125.168C83.2814 125.221 83.6654 125.296 84.0494 125.392C84.4334 125.477 84.78 125.6 85.0894 125.76C85.4094 125.92 85.6654 126.144 85.8574 126.432C86.06 126.72 86.1614 127.104 86.1614 127.584C86.1614 128.096 86.012 128.539 85.7134 128.912C85.4147 129.285 84.9934 129.579 84.4494 129.792C83.9054 129.995 83.2547 130.096 82.4974 130.096ZM19.984 157L25.056 145.8H26.64L31.728 157H30.048L25.52 146.696H26.16L21.632 157H19.984ZM22.144 154.2L22.576 152.92H28.88L29.344 154.2H22.144ZM36.0086 157.096C35.1553 157.096 34.494 156.867 34.0246 156.408C33.5553 155.949 33.3206 155.293 33.3206 154.44V146.664H34.8566V154.376C34.8566 154.835 34.9686 155.187 35.1926 155.432C35.4273 155.677 35.758 155.8 36.1846 155.8C36.6646 155.8 37.0646 155.667 37.3846 155.4L37.8646 156.504C37.63 156.707 37.3473 156.856 37.0166 156.952C36.6966 157.048 36.3606 157.096 36.0086 157.096ZM31.8806 149.784V148.52H37.2886V149.784H31.8806ZM39.7216 157V148.52H41.2576V157H39.7216ZM40.4896 146.888C40.191 146.888 39.9403 146.792 39.7376 146.6C39.5456 146.408 39.4496 146.173 39.4496 145.896C39.4496 145.608 39.5456 145.368 39.7376 145.176C39.9403 144.984 40.191 144.888 40.4896 144.888C40.7883 144.888 41.0336 144.984 41.2256 145.176C41.4283 145.357 41.5296 145.587 41.5296 145.864C41.5296 146.152 41.4336 146.397 41.2416 146.6C41.0496 146.792 40.799 146.888 40.4896 146.888ZM46.4144 157L42.7024 148.52H44.3024L47.5984 156.2H46.8304L50.1904 148.52H51.6944L47.9824 157H46.4144ZM53.1279 157V148.52H54.6639V157H53.1279ZM53.8959 146.888C53.5972 146.888 53.3465 146.792 53.1439 146.6C52.9519 146.408 52.8559 146.173 52.8559 145.896C52.8559 145.608 52.9519 145.368 53.1439 145.176C53.3465 144.984 53.5972 144.888 53.8959 144.888C54.1945 144.888 54.4399 144.984 54.6319 145.176C54.8345 145.357 54.9359 145.587 54.9359 145.864C54.9359 146.152 54.8399 146.397 54.6479 146.6C54.4559 146.792 54.2052 146.888 53.8959 146.888ZM61.1006 157.096C60.2793 157.096 59.5433 156.915 58.8926 156.552C58.2526 156.189 57.746 155.683 57.3726 155.032C56.9993 154.381 56.8126 153.624 56.8126 152.76C56.8126 151.896 56.9993 151.144 57.3726 150.504C57.746 149.853 58.2526 149.347 58.8926 148.984C59.5433 148.621 60.2793 148.44 61.1006 148.44C61.8153 148.44 62.4606 148.6 63.0366 148.92C63.6126 149.24 64.0713 149.72 64.4126 150.36C64.7646 151 64.9406 151.8 64.9406 152.76C64.9406 153.72 64.77 154.52 64.4286 155.16C64.098 155.8 63.6446 156.285 63.0686 156.616C62.4926 156.936 61.8366 157.096 61.1006 157.096ZM61.2286 155.752C61.762 155.752 62.242 155.629 62.6686 155.384C63.106 155.139 63.4473 154.792 63.6926 154.344C63.9486 153.885 64.0766 153.357 64.0766 152.76C64.0766 152.152 63.9486 151.629 63.6926 151.192C63.4473 150.744 63.106 150.397 62.6686 150.152C62.242 149.907 61.762 149.784 61.2286 149.784C60.6846 149.784 60.1993 149.907 59.7726 150.152C59.346 150.397 59.0046 150.744 58.7486 151.192C58.4926 151.629 58.3646 152.152 58.3646 152.76C58.3646 153.357 58.4926 153.885 58.7486 154.344C59.0046 154.792 59.346 155.139 59.7726 155.384C60.1993 155.629 60.6846 155.752 61.2286 155.752ZM64.1246 157V154.712L64.2206 152.744L64.0606 150.776V145.128H65.5966V157H64.1246ZM73.7669 157V155.208L73.6869 154.872V151.816C73.6869 151.165 73.4949 150.664 73.1109 150.312C72.7375 149.949 72.1722 149.768 71.4149 149.768C70.9135 149.768 70.4229 149.853 69.9429 150.024C69.4629 150.184 69.0575 150.403 68.7269 150.68L68.0869 149.528C68.5242 149.176 69.0469 148.909 69.6549 148.728C70.2735 148.536 70.9189 148.44 71.5909 148.44C72.7535 148.44 73.6495 148.723 74.2789 149.288C74.9082 149.853 75.2229 150.717 75.2229 151.88V157H73.7669ZM70.9829 157.096C70.3535 157.096 69.7989 156.989 69.3189 156.776C68.8495 156.563 68.4869 156.269 68.2309 155.896C67.9749 155.512 67.8469 155.08 67.8469 154.6C67.8469 154.141 67.9535 153.725 68.1669 153.352C68.3909 152.979 68.7482 152.68 69.2389 152.456C69.7402 152.232 70.4122 152.12 71.2549 152.12H73.9429V153.224H71.3189C70.5509 153.224 70.0335 153.352 69.7669 153.608C69.5002 153.864 69.3669 154.173 69.3669 154.536C69.3669 154.952 69.5322 155.288 69.8629 155.544C70.1935 155.789 70.6522 155.912 71.2389 155.912C71.8149 155.912 72.3162 155.784 72.7429 155.528C73.1802 155.272 73.4949 154.899 73.6869 154.408L73.9909 155.464C73.7882 155.965 73.4309 156.365 72.9189 156.664C72.4069 156.952 71.7615 157.096 70.9829 157.096ZM81.5694 157.096C80.748 157.096 80.012 156.915 79.3614 156.552C78.7214 156.189 78.2147 155.683 77.8414 155.032C77.468 154.381 77.2814 153.624 77.2814 152.76C77.2814 151.896 77.468 151.144 77.8414 150.504C78.2147 149.853 78.7214 149.347 79.3614 148.984C80.012 148.621 80.748 148.44 81.5694 148.44C82.284 148.44 82.9294 148.6 83.5054 148.92C84.0814 149.24 84.54 149.72 84.8814 150.36C85.2334 151 85.4094 151.8 85.4094 152.76C85.4094 153.72 85.2387 154.52 84.8974 155.16C84.5667 155.8 84.1134 156.285 83.5374 156.616C82.9614 156.936 82.3054 157.096 81.5694 157.096ZM81.6974 155.752C82.2307 155.752 82.7107 155.629 83.1374 155.384C83.5747 155.139 83.916 154.792 84.1614 154.344C84.4174 153.885 84.5454 153.357 84.5454 152.76C84.5454 152.152 84.4174 151.629 84.1614 151.192C83.916 150.744 83.5747 150.397 83.1374 150.152C82.7107 149.907 82.2307 149.784 81.6974 149.784C81.1534 149.784 80.668 149.907 80.2414 150.152C79.8147 150.397 79.4734 150.744 79.2174 151.192C78.9614 151.629 78.8334 152.152 78.8334 152.76C78.8334 153.357 78.9614 153.885 79.2174 154.344C79.4734 154.792 79.8147 155.139 80.2414 155.384C80.668 155.629 81.1534 155.752 81.6974 155.752ZM84.5934 157V154.712L84.6894 152.744L84.5294 150.776V145.128H86.0654V157H84.5934ZM92.7476 157.096C91.841 157.096 91.041 156.909 90.3476 156.536C89.665 156.163 89.1316 155.651 88.7476 155C88.3743 154.349 88.1876 153.603 88.1876 152.76C88.1876 151.917 88.369 151.171 88.7316 150.52C89.105 149.869 89.6116 149.363 90.2516 149C90.9023 148.627 91.633 148.44 92.4436 148.44C93.265 148.44 93.9903 148.621 94.6196 148.984C95.249 149.347 95.7396 149.859 96.0916 150.52C96.4543 151.171 96.6356 151.933 96.6356 152.808C96.6356 152.872 96.6303 152.947 96.6196 153.032C96.6196 153.117 96.6143 153.197 96.6036 153.272H89.3876V152.168H95.8036L95.1796 152.552C95.1903 152.008 95.0783 151.523 94.8436 151.096C94.609 150.669 94.2836 150.339 93.8676 150.104C93.4623 149.859 92.9876 149.736 92.4436 149.736C91.9103 149.736 91.4356 149.859 91.0196 150.104C90.6036 150.339 90.2783 150.675 90.0436 151.112C89.809 151.539 89.6916 152.029 89.6916 152.584V152.84C89.6916 153.405 89.8196 153.912 90.0756 154.36C90.3423 154.797 90.7103 155.139 91.1796 155.384C91.649 155.629 92.1876 155.752 92.7956 155.752C93.297 155.752 93.7503 155.667 94.1556 155.496C94.5716 155.325 94.9343 155.069 95.2436 154.728L96.0916 155.72C95.7076 156.168 95.2276 156.509 94.6516 156.744C94.0863 156.979 93.4516 157.096 92.7476 157.096ZM101.201 157.096C100.497 157.096 99.8245 157 99.1845 156.808C98.5552 156.616 98.0592 156.381 97.6965 156.104L98.3365 154.888C98.6992 155.133 99.1472 155.341 99.6805 155.512C100.214 155.683 100.758 155.768 101.312 155.768C102.027 155.768 102.539 155.667 102.849 155.464C103.169 155.261 103.329 154.979 103.329 154.616C103.329 154.349 103.233 154.141 103.041 153.992C102.849 153.843 102.593 153.731 102.273 153.656C101.963 153.581 101.617 153.517 101.233 153.464C100.849 153.4 100.465 153.325 100.081 153.24C99.6965 153.144 99.3445 153.016 99.0245 152.856C98.7045 152.685 98.4485 152.456 98.2565 152.168C98.0645 151.869 97.9685 151.475 97.9685 150.984C97.9685 150.472 98.1125 150.024 98.4005 149.64C98.6885 149.256 99.0938 148.963 99.6165 148.76C100.15 148.547 100.779 148.44 101.505 148.44C102.059 148.44 102.619 148.509 103.185 148.648C103.761 148.776 104.23 148.963 104.593 149.208L103.937 150.424C103.553 150.168 103.153 149.992 102.737 149.896C102.321 149.8 101.905 149.752 101.489 149.752C100.817 149.752 100.315 149.864 99.9845 150.088C99.6538 150.301 99.4885 150.579 99.4885 150.92C99.4885 151.208 99.5845 151.432 99.7765 151.592C99.9792 151.741 100.235 151.859 100.545 151.944C100.865 152.029 101.217 152.104 101.601 152.168C101.985 152.221 102.369 152.296 102.753 152.392C103.137 152.477 103.483 152.6 103.793 152.76C104.113 152.92 104.369 153.144 104.561 153.432C104.763 153.72 104.865 154.104 104.865 154.584C104.865 155.096 104.715 155.539 104.417 155.912C104.118 156.285 103.697 156.579 103.153 156.792C102.609 156.995 101.958 157.096 101.201 157.096ZM110.217 157V155.912L114.777 151.512C115.182 151.128 115.481 150.792 115.673 150.504C115.876 150.205 116.009 149.933 116.073 149.688C116.148 149.432 116.185 149.187 116.185 148.952C116.185 148.376 115.982 147.923 115.577 147.592C115.172 147.261 114.58 147.096 113.801 147.096C113.204 147.096 112.665 147.197 112.185 147.4C111.705 147.592 111.289 147.896 110.937 148.312L109.849 147.368C110.276 146.824 110.846 146.408 111.561 146.12C112.286 145.821 113.081 145.672 113.945 145.672C114.724 145.672 115.401 145.8 115.977 146.056C116.553 146.301 116.996 146.659 117.305 147.128C117.625 147.597 117.785 148.152 117.785 148.792C117.785 149.155 117.737 149.512 117.641 149.864C117.545 150.216 117.364 150.589 117.097 150.984C116.83 151.379 116.446 151.821 115.945 152.312L111.881 156.232L111.497 155.608H118.265V157H110.217ZM21.504 184V172.8H23.216L28.112 180.976H27.216L32.032 172.8H33.744L33.76 184H31.792L31.776 175.888H32.192L28.096 182.72H27.168L23.008 175.888H23.488V184H21.504ZM40.6093 184.112C39.6599 184.112 38.8279 183.925 38.1133 183.552C37.4093 183.168 36.8599 182.645 36.4653 181.984C36.0813 181.323 35.8893 180.571 35.8893 179.728C35.8893 178.875 36.0759 178.123 36.4493 177.472C36.8333 176.811 37.3559 176.293 38.0173 175.92C38.6893 175.547 39.4519 175.36 40.3053 175.36C41.1373 175.36 41.8786 175.541 42.5293 175.904C43.1799 176.267 43.6919 176.779 44.0653 177.44C44.4386 178.101 44.6253 178.88 44.6253 179.776C44.6253 179.861 44.6199 179.957 44.6093 180.064C44.6093 180.171 44.6039 180.272 44.5933 180.368H37.4733V179.04H43.5373L42.7533 179.456C42.7639 178.965 42.6626 178.533 42.4493 178.16C42.2359 177.787 41.9426 177.493 41.5693 177.28C41.2066 177.067 40.7853 176.96 40.3053 176.96C39.8146 176.96 39.3826 177.067 39.0093 177.28C38.6466 177.493 38.3586 177.792 38.1453 178.176C37.9426 178.549 37.8413 178.992 37.8413 179.504V179.824C37.8413 180.336 37.9586 180.789 38.1933 181.184C38.4279 181.579 38.7586 181.883 39.1853 182.096C39.6119 182.309 40.1026 182.416 40.6573 182.416C41.1373 182.416 41.5693 182.341 41.9533 182.192C42.3373 182.043 42.6786 181.808 42.9773 181.488L44.0493 182.72C43.6653 183.168 43.1799 183.515 42.5933 183.76C42.0173 183.995 41.3559 184.112 40.6093 184.112ZM38.9133 174.288L41.0733 172.096H43.4253L40.6413 174.288H38.9133ZM50.1624 184.112C49.341 184.112 48.5997 183.931 47.9384 183.568C47.2877 183.195 46.7757 182.683 46.4024 182.032C46.029 181.381 45.8424 180.613 45.8424 179.728C45.8424 178.843 46.029 178.075 46.4024 177.424C46.7757 176.773 47.2877 176.267 47.9384 175.904C48.5997 175.541 49.341 175.36 50.1624 175.36C50.877 175.36 51.517 175.52 52.0824 175.84C52.6477 176.149 53.0957 176.624 53.4264 177.264C53.757 177.904 53.9224 178.725 53.9224 179.728C53.9224 180.72 53.7624 181.541 53.4424 182.192C53.1224 182.832 52.6797 183.312 52.1144 183.632C51.549 183.952 50.8984 184.112 50.1624 184.112ZM50.4024 182.4C50.8824 182.4 51.309 182.293 51.6824 182.08C52.0664 181.867 52.3704 181.557 52.5944 181.152C52.829 180.747 52.9464 180.272 52.9464 179.728C52.9464 179.173 52.829 178.699 52.5944 178.304C52.3704 177.899 52.0664 177.589 51.6824 177.376C51.309 177.163 50.8824 177.056 50.4024 177.056C49.9224 177.056 49.4904 177.163 49.1064 177.376C48.733 177.589 48.429 177.899 48.1944 178.304C47.9704 178.699 47.8584 179.173 47.8584 179.728C47.8584 180.272 47.9704 180.747 48.1944 181.152C48.429 181.557 48.733 181.867 49.1064 182.08C49.4904 182.293 49.9224 182.4 50.4024 182.4ZM52.9944 184V181.984L53.0744 179.712L52.9144 177.44V172.128H54.8984V184H52.9944ZM57.5308 184V175.456H59.5308V184H57.5308ZM58.5388 174.048C58.1654 174.048 57.8561 173.931 57.6108 173.696C57.3761 173.461 57.2588 173.179 57.2588 172.848C57.2588 172.507 57.3761 172.224 57.6108 172C57.8561 171.765 58.1654 171.648 58.5388 171.648C58.9121 171.648 59.2161 171.76 59.4508 171.984C59.6961 172.197 59.8188 172.469 59.8188 172.8C59.8188 173.152 59.7014 173.451 59.4668 173.696C59.2321 173.931 58.9228 174.048 58.5388 174.048ZM67.4198 184V182.272L67.3078 181.904V178.88C67.3078 178.293 67.1318 177.84 66.7798 177.52C66.4278 177.189 65.8944 177.024 65.1798 177.024C64.6998 177.024 64.2251 177.099 63.7558 177.248C63.2971 177.397 62.9078 177.605 62.5878 177.872L61.8038 176.416C62.2624 176.064 62.8064 175.803 63.4358 175.632C64.0758 175.451 64.7371 175.36 65.4198 175.36C66.6571 175.36 67.6118 175.659 68.2838 176.256C68.9664 176.843 69.3078 177.755 69.3078 178.992V184H67.4198ZM64.7318 184.112C64.0918 184.112 63.5318 184.005 63.0518 183.792C62.5718 183.568 62.1984 183.264 61.9318 182.88C61.6758 182.485 61.5478 182.043 61.5478 181.552C61.5478 181.072 61.6598 180.64 61.8838 180.256C62.1184 179.872 62.4971 179.568 63.0198 179.344C63.5424 179.12 64.2358 179.008 65.0998 179.008H67.5798V180.336H65.2438C64.5611 180.336 64.1024 180.448 63.8678 180.672C63.6331 180.885 63.5158 181.152 63.5158 181.472C63.5158 181.835 63.6598 182.123 63.9478 182.336C64.2358 182.549 64.6358 182.656 65.1478 182.656C65.6384 182.656 66.0758 182.544 66.4598 182.32C66.8544 182.096 67.1371 181.765 67.3078 181.328L67.6438 182.528C67.4518 183.029 67.1051 183.419 66.6038 183.696C66.1131 183.973 65.4891 184.112 64.7318 184.112Z" fill="#2A2828"/>
<path d="M261.608 69.248V68.128L267.336 60.8H269.064L263.384 68.128L262.568 67.872H271.512V69.248H261.608ZM267.832 72V69.248L267.88 67.872V65.44H269.384V72H267.832ZM272.864 74.368L273.664 71.136L273.872 72.064C273.562 72.064 273.301 71.968 273.088 71.776C272.885 71.584 272.784 71.3227 272.784 70.992C272.784 70.672 272.885 70.4107 273.088 70.208C273.301 70.0053 273.557 69.904 273.856 69.904C274.165 69.904 274.416 70.0107 274.608 70.224C274.8 70.4267 274.896 70.6827 274.896 70.992C274.896 71.0987 274.885 71.2053 274.864 71.312C274.853 71.408 274.826 71.5253 274.784 71.664C274.752 71.792 274.698 71.952 274.624 72.144L273.872 74.368H272.864ZM280.025 72.128C279.235 72.128 278.467 72.0053 277.721 71.76C276.985 71.5147 276.382 71.184 275.913 70.768L276.649 69.504C277.022 69.856 277.507 70.144 278.105 70.368C278.702 70.592 279.337 70.704 280.009 70.704C280.862 70.704 281.518 70.5227 281.977 70.16C282.435 69.7973 282.665 69.312 282.665 68.704C282.665 68.288 282.563 67.9253 282.361 67.616C282.158 67.3067 281.806 67.072 281.305 66.912C280.814 66.7413 280.137 66.656 279.273 66.656H276.729L277.321 60.8H283.641V62.192H277.913L278.745 61.408L278.281 66.032L277.449 65.264H279.609C280.729 65.264 281.63 65.408 282.313 65.696C282.995 65.984 283.491 66.384 283.801 66.896C284.11 67.3973 284.265 67.9787 284.265 68.64C284.265 69.28 284.11 69.8667 283.801 70.4C283.491 70.9227 283.022 71.344 282.393 71.664C281.774 71.9733 280.985 72.128 280.025 72.128ZM266.472 99.128C265.48 99.128 264.632 98.9093 263.928 98.472C263.224 98.0347 262.685 97.4053 262.312 96.584C261.949 95.752 261.768 94.7387 261.768 93.544C261.768 92.2747 261.992 91.2027 262.44 90.328C262.888 89.4533 263.512 88.792 264.312 88.344C265.112 87.896 266.029 87.672 267.064 87.672C267.597 87.672 268.104 87.7253 268.584 87.832C269.075 87.9387 269.496 88.104 269.848 88.328L269.24 89.576C268.952 89.3733 268.621 89.2347 268.248 89.16C267.885 89.0853 267.501 89.048 267.096 89.048C265.955 89.048 265.048 89.4053 264.376 90.12C263.704 90.824 263.368 91.8747 263.368 93.272C263.368 93.496 263.379 93.7627 263.4 94.072C263.421 94.3813 263.475 94.6853 263.56 94.984L263.016 94.44C263.176 93.9493 263.427 93.5387 263.768 93.208C264.12 92.8667 264.536 92.616 265.016 92.456C265.507 92.2853 266.035 92.2 266.6 92.2C267.347 92.2 268.008 92.3387 268.584 92.616C269.16 92.8933 269.613 93.288 269.944 93.8C270.275 94.3013 270.44 94.8987 270.44 95.592C270.44 96.3067 270.264 96.9307 269.912 97.464C269.56 97.9973 269.085 98.408 268.488 98.696C267.891 98.984 267.219 99.128 266.472 99.128ZM266.408 97.832C266.899 97.832 267.325 97.7413 267.688 97.56C268.061 97.3787 268.355 97.128 268.568 96.808C268.781 96.4773 268.888 96.0933 268.888 95.656C268.888 94.9947 268.659 94.472 268.2 94.088C267.741 93.6933 267.117 93.496 266.328 93.496C265.816 93.496 265.368 93.592 264.984 93.784C264.6 93.976 264.296 94.2373 264.072 94.568C263.859 94.888 263.752 95.256 263.752 95.672C263.752 96.056 263.853 96.4133 264.056 96.744C264.259 97.064 264.557 97.3253 264.952 97.528C265.347 97.7307 265.832 97.832 266.408 97.832ZM271.879 101.368L272.679 98.136L272.887 99.064C272.578 99.064 272.317 98.968 272.103 98.776C271.901 98.584 271.799 98.3227 271.799 97.992C271.799 97.672 271.901 97.4107 272.103 97.208C272.317 97.0053 272.573 96.904 272.871 96.904C273.181 96.904 273.431 97.0107 273.623 97.224C273.815 97.4267 273.911 97.6827 273.911 97.992C273.911 98.0987 273.901 98.2053 273.879 98.312C273.869 98.408 273.842 98.5253 273.799 98.664C273.767 98.792 273.714 98.952 273.639 99.144L272.887 101.368H271.879ZM277.157 99L281.909 88.472L282.325 89.192H275.669L276.469 88.408V91.192H274.933V87.8H283.381V88.888L278.853 99H277.157ZM265.4 114.672C266.413 114.672 267.267 114.891 267.96 115.328C268.664 115.765 269.197 116.4 269.56 117.232C269.923 118.053 270.104 119.061 270.104 120.256C270.104 121.525 269.88 122.597 269.432 123.472C268.984 124.347 268.365 125.008 267.576 125.456C266.787 125.904 265.864 126.128 264.808 126.128C264.285 126.128 263.779 126.075 263.288 125.968C262.808 125.861 262.387 125.696 262.024 125.472L262.632 124.224C262.931 124.416 263.261 124.555 263.624 124.64C263.997 124.715 264.387 124.752 264.792 124.752C265.923 124.752 266.824 124.4 267.496 123.696C268.168 122.981 268.504 121.925 268.504 120.528C268.504 120.304 268.493 120.037 268.472 119.728C268.451 119.419 268.403 119.115 268.328 118.816L268.856 119.36C268.707 119.851 268.456 120.267 268.104 120.608C267.763 120.939 267.347 121.189 266.856 121.36C266.376 121.52 265.848 121.6 265.272 121.6C264.536 121.6 263.88 121.461 263.304 121.184C262.728 120.907 262.275 120.517 261.944 120.016C261.613 119.504 261.448 118.901 261.448 118.208C261.448 117.483 261.619 116.859 261.96 116.336C262.312 115.803 262.787 115.392 263.384 115.104C263.992 114.816 264.664 114.672 265.4 114.672ZM265.464 115.968C264.984 115.968 264.557 116.059 264.184 116.24C263.811 116.421 263.517 116.672 263.304 116.992C263.101 117.312 263 117.696 263 118.144C263 118.805 263.229 119.333 263.688 119.728C264.147 120.112 264.765 120.304 265.544 120.304C266.056 120.304 266.504 120.208 266.888 120.016C267.283 119.824 267.587 119.563 267.8 119.232C268.024 118.901 268.136 118.533 268.136 118.128C268.136 117.733 268.035 117.376 267.832 117.056C267.629 116.736 267.331 116.475 266.936 116.272C266.541 116.069 266.051 115.968 265.464 115.968ZM271.536 128.368L272.336 125.136L272.544 126.064C272.234 126.064 271.973 125.968 271.76 125.776C271.557 125.584 271.456 125.323 271.456 124.992C271.456 124.672 271.557 124.411 271.76 124.208C271.973 124.005 272.229 123.904 272.528 123.904C272.837 123.904 273.088 124.011 273.28 124.224C273.472 124.427 273.568 124.683 273.568 124.992C273.568 125.099 273.557 125.205 273.536 125.312C273.525 125.408 273.498 125.525 273.456 125.664C273.424 125.792 273.37 125.952 273.296 126.144L272.544 128.368H271.536ZM274.78 123.248V122.128L280.508 114.8H282.236L276.556 122.128L275.74 121.872H284.684V123.248H274.78ZM281.004 126V123.248L281.052 121.872V119.44H282.556V126H281.004ZM266.472 153.128C265.48 153.128 264.632 152.909 263.928 152.472C263.224 152.035 262.685 151.405 262.312 150.584C261.949 149.752 261.768 148.739 261.768 147.544C261.768 146.275 261.992 145.203 262.44 144.328C262.888 143.453 263.512 142.792 264.312 142.344C265.112 141.896 266.029 141.672 267.064 141.672C267.597 141.672 268.104 141.725 268.584 141.832C269.075 141.939 269.496 142.104 269.848 142.328L269.24 143.576C268.952 143.373 268.621 143.235 268.248 143.16C267.885 143.085 267.501 143.048 267.096 143.048C265.955 143.048 265.048 143.405 264.376 144.12C263.704 144.824 263.368 145.875 263.368 147.272C263.368 147.496 263.379 147.763 263.4 148.072C263.421 148.381 263.475 148.685 263.56 148.984L263.016 148.44C263.176 147.949 263.427 147.539 263.768 147.208C264.12 146.867 264.536 146.616 265.016 146.456C265.507 146.285 266.035 146.2 266.6 146.2C267.347 146.2 268.008 146.339 268.584 146.616C269.16 146.893 269.613 147.288 269.944 147.8C270.275 148.301 270.44 148.899 270.44 149.592C270.44 150.307 270.264 150.931 269.912 151.464C269.56 151.997 269.085 152.408 268.488 152.696C267.891 152.984 267.219 153.128 266.472 153.128ZM266.408 151.832C266.899 151.832 267.325 151.741 267.688 151.56C268.061 151.379 268.355 151.128 268.568 150.808C268.781 150.477 268.888 150.093 268.888 149.656C268.888 148.995 268.659 148.472 268.2 148.088C267.741 147.693 267.117 147.496 266.328 147.496C265.816 147.496 265.368 147.592 264.984 147.784C264.6 147.976 264.296 148.237 264.072 148.568C263.859 148.888 263.752 149.256 263.752 149.672C263.752 150.056 263.853 150.413 264.056 150.744C264.259 151.064 264.557 151.325 264.952 151.528C265.347 151.731 265.832 151.832 266.408 151.832ZM271.879 155.368L272.679 152.136L272.887 153.064C272.578 153.064 272.317 152.968 272.103 152.776C271.901 152.584 271.799 152.323 271.799 151.992C271.799 151.672 271.901 151.411 272.103 151.208C272.317 151.005 272.573 150.904 272.871 150.904C273.181 150.904 273.431 151.011 273.623 151.224C273.815 151.427 273.911 151.683 273.911 151.992C273.911 152.099 273.901 152.205 273.879 152.312C273.869 152.408 273.842 152.525 273.799 152.664C273.767 152.792 273.714 152.952 273.639 153.144L272.887 155.368H271.879ZM279.04 153.128C278.251 153.128 277.483 153.005 276.736 152.76C276 152.515 275.398 152.184 274.928 151.768L275.664 150.504C276.038 150.856 276.523 151.144 277.12 151.368C277.718 151.592 278.352 151.704 279.024 151.704C279.878 151.704 280.534 151.523 280.992 151.16C281.451 150.797 281.68 150.312 281.68 149.704C281.68 149.288 281.579 148.925 281.376 148.616C281.174 148.307 280.822 148.072 280.32 147.912C279.83 147.741 279.152 147.656 278.288 147.656H275.744L276.336 141.8H282.656V143.192H276.928L277.76 142.408L277.296 147.032L276.464 146.264H278.624C279.744 146.264 280.646 146.408 281.328 146.696C282.011 146.984 282.507 147.384 282.816 147.896C283.126 148.397 283.28 148.979 283.28 149.64C283.28 150.28 283.126 150.867 282.816 151.4C282.507 151.923 282.038 152.344 281.408 152.664C280.79 152.973 280 153.128 279.04 153.128ZM266.552 180.16C265.539 180.16 264.669 179.947 263.944 179.52C263.219 179.083 262.664 178.453 262.28 177.632C261.896 176.811 261.704 175.797 261.704 174.592C261.704 173.312 261.933 172.229 262.392 171.344C262.861 170.459 263.507 169.787 264.328 169.328C265.16 168.869 266.115 168.64 267.192 168.64C267.757 168.64 268.296 168.699 268.808 168.816C269.331 168.933 269.773 169.115 270.136 169.36L269.368 170.928C269.059 170.725 268.723 170.587 268.36 170.512C268.008 170.427 267.635 170.384 267.24 170.384C266.184 170.384 265.347 170.709 264.728 171.36C264.109 172.011 263.8 172.971 263.8 174.24C263.8 174.443 263.805 174.683 263.816 174.96C263.827 175.227 263.864 175.499 263.928 175.776L263.288 175.072C263.48 174.635 263.741 174.272 264.072 173.984C264.413 173.685 264.813 173.461 265.272 173.312C265.741 173.163 266.248 173.088 266.792 173.088C267.528 173.088 268.184 173.232 268.76 173.52C269.336 173.797 269.795 174.197 270.136 174.72C270.477 175.232 270.648 175.835 270.648 176.528C270.648 177.264 270.467 177.904 270.104 178.448C269.741 178.992 269.251 179.413 268.632 179.712C268.013 180.011 267.32 180.16 266.552 180.16ZM266.44 178.528C266.867 178.528 267.245 178.453 267.576 178.304C267.907 178.144 268.163 177.92 268.344 177.632C268.536 177.344 268.632 177.008 268.632 176.624C268.632 176.037 268.429 175.573 268.024 175.232C267.619 174.891 267.075 174.72 266.392 174.72C265.944 174.72 265.549 174.805 265.208 174.976C264.877 175.136 264.611 175.36 264.408 175.648C264.216 175.936 264.12 176.267 264.12 176.64C264.12 176.981 264.211 177.296 264.392 177.584C264.573 177.872 264.835 178.101 265.176 178.272C265.528 178.443 265.949 178.528 266.44 178.528ZM271.972 182.416L272.9 178.88L273.172 180.064C272.798 180.064 272.484 179.952 272.228 179.728C271.982 179.493 271.86 179.179 271.86 178.784C271.86 178.379 271.982 178.059 272.228 177.824C272.484 177.579 272.793 177.456 273.156 177.456C273.529 177.456 273.838 177.579 274.084 177.824C274.329 178.069 274.452 178.389 274.452 178.784C274.452 178.891 274.441 179.008 274.42 179.136C274.398 179.253 274.361 179.392 274.308 179.552C274.265 179.712 274.19 179.915 274.084 180.16L273.268 182.416H271.972ZM277.435 180L282.059 169.632L282.603 170.56H276.251L277.243 169.552V172.464H275.307V168.8H284.011V170.192L279.659 180H277.435Z" fill="#2A2828"/>
</svg>
