<svg width="307" height="166" viewBox="0 0 307 166" fill="none" xmlns="http://www.w3.org/2000/svg">
<path d="M1.692 17V4.4H4.032V17H1.692ZM12.678 7.28C13.446 7.28 14.13 7.43 14.73 7.73C15.342 8.03 15.822 8.492 16.17 9.116C16.518 9.728 16.692 10.52 16.692 11.492V17H14.442V11.78C14.442 10.928 14.238 10.292 13.83 9.872C13.434 9.452 12.876 9.242 12.156 9.242C11.628 9.242 11.16 9.35 10.752 9.566C10.344 9.782 10.026 10.106 9.79805 10.538C9.58205 10.958 9.47405 11.492 9.47405 12.14V17H7.22405V7.388H9.36605V9.98L8.98805 9.188C9.32405 8.576 9.81005 8.108 10.446 7.784C11.094 7.448 11.838 7.28 12.678 7.28ZM23.9199 20.618C23.0319 20.618 22.1619 20.498 21.3099 20.258C20.4699 20.03 19.7799 19.694 19.2399 19.25L20.2479 17.558C20.6679 17.906 21.1959 18.182 21.8319 18.386C22.4799 18.602 23.1339 18.71 23.7939 18.71C24.8499 18.71 25.6239 18.464 26.1159 17.972C26.6079 17.492 26.8539 16.766 26.8539 15.794V14.084L27.0339 11.906L26.9619 9.728V7.388H29.1039V15.542C29.1039 17.282 28.6599 18.56 27.7719 19.376C26.8839 20.204 25.5999 20.618 23.9199 20.618ZM23.6319 16.568C22.7199 16.568 21.8919 16.376 21.1479 15.992C20.4159 15.596 19.8339 15.05 19.4019 14.354C18.9819 13.658 18.7719 12.842 18.7719 11.906C18.7719 10.982 18.9819 10.172 19.4019 9.476C19.8339 8.78 20.4159 8.24 21.1479 7.856C21.8919 7.472 22.7199 7.28 23.6319 7.28C24.4479 7.28 25.1799 7.442 25.8279 7.766C26.4759 8.09 26.9919 8.594 27.3759 9.278C27.7719 9.962 27.9699 10.838 27.9699 11.906C27.9699 12.974 27.7719 13.856 27.3759 14.552C26.9919 15.236 26.4759 15.746 25.8279 16.082C25.1799 16.406 24.4479 16.568 23.6319 16.568ZM23.9739 14.66C24.5379 14.66 25.0419 14.546 25.4859 14.318C25.9299 14.078 26.2719 13.754 26.5119 13.346C26.7639 12.926 26.8899 12.446 26.8899 11.906C26.8899 11.366 26.7639 10.892 26.5119 10.484C26.2719 10.064 25.9299 9.746 25.4859 9.53C25.0419 9.302 24.5379 9.188 23.9739 9.188C23.4099 9.188 22.8999 9.302 22.4439 9.53C21.9999 9.746 21.6519 10.064 21.3999 10.484C21.1599 10.892 21.0399 11.366 21.0399 11.906C21.0399 12.446 21.1599 12.926 21.3999 13.346C21.6519 13.754 21.9999 14.078 22.4439 14.318C22.8999 14.546 23.4099 14.66 23.9739 14.66ZM32.0619 17V3.644H34.3119V17H32.0619ZM41.7831 17.126C40.7151 17.126 39.7791 16.916 38.9751 16.496C38.1831 16.064 37.5651 15.476 37.1211 14.732C36.6891 13.988 36.4731 13.142 36.4731 12.194C36.4731 11.234 36.6831 10.388 37.1031 9.656C37.5351 8.912 38.1231 8.33 38.8671 7.91C39.6231 7.49 40.4811 7.28 41.4411 7.28C42.3771 7.28 43.2111 7.484 43.9431 7.892C44.6751 8.3 45.2511 8.876 45.6711 9.62C46.0911 10.364 46.3011 11.24 46.3011 12.248C46.3011 12.344 46.2951 12.452 46.2831 12.572C46.2831 12.692 46.2771 12.806 46.2651 12.914H38.2551V11.42H45.0771L44.1951 11.888C44.2071 11.336 44.0931 10.85 43.8531 10.43C43.6131 10.01 43.2831 9.68 42.8631 9.44C42.4551 9.2 41.9811 9.08 41.4411 9.08C40.8891 9.08 40.4031 9.2 39.9831 9.44C39.5751 9.68 39.2511 10.016 39.0111 10.448C38.7831 10.868 38.6691 11.366 38.6691 11.942V12.302C38.6691 12.878 38.8011 13.388 39.0651 13.832C39.3291 14.276 39.7011 14.618 40.1811 14.858C40.6611 15.098 41.2131 15.218 41.8371 15.218C42.3771 15.218 42.8631 15.134 43.2951 14.966C43.7271 14.798 44.1111 14.534 44.4471 14.174L45.6531 15.56C45.2211 16.064 44.6751 16.454 44.0151 16.73C43.3671 16.994 42.6231 17.126 41.7831 17.126ZM37.9491 6.074L40.3611 3.608H42.4131L44.8251 6.074H42.9711L40.5231 4.004H42.2511L39.8031 6.074H37.9491ZM51.4323 17.126C50.6283 17.126 49.8543 17.024 49.1103 16.82C48.3783 16.604 47.7963 16.346 47.3643 16.046L48.2283 14.336C48.6603 14.612 49.1763 14.84 49.7763 15.02C50.3763 15.2 50.9763 15.29 51.5763 15.29C52.2843 15.29 52.7943 15.194 53.1063 15.002C53.4303 14.81 53.5923 14.552 53.5923 14.228C53.5923 13.964 53.4843 13.766 53.2683 13.634C53.0523 13.49 52.7703 13.382 52.4223 13.31C52.0743 13.238 51.6843 13.172 51.2523 13.112C50.8323 13.052 50.4063 12.974 49.9743 12.878C49.5543 12.77 49.1703 12.62 48.8223 12.428C48.4743 12.224 48.1923 11.954 47.9763 11.618C47.7603 11.282 47.6523 10.838 47.6523 10.286C47.6523 9.674 47.8263 9.146 48.1743 8.702C48.5223 8.246 49.0083 7.898 49.6323 7.658C50.2683 7.406 51.0183 7.28 51.8823 7.28C52.5303 7.28 53.1843 7.352 53.8443 7.496C54.5043 7.64 55.0503 7.844 55.4823 8.108L54.6183 9.818C54.1623 9.542 53.7003 9.356 53.2323 9.26C52.7763 9.152 52.3203 9.098 51.8643 9.098C51.1803 9.098 50.6703 9.2 50.3343 9.404C50.0103 9.608 49.8483 9.866 49.8483 10.178C49.8483 10.466 49.9563 10.682 50.1723 10.826C50.3883 10.97 50.6703 11.084 51.0183 11.168C51.3663 11.252 51.7503 11.324 52.1703 11.384C52.6023 11.432 53.0283 11.51 53.4483 11.618C53.8683 11.726 54.2523 11.876 54.6003 12.068C54.9603 12.248 55.2483 12.506 55.4643 12.842C55.6803 13.178 55.7883 13.616 55.7883 14.156C55.7883 14.756 55.6083 15.278 55.2483 15.722C54.9003 16.166 54.4023 16.514 53.7543 16.766C53.1063 17.006 52.3323 17.126 51.4323 17.126ZM62.9166 17V4.4H65.2566V17H62.9166ZM68.6647 17V4.4H71.0047V17H68.6647Z" fill="#709BEF"/>
<path d="M19.984 54L25.056 42.8H26.64L31.728 54H30.048L25.52 43.696H26.16L21.632 54H19.984ZM22.144 51.2L22.576 49.92H28.88L29.344 51.2H22.144ZM36.0086 54.096C35.1553 54.096 34.494 53.8667 34.0246 53.408C33.5553 52.9493 33.3206 52.2933 33.3206 51.44V43.664H34.8566V51.376C34.8566 51.8347 34.9686 52.1867 35.1926 52.432C35.4273 52.6773 35.758 52.8 36.1846 52.8C36.6646 52.8 37.0646 52.6667 37.3846 52.4L37.8646 53.504C37.63 53.7067 37.3473 53.856 37.0166 53.952C36.6966 54.048 36.3606 54.096 36.0086 54.096ZM31.8806 46.784V45.52H37.2886V46.784H31.8806ZM39.7216 54V45.52H41.2576V54H39.7216ZM40.4896 43.888C40.191 43.888 39.9403 43.792 39.7376 43.6C39.5456 43.408 39.4496 43.1733 39.4496 42.896C39.4496 42.608 39.5456 42.368 39.7376 42.176C39.9403 41.984 40.191 41.888 40.4896 41.888C40.7883 41.888 41.0336 41.984 41.2256 42.176C41.4283 42.3573 41.5296 42.5867 41.5296 42.864C41.5296 43.152 41.4336 43.3973 41.2416 43.6C41.0496 43.792 40.799 43.888 40.4896 43.888ZM46.4144 54L42.7024 45.52H44.3024L47.5984 53.2H46.8304L50.1904 45.52H51.6944L47.9824 54H46.4144ZM53.1279 54V45.52H54.6639V54H53.1279ZM53.8959 43.888C53.5972 43.888 53.3465 43.792 53.1439 43.6C52.9519 43.408 52.8559 43.1733 52.8559 42.896C52.8559 42.608 52.9519 42.368 53.1439 42.176C53.3465 41.984 53.5972 41.888 53.8959 41.888C54.1945 41.888 54.4399 41.984 54.6319 42.176C54.8345 42.3573 54.9359 42.5867 54.9359 42.864C54.9359 43.152 54.8399 43.3973 54.6479 43.6C54.4559 43.792 54.2052 43.888 53.8959 43.888ZM61.1006 54.096C60.2793 54.096 59.5433 53.9147 58.8926 53.552C58.2526 53.1893 57.746 52.6827 57.3726 52.032C56.9993 51.3813 56.8126 50.624 56.8126 49.76C56.8126 48.896 56.9993 48.144 57.3726 47.504C57.746 46.8533 58.2526 46.3467 58.8926 45.984C59.5433 45.6213 60.2793 45.44 61.1006 45.44C61.8153 45.44 62.4606 45.6 63.0366 45.92C63.6126 46.24 64.0713 46.72 64.4126 47.36C64.7646 48 64.9406 48.8 64.9406 49.76C64.9406 50.72 64.77 51.52 64.4286 52.16C64.098 52.8 63.6446 53.2853 63.0686 53.616C62.4926 53.936 61.8366 54.096 61.1006 54.096ZM61.2286 52.752C61.762 52.752 62.242 52.6293 62.6686 52.384C63.106 52.1387 63.4473 51.792 63.6926 51.344C63.9486 50.8853 64.0766 50.3573 64.0766 49.76C64.0766 49.152 63.9486 48.6293 63.6926 48.192C63.4473 47.744 63.106 47.3973 62.6686 47.152C62.242 46.9067 61.762 46.784 61.2286 46.784C60.6846 46.784 60.1993 46.9067 59.7726 47.152C59.346 47.3973 59.0046 47.744 58.7486 48.192C58.4926 48.6293 58.3646 49.152 58.3646 49.76C58.3646 50.3573 58.4926 50.8853 58.7486 51.344C59.0046 51.792 59.346 52.1387 59.7726 52.384C60.1993 52.6293 60.6846 52.752 61.2286 52.752ZM64.1246 54V51.712L64.2206 49.744L64.0606 47.776V42.128H65.5966V54H64.1246ZM73.7669 54V52.208L73.6869 51.872V48.816C73.6869 48.1653 73.4949 47.664 73.1109 47.312C72.7375 46.9493 72.1722 46.768 71.4149 46.768C70.9135 46.768 70.4229 46.8533 69.9429 47.024C69.4629 47.184 69.0575 47.4027 68.7269 47.68L68.0869 46.528C68.5242 46.176 69.0469 45.9093 69.6549 45.728C70.2735 45.536 70.9189 45.44 71.5909 45.44C72.7535 45.44 73.6495 45.7227 74.2789 46.288C74.9082 46.8533 75.2229 47.7173 75.2229 48.88V54H73.7669ZM70.9829 54.096C70.3535 54.096 69.7989 53.9893 69.3189 53.776C68.8495 53.5627 68.4869 53.2693 68.2309 52.896C67.9749 52.512 67.8469 52.08 67.8469 51.6C67.8469 51.1413 67.9535 50.7253 68.1669 50.352C68.3909 49.9787 68.7482 49.68 69.2389 49.456C69.7402 49.232 70.4122 49.12 71.2549 49.12H73.9429V50.224H71.3189C70.5509 50.224 70.0335 50.352 69.7669 50.608C69.5002 50.864 69.3669 51.1733 69.3669 51.536C69.3669 51.952 69.5322 52.288 69.8629 52.544C70.1935 52.7893 70.6522 52.912 71.2389 52.912C71.8149 52.912 72.3162 52.784 72.7429 52.528C73.1802 52.272 73.4949 51.8987 73.6869 51.408L73.9909 52.464C73.7882 52.9653 73.4309 53.3653 72.9189 53.664C72.4069 53.952 71.7615 54.096 70.9829 54.096ZM81.5694 54.096C80.748 54.096 80.012 53.9147 79.3614 53.552C78.7214 53.1893 78.2147 52.6827 77.8414 52.032C77.468 51.3813 77.2814 50.624 77.2814 49.76C77.2814 48.896 77.468 48.144 77.8414 47.504C78.2147 46.8533 78.7214 46.3467 79.3614 45.984C80.012 45.6213 80.748 45.44 81.5694 45.44C82.284 45.44 82.9294 45.6 83.5054 45.92C84.0814 46.24 84.54 46.72 84.8814 47.36C85.2334 48 85.4094 48.8 85.4094 49.76C85.4094 50.72 85.2387 51.52 84.8974 52.16C84.5667 52.8 84.1134 53.2853 83.5374 53.616C82.9614 53.936 82.3054 54.096 81.5694 54.096ZM81.6974 52.752C82.2307 52.752 82.7107 52.6293 83.1374 52.384C83.5747 52.1387 83.916 51.792 84.1614 51.344C84.4174 50.8853 84.5454 50.3573 84.5454 49.76C84.5454 49.152 84.4174 48.6293 84.1614 48.192C83.916 47.744 83.5747 47.3973 83.1374 47.152C82.7107 46.9067 82.2307 46.784 81.6974 46.784C81.1534 46.784 80.668 46.9067 80.2414 47.152C79.8147 47.3973 79.4734 47.744 79.2174 48.192C78.9614 48.6293 78.8334 49.152 78.8334 49.76C78.8334 50.3573 78.9614 50.8853 79.2174 51.344C79.4734 51.792 79.8147 52.1387 80.2414 52.384C80.668 52.6293 81.1534 52.752 81.6974 52.752ZM84.5934 54V51.712L84.6894 49.744L84.5294 47.776V42.128H86.0654V54H84.5934ZM92.7476 54.096C91.841 54.096 91.041 53.9093 90.3476 53.536C89.665 53.1627 89.1316 52.6507 88.7476 52C88.3743 51.3493 88.1876 50.6027 88.1876 49.76C88.1876 48.9173 88.369 48.1707 88.7316 47.52C89.105 46.8693 89.6116 46.3627 90.2516 46C90.9023 45.6267 91.633 45.44 92.4436 45.44C93.265 45.44 93.9903 45.6213 94.6196 45.984C95.249 46.3467 95.7396 46.8587 96.0916 47.52C96.4543 48.1707 96.6356 48.9333 96.6356 49.808C96.6356 49.872 96.6303 49.9467 96.6196 50.032C96.6196 50.1173 96.6143 50.1973 96.6036 50.272H89.3876V49.168H95.8036L95.1796 49.552C95.1903 49.008 95.0783 48.5227 94.8436 48.096C94.609 47.6693 94.2836 47.3387 93.8676 47.104C93.4623 46.8587 92.9876 46.736 92.4436 46.736C91.9103 46.736 91.4356 46.8587 91.0196 47.104C90.6036 47.3387 90.2783 47.6747 90.0436 48.112C89.809 48.5387 89.6916 49.0293 89.6916 49.584V49.84C89.6916 50.4053 89.8196 50.912 90.0756 51.36C90.3423 51.7973 90.7103 52.1387 91.1796 52.384C91.649 52.6293 92.1876 52.752 92.7956 52.752C93.297 52.752 93.7503 52.6667 94.1556 52.496C94.5716 52.3253 94.9343 52.0693 95.2436 51.728L96.0916 52.72C95.7076 53.168 95.2276 53.5093 94.6516 53.744C94.0863 53.9787 93.4516 54.096 92.7476 54.096ZM101.201 54.096C100.497 54.096 99.8245 54 99.1845 53.808C98.5552 53.616 98.0592 53.3813 97.6965 53.104L98.3365 51.888C98.6992 52.1333 99.1472 52.3413 99.6805 52.512C100.214 52.6827 100.758 52.768 101.312 52.768C102.027 52.768 102.539 52.6667 102.849 52.464C103.169 52.2613 103.329 51.9787 103.329 51.616C103.329 51.3493 103.233 51.1413 103.041 50.992C102.849 50.8427 102.593 50.7307 102.273 50.656C101.963 50.5813 101.617 50.5173 101.233 50.464C100.849 50.4 100.465 50.3253 100.081 50.24C99.6965 50.144 99.3445 50.016 99.0245 49.856C98.7045 49.6853 98.4485 49.456 98.2565 49.168C98.0645 48.8693 97.9685 48.4747 97.9685 47.984C97.9685 47.472 98.1125 47.024 98.4005 46.64C98.6885 46.256 99.0938 45.9627 99.6165 45.76C100.15 45.5467 100.779 45.44 101.505 45.44C102.059 45.44 102.619 45.5093 103.185 45.648C103.761 45.776 104.23 45.9627 104.593 46.208L103.937 47.424C103.553 47.168 103.153 46.992 102.737 46.896C102.321 46.8 101.905 46.752 101.489 46.752C100.817 46.752 100.315 46.864 99.9845 47.088C99.6538 47.3013 99.4885 47.5787 99.4885 47.92C99.4885 48.208 99.5845 48.432 99.7765 48.592C99.9792 48.7413 100.235 48.8587 100.545 48.944C100.865 49.0293 101.217 49.104 101.601 49.168C101.985 49.2213 102.369 49.296 102.753 49.392C103.137 49.4773 103.483 49.6 103.793 49.76C104.113 49.92 104.369 50.144 104.561 50.432C104.763 50.72 104.865 51.104 104.865 51.584C104.865 52.096 104.715 52.5387 104.417 52.912C104.118 53.2853 103.697 53.5787 103.153 53.792C102.609 53.9947 101.958 54.096 101.201 54.096ZM112.281 54V43.44L112.969 44.192H109.753V42.8H113.865V54H112.281ZM19.984 81L25.056 69.8H26.64L31.728 81H30.048L25.52 70.696H26.16L21.632 81H19.984ZM22.144 78.2L22.576 76.92H28.88L29.344 78.2H22.144ZM34.9613 81L31.2492 72.52H32.8493L36.1453 80.2H35.3773L38.7373 72.52H40.2413L36.5293 81H34.9613ZM46.6731 81V79.208L46.5931 78.872V75.816C46.5931 75.1653 46.4011 74.664 46.0171 74.312C45.6438 73.9493 45.0785 73.768 44.3211 73.768C43.8198 73.768 43.3291 73.8533 42.8491 74.024C42.3691 74.184 41.9638 74.4027 41.6331 74.68L40.9931 73.528C41.4305 73.176 41.9531 72.9093 42.5611 72.728C43.1798 72.536 43.8251 72.44 44.4971 72.44C45.6598 72.44 46.5558 72.7227 47.1851 73.288C47.8145 73.8533 48.1291 74.7173 48.1291 75.88V81H46.6731ZM43.8891 81.096C43.2598 81.096 42.7051 80.9893 42.2251 80.776C41.7558 80.5627 41.3931 80.2693 41.1371 79.896C40.8811 79.512 40.7531 79.08 40.7531 78.6C40.7531 78.1413 40.8598 77.7253 41.0731 77.352C41.2971 76.9787 41.6545 76.68 42.1451 76.456C42.6465 76.232 43.3185 76.12 44.1611 76.12H46.8491V77.224H44.2251C43.4571 77.224 42.9398 77.352 42.6731 77.608C42.4065 77.864 42.2731 78.1733 42.2731 78.536C42.2731 78.952 42.4385 79.288 42.7691 79.544C43.0998 79.7893 43.5585 79.912 44.1451 79.912C44.7211 79.912 45.2225 79.784 45.6491 79.528C46.0865 79.272 46.4011 78.8987 46.5931 78.408L46.8971 79.464C46.6945 79.9653 46.3371 80.3653 45.8251 80.664C45.3131 80.952 44.6678 81.096 43.8891 81.096ZM50.9716 81V69.128H52.5076V81H50.9716ZM55.4404 81V72.52H56.9764V81H55.4404ZM56.2084 70.888C55.9097 70.888 55.659 70.792 55.4564 70.6C55.2644 70.408 55.1684 70.1733 55.1684 69.896C55.1684 69.608 55.2644 69.368 55.4564 69.176C55.659 68.984 55.9097 68.888 56.2084 68.888C56.507 68.888 56.7524 68.984 56.9444 69.176C57.147 69.3573 57.2484 69.5867 57.2484 69.864C57.2484 70.152 57.1524 70.3973 56.9604 70.6C56.7684 70.792 56.5177 70.888 56.2084 70.888ZM65.1731 81V79.208L65.0931 78.872V75.816C65.0931 75.1653 64.9011 74.664 64.5171 74.312C64.1438 73.9493 63.5785 73.768 62.8211 73.768C62.3198 73.768 61.8291 73.8533 61.3491 74.024C60.8691 74.184 60.4638 74.4027 60.1331 74.68L59.4931 73.528C59.9305 73.176 60.4531 72.9093 61.0611 72.728C61.6798 72.536 62.3251 72.44 62.9971 72.44C64.1598 72.44 65.0558 72.7227 65.6851 73.288C66.3145 73.8533 66.6291 74.7173 66.6291 75.88V81H65.1731ZM62.3891 81.096C61.7598 81.096 61.2051 80.9893 60.7251 80.776C60.2558 80.5627 59.8931 80.2693 59.6371 79.896C59.3811 79.512 59.2531 79.08 59.2531 78.6C59.2531 78.1413 59.3598 77.7253 59.5731 77.352C59.7971 76.9787 60.1545 76.68 60.6451 76.456C61.1465 76.232 61.8185 76.12 62.6611 76.12H65.3491V77.224H62.7251C61.9571 77.224 61.4398 77.352 61.1731 77.608C60.9065 77.864 60.7731 78.1733 60.7731 78.536C60.7731 78.952 60.9385 79.288 61.2691 79.544C61.5998 79.7893 62.0585 79.912 62.6451 79.912C63.2211 79.912 63.7225 79.784 64.1491 79.528C64.5865 79.272 64.9011 78.8987 65.0931 78.408L65.3971 79.464C65.1945 79.9653 64.8371 80.3653 64.3251 80.664C63.8131 80.952 63.1678 81.096 62.3891 81.096ZM73.1676 81.096C72.3036 81.096 71.5303 80.9093 70.8476 80.536C70.1756 80.1627 69.6476 79.6507 69.2636 79C68.8796 78.3493 68.6876 77.6027 68.6876 76.76C68.6876 75.9173 68.8796 75.1707 69.2636 74.52C69.6476 73.8693 70.1756 73.3627 70.8476 73C71.5303 72.6267 72.3036 72.44 73.1676 72.44C73.9356 72.44 74.6183 72.5947 75.2156 72.904C75.8236 73.2027 76.293 73.6507 76.6236 74.248L75.4556 75C75.1783 74.584 74.837 74.28 74.4316 74.088C74.037 73.8853 73.6103 73.784 73.1516 73.784C72.597 73.784 72.101 73.9067 71.6636 74.152C71.2263 74.3973 70.8796 74.744 70.6236 75.192C70.3676 75.6293 70.2396 76.152 70.2396 76.76C70.2396 77.368 70.3676 77.896 70.6236 78.344C70.8796 78.792 71.2263 79.1387 71.6636 79.384C72.101 79.6293 72.597 79.752 73.1516 79.752C73.6103 79.752 74.037 79.656 74.4316 79.464C74.837 79.2613 75.1783 78.952 75.4556 78.536L76.6236 79.272C76.293 79.8587 75.8236 80.312 75.2156 80.632C74.6183 80.9413 73.9356 81.096 73.1676 81.096ZM72.4156 84.584C72.1383 84.584 71.8823 84.552 71.6476 84.488C71.413 84.4347 71.1943 84.3493 70.9916 84.232L71.3276 83.448C71.4983 83.544 71.669 83.6133 71.8396 83.656C72.021 83.6987 72.213 83.72 72.4156 83.72C72.725 83.72 72.949 83.6613 73.0876 83.544C73.237 83.4373 73.3116 83.2827 73.3116 83.08C73.3116 82.888 73.237 82.7333 73.0876 82.616C72.949 82.5093 72.7196 82.456 72.3996 82.456H71.9676L72.3676 80.888H73.2476L73.0076 81.8C73.4663 81.8427 73.813 81.9867 74.0476 82.232C74.2823 82.4773 74.3996 82.776 74.3996 83.128C74.3996 83.576 74.2183 83.928 73.8556 84.184C73.493 84.4507 73.013 84.584 72.4156 84.584ZM83.8763 81V79.208L83.7963 78.872V75.816C83.7963 75.1653 83.6043 74.664 83.2203 74.312C82.8469 73.9493 82.2816 73.768 81.5243 73.768C81.0229 73.768 80.5323 73.8533 80.0523 74.024C79.5723 74.184 79.1669 74.4027 78.8363 74.68L78.1963 73.528C78.6336 73.176 79.1563 72.9093 79.7643 72.728C80.3829 72.536 81.0283 72.44 81.7003 72.44C82.8629 72.44 83.7589 72.7227 84.3883 73.288C85.0176 73.8533 85.3323 74.7173 85.3323 75.88V81H83.8763ZM81.0923 81.096C80.4629 81.096 79.9083 80.9893 79.4283 80.776C78.9589 80.5627 78.5963 80.2693 78.3403 79.896C78.0843 79.512 77.9563 79.08 77.9563 78.6C77.9563 78.1413 78.0629 77.7253 78.2763 77.352C78.5003 76.9787 78.8576 76.68 79.3483 76.456C79.8496 76.232 80.5216 76.12 81.3643 76.12H84.0523V77.224H81.4283C80.6603 77.224 80.1429 77.352 79.8763 77.608C79.6096 77.864 79.4763 78.1733 79.4763 78.536C79.4763 78.952 79.6416 79.288 79.9723 79.544C80.3029 79.7893 80.7616 79.912 81.3483 79.912C81.9243 79.912 82.4256 79.784 82.8523 79.528C83.2896 79.272 83.6043 78.8987 83.7963 78.408L84.1003 79.464C83.8976 79.9653 83.5403 80.3653 83.0283 80.664C82.5163 80.952 81.8709 81.096 81.0923 81.096ZM82.9323 71.24C82.6763 71.24 82.4469 71.1867 82.2443 71.08C82.0523 70.9733 81.8763 70.8507 81.7163 70.712C81.5563 70.5627 81.4016 70.4347 81.2523 70.328C81.1029 70.2213 80.9536 70.168 80.8043 70.168C80.5696 70.168 80.3776 70.2587 80.2283 70.44C80.0896 70.6107 80.0096 70.8507 79.9883 71.16H79.1243C79.1456 70.5627 79.2949 70.088 79.5723 69.736C79.8496 69.384 80.2229 69.208 80.6923 69.208C80.9483 69.208 81.1776 69.2667 81.3802 69.384C81.5829 69.4907 81.7643 69.6187 81.9243 69.768C82.0843 69.9067 82.2336 70.0293 82.3723 70.136C82.5216 70.2427 82.6709 70.296 82.8203 70.296C83.0549 70.296 83.2469 70.2107 83.3963 70.04C83.5456 69.8693 83.6256 69.6347 83.6363 69.336H84.5003C84.4896 69.9013 84.3403 70.36 84.0523 70.712C83.7749 71.064 83.4016 71.24 82.9323 71.24ZM91.8068 81.096C90.9534 81.096 90.1961 80.9093 89.5348 80.536C88.8734 80.1627 88.3508 79.6507 87.9668 79C87.5828 78.3387 87.3908 77.592 87.3908 76.76C87.3908 75.9173 87.5828 75.1707 87.9668 74.52C88.3508 73.8693 88.8734 73.3627 89.5348 73C90.1961 72.6267 90.9534 72.44 91.8068 72.44C92.6494 72.44 93.4014 72.6267 94.0628 73C94.7348 73.3627 95.2574 73.8693 95.6308 74.52C96.0148 75.16 96.2068 75.9067 96.2068 76.76C96.2068 77.6027 96.0148 78.3493 95.6308 79C95.2574 79.6507 94.7348 80.1627 94.0628 80.536C93.4014 80.9093 92.6494 81.096 91.8068 81.096ZM91.8068 79.752C92.3508 79.752 92.8361 79.6293 93.2628 79.384C93.7001 79.1387 94.0414 78.792 94.2868 78.344C94.5321 77.8853 94.6548 77.3573 94.6548 76.76C94.6548 76.152 94.5321 75.6293 94.2868 75.192C94.0414 74.744 93.7001 74.3973 93.2628 74.152C92.8361 73.9067 92.3508 73.784 91.8068 73.784C91.2628 73.784 90.7774 73.9067 90.3508 74.152C89.9241 74.3973 89.5828 74.744 89.3268 75.192C89.0708 75.6293 88.9428 76.152 88.9428 76.76C88.9428 77.3573 89.0708 77.8853 89.3268 78.344C89.5828 78.792 89.9241 79.1387 90.3508 79.384C90.7774 79.6293 91.2628 79.752 91.8068 79.752ZM21.68 108V96.8H26.048C27.0293 96.8 27.8667 96.9547 28.56 97.264C29.2533 97.5733 29.7867 98.0213 30.16 98.608C30.5333 99.1947 30.72 99.8933 30.72 100.704C30.72 101.515 30.5333 102.213 30.16 102.8C29.7867 103.376 29.2533 103.824 28.56 104.144C27.8667 104.453 27.0293 104.608 26.048 104.608H22.56L23.28 103.856V108H21.68ZM23.28 104.016L22.56 103.216H26C27.024 103.216 27.7973 102.997 28.32 102.56C28.8533 102.123 29.12 101.504 29.12 100.704C29.12 99.904 28.8533 99.2853 28.32 98.848C27.7973 98.4107 27.024 98.192 26 98.192H22.56L23.28 97.392V104.016ZM32.6904 108V99.52H34.1624V101.824L34.0184 101.248C34.253 100.661 34.6477 100.213 35.2024 99.904C35.757 99.5947 36.4397 99.44 37.2504 99.44V100.928C37.1864 100.917 37.1224 100.912 37.0584 100.912C37.005 100.912 36.9517 100.912 36.8984 100.912C36.077 100.912 35.4264 101.157 34.9464 101.648C34.4664 102.139 34.2264 102.848 34.2264 103.776V108H32.6904ZM42.6974 108.096C41.844 108.096 41.0867 107.909 40.4254 107.536C39.764 107.163 39.2414 106.651 38.8574 106C38.4734 105.339 38.2814 104.592 38.2814 103.76C38.2814 102.917 38.4734 102.171 38.8574 101.52C39.2414 100.869 39.764 100.363 40.4254 100C41.0867 99.6267 41.844 99.44 42.6974 99.44C43.54 99.44 44.292 99.6267 44.9534 100C45.6254 100.363 46.148 100.869 46.5214 101.52C46.9054 102.16 47.0974 102.907 47.0974 103.76C47.0974 104.603 46.9054 105.349 46.5214 106C46.148 106.651 45.6254 107.163 44.9534 107.536C44.292 107.909 43.54 108.096 42.6974 108.096ZM42.6974 106.752C43.2414 106.752 43.7267 106.629 44.1534 106.384C44.5907 106.139 44.932 105.792 45.1774 105.344C45.4227 104.885 45.5454 104.357 45.5454 103.76C45.5454 103.152 45.4227 102.629 45.1774 102.192C44.932 101.744 44.5907 101.397 44.1534 101.152C43.7267 100.907 43.2414 100.784 42.6974 100.784C42.1534 100.784 41.668 100.907 41.2414 101.152C40.8147 101.397 40.4734 101.744 40.2174 102.192C39.9614 102.629 39.8334 103.152 39.8334 103.76C39.8334 104.357 39.9614 104.885 40.2174 105.344C40.4734 105.792 40.8147 106.139 41.2414 106.384C41.668 106.629 42.1534 106.752 42.6974 106.752ZM48.1336 111.2C47.7816 111.2 47.4456 111.157 47.1256 111.072C46.795 110.987 46.5176 110.859 46.2936 110.688L46.7896 109.504C47.1096 109.771 47.5256 109.904 48.0376 109.904C48.443 109.904 48.7523 109.776 48.9656 109.52C49.1896 109.275 49.3016 108.907 49.3016 108.416V99.52H50.8376V108.384C50.8376 109.248 50.603 109.931 50.1336 110.432C49.675 110.944 49.0083 111.2 48.1336 111.2ZM50.0696 97.888C49.771 97.888 49.5203 97.792 49.3176 97.6C49.1256 97.408 49.0296 97.1733 49.0296 96.896C49.0296 96.608 49.1256 96.368 49.3176 96.176C49.5203 95.984 49.771 95.888 50.0696 95.888C50.3683 95.888 50.6136 95.984 50.8056 96.176C51.0083 96.3573 51.1096 96.5867 51.1096 96.864C51.1096 97.152 51.0136 97.3973 50.8216 97.6C50.6296 97.792 50.379 97.888 50.0696 97.888ZM57.5445 108.096C56.6378 108.096 55.8378 107.909 55.1445 107.536C54.4618 107.163 53.9285 106.651 53.5445 106C53.1712 105.349 52.9845 104.603 52.9845 103.76C52.9845 102.917 53.1658 102.171 53.5285 101.52C53.9018 100.869 54.4085 100.363 55.0485 100C55.6992 99.6267 56.4298 99.44 57.2405 99.44C58.0618 99.44 58.7872 99.6213 59.4165 99.984C60.0458 100.347 60.5365 100.859 60.8885 101.52C61.2512 102.171 61.4325 102.933 61.4325 103.808C61.4325 103.872 61.4272 103.947 61.4165 104.032C61.4165 104.117 61.4112 104.197 61.4005 104.272H54.1845V103.168H60.6005L59.9765 103.552C59.9872 103.008 59.8752 102.523 59.6405 102.096C59.4058 101.669 59.0805 101.339 58.6645 101.104C58.2592 100.859 57.7845 100.736 57.2405 100.736C56.7072 100.736 56.2325 100.859 55.8165 101.104C55.4005 101.339 55.0752 101.675 54.8405 102.112C54.6058 102.539 54.4885 103.029 54.4885 103.584V103.84C54.4885 104.405 54.6165 104.912 54.8725 105.36C55.1392 105.797 55.5072 106.139 55.9765 106.384C56.4458 106.629 56.9845 106.752 57.5925 106.752C58.0938 106.752 58.5472 106.667 58.9525 106.496C59.3685 106.325 59.7312 106.069 60.0405 105.728L60.8885 106.72C60.5045 107.168 60.0245 107.509 59.4485 107.744C58.8832 107.979 58.2485 108.096 57.5445 108.096ZM66.4774 108.096C65.624 108.096 64.9627 107.867 64.4934 107.408C64.024 106.949 63.7894 106.293 63.7894 105.44V97.664H65.3254V105.376C65.3254 105.835 65.4374 106.187 65.6614 106.432C65.896 106.677 66.2267 106.8 66.6534 106.8C67.1334 106.8 67.5334 106.667 67.8534 106.4L68.3334 107.504C68.0987 107.707 67.816 107.856 67.4854 107.952C67.1654 108.048 66.8294 108.096 66.4774 108.096ZM62.3494 100.784V99.52H67.7574V100.784H62.3494ZM73.5411 108.096C72.6878 108.096 71.9305 107.909 71.2691 107.536C70.6078 107.163 70.0851 106.651 69.7011 106C69.3171 105.339 69.1251 104.592 69.1251 103.76C69.1251 102.917 69.3171 102.171 69.7011 101.52C70.0851 100.869 70.6078 100.363 71.2691 100C71.9305 99.6267 72.6878 99.44 73.5411 99.44C74.3838 99.44 75.1358 99.6267 75.7971 100C76.4691 100.363 76.9918 100.869 77.3651 101.52C77.7491 102.16 77.9411 102.907 77.9411 103.76C77.9411 104.603 77.7491 105.349 77.3651 106C76.9918 106.651 76.4691 107.163 75.7971 107.536C75.1358 107.909 74.3838 108.096 73.5411 108.096ZM73.5411 106.752C74.0851 106.752 74.5705 106.629 74.9971 106.384C75.4345 106.139 75.7758 105.792 76.0211 105.344C76.2665 104.885 76.3891 104.357 76.3891 103.76C76.3891 103.152 76.2665 102.629 76.0211 102.192C75.7758 101.744 75.4345 101.397 74.9971 101.152C74.5705 100.907 74.0851 100.784 73.5411 100.784C72.9971 100.784 72.5118 100.907 72.0851 101.152C71.6585 101.397 71.3171 101.744 71.0611 102.192C70.8051 102.629 70.6771 103.152 70.6771 103.76C70.6771 104.357 70.8051 104.885 71.0611 105.344C71.3171 105.792 71.6585 106.139 72.0851 106.384C72.5118 106.629 72.9971 106.752 73.5411 106.752ZM82.4974 108.096C81.7934 108.096 81.1214 108 80.4814 107.808C79.852 107.616 79.356 107.381 78.9934 107.104L79.6334 105.888C79.996 106.133 80.444 106.341 80.9774 106.512C81.5107 106.683 82.0547 106.768 82.6094 106.768C83.324 106.768 83.836 106.667 84.1454 106.464C84.4654 106.261 84.6254 105.979 84.6254 105.616C84.6254 105.349 84.5294 105.141 84.3374 104.992C84.1454 104.843 83.8894 104.731 83.5694 104.656C83.26 104.581 82.9134 104.517 82.5294 104.464C82.1454 104.4 81.7614 104.325 81.3774 104.24C80.9934 104.144 80.6414 104.016 80.3214 103.856C80.0014 103.685 79.7454 103.456 79.5534 103.168C79.3614 102.869 79.2654 102.475 79.2654 101.984C79.2654 101.472 79.4094 101.024 79.6974 100.64C79.9854 100.256 80.3907 99.9627 80.9134 99.76C81.4467 99.5467 82.076 99.44 82.8014 99.44C83.356 99.44 83.916 99.5093 84.4814 99.648C85.0574 99.776 85.5267 99.9627 85.8894 100.208L85.2334 101.424C84.8494 101.168 84.4494 100.992 84.0334 100.896C83.6174 100.8 83.2014 100.752 82.7854 100.752C82.1134 100.752 81.612 100.864 81.2814 101.088C80.9507 101.301 80.7854 101.579 80.7854 101.92C80.7854 102.208 80.8814 102.432 81.0734 102.592C81.276 102.741 81.532 102.859 81.8414 102.944C82.1614 103.029 82.5134 103.104 82.8974 103.168C83.2814 103.221 83.6654 103.296 84.0494 103.392C84.4334 103.477 84.78 103.6 85.0894 103.76C85.4094 103.92 85.6654 104.144 85.8574 104.432C86.06 104.72 86.1614 105.104 86.1614 105.584C86.1614 106.096 86.012 106.539 85.7134 106.912C85.4147 107.285 84.9934 107.579 84.4494 107.792C83.9054 107.995 83.2547 108.096 82.4974 108.096ZM19.984 135L25.056 123.8H26.64L31.728 135H30.048L25.52 124.696H26.16L21.632 135H19.984ZM22.144 132.2L22.576 130.92H28.88L29.344 132.2H22.144ZM36.0086 135.096C35.1553 135.096 34.494 134.867 34.0246 134.408C33.5553 133.949 33.3206 133.293 33.3206 132.44V124.664H34.8566V132.376C34.8566 132.835 34.9686 133.187 35.1926 133.432C35.4273 133.677 35.758 133.8 36.1846 133.8C36.6646 133.8 37.0646 133.667 37.3846 133.4L37.8646 134.504C37.63 134.707 37.3473 134.856 37.0166 134.952C36.6966 135.048 36.3606 135.096 36.0086 135.096ZM31.8806 127.784V126.52H37.2886V127.784H31.8806ZM39.7216 135V126.52H41.2576V135H39.7216ZM40.4896 124.888C40.191 124.888 39.9403 124.792 39.7376 124.6C39.5456 124.408 39.4496 124.173 39.4496 123.896C39.4496 123.608 39.5456 123.368 39.7376 123.176C39.9403 122.984 40.191 122.888 40.4896 122.888C40.7883 122.888 41.0336 122.984 41.2256 123.176C41.4283 123.357 41.5296 123.587 41.5296 123.864C41.5296 124.152 41.4336 124.397 41.2416 124.6C41.0496 124.792 40.799 124.888 40.4896 124.888ZM46.4144 135L42.7024 126.52H44.3024L47.5984 134.2H46.8304L50.1904 126.52H51.6944L47.9824 135H46.4144ZM53.1279 135V126.52H54.6639V135H53.1279ZM53.8959 124.888C53.5972 124.888 53.3465 124.792 53.1439 124.6C52.9519 124.408 52.8559 124.173 52.8559 123.896C52.8559 123.608 52.9519 123.368 53.1439 123.176C53.3465 122.984 53.5972 122.888 53.8959 122.888C54.1945 122.888 54.4399 122.984 54.6319 123.176C54.8345 123.357 54.9359 123.587 54.9359 123.864C54.9359 124.152 54.8399 124.397 54.6479 124.6C54.4559 124.792 54.2052 124.888 53.8959 124.888ZM61.1006 135.096C60.2793 135.096 59.5433 134.915 58.8926 134.552C58.2526 134.189 57.746 133.683 57.3726 133.032C56.9993 132.381 56.8126 131.624 56.8126 130.76C56.8126 129.896 56.9993 129.144 57.3726 128.504C57.746 127.853 58.2526 127.347 58.8926 126.984C59.5433 126.621 60.2793 126.44 61.1006 126.44C61.8153 126.44 62.4606 126.6 63.0366 126.92C63.6126 127.24 64.0713 127.72 64.4126 128.36C64.7646 129 64.9406 129.8 64.9406 130.76C64.9406 131.72 64.77 132.52 64.4286 133.16C64.098 133.8 63.6446 134.285 63.0686 134.616C62.4926 134.936 61.8366 135.096 61.1006 135.096ZM61.2286 133.752C61.762 133.752 62.242 133.629 62.6686 133.384C63.106 133.139 63.4473 132.792 63.6926 132.344C63.9486 131.885 64.0766 131.357 64.0766 130.76C64.0766 130.152 63.9486 129.629 63.6926 129.192C63.4473 128.744 63.106 128.397 62.6686 128.152C62.242 127.907 61.762 127.784 61.2286 127.784C60.6846 127.784 60.1993 127.907 59.7726 128.152C59.346 128.397 59.0046 128.744 58.7486 129.192C58.4926 129.629 58.3646 130.152 58.3646 130.76C58.3646 131.357 58.4926 131.885 58.7486 132.344C59.0046 132.792 59.346 133.139 59.7726 133.384C60.1993 133.629 60.6846 133.752 61.2286 133.752ZM64.1246 135V132.712L64.2206 130.744L64.0606 128.776V123.128H65.5966V135H64.1246ZM73.7669 135V133.208L73.6869 132.872V129.816C73.6869 129.165 73.4949 128.664 73.1109 128.312C72.7375 127.949 72.1722 127.768 71.4149 127.768C70.9135 127.768 70.4229 127.853 69.9429 128.024C69.4629 128.184 69.0575 128.403 68.7269 128.68L68.0869 127.528C68.5242 127.176 69.0469 126.909 69.6549 126.728C70.2735 126.536 70.9189 126.44 71.5909 126.44C72.7535 126.44 73.6495 126.723 74.2789 127.288C74.9082 127.853 75.2229 128.717 75.2229 129.88V135H73.7669ZM70.9829 135.096C70.3535 135.096 69.7989 134.989 69.3189 134.776C68.8495 134.563 68.4869 134.269 68.2309 133.896C67.9749 133.512 67.8469 133.08 67.8469 132.6C67.8469 132.141 67.9535 131.725 68.1669 131.352C68.3909 130.979 68.7482 130.68 69.2389 130.456C69.7402 130.232 70.4122 130.12 71.2549 130.12H73.9429V131.224H71.3189C70.5509 131.224 70.0335 131.352 69.7669 131.608C69.5002 131.864 69.3669 132.173 69.3669 132.536C69.3669 132.952 69.5322 133.288 69.8629 133.544C70.1935 133.789 70.6522 133.912 71.2389 133.912C71.8149 133.912 72.3162 133.784 72.7429 133.528C73.1802 133.272 73.4949 132.899 73.6869 132.408L73.9909 133.464C73.7882 133.965 73.4309 134.365 72.9189 134.664C72.4069 134.952 71.7615 135.096 70.9829 135.096ZM81.5694 135.096C80.748 135.096 80.012 134.915 79.3614 134.552C78.7214 134.189 78.2147 133.683 77.8414 133.032C77.468 132.381 77.2814 131.624 77.2814 130.76C77.2814 129.896 77.468 129.144 77.8414 128.504C78.2147 127.853 78.7214 127.347 79.3614 126.984C80.012 126.621 80.748 126.44 81.5694 126.44C82.284 126.44 82.9294 126.6 83.5054 126.92C84.0814 127.24 84.54 127.72 84.8814 128.36C85.2334 129 85.4094 129.8 85.4094 130.76C85.4094 131.72 85.2387 132.52 84.8974 133.16C84.5667 133.8 84.1134 134.285 83.5374 134.616C82.9614 134.936 82.3054 135.096 81.5694 135.096ZM81.6974 133.752C82.2307 133.752 82.7107 133.629 83.1374 133.384C83.5747 133.139 83.916 132.792 84.1614 132.344C84.4174 131.885 84.5454 131.357 84.5454 130.76C84.5454 130.152 84.4174 129.629 84.1614 129.192C83.916 128.744 83.5747 128.397 83.1374 128.152C82.7107 127.907 82.2307 127.784 81.6974 127.784C81.1534 127.784 80.668 127.907 80.2414 128.152C79.8147 128.397 79.4734 128.744 79.2174 129.192C78.9614 129.629 78.8334 130.152 78.8334 130.76C78.8334 131.357 78.9614 131.885 79.2174 132.344C79.4734 132.792 79.8147 133.139 80.2414 133.384C80.668 133.629 81.1534 133.752 81.6974 133.752ZM84.5934 135V132.712L84.6894 130.744L84.5294 128.776V123.128H86.0654V135H84.5934ZM92.7476 135.096C91.841 135.096 91.041 134.909 90.3476 134.536C89.665 134.163 89.1316 133.651 88.7476 133C88.3743 132.349 88.1876 131.603 88.1876 130.76C88.1876 129.917 88.369 129.171 88.7316 128.52C89.105 127.869 89.6116 127.363 90.2516 127C90.9023 126.627 91.633 126.44 92.4436 126.44C93.265 126.44 93.9903 126.621 94.6196 126.984C95.249 127.347 95.7396 127.859 96.0916 128.52C96.4543 129.171 96.6356 129.933 96.6356 130.808C96.6356 130.872 96.6303 130.947 96.6196 131.032C96.6196 131.117 96.6143 131.197 96.6036 131.272H89.3876V130.168H95.8036L95.1796 130.552C95.1903 130.008 95.0783 129.523 94.8436 129.096C94.609 128.669 94.2836 128.339 93.8676 128.104C93.4623 127.859 92.9876 127.736 92.4436 127.736C91.9103 127.736 91.4356 127.859 91.0196 128.104C90.6036 128.339 90.2783 128.675 90.0436 129.112C89.809 129.539 89.6916 130.029 89.6916 130.584V130.84C89.6916 131.405 89.8196 131.912 90.0756 132.36C90.3423 132.797 90.7103 133.139 91.1796 133.384C91.649 133.629 92.1876 133.752 92.7956 133.752C93.297 133.752 93.7503 133.667 94.1556 133.496C94.5716 133.325 94.9343 133.069 95.2436 132.728L96.0916 133.72C95.7076 134.168 95.2276 134.509 94.6516 134.744C94.0863 134.979 93.4516 135.096 92.7476 135.096ZM101.201 135.096C100.497 135.096 99.8245 135 99.1845 134.808C98.5552 134.616 98.0592 134.381 97.6965 134.104L98.3365 132.888C98.6992 133.133 99.1472 133.341 99.6805 133.512C100.214 133.683 100.758 133.768 101.312 133.768C102.027 133.768 102.539 133.667 102.849 133.464C103.169 133.261 103.329 132.979 103.329 132.616C103.329 132.349 103.233 132.141 103.041 131.992C102.849 131.843 102.593 131.731 102.273 131.656C101.963 131.581 101.617 131.517 101.233 131.464C100.849 131.4 100.465 131.325 100.081 131.24C99.6965 131.144 99.3445 131.016 99.0245 130.856C98.7045 130.685 98.4485 130.456 98.2565 130.168C98.0645 129.869 97.9685 129.475 97.9685 128.984C97.9685 128.472 98.1125 128.024 98.4005 127.64C98.6885 127.256 99.0938 126.963 99.6165 126.76C100.15 126.547 100.779 126.44 101.505 126.44C102.059 126.44 102.619 126.509 103.185 126.648C103.761 126.776 104.23 126.963 104.593 127.208L103.937 128.424C103.553 128.168 103.153 127.992 102.737 127.896C102.321 127.8 101.905 127.752 101.489 127.752C100.817 127.752 100.315 127.864 99.9845 128.088C99.6538 128.301 99.4885 128.579 99.4885 128.92C99.4885 129.208 99.5845 129.432 99.7765 129.592C99.9792 129.741 100.235 129.859 100.545 129.944C100.865 130.029 101.217 130.104 101.601 130.168C101.985 130.221 102.369 130.296 102.753 130.392C103.137 130.477 103.483 130.6 103.793 130.76C104.113 130.92 104.369 131.144 104.561 131.432C104.763 131.72 104.865 132.104 104.865 132.584C104.865 133.096 104.715 133.539 104.417 133.912C104.118 134.285 103.697 134.579 103.153 134.792C102.609 134.995 101.958 135.096 101.201 135.096ZM110.217 135V133.912L114.777 129.512C115.182 129.128 115.481 128.792 115.673 128.504C115.876 128.205 116.009 127.933 116.073 127.688C116.148 127.432 116.185 127.187 116.185 126.952C116.185 126.376 115.982 125.923 115.577 125.592C115.172 125.261 114.58 125.096 113.801 125.096C113.204 125.096 112.665 125.197 112.185 125.4C111.705 125.592 111.289 125.896 110.937 126.312L109.849 125.368C110.276 124.824 110.846 124.408 111.561 124.12C112.286 123.821 113.081 123.672 113.945 123.672C114.724 123.672 115.401 123.8 115.977 124.056C116.553 124.301 116.996 124.659 117.305 125.128C117.625 125.597 117.785 126.152 117.785 126.792C117.785 127.155 117.737 127.512 117.641 127.864C117.545 128.216 117.364 128.589 117.097 128.984C116.83 129.379 116.446 129.821 115.945 130.312L111.881 134.232L111.497 133.608H118.265V135H110.217ZM21.504 162V150.8H23.216L28.112 158.976H27.216L32.032 150.8H33.744L33.76 162H31.792L31.776 153.888H32.192L28.096 160.72H27.168L23.008 153.888H23.488V162H21.504ZM40.6093 162.112C39.6599 162.112 38.8279 161.925 38.1133 161.552C37.4093 161.168 36.8599 160.645 36.4653 159.984C36.0813 159.323 35.8893 158.571 35.8893 157.728C35.8893 156.875 36.0759 156.123 36.4493 155.472C36.8333 154.811 37.3559 154.293 38.0173 153.92C38.6893 153.547 39.4519 153.36 40.3053 153.36C41.1373 153.36 41.8786 153.541 42.5293 153.904C43.1799 154.267 43.6919 154.779 44.0653 155.44C44.4386 156.101 44.6253 156.88 44.6253 157.776C44.6253 157.861 44.6199 157.957 44.6093 158.064C44.6093 158.171 44.6039 158.272 44.5933 158.368H37.4733V157.04H43.5373L42.7533 157.456C42.7639 156.965 42.6626 156.533 42.4493 156.16C42.2359 155.787 41.9426 155.493 41.5693 155.28C41.2066 155.067 40.7853 154.96 40.3053 154.96C39.8146 154.96 39.3826 155.067 39.0093 155.28C38.6466 155.493 38.3586 155.792 38.1453 156.176C37.9426 156.549 37.8413 156.992 37.8413 157.504V157.824C37.8413 158.336 37.9586 158.789 38.1933 159.184C38.4279 159.579 38.7586 159.883 39.1853 160.096C39.6119 160.309 40.1026 160.416 40.6573 160.416C41.1373 160.416 41.5693 160.341 41.9533 160.192C42.3373 160.043 42.6786 159.808 42.9773 159.488L44.0493 160.72C43.6653 161.168 43.1799 161.515 42.5933 161.76C42.0173 161.995 41.3559 162.112 40.6093 162.112ZM38.9133 152.288L41.0733 150.096H43.4253L40.6413 152.288H38.9133ZM50.1624 162.112C49.341 162.112 48.5997 161.931 47.9384 161.568C47.2877 161.195 46.7757 160.683 46.4024 160.032C46.029 159.381 45.8424 158.613 45.8424 157.728C45.8424 156.843 46.029 156.075 46.4024 155.424C46.7757 154.773 47.2877 154.267 47.9384 153.904C48.5997 153.541 49.341 153.36 50.1624 153.36C50.877 153.36 51.517 153.52 52.0824 153.84C52.6477 154.149 53.0957 154.624 53.4264 155.264C53.757 155.904 53.9224 156.725 53.9224 157.728C53.9224 158.72 53.7624 159.541 53.4424 160.192C53.1224 160.832 52.6797 161.312 52.1144 161.632C51.549 161.952 50.8984 162.112 50.1624 162.112ZM50.4024 160.4C50.8824 160.4 51.309 160.293 51.6824 160.08C52.0664 159.867 52.3704 159.557 52.5944 159.152C52.829 158.747 52.9464 158.272 52.9464 157.728C52.9464 157.173 52.829 156.699 52.5944 156.304C52.3704 155.899 52.0664 155.589 51.6824 155.376C51.309 155.163 50.8824 155.056 50.4024 155.056C49.9224 155.056 49.4904 155.163 49.1064 155.376C48.733 155.589 48.429 155.899 48.1944 156.304C47.9704 156.699 47.8584 157.173 47.8584 157.728C47.8584 158.272 47.9704 158.747 48.1944 159.152C48.429 159.557 48.733 159.867 49.1064 160.08C49.4904 160.293 49.9224 160.4 50.4024 160.4ZM52.9944 162V159.984L53.0744 157.712L52.9144 155.44V150.128H54.8984V162H52.9944ZM57.5308 162V153.456H59.5308V162H57.5308ZM58.5388 152.048C58.1654 152.048 57.8561 151.931 57.6108 151.696C57.3761 151.461 57.2588 151.179 57.2588 150.848C57.2588 150.507 57.3761 150.224 57.6108 150C57.8561 149.765 58.1654 149.648 58.5388 149.648C58.9121 149.648 59.2161 149.76 59.4508 149.984C59.6961 150.197 59.8188 150.469 59.8188 150.8C59.8188 151.152 59.7014 151.451 59.4668 151.696C59.2321 151.931 58.9228 152.048 58.5388 152.048ZM67.4198 162V160.272L67.3078 159.904V156.88C67.3078 156.293 67.1318 155.84 66.7798 155.52C66.4278 155.189 65.8944 155.024 65.1798 155.024C64.6998 155.024 64.2251 155.099 63.7558 155.248C63.2971 155.397 62.9078 155.605 62.5878 155.872L61.8038 154.416C62.2624 154.064 62.8064 153.803 63.4358 153.632C64.0758 153.451 64.7371 153.36 65.4198 153.36C66.6571 153.36 67.6118 153.659 68.2838 154.256C68.9664 154.843 69.3078 155.755 69.3078 156.992V162H67.4198ZM64.7318 162.112C64.0918 162.112 63.5318 162.005 63.0518 161.792C62.5718 161.568 62.1984 161.264 61.9318 160.88C61.6758 160.485 61.5478 160.043 61.5478 159.552C61.5478 159.072 61.6598 158.64 61.8838 158.256C62.1184 157.872 62.4971 157.568 63.0198 157.344C63.5424 157.12 64.2358 157.008 65.0998 157.008H67.5798V158.336H65.2438C64.5611 158.336 64.1024 158.448 63.8678 158.672C63.6331 158.885 63.5158 159.152 63.5158 159.472C63.5158 159.835 63.6598 160.123 63.9478 160.336C64.2358 160.549 64.6358 160.656 65.1478 160.656C65.6384 160.656 66.0758 160.544 66.4598 160.32C66.8544 160.096 67.1371 159.765 67.3078 159.328L67.6438 160.528C67.4518 161.029 67.1051 161.419 66.6038 161.696C66.1131 161.973 65.4891 162.112 64.7318 162.112Z" fill="#2A2828"/>
<path d="M265.4 38.672C266.413 38.672 267.267 38.8907 267.96 39.328C268.664 39.7653 269.197 40.4 269.56 41.232C269.923 42.0533 270.104 43.0613 270.104 44.256C270.104 45.5253 269.88 46.5973 269.432 47.472C268.984 48.3467 268.365 49.008 267.576 49.456C266.787 49.904 265.864 50.128 264.808 50.128C264.285 50.128 263.779 50.0747 263.288 49.968C262.808 49.8613 262.387 49.696 262.024 49.472L262.632 48.224C262.931 48.416 263.261 48.5547 263.624 48.64C263.997 48.7147 264.387 48.752 264.792 48.752C265.923 48.752 266.824 48.4 267.496 47.696C268.168 46.9813 268.504 45.9253 268.504 44.528C268.504 44.304 268.493 44.0373 268.472 43.728C268.451 43.4187 268.403 43.1147 268.328 42.816L268.856 43.36C268.707 43.8507 268.456 44.2667 268.104 44.608C267.763 44.9387 267.347 45.1893 266.856 45.36C266.376 45.52 265.848 45.6 265.272 45.6C264.536 45.6 263.88 45.4613 263.304 45.184C262.728 44.9067 262.275 44.5173 261.944 44.016C261.613 43.504 261.448 42.9013 261.448 42.208C261.448 41.4827 261.619 40.8587 261.96 40.336C262.312 39.8027 262.787 39.392 263.384 39.104C263.992 38.816 264.664 38.672 265.4 38.672ZM265.464 39.968C264.984 39.968 264.557 40.0587 264.184 40.24C263.811 40.4213 263.517 40.672 263.304 40.992C263.101 41.312 263 41.696 263 42.144C263 42.8053 263.229 43.3333 263.688 43.728C264.147 44.112 264.765 44.304 265.544 44.304C266.056 44.304 266.504 44.208 266.888 44.016C267.283 43.824 267.587 43.5627 267.8 43.232C268.024 42.9013 268.136 42.5333 268.136 42.128C268.136 41.7333 268.035 41.376 267.832 41.056C267.629 40.736 267.331 40.4747 266.936 40.272C266.541 40.0693 266.051 39.968 265.464 39.968ZM271.536 52.368L272.336 49.136L272.544 50.064C272.234 50.064 271.973 49.968 271.76 49.776C271.557 49.584 271.456 49.3227 271.456 48.992C271.456 48.672 271.557 48.4107 271.76 48.208C271.973 48.0053 272.229 47.904 272.528 47.904C272.837 47.904 273.088 48.0107 273.28 48.224C273.472 48.4267 273.568 48.6827 273.568 48.992C273.568 49.0987 273.557 49.2053 273.536 49.312C273.525 49.408 273.498 49.5253 273.456 49.664C273.424 49.792 273.37 49.952 273.296 50.144L272.544 52.368H271.536ZM278.697 50.128C277.907 50.128 277.139 50.0053 276.393 49.76C275.657 49.5147 275.054 49.184 274.585 48.768L275.321 47.504C275.694 47.856 276.179 48.144 276.777 48.368C277.374 48.592 278.009 48.704 278.681 48.704C279.534 48.704 280.19 48.5227 280.649 48.16C281.107 47.7973 281.337 47.312 281.337 46.704C281.337 46.288 281.235 45.9253 281.033 45.616C280.83 45.3067 280.478 45.072 279.977 44.912C279.486 44.7413 278.809 44.656 277.945 44.656H275.401L275.993 38.8H282.312V40.192H276.585L277.417 39.408L276.953 44.032L276.121 43.264H278.281C279.401 43.264 280.302 43.408 280.985 43.696C281.667 43.984 282.163 44.384 282.473 44.896C282.782 45.3973 282.937 45.9787 282.937 46.64C282.937 47.28 282.782 47.8667 282.473 48.4C282.163 48.9227 281.694 49.344 281.065 49.664C280.446 49.9733 279.657 50.128 278.697 50.128ZM266.136 77.128C265.229 77.128 264.445 76.9947 263.784 76.728C263.123 76.4613 262.611 76.0827 262.248 75.592C261.885 75.0907 261.704 74.504 261.704 73.832C261.704 73.1707 261.875 72.6107 262.216 72.152C262.568 71.6827 263.075 71.3307 263.736 71.096C264.397 70.8507 265.197 70.728 266.136 70.728C267.075 70.728 267.875 70.8507 268.536 71.096C269.208 71.3307 269.72 71.6827 270.072 72.152C270.424 72.6213 270.6 73.1813 270.6 73.832C270.6 74.504 270.419 75.0907 270.056 75.592C269.693 76.0827 269.176 76.4613 268.504 76.728C267.832 76.9947 267.043 77.128 266.136 77.128ZM266.136 75.832C267.032 75.832 267.731 75.6507 268.232 75.288C268.744 74.9147 269 74.4133 269 73.784C269 73.1653 268.744 72.68 268.232 72.328C267.731 71.9653 267.032 71.784 266.136 71.784C265.251 71.784 264.557 71.9653 264.056 72.328C263.555 72.68 263.304 73.1653 263.304 73.784C263.304 74.4133 263.555 74.9147 264.056 75.288C264.557 75.6507 265.251 75.832 266.136 75.832ZM266.136 71.592C265.283 71.592 264.557 71.48 263.96 71.256C263.363 71.0213 262.904 70.6907 262.584 70.264C262.264 69.8267 262.104 69.3093 262.104 68.712C262.104 68.0827 262.269 67.544 262.6 67.096C262.941 66.6373 263.416 66.2853 264.024 66.04C264.632 65.7947 265.336 65.672 266.136 65.672C266.947 65.672 267.656 65.7947 268.264 66.04C268.872 66.2853 269.347 66.6373 269.688 67.096C270.029 67.544 270.2 68.0827 270.2 68.712C270.2 69.3093 270.04 69.8267 269.72 70.264C269.4 70.6907 268.936 71.0213 268.328 71.256C267.72 71.48 266.989 71.592 266.136 71.592ZM266.136 70.568C266.915 70.568 267.523 70.408 267.96 70.088C268.408 69.768 268.632 69.3307 268.632 68.776C268.632 68.2107 268.403 67.768 267.944 67.448C267.485 67.128 266.883 66.968 266.136 66.968C265.389 66.968 264.792 67.128 264.344 67.448C263.907 67.768 263.688 68.2107 263.688 68.776C263.688 69.3307 263.901 69.768 264.328 70.088C264.765 70.408 265.368 70.568 266.136 70.568ZM272.301 79.368L273.101 76.136L273.309 77.064C273 77.064 272.738 76.968 272.525 76.776C272.322 76.584 272.221 76.3227 272.221 75.992C272.221 75.672 272.322 75.4107 272.525 75.208C272.738 75.0053 272.994 74.904 273.293 74.904C273.602 74.904 273.853 75.0107 274.045 75.224C274.237 75.4267 274.333 75.6827 274.333 75.992C274.333 76.0987 274.322 76.2053 274.301 76.312C274.29 76.408 274.264 76.5253 274.221 76.664C274.189 76.792 274.136 76.952 274.061 77.144L273.309 79.368H272.301ZM279.478 65.672C280.491 65.672 281.345 65.8907 282.038 66.328C282.742 66.7653 283.275 67.4 283.638 68.232C284.001 69.0533 284.182 70.0613 284.182 71.256C284.182 72.5253 283.958 73.5973 283.51 74.472C283.062 75.3467 282.443 76.008 281.654 76.456C280.865 76.904 279.942 77.128 278.886 77.128C278.363 77.128 277.857 77.0747 277.366 76.968C276.886 76.8613 276.465 76.696 276.102 76.472L276.71 75.224C277.009 75.416 277.339 75.5547 277.702 75.64C278.075 75.7147 278.465 75.752 278.87 75.752C280.001 75.752 280.902 75.4 281.574 74.696C282.246 73.9813 282.582 72.9253 282.582 71.528C282.582 71.304 282.571 71.0373 282.55 70.728C282.529 70.4187 282.481 70.1147 282.406 69.816L282.934 70.36C282.785 70.8507 282.534 71.2667 282.182 71.608C281.841 71.9387 281.425 72.1893 280.934 72.36C280.454 72.52 279.926 72.6 279.35 72.6C278.614 72.6 277.958 72.4613 277.382 72.184C276.806 71.9067 276.353 71.5173 276.022 71.016C275.691 70.504 275.526 69.9013 275.526 69.208C275.526 68.4827 275.697 67.8587 276.038 67.336C276.39 66.8027 276.865 66.392 277.462 66.104C278.07 65.816 278.742 65.672 279.478 65.672ZM279.542 66.968C279.062 66.968 278.635 67.0587 278.262 67.24C277.889 67.4213 277.595 67.672 277.382 67.992C277.179 68.312 277.078 68.696 277.078 69.144C277.078 69.8053 277.307 70.3333 277.766 70.728C278.225 71.112 278.843 71.304 279.622 71.304C280.134 71.304 280.582 71.208 280.966 71.016C281.361 70.824 281.665 70.5627 281.878 70.232C282.102 69.9013 282.214 69.5333 282.214 69.128C282.214 68.7333 282.113 68.376 281.91 68.056C281.707 67.736 281.409 67.4747 281.014 67.272C280.619 67.0693 280.129 66.968 279.542 66.968ZM266.136 104.128C265.229 104.128 264.445 103.995 263.784 103.728C263.123 103.461 262.611 103.083 262.248 102.592C261.885 102.091 261.704 101.504 261.704 100.832C261.704 100.171 261.875 99.6107 262.216 99.152C262.568 98.6827 263.075 98.3307 263.736 98.096C264.397 97.8507 265.197 97.728 266.136 97.728C267.075 97.728 267.875 97.8507 268.536 98.096C269.208 98.3307 269.72 98.6827 270.072 99.152C270.424 99.6213 270.6 100.181 270.6 100.832C270.6 101.504 270.419 102.091 270.056 102.592C269.693 103.083 269.176 103.461 268.504 103.728C267.832 103.995 267.043 104.128 266.136 104.128ZM266.136 102.832C267.032 102.832 267.731 102.651 268.232 102.288C268.744 101.915 269 101.413 269 100.784C269 100.165 268.744 99.68 268.232 99.328C267.731 98.9653 267.032 98.784 266.136 98.784C265.251 98.784 264.557 98.9653 264.056 99.328C263.555 99.68 263.304 100.165 263.304 100.784C263.304 101.413 263.555 101.915 264.056 102.288C264.557 102.651 265.251 102.832 266.136 102.832ZM266.136 98.592C265.283 98.592 264.557 98.48 263.96 98.256C263.363 98.0213 262.904 97.6907 262.584 97.264C262.264 96.8267 262.104 96.3093 262.104 95.712C262.104 95.0827 262.269 94.544 262.6 94.096C262.941 93.6373 263.416 93.2853 264.024 93.04C264.632 92.7947 265.336 92.672 266.136 92.672C266.947 92.672 267.656 92.7947 268.264 93.04C268.872 93.2853 269.347 93.6373 269.688 94.096C270.029 94.544 270.2 95.0827 270.2 95.712C270.2 96.3093 270.04 96.8267 269.72 97.264C269.4 97.6907 268.936 98.0213 268.328 98.256C267.72 98.48 266.989 98.592 266.136 98.592ZM266.136 97.568C266.915 97.568 267.523 97.408 267.96 97.088C268.408 96.768 268.632 96.3307 268.632 95.776C268.632 95.2107 268.403 94.768 267.944 94.448C267.485 94.128 266.883 93.968 266.136 93.968C265.389 93.968 264.792 94.128 264.344 94.448C263.907 94.768 263.688 95.2107 263.688 95.776C263.688 96.3307 263.901 96.768 264.328 97.088C264.765 97.408 265.368 97.568 266.136 97.568ZM272.301 106.368L273.101 103.136L273.309 104.064C273 104.064 272.738 103.968 272.525 103.776C272.322 103.584 272.221 103.323 272.221 102.992C272.221 102.672 272.322 102.411 272.525 102.208C272.738 102.005 272.994 101.904 273.293 101.904C273.602 101.904 273.853 102.011 274.045 102.224C274.237 102.427 274.333 102.683 274.333 102.992C274.333 103.099 274.322 103.205 274.301 103.312C274.29 103.408 274.264 103.525 274.221 103.664C274.189 103.792 274.136 103.952 274.061 104.144L273.309 106.368H272.301ZM275.546 101.248V100.128L281.274 92.8H283.002L277.322 100.128L276.506 99.872H285.45V101.248H275.546ZM281.77 104V101.248L281.818 99.872V97.44H283.322V104H281.77ZM265.4 119.672C266.413 119.672 267.267 119.891 267.96 120.328C268.664 120.765 269.197 121.4 269.56 122.232C269.923 123.053 270.104 124.061 270.104 125.256C270.104 126.525 269.88 127.597 269.432 128.472C268.984 129.347 268.365 130.008 267.576 130.456C266.787 130.904 265.864 131.128 264.808 131.128C264.285 131.128 263.779 131.075 263.288 130.968C262.808 130.861 262.387 130.696 262.024 130.472L262.632 129.224C262.931 129.416 263.261 129.555 263.624 129.64C263.997 129.715 264.387 129.752 264.792 129.752C265.923 129.752 266.824 129.4 267.496 128.696C268.168 127.981 268.504 126.925 268.504 125.528C268.504 125.304 268.493 125.037 268.472 124.728C268.451 124.419 268.403 124.115 268.328 123.816L268.856 124.36C268.707 124.851 268.456 125.267 268.104 125.608C267.763 125.939 267.347 126.189 266.856 126.36C266.376 126.52 265.848 126.6 265.272 126.6C264.536 126.6 263.88 126.461 263.304 126.184C262.728 125.907 262.275 125.517 261.944 125.016C261.613 124.504 261.448 123.901 261.448 123.208C261.448 122.483 261.619 121.859 261.96 121.336C262.312 120.803 262.787 120.392 263.384 120.104C263.992 119.816 264.664 119.672 265.4 119.672ZM265.464 120.968C264.984 120.968 264.557 121.059 264.184 121.24C263.811 121.421 263.517 121.672 263.304 121.992C263.101 122.312 263 122.696 263 123.144C263 123.805 263.229 124.333 263.688 124.728C264.147 125.112 264.765 125.304 265.544 125.304C266.056 125.304 266.504 125.208 266.888 125.016C267.283 124.824 267.587 124.563 267.8 124.232C268.024 123.901 268.136 123.533 268.136 123.128C268.136 122.733 268.035 122.376 267.832 122.056C267.629 121.736 267.331 121.475 266.936 121.272C266.541 121.069 266.051 120.968 265.464 120.968ZM271.536 133.368L272.336 130.136L272.544 131.064C272.234 131.064 271.973 130.968 271.76 130.776C271.557 130.584 271.456 130.323 271.456 129.992C271.456 129.672 271.557 129.411 271.76 129.208C271.973 129.005 272.229 128.904 272.528 128.904C272.837 128.904 273.088 129.011 273.28 129.224C273.472 129.427 273.568 129.683 273.568 129.992C273.568 130.099 273.557 130.205 273.536 130.312C273.525 130.408 273.498 130.525 273.456 130.664C273.424 130.792 273.37 130.952 273.296 131.144L272.544 133.368H271.536ZM279.469 131.128C278.594 131.128 277.81 130.904 277.117 130.456C276.434 130.008 275.89 129.357 275.485 128.504C275.09 127.651 274.893 126.616 274.893 125.4C274.893 124.184 275.09 123.149 275.485 122.296C275.89 121.443 276.434 120.792 277.117 120.344C277.81 119.896 278.594 119.672 279.469 119.672C280.333 119.672 281.112 119.896 281.805 120.344C282.498 120.792 283.042 121.443 283.437 122.296C283.832 123.149 284.029 124.184 284.029 125.4C284.029 126.616 283.832 127.651 283.437 128.504C283.042 129.357 282.498 130.008 281.805 130.456C281.112 130.904 280.333 131.128 279.469 131.128ZM279.469 129.704C280.056 129.704 280.568 129.544 281.005 129.224C281.453 128.904 281.8 128.424 282.045 127.784C282.301 127.144 282.429 126.349 282.429 125.4C282.429 124.451 282.301 123.656 282.045 123.016C281.8 122.376 281.453 121.896 281.005 121.576C280.568 121.256 280.056 121.096 279.469 121.096C278.882 121.096 278.365 121.256 277.917 121.576C277.469 121.896 277.117 122.376 276.861 123.016C276.616 123.656 276.493 124.451 276.493 125.4C276.493 126.349 276.616 127.144 276.861 127.784C277.117 128.424 277.469 128.904 277.917 129.224C278.365 129.544 278.882 129.704 279.469 129.704ZM266.2 158.16C265.272 158.16 264.467 158.021 263.784 157.744C263.101 157.467 262.573 157.077 262.2 156.576C261.827 156.064 261.64 155.467 261.64 154.784C261.64 154.101 261.821 153.525 262.184 153.056C262.547 152.587 263.069 152.229 263.752 151.984C264.435 151.739 265.251 151.616 266.2 151.616C267.149 151.616 267.965 151.739 268.648 151.984C269.341 152.229 269.869 152.592 270.232 153.072C270.605 153.541 270.792 154.112 270.792 154.784C270.792 155.467 270.6 156.064 270.216 156.576C269.843 157.077 269.309 157.467 268.616 157.744C267.933 158.021 267.128 158.16 266.2 158.16ZM266.2 156.528C266.968 156.528 267.576 156.368 268.024 156.048C268.472 155.728 268.696 155.285 268.696 154.72C268.696 154.165 268.472 153.728 268.024 153.408C267.576 153.088 266.968 152.928 266.2 152.928C265.432 152.928 264.829 153.088 264.392 153.408C263.955 153.728 263.736 154.165 263.736 154.72C263.736 155.285 263.955 155.728 264.392 156.048C264.829 156.368 265.432 156.528 266.2 156.528ZM266.2 152.704C265.336 152.704 264.595 152.592 263.976 152.368C263.357 152.133 262.877 151.797 262.536 151.36C262.205 150.912 262.04 150.379 262.04 149.76C262.04 149.12 262.211 148.571 262.552 148.112C262.904 147.643 263.395 147.28 264.024 147.024C264.653 146.768 265.379 146.64 266.2 146.64C267.032 146.64 267.763 146.768 268.392 147.024C269.021 147.28 269.512 147.643 269.864 148.112C270.216 148.571 270.392 149.12 270.392 149.76C270.392 150.379 270.221 150.912 269.88 151.36C269.549 151.797 269.069 152.133 268.44 152.368C267.811 152.592 267.064 152.704 266.2 152.704ZM266.2 151.424C266.861 151.424 267.384 151.285 267.768 151.008C268.152 150.72 268.344 150.336 268.344 149.856C268.344 149.355 268.147 148.965 267.752 148.688C267.357 148.411 266.84 148.272 266.2 148.272C265.56 148.272 265.048 148.411 264.664 148.688C264.28 148.965 264.088 149.355 264.088 149.856C264.088 150.336 264.275 150.72 264.648 151.008C265.032 151.285 265.549 151.424 266.2 151.424ZM272.378 160.416L273.306 156.88L273.578 158.064C273.204 158.064 272.89 157.952 272.634 157.728C272.388 157.493 272.266 157.179 272.266 156.784C272.266 156.379 272.388 156.059 272.634 155.824C272.89 155.579 273.199 155.456 273.562 155.456C273.935 155.456 274.244 155.579 274.49 155.824C274.735 156.069 274.858 156.389 274.858 156.784C274.858 156.891 274.847 157.008 274.826 157.136C274.804 157.253 274.767 157.392 274.714 157.552C274.671 157.712 274.596 157.915 274.49 158.16L273.674 160.416H272.378ZM279.98 146.64C281.004 146.64 281.873 146.859 282.588 147.296C283.313 147.723 283.868 148.347 284.252 149.168C284.636 149.989 284.828 151.003 284.828 152.208C284.828 153.488 284.593 154.571 284.124 155.456C283.665 156.341 283.025 157.013 282.204 157.472C281.383 157.931 280.428 158.16 279.34 158.16C278.775 158.16 278.236 158.101 277.724 157.984C277.212 157.867 276.769 157.685 276.396 157.44L277.164 155.872C277.473 156.075 277.809 156.219 278.172 156.304C278.535 156.379 278.908 156.416 279.292 156.416C280.348 156.416 281.185 156.091 281.804 155.44C282.423 154.789 282.732 153.829 282.732 152.56C282.732 152.357 282.727 152.123 282.716 151.856C282.705 151.579 282.668 151.301 282.604 151.024L283.244 151.728C283.063 152.165 282.801 152.533 282.46 152.832C282.119 153.12 281.719 153.339 281.26 153.488C280.801 153.637 280.295 153.712 279.74 153.712C279.015 153.712 278.359 153.573 277.772 153.296C277.196 153.008 276.737 152.608 276.396 152.096C276.055 151.573 275.884 150.965 275.884 150.272C275.884 149.525 276.065 148.885 276.428 148.352C276.791 147.808 277.281 147.387 277.9 147.088C278.529 146.789 279.223 146.64 279.98 146.64ZM280.092 148.272C279.665 148.272 279.287 148.352 278.956 148.512C278.625 148.661 278.364 148.88 278.172 149.168C277.991 149.445 277.9 149.781 277.9 150.176C277.9 150.763 278.103 151.227 278.508 151.568C278.913 151.909 279.457 152.08 280.14 152.08C280.588 152.08 280.983 152 281.324 151.84C281.665 151.669 281.932 151.44 282.124 151.152C282.316 150.853 282.412 150.523 282.412 150.16C282.412 149.808 282.321 149.493 282.14 149.216C281.959 148.928 281.697 148.699 281.356 148.528C281.015 148.357 280.593 148.272 280.092 148.272Z" fill="#2A2828"/>
</svg>
