<svg width="307" height="164" viewBox="0 0 307 164" fill="none" xmlns="http://www.w3.org/2000/svg">
<path d="M1.692 17V4.4H4.032V17H1.692ZM12.678 7.28C13.446 7.28 14.13 7.43 14.73 7.73C15.342 8.03 15.822 8.492 16.17 9.116C16.518 9.728 16.692 10.52 16.692 11.492V17H14.442V11.78C14.442 10.928 14.238 10.292 13.83 9.872C13.434 9.452 12.876 9.242 12.156 9.242C11.628 9.242 11.16 9.35 10.752 9.566C10.344 9.782 10.026 10.106 9.79805 10.538C9.58205 10.958 9.47405 11.492 9.47405 12.14V17H7.22405V7.388H9.36605V9.98L8.98805 9.188C9.32405 8.576 9.81005 8.108 10.446 7.784C11.094 7.448 11.838 7.28 12.678 7.28ZM23.1643 17.126C22.1083 17.126 21.2923 16.856 20.7163 16.316C20.1403 15.764 19.8523 14.954 19.8523 13.886V5.264H22.1023V13.832C22.1023 14.288 22.2163 14.642 22.4443 14.894C22.6843 15.146 23.0143 15.272 23.4343 15.272C23.9383 15.272 24.3583 15.14 24.6943 14.876L25.3243 16.478C25.0603 16.694 24.7363 16.856 24.3523 16.964C23.9683 17.072 23.5723 17.126 23.1643 17.126ZM18.2683 9.26V7.46H24.6763V9.26H18.2683ZM31.3768 17.126C30.3088 17.126 29.3728 16.916 28.5688 16.496C27.7768 16.064 27.1588 15.476 26.7148 14.732C26.2828 13.988 26.0668 13.142 26.0668 12.194C26.0668 11.234 26.2768 10.388 26.6968 9.656C27.1288 8.912 27.7168 8.33 28.4608 7.91C29.2168 7.49 30.0748 7.28 31.0348 7.28C31.9708 7.28 32.8048 7.484 33.5368 7.892C34.2688 8.3 34.8448 8.876 35.2648 9.62C35.6848 10.364 35.8948 11.24 35.8948 12.248C35.8948 12.344 35.8888 12.452 35.8768 12.572C35.8768 12.692 35.8708 12.806 35.8588 12.914H27.8488V11.42H34.6708L33.7888 11.888C33.8008 11.336 33.6868 10.85 33.4468 10.43C33.2068 10.01 32.8768 9.68 32.4568 9.44C32.0488 9.2 31.5748 9.08 31.0348 9.08C30.4828 9.08 29.9968 9.2 29.5768 9.44C29.1688 9.68 28.8448 10.016 28.6048 10.448C28.3768 10.868 28.2628 11.366 28.2628 11.942V12.302C28.2628 12.878 28.3948 13.388 28.6588 13.832C28.9228 14.276 29.2948 14.618 29.7748 14.858C30.2548 15.098 30.8068 15.218 31.4308 15.218C31.9708 15.218 32.4568 15.134 32.8888 14.966C33.3208 14.798 33.7048 14.534 34.0408 14.174L35.2468 15.56C34.8148 16.064 34.2688 16.454 33.6088 16.73C32.9608 16.994 32.2168 17.126 31.3768 17.126ZM42.4121 20.618C41.5241 20.618 40.6541 20.498 39.8021 20.258C38.9621 20.03 38.2721 19.694 37.7321 19.25L38.7401 17.558C39.1601 17.906 39.6881 18.182 40.3241 18.386C40.9721 18.602 41.6261 18.71 42.2861 18.71C43.3421 18.71 44.1161 18.464 44.6081 17.972C45.1001 17.492 45.3461 16.766 45.3461 15.794V14.084L45.5261 11.906L45.4541 9.728V7.388H47.5961V15.542C47.5961 17.282 47.1521 18.56 46.2641 19.376C45.3761 20.204 44.0921 20.618 42.4121 20.618ZM42.1241 16.568C41.2121 16.568 40.3841 16.376 39.6401 15.992C38.9081 15.596 38.3261 15.05 37.8941 14.354C37.4741 13.658 37.2641 12.842 37.2641 11.906C37.2641 10.982 37.4741 10.172 37.8941 9.476C38.3261 8.78 38.9081 8.24 39.6401 7.856C40.3841 7.472 41.2121 7.28 42.1241 7.28C42.9401 7.28 43.6721 7.442 44.3201 7.766C44.9681 8.09 45.4841 8.594 45.8681 9.278C46.2641 9.962 46.4621 10.838 46.4621 11.906C46.4621 12.974 46.2641 13.856 45.8681 14.552C45.4841 15.236 44.9681 15.746 44.3201 16.082C43.6721 16.406 42.9401 16.568 42.1241 16.568ZM42.4661 14.66C43.0301 14.66 43.5341 14.546 43.9781 14.318C44.4221 14.078 44.7641 13.754 45.0041 13.346C45.2561 12.926 45.3821 12.446 45.3821 11.906C45.3821 11.366 45.2561 10.892 45.0041 10.484C44.7641 10.064 44.4221 9.746 43.9781 9.53C43.5341 9.302 43.0301 9.188 42.4661 9.188C41.9021 9.188 41.3921 9.302 40.9361 9.53C40.4921 9.746 40.1441 10.064 39.8921 10.484C39.6521 10.892 39.5321 11.366 39.5321 11.906C39.5321 12.446 39.6521 12.926 39.8921 13.346C40.1441 13.754 40.4921 14.078 40.9361 14.318C41.3921 14.546 41.9021 14.66 42.4661 14.66ZM50.5541 17V7.388H52.6961V10.034L52.4441 9.26C52.7321 8.612 53.1821 8.12 53.7941 7.784C54.4181 7.448 55.1921 7.28 56.1161 7.28V9.422C56.0201 9.398 55.9301 9.386 55.8461 9.386C55.7621 9.374 55.6781 9.368 55.5941 9.368C54.7421 9.368 54.0641 9.62 53.5601 10.124C53.0561 10.616 52.8041 11.354 52.8041 12.338V17H50.5541ZM63.2613 17V15.056L63.1353 14.642V11.24C63.1353 10.58 62.9373 10.07 62.5413 9.71C62.1453 9.338 61.5453 9.152 60.7413 9.152C60.2013 9.152 59.6673 9.236 59.1393 9.404C58.6233 9.572 58.1853 9.806 57.8253 10.106L56.9433 8.468C57.4593 8.072 58.0713 7.778 58.7793 7.586C59.4993 7.382 60.2433 7.28 61.0113 7.28C62.4033 7.28 63.4773 7.616 64.2333 8.288C65.0013 8.948 65.3853 9.974 65.3853 11.366V17H63.2613ZM60.2373 17.126C59.5173 17.126 58.8873 17.006 58.3473 16.766C57.8073 16.514 57.3873 16.172 57.0873 15.74C56.7993 15.296 56.6553 14.798 56.6553 14.246C56.6553 13.706 56.7813 13.22 57.0333 12.788C57.2973 12.356 57.7233 12.014 58.3113 11.762C58.8993 11.51 59.6793 11.384 60.6513 11.384H63.4413V12.878H60.8133C60.0453 12.878 59.5293 13.004 59.2653 13.256C59.0013 13.496 58.8693 13.796 58.8693 14.156C58.8693 14.564 59.0313 14.888 59.3553 15.128C59.6793 15.368 60.1293 15.488 60.7053 15.488C61.2573 15.488 61.7493 15.362 62.1813 15.11C62.6253 14.858 62.9433 14.486 63.1353 13.994L63.5133 15.344C63.2973 15.908 62.9073 16.346 62.3433 16.658C61.7913 16.97 61.0893 17.126 60.2373 17.126ZM72.7005 17.126C71.6925 17.126 70.7925 16.916 70.0005 16.496C69.2205 16.064 68.6085 15.476 68.1645 14.732C67.7205 13.988 67.4985 13.142 67.4985 12.194C67.4985 11.234 67.7205 10.388 68.1645 9.656C68.6085 8.912 69.2205 8.33 70.0005 7.91C70.7925 7.49 71.6925 7.28 72.7005 7.28C73.6365 7.28 74.4585 7.472 75.1665 7.856C75.8865 8.228 76.4325 8.78 76.8045 9.512L75.0765 10.52C74.7885 10.064 74.4345 9.728 74.0145 9.512C73.6065 9.296 73.1625 9.188 72.6825 9.188C72.1305 9.188 71.6325 9.308 71.1885 9.548C70.7445 9.788 70.3965 10.136 70.1445 10.592C69.8925 11.036 69.7665 11.57 69.7665 12.194C69.7665 12.818 69.8925 13.358 70.1445 13.814C70.3965 14.258 70.7445 14.6 71.1885 14.84C71.6325 15.08 72.1305 15.2 72.6825 15.2C73.1625 15.2 73.6065 15.092 74.0145 14.876C74.4345 14.66 74.7885 14.324 75.0765 13.868L76.8045 14.876C76.4325 15.596 75.8865 16.154 75.1665 16.55C74.4585 16.934 73.6365 17.126 72.7005 17.126ZM71.7645 21.104C71.4405 21.104 71.1405 21.068 70.8645 20.996C70.5885 20.936 70.3365 20.846 70.1085 20.726L70.5225 19.664C70.7145 19.76 70.9065 19.832 71.0985 19.88C71.3025 19.928 71.5185 19.952 71.7465 19.952C72.0945 19.952 72.3405 19.892 72.4845 19.772C72.6285 19.652 72.7005 19.496 72.7005 19.304C72.7005 19.124 72.6225 18.98 72.4665 18.872C72.3225 18.764 72.0825 18.71 71.7465 18.71H71.1885L71.6745 16.874H72.8985L72.6465 17.882C73.1745 17.942 73.5645 18.11 73.8165 18.386C74.0805 18.674 74.2125 19.01 74.2125 19.394C74.2125 19.922 73.9905 20.336 73.5465 20.636C73.1025 20.948 72.5085 21.104 71.7645 21.104ZM84.6714 17V15.056L84.5454 14.642V11.24C84.5454 10.58 84.3474 10.07 83.9514 9.71C83.5554 9.338 82.9554 9.152 82.1514 9.152C81.6114 9.152 81.0774 9.236 80.5494 9.404C80.0334 9.572 79.5954 9.806 79.2354 10.106L78.3534 8.468C78.8694 8.072 79.4814 7.778 80.1894 7.586C80.9094 7.382 81.6534 7.28 82.4214 7.28C83.8134 7.28 84.8874 7.616 85.6434 8.288C86.4114 8.948 86.7954 9.974 86.7954 11.366V17H84.6714ZM81.6474 17.126C80.9274 17.126 80.2974 17.006 79.7574 16.766C79.2174 16.514 78.7974 16.172 78.4974 15.74C78.2094 15.296 78.0654 14.798 78.0654 14.246C78.0654 13.706 78.1914 13.22 78.4434 12.788C78.7074 12.356 79.1334 12.014 79.7214 11.762C80.3094 11.51 81.0894 11.384 82.0614 11.384H84.8514V12.878H82.2234C81.4554 12.878 80.9394 13.004 80.6754 13.256C80.4114 13.496 80.2794 13.796 80.2794 14.156C80.2794 14.564 80.4414 14.888 80.7654 15.128C81.0894 15.368 81.5394 15.488 82.1154 15.488C82.6674 15.488 83.1594 15.362 83.5914 15.11C84.0354 14.858 84.3534 14.486 84.5454 13.994L84.9234 15.344C84.7074 15.908 84.3174 16.346 83.7534 16.658C83.2014 16.97 82.4994 17.126 81.6474 17.126ZM83.9154 6.074C83.6274 6.074 83.3634 6.02 83.1234 5.912C82.8954 5.792 82.6854 5.654 82.4934 5.498C82.3134 5.33 82.1394 5.186 81.9714 5.066C81.8034 4.946 81.6354 4.886 81.4674 4.886C81.2154 4.886 81.0114 4.982 80.8554 5.174C80.6994 5.366 80.6094 5.63 80.5854 5.966H79.3794C79.4034 5.222 79.5834 4.634 79.9194 4.202C80.2674 3.77 80.7354 3.554 81.3234 3.554C81.6114 3.554 81.8754 3.614 82.1154 3.734C82.3554 3.854 82.5654 3.992 82.7454 4.148C82.9374 4.304 83.1174 4.442 83.2854 4.562C83.4534 4.682 83.6154 4.742 83.7714 4.742C84.0234 4.742 84.2274 4.652 84.3834 4.472C84.5514 4.292 84.6414 4.04 84.6534 3.716H85.8594C85.8474 4.412 85.6674 4.982 85.3194 5.426C84.9714 5.858 84.5034 6.074 83.9154 6.074ZM94.0206 17.126C93.0366 17.126 92.1606 16.916 91.3926 16.496C90.6246 16.064 90.0186 15.476 89.5746 14.732C89.1306 13.988 88.9086 13.142 88.9086 12.194C88.9086 11.234 89.1306 10.388 89.5746 9.656C90.0186 8.912 90.6246 8.33 91.3926 7.91C92.1606 7.49 93.0366 7.28 94.0206 7.28C95.0166 7.28 95.8986 7.49 96.6666 7.91C97.4466 8.33 98.0526 8.906 98.4846 9.638C98.9286 10.37 99.1506 11.222 99.1506 12.194C99.1506 13.142 98.9286 13.988 98.4846 14.732C98.0526 15.476 97.4466 16.064 96.6666 16.496C95.8986 16.916 95.0166 17.126 94.0206 17.126ZM94.0206 15.2C94.5726 15.2 95.0646 15.08 95.4966 14.84C95.9286 14.6 96.2646 14.252 96.5046 13.796C96.7566 13.34 96.8826 12.806 96.8826 12.194C96.8826 11.57 96.7566 11.036 96.5046 10.592C96.2646 10.136 95.9286 9.788 95.4966 9.548C95.0646 9.308 94.5786 9.188 94.0386 9.188C93.4866 9.188 92.9946 9.308 92.5626 9.548C92.1426 9.788 91.8066 10.136 91.5546 10.592C91.3026 11.036 91.1766 11.57 91.1766 12.194C91.1766 12.806 91.3026 13.34 91.5546 13.796C91.8066 14.252 92.1426 14.6 92.5626 14.84C92.9946 15.08 93.4806 15.2 94.0206 15.2ZM110.795 17.126C109.727 17.126 108.791 16.916 107.987 16.496C107.195 16.064 106.577 15.476 106.133 14.732C105.701 13.988 105.485 13.142 105.485 12.194C105.485 11.234 105.695 10.388 106.115 9.656C106.547 8.912 107.135 8.33 107.879 7.91C108.635 7.49 109.493 7.28 110.453 7.28C111.389 7.28 112.223 7.484 112.955 7.892C113.687 8.3 114.263 8.876 114.683 9.62C115.103 10.364 115.313 11.24 115.313 12.248C115.313 12.344 115.307 12.452 115.295 12.572C115.295 12.692 115.289 12.806 115.277 12.914H107.267V11.42H114.089L113.207 11.888C113.219 11.336 113.105 10.85 112.865 10.43C112.625 10.01 112.295 9.68 111.875 9.44C111.467 9.2 110.993 9.08 110.453 9.08C109.901 9.08 109.415 9.2 108.995 9.44C108.587 9.68 108.263 10.016 108.023 10.448C107.795 10.868 107.681 11.366 107.681 11.942V12.302C107.681 12.878 107.813 13.388 108.077 13.832C108.341 14.276 108.713 14.618 109.193 14.858C109.673 15.098 110.225 15.218 110.849 15.218C111.389 15.218 111.875 15.134 112.307 14.966C112.739 14.798 113.123 14.534 113.459 14.174L114.665 15.56C114.233 16.064 113.687 16.454 113.027 16.73C112.379 16.994 111.635 17.126 110.795 17.126ZM124.825 9.638H131.089V11.564H124.825V9.638ZM125.005 15.038H132.115V17H122.665V4.4H131.863V6.362H125.005V15.038ZM139.961 7.28C140.729 7.28 141.413 7.43 142.013 7.73C142.625 8.03 143.105 8.492 143.453 9.116C143.801 9.728 143.975 10.52 143.975 11.492V17H141.725V11.78C141.725 10.928 141.521 10.292 141.113 9.872C140.717 9.452 140.159 9.242 139.439 9.242C138.911 9.242 138.443 9.35 138.035 9.566C137.627 9.782 137.309 10.106 137.081 10.538C136.865 10.958 136.757 11.492 136.757 12.14V17H134.507V7.388H136.649V9.98L136.271 9.188C136.607 8.576 137.093 8.108 137.729 7.784C138.377 7.448 139.121 7.28 139.961 7.28ZM150.448 17.126C149.392 17.126 148.576 16.856 148 16.316C147.424 15.764 147.136 14.954 147.136 13.886V5.264H149.386V13.832C149.386 14.288 149.5 14.642 149.728 14.894C149.968 15.146 150.298 15.272 150.718 15.272C151.222 15.272 151.642 15.14 151.978 14.876L152.608 16.478C152.344 16.694 152.02 16.856 151.636 16.964C151.252 17.072 150.856 17.126 150.448 17.126ZM145.552 9.26V7.46H151.96V9.26H145.552ZM154.458 17V7.388H156.6V10.034L156.348 9.26C156.636 8.612 157.086 8.12 157.698 7.784C158.322 7.448 159.096 7.28 160.02 7.28V9.422C159.924 9.398 159.834 9.386 159.75 9.386C159.666 9.374 159.582 9.368 159.498 9.368C158.646 9.368 157.968 9.62 157.464 10.124C156.96 10.616 156.708 11.354 156.708 12.338V17H154.458ZM166.359 17.126C165.291 17.126 164.355 16.916 163.551 16.496C162.759 16.064 162.141 15.476 161.697 14.732C161.265 13.988 161.049 13.142 161.049 12.194C161.049 11.234 161.259 10.388 161.679 9.656C162.111 8.912 162.699 8.33 163.443 7.91C164.199 7.49 165.057 7.28 166.017 7.28C166.953 7.28 167.787 7.484 168.519 7.892C169.251 8.3 169.827 8.876 170.247 9.62C170.667 10.364 170.877 11.24 170.877 12.248C170.877 12.344 170.871 12.452 170.859 12.572C170.859 12.692 170.853 12.806 170.841 12.914H162.831V11.42H169.653L168.771 11.888C168.783 11.336 168.669 10.85 168.429 10.43C168.189 10.01 167.859 9.68 167.439 9.44C167.031 9.2 166.557 9.08 166.017 9.08C165.465 9.08 164.979 9.2 164.559 9.44C164.151 9.68 163.827 10.016 163.587 10.448C163.359 10.868 163.245 11.366 163.245 11.942V12.302C163.245 12.878 163.377 13.388 163.641 13.832C163.905 14.276 164.277 14.618 164.757 14.858C165.237 15.098 165.789 15.218 166.413 15.218C166.953 15.218 167.439 15.134 167.871 14.966C168.303 14.798 168.687 14.534 169.023 14.174L170.229 15.56C169.797 16.064 169.251 16.454 168.591 16.73C167.943 16.994 167.199 17.126 166.359 17.126ZM177.395 20.618C176.507 20.618 175.637 20.498 174.785 20.258C173.945 20.03 173.255 19.694 172.715 19.25L173.723 17.558C174.143 17.906 174.671 18.182 175.307 18.386C175.955 18.602 176.609 18.71 177.269 18.71C178.325 18.71 179.099 18.464 179.591 17.972C180.083 17.492 180.329 16.766 180.329 15.794V14.084L180.509 11.906L180.437 9.728V7.388H182.579V15.542C182.579 17.282 182.135 18.56 181.247 19.376C180.359 20.204 179.075 20.618 177.395 20.618ZM177.107 16.568C176.195 16.568 175.367 16.376 174.623 15.992C173.891 15.596 173.309 15.05 172.877 14.354C172.457 13.658 172.247 12.842 172.247 11.906C172.247 10.982 172.457 10.172 172.877 9.476C173.309 8.78 173.891 8.24 174.623 7.856C175.367 7.472 176.195 7.28 177.107 7.28C177.923 7.28 178.655 7.442 179.303 7.766C179.951 8.09 180.467 8.594 180.851 9.278C181.247 9.962 181.445 10.838 181.445 11.906C181.445 12.974 181.247 13.856 180.851 14.552C180.467 15.236 179.951 15.746 179.303 16.082C178.655 16.406 177.923 16.568 177.107 16.568ZM177.449 14.66C178.013 14.66 178.517 14.546 178.961 14.318C179.405 14.078 179.747 13.754 179.987 13.346C180.239 12.926 180.365 12.446 180.365 11.906C180.365 11.366 180.239 10.892 179.987 10.484C179.747 10.064 179.405 9.746 178.961 9.53C178.517 9.302 178.013 9.188 177.449 9.188C176.885 9.188 176.375 9.302 175.919 9.53C175.475 9.746 175.127 10.064 174.875 10.484C174.635 10.892 174.515 11.366 174.515 11.906C174.515 12.446 174.635 12.926 174.875 13.346C175.127 13.754 175.475 14.078 175.919 14.318C176.375 14.546 176.885 14.66 177.449 14.66ZM191.459 17V15.056L191.333 14.642V11.24C191.333 10.58 191.135 10.07 190.739 9.71C190.343 9.338 189.743 9.152 188.939 9.152C188.399 9.152 187.865 9.236 187.337 9.404C186.821 9.572 186.383 9.806 186.023 10.106L185.141 8.468C185.657 8.072 186.269 7.778 186.977 7.586C187.697 7.382 188.441 7.28 189.209 7.28C190.601 7.28 191.675 7.616 192.431 8.288C193.199 8.948 193.583 9.974 193.583 11.366V17H191.459ZM188.435 17.126C187.715 17.126 187.085 17.006 186.545 16.766C186.005 16.514 185.585 16.172 185.285 15.74C184.997 15.296 184.853 14.798 184.853 14.246C184.853 13.706 184.979 13.22 185.231 12.788C185.495 12.356 185.921 12.014 186.509 11.762C187.097 11.51 187.877 11.384 188.849 11.384H191.639V12.878H189.011C188.243 12.878 187.727 13.004 187.463 13.256C187.199 13.496 187.067 13.796 187.067 14.156C187.067 14.564 187.229 14.888 187.553 15.128C187.877 15.368 188.327 15.488 188.903 15.488C189.455 15.488 189.947 15.362 190.379 15.11C190.823 14.858 191.141 14.486 191.333 13.994L191.711 15.344C191.495 15.908 191.105 16.346 190.541 16.658C189.989 16.97 189.287 17.126 188.435 17.126ZM207.493 17.18C206.533 17.18 205.639 17.024 204.811 16.712C203.995 16.388 203.281 15.938 202.669 15.362C202.069 14.774 201.601 14.084 201.265 13.292C200.929 12.5 200.761 11.636 200.761 10.7C200.761 9.764 200.929 8.9 201.265 8.108C201.601 7.316 202.075 6.632 202.687 6.056C203.299 5.468 204.013 5.018 204.829 4.706C205.645 4.382 206.539 4.22 207.511 4.22C208.543 4.22 209.485 4.4 210.337 4.76C211.189 5.108 211.909 5.63 212.497 6.326L210.985 7.748C210.529 7.256 210.019 6.89 209.455 6.65C208.891 6.398 208.279 6.272 207.619 6.272C206.959 6.272 206.353 6.38 205.801 6.596C205.261 6.812 204.787 7.118 204.379 7.514C203.983 7.91 203.671 8.378 203.443 8.918C203.227 9.458 203.119 10.052 203.119 10.7C203.119 11.348 203.227 11.942 203.443 12.482C203.671 13.022 203.983 13.49 204.379 13.886C204.787 14.282 205.261 14.588 205.801 14.804C206.353 15.02 206.959 15.128 207.619 15.128C208.279 15.128 208.891 15.008 209.455 14.768C210.019 14.516 210.529 14.138 210.985 13.634L212.497 15.074C211.909 15.758 211.189 16.28 210.337 16.64C209.485 17 208.537 17.18 207.493 17.18ZM218.474 17.126C217.49 17.126 216.614 16.916 215.846 16.496C215.078 16.064 214.472 15.476 214.028 14.732C213.584 13.988 213.362 13.142 213.362 12.194C213.362 11.234 213.584 10.388 214.028 9.656C214.472 8.912 215.078 8.33 215.846 7.91C216.614 7.49 217.49 7.28 218.474 7.28C219.47 7.28 220.352 7.49 221.12 7.91C221.9 8.33 222.506 8.906 222.938 9.638C223.382 10.37 223.604 11.222 223.604 12.194C223.604 13.142 223.382 13.988 222.938 14.732C222.506 15.476 221.9 16.064 221.12 16.496C220.352 16.916 219.47 17.126 218.474 17.126ZM218.474 15.2C219.026 15.2 219.518 15.08 219.95 14.84C220.382 14.6 220.718 14.252 220.958 13.796C221.21 13.34 221.336 12.806 221.336 12.194C221.336 11.57 221.21 11.036 220.958 10.592C220.718 10.136 220.382 9.788 219.95 9.548C219.518 9.308 219.032 9.188 218.492 9.188C217.94 9.188 217.448 9.308 217.016 9.548C216.596 9.788 216.26 10.136 216.008 10.592C215.756 11.036 215.63 11.57 215.63 12.194C215.63 12.806 215.756 13.34 216.008 13.796C216.26 14.252 216.596 14.6 217.016 14.84C217.448 15.08 217.934 15.2 218.474 15.2ZM231.209 7.28C231.977 7.28 232.661 7.43 233.261 7.73C233.873 8.03 234.353 8.492 234.701 9.116C235.049 9.728 235.223 10.52 235.223 11.492V17H232.973V11.78C232.973 10.928 232.769 10.292 232.361 9.872C231.965 9.452 231.407 9.242 230.687 9.242C230.159 9.242 229.691 9.35 229.283 9.566C228.875 9.782 228.557 10.106 228.329 10.538C228.113 10.958 228.005 11.492 228.005 12.14V17H225.755V7.388H227.897V9.98L227.519 9.188C227.855 8.576 228.341 8.108 228.977 7.784C229.625 7.448 230.369 7.28 231.209 7.28ZM241.696 17.126C240.64 17.126 239.824 16.856 239.248 16.316C238.672 15.764 238.384 14.954 238.384 13.886V5.264H240.634V13.832C240.634 14.288 240.748 14.642 240.976 14.894C241.216 15.146 241.546 15.272 241.966 15.272C242.47 15.272 242.89 15.14 243.226 14.876L243.856 16.478C243.592 16.694 243.268 16.856 242.884 16.964C242.5 17.072 242.104 17.126 241.696 17.126ZM236.8 9.26V7.46H243.208V9.26H236.8ZM245.706 17V7.388H247.956V17H245.706ZM246.84 5.804C246.42 5.804 246.072 5.672 245.796 5.408C245.532 5.144 245.4 4.826 245.4 4.454C245.4 4.07 245.532 3.752 245.796 3.5C246.072 3.236 246.42 3.104 246.84 3.104C247.26 3.104 247.602 3.23 247.866 3.482C248.142 3.722 248.28 4.028 248.28 4.4C248.28 4.796 248.148 5.132 247.884 5.408C247.62 5.672 247.272 5.804 246.84 5.804ZM256.364 7.28C257.132 7.28 257.816 7.43 258.416 7.73C259.028 8.03 259.508 8.492 259.856 9.116C260.204 9.728 260.378 10.52 260.378 11.492V17H258.128V11.78C258.128 10.928 257.924 10.292 257.516 9.872C257.12 9.452 256.562 9.242 255.842 9.242C255.314 9.242 254.846 9.35 254.438 9.566C254.03 9.782 253.712 10.106 253.484 10.538C253.268 10.958 253.16 11.492 253.16 12.14V17H250.91V7.388H253.052V9.98L252.674 9.188C253.01 8.576 253.496 8.108 254.132 7.784C254.78 7.448 255.524 7.28 256.364 7.28ZM267.3 17.126C266.484 17.126 265.764 16.976 265.14 16.676C264.516 16.364 264.03 15.896 263.682 15.272C263.334 14.636 263.16 13.838 263.16 12.878V7.388H265.41V12.572C265.41 13.436 265.602 14.084 265.986 14.516C266.382 14.936 266.94 15.146 267.66 15.146C268.188 15.146 268.644 15.038 269.028 14.822C269.424 14.606 269.73 14.282 269.946 13.85C270.174 13.418 270.288 12.884 270.288 12.248V7.388H272.538V17H270.396V14.408L270.774 15.2C270.45 15.824 269.976 16.304 269.352 16.64C268.728 16.964 268.044 17.126 267.3 17.126ZM281.406 17V15.056L281.28 14.642V11.24C281.28 10.58 281.082 10.07 280.686 9.71C280.29 9.338 279.69 9.152 278.886 9.152C278.346 9.152 277.812 9.236 277.284 9.404C276.768 9.572 276.33 9.806 275.97 10.106L275.088 8.468C275.604 8.072 276.216 7.778 276.924 7.586C277.644 7.382 278.388 7.28 279.156 7.28C280.548 7.28 281.622 7.616 282.378 8.288C283.146 8.948 283.53 9.974 283.53 11.366V17H281.406ZM278.382 17.126C277.662 17.126 277.032 17.006 276.492 16.766C275.952 16.514 275.532 16.172 275.232 15.74C274.944 15.296 274.8 14.798 274.8 14.246C274.8 13.706 274.926 13.22 275.178 12.788C275.442 12.356 275.868 12.014 276.456 11.762C277.044 11.51 277.824 11.384 278.796 11.384H281.586V12.878H278.958C278.19 12.878 277.674 13.004 277.41 13.256C277.146 13.496 277.014 13.796 277.014 14.156C277.014 14.564 277.176 14.888 277.5 15.128C277.824 15.368 278.274 15.488 278.85 15.488C279.402 15.488 279.894 15.362 280.326 15.11C280.77 14.858 281.088 14.486 281.28 13.994L281.658 15.344C281.442 15.908 281.052 16.346 280.488 16.658C279.936 16.97 279.234 17.126 278.382 17.126Z" fill="#709BEF"/>
<path d="M25.984 52L31.056 40.8H32.64L37.728 52H36.048L31.52 41.696H32.16L27.632 52H25.984ZM28.144 49.2L28.576 47.92H34.88L35.344 49.2H28.144ZM42.0086 52.096C41.1553 52.096 40.494 51.8667 40.0246 51.408C39.5553 50.9493 39.3206 50.2933 39.3206 49.44V41.664H40.8566V49.376C40.8566 49.8347 40.9686 50.1867 41.1926 50.432C41.4273 50.6773 41.758 50.8 42.1846 50.8C42.6646 50.8 43.0646 50.6667 43.3846 50.4L43.8646 51.504C43.63 51.7067 43.3473 51.856 43.0166 51.952C42.6966 52.048 42.3606 52.096 42.0086 52.096ZM37.8806 44.784V43.52H43.2886V44.784H37.8806ZM45.7216 52V43.52H47.2576V52H45.7216ZM46.4896 41.888C46.191 41.888 45.9403 41.792 45.7376 41.6C45.5456 41.408 45.4496 41.1733 45.4496 40.896C45.4496 40.608 45.5456 40.368 45.7376 40.176C45.9403 39.984 46.191 39.888 46.4896 39.888C46.7883 39.888 47.0336 39.984 47.2256 40.176C47.4283 40.3573 47.5296 40.5867 47.5296 40.864C47.5296 41.152 47.4336 41.3973 47.2416 41.6C47.0496 41.792 46.799 41.888 46.4896 41.888ZM52.4144 52L48.7024 43.52H50.3024L53.5984 51.2H52.8304L56.1904 43.52H57.6944L53.9824 52H52.4144ZM59.1279 52V43.52H60.6639V52H59.1279ZM59.8959 41.888C59.5972 41.888 59.3465 41.792 59.1439 41.6C58.9519 41.408 58.8559 41.1733 58.8559 40.896C58.8559 40.608 58.9519 40.368 59.1439 40.176C59.3465 39.984 59.5972 39.888 59.8959 39.888C60.1945 39.888 60.4399 39.984 60.6319 40.176C60.8345 40.3573 60.9359 40.5867 60.9359 40.864C60.9359 41.152 60.8399 41.3973 60.6479 41.6C60.4559 41.792 60.2052 41.888 59.8959 41.888ZM67.1006 52.096C66.2793 52.096 65.5433 51.9147 64.8926 51.552C64.2526 51.1893 63.746 50.6827 63.3726 50.032C62.9993 49.3813 62.8126 48.624 62.8126 47.76C62.8126 46.896 62.9993 46.144 63.3726 45.504C63.746 44.8533 64.2526 44.3467 64.8926 43.984C65.5433 43.6213 66.2793 43.44 67.1006 43.44C67.8153 43.44 68.4606 43.6 69.0366 43.92C69.6126 44.24 70.0713 44.72 70.4126 45.36C70.7646 46 70.9406 46.8 70.9406 47.76C70.9406 48.72 70.77 49.52 70.4286 50.16C70.098 50.8 69.6446 51.2853 69.0686 51.616C68.4926 51.936 67.8366 52.096 67.1006 52.096ZM67.2286 50.752C67.762 50.752 68.242 50.6293 68.6686 50.384C69.106 50.1387 69.4473 49.792 69.6926 49.344C69.9486 48.8853 70.0766 48.3573 70.0766 47.76C70.0766 47.152 69.9486 46.6293 69.6926 46.192C69.4473 45.744 69.106 45.3973 68.6686 45.152C68.242 44.9067 67.762 44.784 67.2286 44.784C66.6846 44.784 66.1993 44.9067 65.7726 45.152C65.346 45.3973 65.0046 45.744 64.7486 46.192C64.4926 46.6293 64.3646 47.152 64.3646 47.76C64.3646 48.3573 64.4926 48.8853 64.7486 49.344C65.0046 49.792 65.346 50.1387 65.7726 50.384C66.1993 50.6293 66.6846 50.752 67.2286 50.752ZM70.1246 52V49.712L70.2206 47.744L70.0606 45.776V40.128H71.5966V52H70.1246ZM79.7669 52V50.208L79.6869 49.872V46.816C79.6869 46.1653 79.4949 45.664 79.1109 45.312C78.7375 44.9493 78.1722 44.768 77.4149 44.768C76.9135 44.768 76.4229 44.8533 75.9429 45.024C75.4629 45.184 75.0575 45.4027 74.7269 45.68L74.0869 44.528C74.5242 44.176 75.0469 43.9093 75.6549 43.728C76.2735 43.536 76.9189 43.44 77.5909 43.44C78.7535 43.44 79.6495 43.7227 80.2789 44.288C80.9082 44.8533 81.2229 45.7173 81.2229 46.88V52H79.7669ZM76.9829 52.096C76.3535 52.096 75.7989 51.9893 75.3189 51.776C74.8495 51.5627 74.4869 51.2693 74.2309 50.896C73.9749 50.512 73.8469 50.08 73.8469 49.6C73.8469 49.1413 73.9535 48.7253 74.1669 48.352C74.3909 47.9787 74.7482 47.68 75.2389 47.456C75.7402 47.232 76.4122 47.12 77.2549 47.12H79.9429V48.224H77.3189C76.5509 48.224 76.0335 48.352 75.7669 48.608C75.5002 48.864 75.3669 49.1733 75.3669 49.536C75.3669 49.952 75.5322 50.288 75.8629 50.544C76.1935 50.7893 76.6522 50.912 77.2389 50.912C77.8149 50.912 78.3162 50.784 78.7429 50.528C79.1802 50.272 79.4949 49.8987 79.6869 49.408L79.9909 50.464C79.7882 50.9653 79.4309 51.3653 78.9189 51.664C78.4069 51.952 77.7615 52.096 76.9829 52.096ZM87.5694 52.096C86.748 52.096 86.012 51.9147 85.3614 51.552C84.7214 51.1893 84.2147 50.6827 83.8414 50.032C83.468 49.3813 83.2814 48.624 83.2814 47.76C83.2814 46.896 83.468 46.144 83.8414 45.504C84.2147 44.8533 84.7214 44.3467 85.3614 43.984C86.012 43.6213 86.748 43.44 87.5694 43.44C88.284 43.44 88.9294 43.6 89.5054 43.92C90.0814 44.24 90.54 44.72 90.8814 45.36C91.2334 46 91.4094 46.8 91.4094 47.76C91.4094 48.72 91.2387 49.52 90.8974 50.16C90.5667 50.8 90.1134 51.2853 89.5374 51.616C88.9614 51.936 88.3054 52.096 87.5694 52.096ZM87.6974 50.752C88.2307 50.752 88.7107 50.6293 89.1374 50.384C89.5747 50.1387 89.916 49.792 90.1614 49.344C90.4174 48.8853 90.5454 48.3573 90.5454 47.76C90.5454 47.152 90.4174 46.6293 90.1614 46.192C89.916 45.744 89.5747 45.3973 89.1374 45.152C88.7107 44.9067 88.2307 44.784 87.6974 44.784C87.1534 44.784 86.668 44.9067 86.2414 45.152C85.8147 45.3973 85.4734 45.744 85.2174 46.192C84.9614 46.6293 84.8334 47.152 84.8334 47.76C84.8334 48.3573 84.9614 48.8853 85.2174 49.344C85.4734 49.792 85.8147 50.1387 86.2414 50.384C86.668 50.6293 87.1534 50.752 87.6974 50.752ZM90.5934 52V49.712L90.6894 47.744L90.5294 45.776V40.128H92.0654V52H90.5934ZM98.7476 52.096C97.841 52.096 97.041 51.9093 96.3476 51.536C95.665 51.1627 95.1316 50.6507 94.7476 50C94.3743 49.3493 94.1876 48.6027 94.1876 47.76C94.1876 46.9173 94.369 46.1707 94.7316 45.52C95.105 44.8693 95.6116 44.3627 96.2516 44C96.9023 43.6267 97.633 43.44 98.4436 43.44C99.265 43.44 99.9903 43.6213 100.62 43.984C101.249 44.3467 101.74 44.8587 102.092 45.52C102.454 46.1707 102.636 46.9333 102.636 47.808C102.636 47.872 102.63 47.9467 102.62 48.032C102.62 48.1173 102.614 48.1973 102.604 48.272H95.3876V47.168H101.804L101.18 47.552C101.19 47.008 101.078 46.5227 100.844 46.096C100.609 45.6693 100.284 45.3387 99.8676 45.104C99.4623 44.8587 98.9876 44.736 98.4436 44.736C97.9103 44.736 97.4356 44.8587 97.0196 45.104C96.6036 45.3387 96.2783 45.6747 96.0436 46.112C95.809 46.5387 95.6916 47.0293 95.6916 47.584V47.84C95.6916 48.4053 95.8196 48.912 96.0756 49.36C96.3423 49.7973 96.7103 50.1387 97.1796 50.384C97.649 50.6293 98.1876 50.752 98.7956 50.752C99.297 50.752 99.7503 50.6667 100.156 50.496C100.572 50.3253 100.934 50.0693 101.244 49.728L102.092 50.72C101.708 51.168 101.228 51.5093 100.652 51.744C100.086 51.9787 99.4516 52.096 98.7476 52.096ZM107.201 52.096C106.497 52.096 105.825 52 105.185 51.808C104.555 51.616 104.059 51.3813 103.697 51.104L104.337 49.888C104.699 50.1333 105.147 50.3413 105.681 50.512C106.214 50.6827 106.758 50.768 107.312 50.768C108.027 50.768 108.539 50.6667 108.849 50.464C109.169 50.2613 109.329 49.9787 109.329 49.616C109.329 49.3493 109.233 49.1413 109.041 48.992C108.849 48.8427 108.593 48.7307 108.273 48.656C107.963 48.5813 107.617 48.5173 107.233 48.464C106.849 48.4 106.465 48.3253 106.081 48.24C105.697 48.144 105.345 48.016 105.025 47.856C104.705 47.6853 104.449 47.456 104.257 47.168C104.065 46.8693 103.969 46.4747 103.969 45.984C103.969 45.472 104.113 45.024 104.401 44.64C104.689 44.256 105.094 43.9627 105.617 43.76C106.15 43.5467 106.779 43.44 107.505 43.44C108.059 43.44 108.619 43.5093 109.185 43.648C109.761 43.776 110.23 43.9627 110.593 44.208L109.937 45.424C109.553 45.168 109.153 44.992 108.737 44.896C108.321 44.8 107.905 44.752 107.489 44.752C106.817 44.752 106.315 44.864 105.985 45.088C105.654 45.3013 105.489 45.5787 105.489 45.92C105.489 46.208 105.585 46.432 105.777 46.592C105.979 46.7413 106.235 46.8587 106.545 46.944C106.865 47.0293 107.217 47.104 107.601 47.168C107.985 47.2213 108.369 47.296 108.753 47.392C109.137 47.4773 109.483 47.6 109.793 47.76C110.113 47.92 110.369 48.144 110.561 48.432C110.763 48.72 110.865 49.104 110.865 49.584C110.865 50.096 110.715 50.5387 110.417 50.912C110.118 51.2853 109.697 51.5787 109.153 51.792C108.609 51.9947 107.958 52.096 107.201 52.096ZM118.281 52V41.44L118.969 42.192H115.753V40.8H119.865V52H118.281ZM25.984 79L31.056 67.8H32.64L37.728 79H36.048L31.52 68.696H32.16L27.632 79H25.984ZM28.144 76.2L28.576 74.92H34.88L35.344 76.2H28.144ZM40.9613 79L37.2492 70.52H38.8493L42.1453 78.2H41.3773L44.7373 70.52H46.2413L42.5293 79H40.9613ZM52.6731 79V77.208L52.5931 76.872V73.816C52.5931 73.1653 52.4011 72.664 52.0171 72.312C51.6438 71.9493 51.0785 71.768 50.3211 71.768C49.8198 71.768 49.3291 71.8533 48.8491 72.024C48.3691 72.184 47.9638 72.4027 47.6331 72.68L46.9931 71.528C47.4305 71.176 47.9531 70.9093 48.5611 70.728C49.1798 70.536 49.8251 70.44 50.4971 70.44C51.6598 70.44 52.5558 70.7227 53.1851 71.288C53.8145 71.8533 54.1291 72.7173 54.1291 73.88V79H52.6731ZM49.8891 79.096C49.2598 79.096 48.7051 78.9893 48.2251 78.776C47.7558 78.5627 47.3931 78.2693 47.1371 77.896C46.8811 77.512 46.7531 77.08 46.7531 76.6C46.7531 76.1413 46.8598 75.7253 47.0731 75.352C47.2971 74.9787 47.6545 74.68 48.1451 74.456C48.6465 74.232 49.3185 74.12 50.1611 74.12H52.8491V75.224H50.2251C49.4571 75.224 48.9398 75.352 48.6731 75.608C48.4065 75.864 48.2731 76.1733 48.2731 76.536C48.2731 76.952 48.4385 77.288 48.7691 77.544C49.0998 77.7893 49.5585 77.912 50.1451 77.912C50.7211 77.912 51.2225 77.784 51.6491 77.528C52.0865 77.272 52.4011 76.8987 52.5931 76.408L52.8971 77.464C52.6945 77.9653 52.3371 78.3653 51.8251 78.664C51.3131 78.952 50.6678 79.096 49.8891 79.096ZM56.9716 79V67.128H58.5076V79H56.9716ZM61.4404 79V70.52H62.9764V79H61.4404ZM62.2084 68.888C61.9097 68.888 61.659 68.792 61.4564 68.6C61.2644 68.408 61.1684 68.1733 61.1684 67.896C61.1684 67.608 61.2644 67.368 61.4564 67.176C61.659 66.984 61.9097 66.888 62.2084 66.888C62.507 66.888 62.7524 66.984 62.9444 67.176C63.147 67.3573 63.2484 67.5867 63.2484 67.864C63.2484 68.152 63.1524 68.3973 62.9604 68.6C62.7684 68.792 62.5177 68.888 62.2084 68.888ZM71.1731 79V77.208L71.0931 76.872V73.816C71.0931 73.1653 70.9011 72.664 70.5171 72.312C70.1438 71.9493 69.5785 71.768 68.8211 71.768C68.3198 71.768 67.8291 71.8533 67.3491 72.024C66.8691 72.184 66.4638 72.4027 66.1331 72.68L65.4931 71.528C65.9305 71.176 66.4531 70.9093 67.0611 70.728C67.6798 70.536 68.3251 70.44 68.9971 70.44C70.1598 70.44 71.0558 70.7227 71.6851 71.288C72.3145 71.8533 72.6291 72.7173 72.6291 73.88V79H71.1731ZM68.3891 79.096C67.7598 79.096 67.2051 78.9893 66.7251 78.776C66.2558 78.5627 65.8931 78.2693 65.6371 77.896C65.3811 77.512 65.2531 77.08 65.2531 76.6C65.2531 76.1413 65.3598 75.7253 65.5731 75.352C65.7971 74.9787 66.1545 74.68 66.6451 74.456C67.1465 74.232 67.8185 74.12 68.6611 74.12H71.3491V75.224H68.7251C67.9571 75.224 67.4398 75.352 67.1731 75.608C66.9065 75.864 66.7731 76.1733 66.7731 76.536C66.7731 76.952 66.9385 77.288 67.2691 77.544C67.5998 77.7893 68.0585 77.912 68.6451 77.912C69.2211 77.912 69.7225 77.784 70.1491 77.528C70.5865 77.272 70.9011 76.8987 71.0931 76.408L71.3971 77.464C71.1945 77.9653 70.8371 78.3653 70.3251 78.664C69.8131 78.952 69.1678 79.096 68.3891 79.096ZM79.1676 79.096C78.3036 79.096 77.5303 78.9093 76.8476 78.536C76.1756 78.1627 75.6476 77.6507 75.2636 77C74.8796 76.3493 74.6876 75.6027 74.6876 74.76C74.6876 73.9173 74.8796 73.1707 75.2636 72.52C75.6476 71.8693 76.1756 71.3627 76.8476 71C77.5303 70.6267 78.3036 70.44 79.1676 70.44C79.9356 70.44 80.6183 70.5947 81.2156 70.904C81.8236 71.2027 82.293 71.6507 82.6236 72.248L81.4556 73C81.1783 72.584 80.837 72.28 80.4316 72.088C80.037 71.8853 79.6103 71.784 79.1516 71.784C78.597 71.784 78.101 71.9067 77.6636 72.152C77.2263 72.3973 76.8796 72.744 76.6236 73.192C76.3676 73.6293 76.2396 74.152 76.2396 74.76C76.2396 75.368 76.3676 75.896 76.6236 76.344C76.8796 76.792 77.2263 77.1387 77.6636 77.384C78.101 77.6293 78.597 77.752 79.1516 77.752C79.6103 77.752 80.037 77.656 80.4316 77.464C80.837 77.2613 81.1783 76.952 81.4556 76.536L82.6236 77.272C82.293 77.8587 81.8236 78.312 81.2156 78.632C80.6183 78.9413 79.9356 79.096 79.1676 79.096ZM78.4156 82.584C78.1383 82.584 77.8823 82.552 77.6476 82.488C77.413 82.4347 77.1943 82.3493 76.9916 82.232L77.3276 81.448C77.4983 81.544 77.669 81.6133 77.8396 81.656C78.021 81.6987 78.213 81.72 78.4156 81.72C78.725 81.72 78.949 81.6613 79.0876 81.544C79.237 81.4373 79.3116 81.2827 79.3116 81.08C79.3116 80.888 79.237 80.7333 79.0876 80.616C78.949 80.5093 78.7196 80.456 78.3996 80.456H77.9676L78.3676 78.888H79.2476L79.0076 79.8C79.4663 79.8427 79.813 79.9867 80.0476 80.232C80.2823 80.4773 80.3996 80.776 80.3996 81.128C80.3996 81.576 80.2183 81.928 79.8556 82.184C79.493 82.4507 79.013 82.584 78.4156 82.584ZM89.8763 79V77.208L89.7963 76.872V73.816C89.7963 73.1653 89.6043 72.664 89.2203 72.312C88.8469 71.9493 88.2816 71.768 87.5243 71.768C87.0229 71.768 86.5323 71.8533 86.0523 72.024C85.5723 72.184 85.1669 72.4027 84.8363 72.68L84.1963 71.528C84.6336 71.176 85.1563 70.9093 85.7643 70.728C86.3829 70.536 87.0283 70.44 87.7003 70.44C88.8629 70.44 89.7589 70.7227 90.3883 71.288C91.0176 71.8533 91.3323 72.7173 91.3323 73.88V79H89.8763ZM87.0923 79.096C86.4629 79.096 85.9083 78.9893 85.4283 78.776C84.9589 78.5627 84.5963 78.2693 84.3403 77.896C84.0843 77.512 83.9563 77.08 83.9563 76.6C83.9563 76.1413 84.0629 75.7253 84.2763 75.352C84.5003 74.9787 84.8576 74.68 85.3483 74.456C85.8496 74.232 86.5216 74.12 87.3643 74.12H90.0523V75.224H87.4283C86.6603 75.224 86.1429 75.352 85.8763 75.608C85.6096 75.864 85.4763 76.1733 85.4763 76.536C85.4763 76.952 85.6416 77.288 85.9723 77.544C86.3029 77.7893 86.7616 77.912 87.3483 77.912C87.9243 77.912 88.4256 77.784 88.8523 77.528C89.2896 77.272 89.6043 76.8987 89.7963 76.408L90.1003 77.464C89.8976 77.9653 89.5403 78.3653 89.0283 78.664C88.5163 78.952 87.8709 79.096 87.0923 79.096ZM88.9323 69.24C88.6763 69.24 88.4469 69.1867 88.2443 69.08C88.0523 68.9733 87.8763 68.8507 87.7163 68.712C87.5563 68.5627 87.4016 68.4347 87.2523 68.328C87.1029 68.2213 86.9536 68.168 86.8043 68.168C86.5696 68.168 86.3776 68.2587 86.2283 68.44C86.0896 68.6107 86.0096 68.8507 85.9883 69.16H85.1243C85.1456 68.5627 85.2949 68.088 85.5723 67.736C85.8496 67.384 86.2229 67.208 86.6923 67.208C86.9483 67.208 87.1776 67.2667 87.3802 67.384C87.5829 67.4907 87.7643 67.6187 87.9243 67.768C88.0843 67.9067 88.2336 68.0293 88.3723 68.136C88.5216 68.2427 88.6709 68.296 88.8203 68.296C89.0549 68.296 89.2469 68.2107 89.3963 68.04C89.5456 67.8693 89.6256 67.6347 89.6363 67.336H90.5003C90.4896 67.9013 90.3403 68.36 90.0523 68.712C89.7749 69.064 89.4016 69.24 88.9323 69.24ZM97.8068 79.096C96.9534 79.096 96.1961 78.9093 95.5348 78.536C94.8734 78.1627 94.3508 77.6507 93.9668 77C93.5828 76.3387 93.3908 75.592 93.3908 74.76C93.3908 73.9173 93.5828 73.1707 93.9668 72.52C94.3508 71.8693 94.8734 71.3627 95.5348 71C96.1961 70.6267 96.9534 70.44 97.8068 70.44C98.6494 70.44 99.4014 70.6267 100.063 71C100.735 71.3627 101.257 71.8693 101.631 72.52C102.015 73.16 102.207 73.9067 102.207 74.76C102.207 75.6027 102.015 76.3493 101.631 77C101.257 77.6507 100.735 78.1627 100.063 78.536C99.4014 78.9093 98.6494 79.096 97.8068 79.096ZM97.8068 77.752C98.3508 77.752 98.8361 77.6293 99.2628 77.384C99.7001 77.1387 100.041 76.792 100.287 76.344C100.532 75.8853 100.655 75.3573 100.655 74.76C100.655 74.152 100.532 73.6293 100.287 73.192C100.041 72.744 99.7001 72.3973 99.2628 72.152C98.8361 71.9067 98.3508 71.784 97.8068 71.784C97.2628 71.784 96.7774 71.9067 96.3508 72.152C95.9241 72.3973 95.5828 72.744 95.3268 73.192C95.0708 73.6293 94.9428 74.152 94.9428 74.76C94.9428 75.3573 95.0708 75.8853 95.3268 76.344C95.5828 76.792 95.9241 77.1387 96.3508 77.384C96.7774 77.6293 97.2628 77.752 97.8068 77.752ZM27.68 106V94.8H32.048C33.0293 94.8 33.8667 94.9547 34.56 95.264C35.2533 95.5733 35.7867 96.0213 36.16 96.608C36.5333 97.1947 36.72 97.8933 36.72 98.704C36.72 99.5147 36.5333 100.213 36.16 100.8C35.7867 101.376 35.2533 101.824 34.56 102.144C33.8667 102.453 33.0293 102.608 32.048 102.608H28.56L29.28 101.856V106H27.68ZM29.28 102.016L28.56 101.216H32C33.024 101.216 33.7973 100.997 34.32 100.56C34.8533 100.123 35.12 99.504 35.12 98.704C35.12 97.904 34.8533 97.2853 34.32 96.848C33.7973 96.4107 33.024 96.192 32 96.192H28.56L29.28 95.392V102.016ZM38.6904 106V97.52H40.1624V99.824L40.0184 99.248C40.253 98.6613 40.6477 98.2133 41.2024 97.904C41.757 97.5947 42.4397 97.44 43.2504 97.44V98.928C43.1864 98.9173 43.1224 98.912 43.0584 98.912C43.005 98.912 42.9517 98.912 42.8984 98.912C42.077 98.912 41.4264 99.1573 40.9464 99.648C40.4664 100.139 40.2264 100.848 40.2264 101.776V106H38.6904ZM48.6974 106.096C47.844 106.096 47.0867 105.909 46.4254 105.536C45.764 105.163 45.2414 104.651 44.8574 104C44.4734 103.339 44.2814 102.592 44.2814 101.76C44.2814 100.917 44.4734 100.171 44.8574 99.52C45.2414 98.8693 45.764 98.3627 46.4254 98C47.0867 97.6267 47.844 97.44 48.6974 97.44C49.54 97.44 50.292 97.6267 50.9534 98C51.6254 98.3627 52.148 98.8693 52.5214 99.52C52.9054 100.16 53.0974 100.907 53.0974 101.76C53.0974 102.603 52.9054 103.349 52.5214 104C52.148 104.651 51.6254 105.163 50.9534 105.536C50.292 105.909 49.54 106.096 48.6974 106.096ZM48.6974 104.752C49.2414 104.752 49.7267 104.629 50.1534 104.384C50.5907 104.139 50.932 103.792 51.1774 103.344C51.4227 102.885 51.5454 102.357 51.5454 101.76C51.5454 101.152 51.4227 100.629 51.1774 100.192C50.932 99.744 50.5907 99.3973 50.1534 99.152C49.7267 98.9067 49.2414 98.784 48.6974 98.784C48.1534 98.784 47.668 98.9067 47.2414 99.152C46.8147 99.3973 46.4734 99.744 46.2174 100.192C45.9614 100.629 45.8334 101.152 45.8334 101.76C45.8334 102.357 45.9614 102.885 46.2174 103.344C46.4734 103.792 46.8147 104.139 47.2414 104.384C47.668 104.629 48.1534 104.752 48.6974 104.752ZM54.1336 109.2C53.7816 109.2 53.4456 109.157 53.1256 109.072C52.795 108.987 52.5176 108.859 52.2936 108.688L52.7896 107.504C53.1096 107.771 53.5256 107.904 54.0376 107.904C54.443 107.904 54.7523 107.776 54.9656 107.52C55.1896 107.275 55.3016 106.907 55.3016 106.416V97.52H56.8376V106.384C56.8376 107.248 56.603 107.931 56.1336 108.432C55.675 108.944 55.0083 109.2 54.1336 109.2ZM56.0696 95.888C55.771 95.888 55.5203 95.792 55.3176 95.6C55.1256 95.408 55.0296 95.1733 55.0296 94.896C55.0296 94.608 55.1256 94.368 55.3176 94.176C55.5203 93.984 55.771 93.888 56.0696 93.888C56.3683 93.888 56.6136 93.984 56.8056 94.176C57.0083 94.3573 57.1096 94.5867 57.1096 94.864C57.1096 95.152 57.0136 95.3973 56.8216 95.6C56.6296 95.792 56.379 95.888 56.0696 95.888ZM63.5445 106.096C62.6378 106.096 61.8378 105.909 61.1445 105.536C60.4618 105.163 59.9285 104.651 59.5445 104C59.1712 103.349 58.9845 102.603 58.9845 101.76C58.9845 100.917 59.1658 100.171 59.5285 99.52C59.9018 98.8693 60.4085 98.3627 61.0485 98C61.6992 97.6267 62.4298 97.44 63.2405 97.44C64.0618 97.44 64.7872 97.6213 65.4165 97.984C66.0458 98.3467 66.5365 98.8587 66.8885 99.52C67.2512 100.171 67.4325 100.933 67.4325 101.808C67.4325 101.872 67.4272 101.947 67.4165 102.032C67.4165 102.117 67.4112 102.197 67.4005 102.272H60.1845V101.168H66.6005L65.9765 101.552C65.9872 101.008 65.8752 100.523 65.6405 100.096C65.4058 99.6693 65.0805 99.3387 64.6645 99.104C64.2592 98.8587 63.7845 98.736 63.2405 98.736C62.7072 98.736 62.2325 98.8587 61.8165 99.104C61.4005 99.3387 61.0752 99.6747 60.8405 100.112C60.6058 100.539 60.4885 101.029 60.4885 101.584V101.84C60.4885 102.405 60.6165 102.912 60.8725 103.36C61.1392 103.797 61.5072 104.139 61.9765 104.384C62.4458 104.629 62.9845 104.752 63.5925 104.752C64.0938 104.752 64.5472 104.667 64.9525 104.496C65.3685 104.325 65.7312 104.069 66.0405 103.728L66.8885 104.72C66.5045 105.168 66.0245 105.509 65.4485 105.744C64.8832 105.979 64.2485 106.096 63.5445 106.096ZM72.4774 106.096C71.624 106.096 70.9627 105.867 70.4934 105.408C70.024 104.949 69.7894 104.293 69.7894 103.44V95.664H71.3254V103.376C71.3254 103.835 71.4374 104.187 71.6614 104.432C71.896 104.677 72.2267 104.8 72.6534 104.8C73.1334 104.8 73.5334 104.667 73.8534 104.4L74.3334 105.504C74.0987 105.707 73.816 105.856 73.4854 105.952C73.1654 106.048 72.8294 106.096 72.4774 106.096ZM68.3494 98.784V97.52H73.7574V98.784H68.3494ZM79.5411 106.096C78.6878 106.096 77.9305 105.909 77.2691 105.536C76.6078 105.163 76.0851 104.651 75.7011 104C75.3171 103.339 75.1251 102.592 75.1251 101.76C75.1251 100.917 75.3171 100.171 75.7011 99.52C76.0851 98.8693 76.6078 98.3627 77.2691 98C77.9305 97.6267 78.6878 97.44 79.5411 97.44C80.3838 97.44 81.1358 97.6267 81.7971 98C82.4691 98.3627 82.9918 98.8693 83.3651 99.52C83.7491 100.16 83.9411 100.907 83.9411 101.76C83.9411 102.603 83.7491 103.349 83.3651 104C82.9918 104.651 82.4691 105.163 81.7971 105.536C81.1358 105.909 80.3838 106.096 79.5411 106.096ZM79.5411 104.752C80.0851 104.752 80.5705 104.629 80.9971 104.384C81.4345 104.139 81.7758 103.792 82.0211 103.344C82.2665 102.885 82.3891 102.357 82.3891 101.76C82.3891 101.152 82.2665 100.629 82.0211 100.192C81.7758 99.744 81.4345 99.3973 80.9971 99.152C80.5705 98.9067 80.0851 98.784 79.5411 98.784C78.9971 98.784 78.5118 98.9067 78.0851 99.152C77.6585 99.3973 77.3171 99.744 77.0611 100.192C76.8051 100.629 76.6771 101.152 76.6771 101.76C76.6771 102.357 76.8051 102.885 77.0611 103.344C77.3171 103.792 77.6585 104.139 78.0851 104.384C78.5118 104.629 78.9971 104.752 79.5411 104.752ZM88.4974 106.096C87.7934 106.096 87.1214 106 86.4814 105.808C85.852 105.616 85.356 105.381 84.9934 105.104L85.6334 103.888C85.996 104.133 86.444 104.341 86.9774 104.512C87.5107 104.683 88.0547 104.768 88.6094 104.768C89.324 104.768 89.836 104.667 90.1454 104.464C90.4654 104.261 90.6254 103.979 90.6254 103.616C90.6254 103.349 90.5294 103.141 90.3374 102.992C90.1454 102.843 89.8894 102.731 89.5694 102.656C89.26 102.581 88.9134 102.517 88.5294 102.464C88.1454 102.4 87.7614 102.325 87.3774 102.24C86.9934 102.144 86.6414 102.016 86.3214 101.856C86.0014 101.685 85.7454 101.456 85.5534 101.168C85.3614 100.869 85.2654 100.475 85.2654 99.984C85.2654 99.472 85.4094 99.024 85.6974 98.64C85.9854 98.256 86.3907 97.9627 86.9134 97.76C87.4467 97.5467 88.076 97.44 88.8014 97.44C89.356 97.44 89.916 97.5093 90.4814 97.648C91.0574 97.776 91.5267 97.9627 91.8894 98.208L91.2334 99.424C90.8494 99.168 90.4494 98.992 90.0334 98.896C89.6174 98.8 89.2014 98.752 88.7854 98.752C88.1134 98.752 87.612 98.864 87.2814 99.088C86.9507 99.3013 86.7854 99.5787 86.7854 99.92C86.7854 100.208 86.8814 100.432 87.0734 100.592C87.276 100.741 87.532 100.859 87.8414 100.944C88.1614 101.029 88.5134 101.104 88.8974 101.168C89.2814 101.221 89.6654 101.296 90.0494 101.392C90.4334 101.477 90.78 101.6 91.0894 101.76C91.4094 101.92 91.6654 102.144 91.8574 102.432C92.06 102.72 92.1614 103.104 92.1614 103.584C92.1614 104.096 92.012 104.539 91.7134 104.912C91.4147 105.285 90.9934 105.579 90.4494 105.792C89.9054 105.995 89.2547 106.096 88.4974 106.096ZM25.984 133L31.056 121.8H32.64L37.728 133H36.048L31.52 122.696H32.16L27.632 133H25.984ZM28.144 130.2L28.576 128.92H34.88L35.344 130.2H28.144ZM42.0086 133.096C41.1553 133.096 40.494 132.867 40.0246 132.408C39.5553 131.949 39.3206 131.293 39.3206 130.44V122.664H40.8566V130.376C40.8566 130.835 40.9686 131.187 41.1926 131.432C41.4273 131.677 41.758 131.8 42.1846 131.8C42.6646 131.8 43.0646 131.667 43.3846 131.4L43.8646 132.504C43.63 132.707 43.3473 132.856 43.0166 132.952C42.6966 133.048 42.3606 133.096 42.0086 133.096ZM37.8806 125.784V124.52H43.2886V125.784H37.8806ZM45.7216 133V124.52H47.2576V133H45.7216ZM46.4896 122.888C46.191 122.888 45.9403 122.792 45.7376 122.6C45.5456 122.408 45.4496 122.173 45.4496 121.896C45.4496 121.608 45.5456 121.368 45.7376 121.176C45.9403 120.984 46.191 120.888 46.4896 120.888C46.7883 120.888 47.0336 120.984 47.2256 121.176C47.4283 121.357 47.5296 121.587 47.5296 121.864C47.5296 122.152 47.4336 122.397 47.2416 122.6C47.0496 122.792 46.799 122.888 46.4896 122.888ZM52.4144 133L48.7024 124.52H50.3024L53.5984 132.2H52.8304L56.1904 124.52H57.6944L53.9824 133H52.4144ZM59.1279 133V124.52H60.6639V133H59.1279ZM59.8959 122.888C59.5972 122.888 59.3465 122.792 59.1439 122.6C58.9519 122.408 58.8559 122.173 58.8559 121.896C58.8559 121.608 58.9519 121.368 59.1439 121.176C59.3465 120.984 59.5972 120.888 59.8959 120.888C60.1945 120.888 60.4399 120.984 60.6319 121.176C60.8345 121.357 60.9359 121.587 60.9359 121.864C60.9359 122.152 60.8399 122.397 60.6479 122.6C60.4559 122.792 60.2052 122.888 59.8959 122.888ZM67.1006 133.096C66.2793 133.096 65.5433 132.915 64.8926 132.552C64.2526 132.189 63.746 131.683 63.3726 131.032C62.9993 130.381 62.8126 129.624 62.8126 128.76C62.8126 127.896 62.9993 127.144 63.3726 126.504C63.746 125.853 64.2526 125.347 64.8926 124.984C65.5433 124.621 66.2793 124.44 67.1006 124.44C67.8153 124.44 68.4606 124.6 69.0366 124.92C69.6126 125.24 70.0713 125.72 70.4126 126.36C70.7646 127 70.9406 127.8 70.9406 128.76C70.9406 129.72 70.77 130.52 70.4286 131.16C70.098 131.8 69.6446 132.285 69.0686 132.616C68.4926 132.936 67.8366 133.096 67.1006 133.096ZM67.2286 131.752C67.762 131.752 68.242 131.629 68.6686 131.384C69.106 131.139 69.4473 130.792 69.6926 130.344C69.9486 129.885 70.0766 129.357 70.0766 128.76C70.0766 128.152 69.9486 127.629 69.6926 127.192C69.4473 126.744 69.106 126.397 68.6686 126.152C68.242 125.907 67.762 125.784 67.2286 125.784C66.6846 125.784 66.1993 125.907 65.7726 126.152C65.346 126.397 65.0046 126.744 64.7486 127.192C64.4926 127.629 64.3646 128.152 64.3646 128.76C64.3646 129.357 64.4926 129.885 64.7486 130.344C65.0046 130.792 65.346 131.139 65.7726 131.384C66.1993 131.629 66.6846 131.752 67.2286 131.752ZM70.1246 133V130.712L70.2206 128.744L70.0606 126.776V121.128H71.5966V133H70.1246ZM79.7669 133V131.208L79.6869 130.872V127.816C79.6869 127.165 79.4949 126.664 79.1109 126.312C78.7375 125.949 78.1722 125.768 77.4149 125.768C76.9135 125.768 76.4229 125.853 75.9429 126.024C75.4629 126.184 75.0575 126.403 74.7269 126.68L74.0869 125.528C74.5242 125.176 75.0469 124.909 75.6549 124.728C76.2735 124.536 76.9189 124.44 77.5909 124.44C78.7535 124.44 79.6495 124.723 80.2789 125.288C80.9082 125.853 81.2229 126.717 81.2229 127.88V133H79.7669ZM76.9829 133.096C76.3535 133.096 75.7989 132.989 75.3189 132.776C74.8495 132.563 74.4869 132.269 74.2309 131.896C73.9749 131.512 73.8469 131.08 73.8469 130.6C73.8469 130.141 73.9535 129.725 74.1669 129.352C74.3909 128.979 74.7482 128.68 75.2389 128.456C75.7402 128.232 76.4122 128.12 77.2549 128.12H79.9429V129.224H77.3189C76.5509 129.224 76.0335 129.352 75.7669 129.608C75.5002 129.864 75.3669 130.173 75.3669 130.536C75.3669 130.952 75.5322 131.288 75.8629 131.544C76.1935 131.789 76.6522 131.912 77.2389 131.912C77.8149 131.912 78.3162 131.784 78.7429 131.528C79.1802 131.272 79.4949 130.899 79.6869 130.408L79.9909 131.464C79.7882 131.965 79.4309 132.365 78.9189 132.664C78.4069 132.952 77.7615 133.096 76.9829 133.096ZM87.5694 133.096C86.748 133.096 86.012 132.915 85.3614 132.552C84.7214 132.189 84.2147 131.683 83.8414 131.032C83.468 130.381 83.2814 129.624 83.2814 128.76C83.2814 127.896 83.468 127.144 83.8414 126.504C84.2147 125.853 84.7214 125.347 85.3614 124.984C86.012 124.621 86.748 124.44 87.5694 124.44C88.284 124.44 88.9294 124.6 89.5054 124.92C90.0814 125.24 90.54 125.72 90.8814 126.36C91.2334 127 91.4094 127.8 91.4094 128.76C91.4094 129.72 91.2387 130.52 90.8974 131.16C90.5667 131.8 90.1134 132.285 89.5374 132.616C88.9614 132.936 88.3054 133.096 87.5694 133.096ZM87.6974 131.752C88.2307 131.752 88.7107 131.629 89.1374 131.384C89.5747 131.139 89.916 130.792 90.1614 130.344C90.4174 129.885 90.5454 129.357 90.5454 128.76C90.5454 128.152 90.4174 127.629 90.1614 127.192C89.916 126.744 89.5747 126.397 89.1374 126.152C88.7107 125.907 88.2307 125.784 87.6974 125.784C87.1534 125.784 86.668 125.907 86.2414 126.152C85.8147 126.397 85.4734 126.744 85.2174 127.192C84.9614 127.629 84.8334 128.152 84.8334 128.76C84.8334 129.357 84.9614 129.885 85.2174 130.344C85.4734 130.792 85.8147 131.139 86.2414 131.384C86.668 131.629 87.1534 131.752 87.6974 131.752ZM90.5934 133V130.712L90.6894 128.744L90.5294 126.776V121.128H92.0654V133H90.5934ZM98.7476 133.096C97.841 133.096 97.041 132.909 96.3476 132.536C95.665 132.163 95.1316 131.651 94.7476 131C94.3743 130.349 94.1876 129.603 94.1876 128.76C94.1876 127.917 94.369 127.171 94.7316 126.52C95.105 125.869 95.6116 125.363 96.2516 125C96.9023 124.627 97.633 124.44 98.4436 124.44C99.265 124.44 99.9903 124.621 100.62 124.984C101.249 125.347 101.74 125.859 102.092 126.52C102.454 127.171 102.636 127.933 102.636 128.808C102.636 128.872 102.63 128.947 102.62 129.032C102.62 129.117 102.614 129.197 102.604 129.272H95.3876V128.168H101.804L101.18 128.552C101.19 128.008 101.078 127.523 100.844 127.096C100.609 126.669 100.284 126.339 99.8676 126.104C99.4623 125.859 98.9876 125.736 98.4436 125.736C97.9103 125.736 97.4356 125.859 97.0196 126.104C96.6036 126.339 96.2783 126.675 96.0436 127.112C95.809 127.539 95.6916 128.029 95.6916 128.584V128.84C95.6916 129.405 95.8196 129.912 96.0756 130.36C96.3423 130.797 96.7103 131.139 97.1796 131.384C97.649 131.629 98.1876 131.752 98.7956 131.752C99.297 131.752 99.7503 131.667 100.156 131.496C100.572 131.325 100.934 131.069 101.244 130.728L102.092 131.72C101.708 132.168 101.228 132.509 100.652 132.744C100.086 132.979 99.4516 133.096 98.7476 133.096ZM107.201 133.096C106.497 133.096 105.825 133 105.185 132.808C104.555 132.616 104.059 132.381 103.697 132.104L104.337 130.888C104.699 131.133 105.147 131.341 105.681 131.512C106.214 131.683 106.758 131.768 107.312 131.768C108.027 131.768 108.539 131.667 108.849 131.464C109.169 131.261 109.329 130.979 109.329 130.616C109.329 130.349 109.233 130.141 109.041 129.992C108.849 129.843 108.593 129.731 108.273 129.656C107.963 129.581 107.617 129.517 107.233 129.464C106.849 129.4 106.465 129.325 106.081 129.24C105.697 129.144 105.345 129.016 105.025 128.856C104.705 128.685 104.449 128.456 104.257 128.168C104.065 127.869 103.969 127.475 103.969 126.984C103.969 126.472 104.113 126.024 104.401 125.64C104.689 125.256 105.094 124.963 105.617 124.76C106.15 124.547 106.779 124.44 107.505 124.44C108.059 124.44 108.619 124.509 109.185 124.648C109.761 124.776 110.23 124.963 110.593 125.208L109.937 126.424C109.553 126.168 109.153 125.992 108.737 125.896C108.321 125.8 107.905 125.752 107.489 125.752C106.817 125.752 106.315 125.864 105.985 126.088C105.654 126.301 105.489 126.579 105.489 126.92C105.489 127.208 105.585 127.432 105.777 127.592C105.979 127.741 106.235 127.859 106.545 127.944C106.865 128.029 107.217 128.104 107.601 128.168C107.985 128.221 108.369 128.296 108.753 128.392C109.137 128.477 109.483 128.6 109.793 128.76C110.113 128.92 110.369 129.144 110.561 129.432C110.763 129.72 110.865 130.104 110.865 130.584C110.865 131.096 110.715 131.539 110.417 131.912C110.118 132.285 109.697 132.579 109.153 132.792C108.609 132.995 107.958 133.096 107.201 133.096ZM116.217 133V131.912L120.777 127.512C121.182 127.128 121.481 126.792 121.673 126.504C121.876 126.205 122.009 125.933 122.073 125.688C122.148 125.432 122.185 125.187 122.185 124.952C122.185 124.376 121.982 123.923 121.577 123.592C121.172 123.261 120.58 123.096 119.801 123.096C119.204 123.096 118.665 123.197 118.185 123.4C117.705 123.592 117.289 123.896 116.937 124.312L115.849 123.368C116.276 122.824 116.846 122.408 117.561 122.12C118.286 121.821 119.081 121.672 119.945 121.672C120.724 121.672 121.401 121.8 121.977 122.056C122.553 122.301 122.996 122.659 123.305 123.128C123.625 123.597 123.785 124.152 123.785 124.792C123.785 125.155 123.737 125.512 123.641 125.864C123.545 126.216 123.364 126.589 123.097 126.984C122.83 127.379 122.446 127.821 121.945 128.312L117.881 132.232L117.497 131.608H124.265V133H116.217ZM27.504 160V148.8H29.216L34.112 156.976H33.216L38.032 148.8H39.744L39.76 160H37.792L37.776 151.888H38.192L34.096 158.72H33.168L29.008 151.888H29.488V160H27.504ZM46.6093 160.112C45.6599 160.112 44.8279 159.925 44.1133 159.552C43.4093 159.168 42.8599 158.645 42.4653 157.984C42.0813 157.323 41.8893 156.571 41.8893 155.728C41.8893 154.875 42.0759 154.123 42.4493 153.472C42.8333 152.811 43.3559 152.293 44.0173 151.92C44.6893 151.547 45.4519 151.36 46.3053 151.36C47.1373 151.36 47.8786 151.541 48.5293 151.904C49.1799 152.267 49.6919 152.779 50.0653 153.44C50.4386 154.101 50.6253 154.88 50.6253 155.776C50.6253 155.861 50.6199 155.957 50.6093 156.064C50.6093 156.171 50.6039 156.272 50.5933 156.368H43.4733V155.04H49.5373L48.7533 155.456C48.7639 154.965 48.6626 154.533 48.4493 154.16C48.2359 153.787 47.9426 153.493 47.5693 153.28C47.2066 153.067 46.7853 152.96 46.3053 152.96C45.8146 152.96 45.3826 153.067 45.0093 153.28C44.6466 153.493 44.3586 153.792 44.1453 154.176C43.9426 154.549 43.8413 154.992 43.8413 155.504V155.824C43.8413 156.336 43.9586 156.789 44.1933 157.184C44.4279 157.579 44.7586 157.883 45.1853 158.096C45.6119 158.309 46.1026 158.416 46.6573 158.416C47.1373 158.416 47.5693 158.341 47.9533 158.192C48.3373 158.043 48.6786 157.808 48.9773 157.488L50.0493 158.72C49.6653 159.168 49.1799 159.515 48.5933 159.76C48.0173 159.995 47.3559 160.112 46.6093 160.112ZM44.9133 150.288L47.0733 148.096H49.4253L46.6413 150.288H44.9133ZM56.1624 160.112C55.341 160.112 54.5997 159.931 53.9384 159.568C53.2877 159.195 52.7757 158.683 52.4024 158.032C52.029 157.381 51.8424 156.613 51.8424 155.728C51.8424 154.843 52.029 154.075 52.4024 153.424C52.7757 152.773 53.2877 152.267 53.9384 151.904C54.5997 151.541 55.341 151.36 56.1624 151.36C56.877 151.36 57.517 151.52 58.0824 151.84C58.6477 152.149 59.0957 152.624 59.4264 153.264C59.757 153.904 59.9224 154.725 59.9224 155.728C59.9224 156.72 59.7624 157.541 59.4424 158.192C59.1224 158.832 58.6797 159.312 58.1144 159.632C57.549 159.952 56.8984 160.112 56.1624 160.112ZM56.4024 158.4C56.8824 158.4 57.309 158.293 57.6824 158.08C58.0664 157.867 58.3704 157.557 58.5944 157.152C58.829 156.747 58.9464 156.272 58.9464 155.728C58.9464 155.173 58.829 154.699 58.5944 154.304C58.3704 153.899 58.0664 153.589 57.6824 153.376C57.309 153.163 56.8824 153.056 56.4024 153.056C55.9224 153.056 55.4904 153.163 55.1064 153.376C54.733 153.589 54.429 153.899 54.1944 154.304C53.9704 154.699 53.8584 155.173 53.8584 155.728C53.8584 156.272 53.9704 156.747 54.1944 157.152C54.429 157.557 54.733 157.867 55.1064 158.08C55.4904 158.293 55.9224 158.4 56.4024 158.4ZM58.9944 160V157.984L59.0744 155.712L58.9144 153.44V148.128H60.8984V160H58.9944ZM63.5308 160V151.456H65.5308V160H63.5308ZM64.5388 150.048C64.1654 150.048 63.8561 149.931 63.6108 149.696C63.3761 149.461 63.2588 149.179 63.2588 148.848C63.2588 148.507 63.3761 148.224 63.6108 148C63.8561 147.765 64.1654 147.648 64.5388 147.648C64.9121 147.648 65.2161 147.76 65.4508 147.984C65.6961 148.197 65.8188 148.469 65.8188 148.8C65.8188 149.152 65.7014 149.451 65.4668 149.696C65.2321 149.931 64.9228 150.048 64.5388 150.048ZM73.4198 160V158.272L73.3078 157.904V154.88C73.3078 154.293 73.1318 153.84 72.7798 153.52C72.4278 153.189 71.8944 153.024 71.1798 153.024C70.6998 153.024 70.2251 153.099 69.7558 153.248C69.2971 153.397 68.9078 153.605 68.5878 153.872L67.8038 152.416C68.2624 152.064 68.8064 151.803 69.4358 151.632C70.0758 151.451 70.7371 151.36 71.4198 151.36C72.6571 151.36 73.6118 151.659 74.2838 152.256C74.9664 152.843 75.3078 153.755 75.3078 154.992V160H73.4198ZM70.7318 160.112C70.0918 160.112 69.5318 160.005 69.0518 159.792C68.5718 159.568 68.1984 159.264 67.9318 158.88C67.6758 158.485 67.5478 158.043 67.5478 157.552C67.5478 157.072 67.6598 156.64 67.8838 156.256C68.1184 155.872 68.4971 155.568 69.0198 155.344C69.5424 155.12 70.2358 155.008 71.0998 155.008H73.5798V156.336H71.2438C70.5611 156.336 70.1024 156.448 69.8678 156.672C69.6331 156.885 69.5158 157.152 69.5158 157.472C69.5158 157.835 69.6598 158.123 69.9478 158.336C70.2358 158.549 70.6358 158.656 71.1478 158.656C71.6384 158.656 72.0758 158.544 72.4598 158.32C72.8544 158.096 73.1371 157.765 73.3078 157.328L73.6438 158.528C73.4518 159.029 73.1051 159.419 72.6038 159.696C72.1131 159.973 71.4891 160.112 70.7318 160.112Z" fill="#2A2828"/>
<path d="M271.4 36.672C272.413 36.672 273.267 36.8907 273.96 37.328C274.664 37.7653 275.197 38.4 275.56 39.232C275.923 40.0533 276.104 41.0613 276.104 42.256C276.104 43.5253 275.88 44.5973 275.432 45.472C274.984 46.3467 274.365 47.008 273.576 47.456C272.787 47.904 271.864 48.128 270.808 48.128C270.285 48.128 269.779 48.0747 269.288 47.968C268.808 47.8613 268.387 47.696 268.024 47.472L268.632 46.224C268.931 46.416 269.261 46.5547 269.624 46.64C269.997 46.7147 270.387 46.752 270.792 46.752C271.923 46.752 272.824 46.4 273.496 45.696C274.168 44.9813 274.504 43.9253 274.504 42.528C274.504 42.304 274.493 42.0373 274.472 41.728C274.451 41.4187 274.403 41.1147 274.328 40.816L274.856 41.36C274.707 41.8507 274.456 42.2667 274.104 42.608C273.763 42.9387 273.347 43.1893 272.856 43.36C272.376 43.52 271.848 43.6 271.272 43.6C270.536 43.6 269.88 43.4613 269.304 43.184C268.728 42.9067 268.275 42.5173 267.944 42.016C267.613 41.504 267.448 40.9013 267.448 40.208C267.448 39.4827 267.619 38.8587 267.96 38.336C268.312 37.8027 268.787 37.392 269.384 37.104C269.992 36.816 270.664 36.672 271.4 36.672ZM271.464 37.968C270.984 37.968 270.557 38.0587 270.184 38.24C269.811 38.4213 269.517 38.672 269.304 38.992C269.101 39.312 269 39.696 269 40.144C269 40.8053 269.229 41.3333 269.688 41.728C270.147 42.112 270.765 42.304 271.544 42.304C272.056 42.304 272.504 42.208 272.888 42.016C273.283 41.824 273.587 41.5627 273.8 41.232C274.024 40.9013 274.136 40.5333 274.136 40.128C274.136 39.7333 274.035 39.376 273.832 39.056C273.629 38.736 273.331 38.4747 272.936 38.272C272.541 38.0693 272.051 37.968 271.464 37.968ZM277.536 50.368L278.336 47.136L278.544 48.064C278.234 48.064 277.973 47.968 277.76 47.776C277.557 47.584 277.456 47.3227 277.456 46.992C277.456 46.672 277.557 46.4107 277.76 46.208C277.973 46.0053 278.229 45.904 278.528 45.904C278.837 45.904 279.088 46.0107 279.28 46.224C279.472 46.4267 279.568 46.6827 279.568 46.992C279.568 47.0987 279.557 47.2053 279.536 47.312C279.525 47.408 279.498 47.5253 279.456 47.664C279.424 47.792 279.37 47.952 279.296 48.144L278.544 50.368H277.536ZM284.697 48.128C283.907 48.128 283.139 48.0053 282.393 47.76C281.657 47.5147 281.054 47.184 280.585 46.768L281.321 45.504C281.694 45.856 282.179 46.144 282.777 46.368C283.374 46.592 284.009 46.704 284.681 46.704C285.534 46.704 286.19 46.5227 286.649 46.16C287.107 45.7973 287.337 45.312 287.337 44.704C287.337 44.288 287.235 43.9253 287.033 43.616C286.83 43.3067 286.478 43.072 285.977 42.912C285.486 42.7413 284.809 42.656 283.945 42.656H281.401L281.993 36.8H288.312V38.192H282.585L283.417 37.408L282.953 42.032L282.121 41.264H284.281C285.401 41.264 286.302 41.408 286.985 41.696C287.667 41.984 288.163 42.384 288.473 42.896C288.782 43.3973 288.937 43.9787 288.937 44.64C288.937 45.28 288.782 45.8667 288.473 46.4C288.163 46.9227 287.694 47.344 287.065 47.664C286.446 47.9733 285.657 48.128 284.697 48.128ZM272.136 75.128C271.229 75.128 270.445 74.9947 269.784 74.728C269.123 74.4613 268.611 74.0827 268.248 73.592C267.885 73.0907 267.704 72.504 267.704 71.832C267.704 71.1707 267.875 70.6107 268.216 70.152C268.568 69.6827 269.075 69.3307 269.736 69.096C270.397 68.8507 271.197 68.728 272.136 68.728C273.075 68.728 273.875 68.8507 274.536 69.096C275.208 69.3307 275.72 69.6827 276.072 70.152C276.424 70.6213 276.6 71.1813 276.6 71.832C276.6 72.504 276.419 73.0907 276.056 73.592C275.693 74.0827 275.176 74.4613 274.504 74.728C273.832 74.9947 273.043 75.128 272.136 75.128ZM272.136 73.832C273.032 73.832 273.731 73.6507 274.232 73.288C274.744 72.9147 275 72.4133 275 71.784C275 71.1653 274.744 70.68 274.232 70.328C273.731 69.9653 273.032 69.784 272.136 69.784C271.251 69.784 270.557 69.9653 270.056 70.328C269.555 70.68 269.304 71.1653 269.304 71.784C269.304 72.4133 269.555 72.9147 270.056 73.288C270.557 73.6507 271.251 73.832 272.136 73.832ZM272.136 69.592C271.283 69.592 270.557 69.48 269.96 69.256C269.363 69.0213 268.904 68.6907 268.584 68.264C268.264 67.8267 268.104 67.3093 268.104 66.712C268.104 66.0827 268.269 65.544 268.6 65.096C268.941 64.6373 269.416 64.2853 270.024 64.04C270.632 63.7947 271.336 63.672 272.136 63.672C272.947 63.672 273.656 63.7947 274.264 64.04C274.872 64.2853 275.347 64.6373 275.688 65.096C276.029 65.544 276.2 66.0827 276.2 66.712C276.2 67.3093 276.04 67.8267 275.72 68.264C275.4 68.6907 274.936 69.0213 274.328 69.256C273.72 69.48 272.989 69.592 272.136 69.592ZM272.136 68.568C272.915 68.568 273.523 68.408 273.96 68.088C274.408 67.768 274.632 67.3307 274.632 66.776C274.632 66.2107 274.403 65.768 273.944 65.448C273.485 65.128 272.883 64.968 272.136 64.968C271.389 64.968 270.792 65.128 270.344 65.448C269.907 65.768 269.688 66.2107 269.688 66.776C269.688 67.3307 269.901 67.768 270.328 68.088C270.765 68.408 271.368 68.568 272.136 68.568ZM278.301 77.368L279.101 74.136L279.309 75.064C279 75.064 278.738 74.968 278.525 74.776C278.322 74.584 278.221 74.3227 278.221 73.992C278.221 73.672 278.322 73.4107 278.525 73.208C278.738 73.0053 278.994 72.904 279.293 72.904C279.602 72.904 279.853 73.0107 280.045 73.224C280.237 73.4267 280.333 73.6827 280.333 73.992C280.333 74.0987 280.322 74.2053 280.301 74.312C280.29 74.408 280.264 74.5253 280.221 74.664C280.189 74.792 280.136 74.952 280.061 75.144L279.309 77.368H278.301ZM285.478 63.672C286.491 63.672 287.345 63.8907 288.038 64.328C288.742 64.7653 289.275 65.4 289.638 66.232C290.001 67.0533 290.182 68.0613 290.182 69.256C290.182 70.5253 289.958 71.5973 289.51 72.472C289.062 73.3467 288.443 74.008 287.654 74.456C286.865 74.904 285.942 75.128 284.886 75.128C284.363 75.128 283.857 75.0747 283.366 74.968C282.886 74.8613 282.465 74.696 282.102 74.472L282.71 73.224C283.009 73.416 283.339 73.5547 283.702 73.64C284.075 73.7147 284.465 73.752 284.87 73.752C286.001 73.752 286.902 73.4 287.574 72.696C288.246 71.9813 288.582 70.9253 288.582 69.528C288.582 69.304 288.571 69.0373 288.55 68.728C288.529 68.4187 288.481 68.1147 288.406 67.816L288.934 68.36C288.785 68.8507 288.534 69.2667 288.182 69.608C287.841 69.9387 287.425 70.1893 286.934 70.36C286.454 70.52 285.926 70.6 285.35 70.6C284.614 70.6 283.958 70.4613 283.382 70.184C282.806 69.9067 282.353 69.5173 282.022 69.016C281.691 68.504 281.526 67.9013 281.526 67.208C281.526 66.4827 281.697 65.8587 282.038 65.336C282.39 64.8027 282.865 64.392 283.462 64.104C284.07 63.816 284.742 63.672 285.478 63.672ZM285.542 64.968C285.062 64.968 284.635 65.0587 284.262 65.24C283.889 65.4213 283.595 65.672 283.382 65.992C283.179 66.312 283.078 66.696 283.078 67.144C283.078 67.8053 283.307 68.3333 283.766 68.728C284.225 69.112 284.843 69.304 285.622 69.304C286.134 69.304 286.582 69.208 286.966 69.016C287.361 68.824 287.665 68.5627 287.878 68.232C288.102 67.9013 288.214 67.5333 288.214 67.128C288.214 66.7333 288.113 66.376 287.91 66.056C287.707 65.736 287.409 65.4747 287.014 65.272C286.619 65.0693 286.129 64.968 285.542 64.968ZM272.136 102.128C271.229 102.128 270.445 101.995 269.784 101.728C269.123 101.461 268.611 101.083 268.248 100.592C267.885 100.091 267.704 99.504 267.704 98.832C267.704 98.1707 267.875 97.6107 268.216 97.152C268.568 96.6827 269.075 96.3307 269.736 96.096C270.397 95.8507 271.197 95.728 272.136 95.728C273.075 95.728 273.875 95.8507 274.536 96.096C275.208 96.3307 275.72 96.6827 276.072 97.152C276.424 97.6213 276.6 98.1813 276.6 98.832C276.6 99.504 276.419 100.091 276.056 100.592C275.693 101.083 275.176 101.461 274.504 101.728C273.832 101.995 273.043 102.128 272.136 102.128ZM272.136 100.832C273.032 100.832 273.731 100.651 274.232 100.288C274.744 99.9147 275 99.4133 275 98.784C275 98.1653 274.744 97.68 274.232 97.328C273.731 96.9653 273.032 96.784 272.136 96.784C271.251 96.784 270.557 96.9653 270.056 97.328C269.555 97.68 269.304 98.1653 269.304 98.784C269.304 99.4133 269.555 99.9147 270.056 100.288C270.557 100.651 271.251 100.832 272.136 100.832ZM272.136 96.592C271.283 96.592 270.557 96.48 269.96 96.256C269.363 96.0213 268.904 95.6907 268.584 95.264C268.264 94.8267 268.104 94.3093 268.104 93.712C268.104 93.0827 268.269 92.544 268.6 92.096C268.941 91.6373 269.416 91.2853 270.024 91.04C270.632 90.7947 271.336 90.672 272.136 90.672C272.947 90.672 273.656 90.7947 274.264 91.04C274.872 91.2853 275.347 91.6373 275.688 92.096C276.029 92.544 276.2 93.0827 276.2 93.712C276.2 94.3093 276.04 94.8267 275.72 95.264C275.4 95.6907 274.936 96.0213 274.328 96.256C273.72 96.48 272.989 96.592 272.136 96.592ZM272.136 95.568C272.915 95.568 273.523 95.408 273.96 95.088C274.408 94.768 274.632 94.3307 274.632 93.776C274.632 93.2107 274.403 92.768 273.944 92.448C273.485 92.128 272.883 91.968 272.136 91.968C271.389 91.968 270.792 92.128 270.344 92.448C269.907 92.768 269.688 93.2107 269.688 93.776C269.688 94.3307 269.901 94.768 270.328 95.088C270.765 95.408 271.368 95.568 272.136 95.568ZM278.301 104.368L279.101 101.136L279.309 102.064C279 102.064 278.738 101.968 278.525 101.776C278.322 101.584 278.221 101.323 278.221 100.992C278.221 100.672 278.322 100.411 278.525 100.208C278.738 100.005 278.994 99.904 279.293 99.904C279.602 99.904 279.853 100.011 280.045 100.224C280.237 100.427 280.333 100.683 280.333 100.992C280.333 101.099 280.322 101.205 280.301 101.312C280.29 101.408 280.264 101.525 280.221 101.664C280.189 101.792 280.136 101.952 280.061 102.144L279.309 104.368H278.301ZM281.546 99.248V98.128L287.274 90.8H289.002L283.322 98.128L282.506 97.872H291.45V99.248H281.546ZM287.77 102V99.248L287.818 97.872V95.44H289.322V102H287.77ZM271.4 117.672C272.413 117.672 273.267 117.891 273.96 118.328C274.664 118.765 275.197 119.4 275.56 120.232C275.923 121.053 276.104 122.061 276.104 123.256C276.104 124.525 275.88 125.597 275.432 126.472C274.984 127.347 274.365 128.008 273.576 128.456C272.787 128.904 271.864 129.128 270.808 129.128C270.285 129.128 269.779 129.075 269.288 128.968C268.808 128.861 268.387 128.696 268.024 128.472L268.632 127.224C268.931 127.416 269.261 127.555 269.624 127.64C269.997 127.715 270.387 127.752 270.792 127.752C271.923 127.752 272.824 127.4 273.496 126.696C274.168 125.981 274.504 124.925 274.504 123.528C274.504 123.304 274.493 123.037 274.472 122.728C274.451 122.419 274.403 122.115 274.328 121.816L274.856 122.36C274.707 122.851 274.456 123.267 274.104 123.608C273.763 123.939 273.347 124.189 272.856 124.36C272.376 124.52 271.848 124.6 271.272 124.6C270.536 124.6 269.88 124.461 269.304 124.184C268.728 123.907 268.275 123.517 267.944 123.016C267.613 122.504 267.448 121.901 267.448 121.208C267.448 120.483 267.619 119.859 267.96 119.336C268.312 118.803 268.787 118.392 269.384 118.104C269.992 117.816 270.664 117.672 271.4 117.672ZM271.464 118.968C270.984 118.968 270.557 119.059 270.184 119.24C269.811 119.421 269.517 119.672 269.304 119.992C269.101 120.312 269 120.696 269 121.144C269 121.805 269.229 122.333 269.688 122.728C270.147 123.112 270.765 123.304 271.544 123.304C272.056 123.304 272.504 123.208 272.888 123.016C273.283 122.824 273.587 122.563 273.8 122.232C274.024 121.901 274.136 121.533 274.136 121.128C274.136 120.733 274.035 120.376 273.832 120.056C273.629 119.736 273.331 119.475 272.936 119.272C272.541 119.069 272.051 118.968 271.464 118.968ZM277.536 131.368L278.336 128.136L278.544 129.064C278.234 129.064 277.973 128.968 277.76 128.776C277.557 128.584 277.456 128.323 277.456 127.992C277.456 127.672 277.557 127.411 277.76 127.208C277.973 127.005 278.229 126.904 278.528 126.904C278.837 126.904 279.088 127.011 279.28 127.224C279.472 127.427 279.568 127.683 279.568 127.992C279.568 128.099 279.557 128.205 279.536 128.312C279.525 128.408 279.498 128.525 279.456 128.664C279.424 128.792 279.37 128.952 279.296 129.144L278.544 131.368H277.536ZM285.469 129.128C284.594 129.128 283.81 128.904 283.117 128.456C282.434 128.008 281.89 127.357 281.485 126.504C281.09 125.651 280.893 124.616 280.893 123.4C280.893 122.184 281.09 121.149 281.485 120.296C281.89 119.443 282.434 118.792 283.117 118.344C283.81 117.896 284.594 117.672 285.469 117.672C286.333 117.672 287.112 117.896 287.805 118.344C288.498 118.792 289.042 119.443 289.437 120.296C289.832 121.149 290.029 122.184 290.029 123.4C290.029 124.616 289.832 125.651 289.437 126.504C289.042 127.357 288.498 128.008 287.805 128.456C287.112 128.904 286.333 129.128 285.469 129.128ZM285.469 127.704C286.056 127.704 286.568 127.544 287.005 127.224C287.453 126.904 287.8 126.424 288.045 125.784C288.301 125.144 288.429 124.349 288.429 123.4C288.429 122.451 288.301 121.656 288.045 121.016C287.8 120.376 287.453 119.896 287.005 119.576C286.568 119.256 286.056 119.096 285.469 119.096C284.882 119.096 284.365 119.256 283.917 119.576C283.469 119.896 283.117 120.376 282.861 121.016C282.616 121.656 282.493 122.451 282.493 123.4C282.493 124.349 282.616 125.144 282.861 125.784C283.117 126.424 283.469 126.904 283.917 127.224C284.365 127.544 284.882 127.704 285.469 127.704ZM272.2 156.16C271.272 156.16 270.467 156.021 269.784 155.744C269.101 155.467 268.573 155.077 268.2 154.576C267.827 154.064 267.64 153.467 267.64 152.784C267.64 152.101 267.821 151.525 268.184 151.056C268.547 150.587 269.069 150.229 269.752 149.984C270.435 149.739 271.251 149.616 272.2 149.616C273.149 149.616 273.965 149.739 274.648 149.984C275.341 150.229 275.869 150.592 276.232 151.072C276.605 151.541 276.792 152.112 276.792 152.784C276.792 153.467 276.6 154.064 276.216 154.576C275.843 155.077 275.309 155.467 274.616 155.744C273.933 156.021 273.128 156.16 272.2 156.16ZM272.2 154.528C272.968 154.528 273.576 154.368 274.024 154.048C274.472 153.728 274.696 153.285 274.696 152.72C274.696 152.165 274.472 151.728 274.024 151.408C273.576 151.088 272.968 150.928 272.2 150.928C271.432 150.928 270.829 151.088 270.392 151.408C269.955 151.728 269.736 152.165 269.736 152.72C269.736 153.285 269.955 153.728 270.392 154.048C270.829 154.368 271.432 154.528 272.2 154.528ZM272.2 150.704C271.336 150.704 270.595 150.592 269.976 150.368C269.357 150.133 268.877 149.797 268.536 149.36C268.205 148.912 268.04 148.379 268.04 147.76C268.04 147.12 268.211 146.571 268.552 146.112C268.904 145.643 269.395 145.28 270.024 145.024C270.653 144.768 271.379 144.64 272.2 144.64C273.032 144.64 273.763 144.768 274.392 145.024C275.021 145.28 275.512 145.643 275.864 146.112C276.216 146.571 276.392 147.12 276.392 147.76C276.392 148.379 276.221 148.912 275.88 149.36C275.549 149.797 275.069 150.133 274.44 150.368C273.811 150.592 273.064 150.704 272.2 150.704ZM272.2 149.424C272.861 149.424 273.384 149.285 273.768 149.008C274.152 148.72 274.344 148.336 274.344 147.856C274.344 147.355 274.147 146.965 273.752 146.688C273.357 146.411 272.84 146.272 272.2 146.272C271.56 146.272 271.048 146.411 270.664 146.688C270.28 146.965 270.088 147.355 270.088 147.856C270.088 148.336 270.275 148.72 270.648 149.008C271.032 149.285 271.549 149.424 272.2 149.424ZM278.378 158.416L279.306 154.88L279.578 156.064C279.204 156.064 278.89 155.952 278.634 155.728C278.388 155.493 278.266 155.179 278.266 154.784C278.266 154.379 278.388 154.059 278.634 153.824C278.89 153.579 279.199 153.456 279.562 153.456C279.935 153.456 280.244 153.579 280.49 153.824C280.735 154.069 280.858 154.389 280.858 154.784C280.858 154.891 280.847 155.008 280.826 155.136C280.804 155.253 280.767 155.392 280.714 155.552C280.671 155.712 280.596 155.915 280.49 156.16L279.674 158.416H278.378ZM285.98 144.64C287.004 144.64 287.873 144.859 288.588 145.296C289.313 145.723 289.868 146.347 290.252 147.168C290.636 147.989 290.828 149.003 290.828 150.208C290.828 151.488 290.593 152.571 290.124 153.456C289.665 154.341 289.025 155.013 288.204 155.472C287.383 155.931 286.428 156.16 285.34 156.16C284.775 156.16 284.236 156.101 283.724 155.984C283.212 155.867 282.769 155.685 282.396 155.44L283.164 153.872C283.473 154.075 283.809 154.219 284.172 154.304C284.535 154.379 284.908 154.416 285.292 154.416C286.348 154.416 287.185 154.091 287.804 153.44C288.423 152.789 288.732 151.829 288.732 150.56C288.732 150.357 288.727 150.123 288.716 149.856C288.705 149.579 288.668 149.301 288.604 149.024L289.244 149.728C289.063 150.165 288.801 150.533 288.46 150.832C288.119 151.12 287.719 151.339 287.26 151.488C286.801 151.637 286.295 151.712 285.74 151.712C285.015 151.712 284.359 151.573 283.772 151.296C283.196 151.008 282.737 150.608 282.396 150.096C282.055 149.573 281.884 148.965 281.884 148.272C281.884 147.525 282.065 146.885 282.428 146.352C282.791 145.808 283.281 145.387 283.9 145.088C284.529 144.789 285.223 144.64 285.98 144.64ZM286.092 146.272C285.665 146.272 285.287 146.352 284.956 146.512C284.625 146.661 284.364 146.88 284.172 147.168C283.991 147.445 283.9 147.781 283.9 148.176C283.9 148.763 284.103 149.227 284.508 149.568C284.913 149.909 285.457 150.08 286.14 150.08C286.588 150.08 286.983 150 287.324 149.84C287.665 149.669 287.932 149.44 288.124 149.152C288.316 148.853 288.412 148.523 288.412 148.16C288.412 147.808 288.321 147.493 288.14 147.216C287.959 146.928 287.697 146.699 287.356 146.528C287.015 146.357 286.593 146.272 286.092 146.272Z" fill="#2A2828"/>
</svg>
